<svg xmlns="http://www.w3.org/2000/svg" xmlns:xlink="http://www.w3.org/1999/xlink" width="474.468" height="263.92" viewBox="0 0 474.468 263.92">
  <defs>
    <linearGradient id="linear-gradient" x1="-18.183" y1="5.887" x2="1.018" y2="0.34" gradientUnits="objectBoundingBox">
      <stop offset="0" stop-color="#95b9ce"/>
      <stop offset="1" stop-color="#c2dae9"/>
    </linearGradient>
    <linearGradient id="linear-gradient-2" x1="0.171" y1="1.4" x2="1.038" y2="-0.113" xlink:href="#linear-gradient"/>
    <linearGradient id="linear-gradient-3" x1="0.977" y1="0.155" x2="0.272" y2="1.157" gradientUnits="objectBoundingBox">
      <stop offset="0" stop-color="#a1bfe9"/>
      <stop offset="1" stop-color="#c2dae9"/>
    </linearGradient>
  </defs>
  <g id="Capa_1" data-name="Capa 1" transform="translate(-79.818 -103.46)">
    <rect id="Rectángulo_34632" data-name="Rectángulo 34632" width="395.88" height="263.92" transform="translate(108.31 103.46)" fill="none"/>
    <g id="Grupo_80458" data-name="Grupo 80458">
      <g id="Grupo_80454" data-name="Grupo 80454">
        <path id="Trazado_119799" data-name="Trazado 119799" d="M554.25,166.5c-.36-1.63-5.2-18.93-9.12-29.34s-7.17-14.81-7.51-14.92c-.81-.28-2.51-.42-3.59-.69,1.24.29,3,2.58,4.45,6,2.64,6.39,12.28,35.71,12.79,38.78s-1.62,1.88-7.25,1.37C544,167.7,555,169.94,554.25,166.5Z" fill="url(#linear-gradient)"/>
        <path id="Trazado_119800" data-name="Trazado 119800" d="M544,167.89s-3.42,0-5.72,10.32c-1.16,5.19-6.59,22.52-11.87,39-.09.25-.18.51-.26.76s-.18.59-.27.87h0c-.09.25-.17.5-.25.75v.16c-4.91,15.28-9.51,29.19-10.15,31.07-1.36,4-13.48,45.46-22.78,59.62s-13.39,22.68-31,25.93-90.24,2.13-90.24,2.13H95.63v-6.31H427.25s12,.48,22.35,0H454l.29-.31a51.919,51.919,0,0,0,5.93-.8c9.72-2.05,20-14.93,25.84-28.24.19-.42.39-.91.63-1.47.11-.29.23-.58.36-.9.38-.95.81-2.07,1.29-3.32.15-.37.29-.74.43-1.13.29-.75.58-1.54.89-2.36l.37-1c.27-.76.57-1.54.86-2.35.46-1.26.95-2.58,1.45-4,1-2.88,2.17-6,3.34-9.35l.5-1.38c.39-1.15.81-2.31,1.22-3.48s.75-2.12,1.13-3.2c.51-1.44,1-2.91,1.54-4.4q1.035-3,2.09-6c.25-.69.49-1.4.74-2.09,1.54-4.45,3.11-9,4.66-13.48l.84-2.4c2.38-6.92,4.71-13.71,6.86-20,.1-.25.18-.51.26-.77s.23-.65.34-1,.17-.48.25-.72a1.66,1.66,0,0,1,.06-.16c.09-.25.17-.51.26-.76.36-1.06.72-2.09,1-3.11.29-.84.58-1.66.85-2.47.78-2.29,1.52-4.43,2.2-6.45.3-.87.59-1.71.86-2.52l2.43-7.11c.12-.37.24-.73.36-1.07l.35-1c.11-.33.22-.64.31-.92.45-1.33.79-2.29,1-2.85,2.65-7.76,6.66-20.47,7.59-22S538.39,167.38,544,167.89Z" fill="url(#linear-gradient-2)"/>
      </g>
      <path id="Trazado_119801" data-name="Trazado 119801" d="M551.33,167.19c0,.66-.15,1-.54,1.21-.95.44-3.13-.18-6.77-.51-5.63-.51-9.64-1.79-10.58-.26s-4.94,14.25-7.59,22c-.85,2.51-4.69,13.82-9.7,28.45-.08.24-.16.48-.25.72s-.22.66-.34,1-.16.52-.26.77c-10.45,30.53-25.32,73.5-29.2,82.26-5.88,13.3-16.1,26.17-25.84,28.23a51.929,51.929,0,0,1-5.93.8c-1.5.13-3.09.23-4.73.31H95.6l4.19-13.57H404.57c16,0,35.31,2.82,43.92-5.11s13.22-15.95,21.67-38.56c7.31-19.58,16.54-48.12,20.82-61.67.1-.27.18-.54.26-.79.16-.52.31-1,.46-1.46.08-.28.18-.56.26-.83.23-.76.45-1.44.63-2,3-9.63,12.28-39.83,11.6-41.46s-15.1-.59-18.43-2.38-.08-4.69,4.61-7.85,21.58-16.8,24.9-19.27c0,0,12.2-11.6,15.35-14.25a4.62,4.62,0,0,1,3.08-1.38h0l.77.18.14.06c1.2.6,2.33,2.23,3.59,5.12l.26.62c.46,1.1,1.12,2.89,1.91,5.11,3.77,10.66,10.47,31.34,10.89,33.88a4.341,4.341,0,0,1,.07.63Z" fill="url(#linear-gradient-3)"/>
      <path id="Trazado_119802" data-name="Trazado 119802" d="M354,267.94c-4.42-11.26-12.2-29-15.31-33.35l1.36,2.65c-1.85.51-6.91.44-7.67,0a63.665,63.665,0,0,1-4.43-5c-.42-.48-.85-1-1.28-1.48l-18.23,4.45a8.1,8.1,0,0,1-.05,1.11c-.26,5.58-.75,9.63-2.18,10.34s-6.33.53-6.51.52a189.305,189.305,0,0,0-5.26,26.41c-1.41,12.41,0,18.68,1.92,28.22,1.76,8.76,6.33,21.61,7.06,23.64.07.18.1.28.1.28h3c2.43,0,2.81-.38,2.81-.38v-.14c-.13-1.88-1.61-24.4-2-31.08-.45-7-1.22-14.07,3.26-26.67s7.19-20.53,10.86-20.79,8,6,14.26,15.8,10.77,17.78,11.79,27.31c1,9.08,2.59,33.08,2.74,35.32v.18s.7.64,3.07.84,2.62-.39,2.62-.39l.05-.24c.37-1.85,2.85-14.52,3-24.58C359.17,290.08,358.4,279.2,354,267.94Z" fill="#3d23b5"/>
      <path id="Trazado_119803" data-name="Trazado 119803" d="M226.49,218.62a53.717,53.717,0,0,1-7.4,3.31c-4.77,1.79-6.61,2.17-8.69,1.23s-2.78-6.31-3.8-11.51-2.86-11.13-6.44-13a69.309,69.309,0,0,0-14.1-4.54q-1.35-.32-2.73-.6l-1.42-.28c-7.46-1.45-11.73-1.62-14.8.47s-8.39,8.59-9.77,10.36c-8,10.21-4.73,16-1.57,20.77,2.83,4.3,8.22,8.14,9.27,8.86a14.274,14.274,0,0,1,.32-1.57s3.88,4.39,13.56,5.42,13.35.34,13.35.34.9-9.34,1.62-14.31,1.37-8,2-8.21,1.88,6.4,2.86,9.38,1.53,7.81,6.23,9.22,10-.39,16.07-3.5,8-6.89,8-6.89C228.61,222.48,226.49,218.62,226.49,218.62Zm-59.72-.41a20.75,20.75,0,0,0-1.08,6.53,18.9,18.9,0,0,1-3.31-5.16c-1.16-2.86-.37-5.41,1.34-7.93s6.43-7.64,6.89-6.9c.81,1.32-2.61,9.71-3.84,13.46Z" fill="#aaa9e3"/>
      <path id="Trazado_119804" data-name="Trazado 119804" d="M434.72,217.55c1.47-.72,4-.76,4.16,0s-2.09,1.21-2.09,1.21l-.5,2.78-1.73.61s0-.28.13-2.11a16,16,0,0,0,.03-2.49Z" fill="#fdb7b0"/>
      <path id="Trazado_119805" data-name="Trazado 119805" d="M434.55,222.35a40.829,40.829,0,0,1-15.36,3c-8.1-.18-16.45-2.56-20.13-7.26s-6.14-12.66-7-12.5-.3,3.12.47,7.47c.68,3.84,1.65,8.76,1.87,9.84v.22h.34c2-.3,8.08-1,8.08-1l.19,1.79a17,17,0,0,0,1,3.66c-.61.36-7.31,2.68-8.15,3h-.06v.25a60.23,60.23,0,0,0,2.16,7c.11.33.18.51.18.51-3.54,3.33-11.77,5.77-20.21,5.94a35,35,0,0,1-14-2.35c.95-5,0-9.34-1.59-14.34s-4.71-11.29-6.42-17.27-.89-11.17,1.52-11.94a106.246,106.246,0,0,1,12.22-2.17l3.44-.44c.23.81.6,1.41,1.19,1.29s.62-.73.67-1.51c4.41-.52,10.43-1.16,13.42-1.13,5,0,7.54.56,9.21,2.39s4.47,7.76,8,13.48,11.44,8.09,16.22,8.25,12.62-1.22,12.79-1a43.178,43.178,0,0,1-.05,4.82Z" fill="#0f0060"/>
      <path id="Trazado_119806" data-name="Trazado 119806" d="M273.75,212.94a22.421,22.421,0,0,1-5,1.37c-4,.8-7.07,1.55-8.32-1.35s-4.45-10.3-5.85-13.53-2.63-4.87-5.34-4.55c-1.76.22-4.29,1.39-7.1,2.85.52.4,3.07,5.87,1.75,6.88-1.07.82-4.52-2.21-5.94-3.62a3.78,3.78,0,0,1-1.64,3.24c-1.14.86-1.5,1.5-1.05,2.3s1.92,1.37,2.05,3.84-2.4,4.41-5.67,5a6.06,6.06,0,0,1-3-.2,57.613,57.613,0,0,0,1.62,11.14c1.6,6,3.46,8.28,8.37,6.82h.14v.25a12.81,12.81,0,0,0,.47,3.17s2.26,1.31,7.16-.83a62,62,0,0,0,13.09-8.79,40.428,40.428,0,0,1-3.63-6.14c-1-2.44-2.34-5.91-2.07-6.85h0a.239.239,0,0,1,.16-.21h.12c.65-.15.9,1.2,1.83,3.88a7,7,0,0,0,5.21,4.77c2.47.73,6.54-.84,8.73-2.21a47.381,47.381,0,0,0,4.81-3.62C274.34,215.69,273.42,213.15,273.75,212.94Zm-33.5,8.9h0a.23.23,0,0,1-.05.1,8.156,8.156,0,0,1-.56.75c-.78.93-2.07,2.27-2.53,2.12-.62-.21-.57-3.46-.4-6s.26-7.28.81-7.39c.73-.12,1.66,2.14,2.38,4.83A11.22,11.22,0,0,1,240.25,221.84Z" fill="#3d23b5"/>
      <path id="Trazado_119807" data-name="Trazado 119807" d="M305.24,214.91a8.6,8.6,0,0,1,2.69,2c1.28,1.37,1,2.29,1,2.29l-1.73,1.52c1,2.75,1.47,8.25,1.22,14.46v.12l18.23-4.45c-2.06-2.38-4.32-4.93-6.13-6.74-4.28-4.29-9.6-8.7-12.79-16.7s-6.64-19.35-5.19-20l.32-.15h0s-2.41.76-4.56,1.46c.07.81.06,1.48-.17,1.57s-.66-.43-1.06-1.17c-1.07.35-1.91.64-2.07.72,0,0,3.13,8.38,5.12,12.86S305.24,214.91,305.24,214.91Z" fill="#ffc10b"/>
      <path id="Trazado_119808" data-name="Trazado 119808" d="M394.75,223.11a49.68,49.68,0,0,1-10.18,1.19c-3.17,0-6.42-.44-8.69-1.85-5.07-3.17-8.55-12.53-10-16.53-.31-.82-.53-1.42-.67-1.7a.13.13,0,0,1,.06-.17.14.14,0,0,1,.17,0c.14.3.37.91.68,1.73,1.47,4,4.92,13.29,9.92,16.4,5.24,3.27,15.85,1.25,18.35.71v.22Z" fill="#aaa9e3"/>
      <path id="Trazado_119809" data-name="Trazado 119809" d="M395.87,230.83a58.789,58.789,0,0,1-14,2.11c-6.14,0-10.61-1.76-14.44-5.39-5.57-5.27-9.63-14.4-11-18.48a.131.131,0,0,1,.25-.08c1.35,4.06,5.38,13.14,10.92,18.38,6.19,5.87,14.13,6.77,28.26,3.2h0A.748.748,0,0,0,395.87,230.83Z" fill="#aaa9e3"/>
      <path id="Trazado_119810" data-name="Trazado 119810" d="M307.93,216.86a8.6,8.6,0,0,0-2.69-2s-3.13-7.8-5.11-12.28S295,189.77,295,189.77c-1.33.64-7.72,3.55-10.79,5.08s-4,3-4.32,6.48a152.42,152.42,0,0,0-.32,20.4c.52,7.06,1.93,11.35,4.87,12.5s9.47-1,14.78-5.56c0,0,2.62,3.71,2.75,7,.1,2.78-1.64,9.24-2.16,11.07h0a2.941,2.941,0,0,1-.13.51c.18,0,5,.24,6.51-.52s1.92-4.76,2.18-10.34a8.4,8.4,0,0,1,.05-1.11v-.12c.25-6.21-.25-11.71-1.22-14.46l1.73-1.52S309.21,218.23,307.93,216.86Zm-18.3,6.24c-1.6-.77-1.66-4-1.79-6.91s-.21-10.05.77-9.72c1.92.64,7.67,13.77,7.67,13.77S291.23,223.87,289.63,223.1Z" fill="#ff4030"/>
      <path id="Trazado_119811" data-name="Trazado 119811" d="M378.52,175.68c-1.54,0-3.42,1.1-5.41.75s-7.84.26-7.18,7.93a3,3,0,0,0,.7,1.77c.37.44.78.73.92,1.21.25.9,1.08,1.31,1.18,0s-.7-3.71.9-5.37,2.91-1.79,4.89-1.51a9.05,9.05,0,0,0,2.75,0,2.79,2.79,0,0,0,2.24-1.36C380.12,177.68,380.05,175.68,378.52,175.68Z" fill="#3d23b5"/>
      <path id="Trazado_119812" data-name="Trazado 119812" d="M378.55,187.91a11.109,11.109,0,0,1-.87,2.94,5.15,5.15,0,0,1-2.68,2.86,3.2,3.2,0,0,1-.86.22,4,4,0,0,1-1.3-.09c-2.87-.69-4.52-4.45-4.52-4.45s-.77.57-1.66-.45-1-2.91,0-2.82c.37.45.78.74.92,1.22.25.89,1.08,1.31,1.19,0s-.71-3.72.88-5.37,2.91-1.79,4.9-1.51a8.74,8.74,0,0,0,2.75,0c.86.86,1.06,2.23,1.34,4A10.83,10.83,0,0,1,378.55,187.91Z" fill="#fdb7b0"/>
      <path id="Trazado_119813" data-name="Trazado 119813" d="M375,193.71a3.579,3.579,0,0,1-.87.22,3.67,3.67,0,0,1-1.29-.09,12.19,12.19,0,0,0,.37,1.93c.24.81.6,1.41,1.18,1.29s.63-.74.68-1.51A12.365,12.365,0,0,0,375,193.71Z" fill="#fdb7b0"/>
      <path id="Trazado_119814" data-name="Trazado 119814" d="M189.74,176c-.61-2.34-3.42-1.22-4.92-1.41a7,7,0,0,0-6.27,1.82c-2.34,2.21-2.56,3.87-2,6.15s1.38,3.09,2,5.59.95,3.61,2.49,3.23a1.84,1.84,0,0,0,1.14-.83,4.86,4.86,0,0,0,.59-2.4c0-.67-.74-1.06-1.47-1.63a1.11,1.11,0,0,1,.06-1.89c.67-.45,1.41.86,1.77,1.09s.92.25,1-.77-.51-2.17.26-4,3-1.47,3.93-1.6a2,2,0,0,0,.31-.07C189.4,179,190.28,178.07,189.74,176Z" fill="#ffc10b"/>
      <path id="Trazado_119815" data-name="Trazado 119815" d="M165.21,222.46c-1-5.44-7.29-18.87-9.47-21.56s-7.42-2.69-16.44-1.28c-1.43.22-2.91.46-4.4.71a4.25,4.25,0,0,1,.37,1.27,1.81,1.81,0,0,1-2.39,1.86,8.19,8.19,0,0,1-2-2.42c-6.36,1.18-12,2.61-13.47,4.34-2,2.49-6.8,11.21-9.27,17.1-1.58,3.76-3.4,4.46-4.29,4.71a10.63,10.63,0,0,1,1.58,3.67h0a16.31,16.31,0,0,1,.7,4,8.82,8.82,0,0,1,0,2c7.23-1.4,9.41-6.91,12.35-12.15s3.58-6.21,4.67-6.14,3.07,5.82,4.61,10.74c1.4,4.5,3.28,14.7,3.59,16.44a.574.574,0,0,0,.05.26c2.17,1.86,7.42,3.58,18.42.45,8.94-2.55,9.61-5.64,9.54-6.72h0a1.641,1.641,0,0,0-.07-.38c-.45-1.6-1.15-4.13-1.15-4.13C165.75,234.29,166.17,227.9,165.21,222.46Zm-34-2.61a.79.79,0,0,1,.13-.86c-.45.45-1,.93-1.22.59-.32-.57,1-1.66,1-1.66s-1.59,1.34-1.72,1.09.19-1.73,1.6-3.08,2.49-1.47,4.29,0,3.45,1.86,7.73,4.61A31.7,31.7,0,0,0,154,225.05s1.47,1.12,2.37,4.32a16.679,16.679,0,0,1,.58,5.82c-2.56.26-8.39-1.09-13.5-5.12a51.23,51.23,0,0,1-8.7-9c-1.67-.06-1.82-2.17-1.82-2.17s-1.3,1.58-1.69.95Z" fill="#0f0060"/>
      <path id="Trazado_119816" data-name="Trazado 119816" d="M134.9,200.33a43.53,43.53,0,0,0-2.57-4.9,5,5,0,0,1-1.34,3.43,4.151,4.151,0,0,1-1.1.62,14.926,14.926,0,0,0,.94,1.56,8.19,8.19,0,0,0,2,2.42,1.81,1.81,0,0,0,2.39-1.86A4.25,4.25,0,0,0,134.9,200.33Z" fill="#fdb7b0"/>
      <path id="Trazado_119817" data-name="Trazado 119817" d="M132.86,190.7v.08c0,1.27-1.87.86-1.61,1.48.14.37.49,1.09.94,1.25a6.88,6.88,0,0,1,.14,1.91,5,5,0,0,1-1.35,3.44,4,4,0,0,1-1.08.62,6.74,6.74,0,0,1-4.49.06,6.06,6.06,0,0,1-2-1.08,8.167,8.167,0,0,1-.7-.62c-1.92-1.86-3.13-4.33-3.19-5.73a5.8,5.8,0,0,0,2.55-.48,7.11,7.11,0,0,0,4.11-3.91c.43-1.09,1.07-1.21,2,0s2.13,2.29,2.62,1.78c.33-.36,1.15-.26,1.66.27a2.489,2.489,0,0,1,.25.38,1,1,0,0,1,.11.37A.8.8,0,0,1,132.86,190.7Z" fill="#fdb7b0"/>
      <path id="Trazado_119818" data-name="Trazado 119818" d="M131.43,186.32c-2.94-2.63-6-4.61-8.18-3.33s-7.87,3.9-6.85,7a3.3,3.3,0,0,0,3.15,2.08,5.64,5.64,0,0,0,2.54-.49,7.06,7.06,0,0,0,4.12-3.9c.43-1.08,1.07-1.21,2,0s2.13,2.29,2.63,1.78a1.25,1.25,0,0,1,1.66.27,1.47,1.47,0,0,1,.36.74.65.65,0,0,1,0,.18h0v.06c0,1.27-1.87.86-1.62,1.49.15.36.5,1.07.95,1.24s.7,0,1.11-.86C133.79,191.65,134.38,188.94,131.43,186.32Z" fill="#0f0060"/>
      <path id="Trazado_119819" data-name="Trazado 119819" d="M350.47,220.92c.19.07,3.77,1.09,5.5.64l2.57-2.38-4-3a7.7,7.7,0,0,0-3.39,2.49C350.08,220.24,350.47,220.92,350.47,220.92Z" fill="#fdb7b0"/>
      <path id="Trazado_119820" data-name="Trazado 119820" d="M402.93,222.52c.16-.51,3-.89,4.37-.7.91.13,4.43,1.51,4.19,2.53-.14.64-2-.12-2-.12s1.51.69,1.13,1.22-2.58-.22-2.58-.22,1.6,1.15.7,1.45a20.839,20.839,0,0,1-4.95.23S402.64,223.41,402.93,222.52Z" fill="#fdb7b0"/>
      <path id="Trazado_119821" data-name="Trazado 119821" d="M154.12,225.18h-.18a.14.14,0,0,1-.12-.14.13.13,0,0,1,.13-.12h0a1,1,0,0,0,1-.4c.52-.85.13-3.53-4.71-11.44a.124.124,0,1,1,.18-.17c3.94,6.43,5.53,10.37,4.71,11.71A1.17,1.17,0,0,1,154.12,225.18Z" fill="#aaa9e3"/>
      <path id="Trazado_119822" data-name="Trazado 119822" d="M106.09,234.84a25,25,0,0,0-.44-2.85c-.08-.41-.17-.78-.27-1.13a17.21,17.21,0,0,0-1.58-3.67c-2-.06-4.16-2-6.72-4.41S90.93,216,90.93,216h0c.33.79-3.31,2.9-3.59,2.53A58.15,58.15,0,0,0,94.2,231c4.29,5.5,10,6.27,11.9,5.82a16.941,16.941,0,0,0-.01-1.98Z" fill="#fdb7b0"/>
      <path id="Trazado_119823" data-name="Trazado 119823" d="M103.8,227.19a17.21,17.21,0,0,1,1.58,3.67,10.63,10.63,0,0,0-1.58-3.67Z" fill="#fdb7b0"/>
      <path id="Trazado_119824" data-name="Trazado 119824" d="M106.09,234.84a16.943,16.943,0,0,1,0,2A8.819,8.819,0,0,0,106.09,234.84Z" fill="#fdb7b0"/>
      <path id="Trazado_119825" data-name="Trazado 119825" d="M132,218.37a3.261,3.261,0,0,0-.58.62C131.69,218.67,132,218.37,132,218.37Z" fill="#fdb7b0"/>
      <path id="Trazado_119826" data-name="Trazado 119826" d="M132.82,190.51a.58.58,0,0,1,0,.18.651.651,0,0,0,0-.18Z" fill="#0f0060"/>
      <path id="Trazado_119827" data-name="Trazado 119827" d="M130,322.51a4.38,4.38,0,0,1-3.07,0s-.13-.17-.33-.49h0c-1.87.81-4.22,2.39-3.49,3.24s4.22.3,6.48-.38,3-1.2,3.07-1.71.26-1.8-.3-2.41h0C132.31,321.37,131.68,322,130,322.51Z" fill="#0f0060"/>
      <path id="Trazado_119828" data-name="Trazado 119828" d="M179.38,316.77c0,.64-.59.77-1.44,1.45a15.3,15.3,0,0,1-3.09,1.87c-.86,1.56-2.91,5.1-1.9,6.11s4.93-2.6,6.45-4.27,2.34-2.68,2.34-2.68a8.41,8.41,0,0,0-2.36-2.48Z" fill="#0f0060"/>
      <path id="Trazado_119829" data-name="Trazado 119829" d="M178.84,315.28c-1.16-2.18-10-19.06-12.48-25s-4.41-12.29-4.6-23.8-.7-21.55-2.43-26.74c.07,1.08-.6,4.17-9.54,6.72-11,3.13-16.25,1.41-18.42-.45a1.037,1.037,0,0,0-.05-.26c-1.1,2.76-8.33,18.56-10.31,22.84s-5,11.39-4.29,18.74a128,128,0,0,0,5.37,24.95,45.509,45.509,0,0,0,4.54,9.75c.2.32.33.49.33.49a4.38,4.38,0,0,0,3.07,0c1.65-.48,2.28-1.14,2.36-1.76a1,1,0,0,0,0-.35,121.17,121.17,0,0,1-3-20.47c-.77-11.84-.16-17.85,3.15-24.18s10-17.08,12.45-16.83,3.74,9.28,4.61,18.36a48.35,48.35,0,0,0,11,26.48c7,8.71,13.89,16.38,14.08,16.38l.17-.05a15.3,15.3,0,0,0,3.09-1.87c.85-.68,1.46-.81,1.44-1.45A3.78,3.78,0,0,0,178.84,315.28Z" fill="#ff4030"/>
      <path id="Trazado_119830" data-name="Trazado 119830" d="M186.06,192a4.76,4.76,0,0,0,3.84-4.23c.57-3.42-.33-7.14-1.35-8.45a2,2,0,0,1-.31.07c-.93.13-3.17-.22-3.93,1.6s-.23,3-.26,4-.59,1-1,.77-1.1-1.54-1.77-1.09a1.11,1.11,0,0,0-.06,1.89c.73.57,1.5,1,1.47,1.63a4.86,4.86,0,0,1-.59,2.4,28,28,0,0,1,1.18,3q1.38.28,2.73.6Z" fill="#fdb7b0"/>
      <path id="Trazado_119831" data-name="Trazado 119831" d="M165.36,232.16a14.278,14.278,0,0,0-.32,1.57l.19.14Z" fill="#aaa9e3"/>
      <path id="Trazado_119832" data-name="Trazado 119832" d="M163.68,318.86v-.21h0c-.58.86-1.26,3.72-1,4.13A74.07,74.07,0,0,0,173,327.19c1.11.13,2.26-.21,1.15-1.49a23.89,23.89,0,0,0-3.55-3.7l-.14.27C168.92,320.84,163.68,318.86,163.68,318.86Z" fill="#0f0060"/>
      <path id="Trazado_119833" data-name="Trazado 119833" d="M233.79,320.72s-6.72.51-6.79.32c0,0,.67,3,1.73,3.37s11-.17,11.3-.77S237.48,320.65,233.79,320.72Z" fill="#0f0060"/>
      <path id="Trazado_119834" data-name="Trazado 119834" d="M219.78,292.51C215.43,284.25,206,264,201.61,256s-9.34-18.06-9.34-18.06-3.67.68-13.35-.34-13.56-5.42-13.56-5.42-.2,1.65-.32,1.57a25.68,25.68,0,0,0,.54,10.1c1.36,5.5,6,13.11,8.91,19s5.95,12.54,5.63,15S176.43,289,172.45,296a102.1,102.1,0,0,0-8.73,22.69c0,.07,0,.15,0,.21s5.24,2,6.78,3.39l.14-.27c1-1.83,7.1-12.91,11.31-19.82,4.6-7.54,10.94-18.61,11.64-21.94s.89-5.18-.51-7.61a79.893,79.893,0,0,1,7.23,10.49,254.6,254.6,0,0,0,17.78,27c6.14,7.74,8.89,10.74,8.95,10.94s6.79-.32,6.79-.32S224.13,300.76,219.78,292.51Z" fill="#3d23b5"/>
      <path id="Trazado_119835" data-name="Trazado 119835" d="M242.14,197.73h0c-.45-.19-1.6,1.22-1.6-.12,0-.81-.07-1.62-.12-2.14a4.71,4.71,0,0,1-3.06,1.8h0c1,.85,1.77,2,1.39,2.19a12.349,12.349,0,0,0-1.15.58l.09.14a2.55,2.55,0,0,1,.3.85c1.42,1.4,4.87,4.43,5.94,3.61C245.21,203.61,242.66,198.13,242.14,197.73Z" fill="#fdb7b0"/>
      <path id="Trazado_119836" data-name="Trazado 119836" d="M241.27,193.29a1.59,1.59,0,0,1-.1.46,4.6,4.6,0,0,1-.8,1.7,4.69,4.69,0,0,1-3.06,1.79,4.15,4.15,0,0,1-2.95-.63,6.911,6.911,0,0,1-1.06-.92,12.938,12.938,0,0,1-.86-1c-1.34-1.79-2-3.87-1.15-4.26s4.67-2.39,5.34-3.78a10.18,10.18,0,0,0,.4-2.6c.45-.14,1.15.29,1.22.33a8.291,8.291,0,0,1,.91,1.1,10.55,10.55,0,0,1,2.2,5.26A10.071,10.071,0,0,1,241.27,193.29Z" fill="#fdb7b0"/>
      <path id="Trazado_119837" data-name="Trazado 119837" d="M236.7,181.52c-1.34-1.09-3.58-.58-5.19.51s-3.64,2.56-3.58,6.05,1.22,5.14,0,6.81-2.68,4.6-2,5.88,3,1.86,2.59,3.33-4.37,3.39-3.87,6.59a5.73,5.73,0,0,0,3.91,4.5,6.06,6.06,0,0,0,3,.2c3.26-.61,5.8-2.56,5.67-5s-1.61-3-2.06-3.84-.09-1.44,1.06-2.3A3.78,3.78,0,0,0,238,201a2.549,2.549,0,0,0-.3-.85l-.09-.14a2.142,2.142,0,0,0-.13-.19c-1-1.33-2.78-2.7-4.13-4.13a11.4,11.4,0,0,1-.86-1c-1.34-1.79-2-3.86-1.15-4.25s4.58-2.3,5.34-3.77a6.7,6.7,0,0,0,.4-2.61c.45-.14,1.16.3,1.22.33h0C238.55,184,238,182.61,236.7,181.52Z" fill="#ff4030"/>
      <path id="Trazado_119838" data-name="Trazado 119838" d="M237.22,309.05l-.39,2.52s2.17,2.59,3.63,3l.74-2.2-.1-.11a32.72,32.72,0,0,0-3.88-3.21Z" fill="#fdb7b0"/>
      <path id="Trazado_119839" data-name="Trazado 119839" d="M247.35,322.63c-1.41-.7-2.56-3.11-3.43-4.37s-2-3.29-3.46-3.7-3.63-3-3.63-3c-.58.8-.8,2.3-.55,4.73s1,7,1.34,7.1.49-.6.36-2.08a11.691,11.691,0,0,1,0-2.56s1.33.64,2.55,1.19a6.65,6.65,0,0,1,2.84,2.82c.39.86,2.4,2.49,3.94,2.14S248.76,323.32,247.35,322.63Z" fill="#ffc10b"/>
      <path id="Trazado_119840" data-name="Trazado 119840" d="M281.51,321l.37.17.23-2.59c-2.27-.13-5.66-.41-5.66-.41.1.31.42,3.35.42,3.35C276.82,320.46,279.05,320,281.51,321Z" fill="#fdb7b0"/>
      <path id="Trazado_119841" data-name="Trazado 119841" d="M273.67,271.17c0,3.78-3.36,6.92-6.81,10.93-3.71,4.31-12.92,15.19-15.86,19.7s-8.54,12-8.54,12-.24-.29-1.27-1.43l-.09-.11a31.3,31.3,0,0,0-3.88-3.19c.77-6.06,5-16.55,11.64-24.92a175.229,175.229,0,0,1,14.67-16.67c2.43-2.36,2.44-4,2.1-5h0a2.749,2.749,0,0,0-.27-.62,1,1,0,0,0-.1-.17c.54.52,1.06,1,1.58,1.56a.551.551,0,0,0,.1.11c.84.85,1.66,1.7,2.43,2.5l.53.57c.42.43.81.84,1.18,1.24.25.24.47.49.69.71l.82.85.32.33h0l.29.27a4.6,4.6,0,0,1,.41.47v.31A2.329,2.329,0,0,1,273.67,271.17Z" fill="#0f0060"/>
      <path id="Trazado_119842" data-name="Trazado 119842" d="M285.54,270c-1.2-6.57-6.82-12.66-6.61-12.54a47,47,0,0,0-5.08-11.6c-2.94-4.51-14.38-19-14.38-19a61.9,61.9,0,0,1-13.08,8.79c-4.89,2.14-7.17.83-7.17.83.26,1.63,1,5.73,5.92,9.85s11.55,7.87,15.87,11.42c1.32,1.09,2.78,2.46,4.23,3.88,3.26,3.19,6.47,6.7,8,8.18a3,3,0,0,1,.4.47c1.69,2.27,1.09,6.4,1,10.58-.08,4.47.81,20.85.9,27.72s.93,9.51.93,9.51,3.39.28,5.66.41a11.9,11.9,0,0,0,2,.05c.42-.12.94-16.93,1.15-22S286.73,276.6,285.54,270Z" fill="#0f0060"/>
      <path id="Trazado_119843" data-name="Trazado 119843" d="M290.5,327.91c-.23-.25-2.47-.73-3.84-2.39s-2.56-3.4-4.78-4.38l-.37-.17c-2.46-.93-4.69-.51-4.64.52s.54,4,.7,5.43.1,2.46.32,2.53.74.19.77,0,0-4.48.23-4.61a6.88,6.88,0,0,1,3.16.68,10.28,10.28,0,0,1,3.23,2.14c.74.73,1.28,1.76,3.26,1.66S290.72,328.17,290.5,327.91Z" fill="#ffc10b"/>
      <path id="Trazado_119844" data-name="Trazado 119844" d="M274.66,216.52Z" fill="#fdb7b0"/>
      <path id="Trazado_119845" data-name="Trazado 119845" d="M275.22,215.42c.23-.28.69,0,1.13.48a1.64,1.64,0,0,1-.06-1.33c.2-.31.66,0,1.12.59a1.33,1.33,0,0,1,0-.71c.11-.16.61.25,1.11.84-.08-.4-.07-.73.1-.84s.82.25,1.31.84a16.747,16.747,0,0,0-.77-1.59c-1.22-2.31-3.61-1.62-5.36-.77-.37.18.57,2.75.87,3.54l.62-.06C275.09,216,275,215.62,275.22,215.42Z" fill="#fdb7b0"/>
      <path id="Trazado_119846" data-name="Trazado 119846" d="M274.64,216.47v.05A.069.069,0,0,0,274.64,216.47Z" fill="#fdb7b0"/>
      <path id="Trazado_119847" data-name="Trazado 119847" d="M298.31,188.65c-.09-.93-.29-2.05-.43-2.74a4.8,4.8,0,0,1-1.21.66,4.231,4.231,0,0,1-.7.21c.33.64.72,1.55,1.11,2.27s.78,1.28,1.06,1.17S298.38,189.46,298.31,188.65Z" fill="#fdb7b0"/>
      <path id="Trazado_119848" data-name="Trazado 119848" d="M299.55,180.69h0a15,15,0,0,0-.63-2.67,9.32,9.32,0,0,0-1.34-3.17c-1.38.82-3.81,1-5.38,1.25s-2.56,1.1-2.65,2.26a19.092,19.092,0,0,0,.43,3.59,1.5,1.5,0,0,1-.87-.28c-.06.88.22,2.2,1.65,1.91a4.581,4.581,0,0,0,.38.65,6.85,6.85,0,0,0,1.8,1.92,3.84,3.84,0,0,0,3,.66h0a4,4,0,0,0,.7-.21,4.8,4.8,0,0,0,1.21-.66h0a4,4,0,0,0,1.58-2.46,6.93,6.93,0,0,0,.12-2.79Z" fill="#fdb7b0"/>
      <path id="Trazado_119849" data-name="Trazado 119849" d="M298.72,170.28a1.957,1.957,0,0,0-3-.35c-.82.8-2,.26-3.56,0s-3.46.17-5,2.9-.34,4.91.43,6.48a5.93,5.93,0,0,0,1.51,2.29,1.5,1.5,0,0,0,.87.27,18.361,18.361,0,0,1-.42-3.58c.08-1.15,1.06-2,2.64-2.26s4-.43,5.39-1.25h0C299,174,299.18,171.35,298.72,170.28Z" fill="#3d23b5"/>
      <path id="Trazado_119850" data-name="Trazado 119850" d="M299.68,247.22h0a2.007,2.007,0,0,1,.13-.51C299.73,247,299.68,247.22,299.68,247.22Z" fill="#3d23b5"/>
      <path id="Trazado_119851" data-name="Trazado 119851" d="M354.56,216.19s-10.74-5.95-15-7.93-7.1-5.47-9.66-11.18-4.86-11.53-9-13.32-10.2-.17-18,3.43l-.32.15c-1.45.67,2,12,5.19,20s8.51,12.41,12.79,16.7c1.81,1.81,4.07,4.36,6.13,6.74.43.51.86,1,1.28,1.48a63.666,63.666,0,0,0,4.43,5c.76.44,5.82.51,7.67,0l-1.36-2.65h0c-2-3.82-5.63-10.88-8-15.15-3.33-6.07-10.17-16.75-11.45-19.3s-2.24-4.68-1.54-4.68,4.93,7.87,7.49,12.09,4.41,6.78,10.81,9.31a94.26,94.26,0,0,0,14.46,4.06,3.37,3.37,0,0,1,1.08-2.68,11.6,11.6,0,0,1,3-2.07Z" fill="#ff4030"/>
      <path id="Trazado_119852" data-name="Trazado 119852" d="M306.52,325.77h-3a.657.657,0,0,0-.1-.28h0c-1.33.28-4.86,1.6-5.12,2.28s-.17,1.58,2.22,1.45,9.42-.21,9.72-.38,0-2.58-.9-3.59h0v.14S309,325.77,306.52,325.77Z" fill="#ff4030"/>
      <path id="Trazado_119853" data-name="Trazado 119853" d="M356,325.53l-.05.24s-.25.58-2.62.39-3.07-.84-3.07-.84v-.18c-.18.72-.38,3.79,0,3.87s9.87.43,10.48,0S358.35,326.1,356,325.53Z" fill="#ff4030"/>
      <path id="Trazado_119854" data-name="Trazado 119854" d="M364.05,327.17l-.06-.31c-1.26.38-4.06,1.26-3.9,2s1.7,1.11,3.62.77l5.25-.94a4.38,4.38,0,0,0-.33-1.54h0C367.42,327.92,364.05,327.17,364.05,327.17Z" fill="#3d23b5"/>
      <path id="Trazado_119855" data-name="Trazado 119855" d="M437.29,325.51h0a9.25,9.25,0,0,1-5.89.27,26,26,0,0,0,1.15,3.07c.17,0,9.51.56,10.15-.25S439.94,326.05,437.29,325.51Z" fill="#3d23b5"/>
      <path id="Trazado_119856" data-name="Trazado 119856" d="M428.89,301.65c-3.64-9.34-14.84-33.07-19.06-41.58S398,237.86,398,237.83l.19.52c-3.54,3.32-11.77,5.75-20.21,5.92a34.77,34.77,0,0,1-13.95-2.34s-3.36,11.34-5.05,19.36-3.56,16-2.54,26c1,9.4,6.84,36.48,7.53,39.6l.06.31s3.37.75,4.58,0h0s.77-22.32.52-31.14a71.189,71.189,0,0,1,3.64-25.34c2.69-7.55,6.78-15,10.68-15.54s7,3.84,12.67,11.58,13.69,22.52,17.85,29.49,9.59,15.67,12.41,20.53,5,9,5,9a9.25,9.25,0,0,0,5.89-.27l.12-.05S432.54,311,428.89,301.65Z" fill="#aaa9e3"/>
      <path id="Trazado_119857" data-name="Trazado 119857" d="M449.6,329.1H427.25S439.24,329.58,449.6,329.1Z" fill="#aaa9e3"/>
      <path id="Trazado_119858" data-name="Trazado 119858" d="M526,218.79h-.09c-.09.25-.17.5-.25.75-.45,0-.92.05-1.41.05s-1.06,0-1.61-.05h0a66.814,66.814,0,0,1-6.72-.76c-2.58-.4-5.36-.9-8.25-1.42h-.12c-7.85-1.41-13.4-4-15.83-6.36.08-.28.18-.56.26-.83,1.93,2.09,7.2,4.91,15.71,6.44h.11c3,.53,5.77,1.05,8.37,1.45a44.72,44.72,0,0,0,9.75.71Z" fill="#607a87"/>
      <path id="Trazado_119859" data-name="Trazado 119859" d="M525.9,218.82c-.09.25-.17.5-.25.75v.16a25.43,25.43,0,0,1-7.4.94,26.818,26.818,0,0,1-2.9-.11,56.259,56.259,0,0,1-8.38-1.26c-9.75-2.15-13.92-4.43-15.94-6,.1-.27.18-.54.26-.79,1.84,1.53,5.89,3.89,15.84,6.09a53.879,53.879,0,0,0,8.48,1.23,33.17,33.17,0,0,0,7.06-.22h0a17.689,17.689,0,0,0,3.23-.79Z" fill="#607a87"/>
      <path id="Trazado_119860" data-name="Trazado 119860" d="M125.41,199.54a6.06,6.06,0,0,1-2-1.08,8.171,8.171,0,0,1-.7-.62c.12-.59.63-1,1.6-.79a1.57,1.57,0,0,1,1.1,2.49Z" fill="#ff9e97"/>
      <path id="Trazado_119861" data-name="Trazado 119861" d="M129.26,193.24a1.54,1.54,0,0,0-.36,2.19,1.33,1.33,0,0,0,2.32-.2C131.71,194.14,130.52,192.31,129.26,193.24Z" fill="#ff9e97"/>
      <path id="Trazado_119862" data-name="Trazado 119862" d="M122.14,195.76c-.27-.18-.39-.93.4-1.58s1.67.11,1.52.43-.45-.15-.68-.21c0,0,.4.62,0,.85s-.74-.56-.74-.56a1.32,1.32,0,0,0-.3.5C122.22,195.46,122.28,195.85,122.14,195.76Z" fill="#3c0c07"/>
      <path id="Trazado_119863" data-name="Trazado 119863" d="M126.13,192.86c-.3-.24-.3-1,.63-1.28s1.62.51,1.35.84-.32-.43-.81-.5c0,0,.49.72,0,.94s-.75-.69-.75-.69a.39.39,0,0,0-.19.35C126.36,192.76,126.23,192.94,126.13,192.86Z" fill="#3c0c07"/>
      <path id="Trazado_119864" data-name="Trazado 119864" d="M185,190.28c1.2.2,1.75-.72,1.58-2a1.43,1.43,0,0,0-2.41-.72C183.57,188.26,183.8,190.09,185,190.28Z" fill="#ff9e97"/>
      <path id="Trazado_119865" data-name="Trazado 119865" d="M234,195.12a1.26,1.26,0,0,1,2.06-.94c1,.71,1,1.86.09,2.29a1.48,1.48,0,0,1-2.15-1.35Z" fill="#ff9e97"/>
      <path id="Trazado_119866" data-name="Trazado 119866" d="M241.27,193.29a1.09,1.09,0,1,1-1.89-.74,1.51,1.51,0,0,1,1.2-2.05.86.86,0,0,1,.78.25,10.071,10.071,0,0,1-.09,2.54Z" fill="#ff9e97"/>
      <path id="Trazado_119867" data-name="Trazado 119867" d="M233.1,192.79c-.27-.23,0-1.45.9-1.75s1.68.74,1.4,1-.43-.5-.83-.58c0,0,.39.84-.09,1s-.74-.8-.74-.8-.05-.07-.27.5S233.18,192.87,233.1,192.79Z" fill="#3c0c07"/>
      <path id="Trazado_119868" data-name="Trazado 119868" d="M237.78,190.08c-.36,0-.11-1.17.69-1.62s1.66.65,1.49.81-.57-.47-.81-.46c0,0,.36.61-.06.85s-.69-.66-.69-.66a1,1,0,0,0-.29.43C238,189.77,238,190.09,237.78,190.08Z" fill="#3c0c07"/>
      <path id="Trazado_119869" data-name="Trazado 119869" d="M294,185.61a1.36,1.36,0,0,1-1.08.52,6.85,6.85,0,0,1-1.8-1.92,1.26,1.26,0,0,1,1.55-1.32,2,2,0,0,1,1.33,2.72Z" fill="#ff9e97"/>
      <path id="Trazado_119870" data-name="Trazado 119870" d="M299.47,183.46a2,2,0,0,1-1.9-1.3c-.39-1.11,0-2,.93-2.18.4-.08.76.23,1,.69h0A6.93,6.93,0,0,1,299.47,183.46Z" fill="#ff9e97"/>
      <path id="Trazado_119871" data-name="Trazado 119871" d="M291.08,180.32c-.42-.14.34-1.3,1.19-1.46s1.47.61,1.24.93-.6-.62-.88-.6c0,0,.27.9-.15,1.05s-.61-.83-.61-.83-.39.3-.43.58S291.33,180.41,291.08,180.32Z" fill="#3c0c07"/>
      <path id="Trazado_119872" data-name="Trazado 119872" d="M296.09,178.7c-.3.06,0-1.38.88-1.64s1.34.77,1.06,1-.21-.42-.61-.49c0,0,.36.71-.09.9s-.6-.87-.64-.79S296.46,178.63,296.09,178.7Z" fill="#3c0c07"/>
      <path id="Trazado_119873" data-name="Trazado 119873" d="M371.62,191c1-.35,1.37-1.24.79-2.44a1.33,1.33,0,0,0-2.47.28C369.55,189.94,370.11,191.52,371.62,191Z" fill="#ff9e97"/>
      <path id="Trazado_119874" data-name="Trazado 119874" d="M378.55,187.91a11.109,11.109,0,0,1-.87,2.94c-.49.05-1.53-.21-1.24-1.66S378,187.34,378.55,187.91Z" fill="#ff9e97"/>
      <path id="Trazado_119875" data-name="Trazado 119875" d="M370.65,186c-.27-.18.43-1.38,1.52-1.35a1,1,0,0,1,.91,1.35c-.17.09-.39-.61-.66-.67,0,0,.28.81-.23.89s-.53-.89-.53-.89-.18-.12-.45.22S370.84,186.13,370.65,186Z" fill="#3c0c07"/>
      <path id="Trazado_119876" data-name="Trazado 119876" d="M376,185.72c-.22-.06.16-1.38,1.12-1.31s1.2,1,.88,1.17-.32-.67-.69-.78c0,0,.32,1-.18,1s-.56-.88-.56-.88S376.34,185.82,376,185.72Z" fill="#3c0c07"/>
      <path id="Trazado_119877" data-name="Trazado 119877" d="M132,191.34a.16.16,0,0,1-.09,0,1.76,1.76,0,0,1-.49-1.43.12.12,0,0,1,.14-.11.14.14,0,0,1,.12.14,1.49,1.49,0,0,0,.4,1.2.14.14,0,0,1,0,.18A.16.16,0,0,1,132,191.34Z" fill="#f48480"/>
      <path id="Trazado_119878" data-name="Trazado 119878" d="M121,194.56a1.93,1.93,0,0,1,.33-.7,2.47,2.47,0,0,1,.65-.64,1.36,1.36,0,0,1,1.23-.17,2.85,2.85,0,0,1,1,.9c.29.36.58.75.88,1.15a10.669,10.669,0,0,0,1,1.16c.17.16.41.36.59.33s.06,0,.1-.1a.3.3,0,0,0,0-.17.83.83,0,0,0,0-.35,5.91,5.91,0,0,0-.66-1.42c-.27-.44-.53-.89-.77-1.34a6.14,6.14,0,0,1-.3-.7,1.52,1.52,0,0,1,0-.82,1.66,1.66,0,0,1,1-1.08,2,2,0,0,1,1.21-.09,2.21,2.21,0,0,1,.83.38,2.88,2.88,0,0,1,.56.54h0l-.14.21a6.466,6.466,0,0,0-.57-.39,2,2,0,0,0-1.65-.16,1.22,1.22,0,0,0-.72.75,1.82,1.82,0,0,0,.22,1.24c.19.46.43.92.66,1.39a7.649,7.649,0,0,1,.62,1.49.72.72,0,0,1-.27.81c-.36.06-.56-.19-.77-.34-.38-.37-.72-.77-1.06-1.14s-.64-.74-.95-1.07a3,3,0,0,0-.92-.73,1,1,0,0,0-.84.16,3.23,3.23,0,0,0-.57.5,4.37,4.37,0,0,0-.32.39l-.11.16a.15.15,0,1,1-.26-.15Z" fill="#f48480"/>
      <path id="Trazado_119879" data-name="Trazado 119879" d="M127.56,198.42a.126.126,0,0,1-.02-.25,2.28,2.28,0,0,0,1.24-.79.13.13,0,0,1,.22.14,2.5,2.5,0,0,1-1.41.9Z" fill="#f94e4e"/>
      <path id="Trazado_119880" data-name="Trazado 119880" d="M232.13,191.83a3.69,3.69,0,0,1,.35-.62,5.409,5.409,0,0,1,.54-.64,2.36,2.36,0,0,1,1-.62,1.1,1.1,0,0,1,.77.06,2.41,2.41,0,0,1,.55.45c.31.34.58.71.87,1.09s.56.78.88,1.16a3.51,3.51,0,0,0,.51.51.63.63,0,0,0,.26.16h.08a.26.26,0,0,0,.07-.12,2.56,2.56,0,0,0-.46-1.31c-.24-.43-.5-.85-.7-1.3a2.24,2.24,0,0,1-.14-1.46,2.41,2.41,0,0,1,.6-1.19,1.53,1.53,0,0,1,1.08-.48,1.64,1.64,0,0,1,.86.19,1.87,1.87,0,0,1,.46.28l.16.12a.12.12,0,0,1,0,.17.13.13,0,0,1-.15,0h0l-.17-.06a2.141,2.141,0,0,0-.45-.17,1.14,1.14,0,0,0-.32-.07.92.92,0,0,0-.37,0,1.23,1.23,0,0,0-.77.35,2.327,2.327,0,0,0-.51,2.16c.16.43.39.86.61,1.31.11.23.23.45.32.69a1.27,1.27,0,0,1,.12.83.41.41,0,0,1-.12.19.33.33,0,0,1-.27.09.72.72,0,0,1-.39-.19,4.829,4.829,0,0,1-.57-.53c-.33-.37-.67-.73-1-1.09s-.62-.69-.92-1a1.6,1.6,0,0,0-.43-.33.52.52,0,0,0-.39,0,2.18,2.18,0,0,0-.76.46,4.923,4.923,0,0,0-.56.53c-.3.3-.47.5-.47.5a.117.117,0,1,1-.18-.15Z" fill="#f48480"/>
      <path id="Trazado_119881" data-name="Trazado 119881" d="M238.07,196h0a.13.13,0,0,1-.13-.13.11.11,0,0,1,.13-.12,1.42,1.42,0,0,0,1.16-.77.13.13,0,0,1,.18,0,.14.14,0,0,1,0,.18,1.66,1.66,0,0,1-1.34.84Z" fill="#f94e4e"/>
      <path id="Trazado_119882" data-name="Trazado 119882" d="M290.66,179.29a2.64,2.64,0,0,1,.43-.67,2.6,2.6,0,0,1,.73-.62,1.47,1.47,0,0,1,1.37-.14,2.29,2.29,0,0,1,1,1.16c.23.44.42.91.62,1.39s.39,1,.63,1.48c.12.25.24.49.38.73s.35.52.45.35a1.15,1.15,0,0,0,0-.7,5.724,5.724,0,0,0-.2-.79l-.5-1.53a5.379,5.379,0,0,1-.33-1.51,2.52,2.52,0,0,1,.37-1.38,1.62,1.62,0,0,1,1-.78,1.51,1.51,0,0,1,1,.14,2.12,2.12,0,0,1,.63.51.12.12,0,0,1,0,.18.14.14,0,0,1-.18,0l-.16-.11a4,4,0,0,0-.46-.26,1.35,1.35,0,0,0-.73-.08,1.26,1.26,0,0,0-.77.59,2.25,2.25,0,0,0-.36,1.17,5.191,5.191,0,0,0,.27,1.44c.15.5.3,1,.45,1.55a6.848,6.848,0,0,1,.2.81,1.11,1.11,0,0,1-.09.91s-.19.14-.28.08a.51.51,0,0,1-.22-.13,1.808,1.808,0,0,1-.29-.34c-.16-.24-.29-.49-.42-.73-.26-.49-.51-1-.76-1.43s-.47-.91-.72-1.31a2.14,2.14,0,0,0-.75-.85,1,1,0,0,0-.81.14,6.492,6.492,0,0,0-.67.44c-.39.28-.6.45-.6.45a.14.14,0,0,1-.19,0,.13.13,0,0,1,0-.12Z" fill="#f48480"/>
      <path id="Trazado_119883" data-name="Trazado 119883" d="M296.4,185.26a1,1,0,0,1-.18,0,.12.12,0,0,1-.09-.15.13.13,0,0,1,.15-.1.84.84,0,0,0,.83-.37.14.14,0,0,1,.18,0,.12.12,0,0,1,0,.18A1.15,1.15,0,0,1,296.4,185.26Z" fill="#f48480"/>
      <path id="Trazado_119884" data-name="Trazado 119884" d="M290.29,183.16a.13.13,0,0,1-.12-.07,1.71,1.71,0,0,0-.68-.64.13.13,0,0,1-.05-.17.12.12,0,0,1,.17-.06,2,2,0,0,1,.79.75.14.14,0,0,1,0,.18Z" fill="#f48480"/>
      <path id="Trazado_119885" data-name="Trazado 119885" d="M370.16,184.56l.11-.16a2.469,2.469,0,0,1,.35-.41,2,2,0,0,1,.81-.45,2.85,2.85,0,0,1,1.21-.12l.29.07a2.409,2.409,0,0,1,.39.26l.23.32.14.36a7.87,7.87,0,0,1,.24,1.44c.06.5.09,1,.16,1.51a3.22,3.22,0,0,0,.45,1.38c.31.23.44-.45.48-.91s.06-1,.08-1.51a4.57,4.57,0,0,1,.23-1.47,2.731,2.731,0,0,1,.78-1.14,1.32,1.32,0,0,1,1.23-.3,1.4,1.4,0,0,1,.74.6,2.48,2.48,0,0,1,.32.7.13.13,0,0,1-.24.1,4.422,4.422,0,0,0-.41-.54,1.21,1.21,0,0,0-.55-.39.85.85,0,0,0-.78.21,2.56,2.56,0,0,0-.67.93,3.78,3.78,0,0,0-.25,1.32,13.846,13.846,0,0,1-.12,1.53,3.44,3.44,0,0,1-.19.8.63.63,0,0,1-.34.39.3.3,0,0,1-.11,0h-.16a.49.49,0,0,1-.25-.12,3.19,3.19,0,0,1-.6-1.55c-.11-.53-.16-1-.25-1.51a7.278,7.278,0,0,0-.29-1.35l-.11-.26-.15-.21a.23.23,0,0,1-.12-.1l-.3-.06a3.581,3.581,0,0,0-.93.09,2.47,2.47,0,0,0-.67.26,5.01,5.01,0,0,0-.41.32l-.16.11a.14.14,0,0,1-.18,0A.15.15,0,0,1,370.16,184.56Z" fill="#f48480"/>
      <path id="Trazado_119886" data-name="Trazado 119886" d="M374.33,191.83a1.2,1.2,0,0,1-.58-.17.146.146,0,0,1,.17-.23c.34.2.57.21,1.14-.09a.13.13,0,1,1,.12.22A1.74,1.74,0,0,1,374.33,191.83Z" fill="#f94e4e"/>
      <path id="Trazado_119887" data-name="Trazado 119887" d="M367.37,188.75a.12.12,0,0,1-.12-.1,3.931,3.931,0,0,0-.65-1.18.13.13,0,1,1,.2-.16,4.311,4.311,0,0,1,.69,1.28.11.11,0,0,1-.09.15Z" fill="#f48480"/>
      <path id="Trazado_119888" data-name="Trazado 119888" d="M277.43,217.74a4.479,4.479,0,0,0-.75-1.45,4.236,4.236,0,0,0-.33-.39c-.44-.48-.9-.76-1.13-.48s-.13.58,0,1c.42,1,1.61,2.32,2.08,1.93C277.48,218.23,277.49,218,277.43,217.74Z" fill="#ffbfbc"/>
      <path id="Trazado_119889" data-name="Trazado 119889" d="M278.07,216.17a8.38,8.38,0,0,0-.66-1c-.46-.57-.92-.9-1.12-.59a1.64,1.64,0,0,0,.06,1.33,4.237,4.237,0,0,1,.33.39,4.48,4.48,0,0,1,.75,1.45c.37.4.75.61,1,.42a.56.56,0,0,0,.16-.47,3.81,3.81,0,0,0-.52-1.53Z" fill="#ffbfbc"/>
      <path id="Trazado_119890" data-name="Trazado 119890" d="M279.9,215.29c-.49-.59-1.06-1-1.31-.84s-.18.44-.1.84a6.493,6.493,0,0,1,.59.79,2.6,2.6,0,0,1,.5,1.33c.32.33.66.47.93.2C281,217.09,280.53,216,279.9,215.29Z" fill="#ffbfbc"/>
      <path id="Trazado_119891" data-name="Trazado 119891" d="M279.08,216.08a6.489,6.489,0,0,0-.59-.79c-.5-.59-1-1-1.11-.84a1.33,1.33,0,0,0,0,.71,8.378,8.378,0,0,1,.66,1,3.809,3.809,0,0,1,.52,1.52.61.61,0,0,0,.74.16.48.48,0,0,0,.25-.44,2.6,2.6,0,0,0-.47-1.32Z" fill="#ffbfbc"/>
      <path id="Trazado_119892" data-name="Trazado 119892" d="M436.14,221.44c.35.74,1.3-.27,1.5-1.59s.05-1.6-.51-1.6S436,221.1,436.14,221.44Z" fill="#fdb7b0"/>
      <path id="Trazado_119893" data-name="Trazado 119893" d="M437.17,221.6c.92,0,1.38-1.36,1.77-2.44s-.61-1.14-.88-.89S436.6,221.62,437.17,221.6Z" fill="#fdb7b0"/>
      <path id="Trazado_119894" data-name="Trazado 119894" d="M437.86,221.49c.65.13,1.52-.75,1.94-1.75s.21-1.66-.45-1.47S437.37,221.4,437.86,221.49Z" fill="#fdb7b0"/>
      <path id="Trazado_119895" data-name="Trazado 119895" d="M439.4,221.24c.73.24,2.11-2.21,1.28-2.62S438.5,221,439.4,221.24Z" fill="#fdb7b0"/>
      <path id="Trazado_119896" data-name="Trazado 119896" d="M278.93,257.62a.16.16,0,0,1-.11-.05A186.074,186.074,0,0,0,266,241.85c-2.25-2.56-4.2-4.77-5.58-6.52a.13.13,0,0,1,0-.18.12.12,0,0,1,.17,0c1.38,1.75,3.32,4,5.57,6.51A186.565,186.565,0,0,1,279,257.42a.13.13,0,0,1,0,.18Z" fill="#aaa9e3"/>
      <path id="Trazado_119897" data-name="Trazado 119897" d="M273.67,271.17c-1.12-2.19-5.14-6-7.6-8.28l-.44-.41h0a2.75,2.75,0,0,0-.27-.62l.9.85.58.54a.551.551,0,0,0,.1.11,61.8,61.8,0,0,1,6,6.2h0a11.352,11.352,0,0,1,.73,1.05C273.66,270.82,273.67,271,273.67,271.17Z" fill="#aaa9e3"/>
      <g id="Grupo_80455" data-name="Grupo 80455">
        <path id="Trazado_119898" data-name="Trazado 119898" d="M255.79,209.13c-.24.66-.53,1.28-.81,1.87a8.66,8.66,0,0,0-.92,2.65h-.12c-.08,0-.12.11-.16.21a7.8,7.8,0,0,1,1-3,19.241,19.241,0,0,0,.8-1.84c.61-1.73-2.73-5.85-4.58-7.8a.13.13,0,0,1,0-.18.11.11,0,0,1,.18,0C251.71,201.66,256.59,206.87,255.79,209.13Z" fill="#0f0060"/>
        <path id="Trazado_119899" data-name="Trazado 119899" d="M242.9,220.06s-2,1.55-3.26,2.65a8.163,8.163,0,0,0,.56-.75.23.23,0,0,0,.05-.1h0c1.14-.94,2.42-1.91,2.5-2a.12.12,0,0,1,.18,0,.11.11,0,0,1-.03.2Z" fill="#0f0060"/>
        <path id="Trazado_119900" data-name="Trazado 119900" d="M245.84,224.33a1.69,1.69,0,0,1-.09.31,10.47,10.47,0,0,1-2.72,4.58,24.429,24.429,0,0,1-4.27,4.14c0-.16,0-.25,0-.25h-.14a24.682,24.682,0,0,0,4.23-4.1,10.24,10.24,0,0,0,2.66-4.48.939.939,0,0,1,.09-.31.13.13,0,0,1,.16-.09.14.14,0,0,1,.08.2Z" fill="#0f0060"/>
      </g>
      <path id="Trazado_119901" data-name="Trazado 119901" d="M193,272.74a.14.14,0,0,1-.11-.06c-.07-.1-7.2-10.69-9.9-15.12-2.79-4.59-3.94-6.25-7.45-7.79a.127.127,0,1,1,.11-.23c3.62,1.58,4.86,3.45,7.56,7.89s9.82,15,9.89,15.11a.13.13,0,0,1,0,.18Z" fill="#0f0060"/>
      <path id="Trazado_119902" data-name="Trazado 119902" d="M195.05,217.17c-.05.2-.12.47-.18.76h2c-.08-.31-.17-.58-.22-.76Z" fill="#607a87"/>
      <path id="Trazado_119903" data-name="Trazado 119903" d="M152.65,217.17c.1.18.25.45.41.76H105.73c-20.39,0-25.15,1.75-25.15,19a98.43,98.43,0,0,0,4.47,30,.39.39,0,0,1-.24.49.25.25,0,0,1-.12,0,.38.38,0,0,1-.37-.25A99.62,99.62,0,0,1,79.82,237c0-17.85,5.23-19.79,25.91-19.79Z" fill="#607a87"/>
      <path id="Trazado_119904" data-name="Trazado 119904" d="M167.12,217.17c-.1.28-.19.56-.27.76h-2.94c-.1-.28-.21-.55-.27-.76Z" fill="#607a87"/>
      <path id="Trazado_119905" data-name="Trazado 119905" d="M279.4,217.17H207.65a3.405,3.405,0,0,0,.18.76h71.55C279.37,217.82,279.39,217.65,279.4,217.17Z" fill="#607a87"/>
      <path id="Trazado_119906" data-name="Trazado 119906" d="M287.88,217.17v.76h12l1.25-.76Z" fill="#607a87"/>
      <path id="Trazado_119907" data-name="Trazado 119907" d="M524.87,219.69H369.77c.15.24.32.5.51.77H524.61C524.69,220.21,524.78,220,524.87,219.69Z" fill="#607a87"/>
      <path id="Trazado_119908" data-name="Trazado 119908" d="M279.4,217.17v.76h8.54v-.76Z" fill="#607a87"/>
      <path id="Trazado_119909" data-name="Trazado 119909" d="M307.58,217.17s.37.11.76.76h52.13l-.32-.76Z" fill="#607a87"/>
      <path id="Trazado_119910" data-name="Trazado 119910" d="M154,225.05a31.7,31.7,0,0,1-11-4.51c-4.28-2.75-5.94-3.14-7.73-4.61s-2.89-1.34-4.29,0a4.273,4.273,0,0,0-1.6,3.08c.13.26,1.72-1.09,1.72-1.09s-1.28,1.09-1,1.66c.19.34.77-.14,1.22-.59a3.26,3.26,0,0,1,.58-.62s-.26.3-.58.62a.79.79,0,0,0-.13.86c.39.63,1.64-.91,1.64-.91s.15,2.11,1.82,2.17a51.231,51.231,0,0,0,8.7,9c5.11,4,10.94,5.38,13.5,5.12a16.68,16.68,0,0,0-.58-5.82C155.42,226.17,154,225.05,154,225.05Z" fill="#fdb7b0"/>
      <g id="Grupo_80456" data-name="Grupo 80456">
        <path id="Trazado_119911" data-name="Trazado 119911" d="M91.4,216.56h0c-.35-.82-.89-1.65-1.43-1.82s-.31.47,0,1.21a5.67,5.67,0,0,1,.61,1h0c.06.14.12.29.17.43.39.59.76,1,.9.88A2.489,2.489,0,0,0,91.4,216.56Z" fill="#eea19d"/>
        <path id="Trazado_119912" data-name="Trazado 119912" d="M90.77,217.45a4.22,4.22,0,0,0-.18-.45,5.67,5.67,0,0,0-.61-1h0c-.91-1.2-1.38-.92-1.5-.53a1.68,1.68,0,0,0,.22.76,4.94,4.94,0,0,1,.82,1.37c.06.16.12.3.17.45.43.68.85,1.22,1,1.18C91.15,219.11,91.1,218.33,90.77,217.45Z" fill="#eea19d"/>
        <path id="Trazado_119913" data-name="Trazado 119913" d="M89.69,218a1.473,1.473,0,0,0-.17-.45,4.94,4.94,0,0,0-.82-1.37c-1-1.17-1.4-.43-.85.93a7.728,7.728,0,0,1,.55,1l.13.33c.57.95,1.1,1.55,1.22,1.4a2.45,2.45,0,0,0-.06-1.84Z" fill="#eea19d"/>
        <path id="Trazado_119914" data-name="Trazado 119914" d="M88.53,218.47l-.13-.33a7.73,7.73,0,0,0-.55-1c-.33-.5-.68-.87-.95-.87-.63,0,.13,2.06.91,3.08.28.38.57.62.79.57S88.81,219.2,88.53,218.47Z" fill="#eea19d"/>
      </g>
      <path id="Trazado_119915" data-name="Trazado 119915" d="M226.49,218.62s1.57-2.89,2-2.88c.63,0-.74,3-.74,2.72s4.35-2.39,4.64-2.14-1.73,2.3-1.73,2.3a33.53,33.53,0,0,1,3.91-1.86c.38.42-2.63,2.82-2.63,2.82s3-1.55,3.21-1.21-3,2.62-2.76,2.43,2.8-1.12,2.8-.71c0,.67-5.23,2.69-6.25,3.52a22.719,22.719,0,0,1-1.28-2.5C226.81,219.2,226.49,218.62,226.49,218.62Z" fill="#fdb7b0"/>
      <path id="Trazado_119916" data-name="Trazado 119916" d="M242.61,220c1.15-1.28,2.88-4.79,5.7-5.5a4.85,4.85,0,0,1,5.43,2.37c.65,1.21.65,2.11.33,2.37s-2-2.21-1.86-2.06,1.53,2.36,1.09,2.53-2.88-1.94-2.88-1.94,2,2.1,1.34,2.23-2.17-2.11-2.17-2.11a11.539,11.539,0,0,1-1.15,3.14,15.64,15.64,0,0,1-2.72,3.62Z" fill="#fdb7b0"/>
      <g id="Grupo_80457" data-name="Grupo 80457">
        <path id="Trazado_119917" data-name="Trazado 119917" d="M358.66,219.2c1-.39-1.75-3.53-2.35-2.86S358,219.45,358.66,219.2Z" fill="#ffbeba"/>
        <path id="Trazado_119918" data-name="Trazado 119918" d="M355.2,216.64c-.77.76,1.92,4.47,2.69,3.51S356,215.87,355.2,216.64Z" fill="#ffbeba"/>
        <path id="Trazado_119919" data-name="Trazado 119919" d="M353.79,217.4c-.51.84,2.31,3.75,3.2,3.25S354.31,216.58,353.79,217.4Z" fill="#ffbeba"/>
        <path id="Trazado_119920" data-name="Trazado 119920" d="M353.16,219c-1,1.19,2.53,3.08,3,2S353.66,218.34,353.16,219Z" fill="#ffbeba"/>
      </g>
      <path id="Trazado_119921" data-name="Trazado 119921" d="M296,220.59a.13.13,0,0,1-.07-.24c2.28-1.36,7.72-4.68,9-5.61a.13.13,0,0,1,.15.21c-1.44,1-7.49,4.7-9,5.62Z" fill="#5a1714"/>
      <path id="Trazado_119922" data-name="Trazado 119922" d="M298.93,228.89a.1.1,0,1,1-.1-.18c3.7-3.29,7.8-7.4,9.35-8.95.39-.4.61-.62.67-.67a.12.12,0,0,1,.17,0,.13.13,0,0,1,0,.18,6.951,6.951,0,0,0-.66.66c-1.55,1.55-5.65,5.67-9.37,9a.11.11,0,0,1-.06-.04Z" fill="#5a1714"/>
      <path id="Trazado_119923" data-name="Trazado 119923" d="M305,214.85c.71-.52,3.39-3,6.15-1.15s4.79,4.65,4.15,5-2.36-1.49-2.36-1.49,1.79,1.68,1.28,2.18-3-2.18-3-2.18,1.6,2.46,1.15,2.76-2.15-2.21-2.15-2.21-.79,1.45-1.24,1.44a7.37,7.37,0,0,0-1.85-2.67C305.88,215.49,305,214.85,305,214.85Z" fill="#fdb7b0"/>
    </g>
  </g>
</svg>
