<svg xmlns="http://www.w3.org/2000/svg" xmlns:xlink="http://www.w3.org/1999/xlink" width="395.88" height="278.515" viewBox="0 0 395.88 278.515">
  <defs>
    <linearGradient id="linear-gradient" y1="0.5" x2="1.001" y2="0.5" gradientUnits="objectBoundingBox">
      <stop offset="0.01" stop-color="#ff4030"/>
      <stop offset="1" stop-color="#ff4d3b"/>
    </linearGradient>
  </defs>
  <g id="Capa_1" data-name="Capa 1" transform="translate(-117.06 -103.46)">
    <rect id="Rectángulo_34634" data-name="Rectángulo 34634" width="395.88" height="263.92" transform="translate(117.06 103.46)" fill="none"/>
    <g id="Grupo_80468" data-name="Grupo 80468">
      <path id="Trazado_119987" data-name="Trazado 119987" d="M343.78,302.63c-2.19-8.91-8.45-27.8-11.27-36l-1.31.07s.08-1.22.2-3.22c-2.16-6-5.33-13.82-6.45-16.58a.18.18,0,0,0,0,.06c0,.26-4.17,1.83-15.3,1.92s-14.27-1.75-14.27-1.75c.61,6.18,3.25,20.38,3.25,20.38a82.487,82.487,0,0,0-8.15-1.4,128.608,128.608,0,0,1-5.25-16.76c-1.29,6.41-1.62,16.88-1.14,30.31.51,14.35,2.43,37.66,3.56,48.87,1.05,10.45,6.31,42.23,7,46.51l.09.48s5.91,1.63,8.46,0a1.155,1.155,0,0,1,0-.13c.06-2.3,1.05-35.76,1.5-51.9.46-16.73,1.39-43.16,1.74-49s2.9-11,4.87-6,11.24,27.25,15.42,37.46,6.14,14.84,5,23.77c-1.08,8.37-8.07,40.16-9,44.12l-.09.4A13.54,13.54,0,0,0,328,375a5.25,5.25,0,0,0,2.62-.78c1.54-1,2.62-2.76,4.11-5.05,2.2-3.36,12.06-27.64,13.33-38.74S346.1,312,343.78,302.63Z" fill="#0b3360"/>
      <path id="Trazado_119988" data-name="Trazado 119988" d="M274.68,267.67s-14-3.27-21.22-6.94-11.4-13.38-14.69-24.77-5.22-17.62-7.05-18.56c-1.34-.68-5.09-1.4-16.47-1a2.63,2.63,0,0,0,.87,1.61c.93.7-.75,2.09-3.3,1.74s-3.69-.91-3.77-2.18c-.48.26-.77.63-.52,1.55.58,2.14,4.87,6.32,3.31,11.53s-6,7.14-13.34,5.45-11-7.59-8.64-11.82,3.6-4.76,5.74-5.8l.38-.2c-4.43,1.63-9.56,5.17-10.41,8.9-1,4.39-.71,12.72.31,20.87.11.89.23,1.78.36,2.66,1.3,8.95,3.06,14.12,2.92,17.37a89.47,89.47,0,0,1-1.27,9.24s.61.18,1.69.45a92.163,92.163,0,0,0,17.09,2.77c9.14.43,13.77-1.65,13.93-2.7s.59-6.52.59-6.52,17.58,3.85,25.49.46c0,0-.3-1.5-.48-2.72a47.781,47.781,0,0,0,10.8,1.86c18.09,1.22,18,0,18,0Zm-42.61-4.41c-6.44-1.91-9.24-3.57-9.28-4.26s.84-8.61,2-9.3c1-.59,3.6-.86,4.64-1.65a1,1,0,0,0,.4-.52h0c0-.09.05-.14.09-.14s.08.05.13.13c.51.94,1.63,6.62,3.25,10.44a17.39,17.39,0,0,0,5,7.1c-2.02-.58-4.19-1.19-6.23-1.8Z" fill="#0b3360"/>
      <path id="Trazado_119989" data-name="Trazado 119989" d="M246.1,267.55c.52-1.66,4.23-2.37,6.37-1s3.6,3.71,3.25,4.06-3.54-2-3.54-2,2.61,1.74,1.86,2.43-3.77-1.68-3.59-1.62,1.73,2.08,1.33,2.38-2.78-1.86-2.78-1.86,1.45,1.22.29,1.63-3.19-.7-3.19-.7A12.089,12.089,0,0,1,246.1,267.55Z" fill="#fdb7b0"/>
      <path id="Trazado_119990" data-name="Trazado 119990" d="M274.68,267.67c1.56-.87,3.13-2,4.81-1.33s5.1,3.59,4.52,4.29-4.06-1.87-3.88-1.81,2.78,1.35,2.14,1.93-1.79-.51-1.79-.51.92.73-5.51.68Z" fill="#fdb7b0"/>
      <path id="Trazado_119991" data-name="Trazado 119991" d="M321.55,154.44c-1.83,0-1.46,1.65-7.95.69s-10.4,1.91-11.22,5.21a17.5,17.5,0,0,0,.12,8.36c.33,1,.82,1.66,1.48,1.82,1.23.29,1.61-1.35,2-4.35s2.28-6.48,5.14-5.87a24.81,24.81,0,0,0,7.93.61,4.27,4.27,0,0,0,3-1.48C323.9,156.91,323.38,154.44,321.55,154.44Z" fill="#ff4030"/>
      <path id="Trazado_119992" data-name="Trazado 119992" d="M331.26,265.47l-.06,1.27s0-.46.08-1.28Z" fill="#fdb7b0"/>
      <path id="Trazado_119993" data-name="Trazado 119993" d="M341.35,266.8l-.23-.06A.79.79,0,0,0,341.35,266.8Z" fill="#fdb7b0"/>
      <path id="Trazado_119994" data-name="Trazado 119994" d="M347.2,220.73a343.818,343.818,0,0,1-8.27,44.34.69.69,0,0,1-.05.17,5.411,5.411,0,0,1-2.29.91,29.718,29.718,0,0,1-4.08.52l-1.31.07s0-.46.08-1.28c0-.51.07-1.17.12-1.94.44-7.47,1.51-26,1.72-34.26.26-10.52,1.56-25.3,0-25.92s-2.61,8.53-4.09,17.23c-1.45,8.46-4,25.26-4.08,26.37a.2.2,0,0,0,0,.07c0,.25-4.17,1.82-15.3,1.9-10,.09-13.55-1.38-14.16-1.69a.37.37,0,0,1-.11-.05c0,.31.07.63.11,1h0c.76,6.58,3.14,19.4,3.14,19.4-1.8-.58-8.15-1.4-8.15-1.4a128.608,128.608,0,0,1-5.25-16.76,135.2,135.2,0,0,1-2.9-14.3c-1.75-12.7-4.47-27-3.9-35.48s1.82-11.48,7-12.61c4.73-1,18.64-2,23.93-2.36.19,2.45.66,4.85,1.69,4.88s1.39-2.61,1.65-5.08c9.07-.54,24.57-1.45,30.39,1.78C349.38,189.7,350.33,195.09,347.2,220.73Z" fill="#4484cd"/>
      <path id="Trazado_119995" data-name="Trazado 119995" d="M319.49,170.39c-.07.74-.18,1.5-.32,2.23a15.631,15.631,0,0,1-1.95,5.5,7,7,0,0,1-4.24,3.27,7.931,7.931,0,0,1-2.13.25,6.29,6.29,0,0,1-1.57-.25c-4.49-1.42-4.92-8.33-4.92-8.33-1.85.06-3.54-2.9-2.38-4a1.52,1.52,0,0,1,.53-.34c.32,1,.81,1.65,1.47,1.81,1.23.29,1.61-1.35,2-4.35s2.28-6.47,5.14-5.87a25.4,25.4,0,0,0,7.93.61C320.21,163,320,165.69,319.49,170.39Z" fill="#fdb7b0"/>
      <path id="Trazado_119996" data-name="Trazado 119996" d="M310.85,181.64a5.549,5.549,0,0,1-1.57-.26c0,.94,0,2.1.11,3.27.19,2.44.65,4.83,1.7,4.87.89,0,1.37-2.62,1.64-5.07.13-1.17.2-2.28.25-3.06a7.931,7.931,0,0,1-2.13.25Z" fill="#fdb7b0"/>
      <path id="Trazado_119997" data-name="Trazado 119997" d="M294.74,375.56l-.09-.48c-2.45.66-5.52,1.58-5,3.38s5.45.75,8.87,0,4.76-1.68,4.81-1.86a3.93,3.93,0,0,0-.16-1.17,1.163,1.163,0,0,0,0,.13C300.65,377.19,294.74,375.56,294.74,375.56Z" fill="#aaa9e3"/>
      <path id="Trazado_119998" data-name="Trazado 119998" d="M322.68,374.28l.09-.4h-.09a1.77,1.77,0,0,0,0,2.14,32.509,32.509,0,0,0,9.1,4.76c3.54,1,4.23-.7,3.08-2.32a35.157,35.157,0,0,0-4.23-4.23A5.25,5.25,0,0,1,328,375,13.54,13.54,0,0,1,322.68,374.28Z" fill="#aaa9e3"/>
      <path id="Trazado_119999" data-name="Trazado 119999" d="M216.12,218a2.63,2.63,0,0,1-.87-1.61,5.66,5.66,0,0,1,0-2.31,6.31,6.31,0,0,1-3.89-1.35,3.32,3.32,0,0,1,0,3.3,2.429,2.429,0,0,1-.48.56,7.55,7.55,0,0,1-1.89,1c.07,1.26,1.23,1.84,3.76,2.18S217.05,218.74,216.12,218Z" fill="#fdb7b0"/>
      <path id="Trazado_120000" data-name="Trazado 120000" d="M222.16,207.53a20.246,20.246,0,0,1-.82,2.28,9.2,9.2,0,0,1-.83,1.53,6.11,6.11,0,0,1-5.22,2.79,6.33,6.33,0,0,1-3.88-1.36,15.7,15.7,0,0,0-1-1.82c-.18-.28-.35-.57-.52-.85a10.68,10.68,0,0,1-1.39-4.7c0-.06-.26-.07-.62-.12a2.83,2.83,0,0,1-1.54-.61c-.78-1.16-.38-2.15,1.79-2.52h0c.27,0,.54-.08.86-.11,2.95-.23,6.2-1.74,9.22-4.75a7.44,7.44,0,0,0,2.26-3.24C222.72,199.05,223.44,203.11,222.16,207.53Z" fill="#fdb7b0"/>
      <path id="Trazado_120001" data-name="Trazado 120001" d="M283,288.05c-4.09-3-20.79-2.8-20.79-2.8a6.351,6.351,0,0,1,1.57,1.23c3.91,4.53,5.83,19.22,6.78,33.92.67,10.31,1.81,29.1,2.44,39.39,0,0,10-45.83,11.05-52.53S287.11,291,283,288.05Z" fill="#ff2d23"/>
      <path id="Trazado_120002" data-name="Trazado 120002" d="M266.68,374.57a23.47,23.47,0,0,1,7.82,5.48c1.66,1.66,4.7,3,4.61.69a17.461,17.461,0,0,0-8.86-12.86s-.6.19-1.89.51c-2,.6-3.86,1.31-3.86,1.31C263.35,371,263.37,373.35,266.68,374.57Z" fill="#0f0060"/>
      <path id="Trazado_120003" data-name="Trazado 120003" d="M268.36,368.39c-1.52.31-3.36.77-3.86,1.31C264.5,369.7,266.37,369,268.36,368.39Z" fill="#aaa9e3"/>
      <path id="Trazado_120004" data-name="Trazado 120004" d="M273,359.79c-.63-10.29-1.77-29.08-2.44-39.39-.95-14.7-2.87-29.39-6.78-33.92a6.35,6.35,0,0,0-1.57-1.23c-6.35-3.73-25.33-5.8-41.64-7.38-.15,1.05-4.8,3.13-13.93,2.7a92.437,92.437,0,0,1-17.1-2.77c-1.06-.27-1.68-.45-1.68-.45-.69,3-.87,11.31,3.74,17.13s15.57,8,29.92,8.79a94,94,0,0,0,18.13-.63c3.49-.47,6-1,7.87-1.2,4.17-.44,5.21,2.87,6.61,9.91s3.47,24.26,5,34.09,5.3,24.26,5.3,24.26c.5-.54,2.34-1,3.86-1.31.52-.16,1-.3,1.54-.42,2.43-.62,3.56-1,3.56-1S273.29,364.17,273,359.79Z" fill="url(#linear-gradient)"/>
      <path id="Trazado_120005" data-name="Trazado 120005" d="M191.55,307.94c-1.25,4.51-5.71,25.17-7.43,33.53-1.85,9-6.84,35.43-6.84,35.43h3.25s6-26.38,9-41.81c2.57-13.15,5-22.07,5.63-24.41-.32-.21-.65-.4-1-.62a32.225,32.225,0,0,1-2.61-2.12Z" fill="#27199d"/>
      <path id="Trazado_120006" data-name="Trazado 120006" d="M225.82,314.29c2.52,8.29,8.4,31.65,10.36,40.28,2.09,9.16,5.62,24,5.62,24H246s-4.8-21.68-8.28-33.73c-2.83-9.82-7.12-26-8.62-31.69-.38.16-.77.32-1.18.46C227.22,313.86,226.53,314.08,225.82,314.29Z" fill="#27199d"/>
      <path id="Trazado_120007" data-name="Trazado 120007" d="M239.68,302.64c-.7,3.41-3.25,7.5-10.6,10.51-.39.16-.78.32-1.19.46-.67.25-1.36.47-2.07.68-9.21,2.72-21.61,2.18-30.62-3.62-.33-.2-.65-.39-1-.61a30.268,30.268,0,0,1-2.69-2.12c-7.62-6.73-10.23-15.86-12.26-25.11-2.27-10.27-5.84-23.39-3.57-27.83a10.71,10.71,0,0,1,3.32-3.82l.17-.12a24.24,24.24,0,0,1,6.67-3h0c.11.89.23,1.78.36,2.66,1.3,8.95,3.06,14.12,2.92,17.37a89.466,89.466,0,0,1-1.27,9.24c-.69,3-.87,11.31,3.74,17.13s15.57,8,29.91,8.79a96.551,96.551,0,0,0,16.57-.43h.27Z" fill="#3d23b5"/>
      <path id="Trazado_120008" data-name="Trazado 120008" d="M291.74,151.29a2.8,2.8,0,0,0-.47-1.23h0a2.78,2.78,0,0,0-2.26-1.17H277.69a2.79,2.79,0,0,0-2.78,2.78v4.53a2.79,2.79,0,0,0,2.78,2.78H289a2.74,2.74,0,0,0,2.11-1c.84,1.17,3.05,4.11,3.57,3.32S292.8,154.06,291.74,151.29Z" fill="#ffc10b"/>
      <path id="Trazado_120009" data-name="Trazado 120009" d="M329.51,163.25A2.81,2.81,0,0,1,330,162h0a2.77,2.77,0,0,1,2.26-1.17h11.3a2.78,2.78,0,0,1,2.78,2.78v4.53a2.78,2.78,0,0,1-2.78,2.78h-11.3a2.77,2.77,0,0,1-2.12-1c-.83,1.16-3.05,4.1-3.56,3.31S328.46,166,329.51,163.25Z" fill="#aaa9e3"/>
      <path id="Trazado_120010" data-name="Trazado 120010" d="M229.45,183.31a2.8,2.8,0,0,1,.47-1.23h0a2.8,2.8,0,0,1,2.26-1.17H243.5a2.78,2.78,0,0,1,2.78,2.79v4.51A2.78,2.78,0,0,1,243.5,191H232.19a2.74,2.74,0,0,1-2.11-1c-.84,1.16-3.05,4.12-3.57,3.32S228.39,186.08,229.45,183.31Z" fill="#ff4030"/>
      <g id="Grupo_80463" data-name="Grupo 80463">
        <rect id="Rectángulo_34635" data-name="Rectángulo 34635" width="209.06" height="5.57" transform="translate(241.8 270.92)" fill="#aaa9e3"/>
        <rect id="Rectángulo_34636" data-name="Rectángulo 34636" width="3.32" height="102.09" transform="translate(245.97 276.49)" fill="#aaa9e3"/>
        <rect id="Rectángulo_34637" data-name="Rectángulo 34637" width="3.32" height="102.09" transform="translate(444.07 276.49)" fill="#aaa9e3"/>
      </g>
      <path id="Trazado_120011" data-name="Trazado 120011" d="M422.46,182.91a17.151,17.151,0,0,1-.59,5.59,5.89,5.89,0,0,1-2.58,3.47,8,8,0,0,1-1.88.8,6.94,6.94,0,0,1-5.74-.92,9.48,9.48,0,0,1-2.57-2.51,11.622,11.622,0,0,1-.67-1,17.46,17.46,0,0,1-2.62-9.33,6.65,6.65,0,0,0,5.28-1.57c1.33-1.27,3.13-3.36,5.11-2.37a8.18,8.18,0,0,1,4.17,4.35c.69,1.85,2.14,1.85,2.37.4a8.079,8.079,0,0,0,.11-1.06c.92-.16,1.83,1.05,1.75,2.28C424.48,182.86,422.46,182.91,422.46,182.91Z" fill="#fdb7b0"/>
      <path id="Trazado_120012" data-name="Trazado 120012" d="M420.19,171.09c-2.9-3.21-5.91-3.54-8.69-2.21s-7.13,2.55-8.35,4.12-1.45,4.29,1.1,5.51a5.6,5.6,0,0,0,1.56.47,6.69,6.69,0,0,0,5.28-1.58c1.33-1.27,3.13-3.36,5.1-2.37a8.2,8.2,0,0,1,4.18,4.35c.69,1.85,2.14,1.85,2.37.4a6.821,6.821,0,0,0,.1-1.06,10.78,10.78,0,0,0-2.65-7.63Z" fill="#0f0060"/>
      <path id="Trazado_120013" data-name="Trazado 120013" d="M422.86,192.42c-.31-1.47-.7-2.92-1-3.93a5.87,5.87,0,0,1-2.57,3.48c.18.59.37,1.25.59,1.92.7,2.25,1.57,4.51,2.86,3.86C423.63,197.3,423.37,194.85,422.86,192.42Z" fill="#fdb7b0"/>
      <path id="Trazado_120014" data-name="Trazado 120014" d="M368.48,349a7,7,0,0,1-.29-1h0c-2.32,1.08-7.46,4.11-7.46,5.33s1.43,1.31,6.52,0,9-4,9.17-4.65-.69-1.64-1.22-2.19a2.1,2.1,0,0,1-.11.33C374,349.24,369.06,349.7,368.48,349Z" fill="#0f0060"/>
      <path id="Trazado_120015" data-name="Trazado 120015" d="M411.1,259.59a29.538,29.538,0,0,0-.52,5.68c0,.08,0,.15,0,.2a1.9,1.9,0,0,0,.13.5l-1.16,1c-1.22,1.07-6,4.59-11,8.94h-.33a50.809,50.809,0,0,0-9.71-.49c-5.91.35-13.8-.81-15.07,2s1.16,12.53,2.32,28.18c1.11,15.1.4,37.24-.59,40.94a2.1,2.1,0,0,1-.11.33c-1,2.44-6,2.9-6.61,2.21a6.579,6.579,0,0,1-.29-1c-1.92-8-12.09-60-13.28-69.12-1.27-9.86.13-12.65,3.95-15.64a10,10,0,0,1,2.28-1.31,8.089,8.089,0,0,1,.5,1.58s14.93-2.31,24.26-5.82c11.6-1.26,31.84-3.42,31.84-3.42l.25.84s-5.68,4-7.06,4.19S411.1,259.59,411.1,259.59Z" fill="#3d23b5"/>
      <path id="Trazado_120016" data-name="Trazado 120016" d="M425.9,359.44l-.43-.48c-1.28,2.45-4.12,6.87-3.42,8s2,.46,5.56-2.49,4.7-5.27,4.82-5.74a5.33,5.33,0,0,0-2.63-3.21C429.66,358.27,426.49,360.2,425.9,359.44Z" fill="#0f0060"/>
      <path id="Trazado_120017" data-name="Trazado 120017" d="M454.43,255.17c-.79,7.14-1.83,11.13-10.36,16.27s-28.6,16.43-35.82,20.26-7.57,7.3-6.18,11.66,9.28,15.42,16.27,25.3c8.85,12.52,11.39,23.56,11.48,26.53a2.837,2.837,0,0,1,0,.29c-.14,2.79-3.31,4.72-3.89,4l-.43-.49c-3-3.28-20.1-21.81-27.93-31.16-8.43-10.09-14.08-19.05-15-23s-.86-10.35,5.66-18.53a76.713,76.713,0,0,1,8.83-9l.29-.25,1.2-1c5-4.35,9.78-7.87,11-8.94l1.16-1a.51.51,0,0,0,.14.2h.05c1.1.64,11.19-1.34,22.1-8,10.39-6.31,11.83-8.36,11.83-8.36s6.7-1.82,9.13-3.74C454,246.13,455.21,248.05,454.43,255.17Z" fill="#4484cd"/>
      <path id="Trazado_120018" data-name="Trazado 120018" d="M359.78,259c-.59-.48-4.29-.65-4.63.29s2.32.57,2.32.57-4.06,2.15-4,3.19,3.13-.75,3.13-.75-3.76,2.26-3.47,3.19,4.34-1.63,4.34-1.63-3.48,2.73-2.95,3.66,3.65-3,3.65-3-1.45,2.09-1,2.67,4.18-3.07,4.41-3.65A7.047,7.047,0,0,0,359.78,259Z" fill="#fdb7b0"/>
      <path id="Trazado_120019" data-name="Trazado 120019" d="M403,264.55c.56-.25,1-.46,1-.46S403.57,264.27,403,264.55Z" fill="#fdb7b0"/>
      <path id="Trazado_120020" data-name="Trazado 120020" d="M406.59,266.75l.44-.18Z" fill="#fdb7b0"/>
      <path id="Trazado_120021" data-name="Trazado 120021" d="M459.35,214.91c-.49-16.09-4.57-24.55-7.53-27.71s-10.52-3.24-16.61-.63c-2.32,1-7.11,3.28-12.35,5.85.51,2.43.77,4.88-.12,5.33-1.29.65-2.16-1.61-2.86-3.86-7.68,3.8-15.53,7.81-17.66,9.08-3.88,2.32-6.78,3.54-7.71,9.16s-1.33,16.17-2.08,21.57-2.88,9.82-9.31,13.3-23.34,12-23.34,12,.81,1.55,1.36,2.93a7.511,7.511,0,0,1,.5,1.59s14.93-2.33,24.26-5.83c.51-.19,1-.38,1.48-.58,9.13-3.82,17.66-10,18.4-17.91a150.485,150.485,0,0,0,.13-19.31c-.1-3,.95-5.65,2.08-3.22s4.78,18,6.35,24.61c1.24,5.26,2.82,10.9,3.41,13,.15.54.24.84.24.84s-5.68,4-7.06,4.19h0a3.143,3.143,0,0,1,.18.31h0s-.94,5.12-.36,6.38a.45.45,0,0,0,.14.2h.05c1.1.64,11.08-1.52,22.1-8,10.35-6.05,11.83-8.36,11.83-8.36s6.7-1.82,9.13-3.74V236.05S459.84,231,459.35,214.91Z" fill="#ffa726"/>
      <path id="Trazado_120022" data-name="Trazado 120022" d="M427.61,154.79a2.75,2.75,0,0,1,.47-1.23h0a2.78,2.78,0,0,1,2.26-1.17h11.31a2.78,2.78,0,0,1,2.78,2.78v4.52a2.78,2.78,0,0,1-2.78,2.79h-11.3a2.74,2.74,0,0,1-2.11-1c-.84,1.16-3.05,4.11-3.57,3.31S426.55,157.55,427.61,154.79Z" fill="#0f0060"/>
      <path id="Trazado_120023" data-name="Trazado 120023" d="M393,180.85a2.8,2.8,0,0,0-.47-1.23h0a2.76,2.76,0,0,0-2.26-1.17H379a2.78,2.78,0,0,0-2.78,2.78v4.52a2.79,2.79,0,0,0,2.78,2.79h11.31a2.77,2.77,0,0,0,2.12-1c.83,1.17,3,4.11,3.56,3.32S394.08,183.62,393,180.85Z" fill="#3d23b5"/>
      <path id="Trazado_120024" data-name="Trazado 120024" d="M212.72,211.63c1.13-.45.67-2.54-.09-3.63a1.37,1.37,0,0,0-2.48,1C210.3,210.74,211.37,212.18,212.72,211.63Z" fill="#ff9e97"/>
      <path id="Trazado_120025" data-name="Trazado 120025" d="M222.16,207.53a20.246,20.246,0,0,1-.82,2.28,9.2,9.2,0,0,1-.83,1.53c-.62,0-1.38-.21-1.31-1.63C219.28,208.06,221.15,206.36,222.16,207.53Z" fill="#ff9e97"/>
      <path id="Trazado_120026" data-name="Trazado 120026" d="M212,204.46c-.37-.15.84-2,2.2-1.82s2.09,1.78,1.68,2.11-.4-1-1.05-1.33c0,0,0,1.63-.85,1.58s-.23-1.71-.23-1.71-.37-.1-.75.38S212.31,204.61,212,204.46Z" fill="#3c0c07"/>
      <path id="Trazado_120027" data-name="Trazado 120027" d="M218.73,204.23c-.34-.09.35-2,1.71-2.08s2,1.66,1.71,1.85-.55-1-1.11-1.17c0,0,.24,1.55-.54,1.69s-.59-1.54-.59-1.54a2,2,0,0,0-.57.59C219.12,203.93,219,204.3,218.73,204.23Z" fill="#3c0c07"/>
      <path id="Trazado_120028" data-name="Trazado 120028" d="M307.88,177.89c1.51.14,2.67-1.65,1.93-4s-2.59-1.9-3.41-.68S305.94,177.72,307.88,177.89Z" fill="#ff9e97"/>
      <path id="Trazado_120029" data-name="Trazado 120029" d="M319.17,172.62a15.629,15.629,0,0,1-1.95,5.5c-1.38-.36-1.84-2.63-1.21-4.56a1.88,1.88,0,0,1,3.16-.94Z" fill="#ff9e97"/>
      <path id="Trazado_120030" data-name="Trazado 120030" d="M308.25,167.65c-.23-.22.78-1.3,2.13-1.83a1.37,1.37,0,0,1,2,.92c.09.48.07,1.08-.17,1.17s-.09-1-.67-1.22c0,0,0,1.12-.52,1.23s-.36-1.37-.36-1.37-.21-.25-1,.25C309.06,167.15,308.42,167.8,308.25,167.65Z" fill="#3c0c07"/>
      <path id="Trazado_120031" data-name="Trazado 120031" d="M315.93,167.78c-.6-.12.64-1.83,1.86-1.54a1.64,1.64,0,0,1,1.46,1.28c.26.71.06,1.33-.15,1.23s-.17-1.41-.77-1.64c0,0,0,1.34-.75,1.28s-.31-1.59-.31-1.59a3.531,3.531,0,0,0-.71.43C316.4,167.4,316.14,167.82,315.93,167.78Z" fill="#3c0c07"/>
      <path id="Trazado_120032" data-name="Trazado 120032" d="M408,185.59c-.37.12-.5-1.21.1-2.2a1.25,1.25,0,0,1,2-.32c.6.45.86,1,.64,1.2s-1.13-1.11-1.73-.81c0,0,1,1.16.46,1.62s-1.3-.52-1.3-.52S408.3,185.49,408,185.59Z" fill="#3c0c07"/>
      <path id="Trazado_120033" data-name="Trazado 120033" d="M413.87,182.46c-.39.1-.23-1.62.37-2.35s1.42-.46,2.06,0,.76.9.53,1.11-1-1.29-2-.67c0,0,.91.9.33,1.67s-.95-.35-.95-.35S414.21,182.38,413.87,182.46Z" fill="#3c0c07"/>
      <path id="Trazado_120034" data-name="Trazado 120034" d="M412.63,191.14a.91.91,0,0,1-1,.71,9.48,9.48,0,0,1-2.57-2.51,1.07,1.07,0,0,1,1.34-.84,2.51,2.51,0,0,1,2.23,2.64Z" fill="#ff9e97"/>
      <path id="Trazado_120035" data-name="Trazado 120035" d="M418.3,188.35a2.29,2.29,0,0,0,2.57-2.6c-.09-2-1.54-2.76-2.92-1.85S416.47,187.76,418.3,188.35Z" fill="#ff9e97"/>
      <path id="Trazado_120036" data-name="Trazado 120036" d="M211.82,202.78l.17-.25a5,5,0,0,1,.57-.67,2.8,2.8,0,0,1,1.21-.72,2.5,2.5,0,0,1,.92-.07,3.149,3.149,0,0,1,.94.29,2.3,2.3,0,0,1,1.22,1.8c0,.41,0,.75,0,1.13v1.15a15.043,15.043,0,0,0,.13,2.4c.05.41.1.82.18,1.21a1.69,1.69,0,0,0,.18.55h.09a.39.39,0,0,0,.15-.18,3.44,3.44,0,0,0,.22-1.18q0-.615,0-1.23c0-.82,0-1.62-.07-2.41a7.141,7.141,0,0,1,.19-2.31,2.55,2.55,0,0,1,.56-1c.07-.07.12-.14.2-.21l.19-.16c.15-.1.31-.2.46-.28a2.1,2.1,0,0,1,1.87-.09,2.37,2.37,0,0,1,1,1,3.06,3.06,0,0,1,.33.82l.08.3a.09.09,0,0,1-.07.1.08.08,0,0,1-.09,0h0l-.14-.26a4.63,4.63,0,0,0-.44-.68,2.33,2.33,0,0,0-.91-.73,1.72,1.72,0,0,0-1.43.08,2.6,2.6,0,0,0-.36.21l-.19.16a1.061,1.061,0,0,0-.15.15,2.2,2.2,0,0,0-.47.8,6.711,6.711,0,0,0-.26,2.16c0,.78,0,1.59,0,2.42a7.428,7.428,0,0,1-.07,1.24,3.52,3.52,0,0,1-.27,1.26.63.63,0,0,1-.25.29.5.5,0,0,1-.21.05.27.27,0,0,1-.21-.14,1.74,1.74,0,0,1-.23-.62,11.084,11.084,0,0,1-.21-1.24c-.09-.82-.18-1.63-.24-2.41,0-.39-.05-.78-.08-1.16s0-.77-.06-1.07a1.81,1.81,0,0,0-1-1.39,2.2,2.2,0,0,0-.78-.22,2.679,2.679,0,0,0-.69,0,3.63,3.63,0,0,0-1.08.53c-.28.2-.49.39-.64.51l-.25.19h0a.08.08,0,0,1-.12,0,.09.09,0,0,1,.11-.12Z" fill="#f48480"/>
      <path id="Trazado_120037" data-name="Trazado 120037" d="M217.24,212.57a2.51,2.51,0,0,1-1-.22.078.078,0,1,1,.11-.11,2,2,0,0,0,1.68,0,.09.09,0,1,1,.09.15,1.5,1.5,0,0,1-.88.18Z" fill="#f94e4e"/>
      <path id="Trazado_120038" data-name="Trazado 120038" d="M207.73,204.54a.08.08,0,0,1-.08-.07,3.52,3.52,0,0,0-.62-1.07.09.09,0,0,1,0-.13.08.08,0,0,1,.12,0,3.5,3.5,0,0,1,.66,1.15.1.1,0,0,1-.07.11Z" fill="#f48480"/>
      <path id="Trazado_120039" data-name="Trazado 120039" d="M303.23,171.58a.09.09,0,0,1-.09-.08,4.79,4.79,0,0,0-.65-1.45l-.07-.11a.115.115,0,0,1,.17-.11v.08a4.9,4.9,0,0,1,.69,1.52.1.1,0,0,1-.08.1Z" fill="#f48480"/>
      <path id="Trazado_120040" data-name="Trazado 120040" d="M308.75,165.61s.07-.11.2-.28a2.84,2.84,0,0,1,.8-.6,2.58,2.58,0,0,1,1.57-.3,1.43,1.43,0,0,1,.49.13,1,1,0,0,1,.27.11l.2.12a2.451,2.451,0,0,1,.43.35,2.671,2.671,0,0,1,.36.47,4,4,0,0,1,.38,2.35c-.05.78-.11,1.6-.15,2.46s-.08,1.73-.05,2.62a11.9,11.9,0,0,0,.1,1.34,2,2,0,0,0,.16.59s0,.05,0,.06h0a.5.5,0,0,0,.15-.15,4.39,4.39,0,0,0,.45-1.23c.11-.43.19-.88.26-1.32.14-.88.23-1.76.29-2.61a12.661,12.661,0,0,1,.33-2.49,5.1,5.1,0,0,1,1-2.08,1.86,1.86,0,0,1,1.92-.66l.38.13a2.3,2.3,0,0,1,.37.23,1,1,0,0,1,.29.27.94.94,0,0,1,.21.28,2.44,2.44,0,0,1,.34.92,1.449,1.449,0,0,1,0,.34.11.11,0,0,1-.1.09.14.14,0,0,1-.08-.07,2,2,0,0,0-.09-.3,3.27,3.27,0,0,0-.41-.77c-.05-.08-.14-.13-.2-.2a.83.83,0,0,0-.23-.19c-.09,0-.16-.11-.27-.16l-.39-.11a1.4,1.4,0,0,0-1.41.52,5.07,5.07,0,0,0-.91,1.88,11.841,11.841,0,0,0-.36,2.4c-.09.86-.2,1.75-.35,2.64q-.1.67-.27,1.35a4.351,4.351,0,0,1-.51,1.33.73.73,0,0,1-.34.3h-.29a.39.39,0,0,1-.19-.19,2.1,2.1,0,0,1-.23-.71,13.438,13.438,0,0,1-.14-1.38c0-.9-.06-1.79-.06-2.65s0-1.7.05-2.49a3.81,3.81,0,0,0-.35-2,1.74,1.74,0,0,0-1.25-.83,2.93,2.93,0,0,0-1.25.15,7.5,7.5,0,0,0-.81.31l-.3.15a.09.09,0,0,1-.12-.05.11.11,0,0,1,.11-.07Z" fill="#f48480"/>
      <path id="Trazado_120041" data-name="Trazado 120041" d="M312.87,179.1a1.63,1.63,0,0,1-1-.34.1.1,0,0,1,0-.13.09.09,0,0,1,.12,0,1.35,1.35,0,0,0,1.54.12.08.08,0,0,1,.12,0,.09.09,0,0,1,0,.12,1.61,1.61,0,0,1-.78.23Z" fill="#f94e4e"/>
      <path id="Trazado_120042" data-name="Trazado 120042" d="M406.94,183a1.683,1.683,0,0,1,.05-.33,2.5,2.5,0,0,1,.34-.88,1.8,1.8,0,0,1,.53-.54,1.2,1.2,0,0,1,.41-.19,1.07,1.07,0,0,1,.47-.09h.5a2,2,0,0,1,.54.21,2.721,2.721,0,0,1,.78.73,8.32,8.32,0,0,1,1,1.94c.28.69.57,1.42.87,2.18a12.643,12.643,0,0,0,1.08,2.22c.23.32.52.69.74.44a.77.77,0,0,0,.12-.44,2.543,2.543,0,0,0,0-.61,11,11,0,0,0-.73-2.43c-.31-.79-.66-1.57-.91-2.36a6,6,0,0,1-.3-2.44,2.82,2.82,0,0,1,1.16-2,3.292,3.292,0,0,1,.44-.27,3.556,3.556,0,0,1,.52-.18,2,2,0,0,1,1,.07,2.76,2.76,0,0,1,1.19.9,4.381,4.381,0,0,1,.49.77,1.772,1.772,0,0,1,.1.22h0a.08.08,0,0,1,0,.12.1.1,0,0,1-.12,0l-.08-.09L417,180a5.708,5.708,0,0,0-.58-.63,2.54,2.54,0,0,0-1.05-.63,1.34,1.34,0,0,0-.69,0,1.5,1.5,0,0,0-.34.11,3.765,3.765,0,0,0-.38.23,2.19,2.19,0,0,0-.92,1.55,5.469,5.469,0,0,0,.22,2.2,42.2,42.2,0,0,1,1.53,4.9,3.138,3.138,0,0,1,0,.69,1,1,0,0,1-.3.75l-.18.1a.66.66,0,0,1-.24,0,.8.8,0,0,1-.4-.15,2,2,0,0,1-.49-.52,15.92,15.92,0,0,1-1.21-2.25,23.2,23.2,0,0,0-2-3.86,2,2,0,0,0-.58-.53.9.9,0,0,0-.27-.12h-.32a1.35,1.35,0,0,0-.89.48c-.23.24-.41.48-.56.63a1.832,1.832,0,0,1-.25.23.09.09,0,0,1-.13,0,.19.19,0,0,1-.03-.18Z" fill="#f48480"/>
      <path id="Trazado_120043" data-name="Trazado 120043" d="M423.06,181.94h0a.08.08,0,0,1-.08-.09,9.718,9.718,0,0,1,.44-1.56.08.08,0,0,1,.11,0,.09.09,0,0,1,.05.12,9.449,9.449,0,0,0-.43,1.48A.09.09,0,0,1,423.06,181.94Z" fill="#f48480"/>
      <path id="Trazado_120044" data-name="Trazado 120044" d="M414.82,191.64a.5.5,0,0,1-.28,0,.08.08,0,0,1,0-.11.07.07,0,0,1,.11,0,1.33,1.33,0,0,0,1.3-.55.09.09,0,0,1,.14.11A1.54,1.54,0,0,1,414.82,191.64Z" fill="#f94e4e"/>
      <g id="Grupo_80465" data-name="Grupo 80465">
        <path id="Trazado_120045" data-name="Trazado 120045" d="M221.18,271.63h0a38.522,38.522,0,0,1-24.06-16.6c-5.86-8.49-10.28-20.26-10.74-24.62a.07.07,0,0,1,.07-.09.08.08,0,0,1,.1.07c.46,4.35,4.86,16.07,10.71,24.54,6.08,8.82,13.92,14.23,24,16.54a.08.08,0,0,1,.07.1.1.1,0,0,1-.15.06Z" fill="#3d23b5"/>
        <path id="Trazado_120046" data-name="Trazado 120046" d="M222.89,259.31h0a4.93,4.93,0,0,0-.94-.41c-1.72-.64-5.3-2-10.94-8.26a55.189,55.189,0,0,1-9.88-15.4.1.1,0,0,1,.06-.11.09.09,0,0,1,.11,0,55,55,0,0,0,9.84,15.34c5.61,6.27,9.16,7.59,10.87,8.22a5.291,5.291,0,0,1,1,.42.123.123,0,0,1-.12.2Z" fill="#3d23b5"/>
        <g id="Grupo_80464" data-name="Grupo 80464">
          <path id="Trazado_120047" data-name="Trazado 120047" d="M229.4,248.05a5.474,5.474,0,0,0,.4-.52A1,1,0,0,1,229.4,248.05Z" fill="#3d23b5"/>
          <path id="Trazado_120048" data-name="Trazado 120048" d="M231.37,244a11.09,11.09,0,0,1-1.34,3.53c-.05-.08-.09-.13-.13-.13a10.93,10.93,0,0,0,1.3-3.45c.57-2.48-1.29-7.12-2.65-10.5-.18-.44-.35-.87-.5-1.26a.08.08,0,0,1,0-.12.1.1,0,0,1,.12,0c.15.4.32.82.5,1.26C230.08,236.77,232,241.44,231.37,244Z" fill="#3d23b5"/>
        </g>
        <path id="Trazado_120049" data-name="Trazado 120049" d="M246.21,267.38h0c-2.75-.64-7.08-1.87-9.09-2.57a.11.11,0,0,1,0-.12.09.09,0,0,1,.11-.05c2,.71,6.32,1.93,9.07,2.57a.1.1,0,1,1-.09.17Z" fill="#3d23b5"/>
      </g>
      <path id="Trazado_120050" data-name="Trazado 120050" d="M238.38,302.8a44.361,44.361,0,0,1-4.61,4.09c-4.19,3.33-9.88,5.1-16.91,5.26h-1a59.5,59.5,0,0,1-16.59-2.55,17.85,17.85,0,0,1-10.73-7.95c-2.32-3.77-3.71-8.61-5.07-14.72-1.94-8.69-2.93-19.68-3.73-28.5-.24-2.72-.47-5.15-.69-7.26l.17-.12c.22,2.14.45,4.61.69,7.37.8,8.81,1.79,19.79,3.73,28.46,2.89,13,6,19.66,15.68,22.55A58.831,58.831,0,0,0,216.86,312c7-.17,12.65-1.92,16.81-5.22a47,47,0,0,0,4.44-3.92Z" fill="#aaa9e3"/>
      <path id="Trazado_120051" data-name="Trazado 120051" d="M295.37,247.17c0,.31.07.63.11,1-.31-1.37-1.25-7.19-1.93-19.57-.19-3.33-.35-6.11-.51-8.58-.49-8-.73-12-.18-16.68a.1.1,0,0,1,.1-.08.09.09,0,0,1,.07.1c-.55,4.66-.31,8.67.19,16.65.15,2.46.32,5.25.51,8.58a172.211,172.211,0,0,0,1.75,18.66.37.37,0,0,1-.11-.08Z" fill="#f48480"/>
      <g id="Grupo_80466" data-name="Grupo 80466">
        <path id="Trazado_120052" data-name="Trazado 120052" d="M417.75,255.35a.087.087,0,0,1-.08-.06.08.08,0,0,1,0-.11,46.43,46.43,0,0,0,13.94-9.41,38.59,38.59,0,0,0,10.08-17c4-14.17,2.27-26,.79-30.3a.1.1,0,0,1,.05-.12.09.09,0,0,1,.11.06c1.5,4.3,3.26,16.2-.78,30.4a38.69,38.69,0,0,1-10.13,17,46.49,46.49,0,0,1-14,9.45Z" fill="#3d23b5"/>
        <path id="Trazado_120053" data-name="Trazado 120053" d="M444.86,250a.075.075,0,0,1-.07-.13c1.81-1.46,6.05-6.24,9.1-13.79a.1.1,0,0,1,.16.11c-3.83,9.48-9.1,13.82-9.15,13.86Z" fill="#3d23b5"/>
      </g>
      <g id="Grupo_80467" data-name="Grupo 80467">
        <path id="Trazado_120054" data-name="Trazado 120054" d="M397.08,277.23l.29-.25a.8.8,0,0,0-.14.21.1.1,0,0,1-.09.07h0Z" fill="#aaa9e3"/>
        <path id="Trazado_120055" data-name="Trazado 120055" d="M410.61,265.47l-3.38,2.87c-3.3,2.8-6.91,5.87-8.76,7.56h-.22c1.58-1.47,4.67-4.1,8.87-7.66l3.46-2.94C410.59,265.35,410.6,265.42,410.61,265.47Z" fill="#aaa9e3"/>
      </g>
      <path id="Trazado_120056" data-name="Trazado 120056" d="M411.1,259.59h0a3.144,3.144,0,0,0-.18-.31,3,3,0,0,0-.18-.3c-.86-1.26-3.57-.82-5.32.46s-5.52,4.93-5.23,5.68c.19.49,1.77-.1,2.84-.57.54-.28,1-.46,1-.46s-.43.21-1,.46c-.92.47-2.11,1.22-1.85,1.84.4,1,4.69-1,4.69-1s-3.59,1.68-3.24,2.29,2.9-.48,4-.89l.44-.18-.44.18c-.7.29-1.95.91-1.53,1.35.58.62,5.68-1.59,5.68-1.59s.06-.13.14-.34a.45.45,0,0,1-.14-.2C410.16,264.71,411.09,259.63,411.1,259.59Z" fill="#fdb7b0"/>
      <path id="Trazado_120057" data-name="Trazado 120057" d="M289.4,266.31c-2.63.39-6.3,1-6.11,1.68s3.48.2,3.48.2-4.44,1.1-4.12,1.54c.55.75,5.65-.91,5.65-.91s-4.79,1.46-4.57,1.92,6.66-1.51,6.66-1.51-4.11,1.17-3.54,1.69,5.57-1,7.19-1.6,2.55-.51,2,.92-.85,2.13-.23,2.18c.46,0,2.09-1.74,2.78-4.87C298.62,267.55,296.94,265.19,289.4,266.31Z" fill="#fdb7b0"/>
      <path id="Trazado_120058" data-name="Trazado 120058" d="M336.59,266.15a29.723,29.723,0,0,1-4.08.52l-1.31.07c.58.41,5.1,4.93,6.26,4.7s-1.39-2.44-1.27-2.61,7,1.52,7.36,1.05-3.71-2.2-3.53-2.24,5.39,1.57,5.56.9c.13-.51-3.29-1.48-4.23-1.74-.12,0-.21,0-.23-.06l.23.06c.81.08,3.38-.22,3.3-.7s-5.72-1-5.72-1l-.05.17a5.41,5.41,0,0,1-2.29.88Z" fill="#fdb7b0"/>
      <path id="Trazado_120059" data-name="Trazado 120059" d="M219.78,190.8c-.38-.8-3-3.19-8.64-.93s-6.73,6.55-7.77,10-4.23,5-6.55,8.12-.06,5.39,1.1,6.72,0,2.61-1.94,3.64l-.38.19c-2.14,1-3.42,1.57-5.74,5.8s1.28,10.14,8.64,11.82,11.77-.23,13.33-5.45-2.72-9.39-3.3-11.53c-.25-.92,0-1.29.53-1.55a7.55,7.55,0,0,0,1.89-1,2.43,2.43,0,0,0,.48-.56,3.32,3.32,0,0,0,0-3.3,16.854,16.854,0,0,0-1-1.82c-.18-.28-.35-.57-.52-.85a10.54,10.54,0,0,1-1.39-4.69c0-.07-.26-.08-.62-.13a2.84,2.84,0,0,1-1.54-.61c-.61-.86-.39-2.15,1.79-2.52h0c.26-.05.55-.08.86-.11,3-.23,6.2-1.74,9.22-4.75a7.49,7.49,0,0,0,2.25-3.24C220.77,193,220.38,192.09,219.78,190.8Z" fill="#ffc10b"/>
    </g>
  </g>
</svg>
