<svg xmlns="http://www.w3.org/2000/svg" xmlns:xlink="http://www.w3.org/1999/xlink" width="486.99" height="366.391" viewBox="0 0 486.99 366.391">
  <defs>
    <linearGradient id="linear-gradient" x1="-7.729" y1="0.5" x2="-6.729" y2="0.5" gradientUnits="objectBoundingBox">
      <stop offset="0" stop-color="#343d4f"/>
      <stop offset="0.46" stop-color="#30394c"/>
      <stop offset="0.95" stop-color="#232d41"/>
      <stop offset="1" stop-color="#212b40"/>
    </linearGradient>
    <linearGradient id="linear-gradient-2" x1="65.145" y1="0.733" x2="63.425" y2="0.416" gradientUnits="objectBoundingBox">
      <stop offset="0" stop-color="#ff9f55"/>
      <stop offset="1" stop-color="#ffd255"/>
    </linearGradient>
  </defs>
  <g id="Capa_1" data-name="Capa 1" transform="translate(-6.5 -119.909)">
    <g id="Grupo_80481" data-name="Grupo 80481">
      <g id="Grupo_80469" data-name="Grupo 80469" opacity="0.68">
        <rect id="Rectángulo_34640" data-name="Rectángulo 34640" width="235.31" height="222.91" transform="translate(319.36 419.02) rotate(180)" fill="#276871"/>
      </g>
      <rect id="Rectángulo_34641" data-name="Rectángulo 34641" width="42.67" height="4.37" transform="translate(105.95 213.18)" fill="#e0e0e0"/>
      <rect id="Rectángulo_34642" data-name="Rectángulo 34642" width="30.81" height="4.37" transform="translate(160.56 246.08)" fill="#e0e0e0"/>
      <rect id="Rectángulo_34643" data-name="Rectángulo 34643" width="20.44" height="4.37" transform="translate(196.17 246.08)" fill="#35afea"/>
      <rect id="Rectángulo_34644" data-name="Rectángulo 34644" width="20.44" height="4.37" transform="translate(237.94 378.16)" fill="#35afea"/>
      <rect id="Rectángulo_34645" data-name="Rectángulo 34645" width="20.44" height="4.37" transform="translate(106.43 328.81)" fill="#35afea"/>
      <rect id="Rectángulo_34646" data-name="Rectángulo 34646" width="49.36" height="4.37" transform="translate(220.65 246.08)" fill="#e0e0e0"/>
      <rect id="Rectángulo_34647" data-name="Rectángulo 34647" width="31.72" height="4.37" transform="translate(106.43 312.24)" fill="#e0e0e0"/>
      <rect id="Rectángulo_34648" data-name="Rectángulo 34648" width="31.72" height="4.37" transform="translate(191.66 345.26)" fill="#e0e0e0"/>
      <rect id="Rectángulo_34649" data-name="Rectángulo 34649" width="19.36" height="4.37" transform="translate(150.64 345.26)" fill="#e0e0e0"/>
      <rect id="Rectángulo_34650" data-name="Rectángulo 34650" width="38.36" height="4.37" transform="translate(106.43 345.26)" fill="#35afea"/>
      <rect id="Rectángulo_34651" data-name="Rectángulo 34651" width="21.16" height="4.37" transform="translate(106.43 361.71)" fill="#e0e0e0"/>
      <rect id="Rectángulo_34652" data-name="Rectángulo 34652" width="30.29" height="4.37" transform="translate(156.92 213.18)" fill="#78c2ff"/>
      <rect id="Rectángulo_34653" data-name="Rectángulo 34653" width="30.29" height="4.37" transform="translate(156.92 262.53)" fill="#35afea"/>
      <rect id="Rectángulo_34654" data-name="Rectángulo 34654" width="12.94" height="4.37" transform="translate(141.77 278.98)" fill="#e0e0e0"/>
      <rect id="Rectángulo_34655" data-name="Rectángulo 34655" width="29.07" height="4.37" transform="translate(128.83 295.67)" fill="#78c2ff"/>
      <rect id="Rectángulo_34656" data-name="Rectángulo 34656" width="40.13" height="4.37" transform="translate(162.3 295.67)" fill="#35afea"/>
      <rect id="Rectángulo_34657" data-name="Rectángulo 34657" width="30.29" height="4.37" transform="translate(106.43 279.1)" fill="#35afea"/>
      <rect id="Rectángulo_34658" data-name="Rectángulo 34658" width="17.97" height="4.37" transform="translate(106.43 295.67)" fill="#35afea"/>
      <rect id="Rectángulo_34659" data-name="Rectángulo 34659" width="16.96" height="4.37" transform="translate(160.82 279.1)" fill="#ffa726"/>
      <rect id="Rectángulo_34660" data-name="Rectángulo 34660" width="16.96" height="4.37" transform="translate(106.94 378.16)" fill="#ffa726"/>
      <rect id="Rectángulo_34661" data-name="Rectángulo 34661" width="30.29" height="4.37" transform="translate(106.31 246.08)" fill="#78c2ff"/>
      <rect id="Rectángulo_34662" data-name="Rectángulo 34662" width="30.29" height="4.37" transform="translate(133.1 328.81)" fill="#78c2ff"/>
      <rect id="Rectángulo_34663" data-name="Rectángulo 34663" width="30.29" height="4.37" transform="translate(133.47 361.71)" fill="#78c2ff"/>
      <rect id="Rectángulo_34664" data-name="Rectángulo 34664" width="30.29" height="4.37" transform="translate(187.28 361.71)" fill="#78c2ff"/>
      <rect id="Rectángulo_34665" data-name="Rectángulo 34665" width="43.18" height="4.37" transform="translate(106.31 262.53)" fill="#78c2ff"/>
      <rect id="Rectángulo_34666" data-name="Rectángulo 34666" width="30.29" height="4.37" transform="translate(200.75 378.16)" fill="#78c2ff"/>
      <rect id="Rectángulo_34667" data-name="Rectángulo 34667" width="38.59" height="4.37" transform="translate(195.37 213.18)" fill="#35afea"/>
      <rect id="Rectángulo_34668" data-name="Rectángulo 34668" width="38.59" height="4.37" transform="translate(130.3 378.16)" fill="#35afea"/>
      <rect id="Rectángulo_34669" data-name="Rectángulo 34669" width="38.59" height="4.37" transform="translate(264.87 378.16)" fill="#35afea"/>
      <rect id="Rectángulo_34670" data-name="Rectángulo 34670" width="38.59" height="4.37" transform="translate(258.93 345.26)" fill="#35afea"/>
      <rect id="Rectángulo_34671" data-name="Rectángulo 34671" width="38.59" height="4.37" transform="translate(248.16 262.53)" fill="#35afea"/>
      <rect id="Rectángulo_34672" data-name="Rectángulo 34672" width="8.32" height="4.37" transform="translate(176.07 345.26)" fill="#ffa726"/>
      <rect id="Rectángulo_34673" data-name="Rectángulo 34673" width="38.59" height="4.37" transform="translate(262.51 213.18)" fill="#ffa726"/>
      <rect id="Rectángulo_34674" data-name="Rectángulo 34674" width="22.63" height="4.37" transform="translate(218.47 262.53)" fill="#ffa726"/>
      <rect id="Rectángulo_34675" data-name="Rectángulo 34675" width="22.63" height="4.37" transform="translate(200.75 329.06)" fill="#ffa726"/>
      <rect id="Rectángulo_34676" data-name="Rectángulo 34676" width="14.13" height="4.37" transform="translate(241.1 213.18)" fill="#e0e0e0"/>
      <rect id="Rectángulo_34677" data-name="Rectángulo 34677" width="14.13" height="4.37" transform="translate(195.37 262.53)" fill="#e0e0e0"/>
      <rect id="Rectángulo_34678" data-name="Rectángulo 34678" width="22.1" height="4.37" transform="translate(105.95 229.63)" fill="#35afea"/>
      <rect id="Rectángulo_34679" data-name="Rectángulo 34679" width="17.45" height="4.37" transform="translate(164.91 312.36)" fill="#35afea"/>
      <rect id="Rectángulo_34680" data-name="Rectángulo 34680" width="7.14" height="4.37" transform="translate(133.47 229.63)" fill="#35afea"/>
      <rect id="Rectángulo_34681" data-name="Rectángulo 34681" width="58.98" height="4.37" transform="translate(223.38 361.71)" fill="#e0e0e0"/>
      <rect id="Rectángulo_34682" data-name="Rectángulo 34682" width="7.28" height="4.37" transform="translate(145.85 229.63)" fill="#ffa726"/>
      <rect id="Rectángulo_34683" data-name="Rectángulo 34683" width="19.3" height="4.37" transform="translate(255.22 229.63)" fill="#35afea"/>
      <rect id="Rectángulo_34684" data-name="Rectángulo 34684" width="19.3" height="4.37" transform="translate(274.52 246.08)" fill="#ffa726"/>
      <rect id="Rectángulo_34685" data-name="Rectángulo 34685" width="19.3" height="4.37" transform="translate(231.45 345.26)" fill="#ffa726"/>
      <rect id="Rectángulo_34686" data-name="Rectángulo 34686" width="19.3" height="4.37" transform="translate(175.29 378.16)" fill="#ffa726"/>
      <rect id="Rectángulo_34687" data-name="Rectángulo 34687" width="41.06" height="4.37" transform="translate(209.06 229.63)" fill="#35afea"/>
      <rect id="Rectángulo_34688" data-name="Rectángulo 34688" width="23.99" height="4.37" transform="translate(170.84 329.06)" fill="#35afea"/>
      <rect id="Rectángulo_34689" data-name="Rectángulo 34689" width="11.99" height="4.37" transform="translate(169.3 361.71)" fill="#35afea"/>
      <rect id="Rectángulo_34690" data-name="Rectángulo 34690" width="14.13" height="4.37" transform="translate(189.1 229.63)" fill="#78c2ff"/>
      <rect id="Rectángulo_34691" data-name="Rectángulo 34691" width="14.13" height="4.37" transform="translate(141.55 246.08)" fill="#ffa726"/>
      <rect id="Rectángulo_34692" data-name="Rectángulo 34692" width="14.13" height="4.37" transform="translate(144.37 312.36)" fill="#ffa726"/>
      <rect id="Rectángulo_34693" data-name="Rectángulo 34693" width="24.61" height="4.37" transform="translate(159.1 229.63)" fill="#35afea"/>
      <path id="Trazado_120060" data-name="Trazado 120060" d="M100.54,395.21h0C100.6,395.24,100.61,395.24,100.54,395.21Z" fill="#323657"/>
      <path id="Trazado_120061" data-name="Trazado 120061" d="M275.59,177.61h7.01l-2.14-4.45h-7.02Z" fill="#fff"/>
      <path id="Trazado_120062" data-name="Trazado 120062" d="M272.31,177.61h1.67l-2.15-4.45h-1.67Z" fill="#fff"/>
      <path id="Trazado_120063" data-name="Trazado 120063" d="M248.08,172.31h28.4l-.94-2.22h-28.4Z" fill="#fff"/>
      <rect id="Rectángulo_34694" data-name="Rectángulo 34694" width="22.33" height="1.57" transform="translate(414.44 289.2) rotate(180)" fill="#fff"/>
      <rect id="Rectángulo_34695" data-name="Rectángulo 34695" width="22.33" height="6.58" transform="translate(414.44 297.17) rotate(180)" fill="#fff"/>
      <rect id="Rectángulo_34696" data-name="Rectángulo 34696" width="13.18" height="0.98" transform="translate(394.79 300.36) rotate(180)" fill="#fff"/>
      <rect id="Rectángulo_34697" data-name="Rectángulo 34697" width="13.18" height="2.66" transform="translate(394.79 303.46) rotate(180)" fill="#fff"/>
      <rect id="Rectángulo_34698" data-name="Rectángulo 34698" width="0.98" height="18.44" transform="translate(389.27 296.03) rotate(180)" fill="#fff"/>
      <rect id="Rectángulo_34699" data-name="Rectángulo 34699" width="17.59" height="3.19" transform="translate(120.32 155.11) rotate(180)" fill="#939fc2"/>
      <rect id="Rectángulo_34700" data-name="Rectángulo 34700" width="17.59" height="0.6" transform="translate(120.32 151.04) rotate(180)" fill="#939fc2"/>
      <path id="Trazado_120064" data-name="Trazado 120064" d="M293.4,348.32l23.41-23.4h35.63v-1.16H316.32L292.58,347.5Z" fill="#35afea"/>
      <path id="Trazado_120065" data-name="Trazado 120065" d="M277.16,214.72l22.85-22.85h93.86v-1.16H299.53l-23.19,23.18Z" fill="#ffa726"/>
      <path id="Trazado_120066" data-name="Trazado 120066" d="M131.97,266.93l.82-.82L89.13,222.45H6.5v1.17H88.65Z" fill="#78c2ff"/>
      <path id="Trazado_120067" data-name="Trazado 120067" d="M218.96,214.42l.82-.83-36.84-36.84H131.11v1.16h51.34Z" fill="#35afea"/>
      <g id="Grupo_80470" data-name="Grupo 80470">
        <rect id="Rectángulo_34701" data-name="Rectángulo 34701" width="26.42" height="1.57" transform="translate(324.64 408.51) rotate(180)" fill="#4dd0e1"/>
        <rect id="Rectángulo_34702" data-name="Rectángulo 34702" width="2.32" height="71.32" transform="translate(318.78 412.59)" fill="#f2e2d9"/>
        <rect id="Rectángulo_34703" data-name="Rectángulo 34703" width="18.36" height="2.24" transform="translate(302.36 408.74) rotate(180)" fill="#ccbdb7"/>
        <rect id="Rectángulo_34704" data-name="Rectángulo 34704" width="6.95" height="21.12" transform="translate(296.65 408.51) rotate(180)" fill="#ccbdb7"/>
        <rect id="Rectángulo_34705" data-name="Rectángulo 34705" width="101.74" height="4.05" transform="translate(334.12 412.59) rotate(180)" fill="#948a84"/>
        <path id="Trazado_120068" data-name="Trazado 120068" d="M353.64,384s1.12,15.61-1.93,17.48c-1.91,1.17-9.53,5.11-9.3,5.85s4.3,6.59,4.3,6.59,14.63-9.64,15.1-12.67-.72-22.85-2.73-23.77c-1.51-.68-2.3-.12-4.2,1.29C352.22,380.74,353.64,384,353.64,384Z" fill="#4aaaf1"/>
        <path id="Trazado_120069" data-name="Trazado 120069" d="M327,388.45l-1.29-.48s1.61-3.77,2.31-3.68a16.2,16.2,0,0,1,1.82.37Z" fill="#ead8cf"/>
        <path id="Trazado_120070" data-name="Trazado 120070" d="M326.69,389.1c.16-.12,2.74-5.07,2.74-5.07l5.5.75-3,5.86Z" fill="#da9b5b"/>
        <path id="Trazado_120071" data-name="Trazado 120071" d="M335.65,474.17s.45,3.16.51,3.64,5.06-.28,5.06-.28l.4-3.76S336.27,473.73,335.65,474.17Z" fill="#424773"/>
        <path id="Trazado_120072" data-name="Trazado 120072" d="M336.1,477.4a13.429,13.429,0,0,1-3.11,2.74c-1.54.83-3.95,1.15-4.85,2-.66.62-2.39,3.29,4,3.24s9.44.37,10.12-.65-1-7.55-1-7.55a13.491,13.491,0,0,1-5.16.22Z" fill="#292c47"/>
        <path id="Trazado_120073" data-name="Trazado 120073" d="M303.59,474.2s.45,3.16.51,3.64,5.06-.28,5.06-.28l.41-3.76S304.21,473.76,303.59,474.2Z" fill="#424773"/>
        <path id="Trazado_120074" data-name="Trazado 120074" d="M304.05,477.43a13.581,13.581,0,0,1-3.12,2.74c-1.54.83-7.18,1.51-8.08,2.36-.66.62-1.75,3.12,7.21,2.89,6.37-.17,9.44.37,10.12-.65s-1-7.55-1-7.55S307.78,477.8,304.05,477.43Z" fill="#292c47"/>
        <path id="Trazado_120075" data-name="Trazado 120075" d="M351.78,419.63s-18.19,3.08-22.3,3.72-26.38,6.19-29.17,7.88c-2.22,1.35,1.17,33.64,1.95,46H311l.64-37c10.53.27,18-2.46,25.71-1.3s14.06,2.82,18.93-3.71C356.32,435.22,356.5,421.06,351.78,419.63Z" fill="#292c47"/>
        <path id="Trazado_120076" data-name="Trazado 120076" d="M333.85,477.22l8.56-.53.83-36.46a50.9,50.9,0,0,0,9.75-.62l6.91-16c-6,1.2-25.44,6.09-28,7.66C329.66,432.58,333.06,464.9,333.85,477.22Z" fill="#292c47"/>
        <path id="Trazado_120077" data-name="Trazado 120077" d="M343.41,351.44s-6.67-1.84-9.21,3.34-1.39,15,2,15.91,8.19-.14,9.59-3.36,2.5-7.8,2.17-10.77S345.18,352.15,343.41,351.44Z" fill="#eea886"/>
        <path id="Trazado_120078" data-name="Trazado 120078" d="M337.91,369.66s.07,3.94-.36,4.77,9.28.63,9.28.63-1.53-4.72-.66-8.75S337.91,369.66,337.91,369.66Z" fill="#eea886"/>
        <path id="Trazado_120079" data-name="Trazado 120079" d="M346.7,364.82s-.52,1.05-3,.88-5.83-3.2-6.9-3.47-1.13-.88-1.13-.88l-.57,1-1.09.17s.74-3-.88-4.11.73-9.7,8.93-7.62c0,0,6.26,1.15,6.35,4.64S347.91,363,346.7,364.82Z" fill="#3a3f47"/>
        <path id="Trazado_120080" data-name="Trazado 120080" d="M337,374.33s0-1.6.75-1.75,7.64-1.11,8.54-.76l.38,2.12S345,375,337,374.33Z" fill="#4aaaf1"/>
        <path id="Trazado_120081" data-name="Trazado 120081" d="M335,360.63c.18-1.31,1.68-2.82,2.53-.78s-.57,5-1.53,4.87S334.78,362.41,335,360.63Z" fill="#eea886"/>
        <path id="Trazado_120082" data-name="Trazado 120082" d="M308.08,393.28Z" fill="#323657"/>
        <path id="Trazado_120083" data-name="Trazado 120083" d="M345.36,352.38s8.13-.38,1.41,12.31Z" fill="#3a3f47"/>
        <path id="Trazado_120084" data-name="Trazado 120084" d="M363.47,481.55l-.6,1.7-25.56-7.92,1.23-3.45Z" fill="#918783"/>
        <rect id="Rectángulo_34706" data-name="Rectángulo 34706" width="2.9" height="27.78" transform="translate(339.34 474.12) rotate(180)" fill="#918783"/>
        <rect id="Rectángulo_34707" data-name="Rectángulo 34707" width="17.13" height="1.64" transform="translate(346.45 446.5) rotate(180)" fill="#5e5854"/>
        <path id="Trazado_120085" data-name="Trazado 120085" d="M312.08,481.55l.6,1.7,25.56-7.92-1.13-3.66Z" fill="#918783"/>
        <path id="Trazado_120086" data-name="Trazado 120086" d="M330.08,483.06v1.98l8.16-9.71-1.13-3.66Z" fill="#918783"/>
        <path id="Trazado_120087" data-name="Trazado 120087" d="M309.69,483.91a2.39,2.39,0,1,0,2.39-2.39A2.39,2.39,0,0,0,309.69,483.91Z" fill="#bfb2ac"/>
        <path id="Trazado_120088" data-name="Trazado 120088" d="M329.88,483.91a2.39,2.39,0,1,0,2.39-2.39,2.39,2.39,0,0,0-2.39,2.39Z" fill="#bfb2ac"/>
        <path id="Trazado_120089" data-name="Trazado 120089" d="M361.08,483.91a2.39,2.39,0,1,0,2.39-2.39,2.39,2.39,0,0,0-2.39,2.39Z" fill="#bfb2ac"/>
        <rect id="Rectángulo_34708" data-name="Rectángulo 34708" width="40.59" height="6.2" rx="3.1" transform="translate(358.07 444.86) rotate(180)" fill="#4dd0e1"/>
        <rect id="Rectángulo_34709" data-name="Rectángulo 34709" width="2.32" height="71.32" transform="translate(247.71 483.91) rotate(180)" fill="#f2e2d9"/>
        <rect id="Rectángulo_34710" data-name="Rectángulo 34710" width="60.05" height="42.36" rx="2.49" transform="translate(323.2 397.56) rotate(180)" fill="#f2e2d9"/>
        <rect id="Rectángulo_34711" data-name="Rectángulo 34711" width="55.34" height="33.43" transform="translate(320.85 390.92) rotate(180)" fill="#f5f7ff"/>
        <circle id="Elipse_5401" data-name="Elipse 5401" cx="1.94" cy="1.94" r="1.94" transform="translate(291.24 392)" fill="#918681"/>
        <path id="Trazado_120090" data-name="Trazado 120090" d="M280.74,408.59v-.75s1.06-4.69,8.56-4.69,7.34,5.44,7.34,5.44Z" fill="#1d3b54"/>
        <path id="Trazado_120091" data-name="Trazado 120091" d="M296.74,403.85a7.47,7.47,0,0,1-2.23-.49c-.6-.36-4.17-2.76-5-2.38s-6.42,2.1-6.23,2.91.71.74,1.11.6a28.341,28.341,0,0,1,4.8-.86s-4,1.46-4,2.51.84,1.32,1.21,1.72.83,1.4,1.86,1.47,6-1.66,7.06-1.74a27.422,27.422,0,0,0,3.07-.1,29.689,29.689,0,0,0-1.65-3.64Z" fill="#eea886"/>
        <path id="Trazado_120092" data-name="Trazado 120092" d="M326.38,376.56c5.19-.92,10.66-2.23,10.66-2.23l9.67-.39s8.87,1.95,12.37,3.53c.33.15.33,7.92,1.24,10l-2.9,6.11s-1.67,12.11-2,17.49c-.16,2.48.45,23.9.45,23.9s-.87.43-7.47,1.15-23.08-.26-23.19-1,3.2-29,3.34-30.48c.23-2.25-.65-12.62-.65-12.62-1.24,1.67-4.41,9.21-7.71,12.8-1.95,2.11-11.57,3.4-13.39,3.46-3.94.14-11.15.92-11.36.54s-.63-6.4-.17-6.55,13.77-.9,17.19-2.72c1.26-.66,5-8.83,5-8.83S323.52,377.84,326.38,376.56Z" fill="#4aaaf1"/>
        <rect id="Rectángulo_34712" data-name="Rectángulo 34712" width="27.99" height="38.77" rx="13.99" transform="translate(367.55 434.31) rotate(180)" fill="#4dd0e1"/>
        <path id="Trazado_120093" data-name="Trazado 120093" d="M344.52,443.31a12.82,12.82,0,0,0,10-4.12c5.59-6.18,4.59-17,4.54-17.49a1.56,1.56,0,1,0-3.1.3c0,.13.91,10-3.76,15.11a9.69,9.69,0,0,1-7.63,3.09,1.56,1.56,0,1,0,0,3.11Z" fill="#4dd0e1"/>
        <rect id="Rectángulo_34713" data-name="Rectángulo 34713" width="16.21" height="1.77" rx="0.88" transform="translate(316.92 361.92) rotate(180)" fill="#dfe1e8"/>
        <rect id="Rectángulo_34714" data-name="Rectángulo 34714" width="16.21" height="1.77" rx="0.88" transform="translate(316.92 365.71) rotate(180)" fill="#dfe1e8"/>
        <rect id="Rectángulo_34715" data-name="Rectángulo 34715" width="16.21" height="19.97" rx="6.6" transform="translate(316.92 388.26) rotate(180)" fill="#dfe1e8"/>
        <rect id="Rectángulo_34716" data-name="Rectángulo 34716" width="28.87" height="28.11" rx="10.45" transform="translate(297.44 388.26) rotate(180)" fill="#dfe1e8"/>
      </g>
      <g id="Grupo_80471" data-name="Grupo 80471">
        <rect id="Rectángulo_34717" data-name="Rectángulo 34717" width="8.29" height="25.17" transform="translate(342.95 160.58)" fill="#609ae8"/>
        <rect id="Rectángulo_34718" data-name="Rectángulo 34718" width="71.55" height="50.47" rx="3.6" transform="translate(311.32 122.23)" fill="#9cc7ff"/>
        <rect id="Rectángulo_34719" data-name="Rectángulo 34719" width="65.95" height="39.69" transform="translate(314.12 125.11)" fill="#fff"/>
        <rect id="Rectángulo_34720" data-name="Rectángulo 34720" width="37.28" height="1.9" transform="translate(365.73 186.7) rotate(180)" fill="#9cc7ff"/>
        <rect id="Rectángulo_34721" data-name="Rectángulo 34721" width="21.2" height="24.5" transform="translate(376.57 161.66) rotate(180)" fill="#d7d7e6"/>
        <rect id="Rectángulo_34722" data-name="Rectángulo 34722" width="21.84" height="3.05" transform="translate(352.09 140.21) rotate(180)" fill="#d7d7e6"/>
        <rect id="Rectángulo_34723" data-name="Rectángulo 34723" width="21.84" height="3.05" transform="translate(352.09 146.48) rotate(180)" fill="#d7d7e6"/>
        <rect id="Rectángulo_34724" data-name="Rectángulo 34724" width="21.84" height="12.6" transform="translate(352.09 161.65) rotate(180)" fill="#d7d7e6"/>
        <rect id="Rectángulo_34725" data-name="Rectángulo 34725" width="9.27" height="25.2" transform="translate(327.17 161.65) rotate(180)" fill="#d7d7e6"/>
        <rect id="Rectángulo_34726" data-name="Rectángulo 34726" width="58.66" height="6.29" transform="translate(376.78 134.46) rotate(180)" fill="#d7d7e6"/>
      </g>
      <g id="Grupo_80472" data-name="Grupo 80472">
        <rect id="Rectángulo_34727" data-name="Rectángulo 34727" width="36.33" height="51.36" rx="2.79" transform="translate(174.86 171.27) rotate(180)" fill="#9cc7ff"/>
        <rect id="Rectángulo_34728" data-name="Rectángulo 34728" width="32.31" height="42.15" transform="translate(172.85 164.44) rotate(180)" fill="#fff"/>
        <rect id="Rectángulo_34729" data-name="Rectángulo 34729" width="28.12" height="5.61" transform="translate(170.83 130.93) rotate(180)" fill="#d7d7e6"/>
        <rect id="Rectángulo_34730" data-name="Rectángulo 34730" width="11.57" height="27.5" transform="translate(170.83 160.6) rotate(180)" fill="#d7d7e6"/>
        <rect id="Rectángulo_34731" data-name="Rectángulo 34731" width="14.4" height="3.18" transform="translate(157.11 136.29) rotate(180)" fill="#d7d7e6"/>
        <rect id="Rectángulo_34732" data-name="Rectángulo 34732" width="14.4" height="3.18" transform="translate(157.11 141.8) rotate(180)" fill="#d7d7e6"/>
        <rect id="Rectángulo_34733" data-name="Rectángulo 34733" width="14.4" height="3.19" transform="translate(157.11 147.3) rotate(180)" fill="#d7d7e6"/>
        <rect id="Rectángulo_34734" data-name="Rectángulo 34734" width="14.4" height="10.98" transform="translate(157.11 160.61) rotate(180)" fill="#d7d7e6"/>
      </g>
      <g id="Grupo_80473" data-name="Grupo 80473">
        <path id="Trazado_120094" data-name="Trazado 120094" d="M19.59,177H76.22v37a1.47,1.47,0,0,1-1.47,1.47H21.06A1.47,1.47,0,0,1,19.59,214Z" transform="translate(95.81 392.4) rotate(180)" fill="#609ae8"/>
        <rect id="Rectángulo_34735" data-name="Rectángulo 34735" width="53.47" height="34.36" transform="translate(74.64 213.38) rotate(180)" fill="#fff"/>
        <path id="Trazado_120095" data-name="Trazado 120095" d="M19.68,215.43H76.13A2.83,2.83,0,0,1,79,218.25H16.86a2.83,2.83,0,0,1,2.82-2.82Z" transform="translate(95.81 433.68) rotate(180)" fill="#9cc7ff"/>
        <rect id="Rectángulo_34736" data-name="Rectángulo 34736" width="48.94" height="4.78" transform="translate(72.34 186.29) rotate(180)" fill="#d7d7e6"/>
        <rect id="Rectángulo_34737" data-name="Rectángulo 34737" width="16.78" height="21.89" transform="translate(72.35 210.89) rotate(180)" fill="#d7d7e6"/>
        <rect id="Rectángulo_34738" data-name="Rectángulo 34738" width="16.78" height="21.89" transform="translate(53.42 210.89) rotate(180)" fill="#d7d7e6"/>
        <rect id="Rectángulo_34739" data-name="Rectángulo 34739" width="10.23" height="3.13" transform="translate(33.64 192.12) rotate(180)" fill="#d7d7e6"/>
        <rect id="Rectángulo_34740" data-name="Rectángulo 34740" width="10.23" height="3.13" transform="translate(33.64 196.95) rotate(180)" fill="#d7d7e6"/>
        <rect id="Rectángulo_34741" data-name="Rectángulo 34741" width="10.23" height="12.22" transform="translate(33.64 210.89) rotate(180)" fill="#d7d7e6"/>
      </g>
      <g id="Grupo_80474" data-name="Grupo 80474">
        <rect id="Rectángulo_34742" data-name="Rectángulo 34742" width="42.77" height="23.32" rx="2.71" transform="translate(324.798 316.873) rotate(-89.76)" fill="#9cc7ff"/>
        <rect id="Rectángulo_34743" data-name="Rectángulo 34743" width="33.3" height="19.36" rx="2.54" transform="translate(326.808 310.534) rotate(-89.76)" fill="#fff"/>
        <path id="Trazado_120096" data-name="Trazado 120096" d="M334.17,275.54h4.94a.37.37,0,0,1,.36.37h0a.37.37,0,0,1-.36.37h-4.94a.36.36,0,0,1-.37-.36h0a.38.38,0,0,1,.37-.38Z" fill="#787878"/>
        <path id="Trazado_120097" data-name="Trazado 120097" d="M334.9,313.48a1.58,1.58,0,1,0,.466-1.121,1.58,1.58,0,0,0-.466,1.121Z" fill="#787878"/>
        <rect id="Rectángulo_34744" data-name="Rectángulo 34744" width="14.84" height="5.98" transform="translate(344.04 285.33) rotate(180)" fill="#d7d7e6"/>
        <rect id="Rectángulo_34745" data-name="Rectángulo 34745" width="14.84" height="2.49" transform="translate(344.04 289.36) rotate(180)" fill="#d7d7e6"/>
        <rect id="Rectángulo_34746" data-name="Rectángulo 34746" width="14.84" height="2.49" transform="translate(344.04 293.4) rotate(180)" fill="#d7d7e6"/>
        <rect id="Rectángulo_34747" data-name="Rectángulo 34747" width="14.84" height="13.28" transform="translate(344.04 308.24) rotate(180)" fill="#d7d7e6"/>
      </g>
      <g id="Grupo_80476" data-name="Grupo 80476">
        <path id="Trazado_120098" data-name="Trazado 120098" d="M410.75,351.34s-.55-2.09,0-3a9.27,9.27,0,0,0,1-2.83c.12-.62,1.18-2.48.39-2.53s-1.89,3-2.24,3.63-1.34-2.07-1.93-2.37-5.31,2.15-4.41,3.89,3.13,2.84,3.22,3.19a10.569,10.569,0,0,0,.6,1.29Z" fill="#eea886"/>
        <path id="Trazado_120099" data-name="Trazado 120099" d="M408.33,344.59s-3.14-5.08-3.67-5.21-.82.1-.55.59,2.88,5,2.88,5-4.85-5.25-5.24-5.45-.83.28-.71.56,4.58,5.8,4.58,5.8-4.54-4.9-4.94-5a.524.524,0,0,0-.51.82l4.23,5.3s-3.57-3.33-4-3.19-.77.41.18,1.24,2.95,3,2.95,3Z" fill="#eea886"/>
        <rect id="Rectángulo_34748" data-name="Rectángulo 34748" width="142.87" height="30.96" rx="15.48" transform="translate(350.62 317.94)" opacity="0.68" fill="url(#linear-gradient)"/>
        <g id="Grupo_80475" data-name="Grupo 80475">
          <rect id="Rectángulo_34749" data-name="Rectángulo 34749" width="23.13" height="2.37" transform="translate(358.27 327.44)" fill="#e0e0e0"/>
          <rect id="Rectángulo_34750" data-name="Rectángulo 34750" width="16.42" height="2.37" transform="translate(385.9 327.44)" fill="#e0e0e0"/>
          <rect id="Rectángulo_34751" data-name="Rectángulo 34751" width="15.34" height="2.37" transform="translate(385.9 336.36)" fill="#e0e0e0"/>
          <rect id="Rectángulo_34752" data-name="Rectángulo 34752" width="16.42" height="2.37" transform="translate(468.17 327.44)" fill="#78c2ff"/>
          <rect id="Rectángulo_34753" data-name="Rectángulo 34753" width="20.92" height="2.37" transform="translate(406.75 327.44)" fill="#35afea"/>
          <rect id="Rectángulo_34754" data-name="Rectángulo 34754" width="20.92" height="2.37" transform="translate(443.15 327.44)" fill="#ffc055"/>
          <rect id="Rectángulo_34755" data-name="Rectángulo 34755" width="7.66" height="2.37" transform="translate(431.54 327.44)" fill="#e0e0e0"/>
          <rect id="Rectángulo_34756" data-name="Rectángulo 34756" width="11.98" height="2.37" transform="translate(358.27 336.36)" fill="#78c2ff"/>
          <rect id="Rectángulo_34757" data-name="Rectángulo 34757" width="3.87" height="2.37" transform="translate(373.19 336.36)" fill="#35afea"/>
          <rect id="Rectángulo_34758" data-name="Rectángulo 34758" width="31.98" height="2.37" transform="translate(452.61 336.36)" fill="#e0e0e0"/>
          <rect id="Rectángulo_34759" data-name="Rectángulo 34759" width="3.95" height="2.37" transform="translate(379.9 336.36)" fill="#ffc455"/>
          <rect id="Rectángulo_34760" data-name="Rectángulo 34760" width="10.46" height="2.37" transform="translate(439.2 336.36)" fill="#35afea"/>
          <rect id="Rectángulo_34761" data-name="Rectángulo 34761" width="22.26" height="2.37" transform="translate(414.17 336.36)" fill="#78c2ff"/>
          <rect id="Rectángulo_34762" data-name="Rectángulo 34762" width="7.66" height="2.37" transform="translate(403.35 336.36)" fill="#e0e0e0"/>
        </g>
        <path id="Trazado_120100" data-name="Trazado 120100" d="M407.05,456.53s-3,3-5.61,3.36-5.61,1.3-6,3.26,7.7,4,10.87,2.5c4.73-2.28,6.1-1.38,6.82-2.78s.59-6.23.7-6.7S407.05,456.53,407.05,456.53Z" fill="#202338"/>
        <path id="Trazado_120101" data-name="Trazado 120101" d="M460.41,448s-.88,4.15-2.8,5.74-3.85,3.95-3.13,5.83,7.58,1.65,10-3.31c1.55-3.13,3.35-3.67,3.21-5.25s-2.53-4.95-2.68-5.41S460.41,448,460.41,448Z" fill="#202338"/>
        <path id="Trazado_120102" data-name="Trazado 120102" d="M427.46,388.54s-10.4,21.56-12.76,27a78.589,78.589,0,0,0-4.7,17.75c-.38,4.47-4.66,22.67-4.93,24s9.07.53,9.07.53,8.14-31,10.29-35.41c1.44-2.93,12.24-22.46,13.2-21.25s6.76,15.8,7.47,19.3,14,29.54,14,29.54,6.21-.46,7.44-2.82c0,0-9.93-26.39-11-31.19-.56-2.44-2.61-17.83-5.2-29.64C449,380.26,427.46,388.54,427.46,388.54Z" fill="#1c4054"/>
        <path id="Trazado_120103" data-name="Trazado 120103" d="M453.83,355.71s-3.58,10.77-3.5,13.33S448.35,356.51,453.83,355.71Z" fill="#dce6fa"/>
        <path id="Trazado_120104" data-name="Trazado 120104" d="M428.42,359.69a25.855,25.855,0,0,1-1.28,3.28h0a21.273,21.273,0,0,1-1.09,2c-.07.12-.14.24-.22.35a12.424,12.424,0,0,1-.94,1.31A5.79,5.79,0,0,1,421,369c-3.05.22-14-16.57-14-16.57l5.25-2.39s6.95,10,8,9.49,2.2-4.63,2.2-4.63c1.27-.7,3.22,1.25,4.54,2.86l.25.31A16.043,16.043,0,0,1,428.42,359.69Z" fill="#dce6fa"/>
        <path id="Trazado_120105" data-name="Trazado 120105" d="M450.93,388.06C445,393.39,426,391.62,426,391.62c.28-.66,2.2-20.47,1.53-24.95s-.29-8.28-.89-8.45-4.68-1.6-4.68-1.6,2.17-6.91,3.08-8.41,7.42-3.69,7.42-3.69a25.74,25.74,0,0,1,10.41-1.17c9,1.06,10,3.69,10,3.69l-2.08,13.31a.789.789,0,0,0,0,.14c0,.3,0,1-.07,2.07-.15,4.28-.47,13.44-.52,15.62a93.685,93.685,0,0,0,.73,9.88Z" fill="#dce6fa"/>
        <path id="Trazado_120106" data-name="Trazado 120106" d="M444.33,343.59a14.283,14.283,0,0,1-1.15,1.77c-2.8,3.61-6,3.48-6,3.48a4.29,4.29,0,0,1-3.59-2.61,6.569,6.569,0,0,1-.58-1.9l1.18-.42a5.311,5.311,0,0,0,.17-1.2c0-.25,0-.52,0-.8v-.98a15.865,15.865,0,0,0-.11-1.84s8.48-4.59,7.79-1.35a7.61,7.61,0,0,0-.05,3.49,2.66,2.66,0,0,0,1.09,1.78C443.86,343.4,444.33,343.59,444.33,343.59Z" fill="#eea987"/>
        <path id="Trazado_120107" data-name="Trazado 120107" d="M420,350.12a1.64,1.64,0,0,1-.52-.91c-.09-.87.77-2-.22-2.77s-4.55,1.62-4.91,2.36.61,2.19,2.9,3.58S420,350.12,420,350.12Z" fill="#eea886"/>
        <path id="Trazado_120108" data-name="Trazado 120108" d="M419.51,346.76a32.8,32.8,0,0,0-2-3.41c-1-1.52-2.45-3.14-2.86-2.86-.57.38.72,1.52,1.63,3.1s.4,1.31.4,1.31.12,0-1.11-1.37-2.94-3.12-3.32-2.78-.28.21.1.84c-.3-.31-.44-.27-.59-.16-.79.59.79,3.11,1.41,4.11-.48-.76-.93-1.27-1.18-.62s2.12,4.21,2.85,5.54S419.51,346.76,419.51,346.76Z" fill="#eea886"/>
        <path id="Trazado_120109" data-name="Trazado 120109" d="M453.63,357.26c3.85-4.68-.91-10.48-.91-10.48-2.81-2.4-9,7.66-9.74,8.65s-6.67,6.24-8.31,8c-.84.91-4.37-3-6-4.5-1-.93-8.54-9.8-8.54-9.8l-4.77,3.44c.44-.32,15.42,19.31,18.21,19.46C433.59,372.05,444.35,368.57,453.63,357.26Z" fill="#dce6fa"/>
        <path id="Trazado_120110" data-name="Trazado 120110" d="M426.05,365c-.07.12-.14.24-.22.35a12.431,12.431,0,0,1-.94,1.31,76.956,76.956,0,0,1-3.5-7.13Z" fill="#89909c"/>
        <path id="Trazado_120111" data-name="Trazado 120111" d="M449.41,361.82a74.932,74.932,0,0,1-7.44,5.92c-2.61,1.6-7,3.78-7.47,4C434.5,371.71,446.07,369.45,449.41,361.82Z" fill="#89909c"/>
        <path id="Trazado_120112" data-name="Trazado 120112" d="M429.72,327.24s-1.84,3.42-.93,3.95c.75.44-.89,3.79-1.1,4.34s1.37.94,1.7,1.3,1.33,4.69,2.64,4.82,7.17-1.91,8.76-3.57,2.91-9.17,1.84-12.33S433,321.28,429.72,327.24Z" fill="#eea886"/>
        <path id="Trazado_120113" data-name="Trazado 120113" d="M429.35,328a5.24,5.24,0,0,1,1.54-6.42c3.41-2.74,9.71,2.07,10.42,2.25s4.74.46,2.7,7.53c-1.74,6.07-2,6.33-2,6.33s-1.3-3.52-2-4.06c-1.15-.83-3.68-.63-3.68-.63s1.2-3.2-.68-3.65S431.26,327.28,429.35,328Z" fill="#252e3b"/>
        <path id="Trazado_120114" data-name="Trazado 120114" d="M438.31,331.15c.16-.44.7-2.33,2.32-1.22s-1,4.66-1.29,4.71S436.91,334.84,438.31,331.15Z" fill="#eea886"/>
        <path id="Trazado_120115" data-name="Trazado 120115" d="M440.62,338.24s-1.38,2.72-6.3,4.47v-1.5a21.2,21.2,0,0,0,6.3-2.97Z" fill="#a77860"/>
      </g>
      <g id="Grupo_80477" data-name="Grupo 80477">
        <path id="Trazado_120116" data-name="Trazado 120116" d="M98.54,383s2,.88,2.9.48a8.52,8.52,0,0,1,2.82-.47c.61,0,2.51-.68,2.48.06s-3.09,1.26-3.71,1.49,1.86,1.61,2.1,2.22-2.59,4.61-4.18,3.47-2.44-3.42-2.77-3.56A12.627,12.627,0,0,1,97,385.9Z" fill="#eea886"/>
        <path id="Trazado_120117" data-name="Trazado 120117" d="M104.83,386.42s4.6,3.82,4.67,4.34-.17.75-.61.41-4.57-3.55-4.57-3.55,4.61,5.44,4.77,5.85c.09.24-.35.73-.61.57s-5.17-5.29-5.17-5.29,4.3,5.1,4.33,5.48a.51.51,0,0,1-.85.34l-4.62-4.86s2.87,3.92,2.7,4.26-.48.65-1.18-.38S101,390.3,101,390.3Z" fill="#eea886"/>
        <path id="Trazado_120118" data-name="Trazado 120118" d="M66.81,465.82s-.18,6.26.71,6.63,4.28-1.8,5.77-3.95-1.87-7.16-2.42-9.92c-.23-1.16-2.86-3.24-4.14-2.64a6.33,6.33,0,0,0-2.22,2.12S67.77,460.3,66.81,465.82Z" fill="#ebebeb"/>
        <path id="Trazado_120119" data-name="Trazado 120119" d="M64.51,458.06a34.6,34.6,0,0,1,1.68,3.8c.57,1.65.68,6.24,1,6.56s3.19-1.11,3.57-2.83-.77-5.14-1.87-6.95a11.14,11.14,0,0,0-2.2-2.7A2.86,2.86,0,0,0,64.51,458.06Z" fill="#de9673"/>
        <path id="Trazado_120120" data-name="Trazado 120120" d="M70.87,458.58l3.04,4.44-.58.4-2.35-3.43Z" fill="#ebebeb"/>
        <path id="Trazado_120121" data-name="Trazado 120121" d="M53.58,417.86s1.73,9.21,1.73,11.41a20.28,20.28,0,0,0,2,8.48c1.4,2.67,7.55,20.91,8.09,23s1,4.13,1,4.13,3.07-1.4,3.07-3.4S66.79,443,66.32,439.69s-4.34-20-4.34-20Z" fill="#de9673"/>
        <path id="Trazado_120122" data-name="Trazado 120122" d="M63.39,417.26s-.6,7.68-.54,9.68,1,6.54,1,7.74,0,26.09-1,29.1,2.8.93,2.8.93,6.6-16.37,6.6-23.2-.8-10.23-.33-14.57,3.4-10.08,3.4-10.08Z" fill="#eea886"/>
        <path id="Trazado_120123" data-name="Trazado 120123" d="M62.3,316.73s-6.14,6.19-4,14.15,5.45,8,9.16,4.58,5.88-7,6.37-11S67.91,311.21,62.3,316.73Z" fill="#eea886"/>
        <path id="Trazado_120124" data-name="Trazado 120124" d="M61.1,343.3a37.058,37.058,0,0,0,1.55-4.43q.16-.63.3-1.26a8,8,0,0,0,.11-3.92c-1-2.9,6.14-.89,6.14-.89s-1.38,7.65,0,10.23S61.1,343.3,61.1,343.3Z" fill="#eea886"/>
        <path id="Trazado_120125" data-name="Trazado 120125" d="M73.38,380.32s4.42,6.51,5.36,12.31-.83,14.45-1.55,17.62c-.64,2.78-1.59,11.42-1.66,12.35,0,0-13.88,3.6-23,.73,0,0-1.4-14.26-1.94-19.53s3.17-23.08,3.17-23.08Z" fill="#20477a"/>
        <path id="Trazado_120126" data-name="Trazado 120126" d="M99.78,383.34l-2.49,2.82s-14.88-12.08-15.55-13.68S76,361.86,75.83,360.92c0,0-1,2.5-1.77,4.93-.33,1-.76,2.85-1,3.65a23.66,23.66,0,0,0,.28,10.82s-12.06,4.49-19.58.4c0,0,.8-6.54-.4-10.77s-7.47-19-7.47-19,3.33-6.18,6.8-7.38,7.44-2.1,7.44-2.1h8.22s5.42,1.41,6.63,1.79c2.17.69,4.18,3.44,4.58,5.9s6.08,19.34,6.75,19.81S99.78,383.34,99.78,383.34Z" fill="#dce6fa"/>
        <path id="Trazado_120127" data-name="Trazado 120127" d="M51,375.32a59.852,59.852,0,0,0,6.17,0c.83-.21,6.37-2.61,6.7-5S51,372.46,51,372.46Z" fill="#eea886"/>
        <path id="Trazado_120128" data-name="Trazado 120128" d="M59.73,471.35s-4.13,4.81-3.67,5.68,4.52,1.3,7.06.56,3.09-6.83,4.42-9.36c.55-1.06-.19-4.37-1.58-4.72a6.38,6.38,0,0,0-3.1.27S64,467.61,59.73,471.35Z" fill="#fff"/>
        <path id="Trazado_120129" data-name="Trazado 120129" d="M62.86,463.78a36.328,36.328,0,0,1-1.09,4.05c-.61,1.67-3.45,5.35-3.37,5.83s3.22,1.16,4.62,0,2.67-4.54,2.95-6.66a15.669,15.669,0,0,0,.14-3.48S64.2,462.58,62.86,463.78Z" fill="#eea886"/>
        <path id="Trazado_120130" data-name="Trazado 120130" d="M67.53,468.23l-.43,5.44-.7-.05.33-4.21Z" fill="#fff"/>
        <path id="Trazado_120131" data-name="Trazado 120131" d="M67.6,367.9l-21.67-2.53,9.79,7.96Z" fill="#4c5285"/>
        <path id="Trazado_120132" data-name="Trazado 120132" d="M51.68,372.26a16.66,16.66,0,0,0,0,3.34s-13.36-1.33-14.61-3.2a8.12,8.12,0,0,1-1.2-4.14Z" fill="#eddad3"/>
        <path id="Trazado_120133" data-name="Trazado 120133" d="M64.3,321.18s2.94,5.34,4.76,7.25,1.61,3.44,1.61,3.44,7.12-8.78,2-14.07-11.61-3.16-13.52,1.47S58,329.55,58,329.55,58,324.12,64.3,321.18Z" fill="#fccca2"/>
        <path id="Trazado_120134" data-name="Trazado 120134" d="M66.24,315.59s-.71-3.91,5.42-5.46,8.88,5.51,8.13,9.81-6,15.24-3.15,16.66,4-1.64,4-1.64-.89,5.37-4.84,4.13-3.42-10-2.83-13.46S66.24,315.59,66.24,315.59Z" fill="#fccca2"/>
        <path id="Trazado_120135" data-name="Trazado 120135" d="M60.17,341.51a9.48,9.48,0,0,0,.5-2s7.74-.48,9.73-.18c0,0,.16,2.19.14,2.69S61.56,344,60.17,341.51Z" fill="#dce6fa"/>
        <path id="Trazado_120136" data-name="Trazado 120136" d="M55.72,373.33l11.88-4.05V367.9l-12.29,3.94Z" fill="#323657"/>
        <path id="Trazado_120137" data-name="Trazado 120137" d="M55.72,373.33,49.4,349.84,25.37,347.3l6.58,21.63Z" fill="#323657"/>
        <path id="Trazado_120138" data-name="Trazado 120138" d="M68.22,334.69a7.52,7.52,0,0,1-5.57,4.18q.16-.63.3-1.26S65.14,338.05,68.22,334.69Z" fill="#a77860"/>
        <path id="Trazado_120139" data-name="Trazado 120139" d="M75.83,360.92s-1,2.5-1.77,4.93a43.161,43.161,0,0,1,.28-12.26A25.55,25.55,0,0,0,75.83,360.92Z" fill="#cfbeb8"/>
        <path id="Trazado_120140" data-name="Trazado 120140" d="M67.2,314.77s4.35.84,6.52,4.38c0,0-.44-3.21-2.61-4.13a5.52,5.52,0,0,0-3.91-.25Z" fill="#eddad3"/>
      </g>
      <g id="Grupo_80478" data-name="Grupo 80478">
        <path id="Trazado_120141" data-name="Trazado 120141" d="M41.04,270.51l-12.6-7.28v4.8H9.7v4.96H28.44v4.79Z" fill="#48b0f0"/>
        <path id="Trazado_120142" data-name="Trazado 120142" d="M9.7,254.55l12.6,7.27v-4.79H41.04v-4.96H22.3v-4.8Z" fill="#48b0f0"/>
      </g>
      <g id="Grupo_80479" data-name="Grupo 80479">
        <path id="Trazado_120143" data-name="Trazado 120143" d="M225.19,166.82l-9.44-5.45v3.59H201.7v3.72h14.05v3.59Z" fill="#48b0f0"/>
        <path id="Trazado_120144" data-name="Trazado 120144" d="M201.7,154.86l9.45,5.45v-3.59h14.04V153H211.15v-3.59Z" fill="#48b0f0"/>
      </g>
      <g id="Grupo_80480" data-name="Grupo 80480">
        <path id="Trazado_120145" data-name="Trazado 120145" d="M352.78,253.37a5.74,5.74,0,0,1-3.32-1.33,4.31,4.31,0,0,1-1.58-3.29,25.91,25.91,0,0,0-1.56-6.7,11.53,11.53,0,1,1,13.83.41,24.9,24.9,0,0,0-1.54,6.37c0,2.54-2.44,4.58-5.39,4.56a3.166,3.166,0,0,1-.44-.02Zm1.53-30.9a10.59,10.59,0,0,0-7.3,18.92l.1.08.05.13a27.35,27.35,0,0,1,1.67,7.11h0a3.31,3.31,0,0,0,1.25,2.58,4.85,4.85,0,0,0,3.14,1.13c2.44,0,4.43-1.62,4.45-3.65h0a26.132,26.132,0,0,1,1.64-6.78l.05-.14.13-.09a10.58,10.58,0,0,0-5.18-19.29Z" fill="#4aaaf1"/>
        <path id="Trazado_120146" data-name="Trazado 120146" d="M350.64,249.44l-1.51-12.57,2.62,2.17,1.63-1.8,1.4,1.69,2.45-2.08-1.49,12.59-.94-.11,1.21-10.21-1.35,1.14-1.31-1.58-1.5,1.66-1.5-1.24,1.23,10.23Z" fill="#4aaaf1"/>
        <rect id="Rectángulo_34763" data-name="Rectángulo 34763" width="8.18" height="3.3" transform="translate(349.141 252.19) rotate(0.38)" fill="#4aaaf1"/>
        <rect id="Rectángulo_34764" data-name="Rectángulo 34764" width="10.81" height="5.31" transform="matrix(1, 0.007, -0.007, 1, 347.808, 248.864)" fill="#4aaaf1"/>
      </g>
    </g>
    <g id="Grupo_80482" data-name="Grupo 80482">
      <path id="Trazado_120147" data-name="Trazado 120147" d="M127.12,314s-5.58,2.73-4.2,10.17,2,8.44.44,11.34-3.36,15.31-2,17.65,17.21-10.32,19.41-20.95-1.39-15.37-2.66-17.13S132.06,311.53,127.12,314Z" fill="#0e2d3d"/>
      <path id="Trazado_120148" data-name="Trazado 120148" d="M125.58,340.88a7.81,7.81,0,0,0-4.45,2.93c-1.11,1.64-1.2,5.27-1.36,6s-2.28,8.43-2.28,8.43l5.93,4Z" fill="#285173"/>
      <path id="Trazado_120149" data-name="Trazado 120149" d="M103.68,473.32s-3.86,5.2-3.33,6,4.59.94,7.07,0,2.53-7.05,3.65-9.67c.47-1.1-.53-4.34-1.94-4.57a5.94,5.94,0,0,0-2.95.45S107.65,469.26,103.68,473.32Z" fill="#1d3b54"/>
      <path id="Trazado_120150" data-name="Trazado 120150" d="M106.16,465.52a24,24,0,0,0-1.11,4.34c-.25,1.75-2.76,5.48-2.64,5.95s3.3.9,4.6-.32,2.13-4.75,2.41-6.86a17.532,17.532,0,0,1,.6-2.94S107.4,464.23,106.16,465.52Z" fill="#eea886"/>
      <path id="Trazado_120151" data-name="Trazado 120151" d="M137.34,473.4s-3.73,5.12-3.2,6,4.6.94,7.08,0,2.53-7.05,3.65-9.67c.47-1.1-.53-4.34-1.94-4.57a6.28,6.28,0,0,0-3.07.51S141.3,469.34,137.34,473.4Z" fill="#1d3b54"/>
      <path id="Trazado_120152" data-name="Trazado 120152" d="M139.86,465.62a33.455,33.455,0,0,1-.77,4.12c-.47,1.71-3,5.6-2.88,6.07s3.3.9,4.59-.32,2.3-4.73,2.42-6.86a11.36,11.36,0,0,0-.29-3.52,2.89,2.89,0,0,0-3.07.51Z" fill="#eea886"/>
      <path id="Trazado_120153" data-name="Trazado 120153" d="M121.23,380.86s-3.31,15.44-4.08,19.33S114.26,422.9,114,426.1s-3.46,15.26-3.31,16.4-4.79,24.11-4.79,24.11a3,3,0,0,0,3.47.12c.91-.64,10.85-21.5,10.85-27.21,0-7.9,5.84-18.22,6.6-20,7-16.42,5.62-21.44,6.53-22.51s1,.66,1.53,3,1.68,22.79,2.36,25.38.16,11.35.54,15.77,2.05,24.42,2.05,24.42,1.3,2,3.11.05c.4-.43,3.14-22.27,3.22-27.53s.16-12.51.3-14.79c1.42-21.79,4.89-24.9-.58-40.32C135.68,354.16,121.23,380.86,121.23,380.86Z" fill="#eea886"/>
      <path id="Trazado_120154" data-name="Trazado 120154" d="M143.52,376.55s9.45,13.23,5.38,41.37c0,0-22.42,3.05-34.43-3.52,0,0,5-29,6.76-33.54S143.52,376.55,143.52,376.55Z" fill="#1d3b54"/>
      <path id="Trazado_120155" data-name="Trazado 120155" d="M111.18,469.22v5.45h-.71v-4.21Z" fill="#1d3b54"/>
      <path id="Trazado_120156" data-name="Trazado 120156" d="M144.97,469.22v5.45h-.7v-4.21Z" fill="#1d3b54"/>
      <path id="Trazado_120157" data-name="Trazado 120157" d="M130.83,339a36.256,36.256,0,0,1-4.69,1.88c-1.21.24-5.9,6.34-6.72,8.56s0,5.57,1.69,9.48.1,5.23.87,9.15a92.2,92.2,0,0,1,1.31,14.39c-.15,2.17,19.56,2.58,24.06-1.38,0,0-4.52-6.77-5.1-7.74s-.1-6.24.43-7.6,4.08-12.87,4.08-12.87S149.65,344,147,342c-2.28-1.76-8.47-2.39-9.59-2.78A19.159,19.159,0,0,0,130.83,339Z" fill="#eddad3"/>
      <path id="Trazado_120158" data-name="Trazado 120158" d="M129.72,346.72l-2.12-2.48,1.84-6.52a42.85,42.85,0,0,1,.28,9Z" fill="#d6c5be"/>
      <path id="Trazado_120159" data-name="Trazado 120159" d="M129.17,334.94s.09.87.21,2.08c.05.53.1,1.13.15,1.75a39.78,39.78,0,0,1,.19,4.63s3.62,3.63,7.73-4.23a10.77,10.77,0,0,1-.42-7.65C138.33,327.1,129.17,334.94,129.17,334.94Z" fill="#eea886"/>
      <path id="Trazado_120160" data-name="Trazado 120160" d="M129.72,343.4v3.32l4.16-3.11Z" fill="#eea886"/>
      <path id="Trazado_120161" data-name="Trazado 120161" d="M129.72,346.72l1.73-2.14,5.82-5.81,1.89,1.82Z" fill="#d6c5be"/>
      <path id="Trazado_120162" data-name="Trazado 120162" d="M138.08,339.33S133.19,346.75,133,350s1.82,27.69,3.46,35.54,13.5-.88,13.5-.88-8-12.91-4.91-23.24S149.18,347,149.18,347s-1.05-5.75-4.78-6.56C141.13,339.7,138.08,339.33,138.08,339.33Z" fill="#24669e"/>
      <path id="Trazado_120163" data-name="Trazado 120163" d="M119.09,350.39s-.88,3.12,2.56,10c0,0-.06,8.83-.15,11.58s-2,12.67-2,12.67l4.69,2.5a1,1,0,0,0,1.44-.94c-1-7.93-4.09-38,2.67-46.12l-2.72.8S120.72,344.84,119.09,350.39Z" fill="#24669e"/>
      <path id="Trazado_120164" data-name="Trazado 120164" d="M127.6,344.24l-2.66.74,4.5-7.26Z" fill="#fae6de"/>
      <path id="Trazado_120165" data-name="Trazado 120165" d="M131.45,344.58l2.43,3.19,5-8.33-1.61-.67Z" fill="#fae6de"/>
      <rect id="Rectángulo_34765" data-name="Rectángulo 34765" width="10.43" height="0.88" transform="matrix(0.621, -0.784, 0.784, 0.621, 120.76, 365.11)" fill="#eb4747"/>
      <path id="Trazado_120166" data-name="Trazado 120166" d="M128.32,364.74a1.91,1.91,0,0,1-1-.29c-.7-.53-1-1.84-2.2-1.74s-1.81,4-1.5,4.71,2,1.11,4.57.6S128.32,364.74,128.32,364.74Z" fill="#eea886"/>
      <path id="Trazado_120167" data-name="Trazado 120167" d="M125.53,362.74a39,39,0,0,0-3.84-1.06c-1.8-.39-4-.51-4.16-.2s1.75.65,3.52,1.15,1.24.63,1.24.63.11-.05-1.75-.23-4.05-.18-4.26.22c-.1.19,0,.32.69.51-.43,0-.49.09-.51.26-.08.9,2.83,1.62,4,1.9-.89-.21-1.57-.28-1.24.33s4.52,1.52,6,2S125.53,362.74,125.53,362.74Z" fill="#eea886"/>
      <path id="Trazado_120168" data-name="Trazado 120168" d="M143.71,340.54c1.22-.4,4.82.88,5.43,4.56s.85,7.78,1.42,9.77,2,10.78.79,11.51a13.729,13.729,0,0,1-6.74,1.39c-3.34,0-16.26.58-16.26.58l-.81-4.59s4.91-.25,7.45-.64c2.26-.34,5.4-1.31,9.1-1.71a63.682,63.682,0,0,0-1.35-7C142.17,352.88,138.2,342.32,143.71,340.54Z" fill="#24669e"/>
      <path id="Trazado_120169" data-name="Trazado 120169" d="M120.07,364.11l-.61,1.48,1.3-.93Z" fill="#eea886"/>
      <path id="Trazado_120170" data-name="Trazado 120170" d="M127.19,371.81l-13.02-2.58-9.66-20.66,13.9,1.46Z" fill="url(#linear-gradient-2)"/>
      <path id="Trazado_120171" data-name="Trazado 120171" d="M112.54,365.73a11.339,11.339,0,0,1-1.35-1.59c-.63-.93-2.71-4.47-2.52-4.7s3.28-.29,3.84.21-.55.7-.55.7,1.69.18,1.56.65-1.13.35-1.13.35,1.36.26,1.15.68-.86.41-.86.41,1.21.15,1.06.61-2.06.89-1.8,1.27A9.188,9.188,0,0,1,112.54,365.73Z" fill="#eea886"/>
      <path id="Trazado_120172" data-name="Trazado 120172" d="M127.93,314.86s-8.11,2.55-3.7,16.56,15.48-1.63,14.32-10.16S127.93,314.86,127.93,314.86Z" fill="#eea987"/>
      <path id="Trazado_120173" data-name="Trazado 120173" d="M123.4,323a18.31,18.31,0,0,0,10.78,4.46s2.59,3,2.79,4.23c0,0,6-10.26-1.38-16.41S120.68,320.5,123.4,323Z" fill="#0e2d3d"/>
      <path id="Trazado_120174" data-name="Trazado 120174" d="M134.09,327.76c.06-1,.68-3.33,2.2-2.69s-.09,5.38-1.1,5.09C135.19,330.16,134,330.18,134.09,327.76Z" fill="#eea987"/>
      <path id="Trazado_120175" data-name="Trazado 120175" d="M129.38,337c.05.53.1,1.13.15,1.75h0c4.69-2.31,5.41-5.65,5.43-5.76C131.62,337.33,129.38,337,129.38,337Z" fill="#a77860"/>
    </g>
  </g>
</svg>
