<?xml version="1.0" encoding="utf-8"?>
<!-- Generator: Adobe Illustrator 26.0.1, SVG Export Plug-In . SVG Version: 6.00 Build 0)  -->
<svg version="1.1" id="Capa_1" xmlns="http://www.w3.org/2000/svg" xmlns:xlink="http://www.w3.org/1999/xlink" x="0px" y="0px"
	 viewBox="0 0 100 100" style="enable-background:new 0 0 100 100;" xml:space="preserve">
<style type="text/css">
	.st0{clip-path:url(#SVGID_00000091010917655339800400000003810625697769931680_);}
	.st1{fill:#375A64;}
	.st2{fill:#012739;}
	.st3{fill:#C78976;}
	.st4{fill:#BF654E;}
	.st5{fill:#FFFFFF;}
	.st6{fill:#32C4B4;}
	.st7{fill:#FAFAFA;}
	.st8{opacity:0.3;}
	.st9{fill:#104C82;}
	.st10{fill:#F5F5F5;}
</style>
<g id="Capa_1_00000004505239671828601720000017688934975969519756_">
	<g>
		<defs>
			<rect id="SVGID_1_" width="100" height="100"/>
		</defs>
		<clipPath id="SVGID_00000018238382326422190950000012882429505242259373_">
			<use xlink:href="#SVGID_1_"  style="overflow:visible;"/>
		</clipPath>
		<g style="clip-path:url(#SVGID_00000018238382326422190950000012882429505242259373_);">
			<g>
				<g>
					<path class="st1" d="M39,64.1c-1.1-2.1-2.6-4.1-4.3-5.8c-4.8-4.3-12.9-5.5-19.8-4C9.5,55.5,4.4,58.5,3,62.8
						c-0.5,1.9-0.6,3.9-0.3,5.9c1.3,12.9,7.8,36.4,8,36.9l43.6-0.2C51.6,90.8,46.5,76.9,39,64.1z"/>
					<path class="st2" d="M54.4,105.4c0,0,0-0.1-0.1-0.3l-0.2-1c-0.1-0.4-0.2-1-0.3-1.6s-0.3-1.3-0.5-2.2c-1-4.6-2.3-9.1-3.9-13.5
						c-2.3-6.5-5.1-12.9-8.5-19l-0.7-1.3l-0.7-1.3c-0.5-0.9-1-1.8-1.5-2.6c-1.1-1.8-2.4-3.4-4-4.7c-0.2-0.2-0.4-0.3-0.6-0.5
						l-0.7-0.5c-0.5-0.3-0.9-0.6-1.4-0.8l-0.7-0.4l-0.8-0.3l-0.4-0.2l-0.4-0.1l-0.8-0.3c-2.1-0.6-4.3-1-6.6-1.1
						c-2.2-0.1-4.5,0.1-6.7,0.6c-2.1,0.5-4.2,1.2-6.1,2.2c-0.9,0.5-1.8,1.1-2.6,1.8c-0.8,0.7-1.5,1.4-2.1,2.3
						c-0.1,0.2-0.3,0.4-0.4,0.7L3.4,62l-0.3,0.7c-0.1,0.2-0.2,0.5-0.2,0.7c-0.2,1-0.3,2-0.3,2.9c0,1,0.1,1.9,0.2,2.9
						c0.1,0.9,0.2,1.9,0.4,2.8c0.3,1.8,0.6,3.6,0.9,5.3c0.6,3.4,1.3,6.6,2,9.5c1.3,5.8,2.5,10.4,3.3,13.7c0.4,1.6,0.8,2.8,1,3.7
						l0.3,1c0.1,0.2,0.1,0.3,0.1,0.3l-0.1-0.3l-0.3-1c-0.2-0.8-0.6-2.1-1-3.7C8.5,97.4,7.3,92.7,6,86.9c-0.7-2.9-1.3-6.1-2-9.5
						c-0.3-1.7-0.6-3.5-0.9-5.3c-0.2-0.9-0.2-1.9-0.4-2.8s-0.2-1.9-0.2-2.9c0-1,0-2,0.3-3c0.1-0.2,0.1-0.5,0.2-0.7l0.3-0.7l0.3-0.7
						C3.7,61,3.9,60.8,4,60.6c0.6-0.9,1.3-1.6,2.1-2.3C7,57.6,7.8,57,8.8,56.5c1.9-1.1,4-1.8,6.1-2.3c2.2-0.5,4.4-0.7,6.7-0.6
						c2.2,0.1,4.5,0.4,6.6,1.1L29,55l0.4,0.1l0.4,0.2l0.8,0.3l0.7,0.4c0.5,0.2,0.9,0.5,1.4,0.8c0.2,0.1,0.5,0.3,0.7,0.5
						c0.2,0.1,0.4,0.3,0.7,0.5c1.6,1.3,3,3,4.1,4.8c0.5,0.9,1,1.8,1.5,2.6l0.7,1.3l0.7,1.3c3.3,6.1,6.1,12.5,8.4,19.1
						c1.5,4.4,2.8,9,3.8,13.5c0.2,0.8,0.3,1.5,0.5,2.2s0.2,1.2,0.3,1.6l0.2,1L54.4,105.4z"/>
					<path class="st2" d="M4.8,59.7c0,0,0,0.1,0,0.1v0.4c0,0.3-0.1,0.8-0.1,1.4c-0.1,1.7,0.1,3.4,0.4,5c0.7,4.2,1.6,10.1,3,16.5
						c0.7,3.2,1.4,6.2,2.1,9s1.6,5.2,2.3,7.2s1.4,3.6,1.9,4.7l0.6,1.2l0.1,0.3c0,0,0,0.1,0.1,0.1c-1-2.1-2-4.2-2.8-6.3
						c-0.8-2-1.6-4.4-2.3-7.2s-1.5-5.8-2.2-9C6.6,76.7,5.7,70.8,5,66.6c-0.3-1.7-0.4-3.4-0.3-5.1C4.7,60.9,4.7,60.3,4.8,59.7z"/>
					<path class="st2" d="M10.4,70c-0.3,0.1-0.5,0.2-0.8,0.3c-0.6,0.2-1.2,0.5-1.7,0.9c-0.7,0.6-1.4,1.2-1.9,2
						c0.1-0.3,0.2-0.5,0.4-0.7c0.8-1.1,1.9-1.9,3.2-2.3C9.9,70.1,10.2,70,10.4,70z"/>
					<path class="st2" d="M8.7,72.9c0,0-0.6,0-1.3,0.2s-1.2,0.4-1.2,0.4C6.6,73.2,7,73.1,7.4,73C7.9,72.9,8.3,72.8,8.7,72.9z"/>
					<path class="st2" d="M7.5,87.6c0,0,0-0.1,0-0.2c0.1-0.1,0.2-0.2,0.4-0.3c0.2,0,0.3,0,0.5,0c0.1,0,0.2,0.1,0.2,0.1
						s-0.3-0.1-0.6,0S7.5,87.7,7.5,87.6z"/>
					<path class="st2" d="M8.1,88.9c-0.1,0,0-0.3,0.3-0.5s0.6-0.2,0.6-0.1s-0.2,0.1-0.5,0.3S8.1,88.9,8.1,88.9z"/>
				</g>
				<g>
					<g>
						<path class="st3" d="M64.3,93.6c0,0-1-23.8-1.9-28c-0.9-3.4-2.8-6.3-5.6-8.4l-1.7,41l1.8,1.1l1,0.6c0.5,1.7-0.5,2.2,4.3,3.4
							c0.4,0.1,8,1.3,8,1.3l0.7-7.7L64.3,93.6z"/>
						<g>
							<path class="st3" d="M77.3,104.2c-1.3,0.1-2.6,0.3-3.9,0.7c-1.3,0.4-2.6,0.3-3.8-0.5c-0.6-0.4-1.1-0.8-1.6-1.3h-3.7
								c-1.1-1.3-1.4-3.1-0.8-4.6c0.2-0.5,0.5-1,0.8-1.5c0.4-0.6,1.1-1,1.8-1l5,0.8c0,0,6.9-0.6,8.1-0.1c0,0,1.6,0.9,2,1.3
								c0.5,0.9,0.4,2.1-0.3,2.8c0,0,1,0.8,0.5,1.5l-0.2,0.3c0,0,0.7,0.8,0.3,1.2s-3.2,2.2-4.3,1.8s-0.3-1.3,0.1-1.5"/>
							<path class="st4" d="M80.2,99.3c-0.1,0-0.2,0.1-0.4,0.1l-1,0.4l-0.7,0.2c-0.2,0.1-0.5,0.1-0.8,0.2c-0.3,0.1-0.6,0.3-0.8,0.5
								c-0.2,0.3-0.3,0.7-0.2,1c0.1,0.2,0.2,0.3,0.4,0.4c0.2,0.1,0.3,0.1,0.5,0.1c0.3,0,0.6,0,0.9-0.1c0.5-0.1,1-0.2,1.5-0.4
								c0.4-0.2,0.8-0.3,1-0.4c0.1,0,0.2-0.1,0.3-0.2l-0.4,0.1c-0.2,0.1-0.6,0.2-1,0.4c-0.5,0.2-1,0.3-1.5,0.4
								c-0.3,0.1-0.6,0.1-0.9,0.1c-0.2,0-0.3-0.1-0.4-0.1c-0.1-0.1-0.3-0.2-0.3-0.3c-0.1-0.3,0-0.6,0.2-0.9c0.2-0.2,0.5-0.4,0.8-0.5
								c0.3-0.1,0.5-0.2,0.8-0.2c0.2-0.1,0.5-0.1,0.7-0.2c0.3-0.1,0.7-0.3,1-0.4L80.2,99.3z"/>
							<path class="st4" d="M79.9,97.2c-0.1,0-0.2,0.1-0.4,0.1c-0.2,0.1-0.6,0.2-1,0.4s-0.9,0.3-1.5,0.5c-0.3,0.1-0.6,0.2-0.9,0.4
								C76.1,98.6,76,98.8,76,99c0,0.2,0,0.4,0.1,0.5c0.2,0.3,0.4,0.5,0.8,0.6c0.3,0.1,0.6,0.1,0.9,0c0.5-0.1,1-0.3,1.5-0.5l1-0.4
								c0.1,0,0.2-0.1,0.3-0.2l-0.4,0.1l-1,0.3c-0.5,0.2-1,0.3-1.5,0.4c-0.3,0-0.6,0-0.9-0.1c-0.3-0.1-0.6-0.3-0.7-0.6
								c-0.2-0.3-0.1-0.6,0.1-0.8c0.2-0.2,0.5-0.3,0.8-0.3c0.6-0.2,1.1-0.3,1.5-0.5s0.7-0.3,1-0.4C79.7,97.3,79.8,97.2,79.9,97.2z"
								/>
							<path class="st4" d="M78.5,97.8c0.1-0.2,0.1-0.4,0.1-0.6c0.1-0.3,0.2-0.6,0.1-0.6c-0.1,0.2-0.2,0.4-0.2,0.6
								C78.5,97.4,78.5,97.6,78.5,97.8z"/>
							<g>
								<path class="st3" d="M68.2,98.1l2.6-1.1c0,0,7.2-3.6,7.3-3.4s0.5,0.2,0.4,1s-4.3,2.8-4.4,3.1c0,1.2-0.5,2.3-1.4,3
									c-0.8,0.7-1.7,1.1-2.7,1.2"/>
								<path class="st4" d="M70.1,102L70.1,102h0.2c0.2,0,0.5-0.1,0.7-0.2c0.3-0.1,0.7-0.3,1-0.5c0.4-0.2,0.8-0.5,1.2-0.9
									c0.4-0.4,0.7-1,0.8-1.6c0.1-0.3,0.1-0.7,0.1-1v-0.1c0,0,0-0.1,0.1-0.1l0.2-0.1c0.2-0.1,0.3-0.2,0.5-0.3
									c0.6-0.3,1.3-0.7,2-1.1c0.3-0.2,0.7-0.4,1-0.7c0.2-0.1,0.3-0.3,0.5-0.4c0.1-0.1,0.1-0.2,0.2-0.3c0-0.1,0-0.1,0-0.2
									c0-0.1,0-0.1,0-0.2c0-0.2,0-0.4-0.1-0.6c-0.1-0.1-0.1-0.2-0.2-0.2L78,93.6l0,0H78h0h-0.1c-0.4,0.1-0.7,0.3-1.1,0.4
									c-0.7,0.3-1.4,0.6-2,1c-1.3,0.6-2.5,1.2-3.4,1.7l-0.7,0.3l-0.6,0.3l-1,0.4L68.4,98l-0.2,0.1h-0.1h0.1l0.2-0.1l0.7-0.2l1-0.4
									l0.6-0.3l0.7-0.3l3.4-1.6c0.7-0.3,1.3-0.6,2-0.9c0.3-0.2,0.7-0.3,1.1-0.4H78l0,0l0,0c-0.1,0,0,0,0,0l0,0
									c0,0,0.1,0.1,0.1,0.1c0.1,0,0.1,0.1,0.2,0.2c0.1,0.2,0.1,0.4,0.1,0.6c0,0.1,0,0.2,0,0.3c-0.1,0.1-0.1,0.2-0.2,0.2
									c-0.1,0.1-0.3,0.3-0.4,0.4c-0.3,0.2-0.7,0.4-1,0.7c-0.7,0.4-1.3,0.8-1.9,1.1l-0.5,0.3l-0.2,0.2c0,0-0.1,0.1-0.1,0.1
									c0,0,0,0.1,0,0.1c0,0.3-0.1,0.7-0.1,1c-0.1,0.6-0.4,1.1-0.8,1.5c-0.4,0.3-0.7,0.6-1.2,0.9c-0.3,0.2-0.7,0.4-1,0.5
									c-0.2,0.1-0.4,0.1-0.7,0.2L70.1,102L70.1,102z"/>
							</g>
						</g>
					</g>
					<g>
						<g>
							<path class="st2" d="M24.3,32.2c-0.5-0.2-0.8-0.8-0.6-1.3c0-0.1,0.1-0.2,0.2-0.3c-0.5-0.3-0.4-1,0-1.5s0.9-0.7,1.2-1.1
								c-0.6,0.1-1.2-0.3-1.4-0.9c0,0,0-0.1,0-0.1c-0.5,0-1-0.3-1-0.8c0-0.4,0.1-0.7,0.4-0.9c-0.5,0-0.5-0.9,0-1.2
								c0.5-0.2,1-0.4,1.5-0.5c0.9-1,2-1.6,3.3-1.9l-2.1-1.6c-0.2-0.1-0.3-0.3-0.4-0.5c-0.2-0.4,0.1-0.9,0.5-1.2
								c0.8-0.6,1.7-1.1,2.7-1.2c0.3,0,0.7,0,0.8,0.3c0.7-0.3,1.4-0.3,2.2-0.2c0.4,0,0.8,0.1,1.2,0.4c-0.2-0.4-0.5-0.7-0.8-1
								c-0.3-0.3-0.5-0.7-0.5-1.1c0-0.4,0.5-0.8,0.9-0.5c-0.4-0.2-0.3-0.8,0-1.1c0.4-0.2,0.8-0.3,1.2-0.3c0.3,0,0.7,0,0.8,0.3
								c0.2-0.4,0.6-0.6,1.1-0.5c0.2,0.1,0.3,0.2,0.4,0.4c0.4-0.4,1-0.4,1.4,0c0,0,0,0,0.1,0.1c0.6-0.3,1.4-0.1,1.8,0.5
								c0,0.1,0.1,0.1,0.1,0.2c-0.4-0.6-0.8-1.3-1.2-1.9c-0.2-0.4-0.2-1,0.2-1c-0.5-0.1-0.8-0.6-0.8-1.1c0-0.1,0.1-0.2,0.1-0.3
								c0.4-0.5,1-0.8,1.6-0.6l0.5,0.8c0.5-0.4,1.3-0.2,1.7,0.3c0.2,0.3,0.3,0.7,0.2,1c0.2-0.3,0.7-0.1,0.9,0.2
								c0.1,0.3,0.2,0.7,0.2,1c0.4-0.3,1.1-0.2,1.4,0.2c0.1,0.2,0.2,0.4,0.2,0.6c0.5-0.3,1.1-0.4,1.7-0.4c-0.3-0.4-0.2-1,0.1-1.4
								c0.4-0.3,0.9-0.4,1.4-0.1c0.1-0.6,0.6-1.1,1.2-1c0.1,0,0.2,0,0.2,0c0.2-0.7,1.1-1.2,1.7-0.8s0.3,1.4-0.1,2.1
								s-0.8,1.4-1.2,2.1l3.7-2c0.1-0.1,0.2-0.1,0.4-0.1c0.2,0,0.3,0.2,0.5,0.3s0.5,0.1,0.7,0.1c0.7,0.2,0.7,1.2,0.2,1.7
								c-0.5,0.4-1.1,0.9-1.7,1.2l1.7,0.3c0.2-0.9,1.2-1.4,2.1-1.2c0.1,0,0.1,0,0.2,0.1c0.2-0.6,1-0.7,1.7-0.7
								c0.6,0,1.2,0.1,1.6,0.5c0.5,0.6,0.5,1.5,0,2.1c-0.5,0.6-1.2,1-1.9,1.2c0.1,0.5,0.8,0.7,1.3,0.6c0.5-0.2,1-0.2,1.5-0.1
								c0.7,0.2,0.9,1.1,1.6,1.3c0.2,0,0.4,0.1,0.6,0.2c0.2,0.2,0.4,0.5,0.4,0.8l0.2,1.1c0,0.2,0,0.4,0,0.5
								c-0.1,0.6-0.9,0.7-1.5,0.5c-0.5-0.3-1-0.6-1.5-0.8c0.8,0.3,1.5,0.9,2,1.6c0.5,0.7,0.3,1.7-0.4,2.2c0,0-0.1,0.1-0.1,0.1
								c-0.8,0.3-1.7-0.4-2.2-1.1s-1.5-1.3-2.3-1"/>
							<path class="st2" d="M25.5,31.7c-0.5-0.3-1.2-0.1-1.5,0.4c-0.1,0.2-0.2,0.4-0.1,0.6c-0.8,0.2-1.4,0.9-1.6,1.7
								c-0.2,0.8,0.1,1.6,0.7,2.2c0.5,0.4,1.5,0.4,1.6-0.2c0.2,0.5,0.7,0.9,1.2,1.1c-0.5,0.8-0.2,1.8,0.6,2.3c0,0,0.1,0,0.1,0.1
								c-0.8,0.6-0.9,1.7-0.3,2.5c0.2,0.2,0.4,0.4,0.6,0.5c-0.3,0.7,0,1.5,0.7,1.8c0.7,0.3,1.5,0,1.8-0.7c0.2,0.5,0.5,1,0.9,1.4
								c0.4,0.3,1.1,0.3,1.4-0.2c0,0,0,0,0-0.1c0.3,1,1.3,1.6,2.3,1.3c0.1,0,0.2-0.1,0.3-0.1c-0.1,0.7,0.4,1.3,1.1,1.3
								c0.6,0,1.1-0.3,1.3-0.9l3.1,0.2c0.7,0.1,1.4,0.1,2.1,0c0.9-0.1,1.7-0.4,2.5-0.9c0.2-0.2,0.5-0.3,0.8-0.4
								c0.3,0,0.7,0.1,0.9,0.2c1.7,0.6,3.5,0.3,4.9-0.8c0.2-0.2,0.4-0.3,0.7-0.5c0.3-0.1,0.6-0.1,0.9,0c0.8,0.1,1.5,0,2.3-0.1
								c0.7-0.1,1.3-0.4,1.7-0.9c0.3-0.6,0.1-1.5-0.6-1.5c0-0.4,0.1-0.9,0.5-1.2c0.3-0.3,0.8-0.3,1.2,0c0.2,0.3,0.2,0.7-0.1,0.9
								c-0.1,0.1-0.2,0.1-0.3,0.1c0.6,0.4,1.4,0.2,1.7-0.4c0.1-0.1,0.1-0.3,0.2-0.5c0-0.9-0.7-1.7-1.6-1.7c0.2-0.6,0.3-1.3,0.3-1.9
								c0.4,0.6,1.3,0.8,1.9,0.4c0.3,0.6,0.8,1.1,1.5,1.2c0.7,0.2,1.3-0.1,1.7-0.7c0.2-0.5,0-1.1-0.5-1.3c-0.1-0.1-0.3-0.1-0.4-0.1
								c0.4-0.6,0.2-1.3-0.4-1.7c-0.2-0.1-0.4-0.2-0.6-0.2c0.2-0.9-0.2-1.7-1-2.2c0.5,0.3,1.1,0.2,1.4-0.3c0-0.1,0.1-0.1,0.1-0.2
								c0.3,0.7,1.3,0.6,2,0.3c0.6-0.2,1-0.8,1-1.4c0-0.4-0.2-0.7-0.5-0.9c-0.7-0.5-1.5-0.8-2.3-0.8c-0.4-1-0.6-2.1-0.7-3.2
								c0.9,0.1,1.8-0.5,2.1-1.4L58.7,22c0,0-10.5-1.6-10.9-1.6S25.5,31.7,25.5,31.7c-0.6,0.4-1.4,0.3-1.8-0.2
								c0-0.1-0.1-0.1-0.1-0.2c-0.3-0.7-0.3-1.5,0.2-2.1c0.4-0.6,1-1.1,1.6-1.5c-0.7,0-1.4-0.2-2-0.6c-0.3-0.3-0.5-0.8-0.3-1.2
								c0.2-0.6,1-0.6,1.4-0.9c0.2-0.2,0.4-0.5,0.6-0.8"/>
						</g>
						<g>
							<path class="st3" d="M54.9,29.4c-0.3-3.8-2.8-8.3-6.5-7.9l-11.7,3c-1.2,0.1-2,1.1-2,2.2L36,51.9l-2.8,1.3
								c0,0,2.9,1.6,2.9,1.6s2.7,7.9,10.4,5.5c1.5-0.5,2.2-2.2,2.5-3.9h0.1c0-0.2,2.5-2.2,2.5-2.3c-0.9-0.4-1.7-0.9-2.5-1.4V52
								c0-2.3,0-3.2,0-3.2s4.8-0.8,5.7-7.1C55.2,37.6,55.2,33.5,54.9,29.4z"/>
							<g>
								<g>
									<g>
										<path class="st2" d="M53.3,33.9c0,0.4-0.3,0.8-0.8,0.8c-0.4,0-0.8-0.3-0.8-0.7c0-0.4,0.3-0.8,0.8-0.8c0,0,0,0,0,0
											C52.9,33.1,53.3,33.4,53.3,33.9z"/>
										<path class="st2" d="M53.8,32c-0.1,0.1-0.7-0.3-1.6-0.3s-1.5,0.5-1.6,0.3s0.1-0.2,0.3-0.4c0.4-0.3,0.8-0.4,1.3-0.4
											c0.4,0,0.9,0.1,1.2,0.4C53.7,31.8,53.8,32,53.8,32z"/>
									</g>
									<g>
										<path class="st2" d="M45,33.9c0,0.4-0.3,0.8-0.8,0.8c-0.4,0-0.8-0.3-0.8-0.7c0,0,0,0,0,0c0-0.4,0.3-0.8,0.8-0.8
											C44.6,33.1,45,33.4,45,33.9C45,33.9,45,33.9,45,33.9z"/>
										<path class="st2" d="M45.3,32.2c-0.1,0.1-0.7-0.3-1.6-0.3s-1.5,0.5-1.6,0.3s0-0.2,0.3-0.4c0.4-0.3,0.8-0.4,1.3-0.4
											c0.4,0,0.9,0.1,1.2,0.4C45.2,32,45.3,32.2,45.3,32.2z"/>
									</g>
									<path class="st2" d="M48.5,38.6c0.5-0.2,0.9-0.2,1.4-0.3c0.2,0,0.4-0.1,0.5-0.2c0-0.2,0-0.5-0.2-0.7l-0.7-1.7
										c-0.6-1.4-1.1-2.9-1.5-4.4c0.7,1.4,1.3,2.8,1.8,4.2c0.2,0.6,0.4,1.2,0.6,1.7c0.1,0.3,0.2,0.6,0.1,0.9
										c-0.1,0.2-0.2,0.3-0.4,0.3c-0.1,0-0.2,0.1-0.4,0.1C49.4,38.7,48.9,38.7,48.5,38.6z"/>
									<path class="st4" d="M49.1,48.8c-2.9,0.1-5.8-0.7-8.4-2.2c0,0,2.1,4.3,8.3,3.7L49.1,48.8z"/>
									<path class="st4" d="M48.6,40.5c-0.4-0.6-1.1-0.9-1.8-1c-0.7,0-1.3,0.6-1.3,1.3c0,0.3,0.1,0.5,0.2,0.8
										c0.3,0.5,0.9,0.7,1.4,0.5c0.5-0.2,0.9-0.4,1.3-0.8c0.1-0.1,0.2-0.2,0.3-0.3C48.7,40.9,48.7,40.7,48.6,40.5"/>
									<path class="st2" d="M45.9,39.2c0.1,0,0.2,0.9,1,1.6s1.8,0.5,1.8,0.7s-0.2,0.2-0.7,0.2c-0.5,0-1.1-0.2-1.5-0.5
										c-0.4-0.3-0.7-0.8-0.7-1.3C45.8,39.5,45.9,39.2,45.9,39.2z"/>
								</g>
								<path class="st2" d="M45.7,30.2c-0.1,0.2-1,0.1-2,0.3s-1.8,0.4-2,0.2s0.1-0.3,0.4-0.5c0.4-0.3,0.9-0.5,1.5-0.5
									c0.5-0.1,1,0,1.5,0.2C45.5,29.9,45.7,30.1,45.7,30.2z"/>
								<path class="st2" d="M53.5,29.5c-0.2,0.2-0.8,0-1.5,0s-1.3,0.1-1.5-0.1s0-0.3,0.3-0.5c0.3-0.2,0.8-0.4,1.2-0.3
									c0.4,0,0.8,0.1,1.2,0.4C53.4,29.2,53.5,29.4,53.5,29.5z"/>
							</g>
						</g>
						<path class="st2" d="M34.7,33.1c-0.2,0.4-0.1,0.9,0.3,1.2c0.3,0.2,0.8,0.1,1-0.3c0,0,0,0,0,0c0.3,0.4,0.9,0,0.8-0.5
							c0.3,0.2,0.8-0.3,0.7-0.7c0.4,0.2,0.6-0.5,0.8-0.9c0.1-0.2,0.3-0.4,0.4-0.6c0.4-0.7,0.7-1.5,0.7-2.3c0.5-0.7,0.7-1.5,0.8-2.3
							l0.2-1.6l0.3-0.4c0,0.4,0.2,0.7,0.6,0.8c0.3,0.1,0.6,0.1,1,0l0.9-0.2l0.6,0.2c-0.1,0.5,0,1,0.2,1.4c0.1,0.3,0.3,0.6,0.5,0.8
							c0.2,0.1,0.5,0,0.6-0.2c0-0.1,0.1-0.2,0-0.3c0.2,0.2,0.5,0.2,0.7,0c0,0,0,0,0.1-0.1c0.2-0.3,0.2-0.7,0.2-1
							c0-0.8-0.3-1.6-0.7-2.3l1.6,1.5c0.1,0.1,0.2,0.2,0.4,0.2c0,0.2,0.2,0.4,0.4,0.5c0,0,0,0,0.1,0c0.2-0.1,0.5-0.2,0.6-0.4
							c0.4-0.4,0.8-1.1,0.5-1.6c0.2-0.1,0.3-0.3,0.2-0.5c0,0,0,0,0,0l1.8,1.4c-0.2-0.1-0.4,0.2-0.3,0.4c0.1,0.2,0.2,0.4,0.4,0.5
							c-0.2,0.3-0.2,0.6-0.2,0.9c-0.3-0.3-0.8,0.2-0.7,0.7c0.1,0.5,0.5,0.8,1,0.8c0.4,0.1,0.7-0.2,0.8-0.5c0.4,0.1,0.8-0.5,0.7-0.9
							c0.3,0.2,0.5-0.3,0.6-0.7c0-0.7-0.1-1.5-0.3-2.1c0,0.1,0.1,0.2,0.2,0.1c0.1,0,0.1-0.1,0-0.2c0,0,0,0,0,0l1,2.5
							c0.3,0.7,0.5,1.4,0.6,2.1c0,0.3,0,0.7,0.3,0.8c0.1,0,0.1,0,0.2,0c0.8-0.4,1.3-1.1,1.7-1.9c0.1-0.3,0.2-0.6,0.3-0.9
							c0-0.6-0.1-1.3-0.2-1.9c0-0.3,0-0.6-0.1-0.9c-0.1-0.4-0.3-0.8-0.7-1.1c-0.9-1.2-2-2.2-3.3-2.8c-0.8-0.3-1.7-0.3-2.5-0.6
							c-0.5-0.2-1-0.4-1.5-0.7c-2-0.9-4.2-1.2-6.4-0.9c-1.2,0.1-2.4,0.3-3.5,0.8c-1.2,0.6-2.4,1.5-3.3,2.5c-1.6,1.5-2.9,3.3-3.9,5.2
							c-0.8,1.6-1.1,3.4-0.9,5.2c0.3,1.8,1.4,3.4,2.8,3.8l0.6-0.7"/>
						<g>
							<path class="st3" d="M36.4,34.3c-0.1,0-3.5-1.1-3.5,2.4s3.5,2.7,3.5,2.6S36.4,34.3,36.4,34.3z"/>
							<path class="st4" d="M35.4,38c0,0-0.1,0-0.2,0.1c-0.1,0.1-0.3,0.1-0.5,0c-0.5-0.3-0.7-0.8-0.7-1.3c0-0.3,0-0.6,0.2-0.9
								c0.1-0.2,0.2-0.4,0.5-0.5c0.1,0,0.3,0,0.4,0.2c0,0.1,0,0.2,0,0.2s0.1-0.1,0-0.2c0-0.1-0.1-0.2-0.1-0.2
								c-0.1-0.1-0.2-0.1-0.3-0.1c-0.3,0.1-0.5,0.3-0.6,0.5c-0.2,0.3-0.2,0.7-0.2,1c0,0.6,0.3,1.2,0.9,1.5c0.2,0.1,0.4,0,0.6-0.1
								C35.4,38.1,35.5,38,35.4,38z"/>
						</g>
						<g>
							<path class="st1" d="M47.8,33.2c0-0.3-0.1-0.7-0.2-1c-0.6-2.2-2.8-3.5-5-2.9c-0.1,0-0.2,0.1-0.4,0.1c-0.4,0.1-0.7,0.3-1,0.6
								c-0.3,0.2-0.6,0.5-0.9,0.9c-1.1,1.4-1.1,3.4,0,4.8c0.2,0.3,0.5,0.6,0.9,0.9c0.3,0.2,0.6,0.4,1,0.6c2.1,0.8,4.5-0.3,5.3-2.5
								c0-0.1,0.1-0.2,0.1-0.4C47.8,33.9,47.8,33.6,47.8,33.2v0.3c0,0.1,0,0.2,0,0.3c0,0.1,0,0.3-0.1,0.4c-0.2,0.9-0.7,1.7-1.5,2.3
								c-1.1,0.9-2.6,1.1-4,0.6c-0.4-0.1-0.7-0.3-1.1-0.6c-1.1-0.8-1.7-2.1-1.7-3.4c0-0.9,0.3-1.8,0.8-2.5c0.3-0.3,0.6-0.6,0.9-0.9
								c0.3-0.2,0.7-0.4,1.1-0.6c0.7-0.2,1.5-0.3,2.2-0.2c0.6,0.1,1.2,0.4,1.8,0.8c0.8,0.6,1.3,1.4,1.5,2.3c0,0.2,0.1,0.3,0.1,0.4
								c0,0.1,0,0.2,0,0.3L47.8,33.2z"/>
							<path class="st1" d="M57.7,33.2c0-0.3-0.1-0.7-0.2-1c-0.6-2.2-2.8-3.5-5-2.9c-0.1,0-0.3,0.1-0.4,0.1c-0.4,0.1-0.7,0.3-1,0.6
								c-0.3,0.2-0.6,0.5-0.9,0.9c-1.1,1.4-1.1,3.4,0,4.8c0.2,0.3,0.5,0.6,0.9,0.9c0.3,0.2,0.6,0.4,1,0.6c2.1,0.8,4.5-0.3,5.2-2.4
								c0-0.1,0.1-0.2,0.1-0.4C57.6,33.9,57.7,33.6,57.7,33.2c0,0.1,0,0.2,0,0.3c0,0.1,0,0.2,0,0.3c0,0.1,0,0.3-0.1,0.4
								c-0.2,0.9-0.7,1.7-1.5,2.3c-1.1,0.9-2.6,1.1-4,0.6c-0.4-0.1-0.7-0.3-1.1-0.6c-0.3-0.3-0.6-0.6-0.9-0.9c-1.1-1.5-1.1-3.5,0-5
								c0.2-0.3,0.5-0.6,0.9-0.9c0.3-0.2,0.7-0.4,1.1-0.6c0.7-0.2,1.5-0.3,2.2-0.2c0.6,0.1,1.2,0.4,1.8,0.8c0.8,0.6,1.3,1.4,1.5,2.3
								c0,0.1,0.1,0.3,0.1,0.4c0,0.1,0,0.2,0,0.3C57.7,33.1,57.7,33.2,57.7,33.2z"/>
							<path class="st1" d="M49.6,32.3c0,0-0.4-0.1-0.9-0.1s-0.9,0.1-0.9,0.1C48,32,48.3,32,48.7,32C49,32,49.3,32.1,49.6,32.3z"/>
							<path class="st1" d="M39.5,33.7c-0.6,0.2-1.1,0.4-1.7,0.4c-0.6,0.1-1.2,0.2-1.8,0.1c0,0,0.8-0.1,1.8-0.3S39.5,33.6,39.5,33.7
								z"/>
							<path class="st5" d="M47.4,32.6c0,0.3,0,0.5,0,0.8c-0.1,0.6-0.3,1.2-0.7,1.8c-0.3,0.5-0.8,1-1.3,1.3
								c-0.2,0.2-0.5,0.2-0.8,0.2c0.3,0,0.5-0.1,0.7-0.3c0.5-0.4,0.9-0.8,1.2-1.3c0.3-0.5,0.6-1.1,0.7-1.7
								C47.4,32.9,47.4,32.6,47.4,32.6z"/>
							<path class="st5" d="M56.4,35.3c0.1-0.2,0.2-0.4,0.3-0.7c0.1-0.2,0.2-0.5,0.3-0.7c0.1-0.3,0.1-0.6,0-0.9
								c-0.1-0.6-0.2-1.1-0.5-1.7c-0.2-0.4-0.4-0.6-0.4-0.6s0.1,0,0.2,0.1c0.1,0.1,0.2,0.3,0.3,0.4c0.3,0.5,0.5,1.1,0.5,1.7
								c0.1,0.3,0.1,0.7,0,1c-0.1,0.3-0.2,0.5-0.3,0.8C56.8,34.9,56.6,35.1,56.4,35.3z"/>
						</g>
						<path class="st1" d="M34,39.2c0,0-0.1,0-0.2,0.2c-0.2,0.1-0.3,0.3-0.4,0.6c-0.1,0.3,0,0.7,0.2,1c0.3,0.3,0.7,0.4,1.2,0.3
							c0.4-0.1,0.7-0.5,0.8-0.9c0.1-0.3,0-0.7-0.2-1c-0.1-0.2-0.3-0.4-0.5-0.5c-0.2-0.1-0.2-0.1-0.2-0.1c0.1,0,0.2,0,0.3,0.1
							c0.2,0.1,0.4,0.3,0.6,0.5c0.2,0.3,0.3,0.7,0.2,1.1c-0.1,0.5-0.5,0.8-0.9,1c-0.5,0.1-1,0-1.3-0.4c-0.1-0.2-0.2-0.4-0.3-0.6
							c0-0.2,0-0.4,0.1-0.5c0.1-0.3,0.2-0.5,0.5-0.6C33.8,39.2,33.9,39.2,34,39.2z"/>
						<path class="st1" d="M48.5,23.2c0.1-0.1,0.2-0.3,0.2-0.5c0-0.2,0-0.4-0.2-0.5c-0.2-0.2-0.4-0.2-0.7-0.2l-0.2,0l0.1-0.1
							c0.1-0.3,0-0.7-0.3-0.9c-0.2-0.1-0.5-0.1-0.7,0.1l-0.1-0.1c0,0,0-0.1,0-0.1c0-0.1,0-0.2-0.1-0.3c-0.1-0.1-0.2-0.2-0.3-0.2
							c-0.1,0-0.2,0-0.3,0c-0.1,0.1-0.3,0.1-0.4,0.1c-0.2,0-0.2-0.1-0.3-0.2c-0.1-0.1-0.2-0.1-0.3-0.2c-0.2-0.1-0.4-0.1-0.6-0.1
							c-0.3,0-0.6,0.1-0.8,0.2c-0.2,0.1-0.3,0.2-0.3,0.2s0.1-0.1,0.2-0.2c0.3-0.2,0.5-0.3,0.8-0.3c0.2,0,0.4,0,0.6,0.1
							c0.1,0,0.2,0.1,0.3,0.2c0.1,0.1,0.2,0.2,0.3,0.2c0.1,0,0.2,0,0.3-0.1c0.1,0,0.3,0,0.4,0c0.2,0,0.3,0.1,0.4,0.2
							c0.1,0.1,0.1,0.3,0.1,0.5c0,0,0,0.1-0.1,0.1l-0.1-0.1c0.3-0.3,0.8-0.3,1.1,0c0.3,0.2,0.3,0.6,0.2,0.9l0-0.1
							c0.3-0.1,0.6,0,0.8,0.2c0.1,0.2,0.2,0.4,0.2,0.6c0,0.1-0.1,0.3-0.2,0.4C48.5,23.2,48.5,23.2,48.5,23.2z"/>
						<path class="st1" d="M52.3,24.2c0.1-0.1,0.2-0.3,0.3-0.4c0.1-0.2,0.1-0.4,0-0.6c-0.1-0.2-0.3-0.4-0.6-0.5h-0.1l0.1-0.1
							c0.2-0.2,0.3-0.5,0.3-0.9c0-0.2-0.2-0.3-0.3-0.4c-0.2-0.1-0.3,0-0.5,0.1L51,22l0.3-0.6c0.1-0.2,0.1-0.5,0-0.7
							c-0.1-0.2-0.3-0.4-0.5-0.5c-0.2,0-0.4,0-0.5,0l-0.2,0.1l0.1-0.2c0.1-0.3-0.2-0.6-0.4-0.6c-0.3,0-0.6,0-0.8,0.2l-0.2,0.1l0-0.2
							c0-0.2,0-0.4-0.2-0.6c-0.2-0.1-0.3-0.2-0.5-0.2c-0.3-0.1-0.7-0.1-1,0c-0.3,0.1-0.6,0.2-0.8,0.3c0,0,0.1-0.1,0.2-0.1
							c0.2-0.1,0.4-0.2,0.6-0.2c0.3-0.1,0.7-0.1,1-0.1c0.2,0,0.4,0.1,0.6,0.3c0.2,0.2,0.3,0.4,0.2,0.7l-0.1-0.1
							c0.3-0.2,0.6-0.3,0.9-0.2c0.2,0,0.3,0.1,0.5,0.3c0.1,0.2,0.2,0.4,0.1,0.5l-0.1-0.1c0.2-0.1,0.4-0.1,0.6-0.1
							c0.3,0.1,0.5,0.3,0.7,0.6c0.1,0.3,0.1,0.6-0.1,0.8l-0.1-0.1c0.2-0.2,0.4-0.2,0.6-0.1c0.2,0.1,0.3,0.2,0.4,0.5
							c0.1,0.4,0,0.7-0.3,1v-0.1c0.3,0.1,0.6,0.3,0.7,0.5c0.1,0.2,0.1,0.4,0,0.6C52.6,24,52.5,24.1,52.3,24.2
							C52.4,24.2,52.4,24.2,52.3,24.2z"/>
						<path class="st1" d="M60.8,25c0-0.2-0.1-0.3-0.2-0.4c-0.1-0.1-0.3-0.2-0.5-0.2c-0.3,0-0.5,0.1-0.7,0.2h-0.1v-0.1
							c0-0.3-0.2-0.6-0.5-0.6c-0.4-0.1-0.8,0-1.1,0.2L57,24.1l0.4-0.3c0.2-0.2,0.2-0.5,0-0.8c0,0,0,0,0,0c-0.3-0.2-0.6-0.3-1-0.2
							l0,0h-0.3l0.3-0.2c0.2-0.2,0.3-0.6,0-0.8c0,0-0.1-0.1-0.1-0.1c-0.3-0.2-0.7-0.1-1,0.1L55,22.1l0.2-0.4c0.3-0.4,0.3-0.9,0-1.4
							c-0.2-0.3-0.5-0.5-0.9-0.6c-0.3,0-0.5,0-0.7,0.1c-0.2,0.1-0.2,0.1-0.2,0.1l0.1,0c0.1,0,0.1-0.1,0.2-0.1
							c0.2-0.1,0.5-0.2,0.8-0.1c0.4,0,0.8,0.3,1,0.6c0.3,0.5,0.3,1.1,0,1.5l-0.1-0.1c0.3-0.3,0.8-0.3,1.2-0.1
							c0.2,0.1,0.3,0.3,0.3,0.6c0,0.2-0.1,0.5-0.3,0.6l0-0.1h0c0.4-0.1,0.8,0,1.1,0.3c0.1,0.1,0.2,0.3,0.2,0.5
							c0,0.2-0.1,0.4-0.2,0.5l-0.1-0.1c0.4-0.2,0.8-0.2,1.2-0.2c0.4,0.1,0.6,0.4,0.6,0.8l-0.1-0.1c0.3-0.1,0.5-0.2,0.8-0.2
							c0.2,0,0.4,0.1,0.6,0.2c0.1,0.1,0.2,0.2,0.2,0.3C60.8,24.9,60.8,24.9,60.8,25z"/>
						<path class="st1" d="M56.3,17c0,0-0.1,0-0.2,0.1c-0.2,0-0.4,0-0.6,0c-0.3,0-0.6,0-0.9,0.1c-0.2,0.1-0.3,0.2-0.3,0.4
							c-0.1,0.2,0,0.4,0.2,0.5l-0.1,0.1c0-0.2-0.3-0.3-0.5-0.5c-0.2-0.1-0.5-0.2-0.7-0.3c-0.3-0.1-0.5,0-0.8,0.1
							c-0.2,0.1-0.3,0.3-0.3,0.6v0.2L52,18.1c-0.3-0.2-0.6-0.4-1-0.4c-0.3,0-0.6,0-0.9,0.1c-0.2,0.1-0.5,0.3-0.7,0.4
							c0,0,0-0.1,0.1-0.2c0.1-0.1,0.3-0.3,0.5-0.3c0.3-0.1,0.6-0.2,0.9-0.2c0.4,0,0.8,0.2,1.1,0.4L52,18.1c0-0.3,0.1-0.6,0.4-0.7
							c0.3-0.2,0.6-0.2,0.9-0.1c0.3,0.1,0.5,0.2,0.8,0.3c0.1,0.1,0.2,0.1,0.3,0.2c0.1,0.1,0.2,0.2,0.2,0.4v0.1l-0.1-0.1
							c-0.2-0.1-0.3-0.4-0.2-0.6c0.1-0.2,0.2-0.4,0.4-0.5c0.3-0.1,0.6-0.2,0.9-0.1c0.2,0,0.4,0,0.6,0L56.3,17z"/>
						<path class="st1" d="M48.5,14c-0.1,0-0.3,0-0.4,0.1c-0.1,0.1-0.3,0.1-0.4,0.2c-0.1,0.1-0.2,0.3-0.2,0.5v0.1h-0.1
							c-0.2,0-0.5,0.1-0.6,0.3c-0.1,0.3-0.1,0.6,0,0.9l0,0.3l-0.2-0.2l0,0c-0.1-0.2-0.3-0.2-0.5-0.2c-0.2,0-0.4,0.1-0.5,0.2
							c-0.2,0.3-0.4,0.6-0.3,0.9c0,0.2,0.1,0.5,0.2,0.7c0,0.1,0.1,0.2,0.1,0.2c0,0-0.1-0.1-0.2-0.2c-0.1-0.2-0.2-0.4-0.2-0.7
							c0-0.4,0.1-0.7,0.3-1c0.3-0.4,0.9-0.4,1.2,0c0,0,0,0,0,0v0l-0.2,0c-0.1-0.3-0.1-0.7,0-1c0.1-0.3,0.4-0.5,0.8-0.4l-0.1,0.1
							c0-0.2,0.1-0.4,0.3-0.6c0.1-0.1,0.3-0.2,0.5-0.2c0.1,0,0.2,0,0.3,0L48.5,14z"/>
						<path class="st1" d="M41.7,18.7c0,0-0.1,0-0.2,0c-0.2-0.1-0.3-0.2-0.5-0.3c-0.2-0.2-0.3-0.5-0.4-0.8c0-0.1,0-0.3-0.1-0.4
							c-0.1-0.1-0.3-0.2-0.4-0.4c-0.2-0.3-0.1-0.8,0.2-1.1v0.1c-0.3-0.3-0.5-0.6-0.7-0.9c-0.1-0.1-0.1-0.3-0.1-0.4
							c0,0,0.1,0.1,0.2,0.4c0.2,0.3,0.4,0.6,0.7,0.9l0.1,0.1l-0.1,0.1c-0.3,0.2-0.3,0.6-0.2,0.8c0.1,0.1,0.2,0.2,0.4,0.4
							c0.1,0.2,0.2,0.3,0.1,0.5c0,0.3,0.1,0.5,0.3,0.7C41.2,18.5,41.4,18.6,41.7,18.7z"/>
						<path class="st1" d="M39.6,20.1c0,0,0,0-0.1,0c-0.1,0-0.2,0-0.4,0c-0.4-0.1-0.8-0.3-1.1-0.7h0.1c-0.2,0.3-0.6,0.5-0.9,0.5
							c-0.2,0-0.4,0-0.6-0.1c-0.2-0.1-0.4-0.2-0.5-0.4c0-0.1,0-0.2-0.1-0.2c0-0.1-0.1-0.1-0.1-0.1c-0.1-0.1-0.2-0.1-0.4-0.2
							c-0.1,0-0.3-0.1-0.4-0.2c-0.1-0.1-0.2-0.2-0.2-0.4l0.1,0.1c-0.3,0.1-0.7,0.1-1,0c-0.2-0.1-0.5-0.2-0.6-0.4
							c-0.1-0.1-0.2-0.3-0.3-0.4c0-0.1,0-0.2,0-0.2c0.1,0.2,0.2,0.4,0.4,0.5c0.2,0.2,0.4,0.3,0.6,0.4c0.3,0.1,0.6,0.1,0.9,0h0.1v0.1
							c0,0.1,0.1,0.2,0.2,0.2c0.1,0.1,0.2,0.1,0.4,0.1c0.1,0,0.3,0.1,0.4,0.1c0.1,0.1,0.1,0.1,0.2,0.2c0,0.1,0,0.1,0.1,0.2
							c0.1,0.2,0.2,0.3,0.4,0.3c0.2,0.1,0.3,0.1,0.5,0.1c0.3,0,0.6-0.2,0.8-0.4l0-0.1l0.1,0.1c0.3,0.3,0.7,0.6,1.1,0.7
							C39.5,20.1,39.6,20.1,39.6,20.1z"/>
						<path class="st1" d="M27.2,25L27.2,25c0-0.1,0-0.2,0-0.2c0-0.2,0-0.4,0.1-0.6c0.1-0.3,0.2-0.6,0.4-0.9
							c0.1-0.2,0.2-0.3,0.4-0.5c0.1-0.1,0.2-0.2,0.3-0.2c0.1-0.1,0.3-0.1,0.4,0l-0.1,0.1c-0.1-0.5,0.2-1.1,0.7-1.2
							c0.4-0.1,0.7,0,1,0.3l-0.1,0.1c0-0.2,0.1-0.5,0.3-0.6c0.2-0.1,0.5-0.2,0.7-0.1c0.1,0,0.2,0.1,0.3,0.2l-0.1,0
							c0-0.1,0.1-0.3,0.2-0.4c0.1-0.1,0.2-0.1,0.4-0.1c0.2,0,0.5,0.1,0.7,0.2h-0.1c0.2-0.2,0.4-0.4,0.7-0.5c0.3-0.1,0.5-0.1,0.8,0
							c0.4,0.1,0.8,0.3,1.2,0.6L35,21.2c0-0.1,0-0.2,0-0.3c0.1-0.1,0.1-0.1,0.2-0.1c0.1-0.1,0.3-0.1,0.4-0.1c0.2,0,0.4,0.1,0.6,0.2
							c0.1,0.1,0.2,0.1,0.3,0.2c0,0,0.1,0.1,0.1,0.1c0,0-0.2-0.1-0.5-0.2c-0.2-0.1-0.4-0.1-0.6-0.2c-0.1,0-0.3,0-0.4,0.1
							c-0.1,0-0.2,0.2-0.2,0.3l0.1,0.2L35,21.3c-0.4-0.2-0.7-0.4-1.2-0.5c-0.2-0.1-0.5-0.1-0.7,0c-0.2,0.1-0.5,0.2-0.6,0.4v0h-0.1
							c-0.2-0.1-0.4-0.2-0.6-0.2c-0.2,0-0.4,0.2-0.4,0.4v0.3l-0.2-0.2c-0.1-0.1-0.1-0.1-0.2-0.2c-0.2-0.1-0.4-0.1-0.5,0.1
							c-0.1,0.1-0.2,0.3-0.2,0.5v0.2l-0.1-0.1c-0.4-0.3-1-0.3-1.3,0.1c-0.1,0.2-0.2,0.4-0.2,0.6v0.1l-0.1-0.1
							c-0.2-0.1-0.4,0-0.5,0.2c-0.1,0.1-0.2,0.3-0.3,0.5c-0.2,0.3-0.3,0.5-0.4,0.9C27.2,24.4,27.2,24.7,27.2,25z"/>
						<path class="st1" d="M28.1,29.6L28,29.5c-0.1-0.1-0.1-0.2-0.2-0.3c-0.1-0.2-0.1-0.4-0.1-0.6c0-0.1,0.1-0.3,0.1-0.4
							c0.1-0.1,0.2-0.2,0.4-0.3V28c-0.1-0.2-0.1-0.5,0-0.8c0.2-0.3,0.5-0.4,0.8-0.3L28.9,27c-0.2-0.2-0.2-0.5,0-0.7
							c0.2-0.2,0.4-0.3,0.7-0.3c0.1,0,0.2,0,0.4,0c0.1,0,0.2-0.1,0.2-0.2c0.1-0.1,0.1-0.2,0.2-0.3c0.1-0.1,0.2-0.2,0.4-0.2
							c0.3,0,0.6,0,0.8,0c0.2,0,0.5-0.1,0.7-0.2c0.1-0.1,0.2-0.2,0.2-0.3c0.1-0.1,0.2-0.2,0.3-0.2c0.2-0.1,0.5-0.1,0.7,0l-0.1,0.1
							c-0.1-0.2-0.1-0.5,0.1-0.7c0.2-0.2,0.4-0.3,0.6-0.3c0.3,0,0.7,0,1,0.1c0.2,0.1,0.4,0.1,0.6,0.2l0.2,0.1c0,0-0.3-0.1-0.8-0.3
							c-0.3-0.1-0.7-0.1-1-0.1c-0.2,0-0.4,0.1-0.5,0.3c-0.1,0.2-0.2,0.4-0.1,0.6l0.2,0.2l-0.3-0.1c-0.2-0.1-0.4-0.1-0.6,0
							c-0.1,0-0.2,0.1-0.2,0.2c-0.1,0.1-0.1,0.2-0.2,0.3c-0.1,0.1-0.2,0.2-0.4,0.2c-0.1,0-0.3,0-0.4,0c-0.3,0-0.5,0-0.8,0
							c-0.1,0-0.2,0.1-0.3,0.2c-0.1,0.1-0.1,0.2-0.2,0.3c-0.1,0.1-0.2,0.2-0.3,0.3c-0.1,0-0.2,0-0.4,0c-0.2,0-0.4,0.1-0.6,0.2
							c-0.1,0.2-0.1,0.4,0,0.5l0.1,0.2l-0.2,0c-0.3-0.1-0.5,0.1-0.7,0.3c-0.1,0.2-0.1,0.5,0,0.6V28h-0.1c-0.2,0.1-0.4,0.3-0.4,0.5
							c0,0.2,0,0.4,0.1,0.5C28,29.4,28.1,29.6,28.1,29.6z"/>
						<path class="st1" d="M28.4,39.2c0,0-0.1,0-0.2,0c-0.1-0.1-0.3-0.2-0.4-0.3c-0.2-0.2-0.2-0.4-0.3-0.7c0-0.3,0.1-0.6,0.3-0.9
							v0.1c-0.2-0.2-0.3-0.5-0.4-0.8c0-0.2,0-0.3,0-0.5c0.1-0.2,0.2-0.3,0.4-0.4v0.1c-0.3-0.2-0.4-0.5-0.4-0.8
							c0-0.2,0.1-0.4,0.2-0.5c0.1-0.1,0.2-0.3,0.4-0.3c0.1-0.1,0.2-0.1,0.2-0.3c0-0.2,0-0.3,0.1-0.5c0.1-0.3,0.3-0.5,0.6-0.6
							l0.6-0.4c0.3-0.2,0.6-0.4,1-0.5c0.1,0,0.2,0,0.3,0h0.1c0,0-0.1,0-0.4,0.1c-0.3,0.1-0.6,0.3-0.9,0.5l-0.6,0.4
							c-0.2,0.1-0.4,0.4-0.5,0.6c-0.1,0.1-0.1,0.3-0.1,0.4c0,0.1,0,0.2-0.1,0.3c-0.1,0.1-0.1,0.1-0.2,0.2c-0.4,0.2-0.6,0.7-0.4,1.1
							c0.1,0.1,0.1,0.2,0.2,0.3l0.1,0.1L28,35.8c-0.3,0.1-0.4,0.4-0.3,0.7c0.1,0.3,0.2,0.5,0.4,0.7l0,0l0,0
							c-0.2,0.2-0.3,0.5-0.3,0.8c0,0.2,0.1,0.4,0.2,0.6C28,38.9,28.2,39,28.4,39.2z"/>
						<path class="st1" d="M33.3,35.1c-0.1,0-0.1,0-0.2,0c-0.2-0.1-0.4-0.2-0.6-0.3c-0.3-0.2-0.5-0.4-0.6-0.7
							c-0.1-0.2-0.1-0.4-0.1-0.6c0-0.1,0.1-0.2,0.2-0.3c0.1-0.1,0.3,0,0.4,0.1l-0.1,0.1c-0.1-0.2-0.1-0.4-0.1-0.6
							c0-0.1,0.1-0.2,0.2-0.3c0.1-0.1,0.2-0.1,0.4,0c0.1,0,0.2,0,0.3,0c0.1,0,0.1-0.1,0.1-0.2c0-0.2,0.1-0.5,0.3-0.7
							c0.3-0.3,0.7-0.4,1.1-0.3l-0.1,0.1c-0.1-0.3,0-0.6,0.2-0.9c0.1-0.1,0.3-0.2,0.4-0.1c0.2,0,0.3,0.1,0.3,0.2h-0.1
							c0-0.4,0.1-0.8,0.3-1.1c0.1-0.3,0.3-0.5,0.6-0.7c0.2-0.1,0.3-0.2,0.5-0.3c0.1,0,0.1,0,0.2,0c-0.2,0.1-0.5,0.2-0.7,0.4
							c-0.2,0.2-0.4,0.4-0.5,0.7c-0.2,0.3-0.3,0.7-0.2,1.1v0.6l-0.2-0.5c-0.1-0.2-0.4-0.2-0.5-0.1c-0.2,0.2-0.2,0.5-0.1,0.7v0.1
							l-0.1,0c-0.3-0.1-0.7,0-0.9,0.3c-0.1,0.2-0.2,0.4-0.2,0.6c0,0.1,0,0.1,0,0.2c0,0.1-0.1,0.1-0.2,0.2c-0.1,0-0.2,0-0.4,0
							c-0.1,0-0.2,0-0.2,0c-0.1,0-0.1,0.1-0.1,0.2c0,0.2,0,0.4,0.1,0.5l0.1,0.4l-0.3-0.3c-0.1-0.1-0.4,0-0.4,0.2
							c0,0.2,0,0.4,0.2,0.5c0.1,0.3,0.3,0.5,0.6,0.7C32.8,34.9,33,35,33.3,35.1z"/>
						<path class="st1" d="M41.2,25.3c-0.2,0-0.3-0.1-0.5-0.2c-0.2-0.1-0.3-0.2-0.4-0.4c-0.1-0.2-0.2-0.4-0.2-0.7
							c0-0.1,0-0.1,0.1-0.2V24c-0.2-0.1-0.3-0.3-0.4-0.5c0-0.2,0.1-0.4,0.2-0.5c0.1-0.1,0.2-0.2,0.4-0.3c-0.1,0.1-0.2,0.2-0.3,0.3
							c0,0.1,0,0.3,0,0.4c0,0.2,0.2,0.3,0.3,0.4h0.1V24c0,0,0,0.1,0,0.1c0,0.2,0,0.4,0.1,0.6c0.1,0.1,0.2,0.3,0.4,0.4
							C41,25.1,41.1,25.2,41.2,25.3z"/>
						<path class="st1" d="M44.8,23.6c0.1-0.2,0.1-0.4,0.1-0.6c0-0.2-0.2-0.4-0.4-0.5c-0.3-0.1-0.5-0.1-0.8,0.1l-0.1,0.1v-0.1
							c0-0.2-0.1-0.3-0.2-0.5c-0.1-0.1-0.2-0.2-0.4-0.3c-0.2,0-0.5,0.2-0.5,0.4h-0.2c0-0.3-0.2-0.6-0.4-0.8
							c-0.2-0.1-0.4-0.2-0.7-0.3c-0.2,0-0.4,0-0.7,0.1c0,0,0.1-0.1,0.2-0.1c0.4-0.2,0.9-0.1,1.3,0.1c0.3,0.2,0.5,0.5,0.5,0.9h-0.2
							c0-0.2,0-0.3,0.2-0.5c0.1-0.1,0.3-0.2,0.5-0.1c0.2,0,0.4,0.2,0.5,0.4c0.1,0.2,0.2,0.3,0.2,0.5h-0.1c0.3-0.2,0.6-0.3,0.9-0.1
							c0.2,0.1,0.4,0.3,0.4,0.6c0,0.2,0,0.3-0.1,0.5C44.9,23.6,44.9,23.6,44.8,23.6z"/>
					</g>
					<g>
						<path class="st6" d="M60.3,77.7l4.6-1.9c-0.6-3.9-1.5-7.7-2.8-11.3c-0.9-2.9-2.8-5.4-5.2-7.2v0l-1.4-0.8l-5.9-3.8
							c1,4.7-7.4,9.6-14.6-0.6l-11.9,4.8l3.1,33.7l-3,14.9l29.7-0.1v0.3l6.3-0.1L58,98.9c0.6-6.4,2.5-14.1,2.3-19.2
							C60.3,79.1,60.3,78.4,60.3,77.7z"/>
						<g>
							<path class="st2" d="M59,90.9c0-0.1,0.1-0.2,0.1-0.2l0.2-0.7c0.1-0.3,0.2-0.7,0.2-1.1s0.2-0.9,0.3-1.5s0.2-1.2,0.3-1.8
								s0.2-1.3,0.2-2.1c0.1-1.5,0.2-3.1,0.2-4.8s-0.1-3.3-0.2-4.8c-0.1-0.7-0.2-1.4-0.2-2.1s-0.2-1.2-0.3-1.8s-0.2-1-0.3-1.5
								s-0.2-0.8-0.2-1.1L59,66.9c0-0.1,0-0.2-0.1-0.2c0,0.1,0,0.2,0,0.2l0.2,0.7c0.1,0.3,0.2,0.7,0.2,1.1s0.2,0.9,0.3,1.5
								s0.2,1.2,0.3,1.8s0.2,1.3,0.2,2.1c0.1,1.5,0.2,3.1,0.2,4.8s-0.1,3.3-0.2,4.8C60,84.3,60,85,59.9,85.6s-0.2,1.2-0.3,1.8
								s-0.2,1-0.3,1.5s-0.2,0.8-0.2,1.1L59,90.7C59,90.8,59,90.9,59,90.9z"/>
							<path class="st2" d="M59,90.7c0,0,0,0.1,0,0.2L59,91.3c-0.1,0.4-0.2,0.9-0.3,1.6c-0.3,1.7-0.5,3.5-0.5,5.3c0,1,0.1,2,0.2,2.9
								c0.1,0.8,0.2,1.6,0.4,2.3c0.1,0.3,0.2,0.6,0.2,0.9c0.1,0.2,0.1,0.5,0.2,0.7l0.1,0.4v0.2c0,0,0,0-0.1-0.1l-0.2-0.4
								c-0.1-0.2-0.1-0.4-0.2-0.7s-0.2-0.6-0.2-0.9c-0.2-0.8-0.4-1.6-0.5-2.3c-0.1-1-0.2-2-0.2-2.9c0-1.8,0.2-3.6,0.5-5.3
								c0.1-0.7,0.2-1.2,0.3-1.6l0.1-0.4C59,90.8,59,90.7,59,90.7z"/>
						</g>
						<path class="st6" d="M11.3,80.4L17.4,63c0,0,1.6-5.2,6.4-6.4L27.3,74l-1.6,9.6L11.3,80.4z"/>
						<path class="st2" d="M28.5,69.4c0,0,0,0,0,0.1V70c0,0.4-0.1,0.9-0.2,1.5c-0.2,1.3-0.6,3.1-1,5s-0.8,3.7-1.1,5L25.8,83
							l-0.1,0.4c0,0.1,0,0.1,0,0.1c0,0,0-0.1,0-0.1l0.1-0.4c0-0.4,0.1-0.9,0.3-1.5c0.2-1.3,0.6-3,1-5s0.8-3.7,1-5
							c0.1-0.6,0.2-1.2,0.3-1.5l0.1-0.4C28.5,69.5,28.5,69.4,28.5,69.4z"/>
						<path class="st7" d="M50.9,53.6c0,0,0,0.1,0,0.2s0,0.2,0,0.3l-0.1,0.4c0,0.1-0.1,0.3-0.1,0.5c-0.1,0.2-0.1,0.4-0.2,0.5
							c-0.2,0.4-0.5,0.8-0.8,1.2c-0.8,0.9-1.9,1.6-3,2c-1.4,0.5-2.9,0.7-4.4,0.5c-1.5-0.2-2.9-0.7-4.2-1.5c-1-0.7-2-1.4-2.8-2.3
							c-0.6-0.6-1.1-1.2-1.6-1.8c-0.2-0.2-0.3-0.4-0.4-0.5c0-0.1-0.1-0.1-0.1-0.2l0.2,0.2l0.4,0.5c0.4,0.4,0.9,1.1,1.6,1.8
							c0.8,0.9,1.8,1.6,2.8,2.3c1.2,0.7,2.6,1.2,4,1.4c1.5,0.2,2.9,0,4.3-0.5c1.1-0.4,2.2-1.1,3-1.9c0.3-0.3,0.6-0.7,0.8-1.1
							c0.1-0.2,0.2-0.3,0.2-0.5c0.1-0.2,0.1-0.3,0.1-0.5l0.1-0.4c0-0.1,0-0.2,0-0.3C50.9,53.8,50.9,53.7,50.9,53.6z"/>
						<g class="st8">
							<path d="M25.5,92.9c1.8-2.1,2-5.2,2.1-8c0.1-3.5,0-7.6,0.1-11.2c-0.7,3.1-1.6,8-2.1,9.8c0,0,0.2,1.8,0.2,2.6s0,1.4,0,2
								c0.2,1.7,0.4,3.6-0.6,5"/>
						</g>
						<path class="st7" d="M59.5,70.2C59.5,70.2,59.5,70.2,59.5,70.2l-0.3,0.1l-0.9,0.3L56.9,71c-0.5,0.1-1.2,0.3-1.9,0.5
							s-1.5,0.3-2.3,0.5s-1.7,0.3-2.7,0.5c-1.9,0.3-4,0.5-6.2,0.7s-4.3,0.1-6.2,0c-1-0.1-1.9-0.1-2.7-0.2s-1.6-0.2-2.3-0.2
							s-1.4-0.2-1.9-0.3s-1-0.2-1.5-0.2L28.4,72h-0.2h-0.1c0,0,0,0,0.1,0h0.2l0.9,0.2c0.4,0.1,0.9,0.2,1.5,0.2s1.2,0.2,1.9,0.2
							s1.5,0.2,2.3,0.2s1.8,0.1,2.7,0.2c1.9,0.1,4,0.1,6.2-0.1s4.3-0.4,6.1-0.6c0.9-0.2,1.8-0.3,2.7-0.5s1.6-0.3,2.3-0.5
							s1.3-0.3,1.9-0.5s1-0.3,1.4-0.4l0.9-0.2L59.5,70.2L59.5,70.2z"/>
						<path class="st7" d="M62.8,66.4c-0.5,0.4-1,0.8-1.6,1.1c-0.5,0.4-1.1,0.7-1.7,1c0.5-0.4,1.1-0.8,1.6-1.1
							C61.7,67.1,62.2,66.7,62.8,66.4z"/>
						<path class="st7" d="M28.1,71.1c-0.2,0-0.3,0-0.5,0c-0.3,0-0.8-0.1-1.4-0.2c-1.5-0.2-3-0.6-4.5-1c-1.5-0.4-2.9-0.9-4.3-1.4
							c-0.5-0.2-1-0.4-1.3-0.5c-0.2-0.1-0.3-0.1-0.5-0.2c0.2,0,0.3,0.1,0.5,0.2l1.3,0.5c1.1,0.4,2.6,0.9,4.3,1.4s3.3,0.8,4.5,0.9
							l1.4,0.2C27.8,71,28,71.1,28.1,71.1z"/>
					</g>
					<g>
						<g>
							<path class="st3" d="M36.8,95l4.6,0.1c0,0,6.9-2.5,8.4-2.3s6,3.3,6.9,4c0.1,0.1,0.2,0.2,0.2,0.3l0,0c0.2,0.5-0.1,1.1-0.6,1.3
								h-0.1v0.1c0.1,0.2,0.1,0.4,0.1,0.6c0,0.4-0.4,0.7-0.7,0.6c-0.2,0-0.4-0.1-0.5-0.3l0.2,0.3c0.1,0.1,0.1,0.3,0.1,0.4v0.3
								c0,0.3-0.2,0.6-0.5,0.7l0,0c-0.3,0.1-0.6,0-0.8-0.2c-0.6-0.7-1.9-2-2.8-2.1c-0.9-0.1-1.9-0.2-2.8-0.2c-0.4,0-0.7,0.3-0.9,0.6
								l0,0c1.8,0.8,3.6,1.6,5.4,2.6c0.4,0.2,0.7,0.6,0.7,1c0,0.4-0.2,0.8-0.9,0.6c-1.6-0.5-3.2-1.1-4.7-1.8
								c-0.9-0.2-1.8-0.2-2.6,0.3c-1.4,1-2.1,1.4-3.3,1c-0.7-0.3-1.5-0.6-2.1-1l-4.5,0.3C34.2,99.8,34.7,96.8,36.8,95z"/>
							<path class="st4" d="M47.5,96.3c0,0,0.5-0.1,1.3-0.2c1.1-0.1,2.1,0.1,3.1,0.5c1,0.4,1.8,1.1,2.5,1.9c0.3,0.3,0.5,0.7,0.8,1.1
								c0-0.1-0.1-0.2-0.2-0.3c-0.2-0.3-0.3-0.6-0.5-0.8c-1.4-1.7-3.5-2.6-5.7-2.4c-0.3,0-0.7,0.1-1,0.2
								C47.7,96.2,47.6,96.2,47.5,96.3z"/>
							<path class="st4" d="M48.2,94.6c0.4-0.1,0.9-0.2,1.4-0.2c1.1,0,2.2,0.3,3.2,0.9c0.9,0.6,1.8,1.3,2.5,2.2l0.7,0.7
								c0.1,0.1,0.2,0.2,0.3,0.3c-0.1-0.1-0.1-0.2-0.2-0.3l-0.7-0.8c-0.7-0.9-1.6-1.6-2.5-2.2c-1-0.6-2.1-0.9-3.2-0.9
								c-0.3,0-0.7,0.1-1,0.2c-0.1,0-0.2,0.1-0.3,0.1C48.3,94.6,48.2,94.6,48.2,94.6z"/>
						</g>
						<path class="st3" d="M13,80.8c0,0-2.4,10.8-2.7,12.7c-0.4,2.2-1,7.7,4,8.7s25.7-0.3,25.7-0.3l1.5-6.8l-18.9-2.7l2.1-9.1
							L13,80.8z"/>
					</g>
				</g>
				<g>
					<path class="st9" d="M96,105.6H53.6l5.5-29.7c0.2-1.1,1.1-1.8,2.2-1.8h38c1.2,0,2.2,1,2.2,2.2c0,0.1,0,0.3,0,0.4L96,105.6z"/>
					<path class="st2" d="M63.8,74.1c0,0-0.1,0-0.3,0c-0.3,0-0.6,0.1-0.9,0.2c-0.5,0.2-0.8,0.6-1.1,1c-0.3,0.6-0.6,1.2-0.7,1.9
						c-0.1,0.8-0.3,1.6-0.4,2.5s-0.3,1.8-0.5,2.8c-0.4,2-0.8,4.2-1.3,6.5c-1,4.6-1.8,8.7-2.4,11.8c-0.3,1.5-0.5,2.7-0.7,3.6l-0.2,1
						v0.2c0,0,0,0.1,0,0.1v-0.1v-0.3l0.2-1c0.1-0.8,0.3-2.1,0.6-3.6c0.5-3,1.4-7.2,2.4-11.8c0.5-2.3,0.9-4.5,1.3-6.5
						c0.2-1,0.4-1.9,0.5-2.8s0.3-1.7,0.4-2.5c0.1-0.7,0.4-1.4,0.7-2c0.3-0.4,0.7-0.8,1.2-1c0.3-0.2,0.7-0.2,1-0.2
						C63.6,74,63.7,74,63.8,74.1z"/>
					<path class="st10" d="M81.7,89.1c0,1.1-0.9,2-2,2s-2-0.9-2-2s0.9-2,2-2S81.7,88,81.7,89.1z"/>
				</g>
			</g>
		</g>
	</g>
</g>
</svg>
