<svg xmlns="http://www.w3.org/2000/svg" xmlns:xlink="http://www.w3.org/1999/xlink" width="449.774" height="263.92" viewBox="0 0 449.774 263.92">
  <defs>
    <linearGradient id="linear-gradient" x1="0.609" y1="1.094" x2="0.274" y2="-0.125" gradientUnits="objectBoundingBox">
      <stop offset="0.01" stop-color="#ff4030"/>
      <stop offset="1" stop-color="#ff4d3b"/>
    </linearGradient>
    <linearGradient id="linear-gradient-2" x1="0.424" y1="-0.123" x2="0.778" y2="1.32" xlink:href="#linear-gradient"/>
    <linearGradient id="linear-gradient-3" x1="0.688" y1="0.388" x2="0.176" y2="1.567" gradientUnits="objectBoundingBox">
      <stop offset="0" stop-color="#aaa9e3"/>
      <stop offset="0.98" stop-color="#e1e0f4"/>
    </linearGradient>
  </defs>
  <g id="Capa_1" data-name="Capa 1" transform="translate(-41.028 -75.15)">
    <g id="Grupo_80462" data-name="Grupo 80462">
      <path id="Trazado_119924" data-name="Trazado 119924" d="M333,116.81c-4.36-.27-9.82-.47-15.88-.47v.47h-3.9v-.44c-5.74.09-11.89.39-18.09,1-14.45,1.42-16,6-16,6h72.48C350.37,117.55,342.19,117.37,333,116.81Z" fill="#0f0060"/>
      <path id="Trazado_119925" data-name="Trazado 119925" d="M350.2,313.52c0-1.92-.17-12.09-1-22.07-.91-11.08-2.06-35.39-3.14-50.1s-2-23.31-2-23.07-8.68,0-8.68,0l1.32,75.32s2.57,15.29,4.88,20.26c0,0,2.89,2,8.59,0Z" fill="url(#linear-gradient)"/>
      <path id="Trazado_119926" data-name="Trazado 119926" d="M361.39,123H265.6a1,1,0,0,0-.75.36,1,1,0,0,1,.24.63v24.14c.26,1.71,1.39,6.69,7.21,6.27a20.66,20.66,0,0,0,2.86-.43c3.86-.84,6.85-2.4,9.69-1.22a7.58,7.58,0,0,1,2.95,2.39c4.47,5.58,6.08,17.11,1.36,22.57a9.64,9.64,0,0,1-2.88,2.31c-3.66,1.87-7.82.75-11-.3a73.639,73.639,0,0,0,11,7.45,4.35,4.35,0,0,1-1.26,2.65c-1.24,1.32-3.64,3.53-3.64,3.53s-11-2.43-16.33-6.44v30a1,1,0,0,1-.24.63,1.13,1.13,0,0,0,.29.24,1,1,0,0,0,.46.12h37.52c.38,0,2,2.47,0,7s-6.09,14.16.49,21,20.35,9.8,25.43,4.35,3.35-12.05,1.12-15.89-4-11,.86-16.39h30.37a1.022,1.022,0,0,0,.99-.99V124A1,1,0,0,0,361.39,123Z" fill="#ffa726"/>
      <path id="Trazado_119927" data-name="Trazado 119927" d="M172.77,219.9a10.43,10.43,0,0,0,.72-9.73c-2.85-6.95,1.61-18.86,13.14-19.91s16.62,8.25,16.25,13-4.29,16.68-4.29,16.68h37.18a.87.87,0,0,1,.45.13,1.009,1.009,0,0,0,.54-.87V177.87s4.73,2.23,8.7,3.6,10.67,4,15.38-1.49,3.1-17-1.37-22.57-8.68-1.24-15.5-.74c-5.82.42-6.95-4.56-7.21-6.26V126.26a1.017,1.017,0,0,0-.99-.99H140a1,1,0,0,0-1,1v92.9a1,1,0,0,0,.54.87,1,1,0,0,1,.46-.13Z" fill="#35afea"/>
      <path id="Trazado_119928" data-name="Trazado 119928" d="M266.74,262.51c-5.33-7.69-10-5.21-18.73-2.87s-11.13-3.33-11.13-3.33V224a1,1,0,0,0-.24-.63,1.05,1.05,0,0,0-.3-.25,1,1,0,0,0-.45-.12H198.71s3.92-12,4.29-16.68-4.71-14-16.24-13-16,13-13.15,19.9a10.44,10.44,0,0,1-.72,9.74H140.1a.91.91,0,0,0-.46.13,1,1,0,0,0-.54.87v92.9a1,1,0,0,0,1,1h95.79a1,1,0,0,0,1-1V289.47c2.63-3.18,7.41,1.19,16.22,3s12-1.48,15.38-8.31S272.07,270.2,266.74,262.51Z" fill="#b6c5ff"/>
      <g id="Grupo_80459" data-name="Grupo 80459">
        <path id="Trazado_119929" data-name="Trazado 119929" d="M344.76,188.85c-1.61-1.41-4.81-1.48-5.05-.87s3.9,1.87,3.9,2.73-5.39,2.18-4.9,3.29,5.2-1.48,5.2-1.3-5.69,3.47-5.23,4.4,6.48-2.6,6.67-2.54-2.67,2.76-2.3,3.33,4-2.59,4-2.59-1.59,3-.91,3.66,3.93-4.12,3.93-4.12a46.2,46.2,0,0,0-5.31-5.99Z" fill="#fdb7b0"/>
        <path id="Trazado_119930" data-name="Trazado 119930" d="M362.22,163.34A13,13,0,0,1,360.54,175c-4.05,5.46-14.73,14.89-14.73,14.89l4.54,5s10.68-1.94,17.88-10.7,4.9-26.88-5.85-38.71Z" fill="#0f0060"/>
      </g>
      <path id="Trazado_119931" data-name="Trazado 119931" d="M162.13,139.69c-.37-1.06-1.3-4.71-.87-5.21s1.4,3.16,1.83,3.1.59-5.3,1.46-5.18-.34,3.94.21,4c0,0,1.59-4.59,2.45-4.43.66.12-.87,5-.56,5s2.3-3.27,2.73-2.52-2.51,4.15-2.07,4.15,1.32-1.72,1.77-.91S166,143.2,166,143.2,163,142.2,162.13,139.69Z" fill="#fdb7b0"/>
      <path id="Trazado_119932" data-name="Trazado 119932" d="M286.32,187.2s5.15-.7,5.64,0-2.56,1.3-2.58,1.24,5,3.66,4.63,4.15-5-1.17-5-1.17,4.09,3.35,3.78,3.9-5.21-1.92-5.21-1.92,2.92,2.23,2.48,3.16-4.22-2.11-4.22-2.11,2.49,2.42,2.05,3.35-6.45-4.4-6.45-4.4a48.116,48.116,0,0,0,3.39-3.71C286.55,187.56,286.32,187.2,286.32,187.2Z" fill="#fdb7b0"/>
      <path id="Trazado_119933" data-name="Trazado 119933" d="M297.2,220.88c-1.08.08-6.11-.28-6.35-1s3-.67,3.18-1-5.74-2.3-5.74-3.88c0-1,5.28.82,5.28.82s-5.29-2.72-5.29-4,6.37,1.66,6.37,1.66-3.39-2.15-3.14-3,4.63,1.66,4.63,1.66-2.07-1.74-1.57-2.57,6.12,4.39,6.12,4.39Z" fill="#fdb7b0"/>
      <path id="Trazado_119934" data-name="Trazado 119934" d="M119.31,152.89c1.25,1.71,2.44,3.57,3.87,5.29A22.77,22.77,0,0,0,139,152.4v-9.76s-3.47,3.39-11.49,4.47-14.3-.83-17-.83h0A16.68,16.68,0,0,1,119.31,152.89Z" fill="#f9ae0f"/>
      <path id="Trazado_119935" data-name="Trazado 119935" d="M107.9,122.14c-4.63.91-5.71,3.72-4.88,7.52s-.41,6.21-2.89,8.52A10.449,10.449,0,0,0,98.52,140a17.69,17.69,0,0,0,2.23,2.57,10.88,10.88,0,0,0,2.29,1.61c-.43-2.23-1-5.52-.43-5.08s4.71,1.92,6.94-1.49,2.54-10.91,1.92-14.26a7.24,7.24,0,0,0-1.06-3.26A2.537,2.537,0,0,1,107.9,122.14Z" fill="#fdb7b0"/>
      <path id="Trazado_119936" data-name="Trazado 119936" d="M109.72,117c-1.9-4.22-10.21-5.63-13.66-1.74s-4.7,5.78-5.27,11.57-3.56,7-7.69,9.76-15.22,7-14.47,16.7,4.63,14,11.41,14.54h.42c6.57.39,11.58-3.25,12.31-7.21s1-4.63,3.29-6.95,2.58-3.14,1.67-7c-.63-2.67-.41-4.59.58-6.29l.21-.37a10.449,10.449,0,0,1,1.61-1.85c2.48-2.31,3.72-4.71,2.89-8.52s.25-6.61,4.88-7.52c1-.19,2.31-.54,2.51-2A5.91,5.91,0,0,0,109.72,117Z" fill="#0b3360"/>
      <path id="Trazado_119937" data-name="Trazado 119937" d="M166,143.2l-3.53-2.74c-1.93,10.46-12,23.68-24,24.09-8.15.28-12.25-2.74-15.26-6.37-1.43-1.72-2.62-3.58-3.87-5.29a16.68,16.68,0,0,0-8.86-6.61,27.1,27.1,0,0,0-3.71-.83,11.12,11.12,0,0,1-6-2.85,17.69,17.69,0,0,1-2.25-2.6l-.21.37c-1,1.7-1.21,3.62-.58,6.29.91,3.89.66,4.71-1.67,7s-2.55,2.9-3.29,6.95-5.74,7.6-12.31,7.21c-.73,9.6-.91,19-.84,23.2A19.84,19.84,0,0,1,77.48,200s14.55,5.63,22.23,4.8,9.51-2.81,9.51-2.81c-1.65-8.11-.74-18.77-.33-22.82s3.31-3.55,5.12-5.7-.16-4.55-.16-4.55,7.94,7.77,19.18,8.84,20.5-1.23,27.36-13.63S166,143.2,166,143.2Z" fill="#ffa726"/>
      <path id="Trazado_119938" data-name="Trazado 119938" d="M42.92,305.42c-1.24.67-2.73,1.9-1.32,3.47a20,20,0,0,1,3.63,6.62,4.88,4.88,0,0,0,5.38,3.24c2.64-.35,3.14-1.76,1.65-2.83C51,315,49.74,312,48.35,309.43c-.51.46-.8.7-.8.7C46.64,308.31,42.92,305.42,42.92,305.42Z" fill="#3d23b5"/>
      <path id="Trazado_119939" data-name="Trazado 119939" d="M132.78,318.73a11.64,11.64,0,0,1-5.21-1.16s-.9,2.65-.57,3.89,4.87.91,8.67.91,6-.17,6.37-.91-3.9-3.84-6.4-4.69v.89A4.8,4.8,0,0,1,132.78,318.73Z" fill="#3d23b5"/>
      <path id="Trazado_119940" data-name="Trazado 119940" d="M135.67,317.65a4.76,4.76,0,0,1-2.88,1.08,11.74,11.74,0,0,1-5.21-1.16,252.158,252.158,0,0,1-8.11-34.72c-2.15-15.05-6.37-23.4-11.9-32.57-4.75-7.88-12.62-20.51-15.07-24a.25.25,0,0,1,0-.07,3.63,3.63,0,0,0-.69-.84l-.09.05c-.55.5-1.94,6.21-4.45,16.07-2.65,10.42-9.5,28.27-18.18,43.08a111.411,111.411,0,0,1-20.7,24.85c-.51.45-.8.69-.8.69-.91-1.81-4.64-4.71-4.64-4.71l14.31-28.85c5.29-10.66,7.86-13.48,9.1-20.34s.74-16,3.06-27.28A252.135,252.135,0,0,1,77.48,200s14.52,5.64,22.23,4.8,9.51-2.8,9.51-2.8,10.17,23.56,14.72,37.2a201.689,201.689,0,0,1,9.59,43.57c1.3,13.24,2,30,2.11,34C135.66,317.34,135.67,317.65,135.67,317.65Z" fill="#0b3360"/>
      <path id="Trazado_119941" data-name="Trazado 119941" d="M204.54,220.22c-2.28,1.07-10,1.45-10.37,1.37s-1.66,3.19-3,5-2.11,1-2-.2-.45-1.62-1.22-1.54l-.15.07a1.09,1.09,0,0,0-.31.63c-.33,1.9.26,7.51.26,7.51v.34l-.05.65s3,2.42,5.21,2.17a8,8,0,0,0,1.75-.44c2.43-.85,5.82-2.88,7.43-5.94a19.16,19.16,0,0,0,2.45-9.62Z" fill="#fdb7b0"/>
      <path id="Trazado_119942" data-name="Trazado 119942" d="M203.26,214.68s1-1.6.41-2.51-2.85-.25-2.85-.25-.46-2.11-4.63-1.2-5.83,2.77-6.69,3.89a21.141,21.141,0,0,0-1.91,3.54c-1-1.48-2.77-.57-2.89,2.24s1.28,7.61,2.69,7.44a10.281,10.281,0,0,1,.09-2.28c.06-.33.14-.56.26-.61h0a.34.34,0,0,1,.15-.07h0c.77-.08,1.3.38,1.22,1.54s.71,2,2,.2,2.6-5.08,3-5,8.09-.3,10.37-1.37h0c2.26-1.07,4.29-2.51,4.41-4S203.26,214.68,203.26,214.68Z" fill="#0f0060"/>
      <path id="Trazado_119943" data-name="Trazado 119943" d="M187.79,224.92h0c-.12.05-.2.28-.26.61a1.09,1.09,0,0,1,.26-.61Z" fill="#0f0060"/>
      <g id="Grupo_80460" data-name="Grupo 80460">
        <path id="Trazado_119944" data-name="Trazado 119944" d="M233.26,241.64Z" fill="#3d23b5"/>
        <path id="Trazado_119945" data-name="Trazado 119945" d="M234.43,242.92a12.846,12.846,0,0,1-1.17-1.28,98.8,98.8,0,0,1-7.82,10.7c-5.9,7.32-11.42,10.42-15.51,5.46s-6.45-12.53-10-16.74a34.121,34.121,0,0,0-5.26-5.28,8,8,0,0,1-1.75.44c-2.17.25-5.21-2.17-5.21-2.17l.05-.65h-.85s-11.1,6.33-13.58,17-2.48,16.93-1.3,25.37A42.25,42.25,0,0,0,175.9,289c.07.14.12.22.12.22s8.62.87,15.68-.75,13-8.68,13-8.68-3.15-8.12-3.28-12.4c0,0,2.91,5.71,11,5.27a18.47,18.47,0,0,0,14.22-7.77c1.79-2.42,10.14-13.62,12.06-19a19.25,19.25,0,0,1-4.27-2.97Z" fill="#4484cd"/>
      </g>
      <path id="Trazado_119946" data-name="Trazado 119946" d="M182.77,300.25c1.89,3,5.28,9.59,3.91,11.56-1.55,2.23-12.21,1-16.74.31s-7.31-1.24-7.31-1.24L161,317l-.08.27a162.289,162.289,0,0,0,16.4,4.73c5.64,1.23,17.49,2.12,21,0s6-10.76,4.52-21.73C194.12,303.65,187.22,303.48,182.77,300.25Z" fill="#ff382f"/>
      <path id="Trazado_119947" data-name="Trazado 119947" d="M160.89,317.2c.06-.19,1.74-6.32,1.74-6.32a2.33,2.33,0,0,0-2.61-.62c-.74.37-3.35,4-3.59,7s1.67,5.76,3.65,6,1.55-1.27.81-2.55c-.59-1-.16-2.79,0-3.48C160.9,317.22,160.89,317.21,160.89,317.2Z" fill="#0f0060"/>
      <path id="Trazado_119948" data-name="Trazado 119948" d="M162.63,310.88S161,317,160.89,317.2h0l.11-.2Z" fill="#0f0060"/>
      <path id="Trazado_119949" data-name="Trazado 119949" d="M221.34,321.91a7.16,7.16,0,0,1-3.6-1.67c-.3.93-1.17,4-.55,4.59s13.7.8,13.89.74-1-3.66-5.83-4.15a7.66,7.66,0,0,1-3.91.49Z" fill="#0f0060"/>
      <path id="Trazado_119950" data-name="Trazado 119950" d="M236.29,278c-3.91-2.55-31.57,1.79-31.57,1.79s-5.95,7.07-13,8.68-15.68.75-15.68.75-.05-.08-.12-.22h0c.12.22,2.1,7.72,6.81,11.19h.06c4.45,3.23,11.35,3.4,20,0,.53-.2,1.07-.43,1.62-.66C213.9,295.5,223.7,290,223.7,290s.31.5-.75,2-4,8.68-4.77,16.24a69.091,69.091,0,0,0-.44,11.91,7.16,7.16,0,0,0,3.6,1.67,7.66,7.66,0,0,0,3.91-.49s6.51-14.45,10.48-25.55S240.19,280.56,236.29,278Z" fill="url(#linear-gradient-2)"/>
      <path id="Trazado_119951" data-name="Trazado 119951" d="M325.38,101.43a2,2,0,0,1-2.29,1.78,17.468,17.468,0,0,1-.65,3.08,17.661,17.661,0,0,1-1.2,3.06c-.06.13-.12.26-.19.39a5.71,5.71,0,0,1-4,2.47,9.58,9.58,0,0,1-4.23-.06,5.46,5.46,0,0,1-3-1.73,11.36,11.36,0,0,1-2.36-6.63c-1.78.41-2.93-4.12-2-4.87.17,0,1.55-.38,2.17,1.74.2.68.42.41.35-1.19a4.45,4.45,0,0,1,1.73-4.13c1.31-1.06,1.95-.11,5.2.39s5.24-1.61,5.93-1.92S322,96.65,322,98.39s1.55,1.74,2,1a1.151,1.151,0,0,0,.1-.24,2,2,0,0,1,1.28,2.28Z" fill="#fdb7b0"/>
      <path id="Trazado_119952" data-name="Trazado 119952" d="M324.65,92.5c-.07-3-3-7.5-9.7-7.37s-8.79,3.78-9.41,6.82a18.49,18.49,0,0,0-.08,7h0c.17,0,1.55-.38,2.17,1.75.2.67.42.4.35-1.2a4.43,4.43,0,0,1,1.74-4.13c1.3-1.06,1.94-.11,5.19.39s5.24-1.61,5.93-1.92S322,96.66,322,98.39s1.55,1.74,2,1a.911.911,0,0,0,.1-.24,24.509,24.509,0,0,0,.55-6.65Z" fill="#3d23b5"/>
      <path id="Trazado_119953" data-name="Trazado 119953" d="M312.85,112.15h0a37,37,0,0,1,.32,4.21v.44h3.9v-4.6A9.54,9.54,0,0,1,312.85,112.15Z" fill="#fdb7b0"/>
      <path id="Trazado_119954" data-name="Trazado 119954" d="M275.32,179.75a33.481,33.481,0,0,1-5.06-5.12c-5.11-6.65-.43-15.78,4.9-20.63a20.657,20.657,0,0,1-2.86.43c-5.82.42-6.95-4.56-7.21-6.27v-2.47c-3.51,5.27-9.54,12.61-9.46,22.25.08,9.83,3.89,14.54,9.09,18.72l.37.28c5.36,4,16.33,6.44,16.33,6.44s2.4-2.21,3.64-3.53a4.35,4.35,0,0,0,1.26-2.65,73.642,73.642,0,0,1-11-7.45Z" fill="#0f0060"/>
      <path id="Trazado_119955" data-name="Trazado 119955" d="M360.29,148a15.2,15.2,0,0,0-3.55-7.49c-2.32-2.61-5.5-3.11-7.57-1.2s-5,3.64-6.28,3.72-2.27-.05-3.06,1c-1.09,1.49.25,4.38,1.86,5.66a3.13,3.13,0,0,0,2.76.59,6.8,6.8,0,0,0,2.7-1.42c1.86-1.48,4.71-4.52,7.56-3.14s2.89,3.3,3.64,4.67,2,2.11,2.06-.74A8.919,8.919,0,0,0,360.29,148Z" fill="#0f0060"/>
      <path id="Trazado_119956" data-name="Trazado 119956" d="M362.77,149.92c.19,1.86-1.93,2.17-1.93,2.17v3.53a9.15,9.15,0,0,1-.63,3.56,8.27,8.27,0,0,1-1.56,2.56,7.58,7.58,0,0,1-2.33,1.82,5.27,5.27,0,0,1-6.62-1,3.68,3.68,0,0,1-.45-.61,40.394,40.394,0,0,1-1.85-4.08c-1.06-2.62-2.23-5.71-2.9-7.3a.78.78,0,0,0-.05-.14v-.07a6.9,6.9,0,0,0,2.7-1.43c1.86-1.48,4.71-4.52,7.55-3.14s2.9,3.3,3.65,4.66,2,2.13,2.07-.73a9.809,9.809,0,0,0-.13-1.68C361.24,147.23,362.6,148.25,362.77,149.92Z" fill="#fdb7b0"/>
      <path id="Trazado_119957" data-name="Trazado 119957" d="M362.22,163.34a3.642,3.642,0,0,0-.28-.77c-.55-1.17-1.26-2.51-1.73-3.39a8.56,8.56,0,0,1-1.55,2.56,22.443,22.443,0,0,0,1.64,2.59,2.18,2.18,0,0,0,.73.71C361.67,165.26,362.52,164.68,362.22,163.34Z" fill="#fdb7b0"/>
      <path id="Trazado_119958" data-name="Trazado 119958" d="M414.36,204.65l-15.13-29.27a3.78,3.78,0,0,0-.1-.72c-.1-.46-.12-.81-.22-1.37-.48-2.84-1.62-8-3.9-11.62-3.3-5.3-7.36-9.48-14.06-7.06-5.21,1.89-14.77,6.7-18.73,8.73.3,1.34-.55,1.92-1.19,1.7a2.1,2.1,0,0,1-.73-.71c-2.43,1.33-13.87,5.25-16.39,10.14s-.28,16.37-5.25,24.23-9,14.46-38,15.28l-3.49,6.9s7.95,3.36,26.06,1.21a54.94,54.94,0,0,0,13-3,7.21,7.21,0,0,1,.61,3.08,19.477,19.477,0,0,1-.52,3.14s3,.83,15.79-1.81,18.53-5.63,18.53-5.63v.09l.11.23c.39.88,1.54,3.42,2.17,4.83.14.3.25.56.32.73.49,1.15,2.89,3.06,20.18-2.4s20.74-14.81,21.08-16.37ZM352.1,211.5c-2.14.67-4.66,1.58-7.07,2.51a16.12,16.12,0,0,0,4.92-7c1.83-5.54,4.58-13,4.73-15.5s.23-4.76,2-1.37c1.64,3.2,7,13.29,7.63,14.45a.671.671,0,0,1,.06.11s-.15.13-.44.34a39.19,39.19,0,0,1-11.83,6.46Z" fill="url(#linear-gradient-3)"/>
      <path id="Trazado_119959" data-name="Trazado 119959" d="M490.33,297.4c-1.16-4.3-5.91-5.44-5.91-5.44h0c1.94,4.66-.53,10.71-.53,10.71l-.63-.3c1.05,1.71,2,7.66,1.91,8.4s-3,4.22-2.43,4.88,5.7.17,6.61-2.64S491.49,301.7,490.33,297.4Z" fill="#0f0060"/>
      <path id="Trazado_119960" data-name="Trazado 119960" d="M371.53,314.43h0c-3.31,1.15-8.14,3.77-8.5,4.64s4.71,1.41,9.84,1.24,7.52.08,7.85-2.07c.25-1.62-.73-3.68-1.23-4.58C378.33,315.24,371.53,314.43,371.53,314.43Z" fill="#0f0060"/>
      <path id="Trazado_119961" data-name="Trazado 119961" d="M336.08,223.15a1,1,0,0,1-.45.12H305.25c-4.84,5.42-3.09,12.56-.86,16.39s4,10.43-1.11,15.89-18.85,2.48-25.44-4.34-2.46-16.5-.48-21,.37-6.95,0-6.95H239.83a.91.91,0,0,1-.46-.13,1.37,1.37,0,0,0-.29.25,1,1,0,0,1,.24.63V256.3s2.46,5.67,11.13,3.33,13.4-4.82,18.73,2.87,5.09,14.88,1.73,21.7-6.57,10.17-15.37,8.31-13.59-6.23-16.22-3v27.45a1,1,0,0,1-.24.63,1,1,0,0,0,.75.36h95.8a1,1,0,0,0,1-1V224A1,1,0,0,0,336.08,223.15Z" fill="#00c8ff"/>
      <path id="Trazado_119962" data-name="Trazado 119962" d="M484.41,292a7.409,7.409,0,0,0-.94-1.69c-3.56-4.71-20.92-15.62-29.1-20.34s-13.73-6.61-19.59-20.66-10.93-34.55-20.43-44.64l.17.33c-.33,1.57-3.8,10.91-21.08,16.37s-19.67,3.55-20.17,2.39c-.07-.17-.19-.42-.31-.72-1.18,2-10,10.64-16.31,18.58s-12.23,13.14-11.57,19.84S351,277.81,357,289.55s14.35,24.57,14.54,24.87h0s6.8.81,8-.78a.73.73,0,0,0,.15-.29c.5-2-6.28-21-9.5-32.33s-6.12-17.36,1-24.55,24.06-20,26.62-21.58,3.8-1.82,8.52,6.53,11.24,22.66,16.86,29.27S439,282.44,451,287.56c10.77,4.61,28.73,13.14,32.27,14.83l.63.3S486.35,296.64,484.41,292Z" fill="#4484cd"/>
      <path id="Trazado_119963" data-name="Trazado 119963" d="M355.91,315.91a46.209,46.209,0,0,0-5.71-2.39v.34c-5.7,2-8.59,0-8.59,0-.58,1.32-.5,3.88,0,4s14.79,0,15.37,0S357.56,316.9,355.91,315.91Z" fill="#aaa9e3"/>
      <path id="Trazado_119964" data-name="Trazado 119964" d="M289.16,177.74c4.72-5.46,3.11-17-1.36-22.57a7.58,7.58,0,0,0-2.95-2.39h0c.85,3.34,1.29,21,1.43,27.27a9.64,9.64,0,0,0,2.88-2.31Z" fill="#0f0060"/>
      <path id="Trazado_119965" data-name="Trazado 119965" d="M335.51,217.28c-.14-.22-4-3.38-4.57-2.63s2.48,4.21,2.48,4.21-5.58-.24-5.58.5,3.72,1.16,3.72,1.16-5.65-.08-5.66,1.15c0,.75,5.54,1,5.54,1s-4.38.74-4.38,1.32,4.79.49,4.79.49-3.43,1-3.14,1.58c.17.37,7.61-.75,7.61-.75S338.15,221.75,335.51,217.28Z" fill="#fdb7b0"/>
      <path id="Trazado_119966" data-name="Trazado 119966" d="M241.18,239.63c-.6-.42-2.1,2.24-2.1,2.24s1.44-4.59.92-5.21c-.34-.42-2.6,3.78-2.6,3.78s2.26-5.55,1.3-6.08c-.47-.26-2.82,5.36-2.82,5.36s1.34-5.54.41-5.23-2,5-2,5c-.37-1.3-1.56-3.8-1.93-2.73s1,4.8,1,4.8-.34-.24,1.15,1.31a19.249,19.249,0,0,0,4.33,3S241.86,240.12,241.18,239.63Z" fill="#fdb7b0"/>
      <path id="Trazado_119967" data-name="Trazado 119967" d="M309.57,109.24c1.31.5,2.61-.29,2.61-2.19a2,2,0,0,0-3.11-1.68C308,106.06,308,108.67,309.57,109.24Z" fill="#ff9e97"/>
      <path id="Trazado_119968" data-name="Trazado 119968" d="M322.44,106.29a17.658,17.658,0,0,1-1.2,3.06,2.58,2.58,0,0,1-2.37-.26,2.43,2.43,0,0,1,.16-3.84C321,104.1,322.2,105.18,322.44,106.29Z" fill="#ff9e97"/>
      <path id="Trazado_119969" data-name="Trazado 119969" d="M309.68,101.27c-.61-.17.53-1.72,2-1.66s2.17,1.94,1.82,2.24-.79-1.43-1.66-1.65c0,0,.4,1.29-.34,1.48s-.69-1.22-.69-1.22S310.05,101.37,309.68,101.27Z" fill="#3c0c07"/>
      <path id="Trazado_119970" data-name="Trazado 119970" d="M316.87,101.58c-.54-.08.25-1.74,1.47-2s2.33,1,2.06,1.52-1-.61-1.51-.71c0,0,.29,1.18-.41,1.34s-.6-1.3-.6-1.3S317.3,101.64,316.87,101.58Z" fill="#3c0c07"/>
      <path id="Trazado_119971" data-name="Trazado 119971" d="M309.67,99l.24-.18a3.6,3.6,0,0,1,.79-.39,3.71,3.71,0,0,1,1.35-.21,2.24,2.24,0,0,1,1.65.76l.08.1h0l.12.2a2.071,2.071,0,0,1,.21.45,5,5,0,0,1,.31,1,13.48,13.48,0,0,1,.24,2.24,23.661,23.661,0,0,0,.08,2.37,5.219,5.219,0,0,0,.18,1.14.92.92,0,0,0,.1.2h0s.08-.08.07-.1l.07-.21a13.34,13.34,0,0,0,.24-2.38c0-.8,0-1.6.06-2.37v-1.15a5.88,5.88,0,0,1,.26-1.16,2.72,2.72,0,0,1,1.5-1.68,2.65,2.65,0,0,1,1.89,0,3,3,0,0,1,1.17.91,3.749,3.749,0,0,1,.45.76,2.271,2.271,0,0,1,.11.29.13.13,0,0,1-.09.16.12.12,0,0,1-.13,0h0l-.19-.22c-.13-.13-.33-.32-.58-.54a3.45,3.45,0,0,0-1-.56c-.06-.06-.23-.06-.35-.09h-.68l-.36.1a1.91,1.91,0,0,0-1,1.21,3.81,3.81,0,0,0-.26.94,1.515,1.515,0,0,1-.07.56,1.453,1.453,0,0,0,0,.55c-.06.77-.12,1.57-.18,2.38a14.648,14.648,0,0,1-.35,2.48,1.859,1.859,0,0,1-.15.36,1.138,1.138,0,0,1-.11.14.61.61,0,0,1-.24.14.51.51,0,0,1-.52-.17,1.17,1.17,0,0,1-.18-.35,5.72,5.72,0,0,1-.21-1.26c-.06-.82,0-1.61-.08-2.38A12.2,12.2,0,0,0,314,101a4.3,4.3,0,0,0-.26-.94,3.79,3.79,0,0,0-.43-.78,1.76,1.76,0,0,0-1.32-.59,3.65,3.65,0,0,0-1.2.13,5,5,0,0,0-.76.26,1.34,1.34,0,0,0-.25.12.13.13,0,0,1-.18,0,.12.12,0,0,1,0-.15Z" fill="#f48480"/>
      <path id="Trazado_119972" data-name="Trazado 119972" d="M306.51,101.9a.12.12,0,0,1-.12-.12,2.57,2.57,0,0,0-.6-1.3.11.11,0,0,1-.07-.15.14.14,0,0,1,.17-.07,2.55,2.55,0,0,1,.75,1.52.12.12,0,0,1-.13.12Z" fill="#ff9e97"/>
      <path id="Trazado_119973" data-name="Trazado 119973" d="M315.57,110.19a2.27,2.27,0,0,1-1.06-.28.12.12,0,0,1,0-.17.13.13,0,0,1,.17,0,1.66,1.66,0,0,0,1.7,0,.124.124,0,0,1,.18.17,1.55,1.55,0,0,1-.99.28Z" fill="#f94e4e"/>
      <path id="Trazado_119974" data-name="Trazado 119974" d="M323.44,102h0a.12.12,0,0,1-.12-.12,2.7,2.7,0,0,1,.95-1.61.13.13,0,0,1,.12.22,2.6,2.6,0,0,0-.83,1.39.12.12,0,0,1-.12.12Z" fill="#ff9e97"/>
      <path id="Trazado_119975" data-name="Trazado 119975" d="M346.13,153a1.889,1.889,0,0,1,.09-.28,1.63,1.63,0,0,1,.6-.7,2.26,2.26,0,0,1,1.35-.41,1,1,0,0,1,.46.06,1.09,1.09,0,0,1,.48.24l.11.09a.63.63,0,0,1,.08.11l.12.18.24.36c.33.49.62,1.11.95,1.71l1,1.89a11.371,11.371,0,0,0,1.17,1.91,1.321,1.321,0,0,0,.37.32h.1a.51.51,0,0,0,.09-.18,1.211,1.211,0,0,0,.05-.52,2.539,2.539,0,0,0-.1-.55,26.263,26.263,0,0,0-2-4.13,4.16,4.16,0,0,1-.5-2.26,2.829,2.829,0,0,1,2.9-2.39,4.37,4.37,0,0,1,1.32.2,4.123,4.123,0,0,1,.78.33,1.211,1.211,0,0,1,.27.21.094.094,0,1,1-.1.16h-.3c-.17,0-.44-.05-.76-.07a6.561,6.561,0,0,0-1.16,0,3,3,0,0,0-1.28.4,2,2,0,0,0-.85,1.29,3.61,3.61,0,0,0,.31,1.86c.27.66.6,1.35.93,2.06a13.689,13.689,0,0,1,.83,2.25,4.215,4.215,0,0,1,.09.62,1.56,1.56,0,0,1-.08.63.79.79,0,0,1-.2.34.45.45,0,0,1-.44.08,1.42,1.42,0,0,1-.53-.41,15.721,15.721,0,0,1-1.28-1.93l-1.1-1.83c-.36-.56-.66-1.09-1-1.57-.08-.12-.16-.24-.25-.35l-.12-.17v-.06h-.05a.37.37,0,0,0-.21-.09.48.48,0,0,0-.27,0,2.5,2.5,0,0,0-1,.27,2.54,2.54,0,0,0-.34.18.9.9,0,0,0-.26.17,1.626,1.626,0,0,1-.22.19.183.183,0,0,1-.29-.21Z" fill="#f48480"/>
      <path id="Trazado_119976" data-name="Trazado 119976" d="M351.34,161.31c-.34,1-.89,1.34-1.64,1.24a3.68,3.68,0,0,1-.45-.61,40.385,40.385,0,0,1-1.85-4.08,1.7,1.7,0,0,1,1.89-.17A3.16,3.16,0,0,1,351.34,161.31Z" fill="#ff9e97"/>
      <path id="Trazado_119977" data-name="Trazado 119977" d="M356.92,153.29c-1.34.34-2.17,2.33-1.51,4.15s3.21,2.35,4.2,1S360.56,152.36,356.92,153.29Z" fill="#ff9e97"/>
      <path id="Trazado_119978" data-name="Trazado 119978" d="M347,155.21c-.46.12-.54-1.16.14-1.8s2.28-.25,2.17.25-.64-.4-1.55,0c0,0,.75.8.38,1.17s-1.08-.43-1.08-.43S347.27,155.13,347,155.21Z" fill="#3c0c07"/>
      <path id="Trazado_119979" data-name="Trazado 119979" d="M352.17,152.63c-.55,0-.48-1.31.25-2.11a1.69,1.69,0,0,1,2.39-.35c.54.43.6,1,.37,1.13s-.82-1.26-1.83-.6c0,0,.89,1,.19,1.58s-1.14-.62-1.14-.62S352.48,152.6,352.17,152.63Z" fill="#3c0c07"/>
      <path id="Trazado_119980" data-name="Trazado 119980" d="M353.94,161.31a1,1,0,0,1-.44-.08.11.11,0,0,1-.07-.16.13.13,0,0,1,.16-.07.93.93,0,0,0,1.21-.53.14.14,0,0,1,.17-.06.13.13,0,0,1,.06.17,1.15,1.15,0,0,1-1.09.73Z" fill="#f94e4e"/>
      <g id="Grupo_80461" data-name="Grupo 80461">
        <path id="Trazado_119981" data-name="Trazado 119981" d="M379.92,188.73c-4.35,7-15.58,15.92-15.58,15.92a.666.666,0,0,0-.06-.11c2.16-1.8,11.59-9.76,15.43-15.93,4.29-6.89,3.11-16,2.29-18.94l.23-.07C383.06,172.57,384.26,181.78,379.92,188.73Z" fill="#3d23b5"/>
        <path id="Trazado_119982" data-name="Trazado 119982" d="M392,201.28l-.51.74c-4.56,6.64-14.3,12.39-19,15.15-.7.4-1.29.75-1.7,1l-.11-.23c.41-.26,1-.59,1.68-1,4.67-2.75,14.37-8.47,18.9-15.07l.51-.74c5.1-7.39,8.17-11.86,7-27.85h.12c.1.56.17,1,.22,1.37C400,189.62,397,194.05,392,201.28Z" fill="#3d23b5"/>
      </g>
      <path id="Trazado_119983" data-name="Trazado 119983" d="M201.52,267.68h-.07s-3.45-2.54-8.83-10.2-6.52-13.67-3.56-18.16a.13.13,0,0,1,.17,0,.12.12,0,0,1,0,.17c-2.9,4.4-1.71,10.42,3.55,17.89s8.74,10.11,8.77,10.14a.12.12,0,0,1,0,.17.141.141,0,0,1-.03-.01Z" fill="#b6c5ff"/>
      <path id="Trazado_119984" data-name="Trazado 119984" d="M92.46,226.23a3.63,3.63,0,0,0-.69-.84l-.09.05c-1.49-2.46-2.92-4.88-3.62-6.22l.22-.11C89.06,220.61,90.76,223.47,92.46,226.23Z" fill="#ff9e97"/>
      <path id="Trazado_119985" data-name="Trazado 119985" d="M113.85,169.06h-.08A25.71,25.71,0,0,1,107,160.8a.126.126,0,1,1,.23-.1,25.51,25.51,0,0,0,6.66,8.14.12.12,0,0,1,0,.17A.14.14,0,0,1,113.85,169.06Z" fill="#0f0060"/>
      <path id="Trazado_119986" data-name="Trazado 119986" d="M361.1,151.34a.12.12,0,0,1-.13-.12v-.15a2.64,2.64,0,0,1,.17-1.78.127.127,0,1,1,.18.18c-.3.37-.18,1.22-.12,1.58v.19a.12.12,0,0,1-.1.1Z" fill="#ff9e97"/>
    </g>
    <rect id="Rectángulo_34633" data-name="Rectángulo 34633" width="395.88" height="263.92" transform="translate(67.97 75.15)" fill="none"/>
  </g>
</svg>
