<?xml version="1.0" encoding="utf-8"?>
<!-- Generator: Adobe Illustrator 26.0.1, SVG Export Plug-In . SVG Version: 6.00 Build 0)  -->
<svg version="1.1" id="Capa_1" xmlns="http://www.w3.org/2000/svg" xmlns:xlink="http://www.w3.org/1999/xlink" x="0px" y="0px"
	 viewBox="0 0 100 100" style="enable-background:new 0 0 100 100;" xml:space="preserve">
<style type="text/css">
	.st0{clip-path:url(#SVGID_00000070089698460870290750000016902813212803327655_);}
	.st1{fill:#0B3360;}
	.st2{fill:#FFA726;}
	.st3{fill:#FAFAFA;}
	.st4{fill:#FFBF9D;}
	.st5{fill:#375A64;}
	.st6{fill:#FFFFFF;}
	.st7{fill:#FF9A6C;}
</style>
<g id="Capa_1_00000034069817607356709960000013634377290295259780_">
	<g>
		<defs>
			<rect id="SVGID_1_" width="100" height="100"/>
		</defs>
		<clipPath id="SVGID_00000004524588001530330270000014649389597108418456_">
			<use xlink:href="#SVGID_1_"  style="overflow:visible;"/>
		</clipPath>
		<g style="clip-path:url(#SVGID_00000004524588001530330270000014649389597108418456_);">
			<g>
				<g>
					<path class="st1" d="M-8.5,80.6c0.1,0,4.1,11.8,9,26.4s8.7,26.5,8.6,26.5c-0.1,0.1-4.1-11.8-9-26.4S-8.6,80.7-8.5,80.6z"/>
				</g>
				<g>
					<g>
						<path class="st2" d="M7.7,67.7l5.6,27.8l-1,20.9l37.4-6.3l-1.5-18.2V76.8l9.1,17.8l7.2-13.8L51.4,57.1l0,0
							c-2.4-2.5-5.3-4.4-8.6-5.5c-1.7-0.6-3.5-1-5.4-1l0,0c-4.2,1.3-8.7,1.3-13,0l-2.2,0.2h-0.2c-8,1-14,7.6-14.4,15.6L7.7,67.7z"/>
						<path class="st2" d="M22.4,50.8c0,0-15.4,0.1-17.3,16.4L4.8,79.1L18,78.9L22.4,50.8z"/>
					</g>
					<path class="st3" d="M59.1,71.7c0,0.1-12.1,0.2-27,0.2S5,71.8,5,71.7c0-0.1,12.1-0.2,27-0.2S59.1,71.6,59.1,71.7z"/>
					<path class="st3" d="M59.1,74.3c0,0.1-12.1,0.2-27,0.2S5,74.3,5,74.3s12.1-0.2,27-0.2S59.1,74.1,59.1,74.3z"/>
					<path class="st3" d="M58.2,69.5c0,0.1-11.9,0.2-26.6,0.2S5,69.7,5,69.5s11.9-0.2,26.6-0.2S58.2,69.4,58.2,69.5z"/>
					<path class="st1" d="M48,94.6c-0.1,0-0.1-6.6,0.1-14.7s0.4-14.7,0.5-14.7s0.1,6.6-0.1,14.7S48.1,94.6,48,94.6z"/>
					<path class="st4" d="M42.7,83.9c0,0,7.3,0.5,8.6,2.4c1.3,1.9,3.3,7.4,2.6,7.5c-0.5,0-0.9-0.1-1.3-0.4l-2-3.6
						c0,0,0.3,3.4-0.9,3.5c-1.2,0.1-7.1,1.2-7.1,1.2L42.7,83.9z"/>
					<path class="st2" d="M4.8,75.9v18.7c0.2,3.9,3.6,7,7.6,6.7c0.3,0,0.7-0.1,1-0.1l29.3-6l-0.1-12L17.4,88L17,75.2L4.8,75.9z"/>
					<path class="st1" d="M21.6,99.7l0.4-0.1l1.1-0.3l4.3-0.9l15.2-3.1l-0.1,0.2c0-3.8,0-7.9,0-12.4l0.3,0.2l-5.2,1l-20.1,3.8h-0.2
						V88c0.2-5.6,0.3-10.2,0.5-13.5c0.1-1.6,0.1-2.9,0.2-3.8c0-0.4,0-0.7,0.1-1c0-0.1,0-0.2,0-0.3c0,0.1,0,0.2,0,0.3
						c0,0.3,0,0.6,0,1c0,0.9,0,2.2-0.1,3.8c-0.1,3.3-0.2,7.9-0.3,13.5l-0.2-0.2l20.1-3.9l5.2-1l0.3-0.1v0.3c0,4.4,0,8.6,0,12.4v0.2
						h-0.1l-15.3,3l-4.3,0.8L22,99.6C21.8,99.7,21.7,99.7,21.6,99.7z"/>
					<path class="st1" d="M38.4,50.8c0,0,0.1,0.1,0.1,0.3c0.1,0.3,0.2,0.5,0.2,0.8c0.2,1,0.2,2.1-0.1,3.2c-0.5,1.5-1.3,2.9-2.5,3.9
						c-1.5,1.3-3.4,2-5.4,2c-2,0-3.9-0.7-5.3-2.1c-1.1-1.2-1.8-2.6-1.9-4.2c-0.1-1.1,0-2.1,0.4-3.1c0.1-0.3,0.2-0.5,0.4-0.8
						c0.1-0.2,0.2-0.3,0.2-0.3c0,0-0.2,0.4-0.4,1.1c-0.3,1-0.4,2-0.2,3c0.2,1.5,0.9,2.9,1.9,4c1.3,1.3,3.1,2,5,2
						c1.9,0,3.7-0.7,5.1-1.9c1.2-1,2-2.3,2.5-3.7c0.3-1,0.4-2,0.3-3.1C38.5,51.2,38.3,50.8,38.4,50.8z"/>
					<path class="st3" d="M39.8,96.2c-0.1-0.6-0.1-1.2,0-1.9c0-1.1,0.1-2.7,0.1-4.5c0-1.8,0-3.3-0.1-4.5c-0.1-0.6-0.1-1.2,0-1.8
						c0.2,0.6,0.3,1.2,0.3,1.8c0.1,1.1,0.2,2.7,0.2,4.5s-0.1,3.3-0.2,4.5C40.1,94.9,40,95.5,39.8,96.2z"/>
					<path class="st3" d="M38.3,96.5c-0.1-0.6-0.1-1.2-0.1-1.8c0-1.3,0-2.8,0-4.4v-4.5c0-0.6,0-1.2,0.1-1.8c0.1,0.6,0.2,1.2,0.2,1.8
						c0.1,1.1,0.1,2.7,0.1,4.5c0,1.8-0.1,3.3-0.2,4.4C38.5,95.3,38.4,95.9,38.3,96.5z"/>
				</g>
				<g>
					<polygon class="st5" points="31.1,99 88,99.5 98.6,69.5 57.2,69.8 47.6,96.8 31.1,97 					"/>
					<path class="st6" d="M77,87.1c-1.3-0.2-2.1-1.3-2-2.6c0.2-1.3,1.3-2.1,2.6-2c1.3,0.2,2.1,1.3,2,2.6c0,0,0,0,0,0
						C79.4,86.4,78.3,87.3,77,87.1z"/>
				</g>
				<g>
					<path class="st1" d="M29.2,17.8c0.5-2,2-3,4-3.6c2-0.7,4.2-0.3,5.9,0.9c1.1,0.8,2,2.1,3.3,2.5c2.1,0.8,4.7-0.9,6.7,0.1
						c1.2,0.6,1.9,2,1.6,3.4c-0.4,1.3-1.6,2.3-3,2.2c1.3,0.6,1.8,2.2,1.2,3.5c0,0.1-0.1,0.2-0.2,0.3c-0.9,1.2-2.5,1.8-4,1.5
						c-1.5-0.4-2.8-1.1-3.9-2.2c-1.1-1-2.1-2.1-3.3-3c-1.2-1-2.6-1.5-4.1-1.5c-2,0.2-3.8,1.6-4.6,3.4c-0.8,1.9-1.2,3.9-1.2,5.9
						c0,2-0.3,4-0.7,6c-0.1,0.2-0.2,0.5-0.4,0.6s-0.6-0.3-0.8-0.6c-1.8-3.4-3-7.2-3.4-11c-0.2-2.2-0.2-4.4,1.1-6.3
						C24.6,18,27.7,16.6,29.2,17.8"/>
					<g>
						<g>
							<path class="st4" d="M25.3,27.2l-1,22.6c-0.2,3.9,0.3,9.5,6.4,9.5l0,0c5.3-0.4,6.9-5.4,7-9c0.1-1.7,0.1-3.1,0.2-3.3
								c0,0,5.8-0.3,6.5-6c0.3-2.7,0.5-8.5,0.7-13.6c0.1-5.6-4-10.3-9.5-10.9L35,16.6C29,16.3,25.5,21.2,25.3,27.2z"/>
							<path class="st7" d="M37.9,47.1c-2.6-0.2-5.1-1.2-7.2-2.9c0,0,1.3,4.3,7.1,4.4L37.9,47.1z"/>
						</g>
						<g>
							<g>
								<g>
									<path class="st1" d="M43,31.2c0,0.4-0.4,0.8-0.9,0.7c0,0,0,0,0,0c-0.4,0-0.8-0.4-0.8-0.8c0,0,0,0,0,0
										c0-0.4,0.4-0.8,0.9-0.7c0,0,0,0,0,0C42.7,30.4,43,30.7,43,31.2C43,31.2,43,31.2,43,31.2z"/>
									<path class="st1" d="M43.5,30.2c-0.1,0.1-0.7-0.4-1.6-0.5c-0.9-0.1-1.6,0.3-1.6,0.2c-0.1-0.1,0.1-0.2,0.4-0.4
										c0.4-0.2,0.9-0.3,1.3-0.3c0.5,0,0.9,0.2,1.2,0.5C43.5,30,43.6,30.2,43.5,30.2z"/>
								</g>
								<g>
									<path class="st1" d="M34.4,30.6c0,0.4-0.4,0.8-0.9,0.7c-0.4,0-0.8-0.3-0.8-0.8c0,0,0,0,0,0c0-0.4,0.4-0.8,0.9-0.7
										c0,0,0,0,0,0C34.1,29.8,34.4,30.1,34.4,30.6C34.4,30.6,34.4,30.6,34.4,30.6z"/>
									<path class="st1" d="M34.9,29.5c-0.1,0.1-0.7-0.4-1.6-0.5c-0.9-0.1-1.6,0.3-1.6,0.2c-0.1-0.1,0.1-0.2,0.4-0.4
										c0.4-0.2,0.9-0.3,1.3-0.3c0.5,0,0.9,0.2,1.2,0.5C34.9,29.2,35,29.4,34.9,29.5z"/>
								</g>
								<path class="st1" d="M37.4,36.3c0.5-0.1,1-0.1,1.5-0.1c0.2,0,0.4,0,0.5-0.2c0-0.2,0-0.5-0.1-0.7c-0.2-0.6-0.3-1.2-0.5-1.8
									c-0.5-1.5-0.8-3-1-4.6c0.6,1.5,1,3,1.4,4.5c0.2,0.6,0.3,1.2,0.4,1.8c0.1,0.3,0.1,0.6,0,0.9c-0.1,0.2-0.2,0.3-0.4,0.3
									c-0.1,0-0.3,0-0.4,0C38.3,36.4,37.9,36.4,37.4,36.3z"/>
								<path class="st1" d="M34.8,36.6c0.1,0,0,1,0.8,1.7c0.8,0.8,1.8,0.8,1.8,0.9s-0.2,0.2-0.7,0.1c-0.6,0-1.1-0.3-1.5-0.7
									c-0.4-0.4-0.6-0.9-0.6-1.4C34.6,36.8,34.7,36.6,34.8,36.6z"/>
							</g>
							<path class="st1" d="M35.5,26.1c-0.1,0.2-1,0-2,0c-1,0-1.9,0.2-2,0c-0.1-0.2,0.1-0.3,0.5-0.5c0.5-0.2,1-0.4,1.5-0.4
								c0.5,0,1.1,0.1,1.5,0.3C35.4,25.7,35.6,26,35.5,26.1z"/>
							<path class="st1" d="M43.5,27.6c-0.2,0.2-0.8-0.1-1.5-0.2c-0.7-0.1-1.4,0-1.5-0.2c-0.1-0.2,0.1-0.3,0.3-0.5
								c0.4-0.2,0.8-0.3,1.2-0.2c0.4,0.1,0.8,0.2,1.1,0.5C43.5,27.3,43.6,27.6,43.5,27.6z"/>
						</g>
					</g>
					<g>
						<path class="st4" d="M25.3,31.5c-0.1-0.1-3.8-1.6-4.1,2.3C21,37.7,25,37.2,25,37.1C25,37,25.3,31.5,25.3,31.5z"/>
						<path class="st7" d="M23.9,35.5c0,0-0.1,0-0.2,0.1c-0.2,0.1-0.3,0.1-0.5,0c-0.5-0.4-0.7-1-0.7-1.6c0-0.3,0.1-0.7,0.3-1
							c0.1-0.2,0.3-0.4,0.6-0.5c0.2,0,0.3,0.1,0.4,0.2c0,0.1,0,0.2,0,0.2s0.1-0.1,0.1-0.2c0-0.1-0.1-0.2-0.1-0.3
							c-0.1-0.1-0.2-0.1-0.4-0.1c-0.3,0-0.6,0.2-0.8,0.5c-0.2,0.3-0.3,0.7-0.3,1.1c-0.1,0.7,0.3,1.4,0.9,1.8
							c0.2,0.1,0.4,0.1,0.6-0.1C23.9,35.6,23.9,35.5,23.9,35.5z"/>
					</g>
					<path class="st1" d="M46.4,26.5c-2.6,0.4-5.3-0.5-7.2-2.4c-1.3-1.3-2.1-3.1-3.8-3.8c-1.2-0.4-2.5-0.4-3.6,0.1
						c-1.1,0.5-2.1,1.3-2.9,2.2c0.8,3-0.3,6.1-1.3,9.1c-0.1,0.3-0.3,0.6-0.5,0.9c-0.6,0.2-1.2,0-1.5-0.5c-0.5-0.8-0.8-1.7-0.8-2.6
						c-0.2-2.1,0.1-4.2,0.7-6.3c0.7-2,1.9-3.8,3.6-5.2c2.2-1.6,4.9-2.3,7.5-2c2.7,0.4,5.1,1.6,7.1,3.4c0.9,0.8,1.7,1.8,2.1,3"/>
				</g>
			</g>
		</g>
	</g>
</g>
</svg>
