<?xml version="1.0" encoding="utf-8"?>
<!-- Generator: Adobe Illustrator 26.0.1, SVG Export Plug-In . SVG Version: 6.00 Build 0)  -->
<svg version="1.1" id="Capa_1" xmlns="http://www.w3.org/2000/svg" xmlns:xlink="http://www.w3.org/1999/xlink" x="0px" y="0px"
	 viewBox="0 0 100 100" style="enable-background:new 0 0 100 100;" xml:space="preserve">
<style type="text/css">
	.st0{clip-path:url(#SVGID_00000078030877705841025270000017994989224903438492_);}
	.st1{fill:#71D9E7;}
	.st2{fill:#0B3360;}
	.st3{fill:#C17560;}
	.st4{fill:#7C4236;}
	.st5{fill:#FFFFFF;}
	.st6{fill:#375A64;}
	.st7{opacity:0.3;}
</style>
<g id="Capa_1_00000120561313332585596570000003233636774521308036_">
	<g>
		<defs>
			<rect id="SVGID_1_" width="100" height="100"/>
		</defs>
		<clipPath id="SVGID_00000183954340732581117540000009158694885390671501_">
			<use xlink:href="#SVGID_1_"  style="overflow:visible;"/>
		</clipPath>
		<g style="clip-path:url(#SVGID_00000183954340732581117540000009158694885390671501_);">
			<g>
				<g>
					<g>
						<path class="st1" d="M15,64.2l4.7,17.1l2.1,9.1c0,7.8-2.1,11.4-2.1,11.4l32-1.6c0,0,0.5-21.7,0-25.8l-3.9-14.2l-10.2-2.5
							L25,58L15,64.2z"/>
						<path class="st2" d="M59,88.3c-0.1-0.3-0.1-0.6-0.1-0.8c0-1.4,0.5-2.7,1.4-3.8c0.3-0.4,0.6-0.6,0.6-0.6
							c-0.6,0.7-1.1,1.5-1.4,2.4C59.2,86.4,59,87.3,59,88.3z"/>
						<path class="st1" d="M62.4,70.5l-6.8,6.7l-2-10.2c-1.4-1.4,2.4-3.2,0.9-4.4C50.2,59,47,60.5,47,60.5l-12.9,9.2l7.5,7.4
							c0,0,8.8,15.8,14.2,15.3C64.2,91.5,62.4,70.5,62.4,70.5L62.4,70.5z"/>
					</g>
				</g>
				<g>
					<path class="st2" d="M48.8,45.5c-0.8,0.1-1.6-0.3-2-0.9c0.5,0.1,1.1,0.1,1.5-0.1c0.5-0.2,0.7-0.9,0.4-1.3
						c-0.4-0.4-0.8-0.2-1.2-0.3c-1-0.1-1.8-0.7-2.1-1.7c-0.2-1-0.2-2.1,0.1-3.1c0.3-3.1-1.1-6.1-3.6-7.9l-6.5-3.8
						c-2.3,3.2-3.2,7.1-2.6,11c0.6,3.8,2,7.5,4.1,10.7c0.5,1,1.2,1.9,2,2.8c0.8,0.8,1.8,1.3,2.9,1.5c0.3-0.9,0.1-2-0.5-2.8
						c1.8,0.1,3.6-0.5,4.9-1.7l-1.4-1.1C46.1,47.1,47.7,46.6,48.8,45.5z"/>
					<g>
						<g>
							<path class="st3" d="M23.6,34.8c0.1-2.7,1.9-5,4.4-5.8l8.3-2.3c3.6-0.5,6.1,3.8,6.4,7.4c0.5,3.7,0.5,7.4,0.3,11.2
								c-0.8,6-5.3,6.9-5.3,6.9s0.1,2.8,0.1,4.5L37.7,70L25.5,56.9L23.6,34.8C23.5,34.8,23.5,35,23.6,34.8z"/>
							<path class="st2" d="M41.6,38.7c0,0.4-0.3,0.8-0.7,0.8c-0.4,0-0.8-0.3-0.8-0.7c0,0,0,0,0,0c0-0.4,0.3-0.8,0.7-0.8
								C41.2,38,41.5,38.3,41.6,38.7C41.6,38.7,41.6,38.7,41.6,38.7z"/>
							<path class="st2" d="M41.8,36.5c-0.1,0.1-0.7-0.3-1.5-0.3c-0.8,0-1.4,0.5-1.5,0.4c-0.1-0.1,0-0.2,0.3-0.4
								c0.3-0.3,0.8-0.4,1.2-0.4c0.4,0,0.9,0.1,1.2,0.3C41.7,36.3,41.8,36.5,41.8,36.5z"/>
							<path class="st2" d="M34.4,38.7c0,0.4-0.3,0.8-0.7,0.8c-0.4,0-0.8-0.2-0.8-0.6c0,0,0,0,0,0c0-0.4,0.3-0.8,0.7-0.8
								C33.9,38,34.3,38.3,34.4,38.7C34.4,38.7,34.4,38.7,34.4,38.7z"/>
							<path class="st2" d="M34,36.7c-0.1,0.1-0.7-0.3-1.5-0.3c-0.8,0-1.4,0.5-1.5,0.4c-0.1-0.1,0-0.2,0.3-0.4
								c0.3-0.3,0.7-0.4,1.2-0.4c0.4,0,0.9,0.1,1.2,0.3C33.9,36.5,34,36.7,34,36.7z"/>
							<path class="st2" d="M36.7,43.1c0.4-0.1,0.9-0.2,1.3-0.3c0.2,0,0.4-0.1,0.4-0.2c0-0.2,0-0.4-0.2-0.6l-0.7-1.6
								c-0.6-1.3-1.1-2.7-1.5-4.2c0.7,1.3,1.3,2.6,1.8,4c0.2,0.6,0.4,1.1,0.6,1.6c0.1,0.2,0.2,0.5,0.1,0.8c-0.1,0.2-0.2,0.3-0.3,0.3
								c-0.1,0-0.2,0.1-0.4,0.1C37.6,43.2,37.2,43.2,36.7,43.1z"/>
							<path class="st4" d="M29.6,50.3c0,0,2.1,4.1,8,3.3v-1.4C34.8,52.3,32,51.7,29.6,50.3z"/>
							<path class="st2" d="M33.6,34.1c-0.1,0.2-0.9,0.1-1.8,0.3s-1.7,0.4-1.8,0.2c-0.1-0.2,0.1-0.3,0.4-0.5
								c0.8-0.6,1.9-0.7,2.9-0.4C33.5,33.8,33.6,34,33.6,34.1z"/>
							<path class="st2" d="M41.4,34c-0.1,0.2-0.7,0-1.4,0s-1.3,0.2-1.4,0s0-0.3,0.3-0.5c0.7-0.5,1.6-0.5,2.2,0
								C41.4,33.7,41.5,33.9,41.4,34z"/>
						</g>
						<path class="st4" d="M33.6,44.7c0.1-0.5,0.6-0.9,1.1-0.9c0.4,0,0.7,0.3,0.9,0.6c0.2,0.3,0.2,0.7,0.1,1.1v0.1
							c-0.3,0.4-0.9,0.5-1.4,0.3C33.9,45.8,33.6,45.3,33.6,44.7z"/>
						<path class="st2" d="M36.3,45.6c0-0.1-0.8-0.1-1.5-0.7c-0.6-0.7-0.6-1.6-0.7-1.6c-0.1,0-0.1,0.2-0.1,0.6
							c0,0.5,0.2,0.9,0.6,1.3c0.3,0.3,0.8,0.5,1.2,0.6C36.1,45.8,36.3,45.7,36.3,45.6z"/>
					</g>
					<path class="st2" d="M26.3,25.3c1.1-1.6,2.9-2.8,4.8-3.3c1.6-0.4,3.2,0,4.4,1.2c0.5,0.5,1.2,0.9,1.9,1.1c1,0,1.9,0.2,2.8,0.6
						c1.5,0.8,2.2,2.8,2.9,4.4c0.9,1.9,2.1,3.7,2.7,5.8c0.6,2,0.3,4.6-1.5,5.8c0.3-1.7,0.6-3.7-0.4-5.2c-0.7-1.1-2-1.8-3-2.8
						c-1.1-1.2-1.3-2.8-2.5-3.9C35.9,26.5,31.1,31,26.3,25.3"/>
					<path class="st2" d="M43.5,33.5c-0.6-1.7-1.5-3.4-2.7-4.8c-3.1-3.7-8.5-4.3-12.5-1.6h-0.5c1.5,1.9,3.8,3,6.2,3
						c1.4,0,2.9-0.4,4.1,0.4c1.2,0.7,1.6,2.1,2.5,3.1c0.7,0.7,1.5,1,2.1,1.7c0.6,0.8,1.1,1.6,1.3,2.6C44.6,36.4,44.1,34.9,43.5,33.5
						z"/>
					<path class="st2" d="M30.9,28.2l-3.8-3.4c-3-0.2-4.9,2.7-5.9,4.8c-0.6,1.7-1.2,3.4-1.6,5.1c-0.6,1.7-1.5,3.4-2.1,5.1
						c-0.7,1.7-0.5,3.7,0.4,5.3c0.2-0.4,0.4-0.8,0.7-1.2c0.1,1.7,0.8,3.3,2,4.6c0.1-0.4,0.2-0.9,0.3-1.3c0.6,1.3,1.6,2.4,2.9,3.1
						l1.8,4.8C28.2,47.1,21.4,46.5,30.9,28.2z"/>
					<path class="st2" d="M30.4,28.9c-0.2,1.1-0.5,2.2-0.9,3.2c-0.4,1-1.1,1.9-2,2.6c-1.3,0.9-3,1.1-4.6,1.5s-3.3,1.1-3.9,2.6
						c0.3-2.2,0.7-4.3,1.3-6.4c0.7-2.3,1.7-4.7,3.7-6.1c1.8-1.4,4.2-1.7,6.3-0.9"/>
					<g>
						<g>
							<path class="st3" d="M26.3,39.5c-0.1-0.2-3.8-1.4-3.7,2.5s3.9,2.9,3.9,2.8C26.4,44.7,26.3,39.5,26.3,39.5z"/>
							<path class="st4" d="M25.2,43.4c0,0-0.1,0-0.2,0.1c-0.2,0.1-0.3,0.1-0.5,0c-0.5-0.3-0.8-0.9-0.8-1.4c0-0.3,0-0.6,0.2-0.9
								c0.1-0.2,0.3-0.4,0.5-0.5c0.2,0,0.3,0,0.4,0.2c0,0.1,0,0.2,0,0.2s0.1-0.1,0-0.2c0-0.1-0.1-0.2-0.2-0.2
								c-0.1-0.1-0.2-0.1-0.4-0.1c-0.3,0.1-0.6,0.3-0.7,0.6c-0.1,0.3-0.2,0.7-0.2,1c0,0.7,0.4,1.3,1,1.6c0.2,0.1,0.4,0,0.6-0.1
								C25.2,43.5,25.3,43.4,25.2,43.4z"/>
						</g>
						<g>
							<path class="st5" d="M24.8,44.1C24.4,44,24,44.3,24,44.7s0.2,0.8,0.6,0.9c0.4,0.1,0.7-0.1,0.8-0.5c0.1-0.4-0.1-0.7-0.4-0.9"
								/>
							<path class="st2" d="M25,44.1c0,0,0.2,0.1,0.4,0.5c0.1,0.2,0,0.4-0.1,0.6c-0.2,0.3-0.6,0.3-0.9,0.1c-0.1-0.1-0.2-0.3-0.2-0.4
								c0-0.2,0-0.4,0.2-0.6c0.2-0.1,0.4-0.2,0.6-0.2c0,0-0.1,0-0.2,0c-0.4,0-0.8,0.4-0.8,0.8c0,0,0,0.1,0,0.1
								c0,0.3,0.3,0.6,0.6,0.7c0.3,0.1,0.7,0,0.9-0.3c0.3-0.4,0.2-0.9-0.2-1.1c0,0,0,0,0,0C25.1,44.1,25,44.1,25,44.1z"/>
						</g>
					</g>
					<path class="st6" d="M30.6,29.2c-0.4-0.9-0.9-1.7-1.5-2.4c-0.7-0.7-1.4-1.3-2.2-1.8c0.3,0.1,0.6,0.2,0.8,0.3
						c1.2,0.7,2.2,1.8,2.7,3.1C30.5,28.6,30.6,28.9,30.6,29.2z"/>
				</g>
				<g>
					<g>
						<path class="st2" d="M92.8,30.3c-8.9-9.4-23.8-9.8-33.3-0.9s-9.8,23.8-0.9,33.3s23.8,9.8,33.3,0.9c4.5-4.3,7.2-10.2,7.3-16.5
							C99.4,40.9,97.1,34.8,92.8,30.3z M76.3,25.2c11.7,0.3,20.9,10,20.6,21.7c-0.3,11.7-10,20.9-21.7,20.6s-20.9-10-20.6-21.7
							c0.3-9.5,6.8-17.6,16-19.9C72.4,25.4,74.3,25.2,76.3,25.2z"/>
						<path class="st2" d="M60,58.1c0,0-0.1-0.1-0.1-0.1l-0.4-0.4c-0.2-0.2-0.3-0.4-0.5-0.7c-0.2-0.3-0.4-0.6-0.6-1L58,55.2
							c-0.1-0.2-0.2-0.4-0.3-0.7c-0.2-0.5-0.4-1-0.7-1.5c-0.4-1.2-0.8-2.4-1-3.7c-0.2-1.2-0.3-2.5-0.2-3.8c0-0.6,0.1-1.1,0.1-1.6
							c0-0.3,0.1-0.5,0.1-0.7s0.1-0.5,0.1-0.7c0.1-0.4,0.2-0.8,0.3-1.1c0.1-0.3,0.2-0.6,0.3-0.9L57,40c0-0.1,0-0.1,0.1-0.2
							c0,0,0,0.1,0,0.2l-0.2,0.5c-0.1,0.2-0.2,0.5-0.2,0.9c-0.1,0.3-0.2,0.7-0.3,1.1c0,0.2-0.1,0.4-0.1,0.7c0,0.2-0.1,0.5-0.1,0.7
							c-0.1,0.5-0.1,1.1-0.1,1.6c0,1.2,0,2.5,0.2,3.7c0.2,1.2,0.5,2.4,0.9,3.6c0.2,0.5,0.4,1,0.6,1.5c0.1,0.2,0.2,0.5,0.3,0.7
							c0.1,0.2,0.2,0.4,0.3,0.6c0.2,0.4,0.4,0.7,0.6,1c0.2,0.3,0.3,0.5,0.5,0.7l0.3,0.5C59.9,58,60,58,60,58.1z"/>
						<path class="st2" d="M64.1,61.2c-0.3,0-0.6-0.1-0.9-0.2c-0.4-0.2-0.7-0.5-0.7-0.6s0.4,0.2,0.8,0.4
							C63.8,61,64.1,61.1,64.1,61.2z"/>
						<g>
							<g>
								<path class="st6" d="M52.2,40.3c2.4-12.6,14.5-20.8,27.1-18.4S100.1,36.5,97.7,49c-0.9,4.8-3.3,9.1-6.8,12.4l0,0
									c-9.3,8.8-23.9,8.5-32.7-0.8C53,55.3,50.8,47.7,52.2,40.3z M96.2,48.7c2.2-11.7-5.4-23-17.2-25.3s-23,5.4-25.3,17.2
									c-2.2,11.7,5.4,23,17.2,25.3c6.8,1.3,13.9-0.8,18.9-5.6C93.1,57.2,95.3,53.2,96.2,48.7z"/>
								<path class="st6" d="M80.7,67.5c-12.6,3.2-25.4-4.4-28.6-17c-3.2-12.6,4.4-25.4,17-28.6c12.6-3.2,25.4,4.4,28.6,17
									c2.1,8.3-0.4,17-6.6,22.9C88.2,64.5,84.6,66.5,80.7,67.5z M69.3,22.6c-12.2,3.1-19.6,15.5-16.5,27.7s15.5,19.6,27.7,16.5
									c12.2-3.1,19.6-15.5,16.5-27.7c-2.5-9.9-11.3-17-21.5-17.2C73.4,21.8,71.4,22.1,69.3,22.6z M80.3,66c-1.9,0.5-4,0.7-6,0.7
									C62.3,66.4,52.7,56.3,53,44.1C53.3,32,63.4,22.4,75.5,22.7c5.8,0.1,11.4,2.6,15.4,6.8c4.9,5.2,7,12.3,5.7,19.3l0,0
									C94.9,57.2,88.6,63.9,80.3,66z M69.7,24.1c-11.4,2.9-18.3,14.4-15.4,25.8c2.9,11.4,14.4,18.3,25.8,15.4
									c8-2,14.1-8.5,15.7-16.6l0,0c1.3-6.7-0.8-13.7-5.5-18.6c-3.9-4.1-9.2-6.5-14.9-6.6C73.5,23.4,71.6,23.6,69.7,24.1z"/>
							</g>
							<path class="st6" d="M22.9,102.8l-0.6-0.5c-1.2-1.2-0.8-3.6,0-4.4L58,60.4c0.2-0.2,0.5-0.1,0.8,0.1l4,3.8
								c0.2,0.2,0.3,0.5,0.2,0.8l-35.5,37.2C26.7,103.1,24.1,103.9,22.9,102.8z"/>
						</g>
					</g>
					<g>
						<path class="st3" d="M53.8,76.4l1.9-2c0,0-0.2-4.6,0.6-5.8l0.4-0.7c0,0-0.4-2.3,0.8-2.8c0.3-0.9,0.8-1.2,1.4-0.7
							c0,0-0.3-1.7,1.2-1.9c1.6-0.2,2,7,2,7s0.8,3.2-1,3.2c-0.6,0.6-1.3,1.1-2.1,1.2c0,0-0.3,1.9-1.9,1.8L53.8,76.4z"/>
						<path class="st4" d="M58.7,73.1c0,0,0.1,0.1,0.2,0.2c0.1,0.2,0.1,0.5,0.1,0.8c-0.1,0.4-0.3,0.8-0.6,1
							c-0.4,0.3-0.8,0.6-1.3,0.7c-0.8,0.3-1.7,0.5-2.5,0.5c-0.4,0-0.7,0-1.1-0.1c1.2-0.1,2.4-0.3,3.5-0.7c0.4-0.1,0.8-0.3,1.2-0.6
							c0.3-0.2,0.5-0.6,0.6-0.9C58.9,73.7,58.9,73.4,58.7,73.1z"/>
						<path class="st4" d="M60.1,70.5c-0.1,0-0.1-1.4-0.4-3.2s-0.9-3.1-0.8-3.1c0.2,0.3,0.3,0.6,0.4,0.9c0.3,0.7,0.5,1.5,0.6,2.2
							c0.1,0.8,0.2,1.5,0.2,2.3C60.2,69.9,60.2,70.2,60.1,70.5z"/>
						<path class="st4" d="M58.8,71.3c-0.1,0-0.2-1.4-0.6-3.1c-0.4-1.7-0.8-3.1-0.7-3.1c0.5,1,0.8,2,1,3
							C58.7,69.2,58.8,70.3,58.8,71.3z"/>
						<path class="st4" d="M61.3,71.3c0.1,0,0.3,0.4,0.1,0.9c-0.2,0.5-0.6,0.8-0.6,0.8c0-0.1,0.2-0.4,0.4-0.8
							C61.3,71.6,61.2,71.3,61.3,71.3z"/>
						<path class="st4" d="M56.9,71.6c-0.1-0.6-0.2-1.2-0.1-1.8c-0.1-0.6-0.1-1.2-0.1-1.8c0.2,0.6,0.3,1.2,0.3,1.8
							C57.1,70.4,57,71,56.9,71.6z"/>
					</g>
					<path class="st3" d="M24.8,92.7c0.5-0.7,1.1-1.3,1.8-1.7c1.3-0.7,3.8-1,4.3-1.9s1.3,0,0.8,1.1c-0.6,0.9-1.3,1.6-2.1,2.3
						c0.9,0.4,1.9,0.5,2.9,0.3c1.3-0.5,5.6-0.9,5.9-0.3s-0.7,0.8-1.2,0.9c-0.5,0.2-3.3,1-3.3,1s5.4,0.8,6,1.2
						c0.6,0.4-0.2,0.9-0.5,0.9c-0.7,0.3-1.4,0.7-2,1.1c-0.5,0.3-1.1,0.5-1.8,0.3l-1.2-0.2l3.7,1.1c0,0,0.5,0.7-0.4,0.9
						c-0.4,0.1-12.2-0.4-13.1-0.5c-1.5-0.2-4-0.3-4-0.3l1.9-7L24.8,92.7z"/>
					<path class="st1" d="M15.5,89.1L20.9,78l-4.8-14.4c-1.4,0.7-2.7,1.8-3.6,3.1C10.8,68.9,9,73.8,9,73.8S3.1,87.3,2.1,89.3
						s-2.5,5.7,0,7.8c2.5,2.1,19.5,2.2,19.5,2.2l1.8-7.5L15.5,89.1z"/>
					<path class="st2" d="M16.1,71.1c0.1,0,1.3,3.7,2.8,8.4s2.6,8.4,2.5,8.5c-0.1,0.1-1.3-3.7-2.8-8.4
						C17.1,74.9,16.1,71.1,16.1,71.1z"/>
					<path class="st2" d="M23.4,91.8c-0.2,0-0.4-0.1-0.6-0.1l-1.7-0.5c-1.4-0.4-3.4-1-5.5-1.6c-1.8-0.5-3.7-0.9-5.6-0.9
						c-0.8,0-1.6,0.2-2.3,0.5C7.8,89,8,88.9,8.2,88.8c0.6-0.2,1.1-0.3,1.7-0.3c1.9,0,3.9,0.3,5.7,0.9c2.2,0.6,4.1,1.2,5.5,1.6
						l1.7,0.6C23,91.6,23.2,91.7,23.4,91.8z"/>
					<g class="st7">
						<path d="M17.4,74.8c-0.1,3.1,0.1,6.3,0.5,9.4l1.5-3C18.9,79,18.2,77,17.4,75"/>
					</g>
				</g>
				<g>
					<rect x="64.5" y="50.9" class="st1" width="7" height="11.5"/>
					<rect x="75.3" y="44.6" class="st1" width="7" height="17.7"/>
					<path class="st2" d="M90.9,27.7c-0.1,0.1-0.1,0.2-0.2,0.2l-0.5,0.6l-2,2.3l-6.9,7.7l-0.1,0.1l-0.1-0.1l-4.3-2.8H77l-0.2,0.2
						l-9.1,10.6l-0.1,0.1l-0.1-0.1L64.2,44l-0.9-0.7c-0.1-0.1-0.2-0.2-0.3-0.3c0.1,0.1,0.2,0.1,0.3,0.2l0.9,0.7l3.5,2.5h-0.1l9-10.7
						l0.2-0.2l0.1-0.1l0.1,0.1l4.3,2.8h-0.2l7-7.6l2-2.2l0.6-0.6L90.9,27.7z"/>
				</g>
			</g>
		</g>
	</g>
</g>
</svg>
