<svg xmlns="http://www.w3.org/2000/svg" xmlns:xlink="http://www.w3.org/1999/xlink" width="395.88" height="264.13" viewBox="0 0 395.88 264.13">
  <defs>
    <linearGradient id="linear-gradient" x1="0.453" y1="1.139" x2="0.603" y2="-0.826" gradientUnits="objectBoundingBox">
      <stop offset="0.01" stop-color="#ff4030"/>
      <stop offset="1" stop-color="#ff4d3b"/>
    </linearGradient>
    <linearGradient id="linear-gradient-2" x1="0.453" y1="1.016" x2="0.546" y2="0.014" xlink:href="#linear-gradient"/>
    <linearGradient id="linear-gradient-3" x1="0.529" y1="0.112" x2="0.456" y2="1.2" xlink:href="#linear-gradient"/>
  </defs>
  <g id="Capa_1" data-name="Capa 1" transform="translate(-91.56 -89.92)">
    <rect id="Rectángulo_34631" data-name="Rectángulo 34631" width="395.88" height="263.92" transform="translate(91.56 90.13)" fill="none"/>
    <g id="Grupo_80453" data-name="Grupo 80453">
      <path id="Trazado_119724" data-name="Trazado 119724" d="M358,197.07l-.61,1.56c-.35-.44-.71-.87-1-1.32s-.6-1.25-.88-1.24c-.8,0-.43.88-.63,1.36s-.48,1.45-.71,1.45c-.85,0-.63-.9-.84-1.46s-.34-1.27-.61-1.31c-.8-.12-.61.77-.88,1.21s-.7,1.35-1,1.31c-.8-.11-.43-.94-.53-1.49s-.27-1-.41-1.53c-.36.38-.71.76-1.08,1.14l-1.21,1.16c-.08-.55-.17-1.11-.23-1.66s-.1-1.05-.15-1.57a14.281,14.281,0,0,0-1.24,1c-.39.38-.67,1.21-1.37.83-.21-.12,0-1,0-1.52s.84-1.15.13-1.59c-.24-.15-.93.47-1.43.71s-1,.43-1.45.64c.09-.52.17-1,.29-1.56s.59-1.35.4-1.55c-.59-.62-1,.31-1.53.46s-1,.23-1.54.35c.18-.49.34-1,.55-1.47s.86-1.22.7-1.45c-.5-.75-1.08.11-1.65.2-.09,0-.17.1-.26.1h-1.24a5.819,5.819,0,0,1,.53-1.19,12.086,12.086,0,0,1,1-.85c.14-.16.29-.52.22-.64a.91.91,0,0,0-.68-.33c-.54,0-1.06.27-1.59.29a2.841,2.841,0,0,1-1-.32,3.16,3.16,0,0,1,.52-.83c.36-.29.85-.44,1.22-.73a3.121,3.121,0,0,0,.52-.78,3.239,3.239,0,0,0-.89-.37,9.692,9.692,0,0,1-1.32,0,3.189,3.189,0,0,1-.91-.51c.21-.25.38-.58.64-.72.45-.24,1-.31,1.43-.55.23-.12.35-.43.53-.66-.21-.16-.4-.41-.64-.46-.52-.13-1.08-.11-1.59-.26-.28-.09-.49-.41-.73-.62a3.139,3.139,0,0,1,.76-.62c.38-.15.83-.1,1.21-.23a5.47,5.47,0,0,0,.94-.59,5.89,5.89,0,0,0-.89-.69c-.3-.17-.7-.16-1-.34a4.771,4.771,0,0,1-.81-.81,4.6,4.6,0,0,1,1.05-.46,7.385,7.385,0,0,1,1.33,0,2.35,2.35,0,0,0,.75-.42,2.63,2.63,0,0,0-.49-.71c-.44-.3-1-.47-1.41-.78-.21-.16-.28-.51-.42-.78a2.18,2.18,0,0,1,.82-.33c.56,0,1.12.22,1.69.26a.89.89,0,0,0,.69-.29.82.82,0,0,0-.23-.71c-.4-.39-.92-.68-1.32-1.08a2.06,2.06,0,0,1-.31-.82c.28-.09.59-.28.84-.23.52.11,1,.39,1.53.51a2.62,2.62,0,0,0,.87-.08,2.6,2.6,0,0,0-.24-.9c-.3-.44-.75-.78-1-1.23a1,1,0,0,1,0-.85c.06-.12.55-.15.77,0,.52.22,1,.58,1.5.82a2.22,2.22,0,0,0,.78,0,2.42,2.42,0,0,0,0-.85c-.25-.54-.64-1-.9-1.57-.09-.19-.06-.6.06-.68a.84.84,0,0,1,.77,0c.48.3.87.75,1.34,1.05a2.64,2.64,0,0,0,.91.21,3.181,3.181,0,0,0,.05-.86c-.11-.42-.41-.81-.48-1.24a4,4,0,0,1,.11-1.13,4.21,4.21,0,0,1,1.05.48c.36.3.58.76.92,1.08a.85.85,0,0,0,.71.21.84.84,0,0,0,.27-.71c-.06-.6-.26-1.18-.31-1.78a.81.81,0,0,1,.34-.67.83.83,0,0,1,.71.3c.34.46.56,1,.9,1.46.15.21.48.3.73.45a2.43,2.43,0,0,0,.36-.79c0-.56-.05-1.14,0-1.71,0-.23.26-.59.43-.61a.82.82,0,0,1,.66.4c.26.5.37,1.08.62,1.59.13.25.42.41.64.61.17-.24.43-.45.5-.71.13-.49.1-1,.24-1.51.09-.29.39-.52.59-.77.22.23.54.43.65.71s.11.89.25,1.31a4.369,4.369,0,0,0,.55.89,3.75,3.75,0,0,0,.68-.76c.21-.38.24-.87.45-1.25a3.1,3.1,0,0,1,.72-.67,2.749,2.749,0,0,1,.48.84,11.013,11.013,0,0,1,0,1.52,2.66,2.66,0,0,0,.41.78,2.281,2.281,0,0,0,.71-.48c.31-.44.49-1,.8-1.4.16-.22.51-.3.77-.45.12.27.35.54.34.8,0,.5-.19,1-.21,1.51a3.608,3.608,0,0,0,.23.93,2.76,2.76,0,0,0,.84-.42c.32-.3.51-.74.85-1a3.52,3.52,0,0,1,1-.44,3.4,3.4,0,0,1,.16,1c-.06.43-.33.83-.42,1.26a3.4,3.4,0,0,0,0,.95,3.75,3.75,0,0,0,1-.31c.42-.28.74-.7,1.16-1a.86.86,0,0,1,.77-.07.8.8,0,0,1,.12.76c-.21.53-.57,1-.79,1.51a2.24,2.24,0,0,0,0,.86,2.17,2.17,0,0,0,.85-.07c.51-.24,1-.61,1.48-.85a.83.83,0,0,1,.76.1.81.81,0,0,1,0,.77c-.31.47-.75.86-1.07,1.33a2.46,2.46,0,0,0-.18.84,2.58,2.58,0,0,0,.86.08c.52-.14,1-.43,1.52-.56.25-.06.56.11.85.18-.08.29-.08.65-.26.85-.35.4-.84.67-1.21,1.07a2.369,2.369,0,0,0-.32.78,2.49,2.49,0,0,0,.84.24c.53,0,1.05-.27,1.58-.3a2.449,2.449,0,0,1,.83.32c-.14.27-.2.62-.41.78-.43.33-.95.52-1.38.84-.22.16-.31.49-.46.74a2.93,2.93,0,0,0,.79.36,12.355,12.355,0,0,1,1.61,0c.27,0,.5.3.75.46-.18.24-.29.58-.53.7-.47.26-1,.35-1.51.59-.25.12-.4.41-.6.63.23.17.44.43.7.5.52.14,1.08.13,1.6.28.25.07.45.37.66.56-.2.22-.38.52-.63.61-.41.16-.88.12-1.3.26a5.08,5.08,0,0,0-1,.58,6.731,6.731,0,0,0,.95.74c.36.19.8.22,1.16.42s.38.44.56.68c-.24.17-.46.44-.72.49a8.416,8.416,0,0,1-1.42,0,4.6,4.6,0,0,0-1,.37,4.929,4.929,0,0,0,.71.85c.32.26.76.35,1.07.61a3.569,3.569,0,0,1,.54.81,3.33,3.33,0,0,1-1,.37c-.43,0-.87-.2-1.31-.22a3.93,3.93,0,0,0-.92.21,3.22,3.22,0,0,0,.45.91c.37.39.86.66,1.24,1,.14.15.26.56.17.67a.87.87,0,0,1-.72.28c-.55-.12-1.07-.4-1.62-.53a2.73,2.73,0,0,0-.92.13,2.37,2.37,0,0,0,.24.82c.29.42.73.73,1,1.15a2.6,2.6,0,0,1,.15,1,2.8,2.8,0,0,1-1,0c-.47-.18-.87-.54-1.33-.73a2.18,2.18,0,0,0-.85,0,2.66,2.66,0,0,0,.07.86c.25.51.62,1,.86,1.48a.83.83,0,0,1-.1.76.82.82,0,0,1-.76,0c-.5-.33-.92-.78-1.41-1.12a.81.81,0,0,0-.74-.1.82.82,0,0,0-.15.73c.14.49.44.93.55,1.42a3.2,3.2,0,0,1-.12,1.05,3.31,3.31,0,0,1-1-.37c-.32-.24-.5-.66-.81-.93a4.749,4.749,0,0,0-.92-.49,3.939,3.939,0,0,0-.2,1c0,.51.22,1,.24,1.5,0,.24-.15.63-.32.69a.86.86,0,0,1-.72-.28c-.3-.36-.46-.84-.75-1.21a5.649,5.649,0,0,0-.87-.72c-.12.36-.27.71-.38,1.07a1.828,1.828,0,0,0,0,.47Zm2.5-6.07c-1.6-2.2-3.16-4.36-4.75-6.5-.12-.17-.46-.22-.7-.23h-2.54a.93.93,0,0,0-.64.21c-1.6,2.16-3.18,4.34-4.75,6.51C350.27,193.59,356.87,193.61,360.5,191Zm-19.14-14c-1.51,3.84.72,10.75,4.07,12.65,1.38-1.89,2.73-3.81,4.16-5.68.54-.71.87-1.28.24-2.15a5.41,5.41,0,0,1-.43-1.64c-.07-.24-.19-.59-.37-.66C346.48,178.7,343.91,177.88,341.36,177Zm20.84,12.7c4-3.05,5.35-9.32,4-12.68-2.29.74-4.58,1.51-6.88,2.21-.74.23-1.2.47-1.21,1.38a7,7,0,0,1-.61,1.78c-.08.24-.16.59,0,.75,1.5,2.24,3.11,4.42,4.7,6.6ZM342,175c2.6.85,5.13,1.68,7.67,2.48.22.06.55-.14.78-.29a17.349,17.349,0,0,1,1.69-1.2.93.93,0,0,0,.62-1v-7.78A12.65,12.65,0,0,0,342,175Zm23.66,0c-1.62-4.3-6.95-8.11-10.76-7.7v7.22c0,.81.12,1.34,1,1.64.5.18.88.71,1.35,1a1.17,1.17,0,0,0,.77.28c2.48-.74,4.98-1.58,7.61-2.44Z" fill="#e0ddf9" fill-rule="evenodd"/>
      <g id="Grupo_80450" data-name="Grupo 80450">
        <path id="Trazado_119725" data-name="Trazado 119725" d="M289.5,210.2a17.407,17.407,0,0,0,1.78-.31,11.3,11.3,0,0,0,1.44-.61,11,11,0,0,0-1.17-1c-.34-.23-.81-.27-1.13-.51a4,4,0,0,1-.71-.91,3.139,3.139,0,0,1,1-.52c.47-.08,1,.09,1.46,0a6.6,6.6,0,0,0,1.3-.36,8.77,8.77,0,0,0-.88-1.13c-.3-.28-.75-.38-1-.67a5.151,5.151,0,0,1-.65-1.09,4.58,4.58,0,0,1,1.3-.32,12.372,12.372,0,0,1,1.65.4,2.58,2.58,0,0,0,.9-.22,2.965,2.965,0,0,0-.28-1c-.45-.5-1-.89-1.47-1.4a1.22,1.22,0,0,1-.16-1c0-.14.62-.24.9-.16.61.18,1.17.55,1.78.72a3.44,3.44,0,0,0,1.1-.05,2.87,2.87,0,0,0-.22-1c-.35-.58-.85-1.06-1.19-1.65a.93.93,0,0,1,0-.89,1,1,0,0,1,.9-.08c.42.16.75.52,1.16.71a14.884,14.884,0,0,0,1.57.54c-.11-.58-.17-1.17-.33-1.72-.12-.4-.43-.73-.53-1.12s0-.86.11-.91a1.19,1.19,0,0,1,1,.1c.52.37.91.91,1.41,1.3a3.28,3.28,0,0,0,1,.34,3.08,3.08,0,0,0,.2-1.09c-.11-.67-.42-1.3-.55-2,0-.24.1-.72.26-.77a1,1,0,0,1,.89.18c.49.52.85,1.16,1.32,1.7a2.41,2.41,0,0,0,.83.42c.15-.31.42-.62.41-.93,0-.67-.23-1.34-.23-2a1.2,1.2,0,0,1,.55-.86c.12-.08.62.22.78.46.35.53.54,1.17.89,1.7a3.408,3.408,0,0,0,.89.67,3.09,3.09,0,0,0,.47-.92c.1-.52,0-1.08.11-1.58a4.741,4.741,0,0,1,.65-1.18,5.651,5.651,0,0,1,.88,1c.23.47.23,1,.45,1.52.13.29.47.5.71.74.22-.26.55-.5.65-.81.21-.6.23-1.27.44-1.87.11-.3.49-.5.74-.74.23.26.59.49.68.8.15.54.08,1.14.22,1.68a5.26,5.26,0,0,0,.56,1.11,5.82,5.82,0,0,0,.92-.94c.29-.48.38-1.08.68-1.55a1.25,1.25,0,0,1,.9-.47c.15,0,.43.51.44.79,0,.68-.11,1.37-.07,2,0,.31.3.61.46.91a2.769,2.769,0,0,0,.8-.49c.41-.54.69-1.18,1.12-1.7.2-.23.63-.27,1-.39.11.3.34.61.3.9-.07.63-.33,1.24-.4,1.88a3.461,3.461,0,0,0,.24,1.1,3.81,3.81,0,0,0,1-.47c.45-.39.78-.93,1.25-1.3a2.64,2.64,0,0,1,1-.26,2.61,2.61,0,0,1,.18,1c-.18.61-.55,1.16-.75,1.77a3,3,0,0,0,0,1,2.71,2.71,0,0,0,1-.17c.57-.35,1.05-.87,1.64-1.2.27-.15.69,0,1,0a2.391,2.391,0,0,1-.05,1c-.32.6-.79,1.12-1.1,1.72a2.529,2.529,0,0,0-.05,1,3.22,3.22,0,0,0,.93,0,7,7,0,0,0,.9-.47c.62-.27,1.32-1,1.87-.24.18.25-.5,1.15-.85,1.72-.17.29-.52.46-.69.74s-.28.69-.16.86a1,1,0,0,0,.86.24c.7-.16,1.36-.47,2.06-.61a.671.671,0,0,1,.63,1.18c-.42.43-1,.71-1.42,1.12a5.33,5.33,0,0,0-.68,1,6,6,0,0,0,1.29.33c.56,0,1.12-.17,1.68-.16.29,0,.57.26.86.4-.16.31-.24.74-.49.91-.52.36-1.16.55-1.7.89a3.22,3.22,0,0,0-.66.79,3.2,3.2,0,0,0,1,.57c.59.11,1.22,0,1.81.11.32,0,.6.36.9.55-.24.3-.42.72-.74.87-.53.26-1.18.28-1.72.53-.33.14-.55.5-.82.77a3.3,3.3,0,0,0,.84.63c.49.17,1.07.13,1.54.33a5,5,0,0,1,1.05.87,3.86,3.86,0,0,1-1.06.69c-.54.15-1.14.06-1.68.18-.32.07-.58.37-.87.56.22.27.38.64.66.8.59.32,1.27.49,1.86.82a1,1,0,0,1,.47.78c0,.22-.46.49-.73.53-.52.06-1.06-.1-1.58-.06a8.881,8.881,0,0,0-1.41.37,8.1,8.1,0,0,0,.86,1.14c.36.32.88.47,1.23.81a3,3,0,0,1,.47.94,2.72,2.72,0,0,1-1,.36c-.52,0-1-.26-1.55-.31a6.711,6.711,0,0,0-1.33.12,7.141,7.141,0,0,0,.65,1.26c.3.38.77.62,1.06,1a3.229,3.229,0,0,1,.32,1c-.38.08-.79.3-1.12.21-.61-.17-1.16-.56-1.77-.75a2.741,2.741,0,0,0-1,.11,2.38,2.38,0,0,0,.15.91c.29.48.76.86,1,1.35a4.75,4.75,0,0,1,.25,1.33,8.4,8.4,0,0,1-1.36-.21c-.35-.12-.6-.48-.95-.62a10.082,10.082,0,0,0-1.39-.34,6.572,6.572,0,0,0,.21,1.34c.18.53.55,1,.72,1.53a.67.67,0,0,1-1.08.79c-.48-.35-.85-.86-1.33-1.22a5,5,0,0,0-1.14-.48,5.34,5.34,0,0,0-.1,1.31c.07.52.37,1,.45,1.52a3.23,3.23,0,0,1-.22,1c-.37-.12-.84-.13-1.08-.37-.45-.45-.72-1.07-1.15-1.53-.22-.23-.62-.27-.94-.4a2.63,2.63,0,0,0-.31.89c0,.6.23,1.2.21,1.79a3.341,3.341,0,0,1-.49,1.14,3.41,3.41,0,0,1-.92-.69c-.34-.5-.5-1.11-.82-1.62a2.889,2.889,0,0,0-.74-.58c-.2.28-.53.53-.58.84-.11.66,0,1.36-.14,2,0,.3-.41.54-.63.8-.24-.2-.6-.36-.71-.62-.25-.63-.35-1.32-.61-1.94-.12-.29-.49-.46-.75-.69-.2.24-.51.44-.6.72-.19.57-.18,1.21-.4,1.76-.15.36-.55.61-.84.92a3.71,3.71,0,0,1-.64-1c-.15-.5-.06-1.06-.2-1.56a5,5,0,0,0-.62-1.07,5.563,5.563,0,0,0-.8.81c-.22.34-.24.82-.48,1.14a8.75,8.75,0,0,1-1.13,1.06,7.25,7.25,0,0,1-.47-1.38c-.06-.4.13-.84.07-1.24a5.7,5.7,0,0,0-.44-1.14,4.311,4.311,0,0,0-.93.66c-.36.43-.57,1-.94,1.42a3.16,3.16,0,0,1-.93.49,2.88,2.88,0,0,1-.38-1.07c0-.55.31-1.09.37-1.65a4.49,4.49,0,0,0-.17-1.13,4.41,4.41,0,0,0-1.13.47c-.43.36-.73.89-1.16,1.24a3.141,3.141,0,0,1-1,.3,2.74,2.74,0,0,1-.19-1.13c.16-.61.56-1.15.75-1.76a2.531,2.531,0,0,0-.13-1,2.59,2.59,0,0,0-.91.17c-.61.39-1.13.89-1.73,1.28-.22.13-.72.16-.82,0a1,1,0,0,1-.16-.9c.2-.48.61-.88.82-1.35a9.08,9.08,0,0,0,.39-1.47,10.88,10.88,0,0,0-1.51.29c-.46.15-.86.49-1.33.62a.674.674,0,0,1-.81-1.07c.41-.54,1-1,1.37-1.5a2.87,2.87,0,0,0,.31-1,2.86,2.86,0,0,0-1-.19c-.59.11-1.14.44-1.73.53a3.09,3.09,0,0,1-1.12-.24,3.38,3.38,0,0,1,.44-1.06c.39-.4.95-.63,1.35-1a3.63,3.63,0,0,0,.56-1,3.279,3.279,0,0,0-1.06-.34c-.48,0-1,.21-1.45.19a5.88,5.88,0,0,1-1.32-.4,4.43,4.43,0,0,1,.79-1.08c.45-.34,1.05-.46,1.51-.78.26-.17.37-.56.55-.85a2.48,2.48,0,0,0-.83-.44c-.86-.11-1.73-.13-2.6-.18v-1.14c.82-.27,1.64-.5,2.44-.83.25-.1.58-.44.58-.66s-.37-.53-.63-.62c-.78-.25-1.59-.42-2.39-.61Zm22.09,17.59a15.85,15.85,0,1,0-15.79-15.74,15.85,15.85,0,0,0,15.79,15.74Z" fill="#5f5fa5" fill-rule="evenodd"/>
        <path id="Trazado_119726" data-name="Trazado 119726" d="M310.26,227.08c.54-3.09,1.05-6.1,1.62-9.1.07-.32.52-.64.86-.83a15.869,15.869,0,0,0,2.11-1,1.31,1.31,0,0,1,1.69-.14c2.61,1.44,5.25,2.82,7.87,4.22C322.19,224.65,315.14,228.09,310.26,227.08Z" fill="#5f5fa5" fill-rule="evenodd"/>
        <path id="Trazado_119727" data-name="Trazado 119727" d="M323.43,202.29c3.54,3.75,4.53,10.54,2.28,15.58l-7.07-3.73a6.8,6.8,0,0,0-.8-.42,1.26,1.26,0,0,1-.92-1.63,2.68,2.68,0,0,0-.23-1.66c-.61-1.05-.1-1.6.62-2.27C319.38,206.24,321.39,204.25,323.43,202.29Z" fill="#5f5fa5" fill-rule="evenodd"/>
        <path id="Trazado_119728" data-name="Trazado 119728" d="M296.81,215.3c3.13-.44,6.19-.88,9.26-1.27a1.35,1.35,0,0,1,.87.44c.68.65,1.32,1.33,1.93,2a1.27,1.27,0,0,1,.38.82c-.51,3.09-1.06,6.17-1.6,9.25C303.13,226.23,297.39,220.29,296.81,215.3Z" fill="#5f5fa5" fill-rule="evenodd"/>
        <path id="Trazado_119729" data-name="Trazado 119729" d="M296.43,212.66c-.62-5.13,2.55-11.11,7.3-13.78.23.45.49.9.71,1.35,1.12,2.28,2.22,4.56,3.35,6.82a1.07,1.07,0,0,1-.18,1.48,2.91,2.91,0,0,0-.86,1.44c-.21,1.17-.93,1.42-2,1.54C302,211.84,299.26,212.26,296.43,212.66Z" fill="#5f5fa5" fill-rule="evenodd"/>
        <path id="Trazado_119730" data-name="Trazado 119730" d="M321.16,200c-2.14,2.35-4.23,4.65-6.34,6.91a1.24,1.24,0,0,1-1,.2c-1.06-.16-2.11-.41-3.44-.68-1.31-2.69-2.76-5.66-4.2-8.64C310.27,195.46,317.83,196.73,321.16,200Z" fill="#5f5fa5" fill-rule="evenodd"/>
        <path id="Trazado_119731" data-name="Trazado 119731" d="M311.66,215.09a3.12,3.12,0,1,1,2.867-1.963,3.1,3.1,0,0,1-2.867,1.963Z" fill="#5f5fa5" fill-rule="evenodd"/>
      </g>
      <g id="Grupo_80451" data-name="Grupo 80451">
        <path id="Trazado_119732" data-name="Trazado 119732" d="M156.15,284.47c-.5.14-.84.72-1.07,2a17.51,17.51,0,0,0,3.32-.39C157.33,284.7,156.62,284.34,156.15,284.47Z" fill="#0f0060"/>
        <path id="Trazado_119733" data-name="Trazado 119733" d="M155.79,312c-1.15-11-1.26-15.14-1.1-20.33a38.743,38.743,0,0,1,.39-5.19,10.17,10.17,0,0,1-7.5-2.63,14,14,0,0,1-3.7-6c-1,2.52-2.73,7.28-2.1,15.48.68,8.78,4.76,24.19,6.58,32.5,1.74,7.87,5.95,21.81,6.39,23.28a.929.929,0,0,1,0,.13H158c2,0,2.09-.42,2.09-.42S156.94,323,155.79,312Z" fill="#0b3360"/>
        <path id="Trazado_119734" data-name="Trazado 119734" d="M194.61,347.86c-.73-2.22-9.49-28.75-11.54-36.11-2.15-7.68-6.8-21.37-8.52-25.71-1.18-3-2.35-5.66-3-7.09a24.9,24.9,0,0,1-2,1.88c-.7.23-1.5-.52-2-1.08a10.23,10.23,0,0,1-4,4.43,18.47,18.47,0,0,1-5.14,1.92,46.509,46.509,0,0,1,4.44,7.89c3.87,8.1,11.71,25.45,15.1,33.07s12,21.17,12,21.17l4.7-.21A1.361,1.361,0,0,0,194.61,347.86Z" fill="#0b3360"/>
      </g>
      <path id="Trazado_119735" data-name="Trazado 119735" d="M156.33,233.15h-.1a3.908,3.908,0,0,1-.64.07,6.152,6.152,0,0,1-1,0,1.659,1.659,0,0,1,0,.28,11.573,11.573,0,0,0-.28,1.59,1.34,1.34,0,0,0,.09.37.9.9,0,0,0,.4.48c.61.34,1.1.21,1.35-.2a.93.93,0,0,0,.13-.32,1.82,1.82,0,0,0,.06-.35C156.35,234.47,156.34,233.63,156.33,233.15Z" fill="#fdb7b0"/>
      <path id="Trazado_119736" data-name="Trazado 119736" d="M169.53,280.83c.64.15-1.39,1.5-3,2.58a4.08,4.08,0,0,1-3,.77,8.37,8.37,0,0,0,2.67-2.67,9.2,9.2,0,0,0,.92-2.32,4.84,4.84,0,0,0,2.41,1.64Z" fill="#fdb7b0"/>
      <path id="Trazado_119737" data-name="Trazado 119737" d="M207.58,217.9c0-.46.27-2-.91-2.91s-2.16-1-2.37-.7,1.64,1.33,1.64,1.33-3.66-2.27-4.76-2.06,2.35,1.85,2.35,1.85-3.06-1.73-3.55-1.36,2.3,1.58,2.3,1.58-2-.9-2.28-.54,3.34,1.81,3.34,1.81a7.41,7.41,0,0,0,2,.58C206.81,217.72,207.58,217.9,207.58,217.9Z" fill="#fdb7b0"/>
      <path id="Trazado_119738" data-name="Trazado 119738" d="M280.92,200c-.49-.15-1.64-4.9-1.23-5.21s1.43,2.68,1.57,2.52.66-3.88,1.15-4.23.38,3.69.38,3.69.88-4.46,1.54-4.14-.17,4.21-.17,4.21.79-2.78,1.39-2.44-.42,3.63-.42,3.63.91-1.71,1.25-1.47-.24,3.56-.24,3.56S281.31,200.08,280.92,200Z" fill="#fdb7b0"/>
      <path id="Trazado_119739" data-name="Trazado 119739" d="M315.65,233.8c-.21-.91-.32-3-.91-3s0,1.95,0,1.95-2.12-2.51-2.61-2.44,1.25,3.06,1.25,3.06-2.31-2.6-2.71-2.3,1.95,3.59,1.95,3.59-1.81-1.67-2.2-1.36,1.95,3,1.95,3-1.58-1.27-2-1.13,2.63,3,2.63,3a6.75,6.75,0,0,1,.93-2.33,11.189,11.189,0,0,1,1.72-2.04Z" fill="#fdb7b0"/>
      <path id="Trazado_119740" data-name="Trazado 119740" d="M444.36,198.35c-1.05-1.47-6.95-8.41-9.56-10.36s-3.69-3-4.11-3.17-3.1.41-3.45-.28,3.06-.73,3.2-1-3.42-3.62-3.23-4.21,3.3,2.3,3.55,1.91-2.41-2.82-2-3.58,3.31,2.78,3.34,2.64-1.29-2.09-.87-2.44,2.09,2.2,2.13,2.06-.73-1.95-.25-2.06,2.3,3.31,2.83,3.77,3.69,2.5,7.27,5.29a83.315,83.315,0,0,1,6.91,6.13,30.9,30.9,0,0,1-3.21,3.1C445.39,197.36,444.36,198.35,444.36,198.35Z" fill="#fdb7b0"/>
      <path id="Trazado_119741" data-name="Trazado 119741" d="M165.56,237.31a16.26,16.26,0,0,0-2.65-1.89,12.51,12.51,0,0,1-2.5-1.87,3.6,3.6,0,0,1-.68-2.7,4.83,4.83,0,0,1-3.4,2.3v1.94a1.822,1.822,0,0,1-.06.35.93.93,0,0,1-.13.32,2.26,2.26,0,0,0,.51.92c1,1.08,2.59,1,2.82,2.69s-.88,3.79,1.18,6.12,5.28,1.9,6.32-.68A7.91,7.91,0,0,0,165.56,237.31Z" fill="url(#linear-gradient)"/>
      <path id="Trazado_119742" data-name="Trazado 119742" d="M159,217.82c-1.6-1.23-2.85-1.57-5.39-1.13-2.36.42-3.24,1.81-3.73,4.16a8.93,8.93,0,0,1-2.9,5.25c-1.73,1.7-2.43,2.3-2.25,4.49.15,1.81.71,3.75.34,5.41a3.78,3.78,0,0,1-.37,1c-1,1.83-2.92,3.61-1.33,7.06s3.48,4.31,6.31,4.12,5.49-3.52,5.6-6-1-5.33-1-6.27a3.381,3.381,0,0,1,0-.45v-.37a11.569,11.569,0,0,1,.28-1.59,1.659,1.659,0,0,0,0-.28h-.2c-2.86-.29-4.34-2.53-4.65-5.25-.35-3.06.71-3.94,2.58-4.63,1-.39,3,0,4.66.1s2.48-.66,3-.42c.22.11.41.33.52.88a3.069,3.069,0,0,0,.24-.63,5.9,5.9,0,0,0-1.71-5.45Z" fill="url(#linear-gradient-2)"/>
      <path id="Trazado_119743" data-name="Trazado 119743" d="M160.4,228.71a5.83,5.83,0,0,1-.34,1.45,6.3,6.3,0,0,1-.33.69,4.681,4.681,0,0,1-.46.65,5.07,5.07,0,0,1-2.94,1.66h-.1a3.853,3.853,0,0,1-.63.07,5.239,5.239,0,0,1-1,0h-.2c-2.85-.28-4.34-2.53-4.65-5.25-.35-3.07.72-3.94,2.57-4.63,1-.39,3,0,4.68.1s2.47-.66,3-.42c.22.1.41.33.52.88a17.42,17.42,0,0,1-.12,4.8Z" fill="#fdb7b0"/>
      <path id="Trazado_119744" data-name="Trazado 119744" d="M158,349.22h-3.24a.929.929,0,0,0,0-.13,6.73,6.73,0,0,0-3.22,1.18c-.68.7-.08,1.46,2.11,1.43s6.75-.07,7-.31a3.09,3.09,0,0,0-.53-2.59S160,349.22,158,349.22Z" fill="#3d23b5"/>
      <path id="Trazado_119745" data-name="Trazado 119745" d="M198.29,348.86c-.59-.68-3.68-1-3.68-1h0a1.363,1.363,0,0,1,.06.16l-4.7.21,1.06,2.11h7.26a1.23,1.23,0,0,0,0-1.48Z" fill="#3d23b5"/>
      <path id="Trazado_119746" data-name="Trazado 119746" d="M357.11,215.27c-1.95,0-1.95-1.74-2.3-3s-2.27-2.27-3.28-1.82-1.35-1.32-1.5-2-1.37-.68-2.8-.53c0,1.63.08,6.4,1.62,9,1.67,2.85,3.59,3,5.37,2.68a2.08,2.08,0,0,0,.85-.36,6,6,0,0,0,1.85-2.19,4.8,4.8,0,0,0,.59-2,.72.72,0,0,1-.4.22Z" fill="#fdb7b0"/>
      <path id="Trazado_119747" data-name="Trazado 119747" d="M378.11,255.67c0-1.49-.33-10.79-.94-16.61-.65-6.34-3.72-17.35-5.6-19.65s-4.67-2.3-9.69-.66c-1.46.48-2.89,1.05-4.28,1.66a1.49,1.49,0,0,1-1.19,1.27c-.17,0-.35-.15-.53-.47-2.7,1.3-5.14,2.72-7.06,3.88-3.28,2-5.61,5.57-7.18,9.13s-5.78,11.67-7.39,12.92a5.7,5.7,0,0,1-8-1.08c-2.9-3.34-8.44-10.27-10.56-12.26a8.27,8.27,0,0,0-2.82,4.32c-.05.18,2.78,4.49,5.05,8.5s4.81,8.9,10.42,10.68,9.58-.23,13.06-4.76,4.5-9.61,6.06-9,1.88,4.25,2.09,10.1.28,16.93.28,16.93,5.61,1,15.92-3.76,12.41-10.94,12.41-10.94A2,2,0,0,1,378.11,255.67Z" fill="url(#linear-gradient-3)"/>
      <path id="Trazado_119748" data-name="Trazado 119748" d="M357.6,220a28.682,28.682,0,0,0-.68-2.83,6,6,0,0,1-1.85,2.19,20.231,20.231,0,0,0,.81,1.88c.18.32.36.51.53.47a1.49,1.49,0,0,0,1.19-1.27,1.621,1.621,0,0,0,0-.44Z" fill="#fdb7b0"/>
      <path id="Trazado_119749" data-name="Trazado 119749" d="M358.54,206.63c-1.05-4.64-3.84-5.4-5.79-5.89s-3-.31-3.48.45-1.59,2-2,1.15-1.7-.31-2.78,1.85.54,4.11,2.19,3.86l.58-.07c1.43-.15,2.68-.06,2.8.53s.48,2.44,1.5,2,2.93.6,3.28,1.82.35,3,2.3,3a.72.72,0,0,0,.4-.14C358.66,214.43,359.47,210.79,358.54,206.63Z" fill="#0f0060"/>
      <path id="Trazado_119750" data-name="Trazado 119750" d="M346.83,350.58a18.282,18.282,0,0,1-3.36-.14h0a5.89,5.89,0,0,0-3.89,1.4c-.73.8-.41,1.53,1.61,1.63s6,.18,7.45-.59,1.15-2.84,1.15-2.95v.27a15.19,15.19,0,0,1-2.96.38Z" fill="#3d23b5"/>
      <path id="Trazado_119751" data-name="Trazado 119751" d="M383.1,348.18a5.331,5.331,0,0,1-2.3.62,12.11,12.11,0,0,1-3.76-.24h0c-1.11.49-3.11,2-3.2,2.52s1.64,1,5.26.65,4.15-.64,4.25-1.11a3.24,3.24,0,0,0-.25-2.44Z" fill="#3d23b5"/>
      <path id="Trazado_119752" data-name="Trazado 119752" d="M379,326.75c-.94-5.12-2.93-18.25-3-24.45s1.34-11.71,2.49-18.19a90.631,90.631,0,0,0,.62-20.91c-.47-6.32-1-7.53-1-7.53a2,2,0,0,0,0,.22s-2.09,6.16-12.41,10.94-15.92,3.76-15.92,3.76c-.28,1.25-3.41,9.75-5.47,16s-4.39,12-4.53,19.1.87,21.58,1.36,27.38c.55,6.4,2.13,17.39,2.13,17.39h.19a18.285,18.285,0,0,0,3.36.14,15.194,15.194,0,0,0,3-.38v-.27c0-2.23.18-17.86.28-24.36.11-7,1.15-17.87,3-24a151.877,151.877,0,0,1,7.21-17.87c1.18-2.34,3.38-5.44,3.76-4.81s-.63,17.17-.31,21.6-.63,11.91,4.32,25.92c2.12,6,8.86,21.83,9,22.11h0a12.111,12.111,0,0,0,3.76.24,5.33,5.33,0,0,0,2.3-.62l.1-.07S379.93,331.87,379,326.75Z" fill="#0b3360"/>
      <path id="Trazado_119753" data-name="Trazado 119753" d="M402.17,211.26a1.569,1.569,0,0,0,.33-.07c-.62-2.06-2.75-10-3.34-12.19s-.73-3-.42-3.63,1.32-2.23,1.08-2.61-1.64,1.25-1.64,1.25-1-4.18-1.46-4.14.31,4,0,4-1.39-4.46-1.92-4.49.07,4.39,0,4.56-1.36-3.59-1.63-3.38.59,3.83.59,3.83-1-2.12-1.36-2,.73,3.59.8,4.32,1.22,6.38,1.78,9.69c.46,2.75,1.07,5.26,1.26,6h0Z" fill="#fdb7b0"/>
      <path id="Trazado_119754" data-name="Trazado 119754" d="M434.77,226.94a17,17,0,0,0,.25-2.55,2.31,2.31,0,0,1-1.08,0,4.4,4.4,0,0,1-1.73.5c.07.94.29,2.46.29,2.46h.05l2.11-.26a.6.6,0,0,0,.11-.15Z" fill="#fdb7b0"/>
      <path id="Trazado_119755" data-name="Trazado 119755" d="M433.13,224c-1.32-.86-.66-2.28-.38-3.88s-1.05-3.48-2.55-4.74a8.33,8.33,0,0,1-2.38-2.53c-.6,1-1.23,5.35-.55,8,.74,2.78,2.48,4,4.36,4.07a3.79,3.79,0,0,0,.58,0,4.4,4.4,0,0,0,1.73-.5,3,3,0,0,1-.81-.42Z" fill="#fdb7b0"/>
      <path id="Trazado_119756" data-name="Trazado 119756" d="M434.66,227.06l-2.11.26a4.46,4.46,0,0,0,2.11-.26Z" fill="#3d23b5"/>
      <path id="Trazado_119757" data-name="Trazado 119757" d="M437.82,212.72c-1.45-2.07-5.05-6.17-8.38-5.21a3.4,3.4,0,0,0-2.07,4.23,9.182,9.182,0,0,0,.47,1.06,8.42,8.42,0,0,0,2.36,2.55c1.5,1.26,2.81,3.16,2.51,4.76s-.95,3,.36,3.88a3,3,0,0,0,.81.37,2.27,2.27,0,0,0,1.07,0c1.05-.2,2.2-1.16,3.16-3.6C439.71,216.74,439.27,214.79,437.82,212.72Z" fill="#3d23b5"/>
      <path id="Trazado_119758" data-name="Trazado 119758" d="M459.5,205.55c-3.1-5.68-9.47-12.56-9.4-12.48s-6,5-6,5,5,6.51,6.76,12.43,1.62,15.35-4.78,16c-3.38.34-7.51.1-11.46.57a4.46,4.46,0,0,1-2.11.26l-5.24.7c-5.51.69-10,2.26-13.17.9s-6.41-4.81-9.06-11.14-2.58-6.59-2.58-6.59l-.33.07-5.93,1.18c.2,1.68,1.32,9.41,4.28,15.23s9.26,9.72,13.41,12.12,8.43,3.31,9,5.12,1,8.78,1.15,13.7.34,7.41.34,7.41a73.566,73.566,0,0,0,13.45,1.92A34.73,34.73,0,0,0,451,265.26s-.35-14.18-.28-19.09,0-7.53,2.2-9.69,8.15-6.41,9.23-13.69S462.18,210.45,459.5,205.55Z" fill="#0b3360"/>
      <path id="Trazado_119759" data-name="Trazado 119759" d="M429.38,279.09c3.41.58,3.38-5.75,3.38-5.75l-5.43-1.15S426,278.52,429.38,279.09Z" fill="#ff4030"/>
      <path id="Trazado_119760" data-name="Trazado 119760" d="M442.64,272.66s2.61,6.64,4.81,5.12.57-6.37.57-6.37S442.85,272.51,442.64,272.66Z" fill="#ff4030"/>
      <path id="Trazado_119761" data-name="Trazado 119761" d="M424.6,348v2a5.52,5.52,0,0,1,2.78,0,1,1,0,0,1,.26.16l.26-1.36a5.6,5.6,0,0,1-1.49-.27Z" fill="#fdb7b0"/>
      <path id="Trazado_119762" data-name="Trazado 119762" d="M477.27,349.49c-.13-.46-.3-1-.45-1.54a15.69,15.69,0,0,1-1.89,0,10.16,10.16,0,0,0-2.74.29l.86,2.25a10.641,10.641,0,0,1,3.71-1Z" fill="#fdb7b0"/>
      <path id="Trazado_119763" data-name="Trazado 119763" d="M470,319.85c-1.72-7-9.56-27.9-12.12-35.17L451,265.26a34.729,34.729,0,0,1-13.17,2.68A73.567,73.567,0,0,1,424.38,266a105,105,0,0,0,.18,20.11c1,10.94,1.91,15.15,1.84,22.19s.09,16.39-.64,22-2,17.4-2,17.4l.83.25,1.81.53a5.6,5.6,0,0,0,1.49.27c.81,0,1-.27,1-.27s6-15.05,8.16-25.4a137.546,137.546,0,0,0,2.24-29.36c-.27-5.8-.68-10.25-.62-11.19s.62-2.09,2.19.16,9,18,12.39,26.18,10.19,22.79,13.11,28.74,5.28,10.66,5.28,10.66l.55-.12a10.16,10.16,0,0,1,2.74-.29,15.7,15.7,0,0,0,1.89,0h.47S471.7,326.86,470,319.85Zm-40.59-40.76c-3.41-.57-2.05-6.9-2.05-6.9l5.43,1.15s0,6.33-3.41,5.75Zm18.07-1.31c-2.2,1.52-4.81-5.12-4.81-5.12.21-.15,5.38-1.25,5.38-1.25s1.59,4.86-.6,6.37Z" fill="#ffa726"/>
      <path id="Trazado_119764" data-name="Trazado 119764" d="M427.64,350.17a1,1,0,0,0-.26-.16,5.52,5.52,0,0,0-2.78,0,14.57,14.57,0,0,0-3,1c-2,.89-2.72,2.72-1.67,2.66l7.84-.36S428.52,350.94,427.64,350.17Z" fill="#0f0060"/>
      <path id="Trazado_119765" data-name="Trazado 119765" d="M477.27,349.49h-.51a10.64,10.64,0,0,0-3.71,1c.08.21.37,2.74.84,2.63s9.09.26,9.09-1S479.56,349.52,477.27,349.49Z" fill="#0f0060"/>
      <path id="Trazado_119766" data-name="Trazado 119766" d="M253.47,227.71a16.183,16.183,0,0,0-.55,2,1.41,1.41,0,0,0,0,.78c.27.44,1.22.3,1.7-.27l.12-.15a6.711,6.711,0,0,0,.52-1.17,3.93,3.93,0,0,1-1.79-1.19Z" fill="#fdb7b0"/>
      <path id="Trazado_119767" data-name="Trazado 119767" d="M263,223.69a20.791,20.791,0,0,1-1.65,2.72,6.4,6.4,0,0,1-2.85,2.34l-.3.1a5.36,5.36,0,0,1-3,0,4.09,4.09,0,0,1-2.44-2.11,6.54,6.54,0,0,1-.42-3,13.6,13.6,0,0,1,.28-2.14c-1.08.31-1.15-1.36-.55-2.3s1.18-.94,1.38.21a13.582,13.582,0,0,0,1.85-.14,3.88,3.88,0,0,0,2.38-1.39,1.56,1.56,0,0,1,.86-.46,2.291,2.291,0,0,1,.52-.26c.27,0,.38.23.52.41.47.87,1.06,2.2,1.79,1.74s1.33-.77,1.53-.07a2.19,2.19,0,0,0,1.11,1.06C264.16,221.24,263.94,222,263,223.69Z" fill="#fdb7b0"/>
      <path id="Trazado_119768" data-name="Trazado 119768" d="M267.71,214.92c-.84-1.19-1.67-.28-2.61-1.57s-2.13-1.81-2.9-1-2.05,1.36-2.85.56-6.2-1.25-6,3.21c.07,1.26-.24,1.36-.87,2s-.32,1.47-.71,2.06-1.2.77-.92,2.26c.21,1.16,1,1.69,1.56,1.4a13.581,13.581,0,0,1,.28-2.13c-1.08.31-1.15-1.36-.55-2.3s1.18-.94,1.39.21a13.673,13.673,0,0,0,1.85-.14,3.82,3.82,0,0,0,2.36-1.39,1.58,1.58,0,0,1,1.15-.49c.34-.11.62-.09.76.17h0c.47.87,1.06,2.2,1.79,1.74s1.32-.77,1.53-.07a2.2,2.2,0,0,0,1.11,1.07,2.28,2.28,0,0,0,2.69-.49A4,4,0,0,0,267.71,214.92Z" fill="#0f0060"/>
      <path id="Trazado_119769" data-name="Trazado 119769" d="M288,212.69c-.89-7.6-1.87-12.61-1.87-12.61l-5.22-.12s.55,8.16.86,14.91-.41,10.24-4.54,14.52-6.74,5.7-12.08,3.92c-3.31-1.1-7.1-2.13-10.53-3.12-.48.57-1.43.71-1.7.27a1.41,1.41,0,0,1,0-.78c-1.43-.43-2.78-.85-3.95-1.28-4.34-1.57-9.36-2.87-13-1.41s-12.17,5.9-16,7.42-6.84,2.93-8.78-1.41-3.6-15.1-3.6-15.1l-4.24-1c-.26,2.25-1,11.87.79,17.87s5.64,8.79,9.71,9.88S225,243.24,228,241.36s4.65-3.45,4.86-2.14-2.25,4.18-4.34,11.5-3.34,13.63-3.34,13.84,4.33,3.66,13.59,5.13,14.42-.48,14.42-.48-.84-3.13,1.62-8.41,6.32-12.54,7.11-13.75.88-1.25,5.43-1.3,16.93-5.38,19.75-13.8S288.81,219.61,288,212.69Z" fill="#ffa726"/>
      <path id="Trazado_119770" data-name="Trazado 119770" d="M225.8,347.48v-.25h0a3,3,0,0,0-.77,2.1c.06.28,1.15,1.46,3.58,2s3.76.59,3.87.17-2.18-2.06-2.87-2.57l-.09.15a14.32,14.32,0,0,1-3.72-1.6Z" fill="#0f0060"/>
      <path id="Trazado_119771" data-name="Trazado 119771" d="M278.54,350.2a9.521,9.521,0,0,1-3-1h0c-.2.31-.44,2.47,0,2.95s7.08.77,8.62.67,1.39-1.84-2.25-3.12h0A3.781,3.781,0,0,1,278.54,350.2Z" fill="#0f0060"/>
      <path id="Trazado_119772" data-name="Trazado 119772" d="M276,309.16c-5.51-16.24-22.84-40-22.84-40s-5.18,1.94-14.42.48-13.59-4.92-13.59-5.13a47,47,0,0,0-1.14,21.05c1.68,10.31,5.37,16.58,6.76,21.25s.91,7.87,0,14.77-2.44,11.78-3.27,16.17c-.73,3.82-1.51,8.34-1.7,9.43v.25a14.32,14.32,0,0,0,3.76,1.62l.09-.15c.71-1.12,5.42-8.65,9.6-16.17,4.52-8.15,7.94-14.63,6-22.79s-5.3-18.88-5.86-23.06.21-6.13,2.37-5.78,8.23,8.15,14.77,17,9.06,12.05,11.92,23.83,7,27.12,7,27.12l.09.06a9.522,9.522,0,0,0,3,1c2.09.46,3.06-.27,3.33-.54l.09-.09S281.54,325.39,276,309.16Z" fill="#4484cd"/>
      <path id="Trazado_119773" data-name="Trazado 119773" d="M151.77,225.45a2.21,2.21,0,0,1,.58-.54,2.55,2.55,0,0,1,.83-.43,1.48,1.48,0,0,1,1.3.17,1.939,1.939,0,0,1,.49.58,6.308,6.308,0,0,1,.23.7l.12.77v2.39a7.16,7.16,0,0,0,.05.8.94.94,0,0,0,.08.33h0c-.06,0,0,0,0-.05a7,7,0,0,0,.4-1.54c.08-.54.15-1.07.18-1.58a3,3,0,0,1,.13-.79,1.511,1.511,0,0,1,.15-.39,1.709,1.709,0,0,1,.21-.35,2.09,2.09,0,0,1,1.26-.8,1.81,1.81,0,0,1,1.28.19,1.7,1.7,0,0,1,.68.72,1.83,1.83,0,0,1,.17.58v.22a.11.11,0,0,1-.2.05h0l-.09-.17a2.4,2.4,0,0,0-.27-.45,1.58,1.58,0,0,0-.57-.46,1.44,1.44,0,0,0-.91-.14,1.62,1.62,0,0,0-1,.59,2.3,2.3,0,0,0-.47,1.25,15.264,15.264,0,0,1-.27,1.6,7.3,7.3,0,0,1-.47,1.63s-.19.23-.22.21a.33.33,0,0,1-.35-.16,1.45,1.45,0,0,1-.14-.45,8.3,8.3,0,0,1-.06-.84c0-.55-.05-1.09-.08-1.6,0-.25-.06-.5-.08-.75a5.933,5.933,0,0,0-.13-.66,2.827,2.827,0,0,0-.22-.61,1.27,1.27,0,0,0-.34-.41,1.1,1.1,0,0,0-.87-.1,3.361,3.361,0,0,0-.76.28c-.41.21-.65.36-.65.36a.1.1,0,0,1-.14,0,.08.08,0,0,1,0-.11Z" fill="#f48480"/>
      <path id="Trazado_119774" data-name="Trazado 119774" d="M155.38,232.57a.711.711,0,0,1-.21,0,.55.55,0,0,1-.33-.26.086.086,0,1,1,.14-.09.31.31,0,0,0,.21.15,1,1,0,0,0,.78-.2.1.1,0,1,1,.1.18,1.47,1.47,0,0,1-.69.22Z" fill="#f94e4e"/>
      <path id="Trazado_119775" data-name="Trazado 119775" d="M152,231.67a1.44,1.44,0,0,0,1.44-1.95,1.46,1.46,0,0,0-2.33-.83C150.25,229.71,151,231.67,152,231.67Z" fill="#ff9e97"/>
      <path id="Trazado_119776" data-name="Trazado 119776" d="M160.06,230.16a6.3,6.3,0,0,1-.33.69,4.681,4.681,0,0,1-.46.65,1.48,1.48,0,0,1-1.63-.16,1.58,1.58,0,0,1,.24-2.33,1.26,1.26,0,0,1,2.18,1.15Z" fill="#ff9e97"/>
      <path id="Trazado_119777" data-name="Trazado 119777" d="M151.78,227.2c-.34-.12.59-1.24,1.39-1.24s1.46,1.5,1.11,1.83-.28-.83-.56-.92c0,0,.24.79-.35.89s-.24-1.21-.24-1.21-.28-.15-.69.23S152,227.26,151.78,227.2Z" fill="#3c0c07"/>
      <path id="Trazado_119778" data-name="Trazado 119778" d="M157,227.45c-.36-.13.35-1.29,1.15-1.32s1.32,1.23,1,1.54-.18-.52-.57-.69c0,0,.21.8-.46.86s-.16-1.1-.16-1.1-.06-.12-.47.25S157.22,227.53,157,227.45Z" fill="#3c0c07"/>
      <path id="Trazado_119779" data-name="Trazado 119779" d="M253.53,226.64c1,.32,1.53-.57,1.53-1.72A1.23,1.23,0,0,0,253,224a1.63,1.63,0,0,0,.53,2.64Z" fill="#ff9e97"/>
      <path id="Trazado_119780" data-name="Trazado 119780" d="M261.39,226.41a6.4,6.4,0,0,1-2.85,2.34,1.61,1.61,0,0,1,.42-2.37,1.69,1.69,0,0,1,2.43.03Z" fill="#ff9e97"/>
      <path id="Trazado_119781" data-name="Trazado 119781" d="M255.5,221.29c-.39-.33,1.13-.78,1.72-.4s.59,1.66.26,1.74.11-1.14-.6-1.34c0,0-.08,1.1-.55,1.07s-.26-1.07-.26-1.07A.51.51,0,0,1,255.5,221.29Z" fill="#3c0c07"/>
      <path id="Trazado_119782" data-name="Trazado 119782" d="M260.13,223.69c-.16-.11.71-1,1.36-.9s1.17,1.27.84,1.48-.25-1.15-1.05-1c0,0,.23.95-.22,1s-.32-.75-.32-.75S260.25,223.78,260.13,223.69Z" fill="#3c0c07"/>
      <path id="Trazado_119783" data-name="Trazado 119783" d="M252.52,220.85h0a.1.1,0,0,1-.07-.13,4.121,4.121,0,0,0,.13-1.13.11.11,0,1,1,.21,0,4.351,4.351,0,0,1-.14,1.2.11.11,0,0,1-.13.06Z" fill="#f48480"/>
      <path id="Trazado_119784" data-name="Trazado 119784" d="M255.38,220.3l.16-.12a2.449,2.449,0,0,1,.53-.28,2.12,2.12,0,0,1,.93-.14,1.631,1.631,0,0,1,.58.16,1.57,1.57,0,0,1,.49.47l.19.31a1.313,1.313,0,0,0,.1.32,2.15,2.15,0,0,1,.12.73,3.51,3.51,0,0,1-.44,1.5c-.23.47-.48.95-.69,1.45a4.5,4.5,0,0,0-.25.76.8.8,0,0,0,0,.35.4.4,0,0,0,.26.18c.16,0,.4-.23.56-.42a8.054,8.054,0,0,0,.49-.66c.3-.45.57-.92.84-1.37a8.661,8.661,0,0,1,.89-1.26,1.66,1.66,0,0,1,1.33-.64.931.931,0,0,1,.34.06h.29a1.479,1.479,0,0,1,.46.35,1.73,1.73,0,0,1,.44.88,1.89,1.89,0,0,1,0,.81.09.09,0,0,1-.13.07.1.1,0,0,1-.07-.09v-.19a3.05,3.05,0,0,0-.11-.52,1.56,1.56,0,0,0-.39-.66.5.5,0,0,0-.15-.14l-.25-.14a1.54,1.54,0,0,0-.47-.12,1.25,1.25,0,0,0-1,.49,8.46,8.46,0,0,0-.9,1.16c-.29.43-.59.89-.92,1.33a6.562,6.562,0,0,1-.51.67c-.21.19-.37.47-.79.48a.62.62,0,0,1-.39-.3.86.86,0,0,1-.05-.47,4,4,0,0,1,.26-.81c.21-.51.43-1,.65-1.48a3.21,3.21,0,0,0,.37-1.38,2,2,0,0,0-.11-.63l-.12-.32-.15-.22c-.08-.18-.25-.25-.37-.36a1.59,1.59,0,0,0-.45-.12,2.221,2.221,0,0,0-.8.08,3.581,3.581,0,0,0-.5.19l-.18.1a.07.07,0,1,1-.09-.06Z" fill="#f48480"/>
      <path id="Trazado_119785" data-name="Trazado 119785" d="M256.5,227.67a.88.88,0,0,1-.33-.06.67.67,0,0,1-.37-.38.1.1,0,0,1,.06-.13.11.11,0,0,1,.14.06h0a.47.47,0,0,0,.25.26,1,1,0,0,0,.77-.08.086.086,0,1,1,.09.14,1.71,1.71,0,0,1-.61.19Z" fill="#f94e4e"/>
      <path id="Trazado_119786" data-name="Trazado 119786" d="M346.53,152.85c-1.77.08-3.56.06-5.31.28a7.369,7.369,0,0,0-2.17,1.09,7.23,7.23,0,0,0,1.32,2c.91.7,2.16,1,3,1.68a16.492,16.492,0,0,1,2.13,2.73,13.8,13.8,0,0,1-3.3.88c-1.22,0-2.44-.55-3.68-.61a2.44,2.44,0,0,0-2,.8c-.23.45.2,1.52.66,2,.94.95,2.24,1.54,3.11,2.52a11.21,11.21,0,0,1,1.39,2.89,13,13,0,0,1-3.13.38c-1-.13-2-.86-3-1.06a13.54,13.54,0,0,0-2.91.07,19.5,19.5,0,0,0,1.06,2.95c.36.68,1.22,1.1,1.57,1.79a29.148,29.148,0,0,1,1.28,3.5c-1.3-.15-2.61-.24-3.89-.48-.49-.09-.88-.66-1.37-.81-1.17-.34-2.38-.56-3.58-.83a23.75,23.75,0,0,0,.81,3.5c.41,1.07,1.33,1.95,1.67,3a3,3,0,0,1-.4,2.38c-.21.28-1.5,0-2.14-.31-.84-.45-1.46-1.32-2.3-1.81-1.13-.66-2.37-1.13-3.56-1.68.12,1.38.15,2.76.38,4.12.16.86.8,1.64.9,2.5a8.91,8.91,0,0,1-.41,2.45c-.87-.23-2-.22-2.56-.75-1.13-1-1.91-2.36-3-3.42a6.22,6.22,0,0,0-2-.87c-.29.75-.87,1.53-.81,2.25.14,1.59.76,3.14.87,4.73a2.85,2.85,0,0,1-1.11,2.11c-.29.21-1.52-.41-1.92-1-.95-1.28-1.55-2.82-2.51-4.09-.44-.58-1.37-.78-2.08-1.16a6.41,6.41,0,0,0-.95,2c-.11,1.23.29,2.53.08,3.73a13.441,13.441,0,0,1-1.4,3.14,16.36,16.36,0,0,1-2.23-2.34c-.52-.8-.55-1.92-1.05-2.74a18.25,18.25,0,0,0-2.08-2.34,17,17,0,0,0-1.51,2.81c-.32,1-.09,2.2-.48,3.16a9.92,9.92,0,0,1-1.83,2.27c-.59-.69-1.43-1.29-1.72-2.09-.44-1.24-.37-2.66-.78-3.92a8.709,8.709,0,0,0-1.57-2.14,9.449,9.449,0,0,0-1.78,2c-.57,1.2-.68,2.62-1.3,3.78-.39.73-1.38,1.14-2.1,1.69-.45-.71-1.18-1.38-1.28-2.14-.19-1.49.09-3-.09-4.54-.09-.72-.79-1.38-1.21-2.06a6.55,6.55,0,0,0-1.79,1.24c-.68.93-.94,2.18-1.68,3a17.329,17.329,0,0,1-2.91,2.22,16.378,16.378,0,0,1-.74-3.38c0-1.14.55-2.28.56-3.42a6.89,6.89,0,0,0-.84-2.25,6.05,6.05,0,0,0-2,.89c-1,1.09-1.78,2.49-2.88,3.51-.6.55-1.69.57-2.56.82a6.641,6.641,0,0,1-.45-2.45c.26-1.29,1-2.48,1.31-3.77a10.05,10.05,0,0,0-.23-2.86,12.241,12.241,0,0,0-2.7,1c-1.17.8-2.09,2-3.27,2.75a1.581,1.581,0,1,1-2.45-2c.51-1.32,1.46-2.47,2-3.78a12.111,12.111,0,0,0,.42-2.86,10.859,10.859,0,0,0-2.83.38c-1.14.47-2.07,1.45-3.21,1.9a8.8,8.8,0,0,1-2.73.13,8.421,8.421,0,0,1,.5-2.87c.72-1.21,1.92-2.13,2.72-3.3a6,6,0,0,0,.47-2.15,6.21,6.21,0,0,0-2.34-.37c-1.29.32-2.45,1.2-3.73,1.44a10.58,10.58,0,0,1-3.15-.41A11.569,11.569,0,0,1,251,167.7c.64-.82,1.76-1.27,2.42-2.08a14,14,0,0,0,1.44-2.77,13.49,13.49,0,0,0-2.86-.44c-1.23.07-2.45.64-3.67.64a7.52,7.52,0,0,1-2.51-1,7.91,7.91,0,0,1,1.43-2.32c1.11-.88,2.52-1.36,3.67-2.19a6.35,6.35,0,0,0,1.25-1.84c-.7-.43-1.35-1.15-2.08-1.23-1.32-.14-2.7.31-4,.11a10.74,10.74,0,0,1-2.88-1.39,9.87,9.87,0,0,1,2.07-2.15c1.15-.65,2.56-.8,3.74-1.41.67-.35,1.08-1.18,1.61-1.8a6.9,6.9,0,0,0-2-1.41c-1.55-.4-3.2-.39-4.74-.81-.62-.17-1.46-1-1.45-1.58a2.33,2.33,0,0,1,1.44-1.6c1.53-.46,3.18-.49,4.71-.93.73-.21,1.3-1,1.94-1.49-.56-.59-1-1.41-1.69-1.73-1.36-.63-2.92-.86-4.27-1.52-.67-.33-1.05-1.25-1.56-1.91.68-.46,1.32-1.22,2.05-1.32,1.49-.2,3,.07,4.53-.11a6.78,6.78,0,0,0,2.14-1.15,7.679,7.679,0,0,0-1.37-2c-.91-.69-2.17-.95-3-1.68a15,15,0,0,1-2.07-2.75,14.46,14.46,0,0,1,3.36-.82c1.22,0,2.45.53,3.68.57.67,0,1.73-.36,1.92-.83a2.41,2.41,0,0,0-.74-2c-1.15-1.11-2.6-1.92-3.7-3.07-.5-.53-.48-1.56-.69-2.36a5.49,5.49,0,0,1,2.18-.5c1.39.28,2.67,1,4.06,1.3a10,10,0,0,0,2.85-.24,10.109,10.109,0,0,0-.86-2.5c-.64-.95-1.73-1.61-2.29-2.6a11.931,11.931,0,0,1-.8-3.07,13.11,13.11,0,0,1,3.22.25c1.15.4,2.11,1.36,3.26,1.81a6.63,6.63,0,0,0,2.4,0,7.812,7.812,0,0,0-.24-2.4c-.51-1.13-1.51-2-1.92-3.2a10.652,10.652,0,0,1-.22-3.17,19,19,0,0,1,3.13.85c.7.31,1.16,1.15,1.85,1.51a31.622,31.622,0,0,0,3.36,1.31,22.27,22.27,0,0,0-.25-3.39c-.25-1.12-1-2.15-1.16-3.27a6.861,6.861,0,0,1,.49-2.4c.81.23,1.82.23,2.37.73,1.17,1.08,2,2.5,3.17,3.61a2.34,2.34,0,0,0,2,.64,2.37,2.37,0,0,0,.78-2c-.16-1.59-.74-3.14-.86-4.73-.06-.74.55-1.53.86-2.31.75.35,1.72.51,2.2,1.08.84,1,1.27,2.37,2.09,3.41a11.471,11.471,0,0,0,2.29,1.82,13.36,13.36,0,0,0,1.1-3c.16-1.22-.24-2.51-.08-3.72a6.84,6.84,0,0,1,1.25-2.16c.73.54,1.7.93,2.12,1.64.66,1.14.82,2.56,1.43,3.74a10.3,10.3,0,0,0,1.83,2,9.641,9.641,0,0,0,1.58-2.45c.53-1.95.8-4,1.17-6h2.15c.49,2.06.91,4.14,1.52,6.17a7.769,7.769,0,0,0,1.39,2,8.87,8.87,0,0,0,1.89-1.82c.52-.91.53-2.11,1.06-3a18.841,18.841,0,0,1,2.27-2.65A14.071,14.071,0,0,1,305.18,94c.24,1.19-.08,2.5.07,3.72a6.23,6.23,0,0,0,1,2c.69-.4,1.61-.65,2-1.25,1-1.38,1.59-3,2.53-4.38.33-.49,1.4-1,1.75-.84A2.45,2.45,0,0,1,313.72,95c0,1.59-.56,3.16-.62,4.75a8.2,8.2,0,0,0,.77,2.52,8.37,8.37,0,0,0,2.17-1.11c.77-.71,1.18-1.84,2-2.48a19.112,19.112,0,0,1,3.22-1.73,21,21,0,0,1,.13,3.71c-.14,1-.88,2-1.07,3a8.1,8.1,0,0,0,.32,2.4,6.77,6.77,0,0,0,2.33-.6c1.3-.92,2.36-2.19,3.67-3.09a2.37,2.37,0,0,1,2.18-.16,2.34,2.34,0,0,1,.29,2.13c-.61,1.47-1.62,2.77-2.26,4.23a7,7,0,0,0-.13,2.4,8.27,8.27,0,0,0,2.4-.13c.89-.33,1.6-1.19,2.5-1.5a28,28,0,0,1,3.89-.84,32.008,32.008,0,0,1-1.36,3.93c-.42.85-1.37,1.43-1.86,2.26a7.22,7.22,0,0,0-.49,2.12,5.7,5.7,0,0,0,2.33.4c1.45-.38,2.77-1.27,4.23-1.61.79-.18,1.74.35,2.63.56a7.11,7.11,0,0,1-.82,2.35c-.78,1-2,1.54-2.78,2.48a13.321,13.321,0,0,0-1.45,2.75,14.08,14.08,0,0,0,2.9.45c1.14-.07,2.27-.67,3.39-.65a9,9,0,0,1,2.76.94,8.42,8.42,0,0,1-1.41,2.33c-.93.8-2.23,1.15-3.19,1.92a11.3,11.3,0,0,0-1.71,2.33,9.061,9.061,0,0,0,2.52,1,52.881,52.881,0,0,0,5.34-.06v3.22c-1.67.58-3.38,1.08-5,1.81a2.36,2.36,0,0,0-1.31,1.67c0,.51.94,1.26,1.57,1.39a43.547,43.547,0,0,0,4.73.49v3.75a43.145,43.145,0,0,0-4.67.87c-.62.18-1.49.94-1.5,1.45s.76,1.35,1.37,1.6a47.277,47.277,0,0,0,4.8,1.44ZM276.67,174c10.38,7.82,29.15,7,37.37-.15L310.55,169c-4.87,2.58-9.9,4.46-15.22,3.92-5.14-.53-10.18-2-15.69-3.08Zm-16.14-39c-4.51,9.91,1.66,29.18,11.34,35.53,1.16-1.64,2.33-3.28,3.47-4.87-9-11.37-9.49-12.93-9.26-27.48a2.29,2.29,0,0,0-1.08-1.73,39.472,39.472,0,0,0-4.47-1.52ZM319,170.56c12.13-9.65,14.77-27.6,11.16-35.61-.85.24-1.68.57-2.55.73-2.4.45-3.21,1.44-2.81,4.2a26.42,26.42,0,0,1-3.48,17.8c-1.68,2.79-3.78,5.33-5.79,8.11C316.63,167.26,317.78,168.83,319,170.56Zm9.5-41.38c-3.63-11.42-19-22.47-30.24-21.72a26.731,26.731,0,0,1,0,3.1c-.27,2.23.57,3,2.84,3.71,4.19,1.31,8.59,2.82,12,5.41,3.87,2.93,6.77,7.14,10.4,11.14Zm-66.19,0c1.06.38,2.17.68,3.2,1.16,1.85.86,2.91.52,3.93-1.45a24.6,24.6,0,0,1,10.65-11c3.82-2,8-3.28,12.09-4.94v-5.59c-11.78-.06-26.99,11.04-29.83,21.79Zm23.31,32.45c6.74,3,12.91,3.25,19.36-.09-1.19-1.7-2.26-3.11-3.21-4.6s-1.89-2.15-3.91-1.63c-1.81.48-3.87-.06-5.82-.06-.7,0-1.7,0-2.06.46-1.43,1.73-2.71,3.65-4.32,5.89ZM275.5,139.42c-2,6.17.72,14.53,5.16,18,7.39-3.81,2.78-9.49,2.35-14.58Zm39.86.34c-1.65.53-3.3,1.15-5,1.56a3.064,3.064,0,0,0-2.75,3.21c-.14,1.87-1.25,3.66-1.81,5.52a3,3,0,0,0-.05,2.11c1.23,1.93,2.66,3.74,4,5.6C314.69,153.69,317.3,145.36,315.36,139.76ZM313.61,134c-2.71-6.12-9.52-10.93-15.3-10.82a36.694,36.694,0,0,1,0,4.45c-.28,2.41.32,3.94,2.87,4.79,1.41.47,2.46,2,3.76,2.87a3.42,3.42,0,0,0,2.22.8A62.315,62.315,0,0,0,313.61,134Zm-36.3-.66c5.83,5.86,9.85.29,14.4-1.92.34-2.77.68-5.53,1.07-8.73-7.44,1.49-12.31,5.04-15.47,10.69Z" fill="#9494d2" fill-rule="evenodd"/>
      <path id="Trazado_119787" data-name="Trazado 119787" d="M240.71,143.17c-.69,0-1.39-.09-2.08-.07a2.37,2.37,0,0,0-.79.34,3.309,3.309,0,0,0,.42.74c.23.21.58.29.8.51s.65.75,1,1.13a9.15,9.15,0,0,1-1.46.2c-.34,0-.68-.2-1-.21a2.15,2.15,0,0,0-.76.2c.09.27.1.61.28.8.36.4.85.67,1.19,1.08.18.22.16.61.23.92a2.24,2.24,0,0,1-.87.11c-.49-.13-.92-.43-1.4-.57a2.69,2.69,0,0,0-.93.06,2.91,2.91,0,0,0,.24.9c.28.46.69.83,1,1.29a.85.85,0,0,1,0,.76.84.84,0,0,1-.76.07c-.46-.2-.85-.56-1.31-.77a4.639,4.639,0,0,0-1-.21,3.77,3.77,0,0,0,.09,1c.19.5.53.95.7,1.45a.89.89,0,0,1-.21.74c-.09.09-.5,0-.67-.12-.47-.36-.87-.83-1.35-1.19a2,2,0,0,0-.75-.2,2.37,2.37,0,0,0-.17.84c.11.52.4,1,.48,1.53a2.24,2.24,0,0,1-.25.93,2.51,2.51,0,0,1-.81-.37c-.37-.38-.63-.87-1-1.27a2.311,2.311,0,0,0-.7-.36,2.26,2.26,0,0,0-.33.78c0,.51.21,1,.2,1.51a3,3,0,0,1-.4.95,2.831,2.831,0,0,1-.78-.56c-.29-.41-.43-.93-.71-1.34-.15-.21-.48-.29-.73-.43a2.22,2.22,0,0,0-.37.69c-.06.56,0,1.14-.07,1.7,0,.24-.32.63-.45.62a1,1,0,0,1-.7-.48c-.23-.51-.31-1.1-.53-1.62-.09-.23-.36-.37-.56-.56-.19.21-.47.39-.56.64-.18.54-.21,1.12-.38,1.66-.08.23-.36.39-.55.58-.2-.21-.52-.39-.59-.64-.14-.51-.1-1.07-.23-1.59a3.169,3.169,0,0,0-.54-.77,3,3,0,0,0-.62.61c-.19.32-.21.75-.42,1.05a6.291,6.291,0,0,1-.93.93,5.82,5.82,0,0,1-.41-1.17c-.06-.4.11-.82.07-1.23a2.75,2.75,0,0,0-.38-.77c-.25.15-.57.24-.73.45-.35.45-.58,1-.93,1.43a.79.79,0,0,1-.71.27.81.81,0,0,1-.31-.69c.06-.56.26-1.11.32-1.67a2.629,2.629,0,0,0-.2-.84,2.31,2.31,0,0,0-.79.29c-.36.31-.59.76-1,1.06a3.88,3.88,0,0,1-1,.4,3.66,3.66,0,0,1-.1-1.13c.09-.45.39-.86.53-1.31a2.269,2.269,0,0,0-.05-.77,2.042,2.042,0,0,0-.84.11c-.45.28-.81.72-1.27,1a2.25,2.25,0,0,1-1,.1,2.33,2.33,0,0,1,0-.88c.23-.48.61-.89.85-1.37a2.55,2.55,0,0,0,.06-.84,2.39,2.39,0,0,0-.85,0c-.53.21-1,.56-1.53.76a.8.8,0,0,1-.75-.11.82.82,0,0,1,.07-.77c.33-.46.79-.82,1.13-1.28a2.541,2.541,0,0,0,.24-.82,2.62,2.62,0,0,0-.84-.15c-.56.12-1.08.38-1.63.5a.82.82,0,0,1-.72-.25.8.8,0,0,1,.19-.74c.4-.4.92-.67,1.33-1.07a2.22,2.22,0,0,0,.34-.78,2.12,2.12,0,0,0-.74-.26c-.5,0-1,.21-1.5.19a2.72,2.72,0,0,1-1-.38,3.93,3.93,0,0,1,.56-.8c.29-.23.71-.31,1-.53a6.821,6.821,0,0,0,.81-.88,5.24,5.24,0,0,0-1.06-.4c-.4-.08-.84,0-1.23-.06a3.27,3.27,0,0,1-.81-.52c.22-.24.41-.56.68-.69.45-.22,1-.26,1.44-.47.25-.11.41-.4.61-.6-.22-.19-.42-.46-.68-.54-.54-.17-1.12-.21-1.66-.39a.83.83,0,0,1-.5-.57c0-.19.32-.48.55-.53.54-.14,1.13-.12,1.68-.25.26-.06.47-.33.71-.5-.19-.22-.33-.52-.57-.65-.5-.26-1.07-.39-1.57-.66a.57.57,0,0,1,.23-1.11c.49,0,1,.08,1.51.05a4.71,4.71,0,0,0,1-.33,3.21,3.21,0,0,0-.58-.84c-.38-.33-.88-.51-1.27-.83a.89.89,0,0,1-.28-.72.78.78,0,0,1,.69-.32,14.645,14.645,0,0,1,1.68.33,2.44,2.44,0,0,0,.83-.22,2.54,2.54,0,0,0-.32-.81c-.38-.41-.87-.73-1.24-1.16a.8.8,0,0,1-.15-.74.77.77,0,0,1,.73-.2c.58.16,1.11.46,1.68.64a.84.84,0,0,0,.74-.12.86.86,0,0,0-.07-.74c-.2-.35-.57-.61-.76-1a7.379,7.379,0,0,1-.39-1.26,6,6,0,0,1,1.28.21,9.593,9.593,0,0,1,1,.66,2.46,2.46,0,0,0,.78.09,2.1,2.1,0,0,0,0-.86c-.21-.55-.57-1-.8-1.61a.8.8,0,0,1,.11-.68.85.85,0,0,1,.76,0c.49.35.88.82,1.35,1.18a2,2,0,0,0,.75.22c.07-.27.25-.57.19-.82-.11-.52-.39-1-.49-1.53a2.3,2.3,0,0,1,.16-.87c.31.09.7.09.91.29.38.37.63.88,1,1.28a2.27,2.27,0,0,0,.7.33c.11-.26.33-.52.32-.77,0-.57-.21-1.13-.22-1.69a1,1,0,0,1,.43-.74c.1-.07.53.17.67.36.28.42.44.92.73,1.33a3.33,3.33,0,0,0,.78.65,4.481,4.481,0,0,0,.41-1c.07-.46,0-1,.06-1.41.05-.27.32-.49.5-.74.22.19.55.33.66.57.22.49.29,1.05.5,1.54.11.25.39.43.59.64.19-.22.47-.41.55-.66.17-.51.18-1.07.36-1.58.08-.25.38-.43.58-.65.22.24.54.45.62.72.14.52.09,1.08.22,1.6.06.25.34.45.52.67.2-.17.47-.31.58-.53.25-.48.35-1,.62-1.49.14-.25.51-.36.78-.54.14.26.38.51.4.78,0,.54-.09,1.08-.06,1.61,0,.27.26.51.4.77.22-.14.51-.22.66-.42a10.457,10.457,0,0,1,.7-1.12,4.87,4.87,0,0,1,1-.65,4.91,4.91,0,0,1,.21,1.12c0,.37-.23.74-.24,1.11a4.55,4.55,0,0,0,.2,1,3.82,3.82,0,0,0,.86-.42c.38-.33.64-.79,1-1.11.2-.16.56-.14.84-.2a3.76,3.76,0,0,1,.14.87c0,.2-.17.4-.22.62-.12.56-.95,1.15-.23,1.64.23.17,1-.44,1.53-.72.19-.11.34-.33.54-.38a1.39,1.39,0,0,1,.86,0c.11.05.1.54,0,.76-.25.51-.63,1-.89,1.45a2.12,2.12,0,0,0-.08.77c.28,0,.61.14.85,0,.49-.2.92-.57,1.42-.75a2.45,2.45,0,0,1,.95.09,2.13,2.13,0,0,1-.19.86c-.33.46-.79.82-1.14,1.27-.13.17-.24.55-.14.65a.86.86,0,0,0,.71.25c.55-.13,1.07-.42,1.62-.52a2.38,2.38,0,0,1,.93.24,2.639,2.639,0,0,1-.35.82c-.27.3-.69.47-1,.76a6.171,6.171,0,0,0-.64,1,6.2,6.2,0,0,0,1.11.21c.37,0,.75-.19,1.12-.16a3.46,3.46,0,0,1,1,.39,3.511,3.511,0,0,1-.54.8c-.29.24-.71.31-1,.54a6.169,6.169,0,0,0-.81.88,8.309,8.309,0,0,0,1.05.39c.5.09,1,.1,1.5.15v1.14c-.57.16-1.16.29-1.72.49-.2.07-.47.37-.44.51a.85.85,0,0,0,.5.56c.53.16,1.11.23,1.66.34v1.33a13.837,13.837,0,0,0-1.58.14c-.26.05-.47.3-.71.46.21.24.37.56.63.69a16.568,16.568,0,0,0,1.66.62Zm-7.79-4.58v.47c0,1.28.49,1.83,1.72,1.87.86,0,1.28-.47,1.3-1.7a13.29,13.29,0,0,0-3.73-9.77c-1-1-1.75-.92-2.47.3a1.32,1.32,0,0,0,.3,1.78,10.1,10.1,0,0,1,2.88,7.05Zm-9,11.71c0,1.27.61,1.77,1.92,1.43a13.27,13.27,0,0,0,8.52-6.64c.49-.88.38-1.5-.29-1.89a1.51,1.51,0,0,0-2.3.42,10.38,10.38,0,0,1-6.8,5.22,1.28,1.28,0,0,0-1.08,1.46Zm-2.24.08a1.31,1.31,0,0,0-1.11-1.46,10.48,10.48,0,0,1-6.88-4.82c-.54-.86-1.35-.92-2.3-.24-.73.51-.67,1.15-.25,1.82a13.35,13.35,0,0,0,8.95,6.21c.96.2,1.55-.32,1.56-1.51Zm.81-25.27a1.552,1.552,0,0,1-.05.23,13.5,13.5,0,0,0-5.77,1.39,1.2,1.2,0,0,0-.8,1.5,1.62,1.62,0,0,0,2.38,1.07c.29-.12.58-.25.88-.35a10.63,10.63,0,0,1,7.17.06c.92.33,1.66-.14,2-1.2a1.14,1.14,0,0,0-.94-1.57c-1.64-.41-3.27-.76-4.9-1.13ZM209.2,138.89a7.371,7.371,0,0,0,.09,1.29c.1,1,.56,1.5,1.28,1.47a1.6,1.6,0,0,0,1.7-1.73,10.61,10.61,0,0,1,2.31-7.81c.61-.77.42-1.56-.48-2.27-.6-.48-1.24-.34-1.87.43a13.46,13.46,0,0,0-3.06,8.62Zm11.42,3.78A4.07,4.07,0,0,0,226,141.3c1.35-2,.59-4.75-.9-5.52Zm3.7-7.51a4.22,4.22,0,0,0-5.61,1.76,4,4,0,0,0,1.1,5.19Z" fill="#7176c4" fill-rule="evenodd"/>
      <path id="Trazado_119788" data-name="Trazado 119788" d="M405.07,127.1c.34,2,.77,4,1,6.06.17,1.39,1.18,1.31,2.1,1.47s1.8.48,2.41-.77c.9-1.84,2-3.55,3.16-5.45l2.76,1c-.33,2.1-.53,4.2-1,6.21-.43,1.73,1,1.78,1.77,2.43a1.46,1.46,0,0,0,2.21-.12c1.52-1.38,3.14-2.63,4.83-4l2.28,1.9c-1.11,2-2.11,3.9-3.24,5.73-.9,1.46.53,1.92,1.09,2.65a2.12,2.12,0,0,0,1.76.63,29.534,29.534,0,0,0,3.71-1.27c2.58-.92,2.58-.92,3.84,1.79-1.53,1.29-3.05,2.66-4.65,3.92-.78.62-1.12,1.18-.6,2.14s.43,2.39,2.23,2.26c2-.15,4,0,6.11,0,.19,1,.36,2,.54,3-2.08.79-4,1.62-6,2.24-1.5.47-.95,1.59-1,2.52s-.12,1.67,1,2,2.47.88,3.7,1.33c2.59.95,2.59.95,1.68,3.85-2,0-4.13.09-6.22,0-1.3-.08-1.51.73-1.77,1.61s-1.05,1.77.23,2.7c1.69,1.23,3.22,2.69,4.86,4.09-.51.88-1,1.66-1.5,2.57-1.91-.68-3.84-1.21-5.62-2-1.55-.73-2.07.26-2.91,1.13a1.74,1.74,0,0,0-.22,2.52c1.06,1.68,2,3.44,3,5.25l-2.28,1.93c-1.65-1.36-3.31-2.64-4.86-4.05a1.47,1.47,0,0,0-2.22-.09c-.8.65-2.24.7-1.75,2.41.42,1.47.52,3,.81,4.54.2,1.05.21,1.77-1.09,2.21a1.56,1.56,0,0,1-2.28-.91c-.73-1.42-1.68-2.72-2.39-4.15-.56-1.16-1.4-.92-2.3-.72s-2,.06-2.18,1.59c-.21,2-.71,4-1.1,6.11h-3c-.37-2-.88-4-1.07-6-.16-1.7-1.37-1.49-2.41-1.78a1.6,1.6,0,0,0-2.19.94c-.54,1.13-1.27,2.17-1.91,3.25-1.37,2.31-1.37,2.31-4,.93.33-2,.58-4.12,1.05-6.15.4-1.74-1.14-1.69-1.89-2.36s-1.36-.52-2.08.13c-1.53,1.36-3.14,2.63-4.86,4.05l-2.3-1.89c1.07-1.89,2.06-3.74,3.15-5.53.51-.82.54-1.44-.25-2.05s-1-2.17-2.64-1.44c-1.87.82-3.85,1.4-5.95,2.14l-1.58-2.53c1.61-1.38,3.11-2.75,4.72-4a1.57,1.57,0,0,0,.58-2.3c-.5-.91-.34-2.3-2.1-2.12s-3.64,0-5.47.06V165.1c1.65-.63,3.32-1.19,4.9-1.93a1.91,1.91,0,0,0,.88-1.49c0-.92-.14-2.32-.71-2.63a31.47,31.47,0,0,0-5.07-1.83v-3.76c1.88,0,3.76,0,5.63.16s1.48-1.39,2-2.28.21-1.44-.52-2c-1.63-1.32-3.2-2.71-4.82-4.1l1.5-2.55c2.08.73,4.08,1.36,6,2.15a1.34,1.34,0,0,0,2-.65c.49-.88,1.92-1.36.93-2.85-1.16-1.74-2.1-3.63-3.17-5.52l2.27-1.92c1.76,1.46,3.45,2.73,5,4.16,1.16,1.07,1.84,0,2.68-.38s1.46-.72,1.19-1.9c-.47-2-.72-4.14-1.08-6.34l2.75-1c1.14,1.92,2.3,3.62,3.2,5.46.72,1.49,1.75.77,2.74.72a1.64,1.64,0,0,0,1.8-1.59c.28-2,.71-3.92,1.08-5.88Zm-2.5,12.77c-4.2-.2-10.33,2.2-11.86,4.52l9,10.66c2.91-1,2.91-1,2.9-3.86V139.87Zm-5.51,41.57a21.74,21.74,0,0,0,12.85,0c-1.6-4.42-3.08-8.59-4.66-12.72a1.7,1.7,0,0,0-1.4-.71c-.74,0-1.93.24-2.11.7C400.11,172.81,398.66,177,397.06,181.44Zm19.36-37.25c-3.33-2.84-9.06-4.82-12.06-4.16v11.38c0,2.87,0,2.87,3,3.55Zm8.2,14.05c-4.6.82-9,1.58-13.4,2.41a1.42,1.42,0,0,0-.79.88c-.51,1.4-.49,2.56,1.24,3.23a28.611,28.611,0,0,1,3.56,2l7.23,4.14a21.14,21.14,0,0,0,2.16-12.66Zm-40,12.62c4-2.29,7.86-4.52,11.72-6.79a1.2,1.2,0,0,0,.48-.95c-.14-1.41-.31-2.84-2.32-2.76a10.06,10.06,0,0,1-2-.34l-10-1.74c-.93,3.42,0,8.91,2.13,12.58Zm13.62-14.61-9.2-10.95a20.54,20.54,0,0,0-6.33,11.16l11.1,1.94c2.89.5,2.89.5,4.44-2.15Zm-12.77,16.26a21.71,21.71,0,0,0,9.84,8.29c1.61-4.42,3.19-8.62,4.59-12.88.14-.44-.72-1.32-1.27-1.84a1.57,1.57,0,0,0-1.4-.31c-3.86,2.16-7.69,4.4-11.75,6.74Zm32.4-27.16c-3.13,3.71-6.15,7.31-9.14,10.87,1.47,2.72,1.47,2.72,4.23,2.22l3-.52,8.33-1.5a20.65,20.65,0,0,0-6.41-11.07Zm3.6,27.17-12.31-7.12c-2.44,1.84-2.44,1.85-1.48,4.5,1.1,3,2.19,6.1,3.3,9.14.21.56.46,1.09.73,1.73a21.94,21.94,0,0,0,9.77-8.25Z" fill="#c4c6eb" fill-rule="evenodd"/>
      <path id="Trazado_119789" data-name="Trazado 119789" d="M180.66,179.17l-.61,1.56c-.35-.44-.71-.87-1-1.32s-.6-1.25-.88-1.25c-.81,0-.43.88-.63,1.37S177,181,176.78,181c-.85,0-.62-.91-.83-1.46s-.35-1.27-.61-1.31c-.8-.12-.61.77-.88,1.21s-.7,1.34-1,1.31c-.8-.12-.43-.94-.54-1.49s-.26-1-.4-1.53c-.36.38-.72.76-1.09,1.13s-.8.78-1.2,1.17c-.08-.55-.17-1.11-.24-1.66s-.1-1-.14-1.57a13.034,13.034,0,0,0-1.25,1c-.39.38-.66,1.21-1.37.83-.21-.12,0-1,0-1.52s.85-1.15.13-1.59c-.24-.15-.93.47-1.42.71s-1,.43-1.45.64c.09-.52.16-1.05.28-1.56s.59-1.35.4-1.55c-.58-.62-1,.31-1.52.45s-1,.24-1.54.36c.18-.49.34-1,.55-1.47s.85-1.23.7-1.45c-.5-.75-1.08.11-1.65.19-.09,0-.18.11-.26.11H160.2a5.35,5.35,0,0,1,.54-1.19c.26-.34.71-.54,1-.86.15-.15.3-.51.22-.63a.86.86,0,0,0-.68-.33c-.53,0-1.05.27-1.58.29a2.78,2.78,0,0,1-1-.32,2.89,2.89,0,0,1,.51-.83c.37-.3.85-.44,1.22-.73a3.07,3.07,0,0,0,.53-.78,3.62,3.62,0,0,0-.89-.38,8.455,8.455,0,0,1-1.33.05,3.4,3.4,0,0,1-.9-.51c.21-.25.38-.58.64-.72.44-.24,1-.31,1.42-.55.23-.12.36-.44.54-.66-.21-.16-.4-.41-.64-.47-.52-.13-1.08-.1-1.6-.25-.27-.09-.48-.41-.72-.62a2.92,2.92,0,0,1,.76-.62c.37-.15.83-.1,1.21-.24a4.871,4.871,0,0,0,.94-.58,5.75,5.75,0,0,0-.89-.69c-.3-.17-.71-.16-1-.34a5.581,5.581,0,0,1-.8-.81,4.9,4.9,0,0,1,1.05-.47c.43-.08.89.05,1.33,0a2.46,2.46,0,0,0,.75-.42c-.16-.24-.27-.56-.49-.71-.44-.3-1-.47-1.41-.79-.22-.15-.29-.5-.42-.77.27-.12.55-.34.81-.33.57,0,1.12.21,1.69.26a.89.89,0,0,0,.7-.29.82.82,0,0,0-.23-.71c-.41-.39-.92-.68-1.33-1.08-.19-.19-.21-.54-.31-.83.28-.08.59-.27.85-.22.52.1,1,.38,1.53.51a2.91,2.91,0,0,0,.87-.08,3.13,3.13,0,0,0-.24-.9c-.31-.44-.75-.78-1-1.23a1,1,0,0,1,0-.86c.06-.12.55-.14.77-.05.53.23,1,.59,1.51.83a2.16,2.16,0,0,0,.77.05,2,2,0,0,0,0-.85c-.25-.55-.63-1-.89-1.57-.09-.19-.06-.61.06-.69a.85.85,0,0,1,.76,0c.48.3.87.75,1.35,1.05a2.83,2.83,0,0,0,.9.21,2.82,2.82,0,0,0,0-.86c-.11-.43-.4-.81-.48-1.24a4,4,0,0,1,.12-1.13,4,4,0,0,1,1,.48c.36.3.58.76.93,1.08a.8.8,0,0,0,.71.2.88.88,0,0,0,.27-.7c-.06-.6-.26-1.18-.31-1.78,0-.23.16-.62.34-.67a.84.84,0,0,1,.71.3c.34.45.55,1,.89,1.46.16.21.49.3.74.45a2.74,2.74,0,0,0,.35-.79,16.257,16.257,0,0,0,0-1.71.771.771,0,0,1,.43-.62.85.85,0,0,1,.66.41c.25.5.37,1.08.62,1.59.12.25.42.41.64.6a2.42,2.42,0,0,0,.5-.71c.13-.48.09-1,.24-1.5.09-.29.39-.52.59-.77.22.23.53.43.64.71s.12.89.26,1.3a4,4,0,0,0,.54.9,3.52,3.52,0,0,0,.69-.76c.2-.39.23-.87.44-1.25a3.15,3.15,0,0,1,.73-.67c.16.28.43.54.47.84a9.641,9.641,0,0,1,0,1.52,2.52,2.52,0,0,0,.4.78,2.52,2.52,0,0,0,.72-.48c.31-.44.48-1,.8-1.4.16-.22.5-.3.76-.45.12.27.35.53.35.8,0,.5-.19,1-.21,1.5a3.23,3.23,0,0,0,.23.94,3.3,3.3,0,0,0,.84-.42c.32-.3.51-.74.84-1a3.82,3.82,0,0,1,1-.44,3.12,3.12,0,0,1,.17,1c-.07.43-.34.83-.43,1.26a3.92,3.92,0,0,0,.05,1,3.87,3.87,0,0,0,1-.31c.41-.28.74-.71,1.16-1a.8.8,0,0,1,.77-.07.83.83,0,0,1,.12.76c-.21.52-.58,1-.8,1.51a2.46,2.46,0,0,0,0,.86,2.37,2.37,0,0,0,.85-.07c.51-.24,1-.62,1.48-.85a.83.83,0,0,1,.76.1.82.82,0,0,1,0,.76c-.3.48-.75.87-1.06,1.34a2.2,2.2,0,0,0-.18.83,2.36,2.36,0,0,0,.86.09c.51-.14,1-.44,1.51-.56a2.07,2.07,0,0,1,.85.18c-.08.28-.07.64-.25.84-.36.4-.85.68-1.21,1.07a2.34,2.34,0,0,0-.32.79,2.5,2.5,0,0,0,.83.24c.54,0,1.06-.27,1.59-.31a2.18,2.18,0,0,1,.82.33c-.13.27-.2.61-.41.78-.42.33-.95.52-1.38.84-.21.16-.3.49-.45.74a2.571,2.571,0,0,0,.78.35,14.591,14.591,0,0,1,1.62,0c.26,0,.5.3.74.46-.17.24-.29.58-.53.7-.47.25-1,.35-1.51.58-.24.13-.39.42-.59.64.23.17.44.43.7.5.52.14,1.08.12,1.59.27.26.08.45.38.67.57-.21.21-.38.52-.63.61-.41.15-.89.12-1.3.26a5.48,5.48,0,0,0-1,.58,8.118,8.118,0,0,0,1,.74c.36.19.81.22,1.17.42s.38.44.56.67c-.24.18-.46.45-.72.5a8.413,8.413,0,0,1-1.42,0,4.64,4.64,0,0,0-1,.36,5.05,5.05,0,0,0,.72.86c.31.25.76.35,1.07.61a2.91,2.91,0,0,1,.53.81,3.281,3.281,0,0,1-1,.37c-.44,0-.87-.2-1.31-.22a3.9,3.9,0,0,0-.93.21,3.38,3.38,0,0,0,.46.91c.37.38.85.66,1.23,1,.15.15.26.55.17.66a.86.86,0,0,1-.71.29c-.56-.12-1.08-.41-1.63-.53a2.76,2.76,0,0,0-.92.13,2.62,2.62,0,0,0,.25.82c.29.41.72.73,1,1.15a2.59,2.59,0,0,1,.16,1,2.861,2.861,0,0,1-1,0c-.46-.18-.86-.54-1.33-.73a2.13,2.13,0,0,0-.84,0,2.69,2.69,0,0,0,.07.86c.24.51.62,1,.85,1.48a.8.8,0,0,1-.09.76.85.85,0,0,1-.76,0c-.5-.33-.92-.79-1.42-1.13a.83.83,0,0,0-.74-.09.85.85,0,0,0-.15.73c.14.49.45.93.56,1.42a3.231,3.231,0,0,1-.12,1.05,3.83,3.83,0,0,1-1-.37c-.32-.25-.5-.66-.8-.93a4.789,4.789,0,0,0-.92-.5,4.14,4.14,0,0,0-.21,1c0,.5.22,1,.25,1.5,0,.24-.15.63-.33.69a.84.84,0,0,1-.71-.28c-.3-.37-.46-.84-.76-1.21a6.069,6.069,0,0,0-.86-.72c-.13.36-.28.7-.38,1.06a1.54,1.54,0,0,0,0,.48Zm2.5-6.06c-1.6-2.21-3.15-4.37-4.74-6.51a1,1,0,0,0-.71-.22h-2.54a.93.93,0,0,0-.64.21c-1.6,2.16-3.17,4.34-4.75,6.5C172.94,175.69,179.54,175.71,183.16,173.11Zm-19.14-14c-1.51,3.84.73,10.74,4.07,12.65,1.38-1.89,2.74-3.81,4.16-5.68.54-.71.88-1.28.24-2.15a5.71,5.71,0,0,1-.42-1.64c-.07-.24-.19-.6-.37-.66-2.55-.83-5.12-1.63-7.7-2.49Zm20.84,12.7c4-3.06,5.36-9.32,4-12.68-2.28.74-4.57,1.5-6.88,2.21-.74.22-1.19.47-1.2,1.38a7,7,0,0,1-.61,1.78c-.08.23-.16.59,0,.75,1.51,2.23,3.11,4.41,4.69,6.59Zm-20.22-14.72c2.6.84,5.12,1.68,7.67,2.47.21.07.55-.13.77-.28a13.8,13.8,0,0,1,1.7-1.2.94.94,0,0,0,.62-1q0-3.2,0-6.39V149.3a12.64,12.64,0,0,0-10.76,7.82Zm23.65,0c-1.61-4.29-6.95-8.1-10.76-7.69v7.22c0,.81.12,1.34,1,1.64.51.18.88.71,1.35,1a1.19,1.19,0,0,0,.78.28c2.51-.74,5.04-1.54,7.63-2.43Z" fill="#ced2ef" fill-rule="evenodd"/>
      <g id="Grupo_80452" data-name="Grupo 80452">
        <path id="Trazado_119790" data-name="Trazado 119790" d="M219.14,159.27a14.671,14.671,0,0,1,.68,2.45c.14,1.24.55,2.2,1.86,2.45s2.06-.54,2.52-1.7c.37-.95.76-2.18,2-1.82s.93,1.66.71,2.61c-.3,1.3-.14,2.38,1.13,3s2.24,0,3-1.12a2.09,2.09,0,0,1,.83-.86c.47-.2,1.18-.41,1.52-.19a1.8,1.8,0,0,1,.43,1.44,5.209,5.209,0,0,1-.66,1.68,2.17,2.17,0,0,0,3.25,2.72c.92-.66,2-1.88,3-.7.9,1-.26,2-1,2.83a2.168,2.168,0,0,0,2.41,3.52l.43-.17c.91-.31,2-.85,2.59.23s-.41,1.75-1.22,2.26c-1.08.67-1.89,1.46-1.42,2.84s1.64,1.62,3,1.43a2.92,2.92,0,0,1,1.35.05c.38.14.91.49,1,.8a1.56,1.56,0,0,1-.52,1.27,9.25,9.25,0,0,1-1.92.85c-1,.42-1.69,1.25-1.37,2.25a4.32,4.32,0,0,0,1.7,1.86c.45.32,1.24.15,1.74.44a1.966,1.966,0,0,1,1,1.29c0,.41-.73.82-1.19,1.14a1.64,1.64,0,0,1-.9.1c-1.35,0-2.46.35-2.73,1.84s.6,2.14,1.81,2.6a2.36,2.36,0,0,1,1,.61c.32.4.71,1,.59,1.4a1.75,1.75,0,0,1-1.27.8c-.57.09-1.24-.34-1.77-.21a4.75,4.75,0,0,0-2.39,1.15c-.7.81-.31,1.82.48,2.57a11,11,0,0,1,1.49,1.49,1.39,1.39,0,0,1,.14,1.24,1.64,1.64,0,0,1-1.27.55,4.471,4.471,0,0,1-1.68-.63,2.18,2.18,0,0,0-2.82,3.3,4.51,4.51,0,0,1,.82,1.44c.12.43.11,1.18-.15,1.38a1.94,1.94,0,0,1-1.52.13,3.88,3.88,0,0,1-1.3-1,2.08,2.08,0,0,0-2.88-.39,2.15,2.15,0,0,0-.73,2.83,4.71,4.71,0,0,1,.45,1.58c0,.48-.25,1.21-.6,1.36a1.89,1.89,0,0,1-1.48-.37,3.68,3.68,0,0,1-.9-1.2A2.19,2.19,0,1,0,224.2,216a4,4,0,0,1,0,1.65c-.13.47-.54,1.11-.92,1.18a1.77,1.77,0,0,1-1.33-.71,6.07,6.07,0,0,1-.66-1.68,2.16,2.16,0,0,0-4.23.28c-.11.49,0,1.09-.27,1.47a8,8,0,0,1-1.43,1.34,10.308,10.308,0,0,1-1.11-1.47,3.14,3.14,0,0,1-.09-1.2,2.21,2.21,0,0,0-1.78-2.33,2.11,2.11,0,0,0-2.49,1.5,5.45,5.45,0,0,1-.88,1.57,1.56,1.56,0,0,1-1.31.43,1.54,1.54,0,0,1-.75-1.14,7.27,7.27,0,0,1,.23-1.95,2.12,2.12,0,0,0-1.24-2.5,2,2,0,0,0-2.58.68,9.551,9.551,0,0,1-1.48,1.5,1.31,1.31,0,0,1-1.24.09,1.67,1.67,0,0,1-.52-1.28,5,5,0,0,1,.65-1.68,2.13,2.13,0,0,0-.36-2.89,2,2,0,0,0-2.89,0c-.32.26-.63.63-1,.69a11,11,0,0,1-2,0,5.09,5.09,0,0,1,.27-2,15.7,15.7,0,0,1,2-2.22c-1.18-2.56-1.82-2.76-4.47-2-.68.2-1.53-.24-2.3-.38a17.889,17.889,0,0,1,1-2c.21-.3.68-.42,1-.66a2.16,2.16,0,0,0-1.56-3.89c-.3,0-.64.2-.9.12-.74-.26-1.45-.61-2.18-.93.51-.59,1-1.22,1.55-1.77.19-.18.58-.16.86-.27a2.17,2.17,0,0,0-.38-4.26c-1.12-.18-2.71-.05-2.6-1.63s1.62-1.21,2.71-1.28a2.17,2.17,0,0,0,.73-4.24c-1-.44-2.47-.77-2-2.17s1.85-.84,2.91-.58a2.11,2.11,0,0,0,2.66-1.16,2.05,2.05,0,0,0-.73-2.68c-.86-.73-2.31-1.42-1.42-2.74s2-.22,3,.27a2.09,2.09,0,0,0,2.85-.51,2.05,2.05,0,0,0-.09-2.78c-.65-.88-1.75-1.91-.7-2.91s2,.2,2.79.92a2.19,2.19,0,0,0,3.59-2.47c-.42-1-1.16-2.29.16-2.95s1.81.72,2.39,1.58a2.27,2.27,0,0,0,2.69,1.19c1.24-.36,1.37-1.35,1.33-2.43a4.23,4.23,0,0,1,0-1.51,8.36,8.36,0,0,1,1-1.53,7.88,7.88,0,0,1,1.46,1.13,5,5,0,0,1,.54,1.41,2.06,2.06,0,0,0,2.22,1.48,2.16,2.16,0,0,0,2-2c.18-.88.43-1.75.64-2.62Zm9.12,30.18a11.25,11.25,0,1,0-11.32,11.19,11.25,11.25,0,0,0,11.32-11.19Z" fill="#5f5fa5" fill-rule="evenodd"/>
        <path id="Trazado_119791" data-name="Trazado 119791" d="M224,190.83c0,1.45-5.12,6.26-6.14,6-2.13-.59-5.17-.72-6.11-2.17a12.37,12.37,0,0,1-1.67-8c.24-1.66,2.92-3,4.56-4.37a1.65,1.65,0,0,1,1.19-.21,10.8,10.8,0,0,1,1.81.56c1.61.57,4,.7,4.65,1.83C223.46,186.34,223.56,188.89,224,190.83Z" fill="#5f5fa5" fill-rule="evenodd"/>
      </g>
      <path id="Trazado_119792" data-name="Trazado 119792" d="M167.8,269.52h0a.13.13,0,0,1,0-.06Z" fill="#3d23b5"/>
      <path id="Trazado_119793" data-name="Trazado 119793" d="M167.41,266.48c-.12.19-.35.31-.47.5a.629.629,0,0,0-.1.57.65.65,0,0,0,.57.15l.17-.05c-.05-.39-.11-.79-.16-1.19Z" fill="#3d23b5"/>
      <path id="Trazado_119794" data-name="Trazado 119794" d="M145.92,265.86v.56h.16C146,266.22,146,266,145.92,265.86Z" fill="#3d23b5"/>
      <path id="Trazado_119795" data-name="Trazado 119795" d="M177,252c-2.37-8.75-5.54-13.83-6.76-15.16s-3.29-1.35-7.35-1.41a16.26,16.26,0,0,1,2.65,1.89,7.91,7.91,0,0,1,1.41,7.5c-1,2.58-4.26,3-6.32.68s-.94-4.47-1.18-6.12-1.85-1.61-2.82-2.69a2.26,2.26,0,0,1-.51-.92c-.25.41-.74.54-1.35.2a.9.9,0,0,1-.4-.48h-.11a3.383,3.383,0,0,0,0,.45c.06.94,1.14,3.78,1,6.27s-2.76,5.82-5.6,6-4.71-.67-6.31-4.12.32-5.23,1.33-7.06a3.78,3.78,0,0,0,.37-1c-1.91.7-3.82,1.93-5.88,5.33-2.37,3.9-5.49,8.74-5.68,16.54s2.34,11.78,4.74,15.33a21.739,21.739,0,0,0,4.06,4.65l.41.32a9.783,9.783,0,0,0,.92-1.11,7.34,7.34,0,0,0,.6-1,15.082,15.082,0,0,0,.9-2,19.691,19.691,0,0,1-1.64-2.71l-.41-.81a27.639,27.639,0,0,1-1.84-5.05c-1.36-5.27-.95-9.48.21-12.62s2.95-5.19,3.6-4.32-.33,2.16-.92,3.62-1,3,.14,4.43,1.95,1.85,2,4.49c0,.63-.1,1.84-.22,3.11a4.249,4.249,0,0,0,.39.25c.34.15.7.24,1,.36a10.615,10.615,0,0,0-.22-1.15c-.08-.26-.29-.48-.35-.75a.759.759,0,0,1,.07-.6.79.79,0,0,1,.67.07c.35.24.61.6.95.86a1.8,1.8,0,0,0,.64.23,2.12,2.12,0,0,0,.13-.73c-.08-.44-.28-.86-.37-1.3,0-.16.07-.48.18-.52a.69.69,0,0,1,.59.13c.33.34.56.77.88,1.13a1.9,1.9,0,0,0,.55.28c.1-.21.28-.42.27-.62,0-.45-.15-.9-.15-1.35a.81.81,0,0,1,.37-.57c.08-.05.41.14.52.3.23.36.35.79.59,1.14a2.361,2.361,0,0,0,.6.45,2.76,2.76,0,0,0,.31-.62c.06-.34,0-.72.07-1a3.139,3.139,0,0,1,.43-.78,3.22,3.22,0,0,1,.59.69c.15.31.15.69.29,1s.32.33.48.49A2.22,2.22,0,0,0,156,261c.13-.4.14-.84.29-1.24.07-.2.32-.34.49-.5.15.18.39.33.45.54.1.36.06.75.15,1.12a3.41,3.41,0,0,0,.37.74,3.609,3.609,0,0,0,.61-.63c.19-.32.26-.72.46-1a.82.82,0,0,1,.6-.32c.1,0,.28.34.29.53,0,.45-.07.91-.05,1.36,0,.2.2.4.31.6a1.741,1.741,0,0,0,.53-.32c.28-.36.46-.79.75-1.13.13-.16.42-.18.64-.27.07.2.22.41.2.6a10.7,10.7,0,0,1-.27,1.25,2.241,2.241,0,0,0,.16.74,2.48,2.48,0,0,0,.68-.31c.3-.26.52-.62.83-.87s.45-.12.67-.17c.05.23.18.48.12.68-.11.41-.36.78-.5,1.18a2.31,2.31,0,0,0,0,.69,1.81,1.81,0,0,0,.67-.11c.38-.24.7-.58,1.09-.8.18-.1.46,0,.7,0a1.68,1.68,0,0,1,0,.64c-.21.4-.52.74-.73,1.14-.1.18,0,.44,0,.67a2.491,2.491,0,0,0,.61,0,4.3,4.3,0,0,0,.6-.32c.18-.07.36-.2.54-.29a43,43,0,0,1-.48-5.37c.17-2.3.59-2.62,1.43-3.35a4.09,4.09,0,0,0,1.29-3.55c-.18-1.57-1.64-4.67-1.29-4.85s1.36,2.09,2.64,6.52a26.11,26.11,0,0,1,.74,11.88,33.181,33.181,0,0,1-1.46,5.58h.17a2,2,0,0,1,.6.37c-.16.2-.28.47-.49.57a3,3,0,0,1-.74.22,10.826,10.826,0,0,1-.45,1h.05c.33.11.71.09,1,.22a3.43,3.43,0,0,1,.7.58,2.771,2.771,0,0,1-.71.46c-.35.1-.75,0-1.12.12-.21.05-.38.25-.58.38.15.18.26.42.44.52.4.22.85.33,1.25.55a.66.66,0,0,1,.31.52c0,.15-.31.33-.49.35a4.765,4.765,0,0,0-1,0,5.191,5.191,0,0,0-.94.24,4.861,4.861,0,0,0,.57.76c.24.21.58.32.82.54a2.19,2.19,0,0,1,.32.63c-.22.08-.44.25-.66.24s-.68-.18-1-.21a.86.86,0,0,0-.16,0,1.7,1.7,0,0,0,1.56.64,24.891,24.891,0,0,0,2-1.88,24.08,24.08,0,0,0,5.17-7.56C178.94,265.92,179.39,260.73,177,252Z" fill="#4484cd"/>
      <path id="Trazado_119796" data-name="Trazado 119796" d="M170.28,277.14c-.4-.22-.85-.33-1.25-.55-.18-.1-.29-.34-.44-.52.2-.13.37-.33.58-.38a10.1,10.1,0,0,0,1.12-.12,2.771,2.771,0,0,0,.71-.46,3.43,3.43,0,0,0-.7-.58c-.32-.13-.7-.11-1-.22h-.05a2.689,2.689,0,0,1-.5-.39c.17-.17.32-.42.54-.51a2.828,2.828,0,0,1,.41-.14,3,3,0,0,0,.74-.22c.21-.1.33-.37.49-.57a2,2,0,0,0-.6-.37h-.17a6.441,6.441,0,0,1-1-.05,2.3,2.3,0,0,1-.65-.38,2.58,2.58,0,0,1,.44-.53c.36-.22.79-.35,1.14-.59.17-.12.22-.4.32-.61-.19-.09-.38-.26-.57-.27-.37,0-.75.12-1.12.11a3,3,0,0,1-.82-.21h0a3.121,3.121,0,0,1,.43-.64c.29-.27.66-.46.94-.74a.61.61,0,0,0,.15-.59.63.63,0,0,0-.57-.2c-.41.08-.8.24-1.2.35l-.17.05a.65.65,0,0,1-.57-.15c-.08-.12,0-.41.1-.57s.35-.31.47-.5h0c.23-.39.67-1,.55-1.13a.691.691,0,0,0-.71-.13c-.25.12-.36.22-.54.29a4.3,4.3,0,0,1-.6.32,2.491,2.491,0,0,1-.61,0,2.144,2.144,0,0,1,0-.67c.21-.4.52-.74.73-1.14a1.681,1.681,0,0,0,0-.64c-.24,0-.52-.1-.7,0-.39.22-.71.56-1.09.8a1.811,1.811,0,0,1-.67.11,2.31,2.31,0,0,1,0-.69c.14-.4.39-.77.5-1.18.06-.2-.07-.45-.12-.68a.933.933,0,0,0-.67.17c-.17.17-.53.61-.83.87a2.48,2.48,0,0,1-.68.31,2.24,2.24,0,0,1-.16-.74,11.662,11.662,0,0,1,.27-1.25,2.117,2.117,0,0,0-.2-.6c-.22.09-.51.11-.64.27-.29.34-.47.77-.75,1.13a1.74,1.74,0,0,1-.53.32c-.11-.2-.3-.4-.31-.6,0-.45.07-.91.05-1.36,0-.19-.19-.53-.29-.53a.82.82,0,0,0-.6.32c-.2.31-.27.71-.46,1a3.608,3.608,0,0,1-.61.63,3.409,3.409,0,0,1-.37-.74,7.011,7.011,0,0,0-.15-1.12c-.06-.21-.3-.36-.45-.54-.17.16-.42.3-.49.5-.15.4-.16.84-.29,1.24a2.22,2.22,0,0,1-.44.54c-.16-.16-.39-.3-.48-.49s-.14-.7-.29-1a3.22,3.22,0,0,0-.59-.69,3.139,3.139,0,0,0-.43.78c-.09.33,0,.71-.07,1a2.761,2.761,0,0,1-.31.62,2.36,2.36,0,0,1-.6-.45c-.24-.35-.36-.78-.59-1.14-.11-.16-.44-.35-.52-.3a.81.81,0,0,0-.37.57c0,.45.14.9.15,1.35a1.749,1.749,0,0,1-.27.62,1.9,1.9,0,0,1-.55-.28c-.32-.36-.55-.79-.88-1.13a.69.69,0,0,0-.59-.13c-.11,0-.21.36-.18.52.09.44.29.86.37,1.3a2.12,2.12,0,0,1-.13.73,1.8,1.8,0,0,1-.64-.23c-.34-.26-.6-.62-.95-.86a.79.79,0,0,0-.67-.07c-.09,0-.12.41-.07.6s.27.49.35.75a10.616,10.616,0,0,1,.22,1.15,7.756,7.756,0,0,1-1-.36,4.249,4.249,0,0,1-.39-.25,1.448,1.448,0,0,0-.38-.22.65.65,0,0,0-.6.05.66.66,0,0,0,0,.6c.23.38.56.71.8,1.09v.12c0,.04.07.36.11.54h-.16a1.43,1.43,0,0,1-.58,0c-.41-.12-.78-.36-1.18-.48-.19,0-.57,0-.6.1a.82.82,0,0,0,.1.67c.29.35.68.6,1,.94.13.15.13.42.19.64a2,2,0,0,1-.6.15,11,11,0,0,0-1.1-.27,2.86,2.86,0,0,0-.87.22,3.75,3.75,0,0,0,.44.72c.19.19.49.26.69.45a5.411,5.411,0,0,1,.59.75,5.738,5.738,0,0,1-.81.23l.41.81a19.69,19.69,0,0,0,1.64,2.71,15.084,15.084,0,0,1-.9,2,7.339,7.339,0,0,1-.6,1,9.781,9.781,0,0,1-.92,1.11l-.41-.32a.749.749,0,0,0-.15.09,3,3,0,0,0-.53.72,3.16,3.16,0,0,0,.88.26c.32,0,.64-.13,1-.12a2.329,2.329,0,0,1,.71.22,2.63,2.63,0,0,1-.37.66c-.27.26-.64.41-.9.68a1.92,1.92,0,0,0-.29.7,2,2,0,0,0,.75.17c.39-.07.75-.28,1.15-.36a1.85,1.85,0,0,1,.67.13,2.22,2.22,0,0,1-.21.66c-.27.35-.64.64-.91,1a.65.65,0,0,0-.06.6.67.67,0,0,0,.6.11c.31-.09.58-.31.88-.41a6.937,6.937,0,0,1,1-.2,6.13,6.13,0,0,1-.26,1c-.14.32-.41.58-.55.9a.71.71,0,0,0,.11.6c.07.09.4.07.54,0,.4-.26.76-.6,1.16-.85a1.64,1.64,0,0,1,.6-.12,1.6,1.6,0,0,1,.09.67c-.12.4-.39.77-.5,1.17-.06.23.08.5.12.75a1.8,1.8,0,0,0,.68-.2c.29-.23.48-.59.78-.82a3.309,3.309,0,0,1,.74-.32,2.56,2.56,0,0,1,.12.76c0,.37-.22.73-.25,1.1a2.09,2.09,0,0,0,.25.71,2.209,2.209,0,0,0,.63-.33c.24-.28.38-.65.62-.94a2.781,2.781,0,0,1,.62-.44,3.712,3.712,0,0,1,.29.76,2.507,2.507,0,0,0,0,.82,5,5,0,0,0,.31.92,5.549,5.549,0,0,0,.75-.7c.16-.22.18-.53.32-.76a3.448,3.448,0,0,1,.54-.54,3,3,0,0,1,.41.71c.09.33,0,.7.13,1a2.4,2.4,0,0,0,.43.64c.19-.2.46-.37.56-.61s.14-.79.26-1.17c.06-.18.27-.32.41-.48.17.15.41.27.49.46.18.41.24.87.41,1.29.08.17.31.28.47.42.15-.18.39-.34.42-.54.08-.44,0-.91.09-1.35,0-.2.26-.37.39-.56.17.13.39.22.49.39.21.34.32.74.55,1.07a2.469,2.469,0,0,0,.62.47,2.38,2.38,0,0,0,.32-.76c0-.4-.13-.8-.14-1.2a1.62,1.62,0,0,1,.21-.59c.21.08.48.11.62.26.29.31.47.73.77,1s.47.17.71.24A1.67,1.67,0,0,0,163,287c-.05-.34-.25-.66-.3-1a3.69,3.69,0,0,1,.07-.87,3,3,0,0,1,.76.32c.32.24.56.58.89.81a.66.66,0,0,0,.6.07.68.68,0,0,0,.11-.6c-.11-.35-.35-.67-.48-1a4.248,4.248,0,0,1-.13-.88,6,6,0,0,1,.93.22c.22.09.39.33.62.41a4.659,4.659,0,0,0,.91.14,3.06,3.06,0,0,0-.17-.88c-.17-.33-.48-.58-.68-.9a1.9,1.9,0,0,1-.1-.61c.23,0,.47-.14.67-.07.4.12.77.39,1.18.5.22.06.49-.09.74-.14a2,2,0,0,0-.21-.67c-.19-.26-.51-.42-.71-.67a5.109,5.109,0,0,1-.43-.84,6,6,0,0,1,.73-.07.86.86,0,0,1,.16,0c.35,0,.69.19,1,.21s.44-.16.66-.24a2.191,2.191,0,0,0-.32-.63c-.24-.22-.58-.33-.82-.54a4.859,4.859,0,0,1-.57-.76,5.192,5.192,0,0,1,.94-.24,4.77,4.77,0,0,0,1,0,.616.616,0,0,0,.49-.35.66.66,0,0,0-.26-.58Z" fill="#9494d2"/>
      <path id="Trazado_119797" data-name="Trazado 119797" d="M142.75,278.17c.1.34,1.14,3.53,1.59,3.25s-.49-2.09-.21-1.91,1.64,2.4,2,1.93-1.25-2.42-1.25-2.56,1.95,2.4,2.37,1.81-1.85-2.92-1.85-2.92,2.06,2.05,2.2,1.42c.18-.82-2.09-3.31-1.81-3.86s1.84.42,1.84-.07-2.33-1.47-2.33-1.47a7.36,7.36,0,0,1-1,2.3C143.58,277.1,142.75,278.17,142.75,278.17Z" fill="#fdb7b0"/>
      <path id="Trazado_119798" data-name="Trazado 119798" d="M151.8,274.86a4.54,4.54,0,1,1,4.54,4.54A4.54,4.54,0,0,1,151.8,274.86Z" fill="#8383bd"/>
    </g>
  </g>
</svg>
