<svg id="Capa_1" data-name="Capa 1" xmlns="http://www.w3.org/2000/svg" width="120" height="120" viewBox="0 0 120 120">
  <rect id="Rectángulo_34839" data-name="Rectángulo 34839" width="120" height="120" fill="none"/>
  <circle id="Elipse_5427" data-name="Elipse 5427" cx="50" cy="50" r="50" transform="translate(10 10)" fill="#9cbce1"/>
  <g id="Grupo_80739" data-name="Grupo 80739">
    <path id="Trazado_121169" data-name="Trazado 121169" d="M19,110c-.29-2.3-1-4.52-1.47-6.77C15.89,96,14.23,88.7,13,81.34a38.66,38.66,0,0,1-.79-8.8A26.33,26.33,0,0,1,15.7,61.71l.28-.53a22,22,0,0,0,6.84,2,1.55,1.55,0,0,1-.92.36,13.53,13.53,0,0,0-3.5.83c-1.69.65-3.13,1.61-3.63,3.48a14.87,14.87,0,0,0,.19,8,8.8,8.8,0,0,0,7.23,6.69,37.54,37.54,0,0,0,6,.54c1.67.08,3.35.15,5,.28,3.13.24,6.27.26,9.4.54.39,1.64.91,3.26,1.14,4.94a20.22,20.22,0,0,0,.42-4.9c1-.18,2,.29,3,.18.39,0,.47.21.57.54a12.83,12.83,0,0,1,.55,3.63,31.71,31.71,0,0,1-1,7.38A62.74,62.74,0,0,0,47.62,109a8.349,8.349,0,0,1,0,1Z" fill="#22495f"/>
    <path id="Trazado_121170" data-name="Trazado 121170" d="M90.05,17.94a28.891,28.891,0,0,1,.14-4.83c1-5.8,5.55-8,10.78-5.3a21.39,21.39,0,0,1,7.28,6.55,35,35,0,0,1,6.84,16.58c0,.11.12.22.18.32V35.1c-.36.4-.29.93-.4,1.4-1.27,5-5.31,6.91-10,4.78a29.29,29.29,0,0,1-3.28-2,7.533,7.533,0,0,0-.56-.57A32.75,32.75,0,0,1,92.9,27.49a34.51,34.51,0,0,1-2.85-9.55ZM112.91,33a14.98,14.98,0,0,0-.1-2.12,30.89,30.89,0,0,0-8.11-17.21,15.78,15.78,0,0,0-6.1-4.52c-2.74-1-5,.17-5.71,3a14.7,14.7,0,0,0-.14,6.4A32.56,32.56,0,0,0,101,35.13a13.51,13.51,0,0,0,6.45,4.31,4,4,0,0,0,5-2.84,11.13,11.13,0,0,0,.46-3.6Z" fill="#fe7158"/>
    <path id="Trazado_121171" data-name="Trazado 121171" d="M42.57,84c-3.13-.28-6.27-.3-9.4-.54-1.66-.13-3.34-.2-5-.28a37.541,37.541,0,0,1-6-.54A8.8,8.8,0,0,1,15,75.9a14.87,14.87,0,0,1-.19-8c.5-1.87,1.94-2.83,3.63-3.48a13.53,13.53,0,0,1,3.5-.83,1.55,1.55,0,0,0,.92-.36,11.329,11.329,0,0,0,1.29.15,12.75,12.75,0,0,1,8.47,2.91,14.68,14.68,0,0,0,6.22,2.61,4.73,4.73,0,0,0,1.56.4c2.32.81,4.77.94,7.14,1.44.94.21,1.66,1,2.81.73a73.76,73.76,0,0,0,12-4,57.82,57.82,0,0,1,6.3-2.64,61.769,61.769,0,0,0-.35,6.52A6.87,6.87,0,0,0,69.05,75c-.14,1.13.79,1.88,1,2.89-2.09.74-4.15,1.54-6.27,2.19-2.74.84-5.16,2.41-7.87,3.33-.55.19-.34.52-.24.88a49.79,49.79,0,0,1,1.75,7.33A7.9,7.9,0,0,1,57,95.84a2.94,2.94,0,0,1-3.38,1.91,13.16,13.16,0,0,1-5.23-1.7c-.31-.19-.6-.59-1.07-.33a31.71,31.71,0,0,0,1-7.38,12.83,12.83,0,0,0-.55-3.63c-.1-.33-.18-.59-.57-.54-1,.11-2-.36-3-.18Z" fill="#2f5a6c"/>
    <path id="Trazado_121172" data-name="Trazado 121172" d="M90.05,17.94a34.51,34.51,0,0,0,2.84,9.59A32.75,32.75,0,0,0,101,38.75a7.532,7.532,0,0,1,.56.57h-4a25.36,25.36,0,0,0-9.71,1.72,3.21,3.21,0,0,1-1.46.32,3.72,3.72,0,0,1-2-.72,10.24,10.24,0,0,1-3.7-3.92c-1.54-2.83-2.78-5.76-2.09-9.11,1.25-1.66,3.24-2.26,4.86-3.4a32.33,32.33,0,0,0,6.59-6.27Z" fill="#e7e9e8"/>
    <path id="Trazado_121173" data-name="Trazado 121173" d="M84.51,43a2.48,2.48,0,0,0,1.51.73c.89.25,1.16.69.8,1.54-.14.33-.24.68-.35,1,.3.2.55,0,.81,0,1.34-.08,2,.67,1.7,1.95-.18.68.1.64.56.61A1.1,1.1,0,0,1,90.86,50a.69.69,0,0,0,.18.55c1.2,1,.56,2.28.39,3.45-.05.37-.36.63-.64.07-.09-.19-.19-.36-.42-.39a1.18,1.18,0,0,0-1.2.73,31.85,31.85,0,0,0-1.78,5.31c-.94,3.29-3.48,5-6.29,6.51A37.869,37.869,0,0,0,74.27,71a1.64,1.64,0,0,0-.42.26c-.69.73-1,.48-1.31-.38a51.53,51.53,0,0,1-1.81-6.54.76.76,0,0,1,.16-.74c1.8-.9,3.54-1.93,5.4-2.66a3.65,3.65,0,0,0,2.38-4.39c-.33-2.21-.51-4.45-.75-6.68a35.389,35.389,0,0,0,3.26-5.11C81.87,43.33,82.77,42.38,84.51,43ZM83,47.81,85.11,47c.22-.09.51-.17.32-.48s-.33-.83-.84-.92-.74.23-.91.63A5.91,5.91,0,0,0,83,47.81Z" fill="#fed151"/>
    <path id="Trazado_121174" data-name="Trazado 121174" d="M84.51,43c-1.74-.63-2.64.32-3.33,1.74a34.62,34.62,0,0,1-3.27,5.11l-1.55-.34L75.77,49a12.29,12.29,0,0,0-3.1-2.86,12.86,12.86,0,0,1-5.62-11.31,3.16,3.16,0,0,1,1.86-2.89c3-1.54,6.09-3.11,9.14-4.68.44-.22.8-.4.57.37-.69,3.35.55,6.28,2.09,9.11a10.24,10.24,0,0,0,3.7,3.92,3.72,3.72,0,0,0,2,.72C85.84,42,84.67,41.94,84.51,43Z" fill="#fe7158"/>
    <path id="Trazado_121175" data-name="Trazado 121175" d="M70.89,63.59a.76.76,0,0,0-.16.74,51.531,51.531,0,0,0,1.81,6.54c.33.86.62,1.11,1.31.38a1.64,1.64,0,0,1,.42-.26c.15,2.44.15,2.44-2.84,3.29L69.05,75a6.87,6.87,0,0,1-.77-3.66,61.771,61.771,0,0,1,.35-6.52,5.33,5.33,0,0,1,2.26-1.23Z" fill="#e7e9e8"/>
    <path id="Trazado_121176" data-name="Trazado 121176" d="M87.39,59.71a31.85,31.85,0,0,1,1.78-5.31,1.18,1.18,0,0,1,1.2-.73,1.28,1.28,0,0,1,.21,1,7,7,0,0,0-.28,1.67C90.38,58.44,88.92,59.09,87.39,59.71Z" fill="#fe7158"/>
    <path id="Trazado_121177" data-name="Trazado 121177" d="M69.05,75l2.38-.69c0,1.39,0,2.74-1.37,3.58C69.84,76.85,68.91,76.1,69.05,75Z" fill="#22495f"/>
    <path id="Trazado_121178" data-name="Trazado 121178" d="M38.8,68.88a14.68,14.68,0,0,1-6.22-2.61,12.75,12.75,0,0,0-8.47-2.91,11.329,11.329,0,0,1-1.29-.15,22,22,0,0,1-6.84-2c-4.33-2.85-5.25-9.16-2.29-14.41a14.8,14.8,0,0,0,1.73-6.51,18.19,18.19,0,0,1,4.36-10.64c1.74-2.06,4.31-2.7,6.81-3.18,6.29-1.2,12.11,2.11,14.82,8.23,1,2.28,1.56,4.58.67,7a2.61,2.61,0,0,1-.89,1.53c-.27-.25-.2-.53-.11-.83a7.32,7.32,0,0,0,0-3.26c-.48-3.28-2.46-5.49-5.14-7.21a1.49,1.49,0,0,0-1.7,0,12.72,12.72,0,0,0-2.65,2A27.44,27.44,0,0,0,25.9,42a4.63,4.63,0,0,1-2.51,2.59c-.46.17-.81.28-.78-.39a16.47,16.47,0,0,1,.11-2.72c.22-1-.46-1.61-1.44-1.28a2.13,2.13,0,0,0-1.14.79c-1.23,1.72-1.06,5.44.36,7a1.75,1.75,0,0,0,1.48.73c.52-.07.57.07.65.53a16.66,16.66,0,0,0,4.44,8.62c2.25,2.43,5.26,3.84,7.83,5.88.48-2,.34-2.25-1.33-3-.37-.16-.72-.34-1.08-.51a.62.62,0,0,1,.47-.58,5.25,5.25,0,0,0,3-3.33,10.55,10.55,0,0,1,.81-2.15l.42,2.64c-1,1.21-.94,1.43.39,2.05l.06.28c-.51.46-1.36.89-1.19,1.6.28,1.27,0,2.8,1.32,3.69L38,65a28.939,28.939,0,0,0,.8,3.88Z" fill="#fe7158"/>
    <path id="Trazado_121179" data-name="Trazado 121179" d="M27.07,57.92a16.66,16.66,0,0,1-4.44-8.62c-.08-.46-.13-.6-.65-.53A1.75,1.75,0,0,1,20.5,48c-1.42-1.58-1.59-5.3-.36-7a2.13,2.13,0,0,1,1.14-.79c1-.33,1.66.27,1.44,1.28a16.47,16.47,0,0,0-.11,2.72c0,.67.32.56.78.39A4.63,4.63,0,0,0,25.9,42a27.44,27.44,0,0,1,5.69-8.12,12.72,12.72,0,0,1,2.65-2,1.49,1.49,0,0,1,1.7,0c2.68,1.72,4.66,3.93,5.14,7.21a7.32,7.32,0,0,1,0,3.26c-.09.3-.16.58.11.83-.47.63-.22,1.36-.27,2a11.91,11.91,0,0,1-2.15,6.23h0a.22.22,0,0,0-.22.21h0l-.21.21h0a.32.32,0,0,0-.21.41h0a2.83,2.83,0,0,0-1.42,2,10.55,10.55,0,0,0-.81,2.15,5.25,5.25,0,0,1-3,3.33.62.62,0,0,0-.47.58c-1.06-.48-2.1-1-3.17-1.43C28.57,58.58,28,57.94,27.07,57.92Z" fill="#fed151"/>
    <path id="Trazado_121180" data-name="Trazado 121180" d="M37.75,64.52c-1.35-.89-1-2.42-1.32-3.69-.17-.71.68-1.14,1.19-1.6,1.72-.74,3.08.58,4.66.84a1.45,1.45,0,0,0-1.05-1.15c-1.22-.53-2.45-.84-3.67,0-1.33-.62-1.38-.84-.39-2.06l.7-.51a2.61,2.61,0,0,1,1.76-.22l2.85.3a3,3,0,0,0-1-.57A8.42,8.42,0,0,1,39,54.69c-.69-.56-.63-1.15.17-1.54a1.61,1.61,0,0,1,1.18-.09,15.36,15.36,0,0,1,5.23,2.44c.52.82,1.06,1.63,1.54,2.48a4.65,4.65,0,0,1-.3,5c-1.33,2.07-1.69,4-.19,6l.46.88.37.9c-2.37-.5-4.82-.63-7.14-1.44-.3-1.27-1.41-2.42-.59-3.87.32-.4.09-.56-.25-.83C38.91,64.09,38.32,64.84,37.75,64.52Zm6.06-7a.38.38,0,0,0,.31.29v-.09c0-.03-.15-.26-.34-.18-.12-.53-.51-.77-1.15-1a3.14,3.14,0,0,0,1.18.96Z" fill="#fed151"/>
    <path id="Trazado_121181" data-name="Trazado 121181" d="M47.13,69.82l-.46-.88c4.57.39,8.66-1.12,12.61-3.17,5.33-2.75,9.29-7,12.87-11.69,1.27-1.65,2.42-3.39,3.62-5.09l.59.53a57.59,57.59,0,0,1-9.69,12C61.15,66.5,54.82,69.79,47.13,69.82Z" fill="#2f5a6c"/>
    <path id="Trazado_121182" data-name="Trazado 121182" d="M45.62,55.5a15.36,15.36,0,0,0-5.23-2.44,1.61,1.61,0,0,0-1.18.09c-.8.39-.86,1-.17,1.54a8.42,8.42,0,0,0,2.42,1.2,3,3,0,0,1,1,.57l-2.85-.3a2.61,2.61,0,0,0-1.76.22l.3-4.12h0a.31.31,0,0,0,.21-.41h0c.18,0,.21-.07.21-.21h0c.13,0,.3,0,.22-.21h0a25.17,25.17,0,0,1,5.28.13,2,2,0,0,1,1.75,2.09C45.8,54.31,45.68,54.9,45.62,55.5Z" fill="#2f5a6c"/>
    <path id="Trazado_121183" data-name="Trazado 121183" d="M42.57,84h1.56a20.22,20.22,0,0,1-.42,4.9A38.836,38.836,0,0,0,42.57,84Z" fill="#fe7158"/>
    <path id="Trazado_121184" data-name="Trazado 121184" d="M112.91,33a11.13,11.13,0,0,1-.47,3.58,4,4,0,0,1-5,2.84A13.51,13.51,0,0,1,101,35.13a32.56,32.56,0,0,1-8.2-16.56,14.7,14.7,0,0,1,.14-6.4,4.028,4.028,0,0,1,5.71-3,15.78,15.78,0,0,1,6.1,4.52,30.89,30.89,0,0,1,8.11,17.21C112.9,31.6,112.88,32.31,112.91,33Z" fill="#e7e9e8"/>
    <path id="Trazado_121185" data-name="Trazado 121185" d="M39.77,65.41c-.82,1.45.29,2.6.59,3.87a4.73,4.73,0,0,1-1.56-.4A28.939,28.939,0,0,1,38,65a3.37,3.37,0,0,0,1.77.41Z" fill="#fefefe"/>
    <path id="Trazado_121186" data-name="Trazado 121186" d="M83,47.81a5.91,5.91,0,0,1,.65-1.58c.17-.4.41-.71.91-.63s.63.55.84.92-.1.39-.32.48Z" fill="#fe7158"/>
    <path id="Trazado_121187" data-name="Trazado 121187" d="M27.07,57.92c.88,0,1.5.66,2.25,1,1.07.45,2.11,1,3.17,1.43.36.17.71.35,1.08.51,1.67.72,1.81,1,1.33,3C32.33,61.76,29.32,60.35,27.07,57.92Z" fill="#e7e9e8"/>
    <path id="Trazado_121188" data-name="Trazado 121188" d="M38.17,52.26l-.3,4.12-.7.51-.42-2.63a2.83,2.83,0,0,1,1.42-2Z" fill="#fefefe"/>
    <path id="Trazado_121189" data-name="Trazado 121189" d="M37.56,59c1.22-.87,2.45-.56,3.67,0a1.45,1.45,0,0,1,1.05,1.15c-1.58-.26-2.94-1.58-4.66-.84Z" fill="#2f5a6c"/>
    <path id="Trazado_121190" data-name="Trazado 121190" d="M39.77,65.41A3.37,3.37,0,0,1,38,65l-.27-.46c.57.32,1.16-.43,1.77.06C39.86,64.85,40.09,65,39.77,65.41Z" fill="#2f5a6c"/>
    <path id="Trazado_121191" data-name="Trazado 121191" d="M38.37,51.86a.31.31,0,0,1-.21.41.32.32,0,0,1,.21-.41Z" fill="#fefefe"/>
    <path id="Trazado_121192" data-name="Trazado 121192" d="M38.78,51.46c.08.22-.09.2-.22.21a.22.22,0,0,1,.22-.21Z" fill="#fefefe"/>
    <path id="Trazado_121193" data-name="Trazado 121193" d="M38.57,51.66c0,.14,0,.24-.21.21Z" fill="#fefefe"/>
    <path id="Trazado_121194" data-name="Trazado 121194" d="M43.81,57.5a3.14,3.14,0,0,1-1.16-1c.64.27,1,.51,1.15,1Z" fill="#2f5a6c"/>
    <path id="Trazado_121195" data-name="Trazado 121195" d="M43.8,57.52c.19-.08.29,0,.34.18s0,.06,0,.09a.38.38,0,0,1-.31-.29Z" fill="#2f5a6c"/>
  </g>
</svg>
