<svg xmlns="http://www.w3.org/2000/svg" width="560.33" height="543.495" viewBox="0 0 560.33 543.495">
  <g id="Capa_1" data-name="Capa 1" transform="translate(-19.81 -117.065)">
    <path id="Trazado_120903" data-name="Trazado 120903" d="M318.2,174s84.65,11.59,143.67-21.31v32.63H319.58Z" fill="#ff4b3b"/>
    <path id="Trazado_120904" data-name="Trazado 120904" d="M383.29,135.87c-12,.21-13.86,18.25-2.42,21.29a9.55,9.55,0,0,0,1.89.31,11.15,11.15,0,0,0,9.05-1.47,10.7,10.7,0,0,0,3.89-12.94C393.7,138.07,388.43,135.78,383.29,135.87Z" fill="none"/>
    <g id="Grupo_80734" data-name="Grupo 80734">
      <g id="Grupo_80709" data-name="Grupo 80709">
        <ellipse id="Elipse_5422" data-name="Elipse 5422" cx="187.79" cy="13.27" rx="187.79" ry="13.27" transform="translate(204.56 628.8)" fill="#81a4bf" opacity="0.8"/>
        <g id="Grupo_80708" data-name="Grupo 80708">
          <g id="Grupo_80687" data-name="Grupo 80687">
            <path id="Trazado_120905" data-name="Trazado 120905" d="M220.53,641.99l343.63.99,6.2-457.91-11.24.62Z" fill="#81a4bf"/>
            <path id="Trazado_120906" data-name="Trazado 120906" d="M564.21,176.89l-341-3.59q.75,233-2.62,466.09,168.34-1.7,336.69,1.34Q563,408.85,564.21,176.89Z" fill="#e3f8fa"/>
          </g>
          <g id="Grupo_80689" data-name="Grupo 80689">
            <path id="Trazado_120907" data-name="Trazado 120907" d="M318.1,173.01v19.65H467.77V175.59Z" fill="#f3f3f3"/>
            <g id="Grupo_80688" data-name="Grupo 80688">
              <path id="Trazado_120908" data-name="Trazado 120908" d="M381.81,135.87c-12,.21-13.86,18.25-2.42,21.29a9.55,9.55,0,0,0,1.89.31,11.15,11.15,0,0,0,9.05-1.47,10.7,10.7,0,0,0,3.89-12.94C392.22,138.07,387,135.78,381.81,135.87Z" fill="none"/>
              <path id="Trazado_120909" data-name="Trazado 120909" d="M316.61,173q.74,6.35,1.48,12.68l142.56-.37q0-6.16-.1-12.31Z" fill="#bf7d1d"/>
              <path id="Trazado_120910" data-name="Trazado 120910" d="M460.39,152.69l-38.51.26c-1.9-12.15-8.69-23.58-19.07-30.13-12.52-7.9-29.94-7.81-41.71,1.16a33.41,33.41,0,0,0-12.48,29.47l-34.28.24q1.14,9.66,2.27,19.32H460.55Q460.48,162.86,460.39,152.69ZM390.33,156a11.15,11.15,0,0,1-9.05,1.47,9.55,9.55,0,0,1-1.89-.31c-11.44-3-9.6-21.08,2.42-21.29,5.14-.09,10.41,2.2,12.41,7.19A10.7,10.7,0,0,1,390.33,156Z" fill="#ffa726"/>
            </g>
          </g>
          <g id="Grupo_80707" data-name="Grupo 80707">
            <g id="Grupo_80690" data-name="Grupo 80690">
              <path id="Trazado_120911" data-name="Trazado 120911" d="M504.44,252.64l.6,21.67h23.42v-22Z" fill="#d8e6ea"/>
              <path id="Trazado_120912" data-name="Trazado 120912" d="M537.2,232.43a55.85,55.85,0,0,0-9.88,10.32,105.4,105.4,0,0,0-10.83,18.92,92.6,92.6,0,0,0-7.11-14.88c-1.34.73-2.65,1.52-3.94,2.35a95.289,95.289,0,0,1,11.05,20.52l1.71-2.94A153.28,153.28,0,0,1,531,247.57,74.05,74.05,0,0,1,541.37,237a51.007,51.007,0,0,0-4.17-4.57Z" fill="#ffa726"/>
            </g>
            <g id="Grupo_80691" data-name="Grupo 80691">
              <path id="Trazado_120913" data-name="Trazado 120913" d="M504.44,332.08l.6,21.67h23.42v-22Z" fill="#d8e6ea"/>
              <path id="Trazado_120914" data-name="Trazado 120914" d="M537.2,311.87a55.85,55.85,0,0,0-9.88,10.32,105.143,105.143,0,0,0-10.83,18.93,92.3,92.3,0,0,0-7.11-14.89q-2,1.11-3.94,2.35a95.76,95.76,0,0,1,11.05,20.52l1.71-2.94A154.006,154.006,0,0,1,531,327a74.052,74.052,0,0,1,10.4-10.62,51,51,0,0,0-4.2-4.51Z" fill="#ffa726"/>
            </g>
            <g id="Grupo_80692" data-name="Grupo 80692">
              <path id="Trazado_120915" data-name="Trazado 120915" d="M504.44,411.52l.6,21.68h23.42v-22Z" fill="#d8e6ea"/>
              <path id="Trazado_120916" data-name="Trazado 120916" d="M537.2,391.31a56.491,56.491,0,0,0-9.88,10.32,105.831,105.831,0,0,0-10.83,18.93,93.113,93.113,0,0,0-7.11-14.89q-2,1.11-3.94,2.35a95.759,95.759,0,0,1,11.05,20.52l1.71-2.94A153.9,153.9,0,0,1,531,406.46a73.536,73.536,0,0,1,10.4-10.62,49.74,49.74,0,0,0-4.2-4.53Z" fill="#ffa726"/>
            </g>
            <g id="Grupo_80693" data-name="Grupo 80693">
              <path id="Trazado_120917" data-name="Trazado 120917" d="M504.44,491l.6,21.68h23.42v-22Z" fill="#d8e6ea"/>
              <path id="Trazado_120918" data-name="Trazado 120918" d="M537.2,470.75a56.232,56.232,0,0,0-9.88,10.33A105.406,105.406,0,0,0,516.49,500a93.105,93.105,0,0,0-7.11-14.89q-2,1.11-3.94,2.36A95.289,95.289,0,0,1,516.49,508c.57-1,1.14-2,1.71-2.94A153.277,153.277,0,0,1,531,485.9a74.048,74.048,0,0,1,10.4-10.62A49.733,49.733,0,0,0,537.2,470.75Z" fill="#ffa726"/>
            </g>
            <g id="Grupo_80694" data-name="Grupo 80694">
              <path id="Trazado_120919" data-name="Trazado 120919" d="M504.44,570.41l.6,21.67h23.42V570Z" fill="#d8e6ea"/>
              <path id="Trazado_120920" data-name="Trazado 120920" d="M537.2,550.2a55.854,55.854,0,0,0-9.88,10.32,105.408,105.408,0,0,0-10.83,18.92,92.605,92.605,0,0,0-7.11-14.88c-1.34.73-2.65,1.52-3.94,2.35a95.29,95.29,0,0,1,11.05,20.52l1.71-2.94A153.272,153.272,0,0,1,531,565.34a74.048,74.048,0,0,1,10.4-10.62,50.99,50.99,0,0,0-4.2-4.52Z" fill="#ffa726"/>
            </g>
            <g id="Grupo_80696" data-name="Grupo 80696">
              <path id="Trazado_120921" data-name="Trazado 120921" d="M487.16,271.39c-.08-.88-.15-1.77-.22-2.65l-232.79.11v3.24Q370.67,272.15,487.16,271.39Z" fill="#d8e6ea"/>
              <path id="Trazado_120922" data-name="Trazado 120922" d="M254.15,278.52v3.21l233.46-.38c-.07-1-.15-2.05-.23-3.08Z" fill="#d8e6ea"/>
              <g id="Grupo_80695" data-name="Grupo 80695">
                <path id="Trazado_120923" data-name="Trazado 120923" d="M488,237.08Q371.76,240.62,255.41,239q-.22,10.33-.4,20.64L487.67,258Q487.82,247.66,488,237.08Z" fill="#a0c0e5"/>
                <path id="Trazado_120924" data-name="Trazado 120924" d="M255.12,253.6l232.03-5.23.52,9.64-232.66,1.65Z" fill="#81a4bf" opacity="0.44"/>
              </g>
            </g>
            <g id="Grupo_80699" data-name="Grupo 80699">
              <g id="Grupo_80697" data-name="Grupo 80697">
                <path id="Trazado_120925" data-name="Trazado 120925" d="M487.28,311.8l-.15-2.65-169,.11v3.24Q402.71,312.56,487.28,311.8Z" fill="#d8e6ea"/>
                <path id="Trazado_120926" data-name="Trazado 120926" d="M318.09,321.36v3.21l169.52-.38c-.05-1-.11-2.05-.16-3.08Z" fill="#d8e6ea"/>
                <path id="Trazado_120927" data-name="Trazado 120927" d="M487.28,335.82l-.15-2.65-169,.11v3.24Q402.71,336.57,487.28,335.82Z" fill="#d8e6ea"/>
                <path id="Trazado_120928" data-name="Trazado 120928" d="M318.09,345.38v3.21l169.52-.38c-.05-1-.11-2.06-.16-3.09Z" fill="#d8e6ea"/>
                <path id="Trazado_120929" data-name="Trazado 120929" d="M318.09,357.39v3.2l118.71-.37-.12-3.09Z" fill="#d8e6ea"/>
              </g>
              <g id="Grupo_80698" data-name="Grupo 80698">
                <path id="Trazado_120930" data-name="Trazado 120930" d="M253.56,360.15h52.5V309.06c-15.3,15.15-36.09,35.51-52.5,50.79Z" fill="#81a4bf" opacity="0.44"/>
                <path id="Trazado_120931" data-name="Trazado 120931" d="M253.73,307.18l-.17,52.67c16.41-15.28,37.2-35.64,52.5-50.79v-1.9Z" fill="#a0c0e5"/>
              </g>
            </g>
            <g id="Grupo_80701" data-name="Grupo 80701">
              <path id="Trazado_120932" data-name="Trazado 120932" d="M487.16,430c-.08-.88-.15-1.76-.22-2.65l-232.79.11v3.24Q370.67,430.71,487.16,430Z" fill="#d8e6ea"/>
              <path id="Trazado_120933" data-name="Trazado 120933" d="M254.15,437.09v3.2l175.09-.37c-.06-1-.11-2.06-.17-3.09Z" fill="#d8e6ea"/>
              <g id="Grupo_80700" data-name="Grupo 80700">
                <path id="Trazado_120934" data-name="Trazado 120934" d="M488,395.64q-116.26,3.54-232.61,1.95-.22,10.32-.4,20.63l232.66-1.64Q487.82,406.22,488,395.64Z" fill="#a0c0e5"/>
                <path id="Trazado_120935" data-name="Trazado 120935" d="M255.12,412.17l232.03-5.24.52,9.65-232.66,1.64Z" fill="#81a4bf" opacity="0.44"/>
              </g>
            </g>
            <g id="Grupo_80703" data-name="Grupo 80703">
              <path id="Trazado_120936" data-name="Trazado 120936" d="M487.16,588.52c-.08-.89-.15-1.77-.22-2.65L254.15,586v3.24Q370.67,589.27,487.16,588.52Z" fill="#d8e6ea"/>
              <path id="Trazado_120937" data-name="Trazado 120937" d="M254.15,595.65v3.21l87.78-.38-.09-3.09Z" fill="#d8e6ea"/>
              <g id="Grupo_80702" data-name="Grupo 80702">
                <path id="Trazado_120938" data-name="Trazado 120938" d="M488,554.21q-116.26,3.54-232.61,1.94-.22,10.32-.4,20.63l232.66-1.64Q487.82,564.79,488,554.21Z" fill="#a0c0e5"/>
                <path id="Trazado_120939" data-name="Trazado 120939" d="M255.12,570.73l232.03-5.23.52,9.64-232.66,1.64Z" fill="#81a4bf" opacity="0.44"/>
              </g>
            </g>
            <g id="Grupo_80706" data-name="Grupo 80706">
              <g id="Grupo_80704" data-name="Grupo 80704">
                <path id="Trazado_120940" data-name="Trazado 120940" d="M254.49,516.51l.15,2.65,169-.11v-3.24Q339.07,515.75,254.49,516.51Z" fill="#d8e6ea"/>
                <path id="Trazado_120941" data-name="Trazado 120941" d="M423.67,507v-3.21l-169.52.38c.06,1,.11,2.06.17,3.08Z" fill="#d8e6ea"/>
                <path id="Trazado_120942" data-name="Trazado 120942" d="M254.49,492.49l.15,2.65,169-.11v-3.24Q339.07,491.75,254.49,492.49Z" fill="#d8e6ea"/>
                <path id="Trazado_120943" data-name="Trazado 120943" d="M423.67,482.93v-3.21l-169.52.38c.06,1,.11,2.06.17,3.09Z" fill="#d8e6ea"/>
                <path id="Trazado_120944" data-name="Trazado 120944" d="M423.67,470.93v-3.21l-169.3.37c0,1,.11,2.06.17,3.09Z" fill="#d8e6ea"/>
              </g>
              <g id="Grupo_80705" data-name="Grupo 80705">
                <path id="Trazado_120945" data-name="Trazado 120945" d="M434.4,518.71h52.5V467.62c-15.3,15.15-36.09,35.51-52.5,50.79Z" fill="#81a4bf" opacity="0.44"/>
                <path id="Trazado_120946" data-name="Trazado 120946" d="M434.57,465.74l-.17,52.67c16.41-15.28,37.2-35.64,52.5-50.79v-1.9Z" fill="#a0c0e5"/>
              </g>
            </g>
          </g>
        </g>
      </g>
      <g id="Grupo_80733" data-name="Grupo 80733">
        <path id="Trazado_120947" data-name="Trazado 120947" d="M53.98,460.1l-5.06,6.93,5.06-6.93Z" fill="none"/>
        <path id="Trazado_120948" data-name="Trazado 120948" d="M107.19,630.08l-4.82,1.02,5.3-1.12Z" fill="none"/>
        <path id="Trazado_120949" data-name="Trazado 120949" d="M28.4,414l7.79,3.83L51.37,448.1,43.3,411l-2.87,3.8Z" fill="none"/>
        <path id="Trazado_120950" data-name="Trazado 120950" d="M96.59,607.5l-10.14,2.14,10.14-2.14Z" fill="#ffdec5"/>
        <rect id="Rectángulo_34832" data-name="Rectángulo 34832" height="1.38" transform="translate(97.26 606.67)" fill="#ffdec5"/>
        <path id="Trazado_120951" data-name="Trazado 120951" d="M109.16,604.86l12.21-2.56-12.21,2.56Z" fill="#ffdec5"/>
        <rect id="Rectángulo_34833" data-name="Rectángulo 34833" height="0.4" transform="translate(108.97 604.7)" fill="#ffdec5"/>
        <path id="Trazado_120952" data-name="Trazado 120952" d="M111.31,629.22l5.72-1.2-5.72,1.2Z" fill="#ffdec5"/>
        <rect id="Rectángulo_34834" data-name="Rectángulo 34834" height="11.07" transform="translate(103.35 600.55)" fill="#ffd3b7"/>
        <path id="Trazado_120953" data-name="Trazado 120953" d="M111.31,629.22h0l-3.64.76Z" fill="#ffd3b7"/>
        <path id="Trazado_120954" data-name="Trazado 120954" d="M35.44,318.8l-11.61,2.5Z" fill="#fff"/>
        <path id="Trazado_120955" data-name="Trazado 120955" d="M47,316.33l12.35-2.65Z" fill="#fff"/>
        <path id="Trazado_120956" data-name="Trazado 120956" d="M47,316.33,35.44,318.8h0Z" fill="#fff"/>
        <g id="Grupo_80711" data-name="Grupo 80711">
          <g id="Grupo_80710" data-name="Grupo 80710">
            <path id="Trazado_120957" data-name="Trazado 120957" d="M148.8,445.6l-65.48-.53c.19,1.63.38,3.29.56,5h64.78C148.71,448.54,148.76,447.06,148.8,445.6Z" fill="#535353"/>
            <path id="Trazado_120958" data-name="Trazado 120958" d="M83.88,450c.25,2.22.49,4.46.73,6.78,21,0,42.89-.76,63.85-.76q.09-3.075.2-6Z" fill="#3d3d3d"/>
          </g>
          <path id="Trazado_120959" data-name="Trazado 120959" d="M108.15,445.27l-.82,11.16h20.36V445.07Zm17.17,8.83H110.87v-6.87H125Z" fill="#e9e45d"/>
        </g>
        <path id="Trazado_120960" data-name="Trazado 120960" d="M199.38,652.77c0,4.3-34.93,7.79-78,7.79s-78-3.49-78-7.79,34.93-7.79,78-7.79S199.38,648.46,199.38,652.77Z" fill="#81a4bf" opacity="0.8"/>
        <g id="Grupo_80713" data-name="Grupo 80713">
          <g id="Grupo_80712" data-name="Grupo 80712">
            <path id="Trazado_120961" data-name="Trazado 120961" d="M245.81,358.07c.84-1.7,2.62-4.06,3.46-5.76,0,0,.85-.41-.52-3.83,0,0-2.54-6.36-.61-6.79a.65.65,0,0,1,.62.41q1.74,4.27,3.46,8.57a2.81,2.81,0,0,1,.27,1,4.081,4.081,0,0,1-.47,1.52c-1.18,2.26-2.41,4.26-3.59,6.52" fill="#fcd2b5"/>
            <path id="Trazado_120962" data-name="Trazado 120962" d="M248.61,358.81c.36-2.08.83-4,1.19-6.05a3.39,3.39,0,0,0,0-1.31,2.24,2.24,0,0,0-.48-.7l-5-5.58a.53.53,0,0,0-.6-.13c-1.44.89,2.24,5,2.24,5,2,2.23,1.42,2.79,1.42,2.79a14.59,14.59,0,0,1-7.77,9.16l6.07-.52Z" fill="#fcd2b5"/>
            <path id="Trazado_120963" data-name="Trazado 120963" d="M241.52,360.56c-5.64,3.31-5,10.44-5,10.44l-3.16-5.11c1.87-5.4,6.66-7,9.26-14.37,0,0,.74-1.88,1.28-1.16C243.93,350.36,245.56,352.57,241.52,360.56Z" fill="#fcd2b5"/>
            <path id="Trazado_120964" data-name="Trazado 120964" d="M236.43,370.85l.07.14c7.21-3.35,13.4-10.85,13.4-10.85l3.11-4.27a6.251,6.251,0,0,0,.69-1.09,1.16,1.16,0,0,0,.11-.52c0-1.4.09-8-.18-8-2.46-.52-2.06,7.06-2.06,7.06a4.48,4.48,0,0,1-1.35,1.89,30,30,0,0,1-7,4.38S236.13,360.3,236.43,370.85Z" fill="#fdddc5"/>
          </g>
          <path id="Trazado_120965" data-name="Trazado 120965" d="M131.85,350.51S179.59,394,193,400.15s47.55-28.36,47.55-28.36l-9-7.66-36.46,21.46L191.62,394l.71-13-39.19-34.68L134.73,350" fill="#a0c0e5"/>
        </g>
        <g id="Grupo_80719" data-name="Grupo 80719">
          <path id="Trazado_120966" data-name="Trazado 120966" d="M107.9,327.27s1.81,20.89-10.49,23.82H129s-11.81-9.15-9.14-27.36Z" fill="#ffdec5"/>
          <g id="Grupo_80718" data-name="Grupo 80718">
            <path id="Trazado_120967" data-name="Trazado 120967" d="M89.38,294.41s4.46,41.15,25.63,38.94,21.64-32.48,19.15-53.7-40-7.06-44.47-2.84S89.38,294.41,89.38,294.41Z" fill="#ffead8"/>
            <path id="Trazado_120968" data-name="Trazado 120968" d="M93.39,292.91c-.12-1.31.25-2.88,1.47-3.36s2.31.25,3.47.56a5.88,5.88,0,0,0,6.22-2.23c.67-1,1-2.11,1.73-3.06,2.35-3.29,7.37-3.08,11.12-1.56s7.26,4,11.3,4.23a10.66,10.66,0,0,0,9.48-5.07c1.85-3.11,1.95-7,1.4-10.55a13.42,13.42,0,0,0-3.07-7.35c-2.21-2.34-5.64-3.23-8.86-3.07a33.59,33.59,0,0,0-9.37,2.31c-2.93-5.05-11.27-5.55-14.78-.88-1.11,1.47-1.75,3.28-3,4.63-2.4,2.58-6.32,2.85-9.62,4.12-2.54,1-5,3.54-5,6-2.56-.1-5,.67-5.18,3.84a6.17,6.17,0,0,0,1.5,4.24s3.82,8,4.49,14.68c0,0,.15,6.46,5.92,4.4S93.39,292.91,93.39,292.91Z" fill="#535353"/>
            <g id="Grupo_80714" data-name="Grupo 80714">
              <path id="Trazado_120969" data-name="Trazado 120969" d="M111.15,305.44a4.65,4.65,0,0,1-3.62,2.21,5.38,5.38,0,0,1-3.74-1.19c-.22.39-.44.78-.65,1.18a6.71,6.71,0,0,0,4.14,1.39,5.81,5.81,0,0,0,4.83-2.64C111.81,306.06,111.48,305.74,111.15,305.44Z" fill="#535353"/>
              <path id="Trazado_120970" data-name="Trazado 120970" d="M110.24,298.76c.18.66.36,1.32.56,2-2.44.49-5.6,1.29-8,1.78l-.38-1.88Z" fill="#535353"/>
            </g>
            <g id="Grupo_80715" data-name="Grupo 80715">
              <path id="Trazado_120971" data-name="Trazado 120971" d="M132.26,303.92a4.65,4.65,0,0,1-3.62,2.22,5.4,5.4,0,0,1-3.73-1.19q-.34.58-.66,1.17a6.63,6.63,0,0,0,4.15,1.39,5.8,5.8,0,0,0,4.83-2.64C132.92,304.54,132.6,304.22,132.26,303.92Z" fill="#535353"/>
              <path id="Trazado_120972" data-name="Trazado 120972" d="M132.52,298.39c-2.49-.21-4.59-.3-7-.49v2l7.06.58A16.418,16.418,0,0,1,132.52,298.39Z" fill="#535353"/>
            </g>
            <path id="Trazado_120973" data-name="Trazado 120973" d="M89.91,304a9.48,9.48,0,0,0,.31,7.51c.54,1.11,1.3,2.1,1.8,3.22,1.6,3.6.61,8.45,3.56,11.05a24.356,24.356,0,0,0,2.65,1.7c2.87,1.9,4.37,5.24,6.6,7.86s6.19,4.56,9,2.6c.89-.61,1.53-1.55,2.45-2.13,2.93-1.88,7.1.58,10.22-1,2.17-1.09,3-3.74,3.28-6.16s.23-5,1.43-7.08c.92-1.61,2.48-3.73,1.1-5-.78-.69-2-.44-3-.36-1.63.13-2.26-.89-3.86-1.27-2.94-.7-6.37,1.33-9.81-1.46-1.85-1.51-4.77-1.11-7.06-.45-1.49.43-2.8,1.35-4.25,1.9s-3.26.68-4.43-.35c-1.9-1.69-.78-4.88-1.73-7.24a13,13,0,0,0-2.39-3.22A11.84,11.84,0,0,1,93.16,296" fill="#535353"/>
            <path id="Trazado_120974" data-name="Trazado 120974" d="M108.14,317.55l16.18.72s-.82,6.47-8.65,6S108.14,317.55,108.14,317.55Z" fill="#fff"/>
            <path id="Trazado_120975" data-name="Trazado 120975" d="M91,302.52a9.08,9.08,0,0,0-3.78.42,3.8,3.8,0,0,0-2.5,2.93,3.6,3.6,0,0,0,2.91,3.61,6.22,6.22,0,0,0,4.74-1.19A11.49,11.49,0,0,1,91,302.52Z" fill="#ffead8"/>
            <g id="Grupo_80716" data-name="Grupo 80716">
              <path id="Trazado_120976" data-name="Trazado 120976" d="M110.8,267.39a16.721,16.721,0,0,0-5.87,1.65c-3,1.52-4.69,4.16-8,5.14s-6.62,1.52-7,5.54a.225.225,0,0,0,.45,0,3.09,3.09,0,0,1,.15-.67.24.24,0,0,0,.13-.05c3.22-2.89,8.21-.85,11.78-3.38,3.25-2.29,4.2-6.87,8.45-7.79C111.1,267.78,111.05,267.36,110.8,267.39Zm-1.81.48h-.15c.69-.3.71-.37.16,0Z" fill="#2c2c2c"/>
              <path id="Trazado_120977" data-name="Trazado 120977" d="M136.15,278.15a8,8,0,0,1-4.92,3.34c-3.23.76-6.48,1.1-9.61-.28-.2-.09-.33.23-.2.38,4.54,5,13.2,4.09,15.1-3.27a.2.2,0,0,0-.37-.17Z" fill="#2c2c2c"/>
            </g>
            <g id="Grupo_80717" data-name="Grupo 80717">
              <path id="Trazado_120978" data-name="Trazado 120978" d="M106.27,317.58c0-.06,0-.1-.09-.12a.23.23,0,0,0-.26,0h0a2.46,2.46,0,0,0-.92,2.36c.11.57.51,1.5,1.53,1.34.13,0,.29-.11.24-.22A6.31,6.31,0,0,1,106.27,317.58Z" fill="#2c2c2c"/>
              <path id="Trazado_120979" data-name="Trazado 120979" d="M125.4,322.06a.38.38,0,0,0-.49.08l-.44.49a10.51,10.51,0,0,1-2,1.92,6.47,6.47,0,0,1-3.39,1.14.281.281,0,0,0-.13.05.511.511,0,0,0-.13.08.54.54,0,0,0-.13.28v.07a.29.29,0,0,0,.06.17.26.26,0,0,0,.14.12l.16.08h0a6.351,6.351,0,0,0,1,.08,5.76,5.76,0,0,0,5.5-4.07.42.42,0,0,0-.15-.49ZM125.05,322.26Z" fill="#2c2c2c"/>
            </g>
            <path id="Trazado_120980" data-name="Trazado 120980" d="M120.09,305.28l-1.11-6.7-1.37.14c.15,2,.53,6,1.26,13.13a.67.67,0,0,0,.23.53.69.69,0,0,0,.38.05c.87-.07,1.72-.17,2.58-.32a.58.58,0,0,0,.36-.15c.19-.22,0-.55-.21-.78C120.83,309.57,120.43,307.37,120.09,305.28Z" fill="#fcd2b5"/>
          </g>
        </g>
        <g id="Grupo_80723" data-name="Grupo 80723">
          <path id="Trazado_120981" data-name="Trazado 120981" d="M75,345.54a14.459,14.459,0,0,0-1.51,1.19h0c-.45.4-28,34.07-34.71,43.11L43.34,411l33.87-41.3c4.63,30.05,3.66,20.14,8.19,75.37,21.83.18,38.12.35,59.94.53,0-29.23,3-58.51,7.5-99.29L127,346.05l-12.16,5-8.2-5.24Z" fill="#a0c0e5"/>
          <path id="Trazado_120982" data-name="Trazado 120982" d="M127,369.7h18.39v15.49h0a18.82,18.82,0,0,1-18-.81l-.43-.26Z" fill="#fff"/>
          <path id="Trazado_120983" data-name="Trazado 120983" d="M112.76,347.63v97.72l6.72-.18-1.67-97.54Z" fill="#fff"/>
          <g id="Grupo_80722" data-name="Grupo 80722">
            <g id="Grupo_80720" data-name="Grupo 80720">
              <path id="Trazado_120984" data-name="Trazado 120984" d="M96.35,338.56l-6.68,9.07,19.74,16,3.35-16Z" fill="#cfdff1"/>
              <path id="Trazado_120985" data-name="Trazado 120985" d="M112.76,347.63v18.52l-3.35-2.52Z" fill="#e8e8e8"/>
            </g>
            <g id="Grupo_80721" data-name="Grupo 80721">
              <path id="Trazado_120986" data-name="Trazado 120986" d="M134.66,338.56l6.68,9.07-19.75,16-3.78-16Z" fill="#cfdff1"/>
              <path id="Trazado_120987" data-name="Trazado 120987" d="M117.81,347.63l.44,18.52,3.34-2.52Z" fill="#e8e8e8"/>
            </g>
          </g>
        </g>
        <g id="Grupo_80725" data-name="Grupo 80725">
          <path id="Trazado_120988" data-name="Trazado 120988" d="M84.29,630.8c4.53-.19,5.75-.38,10.28-.56.35-2.35.77-4.71,1.22-7.06H84.09C84,625.72,84.39,628.25,84.29,630.8Z" fill="#fdddc5"/>
          <path id="Trazado_120989" data-name="Trazado 120989" d="M146.88,623.42c.6,2.88,1.1,5.83,1.45,8.89,5.09-.16,4.7-.6,9.76-1.33,0-2.91,0-5.82.06-8.72Q152.53,622.94,146.88,623.42Z" fill="#fdddc5"/>
          <g id="Grupo_80724" data-name="Grupo 80724">
            <path id="Trazado_120990" data-name="Trazado 120990" d="M83.13,456.81C81,512.34,84.81,565.29,83,623.18H96.54c2.55-13.22,7.11-26.46,8.7-39.67.87-7.19-3.76-14-2.91-21.16,2.9-24.73,6.83-49.8,10.5-74.56a4,4,0,0,1,.41-1.28l.44-30.06Z" fill="#039be5"/>
            <path id="Trazado_120991" data-name="Trazado 120991" d="M147,456.05l-27.1.32,1.1,30.17a4.84,4.84,0,0,1,.38,1.09c5.18,26.68,15.51,51.37,19.91,77.86,1.11,6.66-4.46,15.11-3.4,22,1.8,11.86,5.27,23.12,7.91,35.88,3.76-.32,9.48-.71,13.22-1.16A1118.269,1118.269,0,0,0,147,456.05Z" fill="#039be5"/>
            <path id="Trazado_120992" data-name="Trazado 120992" d="M113.68,456.45l-.44,30.06a4.3,4.3,0,0,1,3.93-2.41h.07a4.31,4.31,0,0,1,3.79,2.44l-1.15-30.17Z" fill="#0274ab"/>
          </g>
        </g>
        <g id="Grupo_80727" data-name="Grupo 80727">
          <path id="Trazado_120993" data-name="Trazado 120993" d="M107.75,629.98l-5.3,1.12,11.51,15.52,3.14-18.6-5.71,1.2Z" fill="#535353"/>
          <path id="Trazado_120994" data-name="Trazado 120994" d="M109.24,604.86l-.39.08-10.83,2.28-1.35.28-10.14,2.14,15.92,21.46,4.82-1.02.48-.1,3.64-.76,5.71-1.2,4.35-25.72Z" fill="#ffdec5"/>
          <path id="Trazado_120995" data-name="Trazado 120995" d="M47.6,288.75l-22.68,5.07A6.48,6.48,0,0,0,20,301.71l3.16,12.82.64-.1,33.89-6.22L55.4,294.05a6.49,6.49,0,0,0-7.8-5.3Z" fill="#ffdec5"/>
          <path id="Trazado_120996" data-name="Trazado 120996" d="M58,308.15l-.31.06L23.8,314.43l-1.32.24,1.4,6.63,11.6-2.5,11.55-2.47,12.35-2.65Z" fill="#fff"/>
          <g id="Grupo_80726" data-name="Grupo 80726">
            <path id="Trazado_120997" data-name="Trazado 120997" d="M35.51,318.8l-11.6,2.5c4.95,22.79,53.43,246,62.62,288.34l10.14-2.14C81.94,538,39.62,338.19,35.51,318.8Z" fill="#bf7d1d"/>
            <path id="Trazado_120998" data-name="Trazado 120998" d="M54.05,460.1l.33-.45h0Z" fill="#ffa726"/>
          </g>
          <path id="Trazado_120999" data-name="Trazado 120999" d="M71.39,373.81q-2.25-11.145-4.5-22.28-3.8-18.91-7.48-37.85l-12.35,2.65,10.29,47.76q2.38,11,4.75,22Q85.68,495.5,109.24,604.86l12.21-2.56Q94.67,488.45,71.39,373.81Z" fill="#ffdca8"/>
          <path id="Trazado_121000" data-name="Trazado 121000" d="M62.1,386.13q-2.37-11-4.75-22l-10.29-47.8L35.51,318.8q6.17,29.09,12.32,58.2l4.65,21.93L96.67,607.5l1.35-.28,10.83-2.28.39-.08Q85.68,495.5,62.1,386.13Z" fill="#ffb951"/>
          <path id="Trazado_121001" data-name="Trazado 121001" d="M25.3,293.7l4.41,19.65,7.04-1.29-3.77-20.05Z" fill="#ffecdb"/>
          <path id="Trazado_121002" data-name="Trazado 121002" d="M22.82,313.5l34.5-7.48.4,2.19-34.53,6.32Z" fill="#f5c9ac"/>
        </g>
        <g id="Grupo_80728" data-name="Grupo 80728">
          <path id="Trazado_121003" data-name="Trazado 121003" d="M51.7,457.57c5.44,1.13,9.78,5.22,15,7.12,0,0,1,.38,1,1.19,0,0-.09.62-.49.79a2.31,2.31,0,0,1-1.28.05,24.253,24.253,0,0,1-5.86-1.55A4.1,4.1,0,0,0,62,466.9s2.74,2.08,5.13,3.55a3.79,3.79,0,0,0,2.18.54s7.87-2,7.89.55c0,.29-6.83,1.85-8.3,2.18a1.319,1.319,0,0,1-.56,0,7.3,7.3,0,0,1-1.28-.4l-5.14-2c1.48.88,3.53,2.67,5,3.55,0,0,.34.81,3.42-.3,0,0,5.75-2.05,6.06-.22a.6.6,0,0,1-.4.65l-7.73,2.79a2.45,2.45,0,0,1-.92.2,3.5,3.5,0,0,1-1.34-.52c-2-1.22-3.71-2.48-5.68-3.7,2.44,2.64,2.92,2.89,5.08,5.35,0,0,5.78-1.2,6,.4a1.87,1.87,0,0,1-1.22.66l-4.57,1.08a1.82,1.82,0,0,1-.83.07,1.66,1.66,0,0,1-.7-.38c-6.8-5.11-12.16-11.87-17.07-18.81" fill="#fdddc5"/>
          <path id="Trazado_121004" data-name="Trazado 121004" d="M51.4,448.1,36.22,417.83,28.44,414l12,.76,1.8-2.37L36,393.6c-6.26,9.14-11.43,17.36-13.2,21.93C17.12,430.09,49,467,49,467l5-6.9,2-2.77Z" fill="#a0c0e5"/>
          <path id="Trazado_121005" data-name="Trazado 121005" d="M36,393.6l6.28,18.79L43.34,411l-4.59-21.13Z" fill="#e8e8e8"/>
        </g>
        <g id="Grupo_80730" data-name="Grupo 80730">
          <path id="Trazado_121006" data-name="Trazado 121006" d="M143.94,645.89v3.34s28.74,4.18,43.17-.86v-2.44Z" fill="#fff"/>
          <g id="Grupo_80729" data-name="Grupo 80729">
            <path id="Trazado_121007" data-name="Trazado 121007" d="M182.46,639.63c-3.38-1.93-7.67-2-11.66-2.65,0,0-6.56,0-11,4l-3.29-2.06s.83-2.87,7.49-4.12a7.19,7.19,0,0,1-3-3.15c-.26-.57-.49-1.26-1.16-1.49a2.64,2.64,0,0,0-1.84.36c-2.46,1.16-6.7,1.81-10.31,1.89a1.58,1.58,0,0,0-1.61,1.84c.34,1.61,1,3.18-.77,6.66a13.16,13.16,0,0,0-1.37,5c16.66,2.78,29.05,2,43.17,0a9.38,9.38,0,0,0-4.65-6.28Z" fill="#535353"/>
            <path id="Trazado_121008" data-name="Trazado 121008" d="M156.52,638.89l3.29,2.06c4.43-4,11-4,11-4a19,19,0,0,1-6.79-2.21C157.35,636,156.52,638.89,156.52,638.89Z" fill="#3d3d3d"/>
          </g>
        </g>
        <g id="Grupo_80732" data-name="Grupo 80732">
          <path id="Trazado_121009" data-name="Trazado 121009" d="M59.3,650.72l.4,3s21.64,2.14,41.55-6.08a4.76,4.76,0,0,0,0-3.09C100.63,643,59.3,650.72,59.3,650.72Z" fill="#fff"/>
          <g id="Grupo_80731" data-name="Grupo 80731">
            <path id="Trazado_121010" data-name="Trazado 121010" d="M85.16,641.76a.76.76,0,0,0,.29-.35l1.43-2.6a.57.57,0,0,0,.1-.35c0-.15-.16-.25-.29-.34a22.669,22.669,0,0,0-6.86-3,19,19,0,0,1-3.11,2.34,25.37,25.37,0,0,1,7.62,4.08C84.57,641.7,84.89,641.9,85.16,641.76Z" fill="#3d3d3d"/>
            <path id="Trazado_121011" data-name="Trazado 121011" d="M99.38,641a11.15,11.15,0,0,1-3-8.38,1.6,1.6,0,0,1,.07-.57,1,1,0,0,0-1-1.15l-12.68-.29a1,1,0,0,0-1,1.11,5.277,5.277,0,0,1-2,3.41,22.669,22.669,0,0,1,6.86,3c.13.09.27.19.29.34a.57.57,0,0,1-.1.35l-1.43,2.6a.76.76,0,0,1-.29.35c-.27.14-.59-.06-.82-.25a25.371,25.371,0,0,0-7.62-4.08A15,15,0,0,1,74,638.78c-4.61,1.62-9.74,1.78-13.41,5.81A6.46,6.46,0,0,0,59,649.94a1.46,1.46,0,0,0,.29.78,1.61,1.61,0,0,0,1.28.35c12.72-.33,22.76-1.13,37.61-5.32l3-1.23a9.65,9.65,0,0,0-1.8-3.52Z" fill="#535353"/>
          </g>
        </g>
      </g>
    </g>
  </g>
</svg>
