<svg id="Capa_1" data-name="Capa 1" xmlns="http://www.w3.org/2000/svg" width="120" height="120" viewBox="0 0 120 120">
  <rect id="Rectángulo_34836" data-name="Rectángulo 34836" width="120" height="120" fill="none"/>
  <circle id="Elipse_5424" data-name="Elipse 5424" cx="50" cy="50" r="50" transform="translate(10 10)" fill="#9cbce1"/>
  <g id="Grupo_80736" data-name="Grupo 80736">
    <path id="Trazado_121032" data-name="Trazado 121032" d="M8.51,92.07a24.86,24.86,0,0,0,.58-4.71c.67-5.51,1.26-11,1.93-16.52.2-1.67,0-3.34.24-5a10,10,0,0,1,2.18-5.37,1.68,1.68,0,0,0,.5,0c1.81-.58,2.93.42,3.84,1.76a23.74,23.74,0,0,1,3,6.74,37.4,37.4,0,0,1,1.68,8.61,70.451,70.451,0,0,1,0,8.22,5.1,5.1,0,0,0,.61,3.55c.42.64.78,1,1.56.91a6,6,0,0,1,4.91,1.48,3.38,3.38,0,0,0,2.42.75h7.85c.41,0,.89-.15,1.15.37-.35,2.79-.93,5.55-1.05,8.37a16.49,16.49,0,0,0-.15,4.92c-3.44-.71-6.8-1.38-10.15-2.1-3.93-.84-7.61-2.48-11.35-3.88A2.93,2.93,0,0,0,17,99.92c-.12-.39-.51-.4-.8-.53-1.13-.49-2.28-1-3.41-1.46a8.16,8.16,0,0,1-4.3-4.25Z" fill="#2f5a6c"/>
    <path id="Trazado_121033" data-name="Trazado 121033" d="M73.33,15.73c1-3,3.33-4.86,6-6.32a20.54,20.54,0,0,1,7.13-2.24c.19,0,.42,0,.53-.21h5.23c1.64.51,3.37.62,5,1.2A16.12,16.12,0,0,1,104,12.41a8.39,8.39,0,0,1,.26,11.49,9.39,9.39,0,0,1-1.94,1.89,1.88,1.88,0,0,0-.87,1.84v8.24l-11.12-6a8.81,8.81,0,0,0,.06-5.21,14,14,0,0,0-2.26-3.83c.33-.16.56.12.84.18a2.86,2.86,0,0,0,3.12-1.29,2.75,2.75,0,0,0-.31-3.26,2.8,2.8,0,0,0-3.2-.71A2.73,2.73,0,0,0,87,18.69a10.451,10.451,0,0,0,.43,1.52,21.11,21.11,0,0,0-3.71-2.42c-.82-2.31-2.7-3-4.57-1.57a30.7,30.7,0,0,0-5.82-.49Zm25.31,5.35a2.72,2.72,0,0,0,2.86-2.63,2.77,2.77,0,1,0-5.5-.18,2.73,2.73,0,0,0,2.64,2.81Z" fill="#02c6ba"/>
    <path id="Trazado_121034" data-name="Trazado 121034" d="M72.09,77.92l.33-.87C74,79,75.48,80.93,77,82.82c.68.83.72.82,1.1-.2A61.94,61.94,0,0,1,84,71.6a2.56,2.56,0,0,1,.8,1.76,17.06,17.06,0,0,0-2.19,3.93c-1,2.56-1.77,5.19-2.66,7.78-.16.45-.27.9.22,1.12s.56-.36.72-.63a63,63,0,0,1,6.44-8.71,15.88,15.88,0,0,0,2.3-2.48,15,15,0,0,0,3.49-2.65c.42-.5.78-1.13,1.57-.44.31.27.62-.1.9-.25a49,49,0,0,0,6.31-4.29l1.1,1.59a13.23,13.23,0,0,0-2.49,1.26,65.47,65.47,0,0,0-16.7,13.47c-1,1.07-1.88,2.25-2.82,3.38-.2.24-.38.48-.15.8,1,1.42,1.67,3,2.55,4.53a5.24,5.24,0,0,0,2.1,2.1c.47.24.73.1.8-.35a29.66,29.66,0,0,1,2.25-6.82c1.12-2.79,1.76-5.77,3.29-8.38,2-3.43,4.66-5.87,9-5.56,2.39.17,4.5,1,5.61,3.25a10.39,10.39,0,0,1,.89,5.93,17.05,17.05,0,0,1-5.19,10.33c-3.39,3.43-6.83,6.81-10.22,10.25a37.9,37.9,0,0,1-3.1,3.11,3.82,3.82,0,0,1-4.64.54,13.47,13.47,0,0,1-2.8-2.17,34.35,34.35,0,0,1-7-7.89c-1.6-2.76-3.91-4.76-6.24-6.81A56.6,56.6,0,0,0,64,84.77l-.27-.3c-.11-.15-.18-.36-.44-.26h0c.11-.47-.48-.55-.52-.93.17-.28.53-.2.75-.39a26,26,0,0,0,6.64-2.6A4,4,0,0,0,72.09,77.92Z" fill="#2f5a6c"/>
    <path id="Trazado_121035" data-name="Trazado 121035" d="M73.33,15.73a30.7,30.7,0,0,1,5.82.49c1.53.5,3.09.93,4.57,1.57a21.11,21.11,0,0,1,3.71,2.42l.49.44.27.21h0a14,14,0,0,1,2.26,3.83,8.81,8.81,0,0,1-.06,5.21c-2.26,4.95-6.56,7-11.51,8.07a10.42,10.42,0,0,1-2.58.36,9.17,9.17,0,0,0-5.11,1.45c-2.72,1.56-5.53,3-8.29,4.49-.65.36-.83.3-.82-.48V36.26a1.88,1.88,0,0,0-.81-1.68c-2.28-1.81-3.93-4.05-4.07-7.08-.16-3.38,1.52-5.88,4.08-7.86a20,20,0,0,1,11-3.81Zm.54,14.16a2.8,2.8,0,1,0-2.77-2.76,2.86,2.86,0,0,0,2.77,2.76Zm-6-2.79a2.7,2.7,0,1,0-2.72,2.79,2.8,2.8,0,0,0,2.72-2.79ZM82.8,29.88a2.82,2.82,0,0,0,2.87-2.74A2.86,2.86,0,0,0,83,24.3a2.791,2.791,0,1,0-.18,5.58Z" fill="#fe7259"/>
    <path id="Trazado_121036" data-name="Trazado 121036" d="M41,92.85c-.26-.52-.74-.37-1.15-.37H32a3.38,3.38,0,0,1-2.42-.75,6,6,0,0,0-4.91-1.48c-.78.12-1.14-.27-1.56-.91a5.1,5.1,0,0,1-.61-3.55,70.448,70.448,0,0,0,0-8.22A37.4,37.4,0,0,0,20.79,69a23.74,23.74,0,0,0-3-6.74c-.91-1.34-2-2.34-3.84-1.76a1.68,1.68,0,0,1-.5,0,8.63,8.63,0,0,1,3.91-2.83c3.34-1.33,6.7-2.6,10-3.89a2.36,2.36,0,0,1-.23,1.17c-.69,2.32-.62,2.59,1.38,3.82.7.43.7.66,0,1.16-1.22.89-1.19,1-.51,2.26,1.43,2.76,2.93,5.49,4.32,8.28,2.13,4.28,4.25,8.58,6.25,12.93a98.948,98.948,0,0,1,3.88,9.24C42,92.77,41.44,92.43,41,92.85Z" fill="#22495f"/>
    <path id="Trazado_121037" data-name="Trazado 121037" d="M103,68.33l-1.15-1.59c-.34-.67-.68-1.34-1-2a27.8,27.8,0,0,1-.42-5.39q0-1.71,0-3.42a1.973,1.973,0,0,0-1-2,2,2,0,0,0-2.27.64,1.39,1.39,0,0,0-.21.21,1.85,1.85,0,0,1-2,.52,4.6,4.6,0,0,1-2.38-1.91C91.5,52,91,50.28,90,48.8a1.819,1.819,0,0,1-.07-.25l-.1.08.14.19c0,1.09.74,2,.67,3.09a18.53,18.53,0,0,1-2.46-5.39c-.22-1-.42-2-.63-3s.65-1.49,1.28-2a9.87,9.87,0,0,1,7.24-2.11,17.44,17.44,0,0,1,9.3,3.4c2,1.44,2.76,3.55,3.31,5.8a39.73,39.73,0,0,1,1,8c.25,6.73.91,13.42,1.71,20.1a13.71,13.71,0,0,1-3.46,11.17,5.151,5.151,0,0,1-.61.51c.24-1.49.46-3,.7-4.46a15.09,15.09,0,0,0,.14-6.17A25.117,25.117,0,0,0,103,68.33ZM89.71,48h-.06a.19.19,0,0,0,0,.08h.1Z" fill="#fe7158"/>
    <path id="Trazado_121038" data-name="Trazado 121038" d="M103,68.33c2.24,2.87,4.24,5.85,5.12,9.46A15.09,15.09,0,0,1,108,84c-.24,1.49-.46,3-.7,4.46-1.72,3.43-3.54,6.81-5.13,10.31a12,12,0,0,0-.71,4.62c-.09,2-.15,3.87,1.27,5.49.54.63.44,1-.53,1q-13.71.06-27.42.21c-1,0-1.12-.28-1.11-1.16a56.059,56.059,0,0,1,.95-10.18.72.72,0,0,0-.35-.91c-2.7-1.67-5.38-3.37-8.07-5.06.29-.61,1.32-.34,1.41-1.19a4.58,4.58,0,0,0,.47-2.25,26.4,26.4,0,0,1,6.24,6.81,34.35,34.35,0,0,0,7,7.89,13.47,13.47,0,0,0,2.82,2.22,3.82,3.82,0,0,0,4.64-.54,37.9,37.9,0,0,0,3.1-3.11c3.39-3.44,6.83-6.82,10.22-10.25a17.05,17.05,0,0,0,5.19-10.33,10.39,10.39,0,0,0-.89-5.93c-1.11-2.26-3.22-3.08-5.61-3.25-4.33-.31-7,2.13-9,5.56-1.53,2.61-2.17,5.59-3.29,8.38a29.66,29.66,0,0,0-2.25,6.82c-.07.45-.33.59-.8.35a5.24,5.24,0,0,1-2.1-2.1c-.88-1.49-1.54-3.11-2.55-4.53-.23-.32-.05-.56.15-.8.94-1.13,1.82-2.31,2.82-3.38a65.469,65.469,0,0,1,16.7-13.47A13.23,13.23,0,0,1,103,68.33Z" fill="#234a5f"/>
    <path id="Trazado_121039" data-name="Trazado 121039" d="M34.89,46.92c0-.06-.11-.13-.1-.17.67-2.87-.12-5.66-.48-8.46-.56-4.33.7-7.82,4.34-10.39,4-2.8,8-3.21,12.34-.92a15.79,15.79,0,0,1,5.52,4.71A3.51,3.51,0,0,1,55.3,37.2a2.69,2.69,0,0,0-1.64.36c-2,1.42-4.42,2.2-6.61,3.31a4.55,4.55,0,0,0-2.7,4c0,.41.09.87-.63.86s-.75-.36-.83-.87a6.12,6.12,0,0,0-1.28-3.11,1.74,1.74,0,0,0-3,.14,7.46,7.46,0,0,0-.61,1.2c-.4.91-.74,1.86-1.2,2.75a1.73,1.73,0,0,1-1.91,1.08Z" fill="#234a5f"/>
    <path id="Trazado_121040" data-name="Trazado 121040" d="M34.89,46.92a1.73,1.73,0,0,0,1.94-1.08c.46-.89.8-1.84,1.2-2.75a7.46,7.46,0,0,1,.57-1.17,1.74,1.74,0,0,1,3-.14,6.12,6.12,0,0,1,1.28,3.11c.08.51.17.86.83.87s.6-.45.63-.86a4.55,4.55,0,0,1,2.7-4c2.19-1.11,4.56-1.89,6.61-3.31a2.69,2.69,0,0,1,1.64-.36,13,13,0,0,0,.52,3.15c.28.83-.27,1.36-.76,1.83a1.69,1.69,0,0,0-.5,2,21.819,21.819,0,0,1,.62,2.63c.17.85-.17,1.41-1.06,1.43a.8.8,0,0,0-.89.83,1.12,1.12,0,0,1-.58,1c-.06,0-.17.09-.16.1.4,1.23-1,2.07-.7,3.28-.3,1.21-1.22,1.38-2.26,1.35-.55-.16-1.06.29-1.61.08l-.19-.19c-2.36-2-4.72-4-6.29-6.79-.27.51,0,.84.08,1.19a21.72,21.72,0,0,0,2.27,6.17c.09.15.2.57.35,0a4.22,4.22,0,0,1,.18.45c.53,2.18-.2,4.18-.82,6.21a2.06,2.06,0,0,1-1.14-1,6,6,0,0,0-1.67-1.78c-.77-.92-1.62-1.76-2.31-2.74-1.61-2.32-3.25-4.62-4.87-6.93A10.4,10.4,0,0,1,34.89,46.92Z" fill="#fdd151"/>
    <path id="Trazado_121041" data-name="Trazado 121041" d="M87.56,43.51c.21,1,.41,2,.63,3a18.53,18.53,0,0,0,2.46,5.39c.07-1.1-.71-2-.67-3.09h0c1,1.48,1.49,3.22,2.59,4.63A4.6,4.6,0,0,0,95,55.34a1.85,1.85,0,0,0,2-.52,1.39,1.39,0,0,1,.21-.21A2,2,0,0,1,99.47,54c.83.37.94,1.18,1,2v3.42a27.8,27.8,0,0,0,.42,5.39c-.43-.8-1-.72-1.64-.27A43.05,43.05,0,0,0,88,74.78c-.3.25-.58.53-.89.75s-.63,1-1.33.85a1.84,1.84,0,0,1,.47-1c1.27-2.07,2.6-4.1,3.78-6.23a1.9,1.9,0,0,0-.24-2.45c1.62-.51,2.59-1.83,3.63-3A6.08,6.08,0,0,0,95,61c-.51,0-.68.41-.94.64a12.46,12.46,0,0,1-4.62,2.7c-.8.25-1.66,0-2.43.42-.54-.15-1.1-.28-1.64-.45-1.42-.44-1.75-1.07-1.54-2.56.16-1.19.07-2.43.15-3.6a3.15,3.15,0,0,0-.98-2.9c-.31-.29-.19-.9.09-1.32a8.1,8.1,0,0,1,1-1.29,5.07,5.07,0,0,0,1.55-3.82C85.61,46.93,86.68,45.21,87.56,43.51ZM91,52.64v-.26l-.11.06.16.19.08.28.07-.06Z" fill="#fed152"/>
    <path id="Trazado_121042" data-name="Trazado 121042" d="M42.51,92.6c-1.1-3.16-2.48-6.21-3.88-9.24-2-4.35-4.12-8.65-6.25-12.93-1.39-2.79-2.89-5.52-4.32-8.28-.68-1.31-.71-1.37.51-2.26.68-.5.68-.73,0-1.16-2-1.23-2.07-1.5-1.38-3.82a2.36,2.36,0,0,0,.23-1.17c1.18-.88,2.35-1.77,3.53-2.64a9.812,9.812,0,0,1,.95-.55A8.26,8.26,0,0,0,31.72,53a46.359,46.359,0,0,1,.52,5.88c0,.83-.21,2.08.21,2.39.62.45,1.55-.42,2.38-.59,1.75,5.44,3.61,10.86,5.14,16.37a154.857,154.857,0,0,1,3.18,15.53Z" fill="#305b6c"/>
    <path id="Trazado_121043" data-name="Trazado 121043" d="M17,99.92a2.93,2.93,0,0,1,1.27.24,86.748,86.748,0,0,0,11.35,3.88c3.35.72,6.71,1.39,10.15,2.1a16.49,16.49,0,0,1,.15-4.92,25,25,0,0,1,3.69,2.43l-.5,3.67-.42,2.42H18.81c-.6,0-.86-.09-.92-.78C17.66,106,17.33,102.94,17,99.92Z" fill="#234a5f"/>
    <path id="Trazado_121044" data-name="Trazado 121044" d="M66.93,69.81a16.91,16.91,0,0,1,3.54-4.06,14.24,14.24,0,0,0,1.87-2.6,8.37,8.37,0,0,1,.89-1.08,1,1,0,0,1,1.13-.1c.43.2.21.58.14.89a9.56,9.56,0,0,1-1.7,2.93c-.29.48-1.06.89-.74,1.51s1.13.41,1.75.48c2,.23,3.73-.61,5.54-1.13a4.89,4.89,0,0,1,2.12-.5.9.9,0,0,1,.84.62c.09.39-.32.47-.55.62a18,18,0,0,1-4.19,2.14c-.67.22-1.06.52-.73,1.31a1,1,0,0,1,0,.77c-.67,1-.85,2.32-1.58,3.33a2.33,2.33,0,0,1-1.69,1,7.94,7.94,0,0,0-1.92.54l-1.35.34a2.35,2.35,0,0,1-1.8-.71,2.6,2.6,0,0,0-1.69-.73,11,11,0,0,1-.5-1.18c-.37-1.22-1-2.46.33-3.54C66.84,70.48,66.84,70.09,66.93,69.81Z" fill="#feb743"/>
    <path id="Trazado_121045" data-name="Trazado 121045" d="M66.82,75.36a2.6,2.6,0,0,1,1.69.73,2.35,2.35,0,0,0,1.8.71c.31.37.79.36,1.18.55l.6.57a4,4,0,0,1-2,2.38,26,26,0,0,1-6.64,2.6A15,15,0,0,0,60,81.61l-1.6-.79L56.66,79c-.52-.6-1-1.26-1.56-1.8s.41-1.25-.25-1.74a2,2,0,0,1,.36-.17c.26-.06.52-.09.79-.13.79,0,1.28.7,2,.91a17.72,17.72,0,0,1,2.53,1.74c1.34.86,2.91.88,4.43,1.06A2.88,2.88,0,0,0,67,78.3a10.079,10.079,0,0,1-1-1C65.44,76.39,65.75,75.64,66.82,75.36Z" fill="#fcce51"/>
    <path id="Trazado_121046" data-name="Trazado 121046" d="M42.71,109.74l.42-2.42a33.88,33.88,0,0,0,8.11-.41c2.91-.54,5.62-1.53,7.37-4.17.49,1.84,1.69,3.42,2,5.34a5.81,5.81,0,0,0,.26,1.66Z" fill="#305b6c"/>
    <path id="Trazado_121047" data-name="Trazado 121047" d="M68.09,89.25a4.58,4.58,0,0,1-.47,2.25H65a27.71,27.71,0,0,1-5.94-2.07l-1.85-1.61-2.44-2.41a6.531,6.531,0,0,0-.78-.87c-.57-.48-.31-.74.2-1,1-.09,1.72.47,2.6.66a3.61,3.61,0,0,0,2,.76,2.55,2.55,0,0,0,1.09.24,4.33,4.33,0,0,0,1.86.13c.79,0,1.62.15,2.19-.61a56.6,56.6,0,0,1,4.16,4.53Z" fill="#feb743"/>
    <path id="Trazado_121048" data-name="Trazado 121048" d="M34.83,60.71c-.83.17-1.76,1-2.38.59-.42-.31-.16-1.56-.21-2.39A46.361,46.361,0,0,0,31.72,53a8.26,8.26,0,0,1,.16-2.48c.51-.43.83-1.12,1.63-1.15,1.62,2.31,3.26,4.61,4.87,6.93.69,1,1.54,1.82,2.31,2.74C38.53,58.87,36.77,60.12,34.83,60.71Z" fill="#f1f1f0"/>
    <path id="Trazado_121049" data-name="Trazado 121049" d="M58,76c-.71-.21-1.2-.88-2-.91a15.49,15.49,0,0,0-.61-3.63c-.94-4.83-2.29-9.56-3.63-14.3-.07-.24-.17-.47-.43-.48-1.23-.08-1.5-1-1.8-2,1,0,2-.14,2.26-1.35,2,.34,2.43.79,2.75,2.85s.58,4.1.85,6.16A20.59,20.59,0,0,0,56.6,67,36.92,36.92,0,0,1,58,74.4Z" fill="#254b60"/>
    <path id="Trazado_121050" data-name="Trazado 121050" d="M57.21,87.83l1.85,1.61c.33,3.83.29,7.69,1.33,11.44a45.44,45.44,0,0,0,2.33,6.17,11.889,11.889,0,0,1,.85,2.69H60.82a5.81,5.81,0,0,1-.26-1.66c-.26-1.92-1.46-3.5-2-5.34-.15-2.11-.61-4.17-.9-6.26a17.6,17.6,0,0,0-.73-3.8,2.87,2.87,0,0,0,.12-2,5.24,5.24,0,0,1,.16-2.85Z" fill="#254b60"/>
    <path id="Trazado_121051" data-name="Trazado 121051" d="M58,76V74.4c.76-.25,1.52-.51,2.28-.73A3.25,3.25,0,0,0,62,72.61a5.23,5.23,0,0,1,2-1.1,20.85,20.85,0,0,1,2.89-1.7c-.09.28-.09.67-.28.83-1.33,1.08-.7,2.32-.33,3.54a11,11,0,0,0,.5,1.18c-1.07.28-1.38,1-.75,1.91a10.081,10.081,0,0,0,1,1,2.88,2.88,0,0,1-2.07.52c-1.52-.18-3.09-.2-4.43-1.06A17.719,17.719,0,0,0,58,76Z" fill="#305b6c"/>
    <path id="Trazado_121052" data-name="Trazado 121052" d="M89.77,66.73A1.9,1.9,0,0,1,90,69.18c-1.18,2.13-2.51,4.16-3.78,6.23a1.84,1.84,0,0,0-.47,1h0l-.42.17a4.06,4.06,0,0,0-.57-3.18A2.56,2.56,0,0,0,84,71.6c0-.44.28-.63.57-.86,1.68-1.34,3.48-2.53,5-4Z" fill="#f1f1f0"/>
    <path id="Trazado_121053" data-name="Trazado 121053" d="M89.77,66.73h-.18a6.44,6.44,0,0,0-2.62-2c.77-.39,1.63-.17,2.43-.42A12.46,12.46,0,0,0,94,61.59c.26-.23.43-.61.94-.64a6.08,6.08,0,0,1-1.56,2.74C92.36,64.9,91.39,66.22,89.77,66.73Z" fill="#feb743"/>
    <path id="Trazado_121054" data-name="Trazado 121054" d="M65,91.51h2.62c-.09.85-1.12.58-1.41,1.19C65.69,92.42,65.11,92.21,65,91.51Z" fill="#cbd6df"/>
    <path id="Trazado_121055" data-name="Trazado 121055" d="M71.49,77.35c-.39-.19-.87-.18-1.18-.55l1.35-.34a1.32,1.32,0,0,1-.17.89Z" fill="#305b6c"/>
    <path id="Trazado_121056" data-name="Trazado 121056" d="M43.63,103.65a25,25,0,0,0-3.69-2.43c.12-2.82.7-5.58,1.05-8.37.45-.42,1-.08,1.52-.25h.64a18.565,18.565,0,0,0,2.11,0,5.28,5.28,0,0,1,3.31.8,10.38,10.38,0,0,0,4.16,1.64c.32,0,.71,0,.82.4a1,1,0,0,1-.33,1.09,2,2,0,0,1-1.79.43c-.81-.17-1.62-.38-2.43-.57-.06-.08-.13-.14-.21,0a.83.83,0,0,0,.13.12,3.82,3.82,0,0,0,1.39,1.13c1.51.83,2.92,1.88,4.7,2.16.49.08.94.37.88.92s-.63.61-1.1.62-1,0-1.51,0a1.13,1.13,0,0,0-1.34.75.72.72,0,0,1-1,.52c-.39-.16-.55,0-.54.4,0,1-.61,1.06-1.36,1-.31,0-.66-.25-.89.18-.3.6-.81.51-1.38.48C45.61,104.59,44.74,103.76,43.63,103.65Zm4.76-7.39.08-.06a.76.76,0,0,0-.16-.06h-.07Z" fill="#fdd151"/>
    <path id="Trazado_121057" data-name="Trazado 121057" d="M87.92,20.65l-.49-.44A10.451,10.451,0,0,1,87,18.69a2.73,2.73,0,0,1,1.63-2.93,2.8,2.8,0,0,1,3.2.71,2.75,2.75,0,0,1,.31,3.26A2.86,2.86,0,0,1,89,21c-.28-.06-.51-.34-.84-.18h0C88.23,20.62,88.09,20.61,87.92,20.65Z" fill="#fefefd"/>
    <path id="Trazado_121058" data-name="Trazado 121058" d="M98.64,21.08A2.73,2.73,0,0,1,96,18.27a2.77,2.77,0,1,1,5.53.18,2.72,2.72,0,0,1-2.89,2.63Z" fill="#fefefd"/>
    <path id="Trazado_121059" data-name="Trazado 121059" d="M83.72,17.79a48.179,48.179,0,0,0-4.57-1.57C81,14.83,82.9,15.48,83.72,17.79Z" fill="#f1f1f0"/>
    <path id="Trazado_121060" data-name="Trazado 121060" d="M88,74.78A43.05,43.05,0,0,1,99.23,64.46c.68-.45,1.21-.53,1.64.27s.67,1.34,1,2A49,49,0,0,1,95.57,71c-.28.15-.59.52-.9.25-.79-.69-1.15-.06-1.57.44a15,15,0,0,1-3.49,2.65C89,74.31,88.64,75.1,88,74.78Z" fill="#f1f1f0"/>
    <path id="Trazado_121061" data-name="Trazado 121061" d="M88,74.78c.66.32,1-.47,1.63-.41a15.879,15.879,0,0,1-2.3,2.48,63,63,0,0,0-6.44,8.71c-.16.27-.23.84-.72.63s-.38-.67-.22-1.12c.89-2.59,1.69-5.22,2.66-7.78a17.06,17.06,0,0,1,2.19-3.93,4.06,4.06,0,0,1,.57,3.18c.05.12,0,.37.17.33a.34.34,0,0,0,.25-.5h0c.7.12.9-.54,1.33-.85S87.68,75,88,74.78Z" fill="#cbd6df"/>
    <path id="Trazado_121062" data-name="Trazado 121062" d="M60,81.61a15,15,0,0,1,3.48,1.29c-.22.19-.58.11-.75.39,0,.38.63.46.52.93h-.63l-1.3-.68C60.56,83.09,59.94,82.59,60,81.61Z" fill="#feb743"/>
    <path id="Trazado_121063" data-name="Trazado 121063" d="M62.62,84.17h.63c0,.27.26.23.44.26l.27.3c-.57.76-1.4.65-2.19.61a4.33,4.33,0,0,1-1.86-.13Z" fill="#f1f1f0"/>
    <path id="Trazado_121064" data-name="Trazado 121064" d="M63.68,84.47c-.18,0-.4,0-.44-.26C63.5,84.11,63.57,84.32,63.68,84.47Z" fill="#feb743"/>
    <path id="Trazado_121065" data-name="Trazado 121065" d="M73.87,29.89a2.8,2.8,0,1,1,2.82-2.83,2.86,2.86,0,0,1-2.82,2.83Z" fill="#fefcfb"/>
    <path id="Trazado_121066" data-name="Trazado 121066" d="M67.87,27.1a2.7,2.7,0,1,1-2.8-2.8A2.8,2.8,0,0,1,67.87,27.1Z" fill="#fefcfb"/>
    <path id="Trazado_121067" data-name="Trazado 121067" d="M82.8,29.88A2.792,2.792,0,1,1,83,24.3a2.86,2.86,0,0,1,2.69,2.84,2.82,2.82,0,0,1-2.89,2.74Z" fill="#fefcfb"/>
    <path id="Trazado_121068" data-name="Trazado 121068" d="M87.92,20.65c.17,0,.31,0,.27.21Z" fill="#02c6ba"/>
    <path id="Trazado_121069" data-name="Trazado 121069" d="M90,48.82l-.14-.19.1-.08a1.82,1.82,0,0,0,.07.25Z" fill="#fed152"/>
    <path id="Trazado_121070" data-name="Trazado 121070" d="M89.71,48v.08h-.1a.19.19,0,0,1,0-.08Z" fill="#fed152"/>
    <path id="Trazado_121071" data-name="Trazado 121071" d="M43.63,103.65c1.11.11,2,.94,3.12,1,.57,0,1.08.12,1.38-.48.23-.43.58-.22.89-.18.75.09,1.36,0,1.36-1,0-.42.15-.56.54-.4a.72.72,0,0,0,1-.52,1.13,1.13,0,0,1,1.34-.75h1.51c.51,0,1,0,1.1-.62s-.39-.84-.88-.92c-1.78-.28-3.19-1.33-4.7-2.16a3.82,3.82,0,0,1-1.39-1.13l.08-.09c.81.19,1.62.4,2.43.57a2,2,0,0,0,1.79-.43,1,1,0,0,0,.33-1.09c-.11-.44-.5-.35-.82-.4a10.38,10.38,0,0,1-4.16-1.64,5.28,5.28,0,0,0-3.31-.8H43.13A154.85,154.85,0,0,0,40,77.08c-1.53-5.51-3.39-10.93-5.14-16.37,1.94-.59,3.7-1.84,5.86-1.64a6,6,0,0,1,1.67,1.78,2.06,2.06,0,0,0,1.14,1,11.55,11.55,0,0,0-.16,2.9,19.36,19.36,0,0,0,5-3.7A3.61,3.61,0,0,1,49,62.32a83.632,83.632,0,0,1,3.6,12.29c.69,3,.76,6,1.59,9-.51.22-.77.48-.2,1a6.531,6.531,0,0,1,.78.87l.63,2.76a35,35,0,0,0,.8,4.67,11.69,11.69,0,0,0,1.51,3.63c.29,2.09.75,4.15.9,6.26-1.75,2.64-4.46,3.63-7.37,4.17a33.88,33.88,0,0,1-8.11.41Z" fill="#cbd6df"/>
    <path id="Trazado_121072" data-name="Trazado 121072" d="M54.19,83.59c-.83-2.94-.9-6-1.59-9A83.63,83.63,0,0,0,49,62.32a3.61,3.61,0,0,0-.62-1.24c.28-.84,1.12-1.52.94-2.45s-.18-1.29,1-1.22l-1.41-1.33a2.84,2.84,0,0,1-.61-.64c-.12-.21-.64-.19-.38-.62.55.21,1.06-.24,1.61-.08.3.92.57,1.88,1.8,2,.26,0,.36.24.43.48,1.34,4.74,2.69,9.47,3.63,14.3A15.49,15.49,0,0,1,56,75.11a3.524,3.524,0,0,0-.79.13,2,2,0,0,0-.36.17c.66.49-.35,1.19.25,1.74s1,1.2,1.56,1.8a.4.4,0,0,0-.18.42c.11,1.63.21,3.25.31,4.88C55.91,84.06,55.14,83.5,54.19,83.59Z" fill="#305b6c"/>
    <path id="Trazado_121073" data-name="Trazado 121073" d="M47.92,54.82c-.26.43.26.41.38.62a2.84,2.84,0,0,0,.61.64l1.41,1.33c-1.2-.07-1.18.42-1,1.22s-.66,1.61-.94,2.45a19.36,19.36,0,0,1-5,3.7,11.55,11.55,0,0,1,.16-2.9c.62-2,1.35-4,.82-6.21a4.221,4.221,0,0,0-.18-.45c-.07-.29-.17-.48.32-.59a17,17,0,0,1,3.27,0Z" fill="#f1f1f0"/>
    <path id="Trazado_121074" data-name="Trazado 121074" d="M47.73,54.63a17,17,0,0,0-3.27,0c-.49.11-.39.3-.32.59-.15.55-.26.13-.35,0A21.72,21.72,0,0,1,41.52,49c-.07-.35-.35-.68-.08-1.19C43,50.66,45.37,52.64,47.73,54.63Z" fill="#feb743"/>
    <path id="Trazado_121075" data-name="Trazado 121075" d="M91,52.64l.15.21-.07.06L91,52.63Z" fill="#fe7158"/>
    <path id="Trazado_121076" data-name="Trazado 121076" d="M91,52.63l-.16-.19.11-.06v.26Z" fill="#fe7158"/>
    <path id="Trazado_121077" data-name="Trazado 121077" d="M56.79,84.25c-.1-1.63-.2-3.25-.31-4.88a.4.4,0,0,1,.18-.42l1.74,1.87c.35,1.38.05,2.81.41,4.19a3.61,3.61,0,0,1-2.02-.76Z" fill="#254b60"/>
    <path id="Trazado_121078" data-name="Trazado 121078" d="M58.81,85c-.36-1.38-.06-2.81-.41-4.19l1.6.79c-.06,1,.56,1.48,1.32,1.88l1.3.68L59.9,85.25A2.55,2.55,0,0,1,58.81,85Z" fill="#305b6c"/>
    <path id="Trazado_121079" data-name="Trazado 121079" d="M55.4,88.18l-.63-2.76,2.44,2.41a5.24,5.24,0,0,0-.11,2.83,2.87,2.87,0,0,1-.12,2C56.27,91.24,56.07,89.62,55.4,88.18Z" fill="#305b6c"/>
    <path id="Trazado_121080" data-name="Trazado 121080" d="M55.4,88.18c.67,1.44.87,3.06,1.58,4.5a17.6,17.6,0,0,1,.73,3.8,11.69,11.69,0,0,1-1.51-3.63,35,35,0,0,1-.8-4.67Z" fill="#f1f1f0"/>
    <path id="Trazado_121081" data-name="Trazado 121081" d="M85.77,76.37a.34.34,0,0,1-.25.5c-.21,0-.12-.21-.17-.33Z" fill="#fed152"/>
    <path id="Trazado_121082" data-name="Trazado 121082" d="M48.39,96.26l-.15-.07h.07a.759.759,0,0,1,.16.06Z" fill="#cbd6df"/>
    <path id="Trazado_121083" data-name="Trazado 121083" d="M48.92,96.53a.83.83,0,0,1-.13-.12c.08-.11.15,0,.21,0Z" fill="#cbd6df"/>
  </g>
</svg>
