<svg id="Capa_1" data-name="Capa 1" xmlns="http://www.w3.org/2000/svg" width="120" height="120" viewBox="0 0 120 120">
  <rect id="Rectángulo_34835" data-name="Rectángulo 34835" width="120" height="120" fill="none"/>
  <circle id="Elipse_5423" data-name="Elipse 5423" cx="50" cy="50" r="50" transform="translate(10 10)" fill="#9cbce1"/>
  <g id="Grupo_80735" data-name="Grupo 80735">
    <path id="Trazado_121012" data-name="Trazado 121012" d="M83.56,20.27c0-2.05.11-4.09,0-6.14-.12-2.69.75-4.7,3.41-5.69h21.15a4.7,4.7,0,0,1,3.3,3.33,6,6,0,0,1,.12,1.4q0,9.24,0,18.5a4.39,4.39,0,0,1-4.7,4.73H88.34c-2.95,0-4.72-1.83-4.75-4.8v-7Zm23.36,2.08V14.1c0-.69-.15-1-.94-1H89.18c-.6,0-.82.18-.82.81V30.8c0,.67.21.87.87.86h16.8c.71,0,.9-.24.89-.93C106.9,27.92,106.92,25.13,106.92,22.35Z" fill="#54d7f8"/>
    <path id="Trazado_121013" data-name="Trazado 121013" d="M8.44,90.81a19,19,0,0,0,.79-4.67,89.322,89.322,0,0,1,3.39-15.77,11.62,11.62,0,0,1,1.12-2.46c.33-.53.65-1.1,1.35-1.26a12.6,12.6,0,0,0,.53,3.45,50.429,50.429,0,0,1,1.27,11.29,18.54,18.54,0,0,0,.67,5.54c.46,1.73.78,3.5,1.16,5.26H8.44Z" fill="#305a6c"/>
    <path id="Trazado_121014" data-name="Trazado 121014" d="M83.56,20.27v4.28H74.21c-.66,0-.93.1-.92.85V58.09c0,.73.24.88.91.88h9.36v4.27H74.21c-.65,0-.93.08-.92.84V94.64c0,.75.26.86.92.85h9.35v4.27H71.78C69.76,99.72,69,99,69,97V64.57c0-1.35,0-1.35-1.4-1.35H62.36c-.79,0-1-.24-.92-1a22.9,22.9,0,0,0,0-2.62c0-.59.21-.74.76-.73,1.88,0,3.76-.06,5.64,0,1,.05,1.18-.31,1.18-1.24V23.2c0-2.41.62-3,3-3Z" fill="#2f5a6c"/>
    <path id="Trazado_121015" data-name="Trazado 121015" d="M83.55,99.72V88.6c0-3.23,1.76-5,5-5h18.13c3.11,0,4.85,1.77,4.85,4.88v18.23c0,3.11-1.73,4.83-4.87,4.84H88.45c-3.09,0-4.83-1.76-4.85-4.9C83.59,104.35,83.57,102,83.55,99.72Zm14,7h8.25c.69,0,.93-.18.93-.9V89.21c0-.67-.24-.85-.88-.85H89.25c-.65,0-.88.18-.88.85v16.61c0,.72.24.91.93.9,2.76-.01,5.51.01,8.26.01Z" fill="#fe7159"/>
    <path id="Trazado_121016" data-name="Trazado 121016" d="M83.56,63.22V50.84a4.387,4.387,0,0,1,3.19-4.57,5.79,5.79,0,0,1,1.5-.15h18.62a4.27,4.27,0,0,1,4.64,4.64q0,9.32,0,18.63A4.25,4.25,0,0,1,107,73.93H88.24c-2.86,0-4.6-1.77-4.64-4.67C83.57,67.25,83.57,65.23,83.56,63.22ZM88.39,60v8.45c0,.65.19.88.86.88h16.8c.72,0,.89-.26.89-.94V51.7c0-.7-.19-.93-.9-.93H89.34c-.78,0-1,.26-1,1C88.42,54.45,88.39,57.2,88.39,60Z" fill="#fed151"/>
    <path id="Trazado_121017" data-name="Trazado 121017" d="M28.18,60.51c-4-5.34-5.22-11.5-5.21-18a19.59,19.59,0,0,1,1.48-7.44c1.31-3.21,3.86-5.16,7-6.47a10.33,10.33,0,0,1,6.07-.92c2.73.54,4.6,2.38,6.31,4.39a17.68,17.68,0,0,1,4,10.83A32.19,32.19,0,0,1,47.12,53a34.9,34.9,0,0,1-2.95,7c-.15.3-.39.56-.37.92a2.79,2.79,0,0,0-.53,1.16c-.45,1.38-.61,2.83-.92,4.24a8.76,8.76,0,0,1-.8-5.07,18.73,18.73,0,0,0,.33-4.08.35.35,0,0,0,.15-.42,3.24,3.24,0,0,1,.56-1.58A14.57,14.57,0,0,0,44.47,48a34.62,34.62,0,0,0-1.68-9.12,7.36,7.36,0,0,0-2.33-3.56c-1-.79-1.25-.78-2,.19A54.771,54.771,0,0,1,34.72,40a37.12,37.12,0,0,1-7.32,6.38c-.42.27-.94.6-.79,1.27.2,1,.36,1.9.63,2.83a39.751,39.751,0,0,0,2.53,5.65A2.2,2.2,0,0,0,30,58.41,8.51,8.51,0,0,1,31.37,62c.06.29.2.72-.15.9s-.54-.16-.77-.34l-1.26-1Z" fill="#fe7258"/>
    <path id="Trazado_121018" data-name="Trazado 121018" d="M53.15,92.19H40.87a1.61,1.61,0,0,1,.29-.94c.86-1.51,1.76-3,2.55-4.54a93.33,93.33,0,0,0,6.13-15.56,1.21,1.21,0,0,0-.73-1.7,15.45,15.45,0,0,1-2.56-1.6c.36-.44.8-.39,1.18-.5.66-.18.82-.35.45-1.09-.48-1-1.36-1.75-1.46-2.91l9.89,3.19a1.67,1.67,0,0,1,.38.29,16.351,16.351,0,0,1-.56,2.27A60.32,60.32,0,0,0,55,82.69a5.85,5.85,0,0,1-.09,1.5C54.27,86.85,53.72,89.52,53.15,92.19Z" fill="#22495f"/>
    <path id="Trazado_121019" data-name="Trazado 121019" d="M18.72,92.19c-.38-1.76-.7-3.53-1.16-5.26a18.54,18.54,0,0,1-.67-5.54A50.43,50.43,0,0,0,15.62,70.1a12.6,12.6,0,0,1-.53-3.45c3.12-1.13,6.28-2.13,9.45-3.1a11.36,11.36,0,0,1-1.34,2.56c-.3.54-.23.81.41,1,.41.12,1,0,1.25.57-1,.65-2,1.3-3.05,1.93-.33.2-.48.36-.32.79.63,1.72,1.16,3.48,1.82,5.2a102.739,102.739,0,0,0,7.44,15.73,1.37,1.37,0,0,1,.25.85Z" fill="#22495f"/>
    <path id="Trazado_121020" data-name="Trazado 121020" d="M31,92.19a1.37,1.37,0,0,0-.25-.85,102.74,102.74,0,0,1-7.44-15.73c-.66-1.72-1.19-3.48-1.82-5.2-.16-.43,0-.59.32-.79,1-.63,2-1.28,3.05-1.93-.29-.57-.84-.45-1.25-.57-.64-.2-.71-.47-.41-1a11.36,11.36,0,0,0,1.34-2.56l3.64-3c.34.36.68.72,1,1.09A8.17,8.17,0,0,0,29,64.43c0,3.29.92,6.43,1.6,9.61.7,3.53,1.43,7,2.1,10.58.47,2.51.86,5,1.29,7.57Z" fill="#2f5a6c"/>
    <path id="Trazado_121021" data-name="Trazado 121021" d="M46.72,63.35c.1,1.16,1,1.94,1.46,2.91.37.74.21.91-.45,1.09-.38.11-.82.06-1.18.5a15.45,15.45,0,0,0,2.56,1.6,1.21,1.21,0,0,1,.73,1.7,93.33,93.33,0,0,1-6.13,15.56c-.79,1.54-1.69,3-2.55,4.54a1.61,1.61,0,0,0-.29.94h-3a3,3,0,0,0,.15-.48c.37-3.88,1.15-7.7,1.81-11.54a48.388,48.388,0,0,0,1-6.09h0l.17-.27c.49-2.49,1.07-5,1.33-7.5.31-1.41.47-2.86.92-4.24a2.79,2.79,0,0,1,.53-1.16c.67.63,1.36,1.25,2,1.9A1.72,1.72,0,0,0,46.72,63.35Z" fill="#2f5a6c"/>
    <path id="Trazado_121022" data-name="Trazado 121022" d="M53.15,92.19c.57-2.67,1.12-5.34,1.72-8a5.85,5.85,0,0,0,.09-1.5A60.32,60.32,0,0,1,56.43,69.1,16.351,16.351,0,0,0,57,66.83c.83-.11,1,.6,1.36,1.09a19.58,19.58,0,0,1,2,5.43,140,140,0,0,1,3.19,18.18c.07.49,0,.71-.58.71C59.72,92.2,56.43,92.2,53.15,92.19Z" fill="#305a6c"/>
    <path id="Trazado_121023" data-name="Trazado 121023" d="M40.86,74.08a48.389,48.389,0,0,1-1,6.09C39.17,84,38.39,87.83,38,91.71a3,3,0,0,1-.15.48H34c-.43-2.53-.82-5.06-1.29-7.57-.67-3.53-1.4-7.05-2.1-10.58a10.14,10.14,0,0,0,1.9,1.08,8.87,8.87,0,0,0,8.35-1.04Z" fill="#01c5b9"/>
    <path id="Trazado_121024" data-name="Trazado 121024" d="M106.92,22.35V30.7c0,.69-.18.93-.89.93H89.23c-.66,0-.87-.19-.87-.86V13.88c0-.63.22-.81.82-.81h16.8c.79,0,1,.35.94,1C106.91,16.85,106.92,19.6,106.92,22.35Z" fill="#00c0ec"/>
    <path id="Trazado_121025" data-name="Trazado 121025" d="M97.56,106.73H89.31c-.69,0-.93-.18-.93-.9V89.22c0-.67.23-.85.88-.85h16.6c.64,0,.88.18.88.85v16.61c0,.72-.24.91-.93.9C103.06,106.71,100.31,106.73,97.56,106.73Z" fill="#fe543d"/>
    <path id="Trazado_121026" data-name="Trazado 121026" d="M88.39,60V51.75c0-.72.17-1,1-1h16.7c.71,0,.91.23.9.93V68.37c0,.68-.17.94-.89.94H89.3c-.67,0-.86-.23-.86-.88C88.41,65.59,88.39,62.77,88.39,60Z" fill="#feb641"/>
    <path id="Trazado_121027" data-name="Trazado 121027" d="M29.77,56.17a39.751,39.751,0,0,1-2.53-5.65c-.27-.93-.43-1.88-.63-2.83-.15-.67.37-1,.79-1.27A37.12,37.12,0,0,0,34.72,40a54.77,54.77,0,0,0,3.78-4.5c.71-1,1-1,2-.19a7.36,7.36,0,0,1,2.33,3.56A34.62,34.62,0,0,1,44.47,48a14.57,14.57,0,0,1-1.88,7.19A3.24,3.24,0,0,0,42,56.76a.38.38,0,0,0-.36.42h0c-.36-.06-.61.18-.91.34C38,59,35.25,59.35,32.37,57.8a17.149,17.149,0,0,0-2.6-1.63Z" fill="#fed151"/>
    <path id="Trazado_121028" data-name="Trazado 121028" d="M40.86,74.08a8.87,8.87,0,0,1-8.34,1A10.14,10.14,0,0,1,30.62,74c-.68-3.18-1.59-6.32-1.6-9.61A35.55,35.55,0,0,0,35.35,62c2.4-1.22,4.78-2.5,6.32-4.85h.21a18.73,18.73,0,0,1-.33,4.08,8.76,8.76,0,0,0,.8,5.07c-.26,2.53-.84,5-1.33,7.5-.05.09-.11.18-.17.27Z" fill="#fdd151"/>
    <path id="Trazado_121029" data-name="Trazado 121029" d="M41.67,57.18c-1.54,2.35-3.92,3.63-6.32,4.85A35.55,35.55,0,0,1,29,64.43a8.17,8.17,0,0,1,.17-2.83l1.26,1c.23.18.5.48.77.34s.21-.61.15-.9A8.51,8.51,0,0,0,30,58.41a2.2,2.2,0,0,1-.23-2.24,17.15,17.15,0,0,1,2.6,1.63c2.88,1.55,5.65,1.19,8.39-.28C41.06,57.36,41.31,57.12,41.67,57.18Z" fill="#feb642"/>
    <path id="Trazado_121030" data-name="Trazado 121030" d="M41.88,57.18h-.21a.38.38,0,0,1,.36-.42A.35.35,0,0,1,41.88,57.18Z" fill="#feb642"/>
    <path id="Trazado_121031" data-name="Trazado 121031" d="M40.85,74.1c.06-.09.12-.18.17-.27C41,73.92,40.91,74,40.85,74.1Z" fill="#01c5b9"/>
  </g>
</svg>
