<?xml version="1.0" encoding="utf-8"?>
<!-- Generator: Adobe Illustrator 26.0.1, SVG Export Plug-In . SVG Version: 6.00 Build 0)  -->
<svg version="1.1" id="Capa_1" xmlns="http://www.w3.org/2000/svg" xmlns:xlink="http://www.w3.org/1999/xlink" x="0px" y="0px"
	 viewBox="0 0 100 100" style="enable-background:new 0 0 100 100;" xml:space="preserve">
<style type="text/css">
	.st0{clip-path:url(#SVGID_00000080924211768406009290000007922361655135502208_);}
	.st1{fill:#32C4B4;}
	.st2{opacity:0.2;}
	.st3{fill:#012739;}
	.st4{fill:#FFBF9D;}
	.st5{fill:#FAFAFA;}
	.st6{opacity:0.3;}
	.st7{opacity:0.5;}
	.st8{fill:#FFFFFF;}
	.st9{fill:#375A64;}
	.st10{fill:#35AFEA;}
	.st11{fill:#FF9A6C;}
</style>
<g id="Capa_1_00000169534788799749174780000014186217218931353735_">
	<g>
		<defs>
			<rect id="SVGID_1_" width="100" height="100"/>
		</defs>
		<clipPath id="SVGID_00000020387925896804563440000000968818227447478435_">
			<use xlink:href="#SVGID_1_"  style="overflow:visible;"/>
		</clipPath>
		<g style="clip-path:url(#SVGID_00000020387925896804563440000000968818227447478435_);">
			<g>
				<g>
					<path class="st1" d="M59,87.3l-0.6-0.2c-2.7,1.1-4.4,3.7-5.3,6.5s-1.1,5.7-1.7,8.5s-1.5,5.7-3.5,7.8c1.3,1.1,2.7,2.1,4.1,3
						c0.5,0.3,1,0.5,1.5,0.6c0.9-0.1,1.7-0.5,2.3-1.2c3-3.2,3.4-9,3.7-13.4S60.2,91.5,59,87.3z"/>
					<g class="st2">
						<path d="M56.8,89c0,0-6.5,22.8-6.1,23.1s1.7,1.1,1.7,1.1l6-23.8L56.8,89z"/>
					</g>
					<path class="st1" d="M61.1,83.4c-0.1-0.9-0.8-1.6-1.8-1.7c-0.9-0.1-1.8,0.3-2.4,1c-0.6,0.7-0.9,1.6-1,2.4
						c-0.3,1.2,0.1,2.6,1,3.4c0.8,0.5,1.9,0.5,2.7,0c0.8-0.6,1.3-1.4,1.5-2.4c0.2-1,0.1-1.9-0.1-2.9"/>
					<path class="st3" d="M58.9,87.2c-0.2-0.2-0.3-0.5-0.3-0.8c-0.1-0.7-0.1-1.4,0-2.1c0.1-0.7,0.4-1.3,0.8-1.9
						c0.3-0.4,0.6-0.6,0.6-0.6c-0.1,0.2-0.3,0.5-0.4,0.7c-0.3,0.6-0.6,1.2-0.7,1.8c-0.1,0.7-0.1,1.3,0,2
						C58.9,86.6,58.9,86.9,58.9,87.2z"/>
					<path class="st3" d="M58,89.3c0,0-0.1,0.1-0.4,0.1c-0.3,0-0.6-0.1-0.9-0.3c-0.2-0.2-0.4-0.5-0.5-0.8c0-0.2,0-0.4,0-0.4
						s0.1,0.6,0.6,1C57.2,89.1,57.6,89.2,58,89.3z"/>
				</g>
				<polygon class="st4" points="92.2,57.8 97.1,68.4 86.2,62.1 				"/>
				<g>
					<g>
						<g>
							<polygon class="st5" points="3.9,24.3 18.6,43.7 25,42 28.2,43.8 33.7,33.6 30.4,31.9 27.9,25.6 							"/>
							<path class="st3" d="M3.9,24.3l24,1.3l0,0v0c0.8,2,1.6,4.1,2.5,6.2v0l3.3,1.8h0.1v0.1c-0.9,1.7-1.9,3.4-2.8,5.2
								s-1.8,3.3-2.7,5v0.1h-0.1L25,42l0,0l-6.4,1.7l0,0l0,0L3.9,24.3l14.8,19.3h-0.1l6.4-1.7l0,0l0,0l3.2,1.8h-0.1
								c0.9-1.6,1.8-3.3,2.7-5c1-1.8,1.9-3.5,2.8-5.2v0.1L30.4,32l0,0l0,0l-2.5-6.2l0.1,0L3.9,24.3z"/>
						</g>
						<path class="st3" d="M21.6,29.9c1.7,0.9,2.3,3,1.4,4.7c0,0,0,0,0,0.1c-0.9,1.7-3.1,2.4-4.8,1.5c-1.7-0.9-2.4-3-1.5-4.7
							c0,0,0,0,0,0C17.7,29.7,19.8,29,21.6,29.9z"/>
						<path class="st3" d="M3.9,24.3c0,0,3.6,1.7,8.1,4s8,4.1,8,4.1s-3.6-1.7-8-4S3.9,24.3,3.9,24.3z"/>
						<path class="st1" d="M119,83.7L119,83.7c-1.5,2.7-4.8,3.7-7.6,2.3L31.3,45.1l5.4-9.9l80.1,40.9c2.7,1.4,3.7,4.8,2.3,7.5
							C119,83.6,119,83.6,119,83.7z"/>
						<polygon class="st1" points="37.7,34.6 31.3,46.3 27.2,44.2 33.6,32.5 						"/>
					</g>
					<g class="st6">
						<polygon points="31.7,45.5 37.1,35.6 38.7,36.4 32.3,45.8 						"/>
					</g>
					<g class="st7">
						<polygon class="st8" points="29,41 34.8,39.5 35.8,38 29.8,39.5 						"/>
					</g>
				</g>
				<g class="st2">
					<path d="M86.6,61c2.5,3.8,2.6,8.7,0.3,12.6L86.6,61z"/>
				</g>
				<g>
					<path class="st3" d="M86.2,79.4c0,0,4.9,8.5,5.6,16.1c0.6,6.9-3.7,14.7-3.7,14.7l-7.5,28.2l2.2,48.3l-12,0.6L63.9,132L66,80.5
						L86.2,79.4z"/>
					<path class="st3" d="M60.1,84c0,0-14.6,52.5-11.5,58.4S67.9,181,67.9,181l13.5-7.4L66,137.5l11.8-25.8
						c3.5-3.2,6.2-7.3,7.8-11.8c2.1-6.9-1.6-18.2-1.6-18.2H60.5L60.1,84z"/>
					<path class="st9" d="M86.2,91.4c0,0,0,0.1,0.1,0.4s0.1,0.7,0.2,1.2c0.2,1.5,0.3,3.1,0.3,4.6c0,1.1-0.1,2.2-0.4,3.3
						c-0.1,0.6-0.3,1.2-0.6,1.8c-0.3,0.6-0.6,1.2-1,1.8c-1.7,2.7-4.2,4.8-7.2,6l0.1-0.1l-11.7,25.8v-0.1l0.7,1.6
						c5.8,13.5,11,25.7,14.7,34.5v0.1h-0.1l-9.9,5.4l-2.7,1.5l-0.7,0.4l-0.2,0.1c0.1-0.1,0.1-0.1,0.2-0.1l0.7-0.4l2.7-1.5l9.9-5.5
						v0.1l-14.8-34.5l-0.7-1.6v-0.1v-0.1c4.4-9.6,8.4-18.5,11.8-25.8l0,0h0.1c2.9-1.2,5.4-3.2,7.1-5.9c0.4-0.6,0.7-1.2,0.9-1.8
						c0.2-0.6,0.4-1.2,0.6-1.8c0.2-1.1,0.4-2.2,0.4-3.3c0-1.5,0-3.1-0.2-4.6c-0.1-0.5-0.1-0.9-0.2-1.2L86.2,91.4z"/>
					<g>
						<path class="st9" d="M66,92.2h0.3l0.8-0.1l3.1-0.2l11.2-0.7h0.1v0.1c0,3.3,0,7,0,11v0.1l0,0c-0.5,0.5-1.1,1-1.7,1.4l-5.8,4.9
							l-0.1,0.1H74l-7.5-3.7h-0.1V105c-0.1-3.8-0.2-7-0.3-9.3c0-1.1-0.1-2-0.1-2.6L66,92.2c0,0.1,0,0.2,0,0.3c0,0.2,0,0.4,0.1,0.7
							c0,0.6,0.1,1.5,0.1,2.6c0.1,2.2,0.3,5.4,0.4,9.2l-0.1-0.1l7.5,3.7h-0.2l5.8-4.9l1.7-1.4v0.1c0-3.9,0-7.7,0-11l0.1,0.1L70.4,92
							l-3.2,0.2h-0.8C66.2,92.2,66.1,92.2,66,92.2z"/>
						<path class="st9" d="M81.4,93.4c-0.2,0.1-0.4,0.1-0.6,0.1l-1.7,0.2c-1.4,0.2-3.3,0.3-5.5,0.5s-4.1,0.2-5.5,0.2
							c-0.7,0-1.3,0-1.7,0c-0.2,0-0.4,0-0.6-0.1c0.2,0,0.4-0.1,0.6-0.1l1.7-0.1c1.4-0.1,3.3-0.1,5.5-0.3s4.1-0.3,5.5-0.4l1.7-0.1
							C81,93.4,81.2,93.4,81.4,93.4z"/>
					</g>
				</g>
				<g>
					<path class="st10" d="M60.5,56.1c-1.3,3-1.8,6.2-1.5,9.4c0.2,2,1.4,7.3,1.4,7.3l-0.2,10c0,0,26.6-2,26.6-2s0.3-12.6,0-21.5
						s-4.1-18-4.1-18s-3.5-2-6.2-1.8S62.7,41,62.7,41L60.5,56.1z"/>
					<path class="st10" d="M62.3,41.3c0,0-4.4,0.6-8.6,7.1c-4.3,6.7-6.2,9.5-6.2,9.5l12.1,7.9c0,0,6.7-10.1,7.5-12.2
						S69,41.1,62.3,41.3z"/>
					<path class="st10" d="M80.1,40.6c0,0,3.8,1.5,5.4,4c1,1.6,7.4,12.8,7.4,12.8l-7.3,5.1L80.1,47V40.6z"/>
					<g class="st2">
						<path d="M58.7,67.2l1.4,0.6c0,0,6.6-8.8,6.9-13.8l-7.3,11.3l-1.2-0.7L58.7,67.2z"/>
					</g>
					<path class="st3" d="M85.8,48.4c0,0.1,0.1,0.2,0.1,0.2l0.1,0.7c0.1,0.6,0.2,1.5,0.3,2.7c0.2,2.2,0.5,5.3,0.7,8.8
						c0.2,3.4,0.2,6.5,0.3,8.8c0,1.1,0,2,0,2.7c0,0.3,0,0.5,0,0.7c0,0.1,0,0.2,0,0.2c0,0,0-0.1,0-0.2v-0.7c0-0.7,0-1.6-0.1-2.7
						c-0.1-2.2-0.1-5.4-0.3-8.8s-0.4-6.5-0.6-8.8c-0.1-1.1-0.2-2-0.2-2.7L86,48.7C85.8,48.5,85.8,48.4,85.8,48.4z"/>
				</g>
				<g>
					<g>
						<path class="st3" d="M83.9,28.3c-0.7-2.8-1.6-5.6-2.6-8.2c-1-3.2-1.8-6.7-4.4-8.9C75.1,9.8,73,9,70.8,8.7c-2-0.5-4-0.6-6-0.3
							c-1,0.2-1.9,0.6-2.9,0.8c-1.2,0.2-2.3,0.5-3.4,0.8c-2.2,1-3.3,3.5-3.6,5.9s-0.1,4.8-0.4,7.2c-0.2,1.1-0.5,2.3-0.8,3.4
							c-1,2.2-2.1,4.4-2,6.7c0.1,1.7,0.9,3.2,1.3,4.9s0.2,3.6-1.1,4.7c0.9,1,2.5,1,3.4,0c0.4-0.4,0.7-1,0.7-1.6
							c0.2,0.2,0.4,0.4,0.7,0.6c0.7,0.2,1.5,0.3,2.2,0.2c2.1-0.1,4.2-0.6,6.2-1.5l10.4-0.9c2.7,1.1,5.9-0.4,7.4-2.9
							C84.2,34.1,84.6,31.1,83.9,28.3z"/>
						<path class="st3" d="M62.9,10.6c-1,0.2-2.1,0.1-3,0.3c-1.4,0.5-2.5,1.6-3,3c-0.5,1.4-0.8,2.9-0.8,4.4c-0.1,1.3-0.2,2.6-0.3,4
							c0,0.9-0.1,1.7-0.3,2.5c-0.5,1.5-0.8,3-1,4.5c-0.2,3.3,0.9,6.5,3,9c0.9,1,5.2,1.1,6.5,1.3c0.6-0.5,2.1-0.5,2.7-1
							c0.1-0.1-4.3-3.5-4.3-3.6c0.1-0.2,0-0.4-0.1-0.6c-2.6-7.8-2.1-16.2,1.3-23.6"/>
						<path class="st4" d="M74.9,41l1.6-24.4l0,0c0-1.1-0.8-2-1.8-2.1l-10.8-2.8c-3.5-0.4-5.8,3.9-6,7.4c-0.4,3.8-0.4,7.7,0,11.5
							c0.9,5.8,5.4,6.6,5.4,6.6l0.4,3.9c0,0,2.8-0.5,4.9-0.7C73.1,39.9,74.9,41,74.9,41z"/>
						<path class="st3" d="M59.1,23.5c0,0.4,0.3,0.7,0.7,0.7c0,0,0,0,0,0c0.4,0,0.7-0.3,0.8-0.6c0,0,0,0,0,0c0-0.4-0.3-0.7-0.7-0.7
							c0,0,0,0,0,0C59.5,22.8,59.2,23.1,59.1,23.5C59.1,23.5,59.1,23.5,59.1,23.5z"/>
						<path class="st3" d="M59.1,21.8c0.1,0.1,0.7-0.3,1.5-0.3s1.4,0.4,1.5,0.3s0-0.2-0.3-0.4C61.4,21.1,61,21,60.6,21
							c-0.4,0-0.8,0.1-1.2,0.4C59.2,21.5,59.1,21.7,59.1,21.8z"/>
						<path class="st3" d="M66.5,23.6c0,0.4,0.3,0.7,0.7,0.7c0,0,0,0,0,0c0.4,0,0.7-0.3,0.8-0.6c0,0,0,0,0,0c0-0.4-0.3-0.7-0.7-0.8
							C66.9,22.9,66.5,23.1,66.5,23.6C66.5,23.5,66.5,23.6,66.5,23.6z"/>
						<path class="st3" d="M67,21.8c0.1,0.1,0.7-0.3,1.5-0.3s1.4,0.4,1.5,0.3s0-0.2-0.3-0.4c-0.3-0.2-0.8-0.4-1.2-0.4
							c-0.4,0-0.8,0.1-1.2,0.4C67,21.5,67,21.7,67,21.8z"/>
						<path class="st3" d="M64.1,27.7c-0.4-0.1-0.9-0.2-1.3-0.2c-0.2,0-0.4-0.1-0.4-0.2c0-0.2,0-0.4,0.1-0.6c0.2-0.5,0.4-1,0.6-1.5
							c0.6-1.3,1-2.7,1.4-4.1c-0.7,1.3-1.2,2.6-1.7,4c-0.2,0.5-0.4,1.1-0.6,1.6c-0.1,0.2-0.2,0.5-0.1,0.8c0.1,0.1,0.2,0.3,0.3,0.3
							c0.1,0,0.2,0,0.3,0C63.2,27.7,63.6,27.7,64.1,27.7z"/>
						<path class="st11" d="M63.2,37.2c2.8,0.1,5.6-0.6,8.1-2.1c-1.6,2.8-4.7,4.3-7.9,3.9L63.2,37.2z"/>
						<path class="st11" d="M66.8,29.4c-0.2-0.3-0.6-0.5-1-0.6c-0.6-0.1-1.1,0.2-1.5,0.6l0,0c-0.1,0.1-0.1,0.2,0,0.4
							c0.1,0.1,0.2,0.2,0.3,0.3c0.3,0.3,0.7,0.6,1.2,0.7c0.4,0.1,0.9,0,1.2-0.3C67.1,30.1,67.1,29.7,66.8,29.4z"/>
						<path class="st3" d="M66.4,28.3c-0.1,0-0.1,0.9-0.9,1.5s-1.7,0.5-1.7,0.6s0.2,0.2,0.6,0.2c0.5,0,1-0.2,1.4-0.5
							c0.4-0.3,0.6-0.8,0.7-1.2C66.6,28.5,66.5,28.2,66.4,28.3z"/>
						<path class="st3" d="M66.5,18.9c0.1,0.2,0.9,0.1,1.8,0.2s1.7,0.4,1.8,0.2s-0.1-0.3-0.4-0.5c-0.4-0.3-0.9-0.4-1.3-0.5
							c-0.5-0.1-1,0-1.4,0.2C66.7,18.6,66.5,18.8,66.5,18.9z"/>
						<path class="st3" d="M59.1,19.2c0.1,0.2,0.7,0,1.3,0s1.2,0.1,1.4-0.1s0-0.3-0.3-0.5c-0.3-0.2-0.7-0.3-1.1-0.3
							c-0.4,0-0.8,0.1-1.1,0.4C59.1,18.9,59.1,19.1,59.1,19.2z"/>
						<path class="st9" d="M54.2,42.2c-0.1-0.1-0.1-0.2-0.1-0.3c-0.1-0.2-0.2-0.6-0.2-1c-0.3-1.2-0.4-2.5-0.4-3.8
							c0-1.9,0.3-3.8,0.8-5.6c0.7-2.2,1.3-4.4,1.7-6.7c0.4-2.4,0.3-4.8,0.6-6.9c0.2-1.9,0.9-3.7,2-5.3c0.8-1,1.9-1.8,3.1-2.1
							c0.4-0.1,0.9-0.2,1.4-0.1c-0.5,0-0.9,0.1-1.4,0.2c-1.2,0.4-2.2,1.2-3,2.2c-1.1,1.5-1.7,3.3-1.8,5.1c-0.3,2.1-0.2,4.4-0.5,6.9
							c-0.5,2.3-1.1,4.5-1.8,6.7c-0.5,1.8-0.8,3.6-0.9,5.5c0,1.3,0.1,2.5,0.3,3.8c0.1,0.4,0.2,0.8,0.2,1
							C54.2,42,54.2,42.1,54.2,42.2z"/>
					</g>
					<path class="st3" d="M62.2,11.4c0.1-0.3,0.3-0.6,0.6-0.8c1.8-1.3,4.1-1.8,6.3-1.4c2.2,0.4,4.2,1.3,6,2.6c1.7,1,3,2.5,3.9,4.2
						c0.5,1.3,0.8,2.6,0.9,4c0.4,3.3,1.3,6.7,1.3,10.1c0.1,1.7,0.1,3.4,0,5.2c-0.4,2-1.7,3.6-3.6,4.2l-3.8,0.4c0,0,2.1-7.2,1.9-9.8
						c-0.1-2.3-0.1-4.8-0.4-7c0-0.2-0.1-0.3-0.1-0.5c-0.1-0.2-0.3-0.3-0.5-0.4l-2.4-1.2c-0.8-0.4-1.5-0.8-2.3-1.3
						c-0.8-0.5-1.5-1-2.3-1.6c-1-0.9-2-1.6-3-2.5c-0.7-0.7-1.4-1.4-1.9-2.2c-0.5-0.7-0.7-1.6-0.5-2.4"/>
					<path class="st4" d="M75.1,24.5c0-0.9,0.8-1.7,1.7-1.6c0.3,0,0.5,0.1,0.7,0.2c0.8,0.5,1.2,1.4,1,2.3c-0.1,3.5-3.6,2.6-3.6,2.5
						S75,26,75.1,24.5z"/>
					<path class="st11" d="M76,26.7c0,0,0.1,0,0.2,0.1c0.1,0.1,0.3,0.1,0.4,0c0.5-0.3,0.8-0.8,0.8-1.3c0-0.3,0-0.6-0.1-0.9
						c-0.1-0.2-0.2-0.4-0.4-0.5c-0.1,0-0.3,0-0.4,0.2c0,0.1,0,0.2,0,0.2s-0.1-0.1,0-0.2c0-0.1,0.1-0.2,0.1-0.2
						c0.1-0.1,0.2-0.1,0.3-0.1c0.3,0.1,0.5,0.3,0.6,0.6c0.1,0.3,0.2,0.7,0.2,1c0,0.6-0.4,1.2-1,1.5c-0.2,0-0.4,0-0.6-0.1
						C76,26.8,76,26.7,76,26.7z"/>
					<path class="st9" d="M80.8,19c-0.7-0.6-1.6-1.1-2.4-1.5c-0.9-0.4-1.9-0.8-2.9-1c-1.1-0.3-2.4-0.6-3.7-1
						c-2.2-0.7-4.3-1.8-6.1-3.2c-0.6-0.4-1.1-0.8-1.6-1.3c-0.2-0.2-0.4-0.4-0.5-0.6c0.2,0.1,0.4,0.3,0.6,0.5
						c0.4,0.3,0.9,0.8,1.6,1.3c1.8,1.4,3.9,2.4,6.1,3.1c1.3,0.4,2.5,0.7,3.7,1c1,0.3,2,0.6,2.9,1c0.6,0.3,1.2,0.7,1.8,1.1
						c0.2,0.1,0.3,0.2,0.4,0.4C80.8,19,80.9,19,80.8,19z"/>
					<path class="st3" d="M79.4,14.5c1.3,4.3,3.5,8.3,4.9,11.4c0.8,1.5,1.3,3.1,1.8,4.7c0.3,1.7-0.4,3.4-0.8,5.1s-0.3,3.8,1.1,4.8
						c-1.9,1.5-4.2,2.3-6.6,2.4c-0.4,0-0.9-0.1-1.3-0.3c-0.4-0.3-0.5-0.8-0.2-1.1c0,0,0,0,0,0c-1.9,2-5,2.3-7.3,0.8
						c-0.2-1.9-0.3-3.9,0.8-5.5c0.8-1.3,2.3-2.1,2.9-3.5c0.3-0.8-0.1-1.9,0-2.8c0.1-0.8,0.5-1.6,1-2.2l0,0c2.2,0.2,4.2-1.2,4.7-3.3
						l0.1-0.3L79.4,14.5z"/>
					<path class="st9" d="M78.5,39.5c0-0.1,0.1-0.2,0.2-0.3l0.6-1c0.7-1.2,1.2-2.5,1.7-3.8c0.7-1.9,1-4,0.9-6
						c-0.1-2.5-1.1-4.9-2.8-6.8c-1.8-1.7-4-3.1-6.3-4c-1.9-0.8-3.8-1.7-5.6-2.8c-1.2-0.7-2.3-1.6-3.2-2.7c-0.2-0.3-0.5-0.6-0.7-0.9
						c-0.1-0.1-0.1-0.2-0.2-0.4c0,0,0.3,0.5,1,1.2c0.9,1,2,1.9,3.2,2.6c1.8,1,3.7,1.9,5.6,2.7c2.4,0.9,4.6,2.3,6.4,4.1
						c1.8,1.9,2.8,4.4,2.9,7c0.1,2.1-0.3,4.2-1,6.1c-0.5,1.3-1.1,2.6-1.8,3.8c-0.2,0.4-0.5,0.8-0.6,1C78.7,39.4,78.6,39.5,78.5,39.5
						z"/>
				</g>
				<path class="st3" d="M67.7,52.9c0,0,0.3-0.6,0.6-1.7c0.7-2.8-0.2-5.8-2.4-7.8c-0.4-0.4-0.9-0.8-1.4-1.1c0.2,0,0.3,0.1,0.4,0.2
					c0.4,0.2,0.7,0.5,1.1,0.8c2.3,1.9,3.2,5,2.4,7.9c-0.1,0.4-0.3,0.8-0.4,1.2C67.8,52.7,67.7,52.9,67.7,52.9z"/>
				<g>
					<path class="st1" d="M58.4,87.1l11.4,0.2c0.6,0,1,0.4,1,1c-0.2,5.7-1.3,33.8,1.1,34.2c2.6,0.5,5.3-4.5,9.2-2.7
						s8.3,3.7,10.5,1.5s3.8-27.1-4.7-40.7l-27,1.6L58.4,87.1z"/>
					<path class="st3" d="M72.5,84c-0.2,0-0.4,0-0.6,0h-1.5c-1.3,0-3.1,0-5,0.1s-3.7,0.4-5,0.6l-1.5,0.2c-0.2,0-0.4,0.1-0.6,0.1
						c0.2-0.1,0.4-0.1,0.5-0.2c0.3-0.1,0.9-0.2,1.5-0.3c1.7-0.3,3.3-0.5,5-0.6c1.7-0.1,3.3-0.1,5-0.1c0.7,0,1.2,0.1,1.5,0.1
						C72.1,83.9,72.3,84,72.5,84z"/>
					<path class="st3" d="M78.2,87.2c-0.3,0-0.5-0.1-0.8-0.1l-2.1-0.4c-1.8-0.3-4.3-0.7-7.1-0.9s-5.3-0.2-7.2-0.2h-2.2
						c-0.3,0-0.5,0-0.8,0c0.3-0.1,0.5-0.1,0.8-0.1c0.5,0,1.3-0.1,2.2-0.1c2.4-0.1,4.8,0,7.2,0.2c2.4,0.2,4.8,0.5,7.1,1
						c0.9,0.2,1.6,0.3,2.1,0.5C77.7,87,78,87.1,78.2,87.2z"/>
					<path class="st3" d="M82.7,97.2c0,0.2,0,0.5,0,0.7c0,0.5,0,1.2-0.1,2c-0.1,1.7-0.1,4,0,6.6s0.3,4.9,0.4,6.6l0.2,2
						c0,0.2,0,0.5,0,0.7c-0.1-0.2-0.1-0.5-0.2-0.7c-0.1-0.5-0.2-1.1-0.3-2c-0.2-1.7-0.4-4-0.5-6.6s0-4.9,0.1-6.6
						c0.1-0.8,0.1-1.5,0.2-2C82.6,97.7,82.7,97.4,82.7,97.2z"/>
					<path class="st3" d="M86.4,114.4c-0.1,0-0.5-5-1-11.2s-0.9-11.3-0.8-11.3s0.5,5,1,11.2S86.5,114.4,86.4,114.4z"/>
				</g>
				<g>
					<path class="st4" d="M48.9,58.7l-1,1.3l-0.4-6.7l-6.7-2.3c0,0-1.6,16.8-1.3,19.4c0.3,2.8,0.3,3,1,4.3c0.9,1.7,4.1,2.8,6,2.3
						s3.8-3,5.3-4.5c2.7-2.7,6.8-7.9,6.8-7.9L48.9,58.7z"/>
					<path class="st11" d="M48.9,58.7c-0.2,0.4-0.5,0.8-0.7,1.1c-0.5,0.7-1.1,1.6-1.8,2.7s-1.2,2.1-1.6,2.8
						c-0.2,0.4-0.4,0.8-0.7,1.2c0.1-0.4,0.3-0.8,0.5-1.2c0.5-1,1-1.9,1.6-2.8c0.6-0.9,1.2-1.8,1.8-2.7C48.3,59.4,48.5,59,48.9,58.7z
						"/>
					<path class="st4" d="M40.8,52l-2.6-1.5c-1.1-0.7-1.9-1.8-2.3-3l0,0c0,0,7.6,3.4,8.2,3.7s3.5,1.5,3.4,2.7L40.8,52z"/>
				</g>
				<g class="st2">
					<path d="M68.2,83.5c2.8-0.1,5.7,0,8.5,0.1c0.6,0,1.3,0.3,1.3,0.8c0,0.3-0.3,0.6-0.6,0.6c-0.3,0.1-0.6,0.1-0.9,0l-7.5-0.8
						c-1.5-0.2-3.1-0.3-4.6-0.2c-1.9,0.2-3.7,0.5-5.5,1l-0.1-0.6C58.7,84.5,66.6,83.5,68.2,83.5z"/>
				</g>
			</g>
		</g>
	</g>
</g>
</svg>
