<svg xmlns="http://www.w3.org/2000/svg" width="277.5" height="261.564" viewBox="0 0 277.5 261.564">
  <g id="Capa_1" data-name="Capa 1" transform="translate(-11.5 -21.62)">
    <g id="Grupo_80622" data-name="Grupo 80622">
      <g id="Grupo_80621" data-name="Grupo 80621">
        <g id="Grupo_80620" data-name="Grupo 80620">
          <rect id="Rectángulo_34793" data-name="Rectángulo 34793" width="10.07" height="23.2" transform="translate(28.17 236.76)" fill="#ececec"/>
          <rect id="Rectángulo_34794" data-name="Rectángulo 34794" width="10.07" height="23.2" transform="translate(62.34 236.76)" fill="#ececec"/>
          <rect id="Rectángulo_34795" data-name="Rectángulo 34795" width="10.07" height="44.32" transform="translate(45.26 215.65)" fill="#f5f5f5"/>
          <rect id="Rectángulo_34796" data-name="Rectángulo 34796" width="10.07" height="44.32" transform="translate(79.42 215.65)" fill="#f5f5f5"/>
          <rect id="Rectángulo_34797" data-name="Rectángulo 34797" width="10.07" height="43.05" transform="translate(96.5 216.91)" fill="#ececec"/>
          <rect id="Rectángulo_34798" data-name="Rectángulo 34798" width="10.07" height="43.05" transform="translate(130.66 216.91)" fill="#ececec"/>
          <rect id="Rectángulo_34799" data-name="Rectángulo 34799" width="10.07" height="43.05" transform="translate(164.82 216.91)" fill="#ececec"/>
          <rect id="Rectángulo_34800" data-name="Rectángulo 34800" width="10.07" height="65.65" transform="translate(113.58 194.32)" fill="#f5f5f5"/>
          <rect id="Rectángulo_34801" data-name="Rectángulo 34801" width="10.07" height="59.22" transform="translate(147.74 200.74)" fill="#f5f5f5"/>
          <rect id="Rectángulo_34802" data-name="Rectángulo 34802" width="10.07" height="43.05" transform="translate(215.28 216.91)" fill="#ececec"/>
          <rect id="Rectángulo_34803" data-name="Rectángulo 34803" width="10.07" height="34.79" transform="translate(198.2 225.18)" fill="#f5f5f5"/>
          <rect id="Rectángulo_34804" data-name="Rectángulo 34804" width="10.07" height="66.03" transform="translate(251 193.94)" fill="#ececec"/>
          <rect id="Rectángulo_34805" data-name="Rectángulo 34805" width="10.07" height="34.79" transform="translate(233.92 225.18)" fill="#f5f5f5"/>
          <rect id="Rectángulo_34806" data-name="Rectángulo 34806" width="10.07" height="34.79" transform="translate(268.1 225.18)" fill="#f5f5f5"/>
          <rect id="Rectángulo_34807" data-name="Rectángulo 34807" width="10.07" height="50.15" transform="translate(181.9 209.82)" fill="#ececec"/>
          <path id="Trazado_120719" data-name="Trazado 120719" d="M120.37,194.32a2.59,2.59,0,1,1-2.59-2.59A2.59,2.59,0,0,1,120.37,194.32Z" fill="#e1e1e1"/>
          <path id="Trazado_120720" data-name="Trazado 120720" d="M117.78,199a4.7,4.7,0,1,1,4.7-4.7,4.7,4.7,0,0,1-4.7,4.7Zm0-9a4.32,4.32,0,1,0,4.33,4.32A4.32,4.32,0,0,0,117.78,190Z" fill="#e1e1e1"/>
          <path id="Trazado_120721" data-name="Trazado 120721" d="M119.85,187.72l-.13-5.1,1.27.02-2.38-2.9-2.38,2.93,1.32.01.13,5.03Z" fill="#ececec"/>
          <path id="Trazado_120722" data-name="Trazado 120722" d="M36.07,226.16a2.58,2.58,0,1,1-.752-1.831,2.59,2.59,0,0,1,.752,1.831Z" fill="#e1e1e1"/>
          <path id="Trazado_120723" data-name="Trazado 120723" d="M33.49,231a4.7,4.7,0,1,1,4.7-4.7,4.7,4.7,0,0,1-4.7,4.7Zm0-9a1.795,1.795,0,1,0,0-.06Z" fill="#e1e1e1"/>
          <path id="Trazado_120724" data-name="Trazado 120724" d="M31.92,210.11l.14,5.3-1.32-.03,2.47,3.03,2.47-3.05-1.37-.01-.14-5.23Z" fill="#ececec"/>
          <path id="Trazado_120725" data-name="Trazado 120725" d="M168.94,199.02l.14,5.3-1.33-.02,2.47,3.02,2.48-3.05h-1.37l-.14-5.23Z" fill="#ececec"/>
        </g>
        <path id="Trazado_120726" data-name="Trazado 120726" d="M200.12,246,169.8,217.53c-19.21-9.27-48.88-22.94-52.33-22.75C113.59,195,40.06,224,12.05,235.16l-.55-1.38c4.12-1.64,101-40.2,105.88-40.49h.1c5.39,0,48.17,20.59,53.07,23l.18.13,29.64,27.8c5.62-3,37.84-20,38.39-20.22.19-.08.7-.29,45-.29v1.49c-17,0-42.55,0-44.49.21-1.69.85-25.87,13.6-38.7,20.37Z" fill="#e1e1e1"/>
      </g>
      <path id="Trazado_120727" data-name="Trazado 120727" d="M172.81,216.28a2.59,2.59,0,1,1-2.59-2.59,2.59,2.59,0,0,1,2.59,2.59Z" fill="#e1e1e1"/>
      <path id="Trazado_120728" data-name="Trazado 120728" d="M170.22,221.08a4.71,4.71,0,1,1,4.71-4.7,4.71,4.71,0,0,1-4.71,4.7Zm0-9a1.8,1.8,0,1,0,0-.03Z" fill="#e1e1e1"/>
      <path id="Trazado_120729" data-name="Trazado 120729" d="M241.65,224a2.59,2.59,0,1,1-2.59-2.59,2.59,2.59,0,0,1,2.59,2.59Z" fill="#e1e1e1"/>
      <path id="Trazado_120730" data-name="Trazado 120730" d="M239.06,228.8a4.71,4.71,0,1,1,4.71-4.7,4.71,4.71,0,0,1-4.71,4.7Zm0-9a1.8,1.8,0,1,0,0-.03Z" fill="#e1e1e1"/>
      <path id="Trazado_120731" data-name="Trazado 120731" d="M237.67,208.62l.14,5.29-1.33-.02,2.47,3.02,2.48-3.04-1.37-.01-.14-5.23Z" fill="#ececec"/>
    </g>
    <g id="Grupo_80623" data-name="Grupo 80623">
      <path id="Trazado_120732" data-name="Trazado 120732" d="M242.27,159.78a22.66,22.66,0,1,1,23,22.4,22.66,22.66,0,0,1-23-22.4Zm33.49-.54A10.84,10.84,0,1,0,265.1,170.3a10.84,10.84,0,0,0,10.66-11.06Z" fill="#f5f5f5"/>
      <path id="Trazado_120733" data-name="Trazado 120733" d="M242.27,159.78a22.74,22.74,0,0,1,22.29-23.12l.19,11.87a10.89,10.89,0,0,0,.35,21.77l.19,11.88a22.74,22.74,0,0,1-23.02-22.4Z" fill="#e1e1e1"/>
      <path id="Trazado_120734" data-name="Trazado 120734" d="M262.53,134.83A25.9,25.9,0,0,1,289,160.62l-13.84.22c-.11-7-5.45-11.44-12.44-11.33Z" fill="#ececec"/>
    </g>
    <g id="Grupo_80624" data-name="Grupo 80624">
      <rect id="Rectángulo_34808" data-name="Rectángulo 34808" width="10.21" height="31.88" transform="translate(66.37 26.93)" fill="#ececec"/>
      <rect id="Rectángulo_34809" data-name="Rectángulo 34809" width="10.21" height="24.59" transform="translate(81.61 34.21)" fill="#ececec"/>
      <rect id="Rectángulo_34810" data-name="Rectángulo 34810" width="10.21" height="14.61" transform="translate(95.72 44.2)" fill="#ececec"/>
    </g>
    <g id="Grupo_80625" data-name="Grupo 80625">
      <path id="Trazado_120735" data-name="Trazado 120735" d="M193.63,46.24V28.37a17.87,17.87,0,1,1-17.87,18.28Z" fill="#ececec"/>
      <path id="Trazado_120736" data-name="Trazado 120736" d="M190.3,39.49l-17.86.4A18.85,18.85,0,0,1,177.5,27,18.4,18.4,0,0,1,190,21.62Z" fill="#f5f5f5"/>
    </g>
    <g id="Grupo_80626" data-name="Grupo 80626">
      <path id="Trazado_120737" data-name="Trazado 120737" d="M33.12,145.49l12.51-9.92A16,16,0,1,1,23.21,133a16.331,16.331,0,0,1,3.57-2.14Z" fill="#f5f5f5"/>
      <path id="Trazado_120738" data-name="Trazado 120738" d="M29.73,129.22l4.4,11.57,9.31-7.91S38.51,127.8,29.73,129.22Z" fill="#e1e1e1"/>
    </g>
    <path id="Trazado_120739" data-name="Trazado 120739" d="M272.42,274.57c0,.08-55,.15-122.77.15s-122.77-.07-122.77-.15,55-.15,122.77-.15S272.42,274.48,272.42,274.57Z" fill="#0b3360"/>
    <g id="Grupo_80630" data-name="Grupo 80630">
      <g id="Grupo_80627" data-name="Grupo 80627">
        <path id="Trazado_120740" data-name="Trazado 120740" d="M43.25,65.9A11,11,0,1,0,32.81,81.37l1.11,2.55,8.88-3.87s-.58-1.46-1.11-2.75A11.06,11.06,0,0,0,43.25,65.9Z" fill="#71d9e7"/>
        <path id="Trazado_120741" data-name="Trazado 120741" d="M39.57,81.41a1.11,1.11,0,0,1,0-.13l-.12-.39c-.1-.33-.25-.83-.43-1.48a24.076,24.076,0,0,1-.6-2.41,16.88,16.88,0,0,1-.31-3.21,11.32,11.32,0,0,1,.17-1.88A2.12,2.12,0,0,1,38.7,71a1.12,1.12,0,0,1,1-.38.77.77,0,0,1,.68.79,1.59,1.59,0,0,1-.49,1,3,3,0,0,1-2.17.77,3.05,3.05,0,0,1-2.17-1.07A2.33,2.33,0,0,1,35,71a1,1,0,0,1,.62-1.1.71.71,0,0,1,.67.13,1,1,0,0,1,.35.59,2.18,2.18,0,0,1-.27,1.32,3.33,3.33,0,0,1-2.06,1.71,2.9,2.9,0,0,1-2.6-.6,1.7,1.7,0,0,1-.6-1.2.85.85,0,0,1,.25-.64A.83.83,0,0,1,32,71a1.15,1.15,0,0,1,.62.26,1.89,1.89,0,0,1,.41.52A3.11,3.11,0,0,1,33.35,73a3.29,3.29,0,0,1-2.66,3.52,1.72,1.72,0,0,1-1.12-.08.85.85,0,0,1-.48-1,.72.72,0,0,1,.36-.42,1,1,0,0,1,.52-.12,1.64,1.64,0,0,1,.92.42c.5.44.94.89,1.37,1.31,1.7,1.68,3,3.11,3.9,4.11l1,1.16.26.3.09.11a.72.72,0,0,1-.1-.1L37.15,82l-1-1.15c-.91-1-2.23-2.4-3.93-4.08-.43-.41-.88-.86-1.36-1.29a1.51,1.51,0,0,0-.86-.39.66.66,0,0,0-.35,1.27,1.63,1.63,0,0,0,1.05.08,3.28,3.28,0,0,0,1.9-1.17A3.17,3.17,0,0,0,33.22,73a3,3,0,0,0-.34-1.17,1.18,1.18,0,0,0-.92-.7.68.68,0,0,0-.55.17.73.73,0,0,0-.21.55,1.62,1.62,0,0,0,.56,1.1,2.79,2.79,0,0,0,2.48.57,3.18,3.18,0,0,0,2-1.65,2,2,0,0,0,.26-1.22.89.89,0,0,0-.3-.51.59.59,0,0,0-.55-.12.75.75,0,0,0-.43.39.89.89,0,0,0-.09.58,2.13,2.13,0,0,0,.53,1.07,2.94,2.94,0,0,0,4.16.3,1.47,1.47,0,0,0,.45-.94.64.64,0,0,0-.58-.68,1,1,0,0,0-.87.35,1.78,1.78,0,0,0-.4.87,10,10,0,0,0-.18,1.86A16.17,16.17,0,0,0,38.5,77c.17.93.37,1.73.53,2.38s.31,1.14.4,1.49l.11.38Z" fill="#0b3360"/>
        <path id="Trazado_120742" data-name="Trazado 120742" d="M42.83,82l-7.62,3.32a.62.62,0,0,1-.82-.32h0a.63.63,0,0,1,.32-.82l7.62-3.33a.62.62,0,0,1,.82.33h0a.62.62,0,0,1-.32.82Z" fill="#0b3360"/>
        <path id="Trazado_120743" data-name="Trazado 120743" d="M43.05,82.49l-7.62,3.32a.63.63,0,0,0,.5,1.15l.84-.37,2,1.63a.81.81,0,0,0,.82.11l2.72-1.19a.8.8,0,0,0,.48-.69L43,83.88l.57-.25a.63.63,0,0,0,.32-.82.62.62,0,0,0-.84-.32Z" fill="#0b3360"/>
      </g>
      <g id="Grupo_80628" data-name="Grupo 80628" opacity="0.2">
        <path id="Trazado_120744" data-name="Trazado 120744" d="M23.8,66.71a8.42,8.42,0,0,1,1.44-2.23,5.5,5.5,0,0,1,1.37-1.13c.36-.21.6-.27.65-.2A22,22,0,0,1,26,65.07a9.06,9.06,0,0,0-.22,9.83c.68,1.17,1.3,1.81,1.16,2s-.28,0-.64-.22A6.09,6.09,0,0,1,25,75.45a8.15,8.15,0,0,1-1.33-2.3,8.49,8.49,0,0,1-.57-3.23" fill="#fff"/>
      </g>
      <g id="Grupo_80629" data-name="Grupo 80629" opacity="0.2">
        <path id="Trazado_120745" data-name="Trazado 120745" d="M29.88,62.53c-.64.27-1.28.34-1.5,0a.58.58,0,0,1,.11-.63,2.07,2.07,0,0,1,.86-.65,2.12,2.12,0,0,1,1.06-.17.515.515,0,0,1,.53.35" fill="#fff"/>
      </g>
      <path id="Trazado_120746" data-name="Trazado 120746" d="M42.76,86.7a4.156,4.156,0,0,0-.6.06,5.11,5.11,0,0,0-1.36.4,4.91,4.91,0,0,0-1.18.8c-.27.25-.41.43-.43.42a1.89,1.89,0,0,1,.37-.49,4,4,0,0,1,2.59-1.22,1.44,1.44,0,0,1,.61.03Z" fill="#375a64"/>
      <path id="Trazado_120747" data-name="Trazado 120747" d="M43,83.9s-1.35.66-3,1.4a32.983,32.983,0,0,1-3.1,1.28c-.01-.04,1.35-.66,3-1.4S43,83.86,43,83.9Z" fill="#375a64"/>
      <path id="Trazado_120748" data-name="Trazado 120748" d="M42.93,85a5.161,5.161,0,0,1-.72.4c-.45.23-1.08.54-1.79.86s-1.35.59-1.82.78a4,4,0,0,1-.78.27,6.88,6.88,0,0,1,.74-.36l1.8-.81,1.81-.82a4.8,4.8,0,0,1,.76-.32Z" fill="#375a64"/>
    </g>
    <g id="Grupo_80634" data-name="Grupo 80634">
      <g id="Grupo_80633" data-name="Grupo 80633">
        <g id="Grupo_80631" data-name="Grupo 80631">
          <rect id="Rectángulo_34811" data-name="Rectángulo 34811" width="50.98" height="33.62" rx="3.1" transform="translate(125.65 150.38)" fill="#fff"/>
          <path id="Trazado_120749" data-name="Trazado 120749" d="M173.52,184l.42-.05a2.85,2.85,0,0,0,1.15-.41,3.12,3.12,0,0,0,1.27-1.5,7.9,7.9,0,0,0,.21-2.71V154.42a8.631,8.631,0,0,0-.06-1.53,3,3,0,0,0-1.95-2.23,4.42,4.42,0,0,0-1.59-.16H128.75a3.08,3.08,0,0,0-1.87.66,3,3,0,0,0-1,1.68,4.81,4.81,0,0,0-.07,1v26.64a3.3,3.3,0,0,0,.32,1.71,2.92,2.92,0,0,0,1.16,1.25,3.06,3.06,0,0,0,1.64.41h-.04a3.27,3.27,0,0,1-3-1.78,3.65,3.65,0,0,1-.34-1.83c0-4.91,0-10,0-15.38V153.87a5.6,5.6,0,0,1,.07-1.07,3.3,3.3,0,0,1,1.13-1.83,3.22,3.22,0,0,1,2-.72h44.16a4.47,4.47,0,0,1,1.66.18,3.25,3.25,0,0,1,2.1,2.39,9.439,9.439,0,0,1,.06,1.58v26.44a3.23,3.23,0,0,1-.24,1.27,3.19,3.19,0,0,1-1.31,1.52,2.91,2.91,0,0,1-1.18.39,2.639,2.639,0,0,1-.48-.02Z" fill="#0b3360"/>
        </g>
        <g id="Grupo_80632" data-name="Grupo 80632">
          <rect id="Rectángulo_34812" data-name="Rectángulo 34812" width="1.96" height="7.78" transform="translate(148.49 169.9)" fill="#71d9e7"/>
          <rect id="Rectángulo_34813" data-name="Rectángulo 34813" width="1.96" height="8.91" transform="translate(132.16 168.78)" fill="#71d9e7"/>
          <rect id="Rectángulo_34814" data-name="Rectángulo 34814" width="1.96" height="10.77" transform="translate(136.24 166.92)" fill="#71d9e7"/>
          <rect id="Rectángulo_34815" data-name="Rectángulo 34815" width="1.96" height="10.18" transform="translate(140.32 167.51)" fill="#71d9e7"/>
          <rect id="Rectángulo_34816" data-name="Rectángulo 34816" width="1.96" height="13.62" transform="translate(144.41 164.07)" fill="#71d9e7"/>
          <rect id="Rectángulo_34817" data-name="Rectángulo 34817" width="1.96" height="13.56" transform="translate(152.58 164.13)" fill="#71d9e7"/>
          <rect id="Rectángulo_34818" data-name="Rectángulo 34818" width="1.96" height="9.1" transform="translate(156.66 168.58)" fill="#71d9e7"/>
          <rect id="Rectángulo_34819" data-name="Rectángulo 34819" width="1.96" height="12.96" transform="translate(160.75 164.73)" fill="#71d9e7"/>
          <rect id="Rectángulo_34820" data-name="Rectángulo 34820" width="1.96" height="15.88" transform="translate(164.83 161.81)" fill="#71d9e7"/>
          <rect id="Rectángulo_34821" data-name="Rectángulo 34821" width="1.96" height="13.03" transform="translate(168.92 164.66)" fill="#71d9e7"/>
        </g>
      </g>
      <path id="Trazado_120750" data-name="Trazado 120750" d="M146.66,157c0,.08-3.47.15-7.76.15s-7.75-.07-7.75-.15,3.47-.15,7.75-.15S146.66,156.9,146.66,157Z" fill="#0b3360"/>
    </g>
    <g id="Grupo_80639" data-name="Grupo 80639">
      <path id="Trazado_120751" data-name="Trazado 120751" d="M255.33,52.43h24.48a2.24,2.24,0,0,1,2.24,2.24V79.15a2.24,2.24,0,0,1-2.24,2.24H262.87L256.06,87V81.39h-.73a2.24,2.24,0,0,1-2.24-2.24V54.67A2.24,2.24,0,0,1,255.33,52.43Z" fill="#fff"/>
      <g id="Grupo_80636" data-name="Grupo 80636">
        <path id="Trazado_120752" data-name="Trazado 120752" d="M253.09,52.43h29v4.5a4.65,4.65,0,0,1-4.65,4.65H257.77a4.68,4.68,0,0,1-4.68-4.68Z" transform="translate(535.14 114) rotate(180)" fill="#71d9e7"/>
        <g id="Grupo_80635" data-name="Grupo 80635">
          <path id="Trazado_120753" data-name="Trazado 120753" d="M265.65,65.28v9.85h-2.28v-8h-2V65.28Z" fill="#0b3360"/>
          <path id="Trazado_120754" data-name="Trazado 120754" d="M275.08,65.28v1.48l-3.66,8.37h-2.48l3.53-8h-3.26v1.6h-2V65.28Z" fill="#0b3360"/>
        </g>
        <path id="Trazado_120755" data-name="Trazado 120755" d="M263.52,57.62c0,.05,2,.09,4.45.09a39.072,39.072,0,0,0,4.44-.09,37.719,37.719,0,0,0-4.44-.1C265.53,57.52,263.52,57.56,263.52,57.62Z" fill="#0b3360"/>
      </g>
      <path id="Trazado_120756" data-name="Trazado 120756" d="M255.33,52.43h-.15a1.9,1.9,0,0,0-.45.07,2.21,2.21,0,0,0-1.36,1,2.29,2.29,0,0,0-.31,1.23c0,.47,0,1,0,1.53V79a2.35,2.35,0,0,0,.12.87,2.3,2.3,0,0,0,1.15,1.34,2.22,2.22,0,0,0,.88.24h.9l-.08-.08v5.79l.14-.11,6.82-5.61h16.94a2.23,2.23,0,0,0,.77-.14,2.28,2.28,0,0,0,1.19-1,2.14,2.14,0,0,0,.29-.72,3.363,3.363,0,0,0,.05-.77V55.46a7.28,7.28,0,0,0-.05-1.23,2.24,2.24,0,0,0-.54-1.1,2.28,2.28,0,0,0-1-.66,3.34,3.34,0,0,0-1.17-.12h-.15a3.27,3.27,0,0,1,1.13.11,2.13,2.13,0,0,1,.94.62,2.18,2.18,0,0,1,.51,1,7.892,7.892,0,0,1,0,1.2V78.86a3.491,3.491,0,0,1,0,.73,2.28,2.28,0,0,1-.26.67,2.12,2.12,0,0,1-1.1.9,4,4,0,0,1-1.48.14H262.84L256,86.93l.14.07V81.31h-.97a2.17,2.17,0,0,1-1.89-1.47,2.23,2.23,0,0,1-.11-.82V56.29c0-1.1-.15-2.08.29-2.73a2.2,2.2,0,0,1,1.32-1,2.86,2.86,0,0,1,.55-.13Z" fill="#0b3360"/>
      <g id="Grupo_80637" data-name="Grupo 80637">
        <rect id="Rectángulo_34822" data-name="Rectángulo 34822" width="1.88" height="6.54" rx="0.91" transform="translate(262.34 49.59)" fill="#e1e1e1"/>
        <path id="Trazado_120757" data-name="Trazado 120757" d="M263.25,56.13a1.12,1.12,0,0,1-.54-.22.88.88,0,0,1-.31-.57c0-.26,0-.59,0-.93V50.55a.82.82,0,0,1,.24-.63.85.85,0,0,1,.64-.24.81.81,0,0,1,.62.29.9.9,0,0,1,.2.64V55a2,2,0,0,1,0,.43.91.91,0,0,1-.35.55,1.28,1.28,0,0,1-.55.18h.15a.91.91,0,0,0,.44-.13,1,1,0,0,0,.41-.59,3.4,3.4,0,0,0,0-.45V50.61a1.06,1.06,0,0,0-.24-.77,1,1,0,0,0-1.83.71c0,.49,0,1,0,1.43v3.37a.946.946,0,0,0,.8.79.42.42,0,0,0,.32-.01Z" fill="#0b3360"/>
      </g>
      <g id="Grupo_80638" data-name="Grupo 80638">
        <rect id="Rectángulo_34823" data-name="Rectángulo 34823" width="1.88" height="6.54" rx="0.91" transform="translate(271.18 49.59)" fill="#e1e1e1"/>
        <path id="Trazado_120758" data-name="Trazado 120758" d="M272.09,56.13a1.16,1.16,0,0,1-.54-.22.88.88,0,0,1-.31-.57c0-.26,0-.59,0-.93V50.55a.82.82,0,0,1,.24-.63.85.85,0,0,1,.64-.24.81.81,0,0,1,.62.29.85.85,0,0,1,.2.64V55a2,2,0,0,1,0,.43.91.91,0,0,1-.35.55,1.28,1.28,0,0,1-.55.18h.15a.89.89,0,0,0,.44-.13,1,1,0,0,0,.41-.59,2.272,2.272,0,0,0,0-.45V50.61a1.06,1.06,0,0,0-.24-.77,1.033,1.033,0,0,0-1.82.71v4.82a.946.946,0,0,0,.8.79.42.42,0,0,0,.31-.03Z" fill="#0b3360"/>
      </g>
    </g>
    <g id="Grupo_80662" data-name="Grupo 80662">
      <g id="Grupo_80640" data-name="Grupo 80640">
        <path id="Trazado_120759" data-name="Trazado 120759" d="M206.15,130.17l2.11,2.63v-4.52h6.62s.73,10.35.58,12.56a18.881,18.881,0,0,1-.81,3.38,3.88,3.88,0,0,1-6.42,1.6,21.419,21.419,0,0,1-2.08-2.3c-2.94-3.78-7.83-13-7.83-13l5.1-3.08Z" fill="#ffbf9d"/>
        <path id="Trazado_120760" data-name="Trazado 120760" d="M205.74,129.69a6.351,6.351,0,0,0,.86,1.15c.56.69,1.33,1.65,2.22,2.68s1.72,1.94,2.37,2.56a4.841,4.841,0,0,0,1.12.91,10.93,10.93,0,0,0-1-1.07c-.6-.65-1.4-1.58-2.29-2.6A33.288,33.288,0,0,0,205.74,129.69Z" fill="#ff9a6c"/>
      </g>
      <g id="Grupo_80644" data-name="Grupo 80644">
        <g id="Grupo_80641" data-name="Grupo 80641">
          <path id="Trazado_120761" data-name="Trazado 120761" d="M241.79,71.09l.3,24c0,4.09-.71,10.11-7.18,9.89h0c-5.6-.6-7.09-5.91-7.13-9.72,0-1.81,0-3.32-.06-3.51,0,0-6.13-.5-6.65-6.55-.25-2.93-.27-9-.23-14.49a11.33,11.33,0,0,1,10.5-11.2h.58C238.26,59.43,241.87,64.75,241.79,71.09Z" fill="#ffbf9d"/>
          <path id="Trazado_120762" data-name="Trazado 120762" d="M227.72,91.8a14.61,14.61,0,0,0,7.72-2.91s-1.6,4.57-7.69,4.46Z" fill="#ff9a6c"/>
        </g>
        <g id="Grupo_80643" data-name="Grupo 80643">
          <g id="Grupo_80642" data-name="Grupo 80642">
            <path id="Trazado_120763" data-name="Trazado 120763" d="M231.19,73.24c.12.12.82-.44,1.84-.47s1.77.47,1.88.34-.08-.28-.41-.51a2.53,2.53,0,0,0-1.51-.43,2.45,2.45,0,0,0-1.45.53C231.23,73,231.13,73.19,231.19,73.24Z" fill="#0b3360"/>
            <path id="Trazado_120764" data-name="Trazado 120764" d="M230.64,75.69a.82.82,0,0,0,.85.77.79.79,0,0,0,.79-.8.83.83,0,0,0-.85-.77.78.78,0,0,0-.79.8Z" fill="#0b3360"/>
            <path id="Trazado_120765" data-name="Trazado 120765" d="M228.65,80.3a6.32,6.32,0,0,0-1.53-.16c-.24,0-.47,0-.52-.2a1.18,1.18,0,0,1,.11-.72l.57-1.86a30.35,30.35,0,0,0,1.23-4.85,31.142,31.142,0,0,0-1.62,4.74c-.19.65-.37,1.27-.54,1.87a1.42,1.42,0,0,0-.06.94.58.58,0,0,0,.42.32,1.52,1.52,0,0,0,.41,0,6.32,6.32,0,0,0,1.53-.08Z" fill="#0b3360"/>
          </g>
          <path id="Trazado_120766" data-name="Trazado 120766" d="M231.62,68.92c.1.23.91.06,1.89.11s1.77.26,1.88,0-.1-.31-.43-.51a3.2,3.2,0,0,0-2.87-.12C231.75,68.62,231.58,68.82,231.62,68.92Z" fill="#0b3360"/>
          <path id="Trazado_120767" data-name="Trazado 120767" d="M222,70.44c.11.19.9,0,1.86,0s1.75.1,1.85-.09-.11-.26-.44-.41a3.54,3.54,0,0,0-1.42-.23,3.38,3.38,0,0,0-1.41.35C222.1,70.18,221.94,70.36,222,70.44Z" fill="#0b3360"/>
        </g>
        <path id="Trazado_120768" data-name="Trazado 120768" d="M241.62,75.61c.1,0,4.08-1.53,4.25,2.62s-4,3.47-4.05,3.35S241.62,75.61,241.62,75.61Z" fill="#ffbf9d"/>
        <path id="Trazado_120769" data-name="Trazado 120769" d="M243,80a.356.356,0,0,1,.2.1.72.72,0,0,0,.54,0,1.78,1.78,0,0,0,.77-1.64,2.41,2.41,0,0,0-.25-1,.82.82,0,0,0-.57-.53.36.36,0,0,0-.41.21c-.06.12,0,.2-.05.21s-.09-.06-.06-.24a.44.44,0,0,1,.15-.26.54.54,0,0,1,.4-.13,1,1,0,0,1,.78.62,2.47,2.47,0,0,1,.3,1.14,1.89,1.89,0,0,1-1,1.84.77.77,0,0,1-.66-.08C243,80.05,243,80,243,80Z" fill="#ff9a6c"/>
        <path id="Trazado_120770" data-name="Trazado 120770" d="M229.63,83.17a5.738,5.738,0,0,0,1.34-1.11,4.63,4.63,0,0,0,.58-1.08c.12-.3.21-.49.25-.48s0,.22,0,.55a3,3,0,0,1-.54,1.21,2.37,2.37,0,0,1-1.06.81C229.86,83.2,229.64,83.21,229.63,83.17Z" fill="#0b3360"/>
        <path id="Trazado_120771" data-name="Trazado 120771" d="M212.8,65.32a1,1,0,0,1,.46-.57,3,3,0,0,1,1.55-.25,8.73,8.73,0,0,0,4.55-1.38,21,21,0,0,1,2.12-2.57,15.56,15.56,0,0,1,4.91-3.81,14.14,14.14,0,0,1,7.51-.59,5.69,5.69,0,0,1,4.29,4.42,4.36,4.36,0,0,1,4.39-.41h0c1.6.57,2.51,2.27,3,3.9a21.1,21.1,0,0,0,1.54,4.85c.18.3.4.67.24,1a.67.67,0,0,1-.71.31,1.92,1.92,0,0,1-.74-.34c.18.43.35.86.53,1.28a3.79,3.79,0,0,1-1.74-.11,38,38,0,0,1-1.14,4.31,2.51,2.51,0,0,0-1.7.41c-.56.51-.81,1.46-1.74,1.1-.48-.19-.91-1.18-1.07-1.66a23.741,23.741,0,0,1-1-10,7.58,7.58,0,0,0-2.35-1.69l.08.06c-1.7-.58-3.61-1.16-5.22-.37-1.24.62-2,1.91-2.9,2.94a9.49,9.49,0,0,1-6.78,3.13c-.09,1.71.05,4.12,0,5.82l-1.43-2.73h0a5.712,5.712,0,0,1-.31-.6v-.06h0c-.15-.32-.29-.65-.48-1h0A1.092,1.092,0,1,1,217,69.29a2.29,2.29,0,0,1,.51-.52,1.68,1.68,0,0,1-1.61.42,1.32,1.32,0,0,1-.93-1.31,1.12,1.12,0,0,1,.67-.9,3.7,3.7,0,0,1-2.16-.48A1.1,1.1,0,0,1,212.8,65.32Z" fill="#0b3360"/>
        <path id="Trazado_120772" data-name="Trazado 120772" d="M236.28,61.27a5,5,0,0,1,.61.55,4.38,4.38,0,0,1,.93,2,8.12,8.12,0,0,1,.15,1.54,13.936,13.936,0,0,1-.08,1.79,16.049,16.049,0,0,0,0,2,6.3,6.3,0,0,0,.14,1,2.28,2.28,0,0,0,.43,1,.88.88,0,0,0,.85.28,1.35,1.35,0,0,0,.77-.43,3.08,3.08,0,0,0,.58-1.54h-.12a5,5,0,0,0,.73,1.27,1.73,1.73,0,0,0,1.18.64,1.22,1.22,0,0,0,.63-.1,1.06,1.06,0,0,0,.55-1,.72.72,0,0,0-.2-.47l-.06.06a4,4,0,0,0,1.3,1,3,3,0,0,0,.41.16h.14l-.14-.06a4.174,4.174,0,0,1-.39-.18,3.92,3.92,0,0,1-1.25-1l-.07.06a.76.76,0,0,1,0,.9.9.9,0,0,1-.38.37,1.09,1.09,0,0,1-.57.09,1.66,1.66,0,0,1-1.09-.61,4.67,4.67,0,0,1-.71-1.24l-.09-.2v.21a3,3,0,0,1-.55,1.48,1.25,1.25,0,0,1-.69.38.74.74,0,0,1-.73-.24,2,2,0,0,1-.39-1,6.072,6.072,0,0,1-.14-1,16,16,0,0,1,0-2c0-.63.08-1.23.07-1.79a7.53,7.53,0,0,0-.17-1.56,4.41,4.41,0,0,0-1-2A2.25,2.25,0,0,0,236.28,61.27Z" fill="#375a64"/>
        <path id="Trazado_120773" data-name="Trazado 120773" d="M217.54,67.16h.05l.15.11a1.479,1.479,0,0,0,.26.16,2.47,2.47,0,0,0,.37.2,5.39,5.39,0,0,0,2.59.47,7,7,0,0,0,3.66-1.35,12,12,0,0,0,3.14-3.62c.44-.74.8-1.49,1.19-2.18a8.119,8.119,0,0,1,1.36-1.85,4.2,4.2,0,0,1,1.74-1.06A2.92,2.92,0,0,1,233,58a2.85,2.85,0,0,1,.84.16,3.36,3.36,0,0,1,1.27.76,3.4,3.4,0,0,1,.68.89,3.66,3.66,0,0,1,.31.9s0,0,0-.06v-.19a3.16,3.16,0,0,0-.23-.68,3.44,3.44,0,0,0-.68-.92,3.59,3.59,0,0,0-1.28-.8,3.44,3.44,0,0,0-.87-.17,3.17,3.17,0,0,0-1,.1,4.21,4.21,0,0,0-1.81,1.08,8,8,0,0,0-1.38,1.87c-.4.7-.76,1.45-1.19,2.17a11.92,11.92,0,0,1-3.1,3.59A6.93,6.93,0,0,1,221,68a5.53,5.53,0,0,1-2.56-.42,8.233,8.233,0,0,1-.9-.42Z" fill="#375a64"/>
        <path id="Trazado_120774" data-name="Trazado 120774" d="M217,64.5a1,1,0,0,0,.22.15,4.68,4.68,0,0,0,.64.32,6.08,6.08,0,0,0,1,.34,7.43,7.43,0,0,0,1.3.17,6.741,6.741,0,0,0,1.31-.09,5.57,5.57,0,0,0,1-.27,4.17,4.17,0,0,0,.66-.28c.16-.08.24-.13.23-.14s-.35.15-.92.33a7,7,0,0,1-1,.23,7.391,7.391,0,0,1-1.28.08,8.129,8.129,0,0,1-1.28-.16,7.3,7.3,0,0,1-1-.3C217.33,64.67,217,64.47,217,64.5Z" fill="#375a64"/>
        <path id="Trazado_120775" data-name="Trazado 120775" d="M221.94,73.24c.12.12.82-.44,1.84-.47s1.77.47,1.88.34-.08-.28-.41-.51a2.52,2.52,0,0,0-1.5-.43,2.45,2.45,0,0,0-1.46.53C222,73,221.89,73.19,221.94,73.24Z" fill="#0b3360"/>
        <path id="Trazado_120776" data-name="Trazado 120776" d="M222.16,75.69a.82.82,0,0,0,.85.77.79.79,0,0,0,.79-.8.83.83,0,0,0-.85-.77.79.79,0,0,0-.79.8Z" fill="#0b3360"/>
      </g>
      <g id="Grupo_80645" data-name="Grupo 80645">
        <path id="Trazado_120777" data-name="Trazado 120777" d="M253.76,254.12,255,269.24l4.44,11.68a1.56,1.56,0,0,1-1,2h0a1.56,1.56,0,0,1-1.4-.26c-2.54-2-11.69-9.18-11.79-10.12-.13-1.22-2.46-16.09-2.46-16.09Z" fill="#375a64"/>
        <path id="Trazado_120778" data-name="Trazado 120778" d="M258.46,283,245,270.85l.13,1.12c.09.62.1.95.51,1.33a127.45,127.45,0,0,0,11.28,9.7c.4.32,1.05.16,1.54,0Z" fill="#0b3360"/>
        <path id="Trazado_120779" data-name="Trazado 120779" d="M247.67,266.14a.94.94,0,0,1,.38,1.19.9.9,0,0,1-1.18.4,1,1,0,0,1-.4-1.27.93.93,0,0,1,1.27-.27" fill="#fff"/>
        <path id="Trazado_120780" data-name="Trazado 120780" d="M254.31,276.73a4.9,4.9,0,0,1,1.2-1.32,4.62,4.62,0,0,1,1.7-.51,1.027,1.027,0,0,0-.55-.15,2.49,2.49,0,0,0-1.33.38,2.43,2.43,0,0,0-.92,1C254.27,276.5,254.27,276.72,254.31,276.73Z" fill="#0b3360"/>
        <path id="Trazado_120781" data-name="Trazado 120781" d="M255.6,278.64a11.091,11.091,0,0,1,1.27-.8,11.424,11.424,0,0,1,1.45-.34,1.7,1.7,0,0,0-1.58,0C255.88,277.89,255.52,278.6,255.6,278.64Z" fill="#0b3360"/>
        <path id="Trazado_120782" data-name="Trazado 120782" d="M252,274.35a16.593,16.593,0,0,1,1.88-1.35,14.929,14.929,0,0,1,2.18-.76,3.51,3.51,0,0,0-2.34.46A3.56,3.56,0,0,0,252,274.35Z" fill="#0b3360"/>
        <path id="Trazado_120783" data-name="Trazado 120783" d="M251.27,269.79c0,.08.84-.35,1.93-.51s2,0,2-.08a3,3,0,0,0-2-.25,2.93,2.93,0,0,0-1.93.84Z" fill="#0b3360"/>
        <path id="Trazado_120784" data-name="Trazado 120784" d="M250.79,265.36a7.411,7.411,0,0,1,2-.58,7.32,7.32,0,0,1,2.05.29,1.388,1.388,0,0,0-.53-.37,3.31,3.31,0,0,0-1.54-.26,3.49,3.49,0,0,0-1.5.47C250.92,265.13,250.76,265.33,250.79,265.36Z" fill="#0b3360"/>
        <path id="Trazado_120785" data-name="Trazado 120785" d="M252.66,263.94a1.37,1.37,0,0,0,0-.58,3.89,3.89,0,0,0-.61-1.44,1.71,1.71,0,0,0-.84-.76.63.63,0,0,0-.69.21,1,1,0,0,0-.17.71,2.22,2.22,0,0,0,2.13,1.82,2.55,2.55,0,0,0,2.35-1.59.87.87,0,0,0,0-.74.61.61,0,0,0-.67-.26,2.16,2.16,0,0,0-.94.63,4.38,4.38,0,0,0-.91,1.28,1.86,1.86,0,0,0-.18.54,7.5,7.5,0,0,1,1.25-1.65,1.92,1.92,0,0,1,.83-.52.32.32,0,0,1,.37.13.6.6,0,0,1,0,.49,2.27,2.27,0,0,1-2.05,1.35,1.91,1.91,0,0,1-1.83-1.52.72.72,0,0,1,.1-.49.33.33,0,0,1,.37-.13,1.65,1.65,0,0,1,.73.63,5.72,5.72,0,0,1,.76,1.89Z" fill="#0b3360"/>
      </g>
      <g id="Grupo_80646" data-name="Grupo 80646">
        <path id="Trazado_120786" data-name="Trazado 120786" d="M218,254.9l.56,12.8s-12.83,4.87-13,7.25l24.87-.19v-20Z" fill="#375a64"/>
        <path id="Trazado_120787" data-name="Trazado 120787" d="M226.19,266.57a.959.959,0,0,1-.43,1.87,1.07,1.07,0,0,1-.74-1.23,1,1,0,0,1,1.26-.61" fill="#e1e1e1"/>
        <path id="Trazado_120788" data-name="Trazado 120788" d="M230.42,274.76l-.08-2-23.82.94s-1.1.49-1,1.27Z" fill="#0b3360"/>
        <path id="Trazado_120789" data-name="Trazado 120789" d="M218.1,267.58c0,.12.62.17,1.22.56s.92.89,1,.84-.08-.75-.81-1.2S218.08,267.47,218.1,267.58Z" fill="#0b3360"/>
        <path id="Trazado_120790" data-name="Trazado 120790" d="M215.5,268.68c0,.12.5.32.92.83s.54,1.05.66,1.05.19-.7-.34-1.32S215.5,268.56,215.5,268.68Z" fill="#0b3360"/>
        <path id="Trazado_120791" data-name="Trazado 120791" d="M214.05,271.81c.11,0,.27-.58-.05-1.24s-.88-.92-.93-.82.3.45.55,1S213.92,271.8,214.05,271.81Z" fill="#0b3360"/>
        <path id="Trazado_120792" data-name="Trazado 120792" d="M218.3,264.65c0,.11.61-.06,1.29,0s1.23.25,1.29.15-.46-.54-1.27-.57S218.24,264.55,218.3,264.65Z" fill="#0b3360"/>
      </g>
      <g id="Grupo_80648" data-name="Grupo 80648">
        <g id="Grupo_80647" data-name="Grupo 80647">
          <path id="Trazado_120793" data-name="Trazado 120793" d="M213.62,163c0,.74,2.89,103.08,2.89,103.08h15.37l3.12-87.6s3.64,45.78,3.64,46.77,3.21,41.28,3.21,41.28l14.25-1.17-.93-92.17-1.74-13.52Z" fill="#0b3360"/>
          <path id="Trazado_120794" data-name="Trazado 120794" d="M236.59,175.24a2.42,2.42,0,0,1-.62.27l-1.74.6h-.14V176c-.08-1.23-.18-2.88-.27-4.68-.1-2-.17-3.73-.21-5V164.8a2.07,2.07,0,0,1,0-.56,2.209,2.209,0,0,1,.09.55c0,.36.07.88.12,1.52.09,1.28.2,3.05.29,5,.09,1.8.16,3.45.2,4.68l-.15-.09c.74-.23,1.35-.4,1.77-.52a3.469,3.469,0,0,1,.66-.14Z" fill="#375a64"/>
          <path id="Trazado_120795" data-name="Trazado 120795" d="M235.43,164.6s0-.08.2-.13a.93.93,0,0,1,.68.06.84.84,0,0,1,.51.84,1,1,0,0,1-.82.9,1.11,1.11,0,0,1-1.13-.51.91.91,0,0,1,0-1,1.07,1.07,0,0,1,.51-.43.41.41,0,0,1,.25,0,1.127,1.127,0,0,0-.57.55.73.73,0,0,0,0,.74.88.88,0,0,0,.84.37.78.78,0,0,0,.59-.65.63.63,0,0,0-.34-.64,1.26,1.26,0,0,0-.72-.1Z" fill="#375a64"/>
          <path id="Trazado_120796" data-name="Trazado 120796" d="M242.48,165.65c-.08,0-.2-.43-.26-1a4.557,4.557,0,0,1,0-1,3.486,3.486,0,0,1,.26,1C242.54,165.22,242.57,165.64,242.48,165.65Z" fill="#375a64"/>
          <path id="Trazado_120797" data-name="Trazado 120797" d="M243.55,165.55c-.09,0-.16-.47-.16-1.06s.06-1.05.15-1.05.15.47.16,1.05S243.63,165.55,243.55,165.55Z" fill="#375a64"/>
          <path id="Trazado_120798" data-name="Trazado 120798" d="M225,166.25c-.09,0-.22-.52-.29-1.18a2.55,2.55,0,0,1,0-1.22A2.62,2.62,0,0,1,225,165a2.54,2.54,0,0,1,0,1.25Z" fill="#375a64"/>
          <path id="Trazado_120799" data-name="Trazado 120799" d="M226.31,166.35a1.85,1.85,0,0,1-.38-1.24,1.88,1.88,0,0,1,.27-1.27c.09,0,0,.57,0,1.26a7,7,0,0,1,.11,1.25Z" fill="#375a64"/>
        </g>
        <path id="Trazado_120800" data-name="Trazado 120800" d="M221.45,165a1.44,1.44,0,0,1,0,.46,9.752,9.752,0,0,1-.31,1.2,12.73,12.73,0,0,1-1.91,3.64,13.19,13.19,0,0,1-3,2.91,9.611,9.611,0,0,1-1.09.67c-.27.14-.42.21-.43.19s.56-.36,1.4-1a15,15,0,0,0,2.9-2.91,14,14,0,0,0,1.94-3.55A15.494,15.494,0,0,1,221.45,165Z" fill="#375a64"/>
        <path id="Trazado_120801" data-name="Trazado 120801" d="M254.69,171.88a1.34,1.34,0,0,1-.47.07,7.151,7.151,0,0,1-1.29,0,8.39,8.39,0,0,1-3.93-1.46,7.8,7.8,0,0,1-2.63-3.14,6.231,6.231,0,0,1-.4-1.17c-.07-.28-.08-.44-.06-.44a11.342,11.342,0,0,0,.64,1.53,8.27,8.27,0,0,0,2.61,3,9.07,9.07,0,0,0,3.8,1.48C254,171.9,254.68,171.83,254.69,171.88Z" fill="#375a64"/>
        <path id="Trazado_120802" data-name="Trazado 120802" d="M229.64,223.71c0,.07-2.57-.52-5.69-1.31s-5.64-1.49-5.62-1.56,2.57.52,5.69,1.31S229.66,223.64,229.64,223.71Z" fill="#375a64"/>
        <path id="Trazado_120803" data-name="Trazado 120803" d="M254.41,220c0,.06-2.18,1.29-4.95,2.75s-5.05,2.58-5.09,2.52,2.18-1.29,5-2.75q2.456-1.385,5.04-2.52Z" fill="#375a64"/>
      </g>
      <g id="Grupo_80654" data-name="Grupo 80654">
        <path id="Trazado_120804" data-name="Trazado 120804" d="M221.26,98.35l6.98-2.74,12.87-.72,6.04,2.3-8.28,4.6-7.15-.27Z" fill="#ffbf9d"/>
        <path id="Trazado_120805" data-name="Trazado 120805" d="M213,164.07c.64.1,42.78,1.89,42.78,1.89l-1.48-37.89-.12-7.44-2.39-22.54s-6.3-2.17-9.52-3.2a13.81,13.81,0,0,1-9.81,3.43c-6.29-.1-7.61-1.51-7.61-1.51l-8.79,3.37s-6.25,2.24-7.32,5-3,18.07-3,18.07h9.11l-.17,27.17Z" fill="#ffb951"/>
        <g id="Grupo_80649" data-name="Grupo 80649" opacity="0.2">
          <path id="Trazado_120806" data-name="Trazado 120806" d="M239.52,113.49l1.31,9.55,6.32,2.82,4.67-3.98v-8.87l-12.3.48"/>
        </g>
        <path id="Trazado_120807" data-name="Trazado 120807" d="M251.66,116.2c0,.08-2.63.14-5.87.14s-5.87-.06-5.87-.14a58.587,58.587,0,0,1,5.87-.15A58.591,58.591,0,0,1,251.66,116.2Z" fill="#0b3360"/>
        <g id="Grupo_80653" data-name="Grupo 80653">
          <g id="Grupo_80652" data-name="Grupo 80652">
            <path id="Trazado_120808" data-name="Trazado 120808" d="M210.18,109.13a1.23,1.23,0,0,1,.07.25,4.576,4.576,0,0,0,.17.74,23.18,23.18,0,0,0,.84,2.68c.42,1.14,1,2.46,1.74,4a48.74,48.74,0,0,1,1.95,5.16h0c0,2.27,0,4.76-.05,7.35-.06,5.8-.12,11-.16,14.87,0,1.88-.06,3.41-.08,4.51v1.22a2.429,2.429,0,0,1,0,.43,2.429,2.429,0,0,1,0-.43v-5.73c0-3.83.05-9.08.08-14.87,0-2.6,0-5.08.06-7.35h0c-.64-1.89-1.25-3.65-1.91-5.15a42.911,42.911,0,0,1-1.69-4,19.271,19.271,0,0,1-.77-2.73c-.07-.32-.11-.57-.13-.74Z" fill="#0b3360"/>
            <path id="Trazado_120809" data-name="Trazado 120809" d="M254.87,104.7a5,5,0,0,1,0,.81c0,.57-.05,1.31-.08,2.2-.08,1.9-.18,4.45-.29,7.26s-.24,5.35-.33,7.25c0,.9-.09,1.64-.13,2.2a4.147,4.147,0,0,1-.08.809,5.14,5.14,0,0,1,0-.809v-2.2c0-1.86.13-4.43.25-7.27s.24-5.4.36-7.25c.06-.93.12-1.68.17-2.2a4.467,4.467,0,0,1,.13-.8Z" fill="#0b3360"/>
            <g id="Grupo_80650" data-name="Grupo 80650" opacity="0.3">
              <path id="Trazado_120810" data-name="Trazado 120810" d="M210.21,110.51a15.79,15.79,0,0,0,4.14,11.29C213.49,117.89,211.35,114.25,210.21,110.51Z"/>
            </g>
            <g id="Grupo_80651" data-name="Grupo 80651" opacity="0.3">
              <path id="Trazado_120811" data-name="Trazado 120811" d="M228.72,148a7.91,7.91,0,0,0,5.06-2.82,23.67,23.67,0,0,0,3.39-4.92,19.33,19.33,0,0,0,2-7.73A36.56,36.56,0,0,1,228.72,148Z"/>
            </g>
            <path id="Trazado_120812" data-name="Trazado 120812" d="M239.94,129.69a.74.74,0,0,1,0,.24,3.314,3.314,0,0,1-.16.69,10.843,10.843,0,0,1-.28,1.07c-.12.41-.25.89-.44,1.4a31.229,31.229,0,0,1-1.46,3.54,37.593,37.593,0,0,1-2.31,4.07,36.921,36.921,0,0,1-2.86,3.72,29.514,29.514,0,0,1-2.72,2.69c-.4.37-.79.67-1.13.94s-.64.5-.89.67l-.58.39a.66.66,0,0,1-.21.12s0-.06.18-.16l.54-.44a9.9,9.9,0,0,0,.86-.7,11.605,11.605,0,0,0,1.1-1,33.227,33.227,0,0,0,2.66-2.72,39.251,39.251,0,0,0,2.82-3.7,41.073,41.073,0,0,0,2.32-4,37.8,37.8,0,0,0,1.5-3.5c.2-.5.34-1,.47-1.38s.25-.76.33-1,.15-.49.2-.67a.92.92,0,0,1,.06-.27Z" fill="#0b3360"/>
          </g>
          <path id="Trazado_120813" data-name="Trazado 120813" d="M238.72,117.83a1.46,1.46,0,0,1-.05.39,8.787,8.787,0,0,1-.19,1.1c-.08.46-.19,1.06-.36,1.73s-.33,1.44-.59,2.26c-.13.42-.25.86-.39,1.31s-.31.92-.48,1.4a30.934,30.934,0,0,1-1.17,3,53.258,53.258,0,0,1-3.42,6.64,54.3,54.3,0,0,1-4.35,6.07c-.76.87-1.46,1.7-2.18,2.43-.36.36-.69.73-1,1.06l-1,.94c-.62.61-1.23,1.1-1.75,1.55s-1,.83-1.37,1.12l-.9.67a1.611,1.611,0,0,1-.32.22,2.621,2.621,0,0,1,.29-.26l.86-.72c.38-.3.83-.68,1.34-1.14s1.11-1,1.72-1.58l1-.95c.34-.33.66-.7,1-1.07.71-.72,1.41-1.56,2.15-2.43a57.618,57.618,0,0,0,4.32-6.05,56.5,56.5,0,0,0,3.42-6.6c.43-1.05.87-2.05,1.19-3,.17-.48.35-.93.49-1.38s.27-.89.4-1.3c.27-.82.45-1.59.63-2.25s.31-1.24.41-1.72l.24-1.08a2.575,2.575,0,0,1,.06-.36Z" fill="#0b3360"/>
        </g>
      </g>
      <g id="Grupo_80658" data-name="Grupo 80658">
        <g id="Grupo_80657" data-name="Grupo 80657">
          <g id="Grupo_80655" data-name="Grupo 80655">
            <path id="Trazado_120814" data-name="Trazado 120814" d="M205.42,106l16.23,24.67a.73.73,0,0,1-.7,1.13l-18.69-2.35a.73.73,0,0,1-.5-.3l-17.85-24.37a.73.73,0,0,1,.65-1.16l19.22,1.42A2.13,2.13,0,0,1,205.42,106Z" fill="#e1e1e1"/>
            <path id="Trazado_120815" data-name="Trazado 120815" d="M205.42,106a.86.86,0,0,0-.15-.22,1.91,1.91,0,0,0-.6-.51,2.57,2.57,0,0,0-1.24-.31l-1.74-.14L190.6,104l-3.67-.28-2-.15h-.52a.84.84,0,0,0-.54.22.87.87,0,0,0-.14,1.1L189,112l11.91,16.29c.28.37.52.71.81,1.1a1.06,1.06,0,0,0,.33.22,1.33,1.33,0,0,0,.37.07l.65.08,2.62.33,5.11.64,9.66,1.21.6.07a.9.9,0,0,0,.62-.26.89.89,0,0,0,.25-.62,1.06,1.06,0,0,0-.22-.6l-1.23-1.86-2.36-3.57-4.24-6.41-6.15-9.26L206,106.9l-.45-.64a1.229,1.229,0,0,0-.16-.22,2.436,2.436,0,0,0,.14.23l.42.67,1.63,2.54,6.07,9.32c1.29,2,2.69,4.11,4.2,6.42l2.35,3.58,1.22,1.87a.72.72,0,0,1,.18.44.56.56,0,0,1-.18.42.57.57,0,0,1-.41.17l-.56-.06-9.66-1.23-5.11-.64-2.62-.33-.66-.09a1.161,1.161,0,0,1-.29,0,.51.51,0,0,1-.21-.15l-.78-1.06-11.94-16.28-5.21-7.1a.58.58,0,0,1,.1-.77.52.52,0,0,1,.37-.16h.49l1.95.14,3.68.26,11.09.77,1.74.12a2.6,2.6,0,0,1,1.22.26A2.51,2.51,0,0,1,205.42,106Z" fill="#0b3360"/>
          </g>
          <path id="Trazado_120816" data-name="Trazado 120816" d="M183.91,104.82a2.211,2.211,0,0,0,.39.06l1.14.11,4.22.37L204,106.54l-.11-.07q1.35,2,2.75,4.15c3.79,5.83,7.1,11.18,9.6,15,1.25,1.91,2.28,3.44,3,4.49l.84,1.2a3.85,3.85,0,0,0,.31.41,2.55,2.55,0,0,0-.26-.44c-.19-.31-.46-.72-.79-1.24l-2.91-4.54c-2.45-3.83-5.73-9.2-9.53-15-.93-1.43-1.86-2.82-2.76-4.15v-.06H204l-14.36-1.06-4.23-.29-1.14-.06Z" fill="#0b3360"/>
          <g id="Grupo_80656" data-name="Grupo 80656">
            <path id="Trazado_120817" data-name="Trazado 120817" d="M195.5,108.3Z" fill="#fff"/>
            <path id="Trazado_120818" data-name="Trazado 120818" d="M195,108.58a.39.39,0,0,1,.47-.28,1.08,1.08,0,0,1,.5.28.5.5,0,0,1,.09.64c-.19.24-.57.15-.8,0A.69.69,0,0,1,195,108.58Z" fill="#fff"/>
          </g>
        </g>
        <path id="Trazado_120819" data-name="Trazado 120819" d="M203.76,122.41s.74-1.76-1.13-2a66.922,66.922,0,0,0-6.79,0s-2.68.29-2.12,2.22c0,0-1.58,1.41-.73,2.94s1.19,1.08,1.19,1.08-.23,1.87,1.19,2.16c0,0,1.54,1.81,2.95,1.7s7.43-3,7.83-3.57,1-.89.62-1.53c0,0,.74-1.66-.85-1.91C205.92,123.51,205.81,122.13,203.76,122.41Z" fill="#ffbf9d"/>
        <path id="Trazado_120820" data-name="Trazado 120820" d="M195.24,123a4.42,4.42,0,0,0,1.26.09h3.05a18,18,0,0,0,3.06-.18c.81-.19,1.13-.66,1.09-.67a3.38,3.38,0,0,1-1.13.46c-.75.12-1.84,0-3,.08s-2.26.05-3,.09a5.29,5.29,0,0,0-1.33.13Z" fill="#ff9a6c"/>
        <path id="Trazado_120821" data-name="Trazado 120821" d="M196.58,125.88a1.414,1.414,0,0,0,.4.14,4.38,4.38,0,0,0,1.17.07,8.08,8.08,0,0,0,1.71-.31c.63-.17,1.29-.41,2-.63a8.66,8.66,0,0,1,2-.41,3.1,3.1,0,0,0,1.72-.35,1,1,0,0,0,.4-.58.78.78,0,0,0-.07-.54c-.14-.27-.34-.28-.34-.27a.683.683,0,0,1,.23.32.74.74,0,0,1-.35.89,3.06,3.06,0,0,1-1.6.24,8.46,8.46,0,0,0-2.09.4l-2,.66a9.549,9.549,0,0,1-1.65.36,10,10,0,0,1-1.53.01Z" fill="#ff9a6c"/>
        <path id="Trazado_120822" data-name="Trazado 120822" d="M198.59,128.28a5,5,0,0,0,1.26-.25c.77-.19,1.82-.49,3-.87s2.18-.75,2.91-1a4.771,4.771,0,0,0,1.16-.55,42.613,42.613,0,0,0-4.17,1.31,42.116,42.116,0,0,0-4.16,1.36Z" fill="#ff9a6c"/>
        <path id="Trazado_120823" data-name="Trazado 120823" d="M198.1,130.5a2.77,2.77,0,0,0,1.05-.12,12.66,12.66,0,0,0,2.4-.84c.9-.41,1.68-.83,2.25-1.13s.92-.5.9-.55a20,20,0,0,0-3.28,1.4C199.65,130.1,198.09,130.42,198.1,130.5Z" fill="#ff9a6c"/>
      </g>
      <g id="Grupo_80661" data-name="Grupo 80661">
        <path id="Trazado_120824" data-name="Trazado 120824" d="M257.85,113.59s-3.82,15.31-8.59,21c-4.62,5.47-11.87,3-14.38-4.12s-7-23.25-7-23.25l5.49-4.2,9.49,18.38,4.27-12.53Z" fill="#ffbf9d"/>
        <g id="Grupo_80660" data-name="Grupo 80660">
          <g id="Grupo_80659" data-name="Grupo 80659">
            <path id="Trazado_120825" data-name="Trazado 120825" d="M228.16,107.6l-4-5.84a10.649,10.649,0,0,1-1.72-.53c-.45-.26-.9-2.58-.89-3s-.78-1.51-.46-1.81,1.4-.32,1.34-.76c0-.09-.8-1.06-.18-1.77a3.51,3.51,0,0,1,1.14-.48l-.07-2.22s1.21-2.63,2.43-1.68c0,0,4.64,3.56,5.11,4.13s2.25,8,2.56,9.37" fill="#ffbf9d"/>
            <path id="Trazado_120826" data-name="Trazado 120826" d="M233.39,103a2,2,0,0,0-.06-.4l-.24-1.11c-.22-1-.54-2.36-1-4.08-.22-.87-.47-1.81-.77-2.81-.09-.25-.17-.51-.27-.76a1.76,1.76,0,0,0-.55-.68c-.42-.37-.86-.73-1.32-1.1-.92-.75-1.89-1.51-2.91-2.3a3.14,3.14,0,0,0-.85-.56,1.14,1.14,0,0,0-1,.25,4.77,4.77,0,0,0-1.24,1.67v.74c0,.52,0,1,.05,1.55l.1-.15a6,6,0,0,0-.81.28,1.14,1.14,0,0,0-.4.26,1.16,1.16,0,0,0-.22.41,1.32,1.32,0,0,0,.07.88,2.32,2.32,0,0,0,.18.39l.1.17h0a.8.8,0,0,1-.23.16,3,3,0,0,1-.36.12l-.38.13a.75.75,0,0,0-.38.27.64.64,0,0,0,0,.47,2.119,2.119,0,0,0,.13.38c.1.23.22.46.3.68a.92.92,0,0,1,.07.31,2.219,2.219,0,0,0,0,.38,4.213,4.213,0,0,0,.12.71,11.135,11.135,0,0,0,.38,1.35,1.73,1.73,0,0,0,.36.62,1.83,1.83,0,0,0,.62.27c.41.13.81.23,1.2.32h-.07l3,4.23c.35.48.62.87.83,1.15a2.34,2.34,0,0,0,.31.39,3.873,3.873,0,0,0-.26-.42l-.78-1.18c-.7-1-1.69-2.51-2.9-4.3h0q-.57-.14-1.17-.33a1.91,1.91,0,0,1-.54-.23,1.4,1.4,0,0,1-.28-.53,10,10,0,0,1-.36-1.31,6.038,6.038,0,0,0-.12-.7,1.169,1.169,0,0,1,0-.34,1.29,1.29,0,0,0-.08-.4c-.09-.25-.2-.47-.3-.7a2.3,2.3,0,0,1-.12-.34c0-.1-.05-.23,0-.27a1,1,0,0,1,.24-.15l.36-.12a2,2,0,0,0,.39-.13.62.62,0,0,0,.38-.31.4.4,0,0,0,0-.15.3.3,0,0,0,0-.11v-.05l-.1-.17a2.6,2.6,0,0,1-.16-.34,1.1,1.1,0,0,1-.06-.71.79.79,0,0,1,.17-.31.9.9,0,0,1,.29-.18,5,5,0,0,1,.77-.26h.11V91.27a4.76,4.76,0,0,1,1.15-1.56.88.88,0,0,1,.79-.2,3.07,3.07,0,0,1,.76.51q1.53,1.17,2.91,2.28c.46.37.91.73,1.33,1.09a1.56,1.56,0,0,1,.49.58c.1.24.18.49.26.74.32,1,.57,1.93.81,2.79.44,1.69.81,3.07,1.06,4.06.13.45.22.82.29,1.1a2.254,2.254,0,0,0-.09.34Z" fill="#ff9a6c"/>
          </g>
          <path id="Trazado_120827" data-name="Trazado 120827" d="M223.36,93.38c0,.05.47,0,1.2.08a9.561,9.561,0,0,1,1.27.29,5.61,5.61,0,0,0,1.64,0,3.09,3.09,0,0,1,2.58.83,3.36,3.36,0,0,1,.62,1,1.53,1.53,0,0,0-.48-1.13,2.93,2.93,0,0,0-1.1-.78,3.31,3.31,0,0,0-1.64-.21,6.4,6.4,0,0,1-1.57,0,7,7,0,0,0-1.3-.24,3.17,3.17,0,0,0-1.22.16Z" fill="#ff9a6c"/>
          <path id="Trazado_120828" data-name="Trazado 120828" d="M225,93.26c.07,0,.25-.24.23-.62s-.24-.63-.3-.59,0,.3,0,.61S224.92,93.23,225,93.26Z" fill="#ff9a6c"/>
          <path id="Trazado_120829" data-name="Trazado 120829" d="M222.26,95.72a10.16,10.16,0,0,0,3.49-.28,3.56,3.56,0,0,1,1.28-.16,1.43,1.43,0,0,1,.83.55,7.349,7.349,0,0,1,.46.89,1.57,1.57,0,0,0-.3-1,1.55,1.55,0,0,0-.94-.69,3.46,3.46,0,0,0-1.39.14C223.81,95.57,222.25,95.63,222.26,95.72Z" fill="#ff9a6c"/>
          <path id="Trazado_120830" data-name="Trazado 120830" d="M221.64,97.82a1.86,1.86,0,0,0,.86,0c.52-.06,1.23-.24,2-.39a3.85,3.85,0,0,1,1.08-.11,1.28,1.28,0,0,1,.78.28,1.21,1.21,0,0,1,.38.68.258.258,0,0,0,0-.24,1,1,0,0,0-.29-.59,1.41,1.41,0,0,0-.89-.39,4.2,4.2,0,0,0-1.16.08c-.79.16-1.48.37-2,.48A4.24,4.24,0,0,0,221.64,97.82Z" fill="#ff9a6c"/>
          <path id="Trazado_120831" data-name="Trazado 120831" d="M223,99.49a1.251,1.251,0,0,0,1.07.45l-.15-.12.05.37a3.94,3.94,0,0,0,.33,1.47,4.13,4.13,0,0,0,0-1.5l-.05-.37v-.13h-.12A4.61,4.61,0,0,1,223,99.49Z" fill="#ff9a6c"/>
        </g>
      </g>
      <path id="Trazado_120832" data-name="Trazado 120832" d="M251.81,98.09s7.82,1.89,7.8,12.27-2.36,15.5-2.36,15.5L242.83,118l3.21-8.08Z" fill="#ffb951"/>
      <path id="Trazado_120833" data-name="Trazado 120833" d="M257.25,125.86a1.06,1.06,0,0,1-.3-.13l-.84-.42L253,123.69l-10.29-5.54-.11-.07v-.12l.78-2,2.6-6.76,1.14-2.94a19.168,19.168,0,0,1,1.14-2.52,7.79,7.79,0,0,1,2.61-3,3.2,3.2,0,0,1,1-.41h.38a3.89,3.89,0,0,0-1.33.54,7.91,7.91,0,0,0-2.48,3,17.836,17.836,0,0,0-1.09,2.51c-.35.92-.73,1.91-1.12,3-.79,2.08-1.66,4.37-2.58,6.76-.26.7-.52,1.38-.77,2l-.07-.19,10.24,5.63,3,1.7.81.47a1.891,1.891,0,0,1,.39.11Z" fill="#0b3360"/>
    </g>
    <g id="Grupo_80686" data-name="Grupo 80686">
      <g id="Grupo_80667" data-name="Grupo 80667">
        <g id="Grupo_80663" data-name="Grupo 80663">
          <path id="Trazado_120834" data-name="Trazado 120834" d="M65.94,244.07,52.4,256.47,67.73,273.4c1.53-1.56-3.16-13.26-3.16-13.26L73,252Z" fill="#375a64"/>
          <path id="Trazado_120835" data-name="Trazado 120835" d="M60.56,254.23a1,1,0,0,0-1.22.24.89.89,0,0,0,.23,1.21,1,1,0,0,0,1.29-.25.93.93,0,0,0-.37-1.24" fill="#fff"/>
          <path id="Trazado_120836" data-name="Trazado 120836" d="M52.4,256.47l1.41-1.31L67.93,272s.35,1.05-.26,1.44Z" fill="#0b3360"/>
          <path id="Trazado_120837" data-name="Trazado 120837" d="M64.91,260.33c-.09.07-.5-.3-1.13-.47s-1.18-.07-1.22-.18.55-.41,1.32-.2S65,260.28,64.91,260.33Z" fill="#fff"/>
          <path id="Trazado_120838" data-name="Trazado 120838" d="M65.78,262.77c-.06.1-.53-.14-1.13-.1s-1.05.29-1.12.2.31-.55,1.06-.58S65.86,262.7,65.78,262.77Z" fill="#fff"/>
          <path id="Trazado_120839" data-name="Trazado 120839" d="M64.57,265.71c-.11-.08.14-.53.87-.75s1.17,0,1.13.12-.49.08-1,.25S64.65,265.78,64.57,265.71Z" fill="#fff"/>
          <path id="Trazado_120840" data-name="Trazado 120840" d="M66.77,258.38c-.11,0-.34-.45-.79-.89s-.94-.67-.9-.78.64,0,1.17.5S66.87,258.36,66.77,258.38Z" fill="#fff"/>
          <path id="Trazado_120841" data-name="Trazado 120841" d="M68.41,256.15a2.788,2.788,0,0,1-.76-.85,5.19,5.19,0,0,1-.53-1.13,4.21,4.21,0,0,1-.18-.72,1.22,1.22,0,0,1,0-.44.51.51,0,0,1,.41-.44.63.63,0,0,1,.52.19,2,2,0,0,1,.24.36,5.77,5.77,0,0,1,.3.69,4.32,4.32,0,0,1,.19,1.25,1.9,1.9,0,0,1-.24,1.12,5.458,5.458,0,0,1,0-1.11,4.59,4.59,0,0,0-.26-1.14,3.871,3.871,0,0,0-.29-.62c-.12-.22-.26-.38-.38-.35s-.06,0-.07.1a.9.9,0,0,0,0,.32,6.219,6.219,0,0,0,.15.68,6.61,6.61,0,0,0,.43,1.11C68.19,255.77,68.46,256.11,68.41,256.15Z" fill="#fff"/>
          <path id="Trazado_120842" data-name="Trazado 120842" d="M68.2,256.15a2.434,2.434,0,0,1,.61-1,3.74,3.74,0,0,1,1-.73,3.48,3.48,0,0,1,.71-.25.93.93,0,0,1,.91.16.52.52,0,0,1,.09.56,1.81,1.81,0,0,1-.23.37,2.51,2.51,0,0,1-.57.52,2.65,2.65,0,0,1-1.21.43,1.48,1.48,0,0,1-1.13-.22,7.846,7.846,0,0,0,1.09,0,2.54,2.54,0,0,0,1.52-.91c.15-.19.24-.39.16-.44a.65.65,0,0,0-.55,0,4.119,4.119,0,0,0-.65.21,4.19,4.19,0,0,0-1,.6C68.48,255.82,68.25,256.19,68.2,256.15Z" fill="#fff"/>
        </g>
        <g id="Grupo_80664" data-name="Grupo 80664">
          <path id="Trazado_120843" data-name="Trazado 120843" d="M62.67,256l.18,18.36,22.84-.1c-.14-2.18-12-6.51-12-6.51L74.08,256Z" fill="#375a64"/>
          <path id="Trazado_120844" data-name="Trazado 120844" d="M66.64,266.81a.94.94,0,0,0-.64,1.07.91.91,0,0,0,1,.64,1,1,0,0,0,.68-1.13.93.93,0,0,0-1.17-.55" fill="#fff"/>
          <path id="Trazado_120845" data-name="Trazado 120845" d="M62.84,274.42v-2l22,.74s1,.45.9,1.17Z" fill="#0b3360"/>
          <path id="Trazado_120846" data-name="Trazado 120846" d="M74.08,267.65c0,.11-.56.16-1.11.53s-.84.83-.94.78.06-.69.73-1.11S74.1,267.55,74.08,267.65Z" fill="#fff"/>
          <path id="Trazado_120847" data-name="Trazado 120847" d="M76.48,268.63c0,.11-.46.3-.83.77s-.49,1-.6,1-.18-.63.3-1.21S76.48,268.52,76.48,268.63Z" fill="#fff"/>
          <path id="Trazado_120848" data-name="Trazado 120848" d="M77.85,271.49c-.1,0-.26-.53,0-1.14s.8-.86.85-.77-.27.42-.5.93S78,271.48,77.85,271.49Z" fill="#fff"/>
          <path id="Trazado_120849" data-name="Trazado 120849" d="M73.87,265c-.05.1-.56,0-1.19,0s-1.12.25-1.18.15.41-.49,1.15-.53S73.92,264.87,73.87,265Z" fill="#fff"/>
        </g>
        <g id="Grupo_80666" data-name="Grupo 80666">
          <g id="Grupo_80665" data-name="Grupo 80665">
            <path id="Trazado_120850" data-name="Trazado 120850" d="M63.82,151.28A32.66,32.66,0,0,0,59.05,158c-1.57,3.29-4,10.28-4,10.28S52.05,179,52.72,184s5.18,39.49,5.18,39.49-.89,27.32,3,39.47l.71,3.22,12.88-2.28h0l2.86-67.62,7.85-44.7Z" fill="#0b3360"/>
            <path id="Trazado_120851" data-name="Trazado 120851" d="M80.27,154.16a1.49,1.49,0,0,0-.5-.74,1,1,0,0,0-.88-.09.92.92,0,0,0,0,1.71,1,1,0,0,0,.88-.12,1.47,1.47,0,0,0,.47-.76v.27a1.07,1.07,0,0,1-.36.66,1.17,1.17,0,0,1-1.11.22A1.2,1.2,0,0,1,78,154.2a1.18,1.18,0,0,1,.78-1.14,1.16,1.16,0,0,1,1.12.18,1,1,0,0,1,.38.65C80.32,154.06,80.29,154.16,80.27,154.16Z" fill="#375a64"/>
            <path id="Trazado_120852" data-name="Trazado 120852" d="M95.22,160.57s4.72,42.87,5.4,50.23-26,46.62-26,46.62L63.31,244.1l17.2-32-5.79-31.85,7.62-28.73,11.86.14Z" fill="#0b3360"/>
          </g>
          <path id="Trazado_120853" data-name="Trazado 120853" d="M58.89,252.64a7.2,7.2,0,0,0,.09.94c.09.61.23,1.52.45,2.68.42,2.34,1.12,5.72,2,9.95v.08h.09L74.47,264h.1v-.1c.35-8.84.78-19.4,1.24-30.73.48-12.19.92-23.5,1.28-32.77h0c1-7.45,1.76-13.61,2.32-17.92.27-2.14.48-3.82.63-5,.06-.57.12-1,.15-1.31a3.838,3.838,0,0,0,0-.45,2.113,2.113,0,0,1-.07.44c-.07.29-.11.74-.19,1.31-.17,1.15-.4,2.83-.7,5-.58,4.31-1.41,10.46-2.42,17.91h0c-.38,9.27-.84,20.58-1.33,32.77-.44,11.33-.86,21.89-1.2,30.73l.1-.11-12.87,2.31.11.07c-1-4.21-1.68-7.59-2.14-9.92-.23-1.16-.4-2.06-.5-2.67-.05-.3-.08-.54-.1-.69a2.262,2.262,0,0,0,.01-.23Z" fill="#375a64"/>
        </g>
        <path id="Trazado_120854" data-name="Trazado 120854" d="M78.4,168.71a6.073,6.073,0,0,1,.7,0,3.25,3.25,0,0,0,1.81-.3,1.69,1.69,0,0,0,.73-1,6.489,6.489,0,0,0,.22-1.47c.09-1.07.19-2.25.27-3.49.16-2.47.25-4.71.31-6.33a15.433,15.433,0,0,1,.07-1.92,3.36,3.36,0,0,1,.06-.71,3.361,3.361,0,0,1,.06.71c0,.45,0,1.11,0,1.92,0,1.63-.05,3.88-.22,6.35-.08,1.24-.18,2.42-.29,3.49a6.79,6.79,0,0,1-.26,1.53,1.86,1.86,0,0,1-.86,1.08,2.54,2.54,0,0,1-1.09.29,5.123,5.123,0,0,1-.84,0,2.179,2.179,0,0,1-.67-.15Z" fill="#375a64"/>
        <path id="Trazado_120855" data-name="Trazado 120855" d="M94.7,160.6a4.621,4.621,0,0,1-1.23-.65,12.759,12.759,0,0,1-2.53-2.21,12.56,12.56,0,0,1-1.87-2.8,4.28,4.28,0,0,1-.48-1.3,17.23,17.23,0,0,0,6.11,7Z" fill="#375a64"/>
      </g>
      <g id="Grupo_80670" data-name="Grupo 80670">
        <g id="Grupo_80668" data-name="Grupo 80668">
          <path id="Trazado_120856" data-name="Trazado 120856" d="M54.15,112.64l5.14,18.64,2.26,9.92c0,8.55-2.26,12.44-2.26,12.44l34.93-1.74s.58-23.65,0-28.12L90,108.3l-11.08-2.72-13.83.26Z" fill="#71d9e7"/>
          <path id="Trazado_120857" data-name="Trazado 120857" d="M102.15,138.85a2.22,2.22,0,0,1-.13-.92,6.34,6.34,0,0,1,1.53-4.15,2.37,2.37,0,0,1,.7-.61,11.069,11.069,0,0,0-1.58,2.65,10.94,10.94,0,0,0-.52,3.03Z" fill="#0b3360"/>
          <path id="Trazado_120858" data-name="Trazado 120858" d="M112.79,126.58,103.71,132l-5.15-13.2a59.47,59.47,0,0,0-3-5.65c-3-5.29-6.84-5-6.84-5L84.13,115,89,125.5s3,19.48,8.77,21c8.83,2.31,15-19.91,15-19.91Z" fill="#71d9e7"/>
        </g>
        <g id="Grupo_80669" data-name="Grupo 80669" opacity="0.3">
          <path id="Trazado_120859" data-name="Trazado 120859" d="M56.12,165.3c4.11-.16,8.38-1.91,11.92-4s6.75-4.71,10.08-7.12c8-5.77,23.86-18.41,31.27-24.91l-2.15.48L57.35,162Z"/>
        </g>
        <path id="Trazado_120860" data-name="Trazado 120860" d="M94.33,146.66a1.35,1.35,0,0,1,0-.35c0-.26,0-.58,0-1v-3.63c0-3.11,0-7.32.06-12v-3.4a20.189,20.189,0,0,0-.43-3.13,16.19,16.19,0,0,0-2.15-4.86c-.78-1.32-1.4-2.4-1.77-3.17-.19-.39-.32-.7-.4-.91a1.621,1.621,0,0,1-.11-.33,1.28,1.28,0,0,1,.16.3c.1.21.25.5.45.88.4.76,1,1.81,1.86,3.12a16,16,0,0,1,2.23,4.91,19.68,19.68,0,0,1,.45,3.17c.08,1.11,0,2.25,0,3.42-.06,4.66-.11,8.88-.15,12,0,1.5-.06,2.73-.08,3.63v1A1.22,1.22,0,0,1,94.33,146.66Z" fill="#0b3360"/>
      </g>
      <g id="Grupo_80676" data-name="Grupo 80676">
        <path id="Trazado_120861" data-name="Trazado 120861" d="M91,92.25a2.37,2.37,0,0,1-2.2-1,2.85,2.85,0,0,0,1.69-.1.96.96,0,0,0,.4-1.42c-.4-.42-.83-.26-1.27-.3a2.74,2.74,0,0,1-2.34-1.79,7.58,7.58,0,0,1,.1-3.41,9.38,9.38,0,0,0-3.93-8.65l-7.13-4.13a16.13,16.13,0,0,0-2.86,12,31.49,31.49,0,0,0,4.43,11.72,14.271,14.271,0,0,0,2.15,3,5.48,5.48,0,0,0,3.21,1.64,3.29,3.29,0,0,0-.53-3A7.21,7.21,0,0,0,88,94.86l-1.53-1.18A5.59,5.59,0,0,0,91,92.25Z" fill="#0b3360"/>
        <g id="Grupo_80672" data-name="Grupo 80672">
          <g id="Grupo_80671" data-name="Grupo 80671">
            <path id="Trazado_120862" data-name="Trazado 120862" d="M63.47,80.6a6.69,6.69,0,0,1,4.86-6.29l8.94-2.56c3.88-.53,6.62,4.18,7,8.09A62.13,62.13,0,0,1,84.56,92c-.84,6.54-5.81,7.53-5.81,7.53s.09,3,.14,4.87L78.8,119,65.6,104.69l-2.15-24C63.45,80.57,63.47,80.75,63.47,80.6Z" fill="#c17560"/>
            <path id="Trazado_120863" data-name="Trazado 120863" d="M83.13,84.82a.82.82,0,0,1-.78.86.8.8,0,0,1-.89-.72.84.84,0,0,1,.78-.87.81.81,0,0,1,.89.73Z" fill="#0b3360"/>
            <path id="Trazado_120864" data-name="Trazado 120864" d="M83.35,82.42c-.1.11-.74-.34-1.64-.31s-1.55.5-1.65.39,0-.24.33-.46A2.29,2.29,0,0,1,83,82C83.3,82.17,83.4,82.37,83.35,82.42Z" fill="#0b3360"/>
            <path id="Trazado_120865" data-name="Trazado 120865" d="M75.25,84.83a.82.82,0,0,1-.78.86.79.79,0,0,1-.88-.72.84.84,0,0,1,.78-.87.8.8,0,0,1,.88.73Z" fill="#0b3360"/>
            <path id="Trazado_120866" data-name="Trazado 120866" d="M74.81,82.66c-.1.11-.75-.34-1.65-.31s-1.54.5-1.64.4,0-.25.33-.47a2.39,2.39,0,0,1,1.31-.45,2.28,2.28,0,0,1,1.32.38C74.76,82.42,74.86,82.61,74.81,82.66Z" fill="#0b3360"/>
            <path id="Trazado_120867" data-name="Trazado 120867" d="M77.83,89.65a5.2,5.2,0,0,1,1.45-.31c.23,0,.44-.09.48-.24a1.17,1.17,0,0,0-.18-.68l-.73-1.73a30.33,30.33,0,0,1-1.67-4.52,29.219,29.219,0,0,1,2,4.38c.25.6.48,1.18.7,1.74a1.26,1.26,0,0,1,.15.89.54.54,0,0,1-.37.35,1.47,1.47,0,0,1-.38.07A6.471,6.471,0,0,1,77.83,89.65Z" fill="#0b3360"/>
            <path id="Trazado_120868" data-name="Trazado 120868" d="M70,97.47s2.25,4.41,8.76,3.6V99.54A16.5,16.5,0,0,1,70,97.47Z" fill="#7c4236"/>
            <path id="Trazado_120869" data-name="Trazado 120869" d="M74.44,79.76c-.08.25-1,.16-2,.32s-1.89.47-2,.26.08-.34.41-.59a3.53,3.53,0,0,1,1.51-.58,3.59,3.59,0,0,1,1.6.14C74.27,79.46,74.47,79.64,74.44,79.76Z" fill="#0b3360"/>
            <path id="Trazado_120870" data-name="Trazado 120870" d="M83,79.68c-.15.2-.78,0-1.52,0s-1.37.18-1.53,0,0-.3.3-.51a2.23,2.23,0,0,1,2.46,0C83,79.37,83.05,79.57,83,79.68Z" fill="#0b3360"/>
          </g>
          <path id="Trazado_120871" data-name="Trazado 120871" d="M74.45,91.4a1.17,1.17,0,0,1,1.19-.92,1.21,1.21,0,0,1,1,.64,1.53,1.53,0,0,1,.09,1.17v.09a1.35,1.35,0,0,1-1.49.36,1.26,1.26,0,0,1-.79-1.34Z" fill="#7c4236"/>
          <path id="Trazado_120872" data-name="Trazado 120872" d="M77.32,92.38c0-.14-.91-.07-1.61-.8s-.68-1.7-.81-1.7-.16.23-.14.64A2.3,2.3,0,0,0,75.38,92a2,2,0,0,0,1.36.6C77.12,92.56,77.34,92.44,77.32,92.38Z" fill="#0b3360"/>
        </g>
        <path id="Trazado_120873" data-name="Trazado 120873" d="M66.48,70.22a9,9,0,0,1,5.25-3.59,4.92,4.92,0,0,1,4.79,1.27,5.37,5.37,0,0,0,2.1,1.24,9,9,0,0,1,3.09.65c1.66.85,2.38,3.07,3.15,4.77,1,2.1,2.32,4,2.94,6.27s.29,5-1.59,6.32c.36-1.9.66-4-.39-5.65-.8-1.24-2.21-1.93-3.24-3-1.23-1.29-1.39-3-2.68-4.24-3-2.8-8.15,2.13-13.42-4" fill="#0b3360"/>
        <path id="Trazado_120874" data-name="Trazado 120874" d="M85.22,79.13a19.17,19.17,0,0,0-2.91-5.26A10.25,10.25,0,0,0,68.7,72.12h-.52A8.66,8.66,0,0,0,74.9,75.4c1.53,0,3.19-.4,4.51.39s1.74,2.35,2.78,3.39c.71.71,1.66,1.15,2.34,1.88A7.6,7.6,0,0,1,86,83.87C86.44,82.3,85.84,80.64,85.22,79.13Z" fill="#0b3360"/>
        <path id="Trazado_120875" data-name="Trazado 120875" d="M71.51,73.4l-4.18-3.68C64.07,69.55,62,72.63,60.87,75a50.23,50.23,0,0,0-1.72,5.59c-.64,1.89-1.67,3.65-2.25,5.57A6.71,6.71,0,0,0,57.38,92l.73-1.34a8.1,8.1,0,0,0,2.19,5c.1-.46.19-.93.28-1.4a7.87,7.87,0,0,0,3.15,3.39l2,5.23C68.58,94,61.13,93.36,71.51,73.4Z" fill="#0b3360"/>
        <path id="Trazado_120876" data-name="Trazado 120876" d="M70.91,74.16a19.13,19.13,0,0,1-1,3.5,6.71,6.71,0,0,1-2.15,2.88c-1.43,1-3.27,1.25-5,1.66s-3.51,1.21-4.22,2.8A41,41,0,0,1,60,78c.77-2.52,1.87-5.09,4-6.68a7.31,7.31,0,0,1,6.86-1" fill="#0b3360"/>
        <g id="Grupo_80675" data-name="Grupo 80675">
          <g id="Grupo_80673" data-name="Grupo 80673">
            <path id="Trazado_120877" data-name="Trazado 120877" d="M66.47,85.68c-.09-.22-4.15-1.56-4.08,2.71s4.23,3.21,4.23,3.09S66.47,85.68,66.47,85.68Z" fill="#c17560"/>
            <path id="Trazado_120878" data-name="Trazado 120878" d="M65.31,89.94s-.07,0-.19.11a.8.8,0,0,1-.54,0,1.81,1.81,0,0,1-.86-1.59,2.47,2.47,0,0,1,.19-1,.83.83,0,0,1,.53-.56.36.36,0,0,1,.43.19.2.2,0,0,1,0,.2A.357.357,0,0,0,65,87a.41.41,0,0,0-.16-.26.58.58,0,0,0-.4-.09,1,1,0,0,0-.75.65,2.56,2.56,0,0,0-.22,1.16,1.86,1.86,0,0,0,1.08,1.77.77.77,0,0,0,.66-.12C65.31,90,65.33,89.94,65.31,89.94Z" fill="#7c4236"/>
          </g>
          <g id="Grupo_80674" data-name="Grupo 80674">
            <path id="Trazado_120879" data-name="Trazado 120879" d="M64.86,90.68a.82.82,0,0,0-.35,1.59.84.84,0,0,0,1-.51.85.85,0,0,0-.45-1" fill="#fff"/>
            <path id="Trazado_120880" data-name="Trazado 120880" d="M65.06,90.74a1.06,1.06,0,0,1,.39.54.743.743,0,1,1-1.45.29.68.68,0,0,1,.22-.63,1.1,1.1,0,0,1,.62-.26h-.19a.83.83,0,0,0-.51.2.8.8,0,0,0-.31.75.9.9,0,0,0,.64.77.92.92,0,0,0,1-.31.85.85,0,0,0,.14-.81.91.91,0,0,0-.33-.43C65.13,90.74,65.06,90.73,65.06,90.74Z" fill="#0b3360"/>
          </g>
        </g>
        <path id="Trazado_120881" data-name="Trazado 120881" d="M71.18,74.44a12.54,12.54,0,0,0-1.62-2.68,12.31,12.31,0,0,0-2.44-2,2.26,2.26,0,0,1,.88.35,6.83,6.83,0,0,1,3,3.38A2.35,2.35,0,0,1,71.18,74.44Z" fill="#375a64"/>
      </g>
      <g id="Grupo_80683" data-name="Grupo 80683">
        <path id="Trazado_120882" data-name="Trazado 120882" d="M175.39,87.41a3.141,3.141,0,0,1,.12.5c.06.34.19.82.28,1.46a33.851,33.851,0,0,1,.43,5.46,36.9,36.9,0,0,1-.84,8.08,33.69,33.69,0,0,1-1.31,4.62,31.5,31.5,0,0,1-2.12,4.7,30,30,0,0,1-2.89,4.28,35.741,35.741,0,0,1-3.29,3.5,33.661,33.661,0,0,1-6.62,4.7,26.86,26.86,0,0,1-5.06,2.09c-.62.2-1.12.29-1.45.37a2.76,2.76,0,0,1-.5.1,3.278,3.278,0,0,1,.49-.16c.32-.1.82-.2,1.42-.42a28.869,28.869,0,0,0,5-2.17,34.071,34.071,0,0,0,6.54-4.72,36.423,36.423,0,0,0,3.25-3.48,31.73,31.73,0,0,0,2.86-4.24,31.409,31.409,0,0,0,2.1-4.65,34.32,34.32,0,0,0,1.32-4.58,37.942,37.942,0,0,0,.9-8,38.4,38.4,0,0,0-.34-5.44c-.07-.64-.18-1.13-.22-1.47a3.191,3.191,0,0,1-.07-.53Z" fill="#0b3360"/>
        <g id="Grupo_80679" data-name="Grupo 80679">
          <path id="Trazado_120883" data-name="Trazado 120883" d="M178.44,81.19a19.124,19.124,0,1,1-.04.01ZM155.08,67a33.43,33.43,0,0,1,20.3,15.9A33.78,33.78,0,1,1,155.08,67Z" fill="#0b3360"/>
          <path id="Trazado_120884" data-name="Trazado 120884" d="M117.45,111.21a2.774,2.774,0,0,1-.15-.27l-.38-.81c-.16-.36-.35-.79-.53-1.32s-.41-1.1-.58-1.77c-.1-.34-.2-.69-.3-1.06s-.16-.75-.25-1.15c-.19-.8-.29-1.67-.42-2.58a30.12,30.12,0,0,1,1-11.84c.29-.88.54-1.72.86-2.47.16-.38.29-.75.45-1.09s.33-.67.48-1a18.73,18.73,0,0,1,.89-1.65,11.182,11.182,0,0,1,.75-1.2l.51-.73c.11-.16.18-.25.19-.24a1.37,1.37,0,0,1-.14.28l-.46.76a13,13,0,0,0-.71,1.22,18.111,18.111,0,0,0-.84,1.66l-.45,1c-.16.34-.28.72-.43,1.09-.31.75-.55,1.58-.83,2.45a34.83,34.83,0,0,0-1.08,5.82,34.139,34.139,0,0,0,.05,5.92c.12.91.21,1.77.39,2.56.08.4.14.78.23,1.15s.19.71.27,1c.16.67.38,1.25.54,1.78a12.276,12.276,0,0,0,.48,1.32l.32.83a1.61,1.61,0,0,1,.14.34Z" fill="#0b3360"/>
          <path id="Trazado_120885" data-name="Trazado 120885" d="M122.55,117.57a2.449,2.449,0,0,1-1.21-.71c-.58-.53-.88-1.11-.81-1.15s.47.42,1,.93S122.59,117.5,122.55,117.57Z" fill="#0b3360"/>
          <g id="Grupo_80678" data-name="Grupo 80678">
            <g id="Grupo_80677" data-name="Grupo 80677">
              <path id="Trazado_120886" data-name="Trazado 120886" d="M112.28,80.91a36.68,36.68,0,1,1,51.27,47.42h0a36.67,36.67,0,0,1-51.27-47.42Zm64.26,29.92a34.21,34.21,0,1,0-14.19,15.36,34.21,34.21,0,0,0,14.19-15.36Z" fill="#375a64"/>
              <path id="Trazado_120887" data-name="Trazado 120887" d="M145.58,133.67a37.58,37.58,0,0,1-10.05-1.38,37,37,0,0,1-22.46-17.59,37.225,37.225,0,1,1,32.51,19Zm-.11-73.4a36.21,36.21,0,1,0,9.74,1.34,36.21,36.21,0,0,0-9.74-1.34Zm.11,70.94a34.83,34.83,0,1,1,31.49-20.13h0a34.85,34.85,0,0,1-31.49,20.13Zm-.11-68.48A33.66,33.66,0,1,0,176,110.58h0a33.68,33.68,0,0,0-30.54-47.85Z" fill="#375a64"/>
            </g>
            <path id="Trazado_120888" data-name="Trazado 120888" d="M43.12,165.41l-.66-1c-1.41-2.24.19-5.79,1.76-6.78l69.21-43.68c.35-.22.89,0,1.2.5l4.64,7.35c.31.5.29,1.08-.06,1.3L50.39,166.49C48.83,167.48,44.54,167.65,43.12,165.41Z" fill="#375a64"/>
          </g>
        </g>
        <g id="Grupo_80680" data-name="Grupo 80680">
          <path id="Trazado_120889" data-name="Trazado 120889" d="M107.61,130.66l2.1-2.22s-.25-5.06.61-6.3l.46-.74s-.45-2.47.87-3c.37-.94.86-1.31,1.51-.8,0,0-.37-1.85,1.36-2.1s2.23,7.6,2.23,7.6.86,3.52-1.12,3.52a4.47,4.47,0,0,1-2.34,1.36s-.37,2.1-2.1,2Z" fill="#c17560"/>
          <path id="Trazado_120890" data-name="Trazado 120890" d="M113,127a.7.7,0,0,1,.19.25,1.36,1.36,0,0,1,.1.87,1.93,1.93,0,0,1-.64,1.13,4.08,4.08,0,0,1-1.38.75,10.07,10.07,0,0,1-2.75.55,3.62,3.62,0,0,1-1.16-.06,18.07,18.07,0,0,0,3.82-.75,4,4,0,0,0,1.3-.68,1.78,1.78,0,0,0,.62-1A1.81,1.81,0,0,0,113,127Z" fill="#7c4236"/>
          <path id="Trazado_120891" data-name="Trazado 120891" d="M114.56,124.25c-.08,0-.09-1.58-.46-3.47s-1-3.35-.89-3.38a3,3,0,0,1,.46.93,14.54,14.54,0,0,1,.7,2.4,14.11,14.11,0,0,1,.26,2.48,3.11,3.11,0,0,1-.07,1.04Z" fill="#7c4236"/>
          <path id="Trazado_120892" data-name="Trazado 120892" d="M113.07,125.11c-.08,0-.23-1.53-.62-3.39s-.88-3.33-.8-3.35a16.27,16.27,0,0,1,1.42,6.74Z" fill="#7c4236"/>
          <path id="Trazado_120893" data-name="Trazado 120893" d="M115.83,125.05a1.083,1.083,0,0,1,.16,1.06c-.16.62-.64.9-.67.83a7.692,7.692,0,0,0,.4-.9C115.85,125.52,115.76,125.08,115.83,125.05Z" fill="#7c4236"/>
          <path id="Trazado_120894" data-name="Trazado 120894" d="M111,125.4a11.86,11.86,0,0,1-.16-1.92,10.19,10.19,0,0,1-.07-1.93,5.42,5.42,0,0,1,.35,1.91A4.86,4.86,0,0,1,111,125.4Z" fill="#7c4236"/>
        </g>
        <g id="Grupo_80681" data-name="Grupo 80681">
          <path id="Trazado_120895" data-name="Trazado 120895" d="M64.84,143.66a6.39,6.39,0,0,1,2-1.86c1.38-.81,4.13-1.13,4.65-2.06s1.37,0,.91,1.22a12.93,12.93,0,0,1-2.28,2.51,5,5,0,0,0,3.2.33c1.4-.5,6.06-1,6.42-.29s-.79.82-1.34,1-3.63,1.06-3.63,1.06,5.89.88,6.57,1.29-.2,1-.57.95a9.67,9.67,0,0,0-2.2,1.19,2.71,2.71,0,0,1-1.9.39l-1.37-.23,4,1.19s.59.78-.46.94c-.47.07-13.31-.42-14.3-.54-1.69-.21-4.42-.29-4.42-.29l2.1-7.66Z" fill="#c17560"/>
          <path id="Trazado_120896" data-name="Trazado 120896" d="M80.89,147.92a9.19,9.19,0,0,1-2.94.33,9.3,9.3,0,0,1-2.93-.36c0-.08,1.32.08,2.94.08S80.88,147.84,80.89,147.92Z" fill="#7c4236"/>
        </g>
        <path id="Trazado_120897" data-name="Trazado 120897" d="M54.69,139.75l5.88-12.12-5.19-15.75a10.47,10.47,0,0,0-3.91,3.4c-1.86,2.51-3.86,7.85-3.86,7.85S41.2,137.8,40.15,140s-2.76,6.25,0,8.52,21.2,2.34,21.2,2.34l2-8.16Z" fill="#71d9e7"/>
        <path id="Trazado_120898" data-name="Trazado 120898" d="M55.38,120.12c.08,0,1.46,4.07,3.07,9.15s2.86,9.23,2.78,9.25-1.45-4.07-3.07-9.16S55.3,120.14,55.38,120.12Z" fill="#0b3360"/>
        <path id="Trazado_120899" data-name="Trazado 120899" d="M63.31,142.69a2.83,2.83,0,0,1-.69-.15L60.79,142c-1.54-.44-3.67-1.08-6-1.7a24.44,24.44,0,0,0-6.13-1,8.24,8.24,0,0,0-2.51.5,2.42,2.42,0,0,1,.62-.33,6.21,6.21,0,0,1,1.88-.38,21.54,21.54,0,0,1,6.22.95c2.38.62,4.49,1.29,6,1.79.77.24,1.38.45,1.81.6a3.619,3.619,0,0,1,.63.26Z" fill="#0b3360"/>
        <g id="Grupo_80682" data-name="Grupo 80682" opacity="0.3">
          <path id="Trazado_120900" data-name="Trazado 120900" d="M56.72,124.13a59.72,59.72,0,0,0,.53,10.26l1.65-3.32a50.33,50.33,0,0,0-2.09-6.73"/>
        </g>
      </g>
      <g id="Grupo_80685" data-name="Grupo 80685">
        <rect id="Rectángulo_34824" data-name="Rectángulo 34824" width="7.64" height="27.53" transform="translate(152.14 84.31)" fill="#71d9e7"/>
        <g id="Grupo_80684" data-name="Grupo 80684">
          <rect id="Rectángulo_34825" data-name="Rectángulo 34825" width="7.64" height="12.5" transform="translate(128.2 100.51)" fill="#71d9e7"/>
          <rect id="Rectángulo_34826" data-name="Rectángulo 34826" width="7.64" height="19.29" transform="translate(140.01 93.71)" fill="#71d9e7"/>
          <path id="Trazado_120901" data-name="Trazado 120901" d="M157,75.21a1.62,1.62,0,0,1-.18.24l-.57.67c-.53.6-1.25,1.44-2.16,2.47-1.87,2.12-4.48,5.06-7.49,8.45l-.08.09-.11-.07L141.68,84h.2l-.18.21-9.92,11.63-.06.08-.08-.06-3.73-2.77-1-.77a1.7,1.7,0,0,1-.34-.28,2.67,2.67,0,0,1,.37.23l1,.72,3.78,2.69h-.14L141.46,84l.18-.21.09-.1.11.07,4.68,3.08h-.19l7.58-8.37,2.22-2.42.6-.63C156.87,75.27,156.94,75.2,157,75.21Z" fill="#0b3360"/>
          <path id="Trazado_120902" data-name="Trazado 120902" d="M157.19,81a10,10,0,0,1-.1-1.76c0-1.08-.05-2.59-.05-4.26l.18.15h-.16c-1.68.28-3.2.51-4.31.67A9.551,9.551,0,0,1,151,76a11,11,0,0,1,1.77-.4c1.09-.21,2.61-.47,4.3-.75h.32v4.41A10.468,10.468,0,0,1,157.19,81Z" fill="#0b3360"/>
        </g>
      </g>
    </g>
  </g>
</svg>
