<svg xmlns="http://www.w3.org/2000/svg" width="283.473" height="274.892" viewBox="0 0 283.473 274.892">
  <g id="Capa_1" data-name="Capa 1" transform="translate(-13.367 -16.63)">
    <g id="Grupo_80551" data-name="Grupo 80551">
      <g id="Grupo_80546" data-name="Grupo 80546">
        <rect id="Rectángulo_34768" data-name="Rectángulo 34768" width="78.22" height="52.37" transform="translate(44.39 69.01)" fill="#fff"/>
        <path id="Trazado_120382" data-name="Trazado 120382" d="M122.61,121.38V107.13c0-9.1,0-22.18-.06-38.12l.11.11H44.45l.15-.14v52.37l-.13-.13,56.36.07h0l-56.44.06h-.12V68.71h78.48V69c0,16,0,29.08-.06,38.19v13.25A4.3,4.3,0,0,1,122.61,121.38Z" fill="#e1e1e1"/>
      </g>
      <path id="Trazado_120383" data-name="Trazado 120383" d="M44.39,73.68c0-.08,17.5-.14,39.08-.14s39.08.06,39.08.14-17.49.14-39.08.14S44.39,73.76,44.39,73.68Z" fill="#e1e1e1"/>
      <g id="Grupo_80550" data-name="Grupo 80550">
        <g id="Grupo_80547" data-name="Grupo 80547" opacity="0.3">
          <path id="Trazado_120384" data-name="Trazado 120384" d="M47.48,71.32a.63.63,0,1,1-.63-.62.63.63,0,0,1,.63.62Z" fill="#e1e1e1"/>
        </g>
        <g id="Grupo_80548" data-name="Grupo 80548" opacity="0.3">
          <circle id="Elipse_5408" data-name="Elipse 5408" cx="0.63" cy="0.63" r="0.63" transform="translate(48.37 70.69)" fill="#e1e1e1"/>
        </g>
        <g id="Grupo_80549" data-name="Grupo 80549" opacity="0.3">
          <path id="Trazado_120385" data-name="Trazado 120385" d="M51.75,71.32a.63.63,0,1,1-.63-.62.63.63,0,0,1,.63.62Z" fill="#e1e1e1"/>
        </g>
      </g>
      <rect id="Rectángulo_34769" data-name="Rectángulo 34769" width="20.86" height="20.86" transform="translate(51.12 79.14)" fill="#e1e1e1"/>
      <path id="Trazado_120386" data-name="Trazado 120386" d="M111.89,85c0,.08-8.14.14-18.18.14S75.54,85.12,75.54,85s8.13-.14,18.17-.14S111.89,85,111.89,85Z" fill="#e1e1e1"/>
      <path id="Trazado_120387" data-name="Trazado 120387" d="M111.89,88.92c0,.08-8.14.14-18.18.14S75.54,89,75.54,88.92s8.13-.14,18.17-.14S111.89,88.84,111.89,88.92Z" fill="#e1e1e1"/>
      <path id="Trazado_120388" data-name="Trazado 120388" d="M111.89,92.8c0,.07-8.14.14-18.18.14s-18.17-.07-18.17-.14,8.13-.14,18.17-.14S111.89,92.72,111.89,92.8Z" fill="#e1e1e1"/>
      <path id="Trazado_120389" data-name="Trazado 120389" d="M97,96.67a4.739,4.739,0,0,1-.84.06H76.36a4.74,4.74,0,0,1-.84-.06,5.668,5.668,0,0,1,.84,0l2.3-.05h15.2l2.3.05A5.668,5.668,0,0,1,97,96.67Z" fill="#e1e1e1"/>
      <rect id="Rectángulo_34770" data-name="Rectángulo 34770" width="9.81" height="9.81" transform="translate(52.42 107.04)" fill="#e1e1e1"/>
      <rect id="Rectángulo_34771" data-name="Rectángulo 34771" width="9.81" height="9.81" transform="translate(70.21 107.04)" fill="#e1e1e1"/>
      <rect id="Rectángulo_34772" data-name="Rectángulo 34772" width="9.81" height="9.81" transform="translate(87.99 107.04)" fill="#e1e1e1"/>
      <rect id="Rectángulo_34773" data-name="Rectángulo 34773" width="9.81" height="9.81" transform="translate(105.77 107.04)" fill="#e1e1e1"/>
    </g>
    <g id="Grupo_80553" data-name="Grupo 80553">
      <g id="Grupo_80552" data-name="Grupo 80552">
        <path id="Trazado_120390" data-name="Trazado 120390" d="M268.87,86a8.9,8.9,0,0,1-1.66,1.75l.44,2.19-3.38,1.5-1.34-1.79a9.7,9.7,0,0,1-2.41.06l-1.24,1.85-3.45-1.33.32-2.21a9.141,9.141,0,0,1-1.74-1.66l-2.2.43-1.5-3.38,1.8-1.33a8.831,8.831,0,0,1-.06-2.41l-1.86-1.24L251.92,75l2.21.32a9.2,9.2,0,0,1,1.66-1.75l-.43-2.19,3.38-1.5,1.33,1.79a9.25,9.25,0,0,1,2.41-.06l1.25-1.85,3.45,1.33-.33,2.21A9.2,9.2,0,0,1,268.6,75l2.19-.43,1.5,3.38-1.79,1.33a9.249,9.249,0,0,1,.06,2.41l1.85,1.24-1.33,3.45Zm-3.73-3.77a3.081,3.081,0,1,0,0,.03Z" fill="none"/>
        <path id="Trazado_120391" data-name="Trazado 120391" d="M265.14,82.26a2.809,2.809,0,0,1-.43.89,3.94,3.94,0,0,1-2.14,1.57,4.08,4.08,0,0,1-1.86.11,4.19,4.19,0,0,1-1.94-.92A3.85,3.85,0,0,1,258,83a3.79,3.79,0,0,1-.5-1.12,4.07,4.07,0,0,1,.12-2.53,4.17,4.17,0,0,1,1.61-2,3.74,3.74,0,0,1,1.12-.5,4.23,4.23,0,0,1,1.16-.14,4.12,4.12,0,0,1,2.06.61,4.058,4.058,0,0,1,1.84,3.94,3,3,0,0,1-.28.94,7.7,7.7,0,0,0,.19-1,3.94,3.94,0,0,0-.58-2.51,4.13,4.13,0,0,0-1.27-1.26,4,4,0,0,0-2-.56,3.78,3.78,0,0,0-1.1.14,3.86,3.86,0,0,0-1.06.47,3.93,3.93,0,0,0-1.51,1.86,3.81,3.81,0,0,0-.12,2.4,3.42,3.42,0,0,0,.46,1.05,3.691,3.691,0,0,0,.72.85,4,4,0,0,0,1.83.89,3.77,3.77,0,0,0,1.78-.08,3.94,3.94,0,0,0,2.12-1.46A7.057,7.057,0,0,0,265.14,82.26Z" fill="#e1e1e1"/>
        <path id="Trazado_120392" data-name="Trazado 120392" d="M268.87,86H269l.42.06,1.66.22h0c.34-.88.78-2,1.31-3.46v.07l-1.86-1.23h0a8.81,8.81,0,0,0-.07-2.39h0l1.79-1.34v.1c-.48-1.06-1-2.19-1.51-3.38l.1.05-2.19.44h-.06a9,9,0,0,0-1.73-1.64h-.05v-.06c.1-.68.2-1.44.32-2.21l.06.11-3.45-1.32h.12c-.38.58-.81,1.21-1.24,1.85v.06h-.07a9.119,9.119,0,0,0-2.38.06H260L258.65,70h.13l-3.37,1.5.06-.12c.14.69.28,1.44.43,2.19v.07h-.06a9,9,0,0,0-1.64,1.72h-.62l-.55-.08-1.11-.16.13-.07c-.45,1.16-.9,2.31-1.33,3.45v-.14l1.86,1.25h.05v.07a9,9,0,0,0,.05,2.38v.07h-.06l-1.79,1.33v-.13l1.5,3.38-.12-.06,2.2-.43h.06A8.89,8.89,0,0,0,256.21,88h.05v.06c-.11.75-.22,1.49-.33,2.21l-.06-.11,3.45,1.34h-.1l1.24-1.85h0a9,9,0,0,0,2.39-.06h0l1.33,1.8h-.08l3.38-1.49v.06l-.42-2.2h0a9.34,9.34,0,0,0,1.3-1.26l.29-.35.09-.11-.08.13a3.071,3.071,0,0,1-.27.35,7.9,7.9,0,0,1-1.28,1.29h0c.12.6.27,1.31.45,2.19h0l-3.38,1.52h-.05l-1.34-1.79h.07a9.26,9.26,0,0,1-2.43.07h.08c-.4.59-.8,1.21-1.24,1.86v.06h-.06l-3.46-1.32h-.07v-.07c.11-.72.21-1.45.32-2.21v.09a9,9,0,0,1-1.76-1.68h.1l-2.2.43h-.08v-.08c-.49-1.09-1-2.22-1.5-3.37v-.08h.07L252.44,82v.11a9.48,9.48,0,0,1-.07-2.44v.1l-1.85-1.24h-.08v-.09L251.81,75v-.08h.09l1.1.16.55.08.28.05h.28c-.22.09-.06,0-.11,0h0a9.459,9.459,0,0,1,1.68-1.77v.11c-.15-.75-.29-1.5-.43-2.19v-.09h.08l3.38-1.5h.09l.05.07,1.33,1.8-.1-.05a9,9,0,0,1,2.43,0h-.1l1.25-1.85.05-.07h.07L267.21,71h.08v.08c-.12.77-.23,1.53-.33,2.21V73.2a9.13,9.13,0,0,1,1.76,1.68h-.09l2.19-.43h.07v.06c.53,1.19,1,2.32,1.49,3.38v.06h-.05l-1.8,1.33v-.07a9.509,9.509,0,0,1,.06,2.43v-.06l1.85,1.25h0c-.55,1.41-1,2.57-1.35,3.45h0l-1.64-.26-.42-.07Z" fill="#e1e1e1"/>
      </g>
      <path id="Trazado_120393" data-name="Trazado 120393" d="M288.53,75.51A7.32,7.32,0,0,1,287.15,77l.36,1.82L284.71,80l-1.11-1.48a7.859,7.859,0,0,1-2,0l-1,1.54L277.71,79l.27-1.83a7.32,7.32,0,0,1-1.45-1.38l-1.82.36-1.24-2.8L275,72.26a7.849,7.849,0,0,1-.05-2l-1.54-1,1.11-2.86,1.83.27a7.319,7.319,0,0,1,1.38-1.45l-.36-1.82,2.8-1.24,1.11,1.48a7.86,7.86,0,0,1,2,0l1-1.54,2.86,1.11L286.85,65a7.32,7.32,0,0,1,1.45,1.38l1.82-.36,1.25,2.8-1.49,1.11a7.859,7.859,0,0,1,.05,2l1.54,1-1.11,2.86-1.83-.27Zm-3.1-3.12a3.28,3.28,0,1,0-1.732,1.829A3.29,3.29,0,0,0,285.43,72.39Z" fill="#e1e1e1" fill-rule="evenodd"/>
      <path id="Trazado_120394" data-name="Trazado 120394" d="M276.45,58.43a11.641,11.641,0,0,1-2.16,2.27l.56,2.85-4.39,2-1.74-2.33a12.2,12.2,0,0,1-3.14.08L264,65.66l-4.49-1.73.42-2.87a11.64,11.64,0,0,1-2.27-2.16l-2.85.56-2-4.4,2.34-1.73a11.371,11.371,0,0,1-.08-3.14l-2.42-1.62,1.73-4.49,2.88.42a11.639,11.639,0,0,1,2.16-2.27l-.56-2.85,4.39-2L265,39.76a12.2,12.2,0,0,1,3.14-.08l1.61-2.41L274.24,39l-.42,2.88A11.64,11.64,0,0,1,276.09,44l2.86-.56,1.95,4.39-2.34,1.74a11.3,11.3,0,0,1,.08,3.13l2.42,1.62-1.73,4.49-2.88-.42Zm-4.85-4.9a5.16,5.16,0,1,0-2.712,2.886A5.16,5.16,0,0,0,271.6,53.53Z" fill="#e1e1e1" fill-rule="evenodd"/>
    </g>
    <g id="Grupo_80555" data-name="Grupo 80555">
      <path id="Trazado_120395" data-name="Trazado 120395" d="M232.35,34.62a2.241,2.241,0,0,1,.33-.38l.95-1c.81-.8,1.93-1.89,3.19-3.08h0v.16c-1.27-1.17-2.4-2.24-3.21-3l-1-.93a2.23,2.23,0,0,1-.33-.36,3.072,3.072,0,0,1,.39.3l1,.88c.84.75,2,1.8,3.26,3l.08.08-.08.08h0c-1.25,1.19-2.4,2.27-3.23,3l-1,.91a2.2,2.2,0,0,1-.35.34Z" fill="#e1e1e1"/>
      <path id="Trazado_120396" data-name="Trazado 120396" d="M222.6,26a2,2,0,0,1-.32.37c-.26.26-.58.57-.95.95-.81.8-1.94,1.89-3.19,3.09h0v-.16c1.26,1.18,2.4,2.25,3.21,3l1,.93a1.919,1.919,0,0,1,.33.37,2.45,2.45,0,0,1-.38-.31l-1-.88c-.84-.75-2-1.8-3.25-3l-.09-.08.09-.08h0c1.25-1.2,2.39-2.27,3.23-3l1-.91C222.46,26.12,222.59,26,222.6,26Z" fill="#e1e1e1"/>
      <path id="Trazado_120397" data-name="Trazado 120397" d="M225.11,36.64c-.06,0,1-2.9,2.28-6.42s2.44-6.37,2.49-6.35-1,2.9-2.28,6.43S225.16,36.66,225.11,36.64Z" fill="#e1e1e1"/>
      <path id="Trazado_120398" data-name="Trazado 120398" d="M243.43,42.8V16.96l.09.09H211.81l.11-.11V42.78l-.1-.1h-.14V16.63h31.91V42.38A.479.479,0,0,1,243.43,42.8Z" fill="#e1e1e1"/>
      <path id="Trazado_120399" data-name="Trazado 120399" d="M243.68,20.79c0,.06-7.16.11-16,.11s-16,0-16-.11,7.16-.11,16-.11S243.68,20.73,243.68,20.79Z" fill="#e1e1e1"/>
      <g id="Grupo_80554" data-name="Grupo 80554">
        <path id="Trazado_120400" data-name="Trazado 120400" d="M214.31,18.9a.43.43,0,1,1-.43-.42.43.43,0,0,1,.43.42Z" fill="#e1e1e1"/>
        <circle id="Elipse_5409" data-name="Elipse 5409" cx="0.43" cy="0.43" r="0.43" transform="translate(215.01 18.47)" fill="#e1e1e1"/>
        <path id="Trazado_120401" data-name="Trazado 120401" d="M217.42,18.9a.43.43,0,1,1-.425-.365A.43.43,0,0,1,217.42,18.9Z" fill="#e1e1e1"/>
      </g>
    </g>
    <g id="Grupo_80562" data-name="Grupo 80562">
      <g id="Grupo_80556" data-name="Grupo 80556">
        <rect id="Rectángulo_34774" data-name="Rectángulo 34774" width="73.33" height="29.78" transform="translate(108.8 29.42)" fill="#fff"/>
        <path id="Trazado_120402" data-name="Trazado 120402" d="M182.13,59.2V29.42l.08.08H108.89l.12-.12V59.16l-.11-.11,52.57.06h.08l-52.65.06h-.11V29.3h73.53v.08c0,9.22,0,16.68-.05,21.83v7.44A1.661,1.661,0,0,0,182.13,59.2Z" fill="#e1e1e1"/>
      </g>
      <path id="Trazado_120403" data-name="Trazado 120403" d="M108.87,33.44c0-.07,16.39-.12,36.61-.12s36.6,0,36.6.12-16.38.11-36.6.11S108.87,33.5,108.87,33.44Z" fill="#e1e1e1"/>
      <g id="Grupo_80560" data-name="Grupo 80560">
        <g id="Grupo_80557" data-name="Grupo 80557" opacity="0.3">
          <path id="Trazado_120404" data-name="Trazado 120404" d="M111.94,31.64a.53.53,0,1,1-.53-.53A.53.53,0,0,1,111.94,31.64Z" fill="#ececec"/>
        </g>
        <g id="Grupo_80558" data-name="Grupo 80558" opacity="0.3">
          <path id="Trazado_120405" data-name="Trazado 120405" d="M113.77,31.64a.54.54,0,1,1-.53-.53A.53.53,0,0,1,113.77,31.64Z" fill="#ececec"/>
        </g>
        <g id="Grupo_80559" data-name="Grupo 80559" opacity="0.3">
          <circle id="Elipse_5410" data-name="Elipse 5410" cx="0.53" cy="0.53" r="0.53" transform="translate(114.5 31.11)" fill="#ececec"/>
        </g>
      </g>
      <rect id="Rectángulo_34775" data-name="Rectángulo 34775" width="17.71" height="17.71" transform="translate(115.03 38.28)" fill="#e1e1e1"/>
      <g id="Grupo_80561" data-name="Grupo 80561">
        <path id="Trazado_120406" data-name="Trazado 120406" d="M177.05,43c0,.07-9.11.12-20.35.12s-20.36,0-20.36-.12,9.12-.11,20.36-.11S177.05,43,177.05,43Z" fill="#e1e1e1"/>
        <path id="Trazado_120407" data-name="Trazado 120407" d="M177.05,46.63c0,.07-9.11.12-20.35.12s-20.36,0-20.36-.12,9.12-.11,20.36-.11S177.05,46.57,177.05,46.63Z" fill="#e1e1e1"/>
        <path id="Trazado_120408" data-name="Trazado 120408" d="M162.55,50.24a.8.8,0,0,1-.27,0H136.61a.85.85,0,0,1-.27,0,.85.85,0,0,1,.27,0h25.67A.8.8,0,0,1,162.55,50.24Z" fill="#e1e1e1"/>
      </g>
    </g>
    <path id="Trazado_120409" data-name="Trazado 120409" d="M296.84,274.32c0,.09-62.33.16-139.21.16s-139.22-.07-139.22-.16,62.32-.16,139.22-.16S296.84,274.23,296.84,274.32Z" fill="#0b3360"/>
    <g id="Grupo_80569" data-name="Grupo 80569">
      <rect id="Rectángulo_34776" data-name="Rectángulo 34776" width="87.54" height="71.31" transform="translate(185.76 80.87)" fill="#e1e1e1"/>
      <rect id="Rectángulo_34777" data-name="Rectángulo 34777" width="87.54" height="71.31" transform="translate(179.53 85.4)" fill="#ececec"/>
      <g id="Grupo_80563" data-name="Grupo 80563">
        <rect id="Rectángulo_34778" data-name="Rectángulo 34778" width="89.87" height="73.22" transform="translate(170.96 90.37)" fill="#fff"/>
        <path id="Trazado_120410" data-name="Trazado 120410" d="M260.83,163.58V143.49c0-12.78,0-31.07-.07-53.12l.14.13H171.04l.16-.16v73.21l-.14-.14,64.94.07h.06l-65,.07h-.15V90.03H261v.14c0,22.09-.06,40.4-.07,53.2v18.69A10.9,10.9,0,0,1,260.83,163.58Z" fill="#0b3360"/>
      </g>
      <g id="Grupo_80564" data-name="Grupo 80564">
        <path id="Trazado_120411" data-name="Trazado 120411" d="M181.91,101l-1,.35,1,.35v.3l-1.38-.53v-.38l1.38-.52Z" fill="#4dd0e1"/>
        <path id="Trazado_120412" data-name="Trazado 120412" d="M184.19,100.29v2h-.47v-.83h-.92v.83h-.47v-2h.47v.8h.92v-.8Z" fill="#4dd0e1"/>
        <path id="Trazado_120413" data-name="Trazado 120413" d="M185.09,100.67h-.65v-.38h1.77v.38h-.65v1.65h-.47Z" fill="#4dd0e1"/>
        <path id="Trazado_120414" data-name="Trazado 120414" d="M188.3,102.32V101.1l-.6,1h-.21l-.59-1v1.19h-.44v-2h.39l.75,1.26.75-1.26h.39v2Z" fill="#4dd0e1"/>
        <path id="Trazado_120415" data-name="Trazado 120415" d="M189.22,100.29h.47v1.64h1v.39H189.2Z" fill="#4dd0e1"/>
        <path id="Trazado_120416" data-name="Trazado 120416" d="M192.29,101.11v.38l-1.38.53v-.37l1-.35-1-.35v-.36Z" fill="#4dd0e1"/>
      </g>
      <g id="Grupo_80565" data-name="Grupo 80565">
        <path id="Trazado_120417" data-name="Trazado 120417" d="M181.09,156.47l-1,.35,1,.35v.37l-1.38-.53v-.37l1.38-.53Z" fill="#4dd0e1"/>
        <path id="Trazado_120418" data-name="Trazado 120418" d="M182.13,155.4h.4l-.95,2.73h-.41Z" fill="#4dd0e1"/>
        <path id="Trazado_120419" data-name="Trazado 120419" d="M184.5,155.81v2H184V157h-.92v.83h-.47v-2h.47v.8H184v-.8Z" fill="#4dd0e1"/>
        <path id="Trazado_120420" data-name="Trazado 120420" d="M185.4,156.19h-.65v-.38h1.77v.38h-.65v1.65h-.47Z" fill="#4dd0e1"/>
        <path id="Trazado_120421" data-name="Trazado 120421" d="M188.62,157.84v-1.22l-.59,1h-.21l-.6-1v1.19h-.44v-2h.39l.76,1.26.75-1.26h.38v2Z" fill="#4dd0e1"/>
        <path id="Trazado_120422" data-name="Trazado 120422" d="M189.54,155.81H190v1.65h1v.38h-1.48Z" fill="#4dd0e1"/>
        <path id="Trazado_120423" data-name="Trazado 120423" d="M192.6,156.64V157l-1.38.53v-.37l1-.35-1-.35v-.36Z" fill="#4dd0e1"/>
      </g>
      <g id="Grupo_80566" data-name="Grupo 80566">
        <path id="Trazado_120424" data-name="Trazado 120424" d="M188.28,106.5l-1,.4,1,.4v.24L187,107v-.25l1.3-.51Z"/>
        <path id="Trazado_120425" data-name="Trazado 120425" d="M190.52,105.88v2h-.29V107h-1.17v.9h-.29v-2h.29v.88h1.17v-.88Z"/>
        <path id="Trazado_120426" data-name="Trazado 120426" d="M192.6,107.66v.25h-1.47v-2h1.43v.26h-1.15v.62h1V107h-1v.65Z"/>
        <path id="Trazado_120427" data-name="Trazado 120427" d="M194.36,107.41h-1.08l-.22.5h-.3l.92-2H194l.92,2h-.3Zm-.1-.24-.44-1-.44,1Z"/>
        <path id="Trazado_120428" data-name="Trazado 120428" d="M195.18,105.88H196a1,1,0,0,1,0,2h-.86Zm.84,1.78a.76.76,0,0,0,0-1.52h-.55v1.52Z"/>
        <path id="Trazado_120429" data-name="Trazado 120429" d="M198.76,106.77V107l-1.3.52v-.24l1-.4-1-.4v-.24Z"/>
        <path id="Trazado_120430" data-name="Trazado 120430" d="M188.28,113.45l-1,.4,1,.39v.24L187,114v-.25l1.3-.51Z"/>
        <path id="Trazado_120431" data-name="Trazado 120431" d="M189.18,113.08h-.7v-.25h1.68v.25h-.7v1.78h-.28Z"/>
        <path id="Trazado_120432" data-name="Trazado 120432" d="M190.47,112.83h.29v2h-.29Z"/>
        <path id="Trazado_120433" data-name="Trazado 120433" d="M191.77,113.08h-.69v-.25h1.68v.25h-.7v1.78h-.29Z"/>
        <path id="Trazado_120434" data-name="Trazado 120434" d="M193.07,112.83h.29v1.78h1.1v.25h-1.39Z"/>
        <path id="Trazado_120435" data-name="Trazado 120435" d="M196.26,114.61v.25h-1.47v-2h1.43v.25h-1.14v.63h1V114h-1v.66Z"/>
        <path id="Trazado_120436" data-name="Trazado 120436" d="M197.92,113.72V114l-1.3.51v-.24l1-.39-1-.4v-.24Z"/>
        <path id="Trazado_120437" data-name="Trazado 120437" d="M199.19,112.83h.29v1.78h1.1v.25h-1.39Z"/>
        <path id="Trazado_120438" data-name="Trazado 120438" d="M200.71,114.09a.8.8,0,1,1,.8.8.8.8,0,0,1-.8-.8Zm1.31,0a.52.52,0,1,0-.51.54.5.5,0,0,0,.49-.54Z"/>
        <path id="Trazado_120439" data-name="Trazado 120439" d="M203.51,113.31v.27h-.06a.45.45,0,0,0-.48.51v.77h-.28v-1.54H203v.26a.57.57,0,0,1,.51-.27Z"/>
        <path id="Trazado_120440" data-name="Trazado 120440" d="M205.22,114.18H204a.51.51,0,0,0,.55.45.61.61,0,0,0,.45-.18l.15.18a.78.78,0,0,1-.61.25.77.77,0,0,1-.82-.79.75.75,0,0,1,.77-.78.74.74,0,0,1,.76.79A.22.22,0,0,1,205.22,114.18ZM204,114h1a.48.48,0,0,0-.49-.44.47.47,0,0,0-.51.44Z"/>
        <path id="Trazado_120441" data-name="Trazado 120441" d="M208.16,114v.88h-.28V114c0-.3-.14-.45-.39-.45a.45.45,0,0,0-.46.51v.79h-.28V114c0-.3-.15-.45-.4-.45a.45.45,0,0,0-.46.51v.79h-.28v-1.54h.27v.23a.64.64,0,0,1,.53-.24.57.57,0,0,1,.53.28.7.7,0,0,1,.59-.28.59.59,0,0,1,.63.7Z"/>
        <path id="Trazado_120442" data-name="Trazado 120442" d="M209.4,112.85a.18.18,0,0,1,.19-.18.17.17,0,0,1,.19.17.19.19,0,1,1-.38.01Zm0,.47h.28v1.54h-.28Z"/>
        <path id="Trazado_120443" data-name="Trazado 120443" d="M211.85,114.09a.75.75,0,0,1-.78.79.66.66,0,0,1-.53-.25v.79h-.28v-2.1h.26v.25a.68.68,0,0,1,.55-.26.75.75,0,0,1,.78.78Zm-.28,0a.52.52,0,1,0-.2.567.52.52,0,0,0,.2-.567Z"/>
        <path id="Trazado_120444" data-name="Trazado 120444" d="M212,114.7l.11-.22a1,1,0,0,0,.54.16c.26,0,.37-.08.37-.21,0-.35-1-.05-1-.66,0-.28.24-.46.64-.46a1.11,1.11,0,0,1,.56.14l-.12.22a.79.79,0,0,0-.44-.12c-.25,0-.37.09-.37.21,0,.36,1,.07,1,.66,0,.28-.26.46-.67.46A1.12,1.12,0,0,1,212,114.7Z"/>
        <path id="Trazado_120445" data-name="Trazado 120445" d="M215.11,113.32v1.54h-.26v-.23a.61.61,0,0,1-.52.25.6.6,0,0,1-.66-.67v-.89H214v.86c0,.3.15.45.41.45a.46.46,0,0,0,.48-.51v-.8Z"/>
        <path id="Trazado_120446" data-name="Trazado 120446" d="M218.19,114v.88h-.28V114c0-.3-.14-.45-.39-.45a.45.45,0,0,0-.46.51v.79h-.28V114c0-.3-.15-.45-.4-.45a.45.45,0,0,0-.46.51v.79h-.28v-1.54h.27v.23a.64.64,0,0,1,.53-.24.57.57,0,0,1,.53.28.7.7,0,0,1,.59-.28.59.59,0,0,1,.63.7Z"/>
        <path id="Trazado_120447" data-name="Trazado 120447" d="M220.71,113.45l-1,.4,1,.39v.24l-1.3-.51v-.25l1.3-.51Z"/>
        <path id="Trazado_120448" data-name="Trazado 120448" d="M221.78,112.42H222l-1,2.73h-.25Z"/>
        <path id="Trazado_120449" data-name="Trazado 120449" d="M222.71,113.08H222v-.25h1.68v.25H223v1.78h-.29Z"/>
        <path id="Trazado_120450" data-name="Trazado 120450" d="M224,112.83h.29v2H224Z"/>
        <path id="Trazado_120451" data-name="Trazado 120451" d="M225.31,113.08h-.69v-.25h1.67v.25h-.69v1.78h-.29Z"/>
        <path id="Trazado_120452" data-name="Trazado 120452" d="M226.61,112.83h.29v1.78H228v.25h-1.39Z"/>
        <path id="Trazado_120453" data-name="Trazado 120453" d="M229.8,114.61v.25h-1.47v-2h1.43v.25h-1.14v.63h1V114h-1v.66Z"/>
        <path id="Trazado_120454" data-name="Trazado 120454" d="M231.45,113.72V114l-1.29.51v-.24l1-.39-1-.4v-.24Z"/>
        <path id="Trazado_120455" data-name="Trazado 120455" d="M188.28,120.4l-1,.39,1,.4v.24l-1.3-.51v-.25l1.3-.51Z"/>
        <path id="Trazado_120456" data-name="Trazado 120456" d="M189.35,119.37h.25l-1,2.73h-.25Z"/>
        <path id="Trazado_120457" data-name="Trazado 120457" d="M191.54,119.78v2h-.29v-.91h-1.17v.91h-.29v-2h.29v.87h1.17v-.87Z"/>
        <path id="Trazado_120458" data-name="Trazado 120458" d="M193.62,121.55v.26h-1.48v-2h1.43V120h-1.14v.62h1v.25h-1v.65Z"/>
        <path id="Trazado_120459" data-name="Trazado 120459" d="M195.38,121.3H194.3l-.23.51h-.29l.91-2H195l.92,2h-.3Zm-.11-.23-.43-1-.44,1Z"/>
        <path id="Trazado_120460" data-name="Trazado 120460" d="M196.2,119.78h.86a1,1,0,0,1,0,2h-.86Zm.84,1.77a.76.76,0,0,0,0-1.52h-.55v1.52Z"/>
        <path id="Trazado_120461" data-name="Trazado 120461" d="M199.78,120.67v.25l-1.3.51v-.24l1-.4-1-.39v-.24Z"/>
      </g>
      <g id="Grupo_80567" data-name="Grupo 80567">
        <path id="Trazado_120462" data-name="Trazado 120462" d="M182.9,126.43l-1,.39,1,.4v.24l-1.3-.51v-.25l1.3-.52Z"/>
        <path id="Trazado_120463" data-name="Trazado 120463" d="M185.14,127.29c0,.35-.27.55-.78.55h-1v-2h.91c.47,0,.73.19.73.52a.47.47,0,0,1-.27.45A.5.5,0,0,1,185.14,127.29ZM183.68,126v.65h.6c.29,0,.46-.11.46-.32s-.17-.33-.46-.33Zm1.16,1.23c0-.24-.17-.34-.49-.34h-.67v.67h.67c.32.04.49-.06.49-.29Z"/>
        <path id="Trazado_120464" data-name="Trazado 120464" d="M185.42,126.82a1.08,1.08,0,1,1,1.08,1,1,1,0,0,1-1.08-1Zm1.87,0a.79.79,0,1,0-.79.78.76.76,0,0,0,.79-.78Z"/>
        <path id="Trazado_120465" data-name="Trazado 120465" d="M188,125.81h.85a1,1,0,0,1,0,2H188Zm.83,1.77a.76.76,0,0,0,0-1.52h-.54v1.52Z"/>
        <path id="Trazado_120466" data-name="Trazado 120466" d="M191.1,127.14v.7h-.29v-.71l-.81-1.32h.31l.65,1.07.66-1.07h.28Z"/>
        <path id="Trazado_120467" data-name="Trazado 120467" d="M193.38,126.7v.3l-1.3.51v-.24l1-.4-1-.39v-.25Z"/>
        <path id="Trazado_120468" data-name="Trazado 120468" d="M182.9,133.37l-1,.4,1,.4v.24l-1.3-.52v-.24l1.3-.52Z"/>
        <path id="Trazado_120469" data-name="Trazado 120469" d="M185.14,132.76v2h-.29v-.9h-1.17v.9h-.29v-2h.29v.87h1.17v-.87Z"/>
        <path id="Trazado_120470" data-name="Trazado 120470" d="M186.21,132.76v2h-.29V133h-.46v-.25Z"/>
        <path id="Trazado_120471" data-name="Trazado 120471" d="M188,133.65v.24l-1.3.52v-.24l1-.4-1-.4v-.24Z"/>
        <path id="Trazado_120472" data-name="Trazado 120472" d="M189.3,132.76h.22v1.84h1.13v.18H189.3Z"/>
        <path id="Trazado_120473" data-name="Trazado 120473" d="M190.79,134a.78.78,0,1,1,.36.748.78.78,0,0,1-.36-.748Zm1.34,0a.57.57,0,1,0-.57.6.56.56,0,0,0,.57-.6Z"/>
        <path id="Trazado_120474" data-name="Trazado 120474" d="M193.52,133.25v.2h0a.5.5,0,0,0-.52.57v.77h-.2v-1.52h.2v.3a.58.58,0,0,1,.52-.32Z"/>
        <path id="Trazado_120475" data-name="Trazado 120475" d="M195.21,134.09h-1.28a.58.58,0,0,0,.6.53.62.62,0,0,0,.47-.2l.12.13a.77.77,0,0,1-.59.25.76.76,0,0,1-.8-.78.74.74,0,0,1,1.48,0Zm-1.28-.16H195a.53.53,0,0,0-.54-.51.54.54,0,0,0-.53.51Z"/>
        <path id="Trazado_120476" data-name="Trazado 120476" d="M198.14,133.9v.88h-.2v-.86c0-.32-.16-.49-.44-.49a.49.49,0,0,0-.51.55v.8h-.2v-.86c0-.32-.17-.49-.44-.49a.49.49,0,0,0-.51.55v.8h-.21v-1.52h.2v.28a.61.61,0,0,1,.56-.29.56.56,0,0,1,.54.32.65.65,0,0,1,.6-.32.57.57,0,0,1,.61.65Z"/>
        <path id="Trazado_120477" data-name="Trazado 120477" d="M199.41,132.78a.15.15,0,1,1,.15.15A.15.15,0,0,1,199.41,132.78Zm.05.48h.2v1.52h-.2Z"/>
        <path id="Trazado_120478" data-name="Trazado 120478" d="M201.78,134a.74.74,0,0,1-.76.78.69.69,0,0,1-.58-.3v.85h-.2v-2.09h.19v.3a.68.68,0,0,1,.59-.31.73.73,0,0,1,.76.77Zm-.2,0a.56.56,0,0,0-.57-.59.6.6,0,0,0,0,1.19.57.57,0,0,0,.57-.6Z"/>
        <path id="Trazado_120479" data-name="Trazado 120479" d="M202,134.61l.09-.16a1,1,0,0,0,.54.17c.29,0,.41-.1.41-.25,0-.4-1-.08-1-.69,0-.25.22-.43.61-.43a1,1,0,0,1,.53.14l-.08.16a.84.84,0,0,0-.45-.13c-.28,0-.4.11-.4.26,0,.41,1,.1,1,.68,0,.27-.23.44-.63.44A1,1,0,0,1,202,134.61Z"/>
        <path id="Trazado_120480" data-name="Trazado 120480" d="M205,133.26v1.52h-.2v-.27a.61.61,0,0,1-.55.29.59.59,0,0,1-.64-.66v-.88h.21v.86c0,.33.16.49.45.49a.49.49,0,0,0,.52-.55v-.8Z"/>
        <path id="Trazado_120481" data-name="Trazado 120481" d="M208.08,133.9v.88h-.21v-.86c0-.32-.16-.49-.43-.49a.49.49,0,0,0-.51.55v.8h-.21v-.86c0-.32-.16-.49-.44-.49a.49.49,0,0,0-.51.55v.8h-.21v-1.52h.2v.28a.62.62,0,0,1,.56-.29.55.55,0,0,1,.54.32.66.66,0,0,1,.6-.32.57.57,0,0,1,.62.65Z"/>
        <path id="Trazado_120482" data-name="Trazado 120482" d="M210.78,132.63v2.15h-.19v-.3a.67.67,0,0,1-.59.32.74.74,0,0,1-.76-.78.73.73,0,0,1,.76-.77.67.67,0,0,1,.58.3v-.92Zm-.2,1.39a.57.57,0,1,0-.56.6.55.55,0,0,0,.56-.62Z"/>
        <path id="Trazado_120483" data-name="Trazado 120483" d="M211.2,134a.78.78,0,1,1,.78.78.76.76,0,0,1-.78-.78Zm1.34,0a.57.57,0,1,0-.56.6.55.55,0,0,0,.56-.6Z"/>
        <path id="Trazado_120484" data-name="Trazado 120484" d="M213.17,132.63h.21v2.15h-.21Z"/>
        <path id="Trazado_120485" data-name="Trazado 120485" d="M213.8,134a.78.78,0,1,1,.36.748A.78.78,0,0,1,213.8,134Zm1.34,0a.56.56,0,0,0-.57-.59.6.6,0,1,0,.57.59Z"/>
        <path id="Trazado_120486" data-name="Trazado 120486" d="M216.53,133.25v.2h-.05c-.32,0-.51.21-.51.57v.77h-.21v-1.52h.2v.3A.58.58,0,0,1,216.53,133.25Z"/>
        <path id="Trazado_120487" data-name="Trazado 120487" d="M217.47,134.61l.09-.16a1,1,0,0,0,.55.17c.29,0,.4-.1.4-.25,0-.4-1-.08-1-.69,0-.25.21-.43.6-.43a1,1,0,0,1,.54.14l-.09.16a.79.79,0,0,0-.45-.13c-.28,0-.4.11-.4.26,0,.41,1,.1,1,.68,0,.27-.23.44-.63.44A1,1,0,0,1,217.47,134.61Z"/>
        <path id="Trazado_120488" data-name="Trazado 120488" d="M219.05,132.78a.15.15,0,1,1,.15.15A.15.15,0,0,1,219.05,132.78Zm0,.48h.2v1.52h-.2Z"/>
        <path id="Trazado_120489" data-name="Trazado 120489" d="M220.68,134.69a.5.5,0,0,1-.32.11.41.41,0,0,1-.45-.45v-.92h-.27v-.17h.27v-.33h.21v.33h.46v.17h-.46v.91c0,.18.09.28.26.28a.31.31,0,0,0,.23-.08Z"/>
        <path id="Trazado_120490" data-name="Trazado 120490" d="M223,133.84v.94h-.2v-.23a.58.58,0,0,1-.52.25c-.34,0-.56-.18-.56-.45s.15-.43.59-.43h.49v-.09c0-.26-.15-.4-.44-.4a.76.76,0,0,0-.5.18l-.1-.16a1,1,0,0,1,.62-.2A.555.555,0,0,1,223,133.84Zm-.2.49v-.25h-.48c-.3,0-.39.11-.39.27s.14.29.38.29a.51.51,0,0,0,.45-.31Z"/>
        <path id="Trazado_120491" data-name="Trazado 120491" d="M226,133.9v.88h-.2v-.86c0-.32-.16-.49-.44-.49a.49.49,0,0,0-.51.55v.8h-.2v-.86a.43.43,0,0,0-.45-.49.49.49,0,0,0-.51.55v.8h-.2v-1.52h.2v.28a.6.6,0,0,1,.55-.29.56.56,0,0,1,.55.32.65.65,0,0,1,.6-.32.57.57,0,0,1,.61.65Z"/>
        <path id="Trazado_120492" data-name="Trazado 120492" d="M227.92,134.09h-1.27a.56.56,0,0,0,.6.53.6.6,0,0,0,.46-.2l.12.13a.81.81,0,0,1-1.39-.53.74.74,0,0,1,.75-.77.72.72,0,0,1,.74.77A.354.354,0,0,0,227.92,134.09Zm-1.27-.16h1.08a.54.54,0,0,0-.54-.51.53.53,0,0,0-.54.51Z"/>
        <path id="Trazado_120493" data-name="Trazado 120493" d="M229.15,134.69a.52.52,0,0,1-.32.11.41.41,0,0,1-.45-.45v-.92h-.27v-.17h.27v-.33h.2v.33h.47v.17h-.47v.91a.25.25,0,0,0,.27.28.29.29,0,0,0,.22-.08Z"/>
        <path id="Trazado_120494" data-name="Trazado 120494" d="M229.72,134.64a.45.45,0,0,1,0,.17l-.12.4h-.14l.1-.42a.154.154,0,1,1,.2-.15Z"/>
        <path id="Trazado_120495" data-name="Trazado 120495" d="M230.77,134a.75.75,0,0,1,.78-.77.67.67,0,0,1,.6.3l-.15.1a.54.54,0,0,0-.45-.22.6.6,0,0,0,0,1.19.52.52,0,0,0,.45-.23l.15.11a.69.69,0,0,1-.6.3.75.75,0,0,1-.78-.78Z"/>
        <path id="Trazado_120496" data-name="Trazado 120496" d="M232.37,134a.78.78,0,1,1,.78.78.76.76,0,0,1-.78-.78Zm1.34,0a.57.57,0,1,0-.56.6.55.55,0,0,0,.56-.6Z"/>
        <path id="Trazado_120497" data-name="Trazado 120497" d="M235.74,133.9v.88h-.2v-.86a.43.43,0,0,0-.46-.49.5.5,0,0,0-.53.55v.8h-.21v-1.52h.2v.28a.64.64,0,0,1,.58-.29.58.58,0,0,1,.62.65Z"/>
        <path id="Trazado_120498" data-name="Trazado 120498" d="M236.09,134.61l.09-.16a1,1,0,0,0,.54.17c.29,0,.41-.1.41-.25,0-.4-1-.08-1-.69,0-.25.22-.43.61-.43a1,1,0,0,1,.53.14l-.09.16a.78.78,0,0,0-.44-.13c-.28,0-.4.11-.4.26,0,.41,1,.1,1,.68,0,.27-.24.44-.63.44A1,1,0,0,1,236.09,134.61Z"/>
        <path id="Trazado_120499" data-name="Trazado 120499" d="M239,134.09h-1.27a.56.56,0,0,0,.6.53.6.6,0,0,0,.46-.2l.12.13a.77.77,0,0,1-.59.25.76.76,0,0,1-.8-.78.74.74,0,0,1,.75-.77.72.72,0,0,1,.73.77Zm-1.27-.16h1.08a.54.54,0,0,0-.54-.51.53.53,0,0,0-.5.51Z"/>
        <path id="Trazado_120500" data-name="Trazado 120500" d="M239.31,134a.75.75,0,0,1,.78-.77.67.67,0,0,1,.6.3l-.15.1a.54.54,0,0,0-.45-.22.6.6,0,0,0,0,1.19.52.52,0,0,0,.45-.23l.15.11a.69.69,0,0,1-.6.3.75.75,0,0,1-.78-.78Z"/>
        <path id="Trazado_120501" data-name="Trazado 120501" d="M241.91,134.69a.5.5,0,0,1-.32.11.41.41,0,0,1-.45-.45v-.92h-.27v-.17h.27v-.33h.21v.33h.46v.17h-.46v.91c0,.18.09.28.26.28a.31.31,0,0,0,.23-.08Z"/>
        <path id="Trazado_120502" data-name="Trazado 120502" d="M243.56,134.09h-1.28a.58.58,0,0,0,.6.53.62.62,0,0,0,.47-.2l.11.13a.73.73,0,0,1-.58.25.76.76,0,0,1-.8-.78.74.74,0,0,1,1.48,0Zm-1.28-.16h1.08a.53.53,0,0,0-.54-.51.54.54,0,0,0-.54.51Z"/>
        <path id="Trazado_120503" data-name="Trazado 120503" d="M244.78,134.69a.5.5,0,0,1-.32.11.41.41,0,0,1-.45-.45v-.92h-.27v-.17H244v-.33h.21v.33h.46v.17h-.46v.91c0,.18.09.28.26.28a.31.31,0,0,0,.23-.08Z"/>
        <path id="Trazado_120504" data-name="Trazado 120504" d="M246.53,133.26v1.52h-.2v-.27a.61.61,0,0,1-.55.29.59.59,0,0,1-.64-.66v-.88h.2v.86c0,.33.17.49.46.49a.49.49,0,0,0,.52-.55v-.8Z"/>
        <path id="Trazado_120505" data-name="Trazado 120505" d="M248.43,134.09h-1.28a.58.58,0,0,0,.6.53.62.62,0,0,0,.47-.2l.12.13a.77.77,0,0,1-.59.25.76.76,0,0,1-.8-.78.74.74,0,0,1,1.48,0Zm-1.28-.16h1.08a.53.53,0,0,0-.54-.51A.54.54,0,0,0,247.15,133.93Z"/>
        <path id="Trazado_120506" data-name="Trazado 120506" d="M249.62,133.25v.2h-.05c-.32,0-.51.21-.51.57v.77h-.21v-1.52h.2v.3A.57.57,0,0,1,249.62,133.25Z"/>
        <path id="Trazado_120507" data-name="Trazado 120507" d="M182.84,137.31v.95h-.2V138a.56.56,0,0,1-.52.25c-.34,0-.56-.18-.56-.44s.15-.43.59-.43h.49v-.1c0-.26-.15-.4-.44-.4a.76.76,0,0,0-.5.18l-.1-.15a1,1,0,0,1,.62-.21.54.54,0,0,1,.62.61Zm-.2.49v-.25h-.48c-.3,0-.39.12-.39.27s.14.29.38.29a.51.51,0,0,0,.49-.31Z"/>
        <path id="Trazado_120508" data-name="Trazado 120508" d="M184.8,136.11v2.15h-.2V138a.68.68,0,0,1-.59.31.78.78,0,0,1,0-1.55.69.69,0,0,1,.58.3v-.91Zm-.21,1.38a.57.57,0,1,0-.56.6.55.55,0,0,0,.56-.6Z"/>
        <path id="Trazado_120509" data-name="Trazado 120509" d="M185.32,136.25a.15.15,0,0,1,.15-.14.14.14,0,0,1,.15.14.15.15,0,1,1-.3,0Zm.05.48h.2v1.53h-.2Z"/>
        <path id="Trazado_120510" data-name="Trazado 120510" d="M187.69,137.49a.74.74,0,0,1-.76.78.67.67,0,0,1-.58-.3v.85h-.2v-2.09h.19v.3a.68.68,0,0,1,.59-.31.73.73,0,0,1,.76.77Zm-.2,0a.56.56,0,0,0-.57-.59.6.6,0,0,0,0,1.19.57.57,0,0,0,.57-.6Z"/>
        <path id="Trazado_120511" data-name="Trazado 120511" d="M188.06,136.25a.15.15,0,0,1,.15-.14.14.14,0,0,1,.15.14.15.15,0,1,1-.3,0Zm.05.48h.2v1.53h-.2Z"/>
        <path id="Trazado_120512" data-name="Trazado 120512" d="M188.68,138.08l.09-.16a.89.89,0,0,0,.54.17c.29,0,.41-.1.41-.25,0-.39-1-.08-1-.68,0-.25.21-.44.6-.44a1.11,1.11,0,0,1,.54.14l-.09.17a.79.79,0,0,0-.45-.13c-.27,0-.39.11-.39.25,0,.41,1,.1,1,.69,0,.26-.23.43-.62.43A1,1,0,0,1,188.68,138.08Z"/>
        <path id="Trazado_120513" data-name="Trazado 120513" d="M190.15,137.49a.75.75,0,0,1,.78-.77.67.67,0,0,1,.6.3l-.15.11a.52.52,0,0,0-.45-.23.6.6,0,0,0,0,1.19.54.54,0,0,0,.45-.22l.15.1a.67.67,0,0,1-.6.3.75.75,0,0,1-.78-.78Z"/>
        <path id="Trazado_120514" data-name="Trazado 120514" d="M191.89,136.25a.14.14,0,0,1,.15-.14.145.145,0,1,1-.15.14Zm0,.48h.21v1.53h-.21Z"/>
        <path id="Trazado_120515" data-name="Trazado 120515" d="M194.11,137.37v.89h-.2v-.87a.42.42,0,0,0-.46-.48.49.49,0,0,0-.53.55v.8h-.21v-1.53h.2V137a.64.64,0,0,1,.58-.29.58.58,0,0,1,.62.66Z"/>
        <path id="Trazado_120516" data-name="Trazado 120516" d="M196.09,136.73v1.34a.67.67,0,0,1-.76.76,1,1,0,0,1-.71-.23l.1-.16a.89.89,0,0,0,.6.21.49.49,0,0,0,.56-.55v-.2a.67.67,0,0,1-.59.3.74.74,0,1,1,0-1.48.7.7,0,0,1,.6.31v-.3Zm-.2.73a.55.55,0,0,0-.58-.56.56.56,0,1,0,0,1.12.55.55,0,0,0,.58-.56Z"/>
        <path id="Trazado_120517" data-name="Trazado 120517" d="M198.75,137.56h-1.28a.57.57,0,0,0,.6.53.62.62,0,0,0,.47-.2l.12.13a.77.77,0,0,1-.59.25.75.75,0,0,1-.8-.78.74.74,0,1,1,1.48,0Zm-1.28-.15h1.08a.53.53,0,0,0-.54-.51A.54.54,0,0,0,197.47,137.41Z"/>
        <path id="Trazado_120518" data-name="Trazado 120518" d="M199.17,136.11h.2v2.15h-.2Z"/>
        <path id="Trazado_120519" data-name="Trazado 120519" d="M199.9,136.25a.15.15,0,0,1,.15-.14.14.14,0,0,1,.15.14.15.15,0,1,1-.3,0Zm0,.48h.2v1.53H200Z"/>
        <path id="Trazado_120520" data-name="Trazado 120520" d="M201.53,138.16a.45.45,0,0,1-.32.11.4.4,0,0,1-.45-.44v-.92h-.27v-.18h.27v-.33H201v.33h.46v.18H201v.91a.24.24,0,0,0,.26.27.37.37,0,0,0,.23-.07Z"/>
        <path id="Trazado_120521" data-name="Trazado 120521" d="M202.11,138.11a.45.45,0,0,1,0,.17l-.13.4h-.13l.09-.42A.133.133,0,0,1,202,138,.16.16,0,0,1,202.11,138.11Z"/>
        <path id="Trazado_120522" data-name="Trazado 120522" d="M203.09,138.08l.09-.16a.92.92,0,0,0,.55.17c.29,0,.4-.1.4-.25,0-.39-1-.08-1-.68,0-.25.21-.44.6-.44a1.11,1.11,0,0,1,.54.14l-.09.17a.81.81,0,0,0-.45-.13c-.28,0-.4.11-.4.25,0,.41,1,.1,1,.69,0,.26-.23.43-.63.43A1,1,0,0,1,203.09,138.08Z"/>
        <path id="Trazado_120523" data-name="Trazado 120523" d="M206.05,137.56h-1.28a.56.56,0,0,0,.6.53.62.62,0,0,0,.47-.2l.11.13a.81.81,0,0,1-1.39-.53.74.74,0,0,1,.75-.77.73.73,0,0,1,.74.77Zm-1.28-.15h1.08a.541.541,0,0,0-1.08,0Z"/>
        <path id="Trazado_120524" data-name="Trazado 120524" d="M207.86,136.11v2.15h-.2V138a.67.67,0,0,1-.59.31.78.78,0,0,1,0-1.55.68.68,0,0,1,.58.3v-.91Zm-.21,1.38a.57.57,0,1,0-.56.6.55.55,0,0,0,.56-.6Z"/>
        <path id="Trazado_120525" data-name="Trazado 120525" d="M210.58,136.11v2.15h-.2V138a.67.67,0,0,1-.59.31.78.78,0,0,1,0-1.55.68.68,0,0,1,.58.3v-.91Zm-.2,1.38a.57.57,0,1,0-.57.6.56.56,0,0,0,.57-.6Z"/>
        <path id="Trazado_120526" data-name="Trazado 120526" d="M211.1,136.25a.15.15,0,0,1,.15-.14.14.14,0,0,1,.15.14.15.15,0,0,1-.3,0Zm.05.48h.21v1.53h-.21Z"/>
        <path id="Trazado_120527" data-name="Trazado 120527" d="M213.08,137.31v.95h-.2V138a.56.56,0,0,1-.52.25c-.35,0-.56-.18-.56-.44s.15-.43.59-.43h.48v-.1c0-.26-.14-.4-.43-.4a.79.79,0,0,0-.51.18l-.09-.15a1,1,0,0,1,.62-.21.54.54,0,0,1,.62.61Zm-.21.49v-.25h-.47c-.3,0-.4.12-.4.27s.15.29.39.29A.48.48,0,0,0,212.87,137.8Z"/>
        <path id="Trazado_120528" data-name="Trazado 120528" d="M216.15,137.37v.89H216v-.87c0-.32-.17-.48-.44-.48a.49.49,0,0,0-.51.55v.8h-.21v-.87c0-.32-.16-.48-.44-.48a.49.49,0,0,0-.51.55v.8h-.2v-1.53h.19V137a.63.63,0,0,1,.56-.29.55.55,0,0,1,.54.32.7.7,0,0,1,.61-.32.57.57,0,0,1,.56.66Z"/>
        <path id="Trazado_120529" data-name="Trazado 120529" d="M217.91,136.85l-1,.39,1,.4v.24l-1.3-.51v-.25l1.3-.51Z"/>
        <path id="Trazado_120530" data-name="Trazado 120530" d="M219,135.82h.25l-.95,2.73H218Z"/>
        <path id="Trazado_120531" data-name="Trazado 120531" d="M221.17,136.23v2h-.29v-.91h-1.16v.91h-.29v-2h.29v.87h1.16v-.87Z"/>
        <path id="Trazado_120532" data-name="Trazado 120532" d="M222.24,136.23v2H222v-1.78h-.46v-.25Z"/>
        <path id="Trazado_120533" data-name="Trazado 120533" d="M224,137.12v.25l-1.3.51v-.24l1-.4-1-.39v-.24Z"/>
        <path id="Trazado_120534" data-name="Trazado 120534" d="M182.9,143.79l-1,.4,1,.4v.24l-1.3-.51v-.25l1.3-.52Z"/>
        <path id="Trazado_120535" data-name="Trazado 120535" d="M185,143.88c0,.44-.32.71-.85.71h-.5v.61h-.29v-2h.79C184.71,143.18,185,143.44,185,143.88Zm-.29,0c0-.29-.19-.45-.56-.45h-.5v.91h.5c.4,0,.59-.17.59-.46Z"/>
        <path id="Trazado_120536" data-name="Trazado 120536" d="M186.67,144.07v.25l-1.3.51v-.24l1-.4-1-.4v-.24Z"/>
        <path id="Trazado_120537" data-name="Trazado 120537" d="M189.13,143.79l-1,.4,1,.4v.24l-1.29-.51v-.25l1.29-.52Z"/>
        <path id="Trazado_120538" data-name="Trazado 120538" d="M189.63,143.18h.29v2h-.29Z"/>
        <path id="Trazado_120539" data-name="Trazado 120539" d="M192.41,145.2v-1.47l-.74,1.23h-.13l-.73-1.22v1.46h-.28v-2h.24l.84,1.42.84-1.42h.23v2Z"/>
        <path id="Trazado_120540" data-name="Trazado 120540" d="M194.7,144.18h.3V145a1.23,1.23,0,0,1-.77.26,1.04,1.04,0,0,1,0-2.08,1,1,0,0,1,.78.32l-.18.18a.75.75,0,0,0-.58-.24.78.78,0,1,0,0,1.56.91.91,0,0,0,.48-.13Z"/>
        <path id="Trazado_120541" data-name="Trazado 120541" d="M196.12,145l.11-.22a1.08,1.08,0,0,0,.67.23c.35,0,.5-.13.5-.31,0-.5-1.23-.18-1.23-.94,0-.31.24-.58.78-.58a1.26,1.26,0,0,1,.65.18l-.1.23a1,1,0,0,0-.55-.16c-.35,0-.5.14-.5.32,0,.5,1.23.19,1.23.93,0,.31-.25.58-.78.58a1.21,1.21,0,0,1-.78-.26Z"/>
        <path id="Trazado_120542" data-name="Trazado 120542" d="M199.46,145.2l-.44-.62h-.63v.61h-.29v-2h.8c.52,0,.84.26.84.7a.63.63,0,0,1-.45.64l.49.68Zm0-1.32c0-.29-.19-.45-.56-.45h-.5v.91h.5c.36,0,.55-.17.55-.46Z"/>
        <path id="Trazado_120543" data-name="Trazado 120543" d="M200,144.19a1.084,1.084,0,0,1,1.85-.68l-.19.18a.78.78,0,1,0,0,1.08l.19.18a1.058,1.058,0,0,1-1.85-.76Z"/>
        <path id="Trazado_120544" data-name="Trazado 120544" d="M202.19,143.73h1.3V144h-1.3Zm0,.69h1.3v.23h-1.3Z"/>
        <path id="Trazado_120545" data-name="Trazado 120545" d="M204.64,143.18h.25v.78h-.21Zm.53,0h.24v.78h-.21Z"/>
        <path id="Trazado_120546" data-name="Trazado 120546" d="M205.9,143.18h.29V145h1.09v.25H205.9Z"/>
        <path id="Trazado_120547" data-name="Trazado 120547" d="M207.41,144.44a.8.8,0,1,1,.8.78.77.77,0,0,1-.8-.78Zm1.32,0a.5.5,0,0,0-.52-.54.51.51,0,0,0-.52.54.52.52,0,0,0,.52.54.51.51,0,0,0,.52-.54Z"/>
        <path id="Trazado_120548" data-name="Trazado 120548" d="M210.22,143.65v.27h-.06a.46.46,0,0,0-.49.52v.76h-.28v-1.53h.27v.26a.59.59,0,0,1,.56-.28Z"/>
        <path id="Trazado_120549" data-name="Trazado 120549" d="M211.93,144.53h-1.25a.52.52,0,0,0,.56.45.55.55,0,0,0,.44-.19l.15.18a.76.76,0,0,1-.6.25.77.77,0,0,1-.83-.78.76.76,0,0,1,.77-.79.74.74,0,0,1,.76.8Zm-1.25-.2h1a.5.5,0,0,0-1,0Z"/>
        <path id="Trazado_120550" data-name="Trazado 120550" d="M214.87,144.32v.88h-.28v-.85c0-.3-.15-.45-.4-.45a.45.45,0,0,0-.46.51v.79h-.28v-.85c0-.3-.14-.45-.39-.45a.45.45,0,0,0-.47.51v.79h-.27v-1.53h.26v.23a.62.62,0,0,1,.53-.25.58.58,0,0,1,.54.29.67.67,0,0,1,.59-.29.6.6,0,0,1,.63.67Z"/>
        <path id="Trazado_120551" data-name="Trazado 120551" d="M216.11,143.19a.18.18,0,1,1,.18.18.17.17,0,0,1-.18-.18Zm0,.48h.28v1.53h-.28Z"/>
        <path id="Trazado_120552" data-name="Trazado 120552" d="M218.55,144.44a.74.74,0,0,1-.77.78.65.65,0,0,1-.54-.25v.8H217v-2.1h.27v.24a.65.65,0,0,1,.55-.26.75.75,0,0,1,.73.79Zm-.28,0a.52.52,0,1,0-.52.54.51.51,0,0,0,.52-.54Z"/>
        <path id="Trazado_120553" data-name="Trazado 120553" d="M218.74,145l.12-.22a1,1,0,0,0,.54.16c.26,0,.36-.08.36-.21,0-.34-1,0-1-.66,0-.27.25-.46.64-.46a1.19,1.19,0,0,1,.56.14l-.12.22a.79.79,0,0,0-.44-.12c-.24,0-.36.09-.36.21,0,.37,1,.07,1,.67,0,.28-.25.45-.66.45A1.13,1.13,0,0,1,218.74,145Z"/>
        <path id="Trazado_120554" data-name="Trazado 120554" d="M221.82,143.67v1.53h-.27V145a.66.66,0,0,1-1.18-.42v-.88h.28v.85c0,.3.15.45.41.45a.46.46,0,0,0,.48-.51v-.79Z"/>
        <path id="Trazado_120555" data-name="Trazado 120555" d="M224.9,144.32v.88h-.28v-.85c0-.3-.15-.45-.4-.45a.45.45,0,0,0-.46.51v.79h-.28v-.85c0-.3-.14-.45-.39-.45a.45.45,0,0,0-.47.51v.79h-.27v-1.53h.26v.23a.62.62,0,0,1,.53-.25.58.58,0,0,1,.54.29.67.67,0,0,1,.59-.29.6.6,0,0,1,.63.67Z"/>
        <path id="Trazado_120556" data-name="Trazado 120556" d="M225.32,143.18h.25v.78h-.21Zm.53,0h.24v.78h-.2Z"/>
        <path id="Trazado_120557" data-name="Trazado 120557" d="M227.77,144.07v.25l-1.3.51v-.24l1-.4-1-.4v-.24Z"/>
        <path id="Trazado_120558" data-name="Trazado 120558" d="M229.45,143.79l-1,.4,1,.4v.24l-1.3-.51v-.25l1.3-.52Z"/>
        <path id="Trazado_120559" data-name="Trazado 120559" d="M230.52,142.76h.25l-1,2.73h-.25Z"/>
        <path id="Trazado_120560" data-name="Trazado 120560" d="M232.6,143.88c0,.44-.31.71-.84.71h-.5v.61H231v-2h.79C232.29,143.18,232.6,143.44,232.6,143.88Zm-.29,0c0-.29-.19-.45-.56-.45h-.49v.91h.49c.37,0,.56-.17.56-.46Z"/>
        <path id="Trazado_120561" data-name="Trazado 120561" d="M234.24,144.07v.25l-1.29.51v-.24l1-.4-1-.4v-.24Z"/>
        <path id="Trazado_120562" data-name="Trazado 120562" d="M182.9,150.74l-1,.4,1,.39v.25l-1.3-.52V151l1.3-.51Z"/>
        <path id="Trazado_120563" data-name="Trazado 120563" d="M184,149.71h.26l-1,2.73H183Z"/>
        <path id="Trazado_120564" data-name="Trazado 120564" d="M186.16,151.6c0,.35-.27.55-.78.55h-1v-2h.91c.47,0,.73.2.73.53a.52.52,0,0,0,.11.95Zm-1.46-1.24V151h.6c.29,0,.46-.11.46-.33s-.17-.32-.46-.32Zm1.16,1.22c0-.23-.17-.34-.49-.34h-.67v.68h.67C185.69,151.92,185.86,151.82,185.86,151.58Z"/>
        <path id="Trazado_120565" data-name="Trazado 120565" d="M186.44,151.14a1.08,1.08,0,1,1,1.08,1,1,1,0,0,1-1.08-1Zm1.86,0a.79.79,0,1,0-.78.78.76.76,0,0,0,.78-.78Z"/>
        <path id="Trazado_120566" data-name="Trazado 120566" d="M189,150.12h.85a1,1,0,1,1,0,2H189Zm.83,1.78a.76.76,0,1,0,0-1.52h-.55v1.52Z"/>
        <path id="Trazado_120567" data-name="Trazado 120567" d="M192.12,151.45v.7h-.29v-.71l-.81-1.32h.31l.65,1.07.65-1.07h.29Z"/>
        <path id="Trazado_120568" data-name="Trazado 120568" d="M194.4,151v.25l-1.3.52v-.25l1-.39-1-.4v-.24Z"/>
      </g>
      <path id="Trazado_120569" data-name="Trazado 120569" d="M260.83,96.46c0,.09-20,.16-44.77.16s-44.78-.07-44.78-.16,20-.16,44.78-.16S260.83,96.37,260.83,96.46Z" fill="#0b3360"/>
      <g id="Grupo_80568" data-name="Grupo 80568">
        <path id="Trazado_120570" data-name="Trazado 120570" d="M174,93.26a.57.57,0,0,1-.57.58.58.58,0,0,1-.58-.58.57.57,0,0,1,.58-.57.56.56,0,0,1,.57.57Z" fill="#0b3360"/>
        <circle id="Elipse_5411" data-name="Elipse 5411" cx="0.58" cy="0.58" r="0.58" transform="translate(175.02 92.68)" fill="#0b3360"/>
        <path id="Trazado_120571" data-name="Trazado 120571" d="M178.39,93.26a.58.58,0,1,1-.575-.5.58.58,0,0,1,.575.5Z" fill="#0b3360"/>
      </g>
      <path id="Trazado_120572" data-name="Trazado 120572" d="M177,164.19c-.09,0-.17-15.2-.17-33.94s.08-33.95.17-33.95.16,15.2.16,34S177.06,164.19,177,164.19Z" fill="#e1e1e1"/>
    </g>
    <g id="Grupo_80573" data-name="Grupo 80573">
      <g id="Grupo_80571" data-name="Grupo 80571">
        <rect id="Rectángulo_34779" data-name="Rectángulo 34779" width="37.01" height="26.38" transform="translate(51.56 30.51)" fill="#4dd0e1"/>
        <path id="Trazado_120573" data-name="Trazado 120573" d="M88.87,34.42c0,.09-8.36.16-18.66.16s-18.66-.07-18.66-.16,8.35-.16,18.66-.16S88.87,34.33,88.87,34.42Z" fill="#fff"/>
        <g id="Grupo_80570" data-name="Grupo 80570">
          <path id="Trazado_120574" data-name="Trazado 120574" d="M54.58,32.49a.5.5,0,1,1-.49-.43.46.46,0,0,1,.49.43Z" fill="#fff"/>
          <path id="Trazado_120575" data-name="Trazado 120575" d="M56.4,32.49a.47.47,0,0,1-.5.44.44.44,0,1,1,0-.87.46.46,0,0,1,.5.43Z" fill="#fff"/>
          <ellipse id="Elipse_5412" data-name="Elipse 5412" cx="0.5" cy="0.44" rx="0.5" ry="0.44" transform="translate(57.22 32.05)" fill="#fff"/>
        </g>
      </g>
      <g id="Grupo_80572" data-name="Grupo 80572">
        <path id="Trazado_120576" data-name="Trazado 120576" d="M65.25,44.94c0,1.59-1.14,2.54-3,2.54h-2v2.35h-.79V42.39h2.78C64.11,42.39,65.25,43.35,65.25,44.94Zm-.78,0c0-1.19-.79-1.87-2.28-1.87h-2v3.72h2C63.68,46.79,64.47,46.11,64.47,44.94Z" fill="#fff"/>
        <path id="Trazado_120577" data-name="Trazado 120577" d="M73.17,42.39v7.44h-.78V46.4H67.74v3.43H67V42.39h.79v3.32h4.65V42.39Z" fill="#fff"/>
        <path id="Trazado_120578" data-name="Trazado 120578" d="M81.41,44.94c0,1.59-1.15,2.54-3,2.54h-2v2.35h-.78V42.39h2.78C80.26,42.39,81.41,43.35,81.41,44.94Zm-.78,0c0-1.19-.79-1.87-2.28-1.87h-2v3.72h2c1.49,0,2.28-.68,2.28-1.85Z" fill="#fff"/>
      </g>
    </g>
    <g id="Grupo_80577" data-name="Grupo 80577">
      <rect id="Rectángulo_34780" data-name="Rectángulo 34780" width="33.46" height="23.85" transform="translate(252.82 131.41)" fill="#4dd0e1"/>
      <g id="Grupo_80574" data-name="Grupo 80574">
        <path id="Trazado_120579" data-name="Trazado 120579" d="M264.1,142.48v4.74H263v-1.95h-2.15v1.95h-1.1v-4.74h1.1v1.87H263v-1.87Z" fill="#fff"/>
        <path id="Trazado_120580" data-name="Trazado 120580" d="M266.21,143.37h-1.52v-.89h4.13v.89H267.3v3.85h-1.09Z" fill="#fff"/>
        <path id="Trazado_120581" data-name="Trazado 120581" d="M269.41,142.48h1.09v3.84h2.38v.9h-3.47Z" fill="#fff"/>
        <path id="Trazado_120582" data-name="Trazado 120582" d="M277.8,147.22v-2.85l-1.39,2.34h-.49l-1.39-2.27v2.78h-1v-4.74h.91l1.77,2.94,1.74-2.94h.9v4.74Z" fill="#fff"/>
      </g>
      <g id="Grupo_80576" data-name="Grupo 80576">
        <path id="Trazado_120583" data-name="Trazado 120583" d="M286.54,134.94c0,.06-7.55.11-16.87.11s-16.86-.05-16.86-.11,7.55-.1,16.86-.1S286.54,134.89,286.54,134.94Z" fill="#fff"/>
        <g id="Grupo_80575" data-name="Grupo 80575">
          <path id="Trazado_120584" data-name="Trazado 120584" d="M255.55,133.2a.45.45,0,1,1-.45-.39A.43.43,0,0,1,255.55,133.2Z" fill="#fff"/>
          <path id="Trazado_120585" data-name="Trazado 120585" d="M257.19,133.2a.45.45,0,1,1-.45-.39.43.43,0,0,1,.45.39Z" fill="#fff"/>
          <path id="Trazado_120586" data-name="Trazado 120586" d="M258.84,133.2a.46.46,0,1,1-.46-.39A.44.44,0,0,1,258.84,133.2Z" fill="#fff"/>
        </g>
      </g>
    </g>
    <g id="Grupo_80580" data-name="Grupo 80580">
      <rect id="Rectángulo_34781" data-name="Rectángulo 34781" width="24.67" height="17.58" transform="translate(33.8 131.06)" fill="#4dd0e1"/>
      <g id="Grupo_80579" data-name="Grupo 80579">
        <path id="Trazado_120587" data-name="Trazado 120587" d="M58.66,133.67s-5.57.08-12.43.08-12.44,0-12.44-.08,5.57-.08,12.44-.08S58.66,133.63,58.66,133.67Z" fill="#fff"/>
        <g id="Grupo_80578" data-name="Grupo 80578">
          <path id="Trazado_120588" data-name="Trazado 120588" d="M35.82,132.39a.32.32,0,0,1-.34.29.29.29,0,1,1,0-.58A.32.32,0,0,1,35.82,132.39Z" fill="#fff"/>
          <path id="Trazado_120589" data-name="Trazado 120589" d="M37,132.39a.32.32,0,0,1-.34.29.29.29,0,1,1,0-.58A.32.32,0,0,1,37,132.39Z" fill="#fff"/>
          <path id="Trazado_120590" data-name="Trazado 120590" d="M38.24,132.39a.32.32,0,0,1-.34.29.29.29,0,1,1,0-.58.32.32,0,0,1,.34.29Z" fill="#fff"/>
        </g>
      </g>
    </g>
    <g id="Grupo_80584" data-name="Grupo 80584">
      <g id="Grupo_80581" data-name="Grupo 80581">
        <path id="Trazado_120591" data-name="Trazado 120591" d="M180.77,63.31a4.62,4.62,0,0,1,4.8-4.69,4.38,4.38,0,0,1,3.28,1.28l-.42.43a3.9,3.9,0,0,0-2.84-1.09,4.07,4.07,0,1,0,0,8.13,3.88,3.88,0,0,0,2.84-1.11l.42.44a4.39,4.39,0,0,1-3.28,1.3,4.62,4.62,0,0,1-4.8-4.69Z" fill="#4dd0e1"/>
        <path id="Trazado_120592" data-name="Trazado 120592" d="M190.12,66.74l.3-.5a4.41,4.41,0,0,0,3.05,1.16c1.85,0,2.67-.81,2.67-1.81,0-2.77-5.77-1.11-5.77-4.52,0-1.3,1-2.45,3.27-2.45a5,5,0,0,1,2.79.83l-.25.54a4.56,4.56,0,0,0-2.54-.78c-1.79,0-2.6.83-2.6,1.85,0,2.77,5.77,1.14,5.77,4.49,0,1.31-1,2.44-3.32,2.44a4.72,4.72,0,0,1-3.37-1.25Z" fill="#4dd0e1"/>
        <path id="Trazado_120593" data-name="Trazado 120593" d="M198.16,66.74l.3-.5a4.41,4.41,0,0,0,3,1.16c1.85,0,2.67-.81,2.67-1.81,0-2.77-5.77-1.11-5.77-4.52,0-1.3,1-2.45,3.27-2.45a5,5,0,0,1,2.79.83l-.25.54a4.56,4.56,0,0,0-2.54-.78c-1.79,0-2.6.83-2.6,1.85,0,2.77,5.77,1.14,5.77,4.49,0,1.31-1,2.44-3.32,2.44a4.72,4.72,0,0,1-3.32-1.25Z" fill="#4dd0e1"/>
      </g>
      <g id="Grupo_80583" data-name="Grupo 80583">
        <path id="Trazado_120594" data-name="Trazado 120594" d="M212.72,75.32V68.08c0-4.62,0-11.25-.07-19.34l.13.12H171.62l.16-.16V75.28l-.15-.15,29.61.07h.07l-29.71.07h-.15V48.37h41.46v.13c0,8.12,0,14.78-.07,19.42v6.7A2.673,2.673,0,0,1,212.72,75.32Z" fill="#4dd0e1"/>
        <path id="Trazado_120595" data-name="Trazado 120595" d="M212.72,52.68c0,.09-9.22.16-20.59.16s-20.59-.07-20.59-.16,9.22-.16,20.59-.16S212.72,52.59,212.72,52.68Z" fill="#4dd0e1"/>
        <g id="Grupo_80582" data-name="Grupo 80582">
          <path id="Trazado_120596" data-name="Trazado 120596" d="M174.6,50.74a.5.5,0,1,1-.5-.44.47.47,0,0,1,.5.44Z" fill="#4dd0e1"/>
          <path id="Trazado_120597" data-name="Trazado 120597" d="M176.43,50.74a.5.5,0,1,1-.5-.44.47.47,0,0,1,.5.44Z" fill="#4dd0e1"/>
          <path id="Trazado_120598" data-name="Trazado 120598" d="M178.26,50.74a.5.5,0,1,1-.5-.44.47.47,0,0,1,.5.44Z" fill="#4dd0e1"/>
        </g>
      </g>
    </g>
    <g id="Grupo_80607" data-name="Grupo 80607">
      <g id="Grupo_80586" data-name="Grupo 80586">
        <g id="Grupo_80585" data-name="Grupo 80585">
          <path id="Trazado_120599" data-name="Trazado 120599" d="M93.84,166.17l16.32,55.08a5.75,5.75,0,0,0,5.52,4.13l66.21.18a6.12,6.12,0,0,0,6.13-6.45h0a6.11,6.11,0,0,0-6.11-5.79H156.59l-20.28-56.5H100.82a7.28,7.28,0,0,0-6.98,9.35Z" fill="#375a64"/>
          <path id="Trazado_120600" data-name="Trazado 120600" d="M149.86,217.84c0,.13-6.75.23-15.08.23s-15.08-.1-15.08-.23,6.75-.23,15.08-.23S149.86,217.71,149.86,217.84Z" fill="#0b3360"/>
          <path id="Trazado_120601" data-name="Trazado 120601" d="M98.71,158.57c.12,0,4.63,13.14,10.07,29.45s9.75,29.57,9.62,29.61-4.63-13.15-10.07-29.46S98.58,158.61,98.71,158.57Z" fill="#0b3360"/>
        </g>
        <path id="Trazado_120602" data-name="Trazado 120602" d="M147.1,274.32l-4.03-.09V225.38h4.03Z" fill="#375a64"/>
        <path id="Trazado_120603" data-name="Trazado 120603" d="M126.3,274.1h37.57l-17.02-5.92h-4.04Z" fill="#375a64"/>
      </g>
      <g id="Grupo_80588" data-name="Grupo 80588">
        <g id="Grupo_80587" data-name="Grupo 80587">
          <path id="Trazado_120604" data-name="Trazado 120604" d="M116.8,144.19l6.2,31.05-1.11,23.27,41.78-6.95-1.64-20.38V154.32l10.24,19.85,8-15.4-14.61-26.46h0a24.65,24.65,0,0,0-9.55-6.18,19.86,19.86,0,0,0-6-1.15h0a24,24,0,0,1-14.46,0l-2.43.27h-.19a18.45,18.45,0,0,0-16.12,17.36Z" fill="#ffa726"/>
          <path id="Trazado_120605" data-name="Trazado 120605" d="M133.2,125.26s-17.17.13-19.29,18.26l-.29,13.3,14.78-.13Z" fill="#ffa726"/>
        </g>
        <path id="Trazado_120606" data-name="Trazado 120606" d="M174.21,148.58c0,.13-13.51.24-30.17.24s-30.17-.11-30.17-.24,13.51-.23,30.17-.23S174.21,148.46,174.21,148.58Z" fill="#fafafa"/>
        <path id="Trazado_120607" data-name="Trazado 120607" d="M174.21,151.46c0,.13-13.51.23-30.17.23s-30.17-.1-30.17-.23,13.51-.23,30.17-.23S174.21,151.33,174.21,151.46Z" fill="#fafafa"/>
        <path id="Trazado_120608" data-name="Trazado 120608" d="M173.24,146.2c0,.13-13.29.24-29.68.24s-29.69-.11-29.69-.24,13.29-.23,29.69-.23S173.24,146.07,173.24,146.2Z" fill="#fafafa"/>
        <path id="Trazado_120609" data-name="Trazado 120609" d="M161.79,174.17c-.13,0-.07-7.35.13-16.41s.47-16.4.59-16.4.08,7.35-.12,16.41S161.92,174.17,161.79,174.17Z" fill="#0b3360"/>
        <path id="Trazado_120610" data-name="Trazado 120610" d="M155.92,162.26s8.12.58,9.59,2.72,3.68,8.27,2.84,8.32a2.36,2.36,0,0,1-1.46-.46l-2.22-4s.36,3.81-1,3.89-7.92,1.39-7.92,1.39Z" fill="#ffbf9d"/>
        <path id="Trazado_120611" data-name="Trazado 120611" d="M113.62,153.28v20.93a8,8,0,0,0,9.64,7.34L156,174.81l-.06-13.43-28.25,5.42-.38-14.21Z" fill="#ffa726"/>
        <path id="Trazado_120612" data-name="Trazado 120612" d="M132.3,179.87l.43-.12,1.27-.28,4.81-1,17-3.48-.16.2V161.4l.28.23-5.76,1.11L127.69,167h-.25v-.24c.21-6.23.39-11.42.52-15.1.07-1.78.13-3.2.17-4.21a8.186,8.186,0,0,1,.06-1.11,1.65,1.65,0,0,1,.05-.38,2.79,2.79,0,0,1,0,.38v1.11c0,1,0,2.44-.06,4.22-.09,3.68-.21,8.87-.35,15.1l-.24-.2,22.49-4.35,5.75-1.11.28-.05V175.3h-.16l-17.08,3.32-4.83.91-1.28.22a1.93,1.93,0,0,1-.46.12Z" fill="#0b3360"/>
        <path id="Trazado_120613" data-name="Trazado 120613" d="M151.08,125.26a1.718,1.718,0,0,1,.13.31,5.371,5.371,0,0,1,.26.93,7.61,7.61,0,0,1-.16,3.52,9.21,9.21,0,0,1-2.84,4.38,8.79,8.79,0,0,1-6,2.25,8.06,8.06,0,0,1-5.89-2.39,8.31,8.31,0,0,1-2.19-4.74,7.59,7.59,0,0,1,.41-3.5,6,6,0,0,1,.42-.87c.12-.18.18-.28.2-.27s-.2.42-.45,1.2a7.88,7.88,0,0,0-.25,3.4,8.08,8.08,0,0,0,2.17,4.48,7.74,7.74,0,0,0,5.58,2.23,8.51,8.51,0,0,0,5.68-2.11,9.15,9.15,0,0,0,2.81-4.16,8,8,0,0,0,.29-3.4C151.18,125.71,151,125.28,151.08,125.26Z" fill="#0b3360"/>
        <path id="Trazado_120614" data-name="Trazado 120614" d="M152.66,175.92a10,10,0,0,1,0-2.07c.05-1.27.11-3,.12-5s0-3.7-.06-5a10.51,10.51,0,0,1,0-2.06,8.069,8.069,0,0,1,.32,2c.11,1.28.21,3,.2,5s-.13,3.71-.26,5A8.87,8.87,0,0,1,152.66,175.92Z" fill="#fafafa"/>
        <path id="Trazado_120615" data-name="Trazado 120615" d="M151,176.26a9.56,9.56,0,0,1-.06-2c0-1.45,0-3.1.05-4.93v-4.94a9.4,9.4,0,0,1,.08-2.05,9,9,0,0,1,.25,2c.09,1.26.15,3,.14,4.95s-.09,3.68-.19,4.94a8.92,8.92,0,0,1-.27,2.03Z" fill="#fafafa"/>
      </g>
      <g id="Grupo_80591" data-name="Grupo 80591">
        <path id="Trazado_120616" data-name="Trazado 120616" d="M183.75,259.43l6.19,17,8.78,12.06a1.86,1.86,0,0,1-.51,2.67h0a1.83,1.83,0,0,1-1.7.14c-3.54-1.46-16.53-6.93-16.92-8.21-.44-1.47-8.83-19.79-8.83-19.79Z" fill="#4dd0e1"/>
        <g id="Grupo_80589" data-name="Grupo 80589" opacity="0.6">
          <path id="Trazado_120617" data-name="Trazado 120617" d="M198.21,291.2,179.15,282l.28.72a2.82,2.82,0,0,0,1.27,1.45c1.57.84,5.93,3.08,15.76,7.21a1.88,1.88,0,0,0,1.75-.17Z" fill="#fff"/>
        </g>
        <g id="Grupo_80590" data-name="Grupo 80590" opacity="0.6">
          <path id="Trazado_120618" data-name="Trazado 120618" d="M180.5,275.2a1.11,1.11,0,0,1,.81,1.25,1.07,1.07,0,0,1-1.23.82,1.17,1.17,0,0,1-.86-1.33,1.1,1.1,0,0,1,1.38-.71" fill="#fff"/>
        </g>
        <path id="Trazado_120619" data-name="Trazado 120619" d="M191.47,285.32a5.831,5.831,0,0,1,1-1.89,5.73,5.73,0,0,1,1.8-1.13c0-.05-.26-.09-.68,0a2.962,2.962,0,0,0-2.14,2.34C191.36,285.06,191.43,285.32,191.47,285.32Z" fill="#0b3360"/>
        <path id="Trazado_120620" data-name="Trazado 120620" d="M193.56,287.12a9.953,9.953,0,0,1,1.21-1.31c.78-.59,1.58-.74,1.57-.86a2.06,2.06,0,0,0-1.81.54C193.65,286.17,193.45,287.1,193.56,287.12Z" fill="#0b3360"/>
        <path id="Trazado_120621" data-name="Trazado 120621" d="M188.11,283.29a18.836,18.836,0,0,1,1.73-2.14,18.107,18.107,0,0,1,2.28-1.56,5,5,0,0,0-4,3.7Z" fill="#0b3360"/>
        <path id="Trazado_120622" data-name="Trazado 120622" d="M185.79,278.27c.09.08.87-.67,2.06-1.19s2.28-.59,2.27-.71a3.58,3.58,0,0,0-2.43.35,3.62,3.62,0,0,0-1.9,1.55Z" fill="#0b3360"/>
        <path id="Trazado_120623" data-name="Trazado 120623" d="M183.85,273.32A8.69,8.69,0,0,1,186,272a9.269,9.269,0,0,1,2.46-.31,1.86,1.86,0,0,0-.73-.26,4,4,0,0,0-1.86.2,3.81,3.81,0,0,0-1.57,1C183.93,273,183.81,273.29,183.85,273.32Z" fill="#0b3360"/>
        <path id="Trazado_120624" data-name="Trazado 120624" d="M185.57,271.09a1.6,1.6,0,0,0-.23-.65,4.79,4.79,0,0,0-1.16-1.47,2,2,0,0,0-1.21-.61.71.71,0,0,0-.72.46,1.16,1.16,0,0,0,0,.86,2.61,2.61,0,0,0,3,1.43,3,3,0,0,0,2.21-2.57,1,1,0,0,0-.27-.83.73.73,0,0,0-.85-.09,2.53,2.53,0,0,0-.89,1,5.29,5.29,0,0,0-.64,1.76,1.66,1.66,0,0,0,0,.69,8.721,8.721,0,0,1,.92-2.3,2.42,2.42,0,0,1,.79-.86.39.39,0,0,1,.47,0,.75.75,0,0,1,.15.56,2.72,2.72,0,0,1-2,2.21,2.29,2.29,0,0,1-2.58-1.18.91.91,0,0,1-.05-.6.39.39,0,0,1,.4-.26,1.87,1.87,0,0,1,1,.49,7.22,7.22,0,0,1,1.66,1.96Z" fill="#0b3360"/>
      </g>
      <g id="Grupo_80596" data-name="Grupo 80596">
        <g id="Grupo_80594" data-name="Grupo 80594">
          <path id="Trazado_120625" data-name="Trazado 120625" d="M209.88,255l-.54,13.85s13.9,5.19,14,7.76l-26.89-.07-.05-21.61Z" fill="#4dd0e1"/>
          <g id="Grupo_80592" data-name="Grupo 80592" opacity="0.6">
            <path id="Trazado_120626" data-name="Trazado 120626" d="M201,267.63a1.1,1.1,0,0,0-.76,1.25,1.05,1.05,0,0,0,1.23.77,1.16,1.16,0,0,0,.8-1.33,1.08,1.08,0,0,0-1.37-.65" fill="#fff"/>
          </g>
          <g id="Grupo_80593" data-name="Grupo 80593" opacity="0.6">
            <path id="Trazado_120627" data-name="Trazado 120627" d="M196.5,276.51v-2.15l25.83.86s1.2.52,1.06,1.36Z" fill="#fff"/>
          </g>
          <path id="Trazado_120628" data-name="Trazado 120628" d="M209.78,268.68c0,.14-.66.19-1.31.61s-1,1-1.11.92.07-.81.87-1.3S209.81,268.56,209.78,268.68Z" fill="#0b3360"/>
          <path id="Trazado_120629" data-name="Trazado 120629" d="M212.59,269.86c0,.13-.53.35-1,.9s-.58,1.14-.71,1.14-.21-.75.36-1.43S212.59,269.73,212.59,269.86Z" fill="#0b3360"/>
          <path id="Trazado_120630" data-name="Trazado 120630" d="M214.19,273.24c-.12,0-.3-.63,0-1.35s1-1,1-.89-.33.49-.6,1.08S214.32,273.23,214.19,273.24Z" fill="#0b3360"/>
          <path id="Trazado_120631" data-name="Trazado 120631" d="M209.55,265.51c-.06.12-.66-.06-1.4,0s-1.32.28-1.39.17.49-.58,1.36-.63S209.61,265.41,209.55,265.51Z" fill="#0b3360"/>
        </g>
        <g id="Grupo_80595" data-name="Grupo 80595" opacity="0.3">
          <path id="Trazado_120632" data-name="Trazado 120632" d="M209.77,257.71l-.09,2.47-13.22-.15-.01-2.23Z"/>
        </g>
        <path id="Trazado_120633" data-name="Trazado 120633" d="M209.61,262.72a2.65,2.65,0,0,1-1.35,0,5.91,5.91,0,0,1-1.41-.44,6.438,6.438,0,0,1-.77-.41,1.77,1.77,0,0,1-.41-.32.58.58,0,0,1,0-.7.74.74,0,0,1,.57-.3,1.881,1.881,0,0,1,.51.08,4.753,4.753,0,0,1,.83.28,4.939,4.939,0,0,1,1.24.82c.62.58.84,1.07.79,1.1s-.36-.37-1-.85a5.579,5.579,0,0,0-1.2-.68,5.487,5.487,0,0,0-.78-.24c-.28-.07-.52-.08-.6.05s0,.07,0,.15a1.3,1.3,0,0,0,.3.23,7.574,7.574,0,0,0,.71.41,8.094,8.094,0,0,0,1.3.5,10,10,0,0,1,1.27.32Z" fill="#0b3360"/>
        <path id="Trazado_120634" data-name="Trazado 120634" d="M209.43,262.91a2.25,2.25,0,0,1-.35-1.31,4.5,4.5,0,0,1,.19-1.47,4.393,4.393,0,0,1,.35-.82,1.09,1.09,0,0,1,.86-.67.65.65,0,0,1,.56.37,1.76,1.76,0,0,1,.13.5,2.72,2.72,0,0,1,0,.9,3,3,0,0,1-.58,1.39c-.52.7-1.07.86-1.08.81a6.058,6.058,0,0,0,.82-1,3.17,3.17,0,0,0,.43-1.26,3,3,0,0,0,0-.78c0-.28-.14-.52-.25-.49a1,1,0,0,0-.47.44,4.782,4.782,0,0,0-.34.73,4.84,4.84,0,0,0-.26,1.35C209.37,262.39,209.51,262.89,209.43,262.91Z" fill="#0b3360"/>
      </g>
      <g id="Grupo_80597" data-name="Grupo 80597">
        <path id="Trazado_120635" data-name="Trazado 120635" d="M196.47,188.59l-36.94,3.8,2.88,25.85s30.93-8.17,30.71-7.51,1.43,55,1.43,55h18.64l.35-61.55a15.47,15.47,0,0,0-17.07-15.59Z" fill="#0b3360"/>
        <path id="Trazado_120636" data-name="Trazado 120636" d="M121.52,199v8c0,5.46,6.22,11.25,11.68,11.25h4.22c3.32,0,8.53-2.42,11.22-4.38l1.61-1.18,19.4,60.1s22.2-4,22.2-4.68-15-49.23-22-71.75C167,187.2,157.19,181.85,148.09,185c-.31.11-.62.22-.93.35C137.21,189.29,121.52,199,121.52,199Z" fill="#0b3360"/>
        <path id="Trazado_120637" data-name="Trazado 120637" d="M191.85,268.14a.9.9,0,0,1-.1-.22l-.24-.64c-.22-.57-.52-1.4-.88-2.49-.75-2.18-1.77-5.34-3-9.26-2.47-7.83-5.79-18.68-9.4-30.67l-5.07-16.93c-.77-2.6-1.51-5.07-2.2-7.39l-1-3.34a30.078,30.078,0,0,0-1-3,12.45,12.45,0,0,0-3.14-4.44,26.691,26.691,0,0,0-3.28-2.56c-.95-.64-1.71-1.11-2.22-1.42l-.59-.36-.19-.14a.437.437,0,0,1,.22.1l.6.32c.54.29,1.31.73,2.28,1.35a24.761,24.761,0,0,1,3.36,2.52,12.59,12.59,0,0,1,3.26,4.5,30.45,30.45,0,0,1,1.05,3.06c.33,1.07.67,2.19,1,3.34.7,2.31,1.45,4.78,2.23,7.38l5.1,16.91c3.62,12,6.89,22.82,9.28,30.72,1.2,3.89,2.17,7.06,2.86,9.29.33,1.07.6,1.91.79,2.52.09.27.15.48.21.66a.761.761,0,0,1,.07.19Z" fill="#375a64"/>
        <path id="Trazado_120638" data-name="Trazado 120638" d="M196.53,203c.12.08-.94,1.66-1.82,3.81s-1.28,4-1.42,4a13.25,13.25,0,0,1,3.24-7.8Z" fill="#375a64"/>
        <path id="Trazado_120639" data-name="Trazado 120639" d="M200.09,205.47c0,.13-1.55.84-3.22,2.16s-2.74,2.7-2.85,2.61A10.24,10.24,0,0,1,200.09,205.47Z" fill="#375a64"/>
        <path id="Trazado_120640" data-name="Trazado 120640" d="M169.86,272.82c-.12,0-5.36-16.05-11.71-35.92s-11.38-36-11.26-36.06,5.37,16,11.71,35.92S170,272.78,169.86,272.82Z" fill="#375a64"/>
      </g>
      <g id="Grupo_80598" data-name="Grupo 80598">
        <path id="Trazado_120641" data-name="Trazado 120641" d="M146.05,179.06l63.5.61,11.84-33.47-46.18.31-10.72,30.1-18.44.28Z" fill="#375a64"/>
        <path id="Trazado_120642" data-name="Trazado 120642" d="M194.2,165.82a2.57,2.57,0,1,1,2.9-2.19,2.57,2.57,0,0,1-2.9,2.19Z" fill="#fff"/>
      </g>
      <g id="Grupo_80606" data-name="Grupo 80606">
        <path id="Trazado_120643" data-name="Trazado 120643" d="M140.87,88.47c.6-2.23,2.28-3.33,4.46-4.07a7.2,7.2,0,0,1,6.56,1.06c1.22.94,2.19,2.3,3.64,2.8,2.4.84,5.21-1,7.51.12a3.28,3.28,0,0,1-1.55,6.24,2.9,2.9,0,0,1,1.14,4.19,4.37,4.37,0,0,1-4.43,1.62A9.2,9.2,0,0,1,153.89,98c-1.24-1.11-2.35-2.37-3.67-3.38a7.18,7.18,0,0,0-4.6-1.69,6.54,6.54,0,0,0-5.19,3.84,16.74,16.74,0,0,0-1.36,6.58,28.331,28.331,0,0,1-.83,6.7c-.08.25-.2.54-.45.61s-.68-.27-.86-.61a33.12,33.12,0,0,1-3.79-12.31c-.25-2.5-.18-4.86,1.19-7s4.84-3.65,6.54-2.32" fill="#0b3360"/>
        <g id="Grupo_80604" data-name="Grupo 80604">
          <g id="Grupo_80599" data-name="Grupo 80599">
            <path id="Trazado_120644" data-name="Trazado 120644" d="M136.51,98.92l-1.15,25.28c-.2,4.29.39,10.65,7.2,10.65h0c5.91-.45,7.66-6,7.84-10,.08-1.9.16-3.49.18-3.68,0,0,6.46-.32,7.22-6.66.36-3.07.6-9.45.75-15.22A11.92,11.92,0,0,0,147.9,87.17l-.61-.06C140.63,86.79,136.65,92.26,136.51,98.92Z" fill="#ffbf9d"/>
            <path id="Trazado_120645" data-name="Trazado 120645" d="M150.6,121.1a15,15,0,0,1-8-3.24s1.48,4.78,7.88,4.88Z" fill="#ff9a6c"/>
          </g>
          <g id="Grupo_80603" data-name="Grupo 80603">
            <g id="Grupo_80602" data-name="Grupo 80602">
              <g id="Grupo_80600" data-name="Grupo 80600">
                <path id="Trazado_120646" data-name="Trazado 120646" d="M156.24,103.37a.91.91,0,0,1-1,.82.88.88,0,0,1-.85-.92.91.91,0,0,1,1-.82.88.88,0,0,1,.85.92Z" fill="#0b3360"/>
                <path id="Trazado_120647" data-name="Trazado 120647" d="M156.85,102.28c-.13.11-.76-.47-1.74-.58s-1.74.32-1.84.18.1-.26.43-.45a2.52,2.52,0,0,1,1.49-.29,2.4,2.4,0,0,1,1.36.61C156.83,102,156.91,102.23,156.85,102.28Z" fill="#0b3360"/>
              </g>
              <g id="Grupo_80601" data-name="Grupo 80601">
                <path id="Trazado_120648" data-name="Trazado 120648" d="M146.63,102.68a.92.92,0,0,1-1,.82.86.86,0,0,1-.84-.92.91.91,0,0,1,1-.82.88.88,0,0,1,.84.92Z" fill="#0b3360"/>
                <path id="Trazado_120649" data-name="Trazado 120649" d="M147.23,101.44c-.13.11-.76-.47-1.74-.57s-1.74.31-1.84.18.09-.26.43-.46a2.52,2.52,0,0,1,1.49-.29,2.4,2.4,0,0,1,1.36.61C147.21,101.17,147.29,101.4,147.23,101.44Z" fill="#0b3360"/>
              </g>
              <path id="Trazado_120650" data-name="Trazado 120650" d="M150,109.06a7.12,7.12,0,0,1,1.62-.11c.25,0,.49,0,.55-.19a1.27,1.27,0,0,0-.09-.76c-.17-.63-.34-1.29-.53-2a32.889,32.889,0,0,1-1.13-5.14,32.492,32.492,0,0,1,1.54,5c.18.69.34,1.35.5,2a1.42,1.42,0,0,1,0,1,.65.65,0,0,1-.45.32,1.58,1.58,0,0,1-.43,0,6,6,0,0,1-1.58-.12Z" fill="#0b3360"/>
              <path id="Trazado_120651" data-name="Trazado 120651" d="M147.06,109.43c.16,0,0,1.07.87,1.92s2,.85,2,1-.27.18-.75.14a2.6,2.6,0,0,1-1.64-.77,2.31,2.31,0,0,1-.67-1.6C146.84,109.67,147,109.42,147.06,109.43Z" fill="#0b3360"/>
            </g>
            <path id="Trazado_120652" data-name="Trazado 120652" d="M147.89,97.64c-.13.26-1.09,0-2.25,0s-2.12.23-2.25,0,.14-.35.54-.57a3.62,3.62,0,0,1,1.71-.4,3.7,3.7,0,0,1,1.71.38C147.75,97.29,147.94,97.52,147.89,97.64Z" fill="#0b3360"/>
            <path id="Trazado_120653" data-name="Trazado 120653" d="M156.79,99.42c-.2.2-.84-.1-1.65-.2s-1.51,0-1.64-.26.07-.33.39-.51a2.41,2.41,0,0,1,1.38-.22,2.32,2.32,0,0,1,1.28.59C156.81,99.08,156.88,99.32,156.79,99.42Z" fill="#0b3360"/>
          </g>
        </g>
        <g id="Grupo_80605" data-name="Grupo 80605">
          <path id="Trazado_120654" data-name="Trazado 120654" d="M136.53,103.68c-.1-.06-4.23-1.75-4.55,2.61s4.12,3.78,4.14,3.66S136.53,103.68,136.53,103.68Z" fill="#ffbf9d"/>
          <path id="Trazado_120655" data-name="Trazado 120655" d="M134.91,108.2a.466.466,0,0,0-.22.09.76.76,0,0,1-.57,0,1.89,1.89,0,0,1-.74-1.75,2.57,2.57,0,0,1,.29-1.07.87.87,0,0,1,.62-.54.38.38,0,0,1,.43.24.282.282,0,0,1,0,.22c0,.01.1-.06.08-.25a.54.54,0,0,0-.16-.28.5.5,0,0,0-.41-.14,1.05,1.05,0,0,0-.84.61,2.56,2.56,0,0,0-.35,1.2,2,2,0,0,0,1,2,.82.82,0,0,0,.71-.06C134.89,108.3,134.92,108.21,134.91,108.2Z" fill="#ff9a6c"/>
        </g>
        <path id="Trazado_120656" data-name="Trazado 120656" d="M160,98.13a9.22,9.22,0,0,1-8-2.7c-1.4-1.48-2.4-3.49-4.27-4.29a5.17,5.17,0,0,0-4,.12,10,10,0,0,0-3.28,2.43c.88,3.36-.32,6.88-1.52,10.14a1.72,1.72,0,0,1-.61,1,1.38,1.38,0,0,1-1.69-.57,5.39,5.39,0,0,1-.88-3,18,18,0,0,1,.79-7,12.3,12.3,0,0,1,4-5.78,11.58,11.58,0,0,1,8.41-2.2,14.26,14.26,0,0,1,7.9,3.81,8.26,8.26,0,0,1,2.34,3.36" fill="#0b3360"/>
      </g>
    </g>
    <g id="Grupo_80609" data-name="Grupo 80609">
      <g id="Grupo_80608" data-name="Grupo 80608">
        <path id="Trazado_120657" data-name="Trazado 120657" d="M37.89,232.46a11.78,11.78,0,0,1,7.32-.89,6.1,6.1,0,0,1,3.62,1.62,2.6,2.6,0,0,1,0,3.61,3.45,3.45,0,0,1-2.28.57c-1.93,0-4.08-.36-5.63.81-.88.66-1.47,1.76-2.52,2.09a2.49,2.49,0,0,1-2.74-1.22,4.21,4.21,0,0,1-.31-3.14,4.82,4.82,0,0,1,2.54-3.45Z" fill="#4dd0e1"/>
        <path id="Trazado_120658" data-name="Trazado 120658" d="M32.79,222.61c1.36,1.95,4,1.3,5.23.12a9.87,9.87,0,0,0,2.22-4.55c1.08-3.75,2.17-7.68,1.36-11.5a6.43,6.43,0,0,0-1.46-3.13A3.36,3.36,0,0,0,37,202.5c-1.33.35-2.16,1.66-2.76,2.9a27.42,27.42,0,0,0-2.71,11.77,9.46,9.46,0,0,0,1.29,5.44" fill="#4dd0e1"/>
        <path id="Trazado_120659" data-name="Trazado 120659" d="M29.05,225.4a7.06,7.06,0,0,0,1.1-6.51,12.62,12.62,0,0,0-3.86-5.6,20.72,20.72,0,0,0-6.91-4.07,7.35,7.35,0,0,0-3.1-.53,3.25,3.25,0,0,0-2.61,1.58c-.73,1.39,0,3.07.72,4.44a52.752,52.752,0,0,0,4.54,6.91,12.29,12.29,0,0,0,5,4.27c2.07.79,4.23.7,5.32-.74" fill="#4dd0e1"/>
        <path id="Trazado_120660" data-name="Trazado 120660" d="M32.69,252a3.809,3.809,0,0,0,.13-.88c.06-.65.14-1.46.23-2.42a34.511,34.511,0,0,1,.54-3.53,28.67,28.67,0,0,1,1.29-4.18A15.72,15.72,0,0,1,37,237.16a8.06,8.06,0,0,1,2.7-2.24,7.62,7.62,0,0,1,2.27-.7,4.861,4.861,0,0,0,.88-.13,3.941,3.941,0,0,0-.9,0,7,7,0,0,0-2.36.62A7.87,7.87,0,0,0,36.75,237a15.4,15.4,0,0,0-2.21,3.85,25.261,25.261,0,0,0-1.27,4.25,29.5,29.5,0,0,0-.47,3.58c-.08,1-.11,1.85-.12,2.43a4.39,4.39,0,0,0,.01.89Z" fill="#0b3360"/>
        <path id="Trazado_120661" data-name="Trazado 120661" d="M32.86,250.09a1.85,1.85,0,0,0,0-.41V244.2c.09-3.64.41-7.55,1-13.07.57-5.19,1.34-11.23,2.15-15.15.18-.9.35-1.7.52-2.4s.29-1.32.42-1.81l.27-1.14a2.38,2.38,0,0,0,.08-.4,2.467,2.467,0,0,0-.15.38l-.34,1.13c-.15.48-.3,1.09-.48,1.79s-.38,1.5-.57,2.39A133.662,133.662,0,0,0,33.58,230c-.61,5.53-.88,10.56-.9,14.21,0,1.82,0,3.3.06,4.31l.07,1.18a1.87,1.87,0,0,0,.05.39Z" fill="#0b3360"/>
        <path id="Trazado_120662" data-name="Trazado 120662" d="M32.88,240.38a6.34,6.34,0,0,0,0-1.22c-.05-.79-.16-1.93-.38-3.32A42.138,42.138,0,0,0,31.42,231a39.59,39.59,0,0,0-2-5.72A30.46,30.46,0,0,0,23.46,216a13.49,13.49,0,0,0-1.4-1.3c-.21-.18-.4-.36-.59-.51l-.54-.37a8.421,8.421,0,0,0-1-.66,36.644,36.644,0,0,1,3.38,3,32.08,32.08,0,0,1,5.78,9.22,44.66,44.66,0,0,1,2,5.67c.53,1.77.88,3.41,1.15,4.78s.4,2.51.48,3.29a10.471,10.471,0,0,0,.16,1.26Z" fill="#0b3360"/>
      </g>
      <path id="Trazado_120663" data-name="Trazado 120663" d="M23.5,257.51l.97,13.34H41.6l.97-13.34Z" fill="#0b3360"/>
      <rect id="Rectángulo_34782" data-name="Rectángulo 34782" width="22.77" height="5.25" transform="translate(21.84 252.26)" fill="#0b3360"/>
      <path id="Trazado_120664" data-name="Trazado 120664" d="M21.84,270.33v1.46h22.4v-1.46Z" fill="#375a64"/>
      <path id="Trazado_120665" data-name="Trazado 120665" d="M23.96,274.36l-1.05-2.57H43.42l-1.22,2.57Z" fill="#375a64"/>
      <path id="Trazado_120666" data-name="Trazado 120666" d="M42.25,261.87l-.08.12-.25.34-1,1.28v.06l-.05-.06c-.62-.87-1.46-2-2.45-3.39h.14l-2.41,3.41-.08.11-.08-.1-2.86-3.41h.16l-.16.2-2.56,3.21-.08.11-.08-.12L28,260.22h.14l-3,3.39-.05.06v-.07L24.1,262l-.24-.42c-.05-.09-.08-.14-.07-.14s0,0,.1.13l.26.4,1,1.53H25l3-3.39V260l.06.09,2.44,3.4h-.17l2.56-3.21.15-.2.09-.1.08.1,2.85,3.41H35.9c.88-1.23,1.7-2.38,2.44-3.4l.07-.1.07.1c1,1.37,1.79,2.55,2.4,3.42h-.09l1-1.24c.12-.13.21-.24.28-.33A.719.719,0,0,1,42.25,261.87Z" fill="#e1e1e1"/>
      <path id="Trazado_120667" data-name="Trazado 120667" d="M42.81,257.42c0,.06-4.29.11-9.58.11s-9.59,0-9.59-.11,4.29-.1,9.59-.1S42.81,257.37,42.81,257.42Z" fill="#375a64"/>
      <path id="Trazado_120668" data-name="Trazado 120668" d="M43.67,271.94c0,.05-4.66.1-10.41.1s-10.42-.05-10.42-.1,4.66-.11,10.42-.11S43.67,271.88,43.67,271.94Z" fill="#0b3360"/>
    </g>
    <g id="Grupo_80610" data-name="Grupo 80610">
      <path id="Trazado_120669" data-name="Trazado 120669" d="M246.15,118.45l-11.9,49.76h3.33l11.72-49.76Z" fill="#0b3360"/>
      <path id="Trazado_120670" data-name="Trazado 120670" d="M241.58,151.23c-.22.91,5.39,28,5.39,28h-2.7L240,157.77Z" fill="#0b3360"/>
    </g>
    <g id="Grupo_80614" data-name="Grupo 80614">
      <g id="Grupo_80612" data-name="Grupo 80612">
        <g id="Grupo_80611" data-name="Grupo 80611">
          <rect id="Rectángulo_34783" data-name="Rectángulo 34783" width="55.74" height="59.09" transform="translate(225.47 215.13)" fill="#4dd0e1"/>
          <rect id="Rectángulo_34784" data-name="Rectángulo 34784" width="2.74" height="2.74" transform="translate(281.2 223.76)" fill="#0b3360"/>
          <rect id="Rectángulo_34785" data-name="Rectángulo 34785" width="2.74" height="2.74" transform="translate(281.2 232.45)" fill="#0b3360"/>
          <rect id="Rectángulo_34786" data-name="Rectángulo 34786" width="2.74" height="2.74" transform="translate(281.2 241.14)" fill="#0b3360"/>
          <rect id="Rectángulo_34787" data-name="Rectángulo 34787" width="2.74" height="2.74" transform="translate(281.2 249.83)" fill="#0b3360"/>
          <path id="Trazado_120671" data-name="Trazado 120671" d="M284,241.94a4.681,4.681,0,0,1,.84-.19,13.761,13.761,0,0,1,2.35-.22,6.3,6.3,0,0,1,3.38.89,4.07,4.07,0,0,1,1.45,1.54,4,4,0,0,1,.43,2.22,4.61,4.61,0,0,1-.71,2.14,5.52,5.52,0,0,1-1.44,1.52,7.41,7.41,0,0,1-3.26,1.29,10.36,10.36,0,0,1-2.35.08,3.37,3.37,0,0,1-.86-.12,7.31,7.31,0,0,1,.86,0,12.068,12.068,0,0,0,2.32-.18,7.26,7.26,0,0,0,3.11-1.3,4.8,4.8,0,0,0,2-3.45,3.85,3.85,0,0,0-.39-2.05,3.79,3.79,0,0,0-1.33-1.42,6.19,6.19,0,0,0-3.23-.92,19.187,19.187,0,0,0-2.32.12,4.59,4.59,0,0,1-.85.05Z" fill="#0b3360"/>
          <path id="Trazado_120672" data-name="Trazado 120672" d="M283.36,233.3a2.524,2.524,0,0,1,.26-.16,5.212,5.212,0,0,1,.81-.32,6.37,6.37,0,0,1,3.2-.18,2.819,2.819,0,0,1,1,.4,1.77,1.77,0,0,1,.72,1,3,3,0,0,1-1.78,3.34,1.82,1.82,0,0,1-1.51-.08,1.54,1.54,0,0,1-.86-1.32,1.57,1.57,0,0,1,.88-1.35,2.47,2.47,0,0,1,1.6-.17,3.33,3.33,0,0,1,1.39.67,3.74,3.74,0,0,1,1.39,2.48,3.48,3.48,0,0,1-.72,2.47,5,5,0,0,1-1.71,1.45,8.14,8.14,0,0,1-3.11.81h-.87a1.431,1.431,0,0,1-.3,0,11.138,11.138,0,0,1,1.16-.16,8.58,8.58,0,0,0,3-.88,4.72,4.72,0,0,0,1.6-1.41,3.21,3.21,0,0,0,.64-2.28,3.48,3.48,0,0,0-1.29-2.26,2.89,2.89,0,0,0-1.26-.6,2.11,2.11,0,0,0-1.38.14,1.14,1.14,0,0,0,0,2.1,1.54,1.54,0,0,0,1.26.07,2.64,2.64,0,0,0,1-.75,2.56,2.56,0,0,0,.59-2.23,1.88,1.88,0,0,0-1.53-1.23,6.62,6.62,0,0,0-3.11.08C283.74,233.13,283.37,233.33,283.36,233.3Z" fill="#0b3360"/>
          <path id="Trazado_120673" data-name="Trazado 120673" d="M283.39,224.82a1.47,1.47,0,0,1,.6-.11,4.55,4.55,0,0,1,1.68.23,4.79,4.79,0,0,1,2.08,1.41,4.64,4.64,0,0,1-1.82,7.33,4.46,4.46,0,0,1-1.65.34,1.691,1.691,0,0,1-.61-.07,6.5,6.5,0,0,0,2.17-.48,4.68,4.68,0,0,0,1.85-1.49,4.55,4.55,0,0,0,.82-2.75,4.45,4.45,0,0,0-1-2.69,4.67,4.67,0,0,0-1.93-1.38,6.13,6.13,0,0,0-2.19-.34Z" fill="#0b3360"/>
          <path id="Trazado_120674" data-name="Trazado 120674" d="M242,183.73a5.609,5.609,0,0,1,.46,1.11,20.54,20.54,0,0,1,.74,3.35c.23,1.48.43,3.29.62,5.4s.37,4.52.71,7.16c.09.66.19,1.33.33,2a9.09,9.09,0,0,0,.6,2,7.48,7.48,0,0,0,1.37,1.69,11.331,11.331,0,0,0,1.8,1.39,10.61,10.61,0,0,0,4.5,1.53,8.82,8.82,0,0,0,4.92-.85,6,6,0,0,0,3.19-4,4.62,4.62,0,0,0-.19-2.65,4.7,4.7,0,0,0-1.73-2.09,5.17,5.17,0,0,0-2.64-.88,4.17,4.17,0,0,0-2.67.78,3,3,0,0,0-.9,1.07,2.2,2.2,0,0,0-.18,1.36,3.27,3.27,0,0,0,1.73,2.2,8,8,0,0,0,2.85.79,24.675,24.675,0,0,0,3,.2,46.447,46.447,0,0,0,5.82-.32c3.8-.43,7.47-1,11-1.08a21.59,21.59,0,0,1,9.81,1.86,11.51,11.51,0,0,1,3.65,2.72,8.4,8.4,0,0,1,1.89,3.75,10.07,10.07,0,0,1-1.08,7,12,12,0,0,1-3.7,3.95,13.72,13.72,0,0,1-3.06,1.56,9.1,9.1,0,0,1-1.15.35L284,225q.3-.09.84-.3a14.351,14.351,0,0,0,3-1.6,11.86,11.86,0,0,0,3.62-3.94,9.94,9.94,0,0,0,1-6.89,8.14,8.14,0,0,0-1.86-3.63A11.18,11.18,0,0,0,287,206a21.54,21.54,0,0,0-9.69-1.8,102.771,102.771,0,0,0-11,1.09,47.071,47.071,0,0,1-5.86.34,27.494,27.494,0,0,1-3-.21,8.19,8.19,0,0,1-3-.82,3.65,3.65,0,0,1-1.9-2.43,2.62,2.62,0,0,1,.2-1.56,3.33,3.33,0,0,1,1-1.19,4.5,4.5,0,0,1,2.87-.84,5.53,5.53,0,0,1,2.8.93,4.71,4.71,0,0,1,2.05,5.08,6.25,6.25,0,0,1-3.35,4.19,9.1,9.1,0,0,1-5.09.87,11,11,0,0,1-4.61-1.58,11.309,11.309,0,0,1-1.84-1.43,7.48,7.48,0,0,1-1.41-1.77,9,9,0,0,1-.62-2.08c-.13-.68-.23-1.36-.31-2-.33-2.66-.49-5.06-.67-7.17s-.35-3.93-.56-5.4a23.578,23.578,0,0,0-.68-3.36,7.31,7.31,0,0,0-.29-.83A.651.651,0,0,0,242,183.73Z" fill="#0b3360"/>
        </g>
        <path id="Trazado_120675" data-name="Trazado 120675" d="M278,271.74V256.73c0-9.51,0-23.07-.07-39.28l.14.14H227.69l.16-.16v54.29l-.13-.14,36.51.08h-.02l-36.59.07h-.14V217.14h50.7v.14c0,16.25-.05,29.84-.07,39.37v14.64a2.173,2.173,0,0,1-.11.45Z" fill="#0b3360"/>
      </g>
      <g id="Grupo_80613" data-name="Grupo 80613">
        <path id="Trazado_120676" data-name="Trazado 120676" d="M263.84,224.13a.26.26,0,1,1-.26-.26.25.25,0,0,1,.26.26Z" fill="#0b3360"/>
        <path id="Trazado_120677" data-name="Trazado 120677" d="M265.27,224.13a.26.26,0,0,1-.52,0,.25.25,0,0,1,.26-.26A.26.26,0,0,1,265.27,224.13Z" fill="#0b3360"/>
        <path id="Trazado_120678" data-name="Trazado 120678" d="M266.69,224.13a.26.26,0,1,1-.26-.26A.26.26,0,0,1,266.69,224.13Z" fill="#0b3360"/>
        <path id="Trazado_120679" data-name="Trazado 120679" d="M268.11,224.13a.26.26,0,1,1-.26-.26.25.25,0,0,1,.26.26Z" fill="#0b3360"/>
        <path id="Trazado_120680" data-name="Trazado 120680" d="M269.54,224.13a.26.26,0,0,1-.52,0,.25.25,0,0,1,.26-.26A.26.26,0,0,1,269.54,224.13Z" fill="#0b3360"/>
        <path id="Trazado_120681" data-name="Trazado 120681" d="M271,224.13a.26.26,0,1,1-.26-.26A.26.26,0,0,1,271,224.13Z" fill="#0b3360"/>
        <path id="Trazado_120682" data-name="Trazado 120682" d="M272.38,224.13a.26.26,0,1,1-.111-.267A.26.26,0,0,1,272.38,224.13Z" fill="#0b3360"/>
        <circle id="Elipse_5413" data-name="Elipse 5413" cx="0.26" cy="0.26" r="0.26" transform="translate(271.21 224.82)" fill="#0b3360"/>
        <circle id="Elipse_5414" data-name="Elipse 5414" cx="0.26" cy="0.26" r="0.26" transform="translate(269.75 224.82)" fill="#0b3360"/>
        <path id="Trazado_120683" data-name="Trazado 120683" d="M268.81,225.08a.26.26,0,1,1-.111-.267A.26.26,0,0,1,268.81,225.08Z" fill="#0b3360"/>
        <circle id="Elipse_5415" data-name="Elipse 5415" cx="0.26" cy="0.26" r="0.26" transform="translate(266.84 224.82)" fill="#0b3360"/>
        <circle id="Elipse_5416" data-name="Elipse 5416" cx="0.26" cy="0.26" r="0.26" transform="translate(265.38 224.82)" fill="#0b3360"/>
        <path id="Trazado_120684" data-name="Trazado 120684" d="M264.44,225.08a.26.26,0,1,1-.111-.267A.26.26,0,0,1,264.44,225.08Z" fill="#0b3360"/>
        <path id="Trazado_120685" data-name="Trazado 120685" d="M263.84,226.17a.25.25,0,0,1-.26.25.26.26,0,1,1,0-.51.25.25,0,0,1,.26.26Z" fill="#0b3360"/>
        <path id="Trazado_120686" data-name="Trazado 120686" d="M265.27,226.17a.3.3,0,1,1-.26-.26.26.26,0,0,1,.26.26Z" fill="#0b3360"/>
        <path id="Trazado_120687" data-name="Trazado 120687" d="M266.69,226.17a.26.26,0,1,1-.26-.26A.26.26,0,0,1,266.69,226.17Z" fill="#0b3360"/>
        <path id="Trazado_120688" data-name="Trazado 120688" d="M268.11,226.17a.25.25,0,0,1-.26.25.26.26,0,1,1,0-.51.25.25,0,0,1,.26.26Z" fill="#0b3360"/>
        <path id="Trazado_120689" data-name="Trazado 120689" d="M269.54,226.17a.3.3,0,1,1-.26-.26A.26.26,0,0,1,269.54,226.17Z" fill="#0b3360"/>
        <path id="Trazado_120690" data-name="Trazado 120690" d="M271,226.17a.26.26,0,1,1-.26-.26A.26.26,0,0,1,271,226.17Z" fill="#0b3360"/>
        <path id="Trazado_120691" data-name="Trazado 120691" d="M272.38,226.17a.26.26,0,1,1-.26-.26.25.25,0,0,1,.26.26Z" fill="#0b3360"/>
        <path id="Trazado_120692" data-name="Trazado 120692" d="M271.73,227.12a.26.26,0,1,1-.26-.26.26.26,0,0,1,.26.26Z" fill="#0b3360"/>
        <path id="Trazado_120693" data-name="Trazado 120693" d="M270.27,227.12a.25.25,0,0,1-.26.26.26.26,0,1,1,.26-.26Z" fill="#0b3360"/>
        <path id="Trazado_120694" data-name="Trazado 120694" d="M268.81,227.12a.26.26,0,1,1-.111-.267A.26.26,0,0,1,268.81,227.12Z" fill="#0b3360"/>
        <path id="Trazado_120695" data-name="Trazado 120695" d="M267.36,227.12a.26.26,0,1,1-.26-.26.26.26,0,0,1,.26.26Z" fill="#0b3360"/>
        <path id="Trazado_120696" data-name="Trazado 120696" d="M265.9,227.12a.25.25,0,0,1-.26.26.26.26,0,1,1,.26-.26Z" fill="#0b3360"/>
        <path id="Trazado_120697" data-name="Trazado 120697" d="M264.44,227.12a.26.26,0,1,1-.111-.267A.26.26,0,0,1,264.44,227.12Z" fill="#0b3360"/>
        <path id="Trazado_120698" data-name="Trazado 120698" d="M263.84,228.2a.25.25,0,0,1-.26.26.26.26,0,1,1,0-.51.25.25,0,0,1,.26.25Z" fill="#0b3360"/>
        <path id="Trazado_120699" data-name="Trazado 120699" d="M265.27,228.2a.3.3,0,1,1-.26-.25A.26.26,0,0,1,265.27,228.2Z" fill="#0b3360"/>
        <path id="Trazado_120700" data-name="Trazado 120700" d="M266.69,228.2a.26.26,0,1,1-.26-.25A.26.26,0,0,1,266.69,228.2Z" fill="#0b3360"/>
        <path id="Trazado_120701" data-name="Trazado 120701" d="M268.11,228.2a.25.25,0,0,1-.26.26.26.26,0,1,1,0-.51.25.25,0,0,1,.26.25Z" fill="#0b3360"/>
        <path id="Trazado_120702" data-name="Trazado 120702" d="M269.54,228.2a.3.3,0,1,1-.26-.25A.26.26,0,0,1,269.54,228.2Z" fill="#0b3360"/>
        <path id="Trazado_120703" data-name="Trazado 120703" d="M271,228.2a.26.26,0,1,1-.26-.25.26.26,0,0,1,.26.25Z" fill="#0b3360"/>
        <path id="Trazado_120704" data-name="Trazado 120704" d="M272.38,228.2a.26.26,0,1,1-.255-.209A.26.26,0,0,1,272.38,228.2Z" fill="#0b3360"/>
        <circle id="Elipse_5417" data-name="Elipse 5417" cx="0.26" cy="0.26" r="0.26" transform="translate(271.21 228.9)" fill="#0b3360"/>
        <circle id="Elipse_5418" data-name="Elipse 5418" cx="0.26" cy="0.26" r="0.26" transform="translate(269.75 228.9)" fill="#0b3360"/>
        <path id="Trazado_120705" data-name="Trazado 120705" d="M268.81,229.16a.26.26,0,1,1-.25-.26.26.26,0,0,1,.25.26Z" fill="#0b3360"/>
        <circle id="Elipse_5419" data-name="Elipse 5419" cx="0.26" cy="0.26" r="0.26" transform="translate(266.84 228.9)" fill="#0b3360"/>
        <circle id="Elipse_5420" data-name="Elipse 5420" cx="0.26" cy="0.26" r="0.26" transform="translate(265.38 228.9)" fill="#0b3360"/>
        <path id="Trazado_120706" data-name="Trazado 120706" d="M264.44,229.16a.26.26,0,1,1-.25-.26.26.26,0,0,1,.25.26Z" fill="#0b3360"/>
      </g>
    </g>
    <g id="Grupo_80615" data-name="Grupo 80615">
      <path id="Trazado_120707" data-name="Trazado 120707" d="M244.14,165.76a3,3,0,0,1,1,.17,5.82,5.82,0,0,1,2.46,1.61,10.83,10.83,0,0,1,2.18,4.13,40.721,40.721,0,0,1,1.37,6,76.511,76.511,0,0,1,.39,16.09,9.47,9.47,0,0,1-1.39,4.46,5.75,5.75,0,0,1-1.77,1.7,3.88,3.88,0,0,1-2.43.58,3.76,3.76,0,0,1-2.32-1.07,2.94,2.94,0,0,1-.68-1.14,2.44,2.44,0,0,1,0-1.34,2.89,2.89,0,0,1,1.74-2,2.07,2.07,0,0,1,1.39,0,2.5,2.5,0,0,1,1.1.83,3.38,3.38,0,0,1,.6,2.59,7.07,7.07,0,0,1-.9,2.46,9.52,9.52,0,0,1-12.8,3.71,10.85,10.85,0,0,1-3.38-2.91,14.12,14.12,0,0,1-2-3.66,23.93,23.93,0,0,1-1.37-7.38c-.13-2.29,0-4.37-.23-6.16a10.15,10.15,0,0,0-.58-2.44,7,7,0,0,0-1-1.83,5.23,5.23,0,0,0-2.32-1.71,6,6,0,0,0-1-.24,3.23,3.23,0,0,1,1,.18,5.12,5.12,0,0,1,2.4,1.69,7.29,7.29,0,0,1,1.09,1.85,10.51,10.51,0,0,1,.61,2.47c.25,1.82.14,3.9.28,6.18a23.589,23.589,0,0,0,1.39,7.29,14,14,0,0,0,2,3.59,10.6,10.6,0,0,0,3.29,2.82,9.21,9.21,0,0,0,12.38-3.61,6.66,6.66,0,0,0,.86-2.35,3.07,3.07,0,0,0-.54-2.34,2.15,2.15,0,0,0-1-.73,1.71,1.71,0,0,0-1.16,0,2.58,2.58,0,0,0-1.54,1.74,2.27,2.27,0,0,0,.62,2.17,3.5,3.5,0,0,0,2.12,1,3.67,3.67,0,0,0,2.24-.54,5.43,5.43,0,0,0,1.67-1.6,9.33,9.33,0,0,0,1.36-4.32,77.589,77.589,0,0,0-.33-16,40.911,40.911,0,0,0-1.32-6,10.66,10.66,0,0,0-2.09-4.09,5.74,5.74,0,0,0-2.39-1.63,6,6,0,0,0-1-.22Z" fill="#e1e1e1"/>
      <rect id="Rectángulo_34788" data-name="Rectángulo 34788" width="20.75" height="3.95" transform="translate(218.49 174.79)" fill="#e1e1e1"/>
    </g>
    <g id="Grupo_80617" data-name="Grupo 80617">
      <g id="Grupo_80616" data-name="Grupo 80616">
        <rect id="Rectángulo_34789" data-name="Rectángulo 34789" width="27.07" height="58.26" transform="translate(62.38 215.67)" fill="#0b3360"/>
        <path id="Trazado_120708" data-name="Trazado 120708" d="M87.12,267.8V253.63c0-8.89-.05-21.39-.08-35.94l.16.15H64.47l.16-.16v50.11l-.12-.12,16.54.06h.03l-16.61.07h-.12V217.4h23v.16c0,14.59,0,27.13-.07,36v13.83A2.17,2.17,0,0,1,87.12,267.8Z" fill="#375a64"/>
        <path id="Trazado_120709" data-name="Trazado 120709" d="M85.72,221.93a5.222,5.222,0,0,1,0-.61v-1.69l.07.07c-3.5.06-11,.09-19.69.09h0c.07-.07-.16.17.16-.16h0v2.28l-.16-.16c5.51,0,10.4,0,13.94.07h5.34a2,2,0,0,1,.41,0,2.37,2.37,0,0,1-.37,0H84.31l-4.15.05c-3.53,0-8.49.07-14.06.07h-.16V219.5h0l.16-.16h0c8.68,0,16.19,0,19.69.09h.07v1.8a3.75,3.75,0,0,1-.14.7Z" fill="#375a64"/>
        <path id="Trazado_120710" data-name="Trazado 120710" d="M68,223.58c0,.09-.41.16-.91.16s-.91-.07-.91-.16.41-.17.91-.17S68,223.49,68,223.58Z" fill="#375a64"/>
        <path id="Trazado_120711" data-name="Trazado 120711" d="M85.19,226.58c0,.09-4.19.17-9.36.17s-9.36-.08-9.36-.17,4.19-.16,9.36-.16S85.19,226.49,85.19,226.58Z" fill="#375a64"/>
        <path id="Trazado_120712" data-name="Trazado 120712" d="M85.28,230.22c0,.09-4.12.16-9.2.16s-9.2-.07-9.2-.16,4.11-.17,9.2-.17S85.28,230.13,85.28,230.22Z" fill="#375a64"/>
        <circle id="Elipse_5421" data-name="Elipse 5421" cx="1.49" cy="1.49" r="1.49" transform="translate(74.34 237.21)" fill="#4dd0e1"/>
        <path id="Trazado_120713" data-name="Trazado 120713" d="M71.64,238.63a6.359,6.359,0,0,1-2,.16,6.271,6.271,0,0,1-2-.16,6.271,6.271,0,0,1,2-.16,6.36,6.36,0,0,1,2,.16Z" fill="#375a64"/>
        <path id="Trazado_120714" data-name="Trazado 120714" d="M83.73,238.25a5.72,5.72,0,0,1-1.9.16,5.69,5.69,0,0,1-1.89-.16,5.69,5.69,0,0,1,1.89-.16,5.721,5.721,0,0,1,1.9.16Z" fill="#375a64"/>
      </g>
      <path id="Trazado_120715" data-name="Trazado 120715" d="M63.31,244.91a5.729,5.729,0,0,1-1-.19,8.51,8.51,0,0,1-2.68-1.24,11.42,11.42,0,0,1-3.24-3.37A19.38,19.38,0,0,1,54,234.39a23.38,23.38,0,0,1-.75-7.46,15.27,15.27,0,0,1,2.84-8.08,12.64,12.64,0,0,1,3.4-3.23,11.648,11.648,0,0,1,2.18-1.08,12.11,12.11,0,0,1,2.41-.58c1.65-.22,3.34-.19,5-.29a12.66,12.66,0,0,0,5-1.14,5.56,5.56,0,0,0,3.07-3.77,5.27,5.27,0,0,0-5.26-6.44,3.79,3.79,0,0,0-2.09.78,2.25,2.25,0,0,0-.87,1.88,3,3,0,0,0,2.79,2.69,4.56,4.56,0,0,0,3.57-1.6A8.75,8.75,0,0,0,77,202.68a30,30,0,0,0,.72-3.51,58.13,58.13,0,0,0,.33-10.81c-.07-1.26-.12-2.25-.15-2.94v-1.03a1.11,1.11,0,0,1,0,.26l.06.76c.06.67.14,1.67.21,3a56,56,0,0,1-.17,10.8,31.229,31.229,0,0,1-.71,3.54,8.8,8.8,0,0,1-1.77,3.5A4.85,4.85,0,0,1,71.7,208a3.31,3.31,0,0,1-3.07-3,2.57,2.57,0,0,1,1-2.14,4,4,0,0,1,2.26-.85,5.58,5.58,0,0,1,5.59,6.82,5.47,5.47,0,0,1-1.14,2.36,6.4,6.4,0,0,1-2.09,1.63,12.77,12.77,0,0,1-5.1,1.18c-1.7.1-3.38.07-5,.29a10.77,10.77,0,0,0-4.47,1.6A12.92,12.92,0,0,0,56.36,219a15.14,15.14,0,0,0-2.81,8,23.3,23.3,0,0,0,.7,7.38A19.43,19.43,0,0,0,56.54,240a11.44,11.44,0,0,0,3.15,3.36,9,9,0,0,0,2.62,1.28c.33.09.58.16.74.19Z" fill="#0b3360"/>
    </g>
    <g id="Grupo_80618" data-name="Grupo 80618">
      <rect id="Rectángulo_34790" data-name="Rectángulo 34790" width="64.09" height="44.01" transform="translate(54.09 125.29)" fill="#0b3360"/>
      <rect id="Rectángulo_34791" data-name="Rectángulo 34791" width="8.73" height="16.6" transform="translate(81.18 163.3)" fill="#0b3360"/>
    </g>
    <g id="Grupo_80619" data-name="Grupo 80619">
      <path id="Trazado_120716" data-name="Trazado 120716" d="M60.47,179.26v5.98H93.53v88.99h3.05V185.24l138.11.68v88.31h2.98V185.75l21.32.18v-7.18Z" fill="#0b3360"/>
      <path id="Trazado_120717" data-name="Trazado 120717" d="M81.63,184.08l13.04,9.39-1.14,1.08-13.14-9.9Z" fill="#0b3360"/>
      <path id="Trazado_120718" data-name="Trazado 120718" d="M249.96,184.95l-15.13,10.78,1.14,1.08,15.23-11.29Z" fill="#0b3360"/>
      <rect id="Rectángulo_34792" data-name="Rectángulo 34792" width="34.18" height="2.51" transform="translate(108.55 177.06)" fill="#0b3360"/>
    </g>
  </g>
</svg>
