<svg id="Capa_1" data-name="Capa 1" xmlns="http://www.w3.org/2000/svg" width="120" height="120" viewBox="0 0 120 120">
  <rect id="Rectángulo_34837" data-name="Rectángulo 34837" width="120" height="120" fill="none"/>
  <circle id="Elipse_5425" data-name="Elipse 5425" cx="50" cy="50" r="50" transform="translate(10 10)" fill="#9cbce1"/>
  <g id="Grupo_80737" data-name="Grupo 80737">
    <path id="Trazado_121084" data-name="Trazado 121084" d="M94,41.55c.92-1,1.83-2.11,2.79-3.14.4-.43.33-.67-.1-1-2.13-1.82-4.23-3.66-6.52-5.65l26.44-9.16v.66a48.928,48.928,0,0,0-1.32,6.32c-1.3,6.71-2.56,13.42-3.84,20.22a10.1,10.1,0,0,1-2-1.58c-1.52-1.28-3-2.59-4.51-3.9-.39-.34-.68-.47-1.07,0-.74,1-1.53,1.88-2.3,2.81-.65.51-1,1.54-1.9,1.56-2.56,0-5.37,1.18-7.43-1.43a.79.79,0,0,0-.36-.24c-.75-.23-.77-.78-.64-1.4a2.93,2.93,0,0,1,.38-1.25,7.57,7.57,0,0,0,1.61-1.91Z" fill="#fe7159"/>
    <path id="Trazado_121085" data-name="Trazado 121085" d="M88.25,62.5C85.13,66.09,82,69.66,78.9,73.25l-19.82,23a1.37,1.37,0,0,1-1.33.54q-9.54-1-19.1-1.95c-1.46-.15-2.94-.22-4.39-.47a7.37,7.37,0,0,0-3.24.33q-12.16,3.21-24.33,6.4c-.74.19-1.08.16-1.28-.69-.56-2.36-1.24-4.69-1.87-7-.09-.36-.38-.74.31-.92,4.48-1.17,9-2.37,13.43-3.56-.6,1.27-.46,1.49.94,1.58s2.66,0,3.64-1.11a1.39,1.39,0,0,1,.88-.4c1.93-.31,1.92-.32,2.12-2.23,1.63-.42,3.27-.8,4.89-1.29a11.41,11.41,0,0,1,4.76-.38c3.38.42,6.79.68,10.18,1h.09c-.13,1.2,1.24,2.31,2.19,1.64.65-.47,1-.17,1.4,0a5.55,5.55,0,0,0,4.77.31c.54-.22.74-.43.3-.91a2.43,2.43,0,0,0,2-.73Q70.7,68.66,86,51v1.87a28.39,28.39,0,0,0,2.25,9.63Z" fill="#fe7159"/>
    <path id="Trazado_121086" data-name="Trazado 121086" d="M20.58,86.27a7,7,0,0,0-1.3-3.11,114.712,114.712,0,0,1-5.8-10.1c-1.07-2-.65-4.16-.56-6.27a14.64,14.64,0,0,1,.35-1.94A1.82,1.82,0,0,1,15,64.51c1.91.44,4.7-.92,5.33-2.63.28-.77.39-.68.87-.16a42.8,42.8,0,0,0,3.53,3.47c1.43,1.19,1.83,1,3-.45.54-.65.72-1.64,1.68-1.92a32.28,32.28,0,0,1,5.82,4.68c4.58,4.78,8.17,10.29,11.81,15.76a1.45,1.45,0,0,1,.37,1l-.7,1.33a3.38,3.38,0,0,1-1.94.48h-.09c.15-.44-.15-.69-.4-.95-1.8-2-3.41-4.06-5.1-6.11-1.49-1.81-2.74-3.89-4.76-5.17C32.25,72.45,30.14,71,28,69.54a18.63,18.63,0,0,0-5.89-3c-1.6-.4-2.15-.12-2.9,1.37a7.17,7.17,0,0,0,.21,6.93C21.09,78,23,81,23.78,84.5l.12.23-.06.2c-.7.44-1.09,1.25-1.89,1.57a2.49,2.49,0,0,1-1.37-.23Z" fill="#315b6d"/>
    <path id="Trazado_121087" data-name="Trazado 121087" d="M29.42,62.82c-1,.28-1.14,1.27-1.68,1.92-1.19,1.46-1.59,1.64-3,.45a42.8,42.8,0,0,1-3.53-3.47c-.48-.52-.59-.61-.87.16A5.148,5.148,0,0,1,15,64.51a1.82,1.82,0,0,0-1.72.34c-.68.21-.72-.13-.62-.67A32.24,32.24,0,0,0,13,56.71c0-.47.11-1.07-.61-1.21a3.55,3.55,0,0,1,.23-1.29l1.7.16c.27,0,.5,0,.44-.37.75,0,1.63.5,2.22,0,1-.81,2-.54,3.06-.65l.41,2.57.56-.86c1.2-.43,1.66-1.52,2.23-2.51a14.15,14.15,0,0,1,3.9,0,4.49,4.49,0,0,0,.26,5.39,8.74,8.74,0,0,1,2.02,4.88Z" fill="#23495f"/>
    <path id="Trazado_121088" data-name="Trazado 121088" d="M88.25,62.5A28.39,28.39,0,0,1,86,52.82V50.95c.18-.77-.4-.54-.74-.53l-9.61.3-27.4.94-.63-1,23.62-.92q7-.29,14.12-.52a1.2,1.2,0,0,0,1.27-.79,3.5,3.5,0,0,1,3.07-2.19c.72-.07.74-.47.81-1,.2-1.54.4-3.1,2.22-3.7a1.45,1.45,0,0,1,1.27,0l-.79.89c-1.26,0-1.55.87-1.61,1.91a2.93,2.93,0,0,0-.38,1.25c-.13.62-.11,1.17.64,1.4a.79.79,0,0,1,.36.24c2.06,2.61,4.87,1.48,7.43,1.43.93,0,1.25-1.05,1.9-1.56.49,1.21.36,1.49-.9,2.3a3.17,3.17,0,0,1-1.73.55H95.27c0,.71.75,1.36,0,1.91A2.44,2.44,0,0,1,93,52a2.51,2.51,0,0,1-1.4-.82c-.66-1.09-1.64-1.05-2.68-1a5.06,5.06,0,0,1-1.1,0c-1.22-.21-1.45.53-1.41,1.47a24,24,0,0,0,2.49,10,6.54,6.54,0,0,0,1.3,2,1.72,1.72,0,0,1,.47,1.76C89.36,64.79,88.9,63.57,88.25,62.5Zm1.14-15.58c-1.25-.09-1.85.69-2.31,1.69-.31.7.2.51.53.52h1.22c1.52-.07,1.48-.07,1.41-1.64C90.2,46.8,89.89,46.77,89.39,46.92Zm2.44,3.24a2.82,2.82,0,0,0,2.34,1.37c.46,0,.58-.14.37-.59C94,49.69,93,50.11,91.83,50.16Zm-.42-2.38c-.09,1.41,0,1.47,1.15,1.06Z" fill="#0ec7bb"/>
    <path id="Trazado_121089" data-name="Trazado 121089" d="M88.85,61.75a24,24,0,0,1-2.49-10c0-.94.19-1.68,1.41-1.47a5.06,5.06,0,0,0,1.1,0c1-.08,2-.12,2.68,1A2.51,2.51,0,0,0,93,52a2.44,2.44,0,0,0,2.32-.15c.75-.55,0-1.2,0-1.91h3.64l-9.69,11.3C89.12,61.41,89,61.58,88.85,61.75Z" fill="#fc735a"/>
    <path id="Trazado_121090" data-name="Trazado 121090" d="M12.63,54.21a3.55,3.55,0,0,0-.23,1.29l-.65-.22-.94-.54C9.07,53.87,7.32,53,5.58,52.12a5.46,5.46,0,0,1-1-.67c-1.31-1.06-1.33-1.64-.16-2.88C5.86,47,7.58,45.81,8.91,44.16a8.75,8.75,0,0,0,1.64-2.46,1.64,1.64,0,0,1,1.19-1.18c.19,2.72.65,5.45,0,8.18a2,2,0,0,0-1.59,1.41c-.11.7.89.73,1.49.91a4.48,4.48,0,0,0,.64.09,1.17,1.17,0,0,0,.81.21,5,5,0,0,0-.46,2.89Z" fill="#325c6e"/>
    <path id="Trazado_121091" data-name="Trazado 121091" d="M18,38.06c-1.43-3-1-5.58,1.21-7.5,1.7-1.49,3.53-1.09,5.4-.5a9.79,9.79,0,0,1,1.11.48c1.59.68,1.8,1.83.56,3.06-1.51.33-2.87.8-2.81,2.77,0,.5-.32.6-.71.25-1.23-1.1-1.55-1-2.3.43-.13.27-.24.54-.39.79C19.49,38.86,18.89,38.92,18,38.06Z" fill="#315b6d"/>
    <path id="Trazado_121092" data-name="Trazado 121092" d="M11.72,48.7c.67-2.73.21-5.46,0-8.18a38.271,38.271,0,0,1,5.09-.93c-1,.88-.52,2.15-.85,3.21a8.43,8.43,0,0,0-.07,2.08,10,10,0,0,0,.72,4.17c.34.87,1.22,1.35,1.52,2.23a31.27,31.27,0,0,0-3.49-.2c-.6-.35-1.06.17-1.59.24a1.17,1.17,0,0,1-.81-.21Z" fill="#23495f"/>
    <path id="Trazado_121093" data-name="Trazado 121093" d="M18,38.06c.86.86,1.46.8,2.07-.22.15-.25.26-.52.39-.79.75-1.47,1.07-1.53,2.3-.43.39.35.72.25.71-.25-.06-2,1.3-2.44,2.81-2.77a5.68,5.68,0,0,0,.91,2.54c.23.3.4.65-.14.88s-.24.61-.32.95a9.55,9.55,0,0,1-.71,3v.1a5,5,0,0,0-2.15,0,2.94,2.94,0,0,0-2.29,1.44h-.53c-.78-1-1.55-2-2.35-3-.15-.18-.17-.61-.59-.4l-.43.06Z" fill="#fdd153"/>
    <path id="Trazado_121094" data-name="Trazado 121094" d="M26.05,41c1.41.23,2.85.4,3.21,2.17a.48.48,0,0,0-.48.48,39.48,39.48,0,0,0-.66,6.14,2.73,2.73,0,0,1-.46,1.53,23.16,23.16,0,0,1-3.53.22,2.19,2.19,0,0,1,.21-1.06,11.68,11.68,0,0,0,.39-9.2L26,41.05Z" fill="#23495f"/>
    <path id="Trazado_121095" data-name="Trazado 121095" d="M24.13,51.49a23.16,23.16,0,0,0,3.53-.22A27.14,27.14,0,0,0,33,51.09c3.61.08,7.21-.25,10.81-.3.45.18,1.54-.13.75,1a11.11,11.11,0,0,0-3,.21c-4.28,0-8.55.18-12.82.45a2.88,2.88,0,0,0-1.59.1,14.55,14.55,0,0,0-3.9,0l-1.33.08a3.13,3.13,0,0,0-1.58,0,10,10,0,0,1-3.46-.8l1.57-.18,1.14-.07a6.36,6.36,0,0,0,2.3-.08l.59-.06Z" fill="#08c4b8"/>
    <path id="Trazado_121096" data-name="Trazado 121096" d="M33,51.09a27.14,27.14,0,0,1-5.33.18,2.73,2.73,0,0,0,.46-1.53,39.48,39.48,0,0,1,.66-6.14.48.48,0,0,1,.48-.48A64.91,64.91,0,0,1,33,51.09Z" fill="#315c6e"/>
    <path id="Trazado_121097" data-name="Trazado 121097" d="M20.58,86.27A2.49,2.49,0,0,0,22,86.5a1.18,1.18,0,0,0,2.12-.15,7.29,7.29,0,0,0,.29-1.16c.54.39.41,1,.5,1.54-.2,1.91-.19,1.92-2.12,2.23a1.39,1.39,0,0,0-.88.4c-1,1.15-2.28,1.2-3.64,1.11s-1.54-.31-.94-1.58A36.12,36.12,0,0,0,20.58,86.27Z" fill="#274b60"/>
    <path id="Trazado_121098" data-name="Trazado 121098" d="M19.59,51.64l-1.14.07c.05-.24-.07-.37-.3-.43-.3-.88-1.18-1.36-1.52-2.23a10,10,0,0,1-.72-4.17A8.43,8.43,0,0,1,16,42.8c.33-1.06-.11-2.33.85-3.21l.85-.41.43-.06-.42,3.12a15.3,15.3,0,0,0-.41,4.67,5.19,5.19,0,0,0,1.91,4.15Z" fill="#325c6e"/>
    <path id="Trazado_121099" data-name="Trazado 121099" d="M10.81,54.74l.94.54C10.12,57,9.83,59.19,9.87,61.45c0,1.51.06,3,.11,4.53a4.59,4.59,0,0,1-.45,2c-.12.26-.18.61-.59.45a.55.55,0,0,1-.37-.71c.72-2.06.28-4.17.28-6.26a10.73,10.73,0,0,1,1.96-6.72Z" fill="#14cabe"/>
    <path id="Trazado_121100" data-name="Trazado 121100" d="M44.56,51.77c.78-1.11-.31-.8-.76-1,1-.95,1.57-1.07,2.63-.27.44.34.86-.29,1.18.17l.63,1c-.1.34-.09.83-.49.91-1.25.26-2.36,1.13-3.73.94-1-.88-.94-1.07.17-1.52a2.4,2.4,0,0,0,.37-.23Z" fill="#fdd153"/>
    <path id="Trazado_121101" data-name="Trazado 121101" d="M91.59,44.35c.06-1,.35-1.88,1.61-1.91A7.57,7.57,0,0,1,91.59,44.35Z" fill="#dfe7e4"/>
    <path id="Trazado_121102" data-name="Trazado 121102" d="M48.44,84.93c1.29.54,2.27,1.66,3.66,2a2,2,0,0,0,1.35.2h0c.44.48.24.69-.3.91a5.55,5.55,0,0,1-4.77-.31c-.43-.21-.75-.51-1.4,0-.95.67-2.32-.44-2.19-1.64a3.38,3.38,0,0,0,1.94-.48C47.49,85.89,48,85.46,48.44,84.93Z" fill="#274b60"/>
    <path id="Trazado_121103" data-name="Trazado 121103" d="M23.84,84.93a.51.51,0,0,1,.52.26,7.29,7.29,0,0,1-.29,1.16A1.18,1.18,0,0,1,22,86.5C22.75,86.18,23.14,85.37,23.84,84.93Z" fill="#dfe7e4"/>
    <path id="Trazado_121104" data-name="Trazado 121104" d="M48.44,84.93c-.45.53-.95,1-1.72.67l.7-1.33C47.89,84.29,48.05,84.78,48.44,84.93Z" fill="#dfe7e4"/>
    <path id="Trazado_121105" data-name="Trazado 121105" d="M23.78,84.5l.12.23Z" fill="#dfe7e4"/>
    <path id="Trazado_121106" data-name="Trazado 121106" d="M18.15,51.28c.23.06.35.19.3.43l-1.57.18a10,10,0,0,0,3.46.8c.06.29-.15.46-.29.67C19,53.47,18,53.2,17,54c-.59.49-1.47,0-2.22,0a7,7,0,0,1-.11-2.92,31.269,31.269,0,0,1,3.48.2Z" fill="#fdd153"/>
    <path id="Trazado_121107" data-name="Trazado 121107" d="M14.66,51.08A7,7,0,0,0,14.77,54c.06.38-.17.39-.44.37l-1.7-.16a5,5,0,0,1,.44-2.89C13.6,51.25,14.06,50.73,14.66,51.08Z" fill="#dfe7e4"/>
    <path id="Trazado_121108" data-name="Trazado 121108" d="M20.05,53.36c.14-.21.35-.38.29-.67a3.13,3.13,0,0,1,1.58,0,13.13,13.13,0,0,0-.9,2.43l-.56.86Z" fill="#fc735a"/>
    <path id="Trazado_121109" data-name="Trazado 121109" d="M21,55.07a13.13,13.13,0,0,1,.9-2.43l1.33-.08C22.68,53.55,22.22,54.64,21,55.07Z" fill="#315c6e"/>
    <path id="Trazado_121110" data-name="Trazado 121110" d="M89.39,46.92c.5-.15.81-.12.85.56.07,1.57.11,1.57-1.41,1.64H87.61Z" fill="#fc735a"/>
    <path id="Trazado_121111" data-name="Trazado 121111" d="M91.83,50.16c1.13,0,2.14-.47,2.71.78.21.45.09.6-.37.59a2.82,2.82,0,0,1-2.34-1.37Z" fill="#fc735a"/>
    <path id="Trazado_121112" data-name="Trazado 121112" d="M89.39,46.92l-1.78,2.21c-.33,0-.84.18-.53-.52C87.54,47.61,88.14,46.83,89.39,46.92Z" fill="#fdfdfd"/>
    <path id="Trazado_121113" data-name="Trazado 121113" d="M91.41,47.78l1.15,1.06C91.39,49.25,91.32,49.19,91.41,47.78Z" fill="#fc735a"/>
    <path id="Trazado_121114" data-name="Trazado 121114" d="M11.72,48.7l.54,2.41a4.48,4.48,0,0,1-.64-.09c-.6-.18-1.6-.21-1.49-.91a2,2,0,0,1,1.59-1.41Z" fill="#fdfdfd"/>
    <path id="Trazado_121115" data-name="Trazado 121115" d="M19.59,51.64c-.14-.19-.27-.39-.4-.58a16.44,16.44,0,0,1,.73-3.55,4.53,4.53,0,0,0-.27-3.94l1.4-1.08h.53c.3.36.86,0,1.14.41a3,3,0,0,0-1.2,3.18c.19,1.82.25,3.66.37,5.49a6.36,6.36,0,0,1-2.3.07Z" fill="#fc735a"/>
    <path id="Trazado_121116" data-name="Trazado 121116" d="M24.13,51.49H22.48a11.94,11.94,0,0,0,1.18-7A8.18,8.18,0,0,0,23.87,41a5,5,0,0,1,2.15,0l-1.29.18a11.68,11.68,0,0,1-.39,9.2A2.19,2.19,0,0,0,24.13,51.49Z" fill="#325c6e"/>
    <path id="Trazado_121117" data-name="Trazado 121117" d="M21.05,42.49l-1.4,1.08c-1.18.57-1.18.58-1.51-.76a.74.74,0,0,0-.45-.57l.42-3.12c.42-.21.44.22.59.4C19.5,40.5,20.27,41.5,21.05,42.49Z" fill="#dfe7e4"/>
    <path id="Trazado_121118" data-name="Trazado 121118" d="M23.87,41a8.18,8.18,0,0,1-.21,3.41c-.47-.43.18-1.53-.94-1.56-.28-.42-.84,0-1.14-.41A2.94,2.94,0,0,1,23.87,41Z" fill="#dfe7e4"/>
    <path id="Trazado_121119" data-name="Trazado 121119" d="M42.06,55.35c-2.9.68-5.83,1.18-8.78,1.6a1.47,1.47,0,0,1-1.15-.26,9.52,9.52,0,0,1-3.39-4.26C33,52.16,37.28,52,41.56,52c-.25,1-.55,1.93.48,2.65Z" fill="#315c6e"/>
    <path id="Trazado_121120" data-name="Trazado 121120" d="M22.72,42.89c1.12,0,.47,1.13.94,1.56a11.94,11.94,0,0,1-1.18,7l-.59.06c-.12-1.83-.18-3.67-.37-5.49A3,3,0,0,1,22.72,42.89Z" fill="#cad3dd"/>
    <path id="Trazado_121121" data-name="Trazado 121121" d="M42,54.63c-1-.72-.73-1.69-.48-2.65a11.11,11.11,0,0,1,3-.21,1.93,1.93,0,0,1-.36.22c-1.11.45-1.14.64-.17,1.52.09.67-.63.57-.88.93a1.63,1.63,0,0,0-1.11.19Z" fill="#dfe7e4"/>
    <path id="Trazado_121122" data-name="Trazado 121122" d="M17.69,42.24a.74.74,0,0,1,.45.57c.33,1.34.33,1.33,1.51.76a4.53,4.53,0,0,1,.27,3.94,16.44,16.44,0,0,0-.73,3.55,5.19,5.19,0,0,1-1.91-4.15,15.3,15.3,0,0,1,.41-4.67Z" fill="#cad3dd"/>
    <path id="Trazado_121123" data-name="Trazado 121123" d="M42,54.63a1.63,1.63,0,0,1,1.1-.19c0,.72-.41,1-1.08.91Z" fill="#274b60"/>
    <path id="Trazado_121124" data-name="Trazado 121124" d="M53.45,87.16A2,2,0,0,1,52.1,87a2.11,2.11,0,0,1,1.35.16Z" fill="#fe7159"/>
  </g>
</svg>
