<svg xmlns="http://www.w3.org/2000/svg" width="297.044" height="252.221" viewBox="0 0 297.044 252.221">
  <g id="Capa_1" data-name="Capa 1" transform="translate(0.924 -37.22)">
    <g id="Grupo_82702" data-name="Grupo 82702">
      <path id="Trazado_134551" data-name="Trazado 134551" d="M21.75,108.78a1.95,1.95,0,1,1-.553-1.411,1.95,1.95,0,0,1,.553,1.411Z" fill="#e1e1e1"/>
      <path id="Trazado_134552" data-name="Trazado 134552" d="M19.91,108.78v17.75c0,11.18,0,26.94.06,45.3h0l-8.63,12v54.3L21.8,250.81h0V251c0,11.69,0,21.31-.06,28v0c0-6.7,0-16.32-.06-28v.08L11.17,238.37h0V183.74h0l8.64-11.95v.08c0-18.36,0-34.12.06-45.3V109.12A1.267,1.267,0,0,1,19.91,108.78Z" fill="#e1e1e1"/>
    </g>
    <g id="Grupo_82703" data-name="Grupo 82703">
      <path id="Trazado_134553" data-name="Trazado 134553" d="M96.1,63.75H69.87V37.52H96.1Zm-25.66-.57H95.53V38.09H70.44Z" fill="#e1e1e1"/>
      <path id="Trazado_134554" data-name="Trazado 134554" d="M95.82,37.81c.05,0-5.64,5.85-12.73,12.93S70.21,63.53,70.15,63.47s5.64-5.85,12.73-12.94S95.76,37.75,95.82,37.81Z" fill="#e1e1e1"/>
      <path id="Trazado_134555" data-name="Trazado 134555" d="M94.48,63.63a2,2,0,0,1-.23-.27l-.61-.8c-.52-.7-1.29-1.71-2.25-2.94-1.92-2.47-4.67-5.82-7.9-9.33s-6.36-6.51-8.67-8.63c-1.16-1-2.1-1.9-2.76-2.48l-.75-.67a2.27,2.27,0,0,1-.25-.25,1.19,1.19,0,0,1,.29.2l.79.64c.68.55,1.64,1.37,2.82,2.41,2.35,2.07,5.49,5.06,8.74,8.58a118.434,118.434,0,0,1,7.86,9.4c.94,1.25,1.68,2.28,2.18,3l.56.84a1.37,1.37,0,0,1,.18.3Z" fill="#e1e1e1"/>
    </g>
    <g id="Grupo_82704" data-name="Grupo 82704">
      <path id="Trazado_134556" data-name="Trazado 134556" d="M285.44,134.47H259.21V108.24h26.23Zm-25.66-.56h25.09v-25.1H259.78Z" fill="#e1e1e1"/>
      <path id="Trazado_134557" data-name="Trazado 134557" d="M285.15,108.53c.06.06-5.64,5.85-12.72,12.93s-12.88,12.79-12.94,12.73,5.64-5.85,12.73-12.94S285.1,108.47,285.15,108.53Z" fill="#e1e1e1"/>
      <path id="Trazado_134558" data-name="Trazado 134558" d="M283.82,134.35s-.08-.08-.23-.26l-.61-.81c-.52-.7-1.29-1.71-2.25-2.94-1.92-2.47-4.67-5.82-7.91-9.33s-6.35-6.51-8.66-8.62c-1.16-1.06-2.1-1.91-2.76-2.49l-.75-.67-.25-.25a2.047,2.047,0,0,1,.29.21l.79.63c.68.55,1.64,1.37,2.82,2.41,2.35,2.08,5.49,5.06,8.74,8.58a115.891,115.891,0,0,1,7.85,9.4c.95,1.25,1.69,2.28,2.18,3l.57.83A1.371,1.371,0,0,1,283.82,134.35Z" fill="#e1e1e1"/>
    </g>
    <g id="Grupo_82706" data-name="Grupo 82706">
      <g id="Grupo_82705" data-name="Grupo 82705">
        <path id="Trazado_134559" data-name="Trazado 134559" d="M243.92,226.27a19.56,19.56,0,0,0-8.34-2.88,5.55,5.55,0,0,0-4,.73c-.23.18-.46.43-.4.72a.83.83,0,0,0,.38.49,11.94,11.94,0,0,0,12.31.94" fill="#e1e1e1"/>
        <path id="Trazado_134560" data-name="Trazado 134560" d="M243.71,226a40.551,40.551,0,0,1-5.39-4.74,13.63,13.63,0,0,1-3.38-6.25,2.49,2.49,0,0,1,.27-2.09c4.29,3.36,7.67,7.69,8.5,13.08" fill="#e1e1e1"/>
        <path id="Trazado_134561" data-name="Trazado 134561" d="M243.88,226.23a19.53,19.53,0,0,1,.09-7.07,9.59,9.59,0,0,1,3.77-5.84,8.27,8.27,0,0,1-.1,5.55,26.66,26.66,0,0,1-3.73,7.86" fill="#e1e1e1"/>
        <path id="Trazado_134562" data-name="Trazado 134562" d="M248.09,233.78a12.33,12.33,0,0,0-6.69,3.38,12.66,12.66,0,0,0-3.83,6.57c2.51-.15,4.63-1.92,6.17-3.9s2.62-4.16,4.31-6" fill="#e1e1e1"/>
        <path id="Trazado_134563" data-name="Trazado 134563" d="M249,235a16.5,16.5,0,0,1,1.9-15.6A19.81,19.81,0,0,1,249,235" fill="#e1e1e1"/>
        <path id="Trazado_134564" data-name="Trazado 134564" d="M254.56,241.61a12,12,0,0,0-11.41,6.56c-.14.29-.26.65-.07.9a.83.83,0,0,0,.75.22,9.89,9.89,0,0,0,5.89-3,56.415,56.415,0,0,1,4.89-4.65" fill="#e1e1e1"/>
        <path id="Trazado_134565" data-name="Trazado 134565" d="M254.39,241.25a21.21,21.21,0,0,1-.22-11.87c.42-1.53,1.12-3.14,2.54-3.85a.44.44,0,0,1,.38-.07c.12,0,.19.17.25.28a7.21,7.21,0,0,1,.6,3.41,22.369,22.369,0,0,1-.54,3.44c-.44,2.11-.68,4.37-1.84,6.19a13.649,13.649,0,0,0-.73,1.36c-.22.46-.22.62-.42,1" fill="#e1e1e1"/>
        <path id="Trazado_134566" data-name="Trazado 134566" d="M269.11,243.44a15.32,15.32,0,0,1,2.68-12.58c.2-.25.45-.52.76-.49.49,0,.61.68.59,1.17a22.69,22.69,0,0,1-4,11.9" fill="#e1e1e1"/>
        <path id="Trazado_134567" data-name="Trazado 134567" d="M270.44,244.35a18.29,18.29,0,0,0,15-3.06,12.17,12.17,0,0,0-8.13-1,11.55,11.55,0,0,0-6.89,4" fill="#e1e1e1"/>
        <path id="Trazado_134568" data-name="Trazado 134568" d="M271.56,241.59a17.35,17.35,0,0,1,13.63-7.89,8.39,8.39,0,0,1-4.46,4.93,24.88,24.88,0,0,1-6.54,1.92,4.57,4.57,0,0,0-2.63,1" fill="#e1e1e1"/>
        <path id="Trazado_134569" data-name="Trazado 134569" d="M269.39,228.18a39.17,39.17,0,0,0,1.74-8,13.21,13.21,0,0,0-1.59-7.89,17.4,17.4,0,0,0-.23,16.15" fill="#e1e1e1"/>
        <path id="Trazado_134570" data-name="Trazado 134570" d="M278.27,223.69c3.09-5.61,9.38-10.08,15.75-10.71-2.46,6.11-9.16,10.84-15.75,10.71" fill="#e1e1e1"/>
        <path id="Trazado_134571" data-name="Trazado 134571" d="M276.33,224.79c4.6.7,8.52,3.64,12.82,5.42a5.75,5.75,0,0,0,2.9.55,2.53,2.53,0,0,0,2.18-1.76,2.56,2.56,0,0,0-.76-2.25,6.32,6.32,0,0,0-2.11-1.28,23.39,23.39,0,0,0-14.63-.81" fill="#e1e1e1"/>
        <path id="Trazado_134572" data-name="Trazado 134572" d="M273.67,228a5.44,5.44,0,0,1,2.22,1.54,23.94,23.94,0,0,0,9.72,5c.37.09.86.13,1-.21a.821.821,0,0,0-.25-.91,13.27,13.27,0,0,0-5.87-4c-2.24-.84-4.18-1.84-6.86-1.63" fill="#e1e1e1"/>
        <path id="Trazado_134573" data-name="Trazado 134573" d="M270.66,208.53a18.44,18.44,0,0,0,14.11,4.8,1,1,0,0,0,.64-.23c.35-.39-.07-1-.48-1.31a16.27,16.27,0,0,0-14.27-3.26" fill="#e1e1e1"/>
        <path id="Trazado_134574" data-name="Trazado 134574" d="M274.23,207.22a19.67,19.67,0,0,1,17.59-2.9,13.9,13.9,0,0,1-8.38,3.68,26.48,26.48,0,0,1-9.21-.78" fill="#e1e1e1"/>
        <path id="Trazado_134575" data-name="Trazado 134575" d="M272.81,198.27c-.41-4.14-.14-7.41-.43-11.56,0-.34-.09-.74-.4-.85s-.8.36-.94.8a13.28,13.28,0,0,0,1.76,11.52" fill="#e1e1e1"/>
        <path id="Trazado_134576" data-name="Trazado 134576" d="M272.51,198.73a24.34,24.34,0,0,0,6.86-6.67c1.35-1.85,2.49-4.07,2.19-6.34a6.57,6.57,0,0,0-4.95,2.45,13.841,13.841,0,0,0-2.52,5.08c-.55,1.82-.93,3.69-1.58,5.48" fill="#e1e1e1"/>
        <path id="Trazado_134577" data-name="Trazado 134577" d="M279.25,196.86a55.5,55.5,0,0,0,16.87-10c-2-.81-4.32-.33-6.34.49a20,20,0,0,0-10.62,9.41" fill="#e1e1e1"/>
        <path id="Trazado_134578" data-name="Trazado 134578" d="M274.41,201a34.59,34.59,0,0,0,9.37,0,39.71,39.71,0,0,0,8.74-2.91,1.06,1.06,0,0,0,.6-.45.69.69,0,0,0-.22-.75,2,2,0,0,0-.74-.35,16.2,16.2,0,0,0-9.46.57,43.9,43.9,0,0,0-8.29,3.84" fill="#e1e1e1"/>
        <path id="Trazado_134579" data-name="Trazado 134579" d="M256.62,208.67a16.62,16.62,0,0,1-.15-13.72,10.54,10.54,0,0,1,1.22,6.82c-.24,2.35-.95,4.76-1,7.11" fill="#e1e1e1"/>
        <path id="Trazado_134580" data-name="Trazado 134580" d="M248.13,204.39a19.15,19.15,0,0,0-14.21,6.05A13.21,13.21,0,0,0,241.7,209a40.192,40.192,0,0,0,6.67-4.46" fill="#e1e1e1"/>
        <path id="Trazado_134581" data-name="Trazado 134581" d="M242.43,202.48c-2.6-.21-5.1-.53-7.59.23a9.07,9.07,0,0,0-5.78,4.91,13.74,13.74,0,0,0,7.11-1.35,41.231,41.231,0,0,0,6.26-3.79" fill="#e1e1e1"/>
        <path id="Trazado_134582" data-name="Trazado 134582" d="M250.88,202.57a24,24,0,0,0-7.45-3.72c-2.72-.64-5.87-.17-7.77,1.88,2.2,1.29,4.87,1.44,7.42,1.44s5.68,0,8.09.82" fill="#e1e1e1"/>
        <path id="Trazado_134583" data-name="Trazado 134583" d="M250.89,202.69c-4-3.92-5.5-11-3.9-16.32a24.88,24.88,0,0,1,3.9,16.32" fill="#e1e1e1"/>
        <path id="Trazado_134584" data-name="Trazado 134584" d="M261.87,191.58c.75-1.75,1.28-3.58,1.95-5.36a15.439,15.439,0,0,1,2.8-4.95,7.29,7.29,0,0,1,4.94-2.56,19.87,19.87,0,0,1-9.6,12.9" fill="#e1e1e1"/>
        <path id="Trazado_134585" data-name="Trazado 134585" d="M259.88,193.9c-1.25-1.72-2.68-4-4.37-5.32a7.33,7.33,0,0,0-5.95-1.57,13.85,13.85,0,0,0,10.32,6.89" fill="#e1e1e1"/>
        <path id="Trazado_134586" data-name="Trazado 134586" d="M260.28,191.73a29.429,29.429,0,0,1-2-6.38,9.92,9.92,0,0,1,1-6.48c2.19,4.14,2.89,8.58,1.08,12.9" fill="#e1e1e1"/>
        <path id="Trazado_134587" data-name="Trazado 134587" d="M261.89,178.87c1.24-4.11,5-7.13,9.06-8.52a3.45,3.45,0,0,1,1.58-.24,1.39,1.39,0,0,1,1.18,1c.14.7-.43,1.32-1,1.79a30.94,30.94,0,0,1-10.84,6" fill="#e1e1e1"/>
        <path id="Trazado_134588" data-name="Trazado 134588" d="M261.93,175.51a29.129,29.129,0,0,1,1.19-7.84,9.92,9.92,0,0,1,4.93-6c.41,2.67-.77,5.33-2.19,7.63s-3.14,4.47-4,7" fill="#e1e1e1"/>
        <path id="Trazado_134589" data-name="Trazado 134589" d="M261.87,177.33c-1-3-1.14-6.79-2.93-9.4-1.25-1.82-3.26-3.06-4.33-5a7.58,7.58,0,0,0,.25,5.67,16.4,16.4,0,0,0,3.31,4.74c1.33,1.42,2.46,2.48,3.7,4" fill="#e1e1e1"/>
        <path id="Trazado_134590" data-name="Trazado 134590" d="M261.89,265.45c-.08,0-.15-20-.16-44.58s.06-44.58.14-44.58.15,20,.15,44.58S262,265.45,261.89,265.45Z" fill="#e1e1e1"/>
        <path id="Trazado_134591" data-name="Trazado 134591" d="M279.33,205.66a3.749,3.749,0,0,1-.75.28l-2.07.7c-1.74.59-4.13,1.45-6.73,2.51s-5,2-6.37,3.2a4.65,4.65,0,0,0-1.28,1.69c-.2.47-.24.76-.26.75s0-.07,0-.21A2.9,2.9,0,0,1,262,214a4.68,4.68,0,0,1,1.25-1.81,11.141,11.141,0,0,1,2.77-1.71c1.11-.52,2.33-1.06,3.63-1.59,2.61-1.07,5-1.9,6.78-2.45.88-.27,1.6-.47,2.1-.61A4,4,0,0,1,279.33,205.66Z" fill="#e1e1e1"/>
        <path id="Trazado_134592" data-name="Trazado 134592" d="M285.05,191.61a2.786,2.786,0,0,1-.21.23l-.64.6c-.6.54-1.41,1.27-2.39,2.17l-8,7.09c-3.11,2.76-5.79,5.41-7.65,7.4-.94,1-1.67,1.81-2.17,2.39l-.58.66a1.2,1.2,0,0,1-.22.22,2,2,0,0,1,.18-.26c.12-.16.29-.4.53-.7.48-.59,1.19-1.44,2.11-2.45a98,98,0,0,1,7.61-7.48c3.11-2.76,5.95-5.23,8-7l2.45-2.11c.28-.22.5-.41.68-.56Z" fill="#e1e1e1"/>
        <path id="Trazado_134593" data-name="Trazado 134593" d="M270.49,204.51c-.08,0,.57-1.53,1.22-3.43s1-3.49,1-3.48a11.56,11.56,0,0,1-.77,3.57,20.673,20.673,0,0,1-1,2.4,3.39,3.39,0,0,1-.45.94Z" fill="#e1e1e1"/>
        <path id="Trazado_134594" data-name="Trazado 134594" d="M261.91,216.59a3,3,0,0,1-.48-.55l-1.23-1.58c-1-1.33-2.45-3.17-4.05-5.18s-3.07-3.81-4.13-5.12l-1.25-1.55a3.539,3.539,0,0,1-.43-.59,3.549,3.549,0,0,1,.51.52c.32.34.78.85,1.33,1.49,1.1,1.27,2.6,3.06,4.19,5.07s3,3.88,4,5.24c.5.68.89,1.24,1.16,1.63a5.279,5.279,0,0,1,.38.62Z" fill="#e1e1e1"/>
        <path id="Trazado_134595" data-name="Trazado 134595" d="M258.08,211.68a7,7,0,0,1-1.6-3,8.66,8.66,0,0,1-.37-3h.13c-.06.23-.1.35-.12.35a.931.931,0,0,1,0-.37h.12a14.18,14.18,0,0,0,.51,2.94A23.2,23.2,0,0,0,258.08,211.68Z" fill="#e1e1e1"/>
        <path id="Trazado_134596" data-name="Trazado 134596" d="M253.14,205.47a5,5,0,0,0-1.12-.65,7.52,7.52,0,0,0-3.1-.25,18.37,18.37,0,0,0-3.13.51,10.669,10.669,0,0,1-1.29.31,4.34,4.34,0,0,1,1.23-.51,14.151,14.151,0,0,1,3.17-.59,6.71,6.71,0,0,1,3.2.34A2,2,0,0,1,253.14,205.47Z" fill="#e1e1e1"/>
        <path id="Trazado_134597" data-name="Trazado 134597" d="M252,204s-.65-.26-1.71-.62a17.751,17.751,0,0,0-4.28-.88,17.519,17.519,0,0,0-4.36.22c-1.1.2-1.77.41-1.79.36a1.61,1.61,0,0,1,.46-.19,9.49,9.49,0,0,1,1.29-.37,15.21,15.21,0,0,1,8.75.67,12.179,12.179,0,0,1,1.22.55,2.459,2.459,0,0,1,.42.26Z" fill="#e1e1e1"/>
        <path id="Trazado_134598" data-name="Trazado 134598" d="M261.87,197.6a34.619,34.619,0,0,1-1.25-4.34,33.481,33.481,0,0,1-1-4.42,39,39,0,0,1,1.25,4.35A37.484,37.484,0,0,1,261.87,197.6Z" fill="#e1e1e1"/>
        <path id="Trazado_134599" data-name="Trazado 134599" d="M262,197.6a22.334,22.334,0,0,0-1.39-2.6,10.67,10.67,0,0,0-2-2.1,1.78,1.78,0,0,1,.79.4,6.4,6.4,0,0,1,1.49,1.53A5.85,5.85,0,0,1,262,197.6Z" fill="#e1e1e1"/>
        <path id="Trazado_134600" data-name="Trazado 134600" d="M261.89,254.81s-.09-.48-.32-1.33a18.889,18.889,0,0,0-1.33-3.45,47.819,47.819,0,0,0-7.08-10c-1.58-1.81-3.11-3.51-4.41-5.14a35.524,35.524,0,0,1-3.16-4.55A21.819,21.819,0,0,1,244,227a9.794,9.794,0,0,1-.32-1,1.739,1.739,0,0,1-.08-.34s.17.45.5,1.27a24.274,24.274,0,0,0,1.67,3.31,37.819,37.819,0,0,0,3.18,4.49c1.31,1.61,2.85,3.31,4.43,5.12a45,45,0,0,1,7,10.07,16.821,16.821,0,0,1,1.26,3.52,10,10,0,0,1,.18,1,1.543,1.543,0,0,1,.07.37Z" fill="#e1e1e1"/>
        <path id="Trazado_134601" data-name="Trazado 134601" d="M277.65,237a7.561,7.561,0,0,1-.83.46,18.375,18.375,0,0,0-2.14,1.42,24.832,24.832,0,0,0-2.81,2.56c-1,1.05-2,2.26-3.05,3.56-2.07,2.6-4,4.91-5.18,6.75-.59.91-1,1.68-1.3,2.22a6.807,6.807,0,0,1-.45.83.618.618,0,0,1,.07-.23c.07-.15.15-.37.28-.65a20.725,20.725,0,0,1,1.23-2.28,74.155,74.155,0,0,1,5.13-6.82,43.366,43.366,0,0,1,3.07-3.56,23.182,23.182,0,0,1,2.89-2.55,15.851,15.851,0,0,1,2.21-1.35c.28-.14.5-.22.65-.28A2.018,2.018,0,0,1,277.65,237Z" fill="#e1e1e1"/>
        <path id="Trazado_134602" data-name="Trazado 134602" d="M278,242.78a11.836,11.836,0,0,1-1.75.26,23.783,23.783,0,0,0-4.14.81,12.61,12.61,0,0,0-3.71,2c-.85.66-1.25,1.2-1.29,1.17s.07-.16.25-.4a7.56,7.56,0,0,1,.91-.93,11.27,11.27,0,0,1,3.75-2.06,18.87,18.87,0,0,1,4.21-.75A10.4,10.4,0,0,1,278,242.78Z" fill="#e1e1e1"/>
        <path id="Trazado_134603" data-name="Trazado 134603" d="M267.58,246.34c-.1-.05.69-1.26,1.3-2.87s.71-3.06.81-3.05a2.57,2.57,0,0,1,0,.94,9.827,9.827,0,0,1-.51,2.21,10.489,10.489,0,0,1-1,2,2.871,2.871,0,0,1-.6.77Z" fill="#e1e1e1"/>
        <path id="Trazado_134604" data-name="Trazado 134604" d="M282.76,221.5l-.28.15-.82.37c-.36.16-.8.35-1.29.61s-1.07.52-1.67.88l-.95.54c-.33.19-.66.41-1,.63-.7.43-1.4.95-2.15,1.49a39.711,39.711,0,0,0-4.51,4,40.993,40.993,0,0,0-3.8,4.63c-.51.77-1,1.49-1.41,2.21-.21.35-.42.69-.6,1s-.35.66-.51,1c-.34.61-.58,1.19-.82,1.69s-.42,1-.56,1.31l-.35.83a1.382,1.382,0,0,1-.14.29,1.13,1.13,0,0,1,.09-.31c.08-.22.17-.5.29-.85s.29-.82.52-1.33.46-1.11.79-1.73c.16-.31.32-.64.49-1a9.742,9.742,0,0,1,.59-1c.4-.73.89-1.46,1.4-2.24a38.732,38.732,0,0,1,3.82-4.68,39.363,39.363,0,0,1,4.55-4c.76-.53,1.47-1,2.18-1.47.36-.22.69-.44,1-.62l1-.53c.61-.35,1.2-.6,1.7-.85a13.429,13.429,0,0,1,1.31-.56l.84-.33a1.131,1.131,0,0,1,.29-.13Z" fill="#e1e1e1"/>
        <path id="Trazado_134605" data-name="Trazado 134605" d="M270.28,229.86a1.9,1.9,0,0,1,.69-1,4.27,4.27,0,0,1,2.76-1.06,7.78,7.78,0,0,1,2.91.56,4.5,4.5,0,0,1,1.1.54,6.9,6.9,0,0,1-1.17-.34,8.46,8.46,0,0,0-2.83-.47,4.48,4.48,0,0,0-2.64.92,9,9,0,0,0-.82.85Z" fill="#e1e1e1"/>
        <path id="Trazado_134606" data-name="Trazado 134606" d="M268.41,231.78a9.67,9.67,0,0,0,.79-2.55,10.18,10.18,0,0,0-.18-2.67,2.562,2.562,0,0,1,.33.75,5.521,5.521,0,0,1,.14,1.95,5.08,5.08,0,0,1-.59,1.87C268.66,231.57,268.44,231.8,268.41,231.78Z" fill="#e1e1e1"/>
      </g>
      <path id="Trazado_134607" data-name="Trazado 134607" d="M248.1,257.67c.43,7.63,2.73,15.39,6.26,23.23h15.38a66.78,66.78,0,0,0,5.89-23.23Z" fill="#e1e1e1"/>
      <path id="Trazado_134608" data-name="Trazado 134608" d="M273.14,270c0,.08-5.06.14-11.3.14s-11.31-.06-11.31-.14,5.06-.15,11.31-.15S273.14,269.94,273.14,270Z" fill="#fafafa"/>
      <path id="Trazado_134609" data-name="Trazado 134609" d="M272.8,272.78c0,.08-4.75.14-10.6.14s-10.6-.06-10.6-.14,4.74-.15,10.6-.15S272.8,272.7,272.8,272.78Z" fill="#fafafa"/>
      <path id="Trazado_134610" data-name="Trazado 134610" d="M254.61,262.68a41.851,41.851,0,0,1,0,7.08,44.834,44.834,0,0,1,0-7.08Z" fill="#fafafa"/>
      <path id="Trazado_134611" data-name="Trazado 134611" d="M262.85,262.68a45,45,0,0,1,0,7.34A48.171,48.171,0,0,1,262.85,262.68Z" fill="#fafafa"/>
      <path id="Trazado_134612" data-name="Trazado 134612" d="M270.59,262.62a50,50,0,0,1,0,7.48A46.7,46.7,0,0,1,270.59,262.62Z" fill="#fafafa"/>
      <path id="Trazado_134613" data-name="Trazado 134613" d="M275.15,262.68c0,.08-5.94.14-13.27.14s-13.26-.06-13.26-.14,5.94-.14,13.26-.14S275.15,262.6,275.15,262.68Z" fill="#fafafa"/>
    </g>
    <g id="Grupo_82707" data-name="Grupo 82707">
      <path id="Trazado_134614" data-name="Trazado 134614" d="M265,78.94h-4.2V78.1H265Zm-8.4,0h-4.2V78.1h4.2Zm-8.4,0H244V78.1h4.19Zm-8.39,0h-4.2V78.1h4.2ZM265.4,78h-.84V73.8h.84Zm-32.67-.42h-.84v-4.2h.84Zm32.67-8h-.84V65.42h.84Zm-32.67-.41h-.84V65h.84Zm32.67-8h-.84V57h.84Zm-32.67-.42h-.84V56.6h.84Zm32.67-8h-.84v-4.2h.84Zm-32.67-.42h-.84V48.2h.84Zm30.82-6.13h-4.2v-.84h4.2Zm-8.4,0H251v-.84h4.19Zm-8.39,0h-4.2v-.84h4.2Zm-8.4,0h-4.2v-.84h4.2Z" fill="#e1e1e1"/>
      <path id="Trazado_134615" data-name="Trazado 134615" d="M232.59,49.36a3.09,3.09,0,1,1,3.09-3.09,3.09,3.09,0,0,1-3.09,3.09Zm0-5.34a.934.934,0,1,0,0-.02Z" fill="#e1e1e1"/>
      <path id="Trazado_134616" data-name="Trazado 134616" d="M264.81,49.36a3.09,3.09,0,1,1,3.09-3.09A3.09,3.09,0,0,1,264.81,49.36Zm0-5.34a.934.934,0,1,0,0-.02Z" fill="#e1e1e1"/>
      <path id="Trazado_134617" data-name="Trazado 134617" d="M232.59,82.48a3.09,3.09,0,1,1,3.09-3.08,3.09,3.09,0,0,1-3.09,3.08Zm0-5.33a2.25,2.25,0,1,0,2.25,2.25A2.25,2.25,0,0,0,232.59,77.15Z" fill="#e1e1e1"/>
      <path id="Trazado_134618" data-name="Trazado 134618" d="M264.81,82.48a3.09,3.09,0,1,1,3.09-3.08,3.09,3.09,0,0,1-3.09,3.08Zm0-5.33a2.25,2.25,0,1,0,2.25,2.25A2.25,2.25,0,0,0,264.81,77.15Z" fill="#e1e1e1"/>
      <path id="Trazado_134619" data-name="Trazado 134619" d="M248,56.22h-6.05V53.35H257.4v2.87h-6V71.59H248Z" fill="#e1e1e1"/>
    </g>
    <g id="Grupo_82709" data-name="Grupo 82709">
      <g id="Grupo_82708" data-name="Grupo 82708">
        <path id="Trazado_134620" data-name="Trazado 134620" d="M25.1,237.67a12.47,12.47,0,0,1,7.77-.94,6.43,6.43,0,0,1,3.83,1.71,2.685,2.685,0,0,1,0,3.83,3.67,3.67,0,0,1-2.42.61c-2,0-4.33-.38-6,.86-.94.7-1.56,1.87-2.68,2.22a2.65,2.65,0,0,1-2.91-1.3,4.51,4.51,0,0,1-.33-3.33,5.12,5.12,0,0,1,2.74-3.66Z" fill="#ececec"/>
        <path id="Trazado_134621" data-name="Trazado 134621" d="M19.68,227.22c1.45,2.06,4.26,1.38,5.56.12a10.52,10.52,0,0,0,2.35-4.83c1.15-4,2.3-8.15,1.45-12.2A6.86,6.86,0,0,0,27.48,207a3.56,3.56,0,0,0-3.36-1.12c-1.41.38-2.29,1.77-2.93,3.09a29,29,0,0,0-2.87,12.48,10.1,10.1,0,0,0,1.36,5.78" fill="#ececec"/>
        <path id="Trazado_134622" data-name="Trazado 134622" d="M15.71,230.18a7.5,7.5,0,0,0,1.17-6.91,13.33,13.33,0,0,0-4.09-5.94A21.92,21.92,0,0,0,5.46,213a7.67,7.67,0,0,0-3.3-.56A3.41,3.41,0,0,0-.6,214.12c-.78,1.47,0,3.26.76,4.71A54.821,54.821,0,0,0,5,226.16c1.44,1.86,3.09,3.7,5.29,4.54s4.49.74,5.65-.78" fill="#ececec"/>
        <path id="Trazado_134623" data-name="Trazado 134623" d="M19.58,258.35a4.3,4.3,0,0,0,.13-.94c.07-.68.15-1.54.25-2.56a37.5,37.5,0,0,1,.58-3.75,29.14,29.14,0,0,1,1.36-4.43,16.26,16.26,0,0,1,2.27-4A8.46,8.46,0,0,1,27,240.28a8.11,8.11,0,0,1,2.41-.75,5.45,5.45,0,0,0,.93-.13,4.4,4.4,0,0,0-.95,0,7.28,7.28,0,0,0-2.51.66,8.36,8.36,0,0,0-3,2.39,16.34,16.34,0,0,0-2.35,4.09A26.781,26.781,0,0,0,20.19,251a33.562,33.562,0,0,0-.5,3.8c-.08,1.09-.11,2-.13,2.57a5.41,5.41,0,0,0,.02.98Z" fill="#e1e1e1"/>
        <path id="Trazado_134624" data-name="Trazado 134624" d="M19.76,256.38a2.43,2.43,0,0,0,0-.43V254.7c0-1.08,0-2.64.06-4.57.09-3.86.43-8,1.07-13.87.6-5.51,1.42-11.92,2.28-16.08.19-1,.37-1.8.55-2.55s.31-1.39.44-1.92.22-.89.3-1.2a2,2,0,0,0,.07-.43,1.93,1.93,0,0,0-.15.4c-.09.32-.21.71-.36,1.2s-.33,1.15-.51,1.9-.4,1.59-.61,2.54A142.432,142.432,0,0,0,20.52,235c-.64,5.87-.93,11.22-1,15.08,0,1.94,0,3.51.07,4.59,0,.5.06.91.08,1.24a2.14,2.14,0,0,0,.09.47Z" fill="#e1e1e1"/>
        <path id="Trazado_134625" data-name="Trazado 134625" d="M19.79,246.08a10,10,0,0,0,0-1.3c-.05-.84-.17-2.05-.4-3.53a46.688,46.688,0,0,0-1.15-5.13,41.09,41.09,0,0,0-2.14-6.07,32.45,32.45,0,0,0-6.3-9.81,16.342,16.342,0,0,0-1.49-1.38c-.22-.19-.42-.38-.63-.53l-.57-.4a9,9,0,0,0-1.1-.7,37.312,37.312,0,0,1,3.59,3.2,33.88,33.88,0,0,1,6.14,9.78,47.532,47.532,0,0,1,2.16,6c.56,1.89.94,3.62,1.22,5.08s.42,2.66.52,3.49a7,7,0,0,0,.15,1.3Z" fill="#e1e1e1"/>
      </g>
      <path id="Trazado_134626" data-name="Trazado 134626" d="M9.82,264.26l1.04,14.14H29.03l1.04-14.14Z" fill="#e1e1e1"/>
      <rect id="Rectángulo_35753" data-name="Rectángulo 35753" width="24.17" height="5.58" transform="translate(8.07 258.68)" fill="#e1e1e1"/>
      <path id="Trazado_134627" data-name="Trazado 134627" d="M8.07,277.86v1.55H31.84v-1.55Z" fill="#ececec"/>
      <path id="Trazado_134628" data-name="Trazado 134628" d="M10.32,282.13,9.2,279.41H30.97l-1.3,2.72Z" fill="#e1e1e1"/>
      <path id="Trazado_134629" data-name="Trazado 134629" d="M29.73,268.88l-.09.13-.27.36-1.06,1.36v.06l-.05-.07-2.6-3.6h.15l-2.56,3.63-.08.11-.09-.1-3-3.62h.18l-.17.21-2.72,3.41-.09.11-.08-.12c-.92-1.3-1.79-2.52-2.56-3.62h.14l-3.15,3.6-.06.06v-.07l-1-1.66-.25-.44a.909.909,0,0,1-.08-.16,1,1,0,0,1,.11.14l.28.43,1,1.63h-.09c.8-.95,1.86-2.18,3.1-3.64l.08-.09.07.1c.79,1.09,1.66,2.31,2.59,3.61H17.2l2.71-3.41L20,267l.08-.11.09.11,3,3.62H23L25.62,267l.07-.11.08.11,2.54,3.63h-.09c.47-.55.84-1,1.1-1.32l.3-.34Z" fill="#f5f5f5"/>
      <path id="Trazado_134630" data-name="Trazado 134630" d="M30.32,264.16c0,.07-4.56.12-10.17.12s-10.17,0-10.17-.12,4.55-.11,10.17-.11S30.32,264.1,30.32,264.16Z" fill="#f5f5f5"/>
      <path id="Trazado_134631" data-name="Trazado 134631" d="M31.24,279.56c0,.06-4.95.11-11.06.11s-11-.05-11-.11,4.95-.11,11-.11S31.24,279.5,31.24,279.56Z" fill="#f5f5f5"/>
    </g>
    <g id="Grupo_82716" data-name="Grupo 82716">
      <path id="Trazado_134632" data-name="Trazado 134632" d="M189.95,37.37H16.91V198.84H93.95v14.27l12.62-14.27h83.38Z" fill="#fff"/>
      <g id="Grupo_82710" data-name="Grupo 82710">
        <rect id="Rectángulo_35754" data-name="Rectángulo 35754" width="173.59" height="11.7" transform="translate(16.64 37.37)" fill="#e1e1e1"/>
        <path id="Trazado_134633" data-name="Trazado 134633" d="M26,43.61a2.55,2.55,0,1,1-2.55-2.55A2.55,2.55,0,0,1,26,43.61Z" fill="#fff"/>
        <path id="Trazado_134634" data-name="Trazado 134634" d="M33.3,43.61a2.54,2.54,0,1,1-.74-1.8,2.55,2.55,0,0,1,.74,1.8Z" fill="#fff"/>
        <path id="Trazado_134635" data-name="Trazado 134635" d="M40.63,43.61a2.55,2.55,0,1,1-2.55-2.55A2.55,2.55,0,0,1,40.63,43.61Z" fill="#fff"/>
      </g>
      <path id="Trazado_134636" data-name="Trazado 134636" d="M190,199c0-1,0-64.24-.13-161.61l.13.13H17l.15-.15V198.98l-.13-.13H94.13v14.24l-.18-.07,12.61-13.89h0L190,199l-83.39.33h.07L94,213.18l-.18.2v-14.4l.11.12H16.8V37.22H190.07v.12C190,134.74,190,197.93,190,199Z" fill="#012739"/>
      <g id="Grupo_82711" data-name="Grupo 82711">
        <rect id="Rectángulo_35755" data-name="Rectángulo 35755" width="26.59" height="3.73" transform="translate(26.32 72.47)" fill="#e1e1e1"/>
        <path id="Trazado_134637" data-name="Trazado 134637" d="M79.4,85.72c0,.09-11.86.15-26.49.15s-26.5-.06-26.5-.15,11.86-.14,26.5-.14S79.4,85.64,79.4,85.72Z" fill="#012739"/>
        <path id="Trazado_134638" data-name="Trazado 134638" d="M63.54,101.42c0,.09-8.31.15-18.57.15s-18.56-.06-18.56-.15,8.31-.14,18.56-.14S63.54,101.34,63.54,101.42Z" fill="#012739"/>
        <path id="Trazado_134639" data-name="Trazado 134639" d="M79.4,93c0,.08-11.86.15-26.49.15S26.41,93,26.41,93s11.86-.15,26.5-.15S79.4,92.87,79.4,93Z" fill="#012739"/>
      </g>
      <g id="Grupo_82712" data-name="Grupo 82712">
        <path id="Trazado_134640" data-name="Trazado 134640" d="M98.91,177.32H77.53V155.94H98.91Zm-20.81-.57H98.34V156.51H78.1Z" fill="#32c4b4"/>
        <path id="Trazado_134641" data-name="Trazado 134641" d="M58.7,177.32H37.33V155.94H58.7Zm-20.81-.57H58.13V156.51H37.89Z" fill="#32c4b4"/>
        <path id="Trazado_134642" data-name="Trazado 134642" d="M59.59,182.05c0,.08-5.18.15-11.58.15s-11.57-.07-11.57-.15,5.18-.15,11.57-.15S59.59,182,59.59,182.05Z" fill="#012739"/>
        <path id="Trazado_134643" data-name="Trazado 134643" d="M57.59,186.79c0,.09-4.49.15-10,.15s-10-.06-10-.15,4.49-.14,10-.14S57.59,186.71,57.59,186.79Z" fill="#012739"/>
        <path id="Trazado_134644" data-name="Trazado 134644" d="M100.38,182.05c0,.08-5.19.15-11.58.15s-11.58-.07-11.58-.15,5.19-.15,11.58-.15S100.38,182,100.38,182.05Z" fill="#012739"/>
        <path id="Trazado_134645" data-name="Trazado 134645" d="M98.38,186.79c0,.09-4.49.15-10,.15s-10-.06-10-.15,4.5-.14,10-.14S98.38,186.71,98.38,186.79Z" fill="#012739"/>
        <path id="Trazado_134646" data-name="Trazado 134646" d="M98.62,156.23c.06.05-4.55,4.76-10.29,10.5S77.87,177.09,77.82,177s4.55-4.76,10.3-10.51S98.57,156.17,98.62,156.23Z" fill="#32c4b4"/>
        <path id="Trazado_134647" data-name="Trazado 134647" d="M97.54,177.17s-.07-.07-.19-.22l-.5-.64c-.42-.57-1-1.39-1.83-2.39-1.56-2-3.79-4.71-6.41-7.55s-5.16-5.28-7-7c-.94-.86-1.7-1.55-2.23-2l-.61-.55-.2-.21s.09,0,.24.16l.64.51c.56.45,1.34,1.11,2.3,2a98.548,98.548,0,0,1,7.09,7,98,98,0,0,1,6.37,7.63c.76,1,1.36,1.85,1.76,2.44l.45.68C97.5,177.08,97.55,177.16,97.54,177.17Z" fill="#32c4b4"/>
        <path id="Trazado_134648" data-name="Trazado 134648" d="M58,157.49c.05.06-4.51,4.46-10.2,9.83S37.44,177,37.39,176.93s4.5-4.46,10.19-9.83S57.92,157.43,58,157.49Z" fill="#32c4b4"/>
        <path id="Trazado_134649" data-name="Trazado 134649" d="M57.75,176.94a1.32,1.32,0,0,1-.2-.21l-.53-.64c-.45-.56-1.1-1.37-1.92-2.35-1.64-2-4-4.64-6.72-7.42s-5.38-5.16-7.32-6.82c-1-.84-1.77-1.5-2.33-2l-.63-.5-.2-.2a.9.9,0,0,1,.24.15l.67.49c.57.43,1.39,1.07,2.38,1.89a94.834,94.834,0,0,1,7.4,6.77,97.4,97.4,0,0,1,6.67,7.49c.8,1,1.43,1.83,1.85,2.42l.48.67a2,2,0,0,1,.16.26Z" fill="#32c4b4"/>
      </g>
      <g id="Grupo_82713" data-name="Grupo 82713">
        <path id="Trazado_134650" data-name="Trazado 134650" d="M174.15,177H152.77V155.62h21.38Zm-20.81-.57h20.24V156.19H153.34Z" fill="#32c4b4"/>
        <path id="Trazado_134651" data-name="Trazado 134651" d="M136.79,177H115.42V155.62h21.37ZM116,176.43h20.24V156.19H116Z" fill="#32c4b4"/>
        <path id="Trazado_134652" data-name="Trazado 134652" d="M137.68,181.73c0,.09-5.18.15-11.58.15s-11.57-.06-11.57-.15,5.18-.14,11.57-.14S137.68,181.65,137.68,181.73Z" fill="#012739"/>
        <path id="Trazado_134653" data-name="Trazado 134653" d="M135.68,186.48c0,.08-4.49.14-10,.14s-10-.06-10-.14,4.49-.15,10-.15S135.68,186.39,135.68,186.48Z" fill="#012739"/>
        <path id="Trazado_134654" data-name="Trazado 134654" d="M175.61,181.73c0,.09-5.18.15-11.57.15s-11.58-.06-11.58-.15,5.18-.14,11.58-.14S175.61,181.65,175.61,181.73Z" fill="#012739"/>
        <path id="Trazado_134655" data-name="Trazado 134655" d="M173.62,186.48c0,.08-4.5.14-10,.14s-10-.06-10-.14,4.49-.15,10-.15S173.62,186.39,173.62,186.48Z" fill="#012739"/>
        <path id="Trazado_134656" data-name="Trazado 134656" d="M173.86,155.91c.06.06-4.55,4.76-10.3,10.51s-10.45,10.35-10.51,10.3,4.56-4.77,10.3-10.51S173.8,155.85,173.86,155.91Z" fill="#32c4b4"/>
        <path id="Trazado_134657" data-name="Trazado 134657" d="M172.78,176.85a1.47,1.47,0,0,1-.19-.22l-.5-.64c-.43-.57-1.05-1.39-1.83-2.39-1.57-2-3.79-4.71-6.42-7.55s-5.15-5.28-7-7c-.93-.86-1.69-1.55-2.23-2l-.6-.55c-.14-.13-.21-.2-.2-.21a1.33,1.33,0,0,1,.24.17l.64.5c.55.45,1.34,1.11,2.29,1.95a98.939,98.939,0,0,1,13.46,14.59c.76,1,1.36,1.85,1.76,2.44.19.27.34.5.46.68S172.79,176.84,172.78,176.85Z" fill="#32c4b4"/>
        <path id="Trazado_134658" data-name="Trazado 134658" d="M136.07,157.17c.05.06-4.51,4.46-10.2,9.83s-10.34,9.67-10.39,9.61,4.5-4.46,10.19-9.83S136,157.11,136.07,157.17Z" fill="#32c4b4"/>
        <path id="Trazado_134659" data-name="Trazado 134659" d="M135.84,176.62a1.321,1.321,0,0,1-.2-.21l-.53-.64c-.45-.56-1.1-1.37-1.92-2.35-1.64-2-4-4.64-6.72-7.42s-5.38-5.16-7.32-6.82c-1-.84-1.77-1.5-2.33-2l-.63-.53c-.14-.13-.21-.19-.2-.2a.9.9,0,0,1,.24.15l.67.49c.57.43,1.39,1.07,2.38,1.89a97.51,97.51,0,0,1,14.07,14.27c.8,1,1.43,1.83,1.85,2.41l.48.67a2,2,0,0,1,.16.29Z" fill="#32c4b4"/>
      </g>
      <g id="Grupo_82715" data-name="Grupo 82715">
        <g id="Grupo_82714" data-name="Grupo 82714">
          <path id="Trazado_134660" data-name="Trazado 134660" d="M173.05,132.32H100.6V59.87h72.45Zm-71.88-.57h71.31V60.44H101.17Z" fill="#32c4b4"/>
          <path id="Trazado_134661" data-name="Trazado 134661" d="M169.7,129H103.79V63.06H169.7Zm-65.34-.57h64.77V63.63H104.36Z" fill="#32c4b4"/>
          <path id="Trazado_134662" data-name="Trazado 134662" d="M105.26,128.08l-.45-.35,19.39-25.79,13.43,7.47,16.98-25.77.48.32-17.27,26.2-13.47-7.48Z" fill="#32c4b4"/>
          <path id="Trazado_134663" data-name="Trazado 134663" d="M134.53,91a8.69,8.69,0,1,1,8.69-8.69A8.69,8.69,0,0,1,134.53,91Zm0-16.8a8.1,8.1,0,1,1,0,.03Z" fill="#32c4b4"/>
          <rect id="Rectángulo_35756" data-name="Rectángulo 35756" width="1.07" height="1.07" transform="translate(123.74 101.78)" fill="#32c4b4"/>
          <rect id="Rectángulo_35757" data-name="Rectángulo 35757" width="1.07" height="1.07" transform="translate(137.12 109.18)" fill="#32c4b4"/>
          <rect id="Rectángulo_35758" data-name="Rectángulo 35758" width="1.07" height="1.07" transform="translate(154.31 83.41)" fill="#32c4b4"/>
          <rect id="Rectángulo_35759" data-name="Rectángulo 35759" width="1.07" height="1.07" transform="translate(133.99 90.2)" fill="#32c4b4"/>
          <rect id="Rectángulo_35760" data-name="Rectángulo 35760" width="1.07" height="1.07" transform="translate(133.99 73.34)" fill="#32c4b4"/>
          <rect id="Rectángulo_35761" data-name="Rectángulo 35761" width="1.07" height="1.07" transform="translate(142.43 82.87) rotate(-90)" fill="#32c4b4"/>
          <rect id="Rectángulo_35762" data-name="Rectángulo 35762" width="1.07" height="1.07" transform="translate(125.57 82.88) rotate(-90)" fill="#32c4b4"/>
          <rect id="Rectángulo_35763" data-name="Rectángulo 35763" width="1.07" height="1.07" transform="translate(104.5 127.37)" fill="#32c4b4"/>
          <path id="Trazado_134664" data-name="Trazado 134664" d="M154.85,95.48c-.09,0-.15-4.92-.15-11s.06-11,.15-11,.15,4.92.15,11S154.93,95.48,154.85,95.48Z" fill="#32c4b4"/>
        </g>
        <path id="Trazado_134665" data-name="Trazado 134665" d="M155.24,73.5a.38.38,0,0,1-.39.39.39.39,0,0,1-.4-.39.4.4,0,0,1,.4-.4.39.39,0,0,1,.39.4Z" fill="#32c4b4"/>
        <circle id="Elipse_6648" data-name="Elipse 6648" cx="0.4" cy="0.4" r="0.4" transform="translate(154.45 95.31)" fill="#32c4b4"/>
      </g>
      <path id="Trazado_134666" data-name="Trazado 134666" d="M182.75,145.4c0,.08-29.59.15-66.08.15s-66.1-.07-66.1-.15,29.59-.15,66.1-.15S182.75,145.32,182.75,145.4Z" fill="#e1e1e1"/>
    </g>
    <g id="Grupo_82733" data-name="Grupo 82733">
      <g id="Grupo_82720" data-name="Grupo 82720">
        <g id="Grupo_82717" data-name="Grupo 82717">
          <path id="Trazado_134667" data-name="Trazado 134667" d="M203.1,230.79l.94,43.1-46.84.66-.94-43.1Z" fill="#fafafa"/>
          <path id="Trazado_134668" data-name="Trazado 134668" d="M203.1,230.79h-.89l-2.54.05-9.59.17-33.82.55.12-.15c.28,12.83.61,27.54,1,43.1h0l-.14-.15,46.84-.63-.12.13c-.25-13-.47-23.74-.62-31.26-.07-3.76-.12-6.72-.16-8.74v-2.33c0,.52,0,1.29.06,2.28.05,2,.12,5,.22,8.71.18,7.54.43,18.32.74,31.34V274H204l-46.84.68h-.13v-.15h0c-.33-15.56-.65-30.26-.92-43.09v-.14h.13l33.9-.41,9.56-.1h3.38Z" fill="#012739"/>
        </g>
        <path id="Trazado_134669" data-name="Trazado 134669" d="M158.75,272.4l43.55-.61-.82-37.68-43.55.62Z" fill="#32c4b4"/>
        <g id="Grupo_82718" data-name="Grupo 82718" opacity="0.3">
          <path id="Trazado_134670" data-name="Trazado 134670" d="M158.75,272.4l14.7-23.63,9.74,14.52,6.22-7.93,12.89,16.43Z"/>
        </g>
        <g id="Grupo_82719" data-name="Grupo 82719" opacity="0.3">
          <path id="Trazado_134671" data-name="Trazado 134671" d="M186.81,246a3.69,3.69,0,0,1-3.34,4,3.76,3.76,0,0,1-3.52-3.9,3.69,3.69,0,0,1,3.35-4,3.76,3.76,0,0,1,3.51,3.9Z"/>
        </g>
      </g>
      <g id="Grupo_82724" data-name="Grupo 82724">
        <g id="Grupo_82721" data-name="Grupo 82721">
          <path id="Trazado_134672" data-name="Trazado 134672" d="M191.38,226.77l.94,43.1-46.83.66-.95-43.1Z" fill="#fafafa"/>
          <path id="Trazado_134673" data-name="Trazado 134673" d="M191.38,226.77h-3.43l-9.59.18-33.81.54.11-.14c.29,12.83.62,27.53,1,43.09h0l-.14-.16,46.84-.63-.11.13c-.26-13-.47-23.73-.62-31.26-.07-3.76-.13-6.71-.17-8.73v-2.34c0,.51,0,1.29.06,2.28.05,2,.13,5,.22,8.71.18,7.54.44,18.33.75,31.34V270h-.11l-46.84.69h-.14v-.16h0c-.34-15.56-.65-30.27-.93-43.1v-.14h.12l33.9-.4,9.56-.1h3.38Z" fill="#012739"/>
        </g>
        <path id="Trazado_134674" data-name="Trazado 134674" d="M147.04,267.8l43.55-.62-.83-37.67-43.54.61Z" fill="#375a64"/>
        <path id="Trazado_134675" data-name="Trazado 134675" d="M147.04,267.8l14.7-23.64,9.74,14.52,6.22-7.92,12.89,16.42Z" fill="#375a64"/>
        <path id="Trazado_134676" data-name="Trazado 134676" d="M175.1,241.11a3.68,3.68,0,0,1-3.35,4,3.75,3.75,0,0,1-3.51-3.9,3.68,3.68,0,0,1,3.34-4,3.75,3.75,0,0,1,3.52,3.9Z" fill="#375a64"/>
        <g id="Grupo_82722" data-name="Grupo 82722" opacity="0.3">
          <path id="Trazado_134677" data-name="Trazado 134677" d="M147.04,267.8l14.7-23.64,9.74,14.52,6.22-7.92,12.89,16.42Z"/>
        </g>
        <g id="Grupo_82723" data-name="Grupo 82723" opacity="0.3">
          <path id="Trazado_134678" data-name="Trazado 134678" d="M175.1,241.11a3.68,3.68,0,0,1-3.35,4,3.75,3.75,0,0,1-3.51-3.9,3.68,3.68,0,0,1,3.34-4,3.75,3.75,0,0,1,3.52,3.9Z"/>
        </g>
      </g>
      <g id="Grupo_82728" data-name="Grupo 82728">
        <g id="Grupo_82725" data-name="Grupo 82725">
          <path id="Trazado_134679" data-name="Trazado 134679" d="M186.3,221.3l.94,43.09-46.84.66-.94-43.1Z" fill="#fafafa"/>
          <path id="Trazado_134680" data-name="Trazado 134680" d="M186.3,221.3h-.88l-2.55.06-9.59.17-33.81.54.11-.14c.29,12.83.61,27.54,1,43.1h0l-.14-.15,46.84-.63-.11.13c-.26-13-.47-23.74-.62-31.26-.07-3.77-.13-6.72-.17-8.74v-2.33c0,.52,0,1.28.06,2.28.05,2,.13,5,.22,8.7.18,7.55.44,18.33.75,31.34v.13h-.11l-46.84.68h-.14v-.15h0c-.34-15.56-.65-30.27-.93-43.09v-.14h.12l33.9-.4,9.56-.1h3.38Z" fill="#012739"/>
        </g>
        <path id="Trazado_134681" data-name="Trazado 134681" d="M141.96,262.91l43.55-.61-.83-37.68-43.54.61Z" fill="#32c4b4"/>
        <g id="Grupo_82726" data-name="Grupo 82726" opacity="0.3">
          <path id="Trazado_134682" data-name="Trazado 134682" d="M141.96,262.91l14.7-23.63,9.74,14.51,6.22-7.92,12.89,16.43Z"/>
        </g>
        <g id="Grupo_82727" data-name="Grupo 82727" opacity="0.3">
          <path id="Trazado_134683" data-name="Trazado 134683" d="M170,236.48a3.69,3.69,0,0,1-3.35,4,3.76,3.76,0,0,1-3.51-3.9,3.69,3.69,0,0,1,3.34-4A3.76,3.76,0,0,1,170,236.48Z"/>
        </g>
      </g>
      <g id="Grupo_82732" data-name="Grupo 82732">
        <g id="Grupo_82729" data-name="Grupo 82729">
          <path id="Trazado_134684" data-name="Trazado 134684" d="M180.85,226.85l1.02,43.1-50.63.66-1.01-43.1Z" fill="#fafafa"/>
          <path id="Trazado_134685" data-name="Trazado 134685" d="M180.85,226.85h-.95l-2.75.05-10.37.17-36.55.55.13-.14c.3,12.82.66,27.53,1,43.09h0l-.15-.16,50.63-.63-.12.13c-.28-13-.51-23.74-.68-31.26-.07-3.76-.13-6.71-.17-8.74v-2.33c0,.51,0,1.29.07,2.28.06,2,.14,5,.24,8.71.19,7.54.47,18.33.8,31.34v.13h-.12l-50.62.68h-.15v-.16h0c-.37-15.57-.71-30.27-1-43.1v-.14h.13l36.64-.41,10.34-.1h3.65Z" fill="#012739"/>
        </g>
        <path id="Trazado_134686" data-name="Trazado 134686" d="M132.93,267.87l47.06-.61-.89-37.67-47.06.61Z" fill="#32c4b4"/>
        <g id="Grupo_82730" data-name="Grupo 82730" opacity="0.3">
          <path id="Trazado_134687" data-name="Trazado 134687" d="M132.93,267.87l15.88-23.63,10.53,14.52,6.72-7.92,13.93,16.42Z"/>
        </g>
        <g id="Grupo_82731" data-name="Grupo 82731" opacity="0.3">
          <path id="Trazado_134688" data-name="Trazado 134688" d="M163.25,241.18a3.79,3.79,0,0,1-3.61,4,3.89,3.89,0,0,1-3.8-3.9,3.77,3.77,0,0,1,3.61-4,3.87,3.87,0,0,1,3.8,3.9Z"/>
        </g>
      </g>
      <rect id="Rectángulo_35764" data-name="Rectángulo 35764" width="47.69" height="29.23" transform="translate(157.06 252.67)" fill="#012739"/>
      <rect id="Rectángulo_35765" data-name="Rectángulo 35765" width="52.28" height="29.23" transform="translate(127.93 252.67)" fill="#375a64"/>
    </g>
    <g id="Grupo_82759" data-name="Grupo 82759">
      <path id="Trazado_134689" data-name="Trazado 134689" d="M61.19,99.64h23.8l-.41,15.1-19.12,4.35Z" fill="#ffa726"/>
      <g id="Grupo_82737" data-name="Grupo 82737">
        <g id="Grupo_82735" data-name="Grupo 82735">
          <path id="Trazado_134690" data-name="Trazado 134690" d="M56.8,261.62l-4.44,10.77s9.46,8.13,8.83,10.2L40,274.73l6.23-17.07Z" fill="#32c4b4"/>
          <g id="Grupo_82734" data-name="Grupo 82734" opacity="0.3">
            <path id="Trazado_134691" data-name="Trazado 134691" d="M56.8,261.62l-4.44,10.77s9.46,8.13,8.83,10.2L40,274.73l6.23-17.07Z"/>
          </g>
          <path id="Trazado_134692" data-name="Trazado 134692" d="M46.15,269a.93.93,0,0,0-1,.77.89.89,0,0,0,.75,1,1,1,0,0,0,1-.82.92.92,0,0,0-.89-.91" fill="#e1e1e1"/>
          <path id="Trazado_134693" data-name="Trazado 134693" d="M40,274.73l.69-1.7,20.06,8.18s.79.76.44,1.38Z" fill="#012739"/>
          <path id="Trazado_134694" data-name="Trazado 134694" d="M52.74,272.41c0,.1-.57,0-1.2.1s-1.07.48-1.15.4.3-.61,1.07-.77S52.8,272.32,52.74,272.41Z" fill="#012739"/>
          <path id="Trazado_134695" data-name="Trazado 134695" d="M54.63,274.15c0,.11-.53.12-1,.43s-.79.73-.89.69,0-.65.69-1S54.66,274.05,54.63,274.15Z" fill="#012739"/>
          <path id="Trazado_134696" data-name="Trazado 134696" d="M54.9,277.28c-.1,0,0-.58.42-1s1-.51,1.06-.41-.4.29-.79.68S55,277.31,54.9,277.28Z" fill="#012739"/>
          <path id="Trazado_134697" data-name="Trazado 134697" d="M53.49,269.84c-.08.08-.51-.24-1.1-.41s-1.13-.17-1.15-.28.55-.31,1.26-.09S53.57,269.78,53.49,269.84Z" fill="#012739"/>
        </g>
        <g id="Grupo_82736" data-name="Grupo 82736">
          <path id="Trazado_134698" data-name="Trazado 134698" d="M46.06,263.45l-.35,12.28s12.36,4.48,12.52,6.75l-23.83.18-.24-19.15Z" fill="#32c4b4"/>
          <path id="Trazado_134699" data-name="Trazado 134699" d="M38.34,274.75a1,1,0,0,0-.67,1.12.94.94,0,0,0,1.1.67.922.922,0,1,0-.52-1.76" fill="#e1e1e1"/>
          <path id="Trazado_134700" data-name="Trazado 134700" d="M34.39,283.16v-1.85H57.31s1.06.46.95,1.2Z" fill="#012739"/>
          <path id="Trazado_134701" data-name="Trazado 134701" d="M46.1,275.61c0,.11-.59.17-1.16.55s-.87.87-1,.82.06-.72.76-1.16S46.12,275.5,46.1,275.61Z" fill="#012739"/>
          <path id="Trazado_134702" data-name="Trazado 134702" d="M48.6,276.62c0,.11-.47.32-.86.81s-.51,1-.62,1-.2-.66.3-1.26S48.6,276.51,48.6,276.62Z" fill="#012739"/>
          <path id="Trazado_134703" data-name="Trazado 134703" d="M50,279.6c-.1,0-.27-.55,0-1.19s.83-.9.88-.8-.28.44-.52,1S50.16,279.59,50,279.6Z" fill="#012739"/>
          <path id="Trazado_134704" data-name="Trazado 134704" d="M45.87,272.8c0,.11-.59-.05-1.25,0s-1.16.26-1.23.16.43-.52,1.21-.56S45.92,272.71,45.87,272.8Z" fill="#012739"/>
        </g>
        <path id="Trazado_134705" data-name="Trazado 134705" d="M68,154.66s9.7,39.24,11.3,51.84c1.11,8.77-1.09,14.53-1.35,16.29a4.78,4.78,0,0,1-.57,1.68l-21,40.73-14.51-5S52.75,227.32,55.12,222l2.68-4.76L36.63,163.67Z" fill="#012739"/>
        <path id="Trazado_134706" data-name="Trazado 134706" d="M57.67,163.13c.27,1.07-12.49,64.17-12.49,64.17l1.64,45.21-13.41.36s-6.86-24.63-7.13-39.16,1.37-17,.18-26.09C25.21,198.06,17.54,178.36,21,165a30.93,30.93,0,0,1,10.41-16.55Z" fill="#012739"/>
        <path id="Trazado_134707" data-name="Trazado 134707" d="M46.83,272.89a.87.87,0,0,0,0-.24V272c0-.62,0-1.5-.06-2.62-.07-2.3-.17-5.61-.29-9.71-.27-8.25-.66-19.69-1.08-32.55h0c.31-1.54.64-3.18,1-4.84,2.7-13.75,5.14-26.19,6.92-35.23.86-4.49,1.57-8.13,2.06-10.68.23-1.24.41-2.22.54-2.9a3.8,3.8,0,0,1,.13-.76.86.86,0,0,0,0-.26,2.293,2.293,0,0,0-.07.25,4.448,4.448,0,0,1-.16.75c-.15.68-.35,1.65-.61,2.9C54.69,178.89,54,182.53,53,187l-7,35.2c-.33,1.66-.66,3.3-1,4.84h0c.47,12.86.89,24.3,1.2,32.55.17,4.1.3,7.4.39,9.7.06,1.13.1,2,.13,2.63v.68A.468.468,0,0,0,46.83,272.89Z" fill="#375a64"/>
        <path id="Trazado_134708" data-name="Trazado 134708" d="M57.68,216.41a6.64,6.64,0,0,0,4.6,3.49,26.439,26.439,0,0,1-2.49-1.5C58.52,217.43,57.77,216.35,57.68,216.41Z" fill="#375a64"/>
      </g>
      <path id="Trazado_134709" data-name="Trazado 134709" d="M31.19,62.83a5.34,5.34,0,0,0-5.82-.46,7.74,7.74,0,0,0-3.62,4.82,6.43,6.43,0,0,0-.14,3.17,3.75,3.75,0,0,0,1.84,2.5,2.69,2.69,0,0,1,1.18.75c.49.77-.29,1.79-.05,2.66a1.58,1.58,0,0,0,1.83,1A3.89,3.89,0,0,0,28.29,76a14.48,14.48,0,0,0,4.06-8.56,4.23,4.23,0,0,0-1.16-4.61Z" fill="#012739"/>
      <g id="Grupo_82750" data-name="Grupo 82750">
        <g id="Grupo_82743" data-name="Grupo 82743">
          <g id="Grupo_82738" data-name="Grupo 82738">
            <path id="Trazado_134710" data-name="Trazado 134710" d="M119.46,261.77l-40-1.45A8.09,8.09,0,0,1,71.57,252L78,100.21a8.19,8.19,0,0,1,8.56-7.75l40,1.46a8.08,8.08,0,0,1,7.88,8.34L128,254A8.19,8.19,0,0,1,119.46,261.77Z" fill="#fafafa"/>
            <path id="Trazado_134711" data-name="Trazado 134711" d="M119.46,261.77h.29a6.218,6.218,0,0,0,.84-.06,8,8,0,0,0,3.16-1,8.13,8.13,0,0,0,3.54-3.88,8.39,8.39,0,0,0,.66-3.29c0-1.22.1-2.51.16-3.87.44-11,1.09-26.79,1.89-46.35s1.79-42.86,2.87-68.73q.4-9.7.83-19.86c.14-3.39.29-6.81.43-10.26.05-1.74.3-3.47-.33-5.08a8,8,0,0,0-5.52-5,12.61,12.61,0,0,0-2.63-.28l-5.46-.2-11-.4-22.57-.82a8.27,8.27,0,0,0-5.18,1.62,8,8,0,0,0-2.93,4.44,13.39,13.39,0,0,0-.26,2.71l-.12,2.75c-.08,1.83-.15,3.65-.23,5.47q-.46,10.91-.92,21.47c-.6,14.08-1.18,27.66-1.73,40.59-1.12,25.87-2.13,49.17-3,68.74-.11,2.44-.21,4.83-.32,7.16,0,1.16-.1,2.31-.15,3.44a9.42,9.42,0,0,0,.23,3.28,8,8,0,0,0,6.76,5.76c1,.11,2,.1,3,.15l20.35.78,12.87.51,3.34.15,1.14.06h-1.14l-3.35-.1-12.86-.43-20.36-.7a21.523,21.523,0,0,1-3-.14,8.531,8.531,0,0,1-3-.95,8.23,8.23,0,0,1-4-5,9.53,9.53,0,0,1-.25-3.37l.14-3.45q.15-3.48.3-7.16c.81-19.56,1.79-42.86,2.87-68.73.54-12.94,1.11-26.52,1.71-40.59q.44-10.56.9-21.48c.08-1.82.16-3.64.23-5.47l.12-2.75a14,14,0,0,1,.22-2.8,8.42,8.42,0,0,1,3.11-4.71,8.77,8.77,0,0,1,5.49-1.72l22.57.83,11,.4,5.45.2a12.709,12.709,0,0,1,2.74.3,8.38,8.38,0,0,1,5.84,5.29,7.67,7.67,0,0,1,.45,2.64c0,.88-.06,1.73-.09,2.6q-.22,5.19-.44,10.26-.43,10.16-.85,19.87c-1.12,25.86-2.13,49.16-3,68.72s-1.56,35.39-2.05,46.34c-.06,1.37-.12,2.66-.17,3.87a8.65,8.65,0,0,1-.7,3.34,8.16,8.16,0,0,1-3.63,3.91,7.86,7.86,0,0,1-3.19,1,5.421,5.421,0,0,1-.85,0Z" fill="#012739"/>
          </g>
          <path id="Trazado_134712" data-name="Trazado 134712" d="M130.97,131.01l-51.91-1.89,1.1-26.05,51.92,1.89Z" fill="#32c4b4"/>
          <path id="Trazado_134713" data-name="Trazado 134713" d="M129.4,167.91l-51.91-1.89,1.1-26.05,51.92,1.89Z" fill="#32c4b4"/>
          <path id="Trazado_134714" data-name="Trazado 134714" d="M127.84,204.81l-51.92-1.88,1.11-26.06,51.91,1.89Z" fill="#32c4b4"/>
          <path id="Trazado_134715" data-name="Trazado 134715" d="M126.27,241.72l-51.92-1.89,1.11-26.05,51.92,1.88Z" fill="#32c4b4"/>
          <g id="Grupo_82739" data-name="Grupo 82739" opacity="0.1">
            <path id="Trazado_134716" data-name="Trazado 134716" d="M130.97,131.01l-51.91-1.89,1.1-26.05,51.92,1.89Z"/>
          </g>
          <g id="Grupo_82740" data-name="Grupo 82740" opacity="0.2">
            <path id="Trazado_134717" data-name="Trazado 134717" d="M129.4,167.91l-51.91-1.89,1.1-26.05,51.92,1.89Z"/>
          </g>
          <g id="Grupo_82741" data-name="Grupo 82741" opacity="0.3">
            <path id="Trazado_134718" data-name="Trazado 134718" d="M127.84,204.81l-51.92-1.88,1.11-26.06,51.91,1.89Z"/>
          </g>
          <g id="Grupo_82742" data-name="Grupo 82742" opacity="0.4">
            <path id="Trazado_134719" data-name="Trazado 134719" d="M126.27,241.72l-51.92-1.89,1.11-26.05,51.92,1.88Z"/>
          </g>
        </g>
        <g id="Grupo_82748" data-name="Grupo 82748">
          <g id="Grupo_82744" data-name="Grupo 82744">
            <path id="Trazado_134720" data-name="Trazado 134720" d="M118.69,262.22l-38.81.4a7.73,7.73,0,0,1-7.6-7.87L70.81,97.89a7.76,7.76,0,0,1,7.46-8l38.81-.4a7.74,7.74,0,0,1,7.61,7.87l1.46,156.86a7.77,7.77,0,0,1-7.46,8Z" fill="#fafafa"/>
            <path id="Trazado_134721" data-name="Trazado 134721" d="M118.69,262.22a6.615,6.615,0,0,0,1.08-.13,7.219,7.219,0,0,0,2.94-1.22,7.84,7.84,0,0,0,3-4.27,10.6,10.6,0,0,0,.31-3.45c0-1.25,0-2.58,0-4-.12-11.28-.3-27.59-.51-47.75s-.45-44.17-.71-70.83q-.11-10-.2-20.47c0-3.49-.07-7-.11-10.57V96.87a8.45,8.45,0,0,0-.57-2.53,7.81,7.81,0,0,0-3.32-3.78,7,7,0,0,0-2.38-.79,16.54,16.54,0,0,0-2.55-.07l-5.22.06-10.55.11-21.57.22a7.15,7.15,0,0,0-4.81,2,7.81,7.81,0,0,0-2.37,4.81,26.23,26.23,0,0,0,0,2.81v8.48q.11,11.23.21,22.13c.13,14.5.25,28.5.37,41.83.24,26.66.44,50.67.62,70.83q0,3.78.06,7.38v3.55a9.56,9.56,0,0,0,.42,3.35,7.74,7.74,0,0,0,4.08,4.61c1.84.89,3.86.55,5.75.6l19.45-.16,12.29-.09h3.2l-3.2.06-12.29.17-19.45.25h-2.9a7.21,7.21,0,0,1-3-.64,8,8,0,0,1-4.24-4.77,9.76,9.76,0,0,1-.45-3.45v-3.55q0-3.6-.08-7.38c-.2-20.16-.44-44.17-.71-70.83-.12-13.33-.26-27.32-.4-41.83q-.11-10.87-.21-22.13c0-1.87,0-3.75-.05-5.64v-5.7a8.32,8.32,0,0,1,2.52-5.11,7.55,7.55,0,0,1,5.11-2.11l21.57-.22,10.56-.11,5.21-.05a17.748,17.748,0,0,1,2.62.07,7.3,7.3,0,0,1,2.52.85,8.19,8.19,0,0,1,3.53,4,8.77,8.77,0,0,1,.6,2.68c.05.92,0,1.79.05,2.68q0,5.34.09,10.58.11,10.47.19,20.47c.23,26.65.43,50.66.61,70.83s.28,36.47.37,47.75v5.82l-.12.86c-.06.28-.12.55-.19.81a8,8,0,0,1-3.12,4.32,7.12,7.12,0,0,1-3,1.18,4.763,4.763,0,0,1-.81.07Z" fill="#012739"/>
          </g>
          <path id="Trazado_134722" data-name="Trazado 134722" d="M122.8,127.36l-49.55.51L73,101.06l49.55-.51Z" fill="#32c4b4"/>
          <path id="Trazado_134723" data-name="Trazado 134723" d="M123.16,165.34l-49.55.51-.25-26.81,49.55-.52Z" fill="#32c4b4"/>
          <path id="Trazado_134724" data-name="Trazado 134724" d="M123.51,203.32l-49.55.51-.25-26.81,49.55-.52Z" fill="#32c4b4"/>
          <path id="Trazado_134725" data-name="Trazado 134725" d="M123.87,241.3l-49.55.51L74.07,215l49.55-.52Z" fill="#32c4b4"/>
          <g id="Grupo_82745" data-name="Grupo 82745" opacity="0.2">
            <path id="Trazado_134726" data-name="Trazado 134726" d="M123.16,165.34l-49.55.51-.25-26.81,49.55-.52Z" fill="#fff"/>
          </g>
          <g id="Grupo_82746" data-name="Grupo 82746" opacity="0.3">
            <path id="Trazado_134727" data-name="Trazado 134727" d="M123.51,203.32l-49.55.51-.25-26.81,49.55-.52Z" fill="#fff"/>
          </g>
          <g id="Grupo_82747" data-name="Grupo 82747" opacity="0.4">
            <path id="Trazado_134728" data-name="Trazado 134728" d="M123.87,241.3l-49.55.51L74.07,215l49.55-.52Z" fill="#fff"/>
          </g>
        </g>
        <g id="Grupo_82749" data-name="Grupo 82749">
          <path id="Trazado_134729" data-name="Trazado 134729" d="M119.91,254.56a6.29,6.29,0,1,1-4.78-7.52,6.29,6.29,0,0,1,4.78,7.52Z" fill="#375a64"/>
          <path id="Trazado_134730" data-name="Trazado 134730" d="M119.91,254.56a6.2,6.2,0,0,0,0-1.55,6.3,6.3,0,0,0-1.52-3.77,6.16,6.16,0,0,0-5.46-2.07,6.092,6.092,0,0,0-2.47,11.16,6.17,6.17,0,0,0,5.82.43,6.27,6.27,0,0,0,3-2.78c.46-.87.56-1.43.61-1.41s0,.14-.06.4a4.629,4.629,0,0,1-.38,1.1,6.37,6.37,0,0,1-5.92,3.62,6.45,6.45,0,0,1-3.28-1,6.36,6.36,0,0,1-2.48-2.87,6.53,6.53,0,0,1-.41-4,6.63,6.63,0,0,1,2.08-3.5,6.46,6.46,0,0,1,9.24.74,6.26,6.26,0,0,1,1.45,4,5.2,5.2,0,0,1-.12,1.16,1.13,1.13,0,0,1-.1.34Z" fill="#012739"/>
        </g>
      </g>
      <g id="Grupo_82751" data-name="Grupo 82751">
        <path id="Trazado_134731" data-name="Trazado 134731" d="M84.37,130.52l-.57.48a.36.36,0,0,1-.21.11.32.32,0,0,1-.23-.19,1.32,1.32,0,0,1,0-1A2.17,2.17,0,0,1,84,129a.63.63,0,0,1,.44-.21.69.69,0,0,1,.41.25,5.369,5.369,0,0,1,.44.51.34.34,0,0,1,.11.29.35.35,0,0,1-.15.19c-.24.2-.6.29-.84.49" fill="#a24640"/>
        <path id="Trazado_134732" data-name="Trazado 134732" d="M80.21,121c.8,0,4.43-.41,4.43-.41L90.72,122A2.13,2.13,0,0,1,89,123.11c-1.62,0-3.89-.21-3.89-.21l-.72.43s2.76,1.86,2.79,2.22a1.57,1.57,0,0,1-.2.77,2.83,2.83,0,0,1,.08,2l-.09,2.6-2.61,1.8a2.06,2.06,0,0,1-.22-1.4c.19-.73,1.19-1.16,1.19-1.16l-.61-1.08-.91-.32s-6,1.67-7.4,1.57l-4.8,2.39-.66-7S79.4,121,80.21,121Z" fill="#c9655f"/>
        <path id="Trazado_134733" data-name="Trazado 134733" d="M83.83,126.42c0,.07.74.39,1.59.92a15.9,15.9,0,0,0,1.54,1,4,4,0,0,0-1.4-1.22A4.08,4.08,0,0,0,83.83,126.42Z" fill="#a24640"/>
        <path id="Trazado_134734" data-name="Trazado 134734" d="M83.36,124.39a15.728,15.728,0,0,0,1.73,1c1,.55,1.69,1.06,1.73,1a5.07,5.07,0,0,0-1.6-1.23,5.39,5.39,0,0,0-1.86-.77Z" fill="#a24640"/>
        <path id="Trazado_134735" data-name="Trazado 134735" d="M81.49,121.45a10.479,10.479,0,0,0,1.43,1.08,4.81,4.81,0,0,0,1.56.89,9.459,9.459,0,0,0-1.41-1.1A4.41,4.41,0,0,0,81.49,121.45Z" fill="#a24640"/>
      </g>
      <g id="Grupo_82752" data-name="Grupo 82752">
        <path id="Trazado_134736" data-name="Trazado 134736" d="M100.91,89.66a8,8,0,0,0-1.17-1.86,1.57,1.57,0,0,0-1.55-.29l-.37.22s-1.48-1.06-2.38-.65c0,0-1.41-1-2.32-.35,0,0-1-1-1.68-.44a2.81,2.81,0,0,0-.69,2.38c.12.64.18,2.75.53,2.85,0,0,.94.29,1.17-.2s.33-.73.33-.73,0,1.9.42,2.08,1.27.3,1.46-.5c0,0,.29.69.72.59s1-.29,1-.79a4,4,0,0,1,.15-1s.07.77.46.69.75,0,1.07-.56,1.09-1.67,1.09-1.67Z" fill="#c9655f"/>
        <path id="Trazado_134737" data-name="Trazado 134737" d="M96.6,90.93a4.071,4.071,0,0,0,0-.55,2.9,2.9,0,0,1,.93-2.33c.25-.23.43-.34.42-.36s-.22,0-.49.27a2.61,2.61,0,0,0-.81,1.09,2.58,2.58,0,0,0-.16,1.35,1.29,1.29,0,0,0,.11.53Z" fill="#a24640"/>
        <path id="Trazado_134738" data-name="Trazado 134738" d="M95.33,87.07a2.79,2.79,0,0,0-.35.68,7.41,7.41,0,0,0-.47,1.78,7.56,7.56,0,0,0,0,1.85,2.41,2.41,0,0,0,.17.74,12.649,12.649,0,0,1,0-2.57,13.54,13.54,0,0,1,.65-2.48Z" fill="#a24640"/>
        <path id="Trazado_134739" data-name="Trazado 134739" d="M93.08,86.75a5.84,5.84,0,0,0-.41,1.92,6,6,0,0,0,.09,2s0-.88.07-2S93.13,86.76,93.08,86.75Z" fill="#a24640"/>
      </g>
      <g id="Grupo_82755" data-name="Grupo 82755">
        <g id="Grupo_82753" data-name="Grupo 82753">
          <path id="Trazado_134740" data-name="Trazado 134740" d="M66.15,114.39,66.1,114Z" fill="#375a64"/>
          <path id="Trazado_134741" data-name="Trazado 134741" d="M66.1,114Z" fill="#375a64"/>
          <path id="Trazado_134742" data-name="Trazado 134742" d="M66.17,114.48v-.09Z" fill="#375a64"/>
          <path id="Trazado_134743" data-name="Trazado 134743" d="M66.23,138.22a75.851,75.851,0,0,0,8.19-4.8l-2.62-8.74-3.69.59c-.34-3.81-1.51-7.49-1.94-10.79L61.68,99.64l-9.77-.89L40,97.88,32.46,99c-4.16.6-9,2.88-11,6.58a19.93,19.93,0,0,0-1.35,6c-.62,6.33,1.73,25.61,8.32,32.48l-3.34,9.95c-4.78,14.89,44.33,8.63,43.9,2.86-.57-2.73-3.22-14.4-3.22-14.4Z" fill="#ffa726"/>
          <path id="Trazado_134744" data-name="Trazado 134744" d="M66.1,114Z" fill="#375a64"/>
        </g>
        <path id="Trazado_134745" data-name="Trazado 134745" d="M41,129.59a15.11,15.11,0,0,0-2.46,2.51,16.23,16.23,0,0,0-1.53,3.16,7.1,7.1,0,0,1,4-5.67Z" fill="#012739"/>
        <g id="Grupo_82754" data-name="Grupo 82754" opacity="0.3">
          <path id="Trazado_134746" data-name="Trazado 134746" d="M28.65,144a7.94,7.94,0,0,0,5.28,4,18.76,18.76,0,0,0,6.81.18c9.08-1.07,24.42-10.06,24.16-9.89C53.41,144.81,33.16,147.32,28.65,144Z"/>
        </g>
        <path id="Trazado_134747" data-name="Trazado 134747" d="M74.42,133.42l-.1.08-.33.21c-.28.17-.7.44-1.25.76-1.1.65-2.71,1.57-4.73,2.62a89.43,89.43,0,0,1-16.54,6.69,37.117,37.117,0,0,1-5,1c-1.63.23-3.21.38-4.71.51s-2.94.21-4.28.27a28.5,28.5,0,0,1-3.75-.08,11.83,11.83,0,0,1-5.17-1.53,6,6,0,0,1-1.14-.94l-.25-.29a.629.629,0,0,1-.08-.11,8.53,8.53,0,0,0,1.53,1.24,12,12,0,0,0,5.13,1.42,32.286,32.286,0,0,0,3.72,0c1.33-.07,2.76-.18,4.26-.31s3.08-.29,4.7-.52a37.488,37.488,0,0,0,5-1,95.511,95.511,0,0,0,16.52-6.59c2-1,3.65-1.92,4.77-2.54l1.28-.72.34-.18Z" fill="#012739"/>
        <path id="Trazado_134748" data-name="Trazado 134748" d="M71.8,124.68h-.13l-.39.08-1.49.27-5.51.93-18.2,3-5,.79h-.12v-.1c-2.3-5.52-4.31-10.36-5.76-13.85l-1.67-4.08-.44-1.1a3.31,3.31,0,0,1-.13-.39,1.77,1.77,0,0,1,.18.37l.48,1.08c.43,1,1,2.35,1.75,4,1.48,3.48,3.52,8.3,5.86,13.8l-.16-.08,5-.81,18.21-2.86,5.53-.84,1.5-.21h.4C71.76,124.67,71.8,124.67,71.8,124.68Z" fill="#012739"/>
      </g>
      <path id="Trazado_134749" data-name="Trazado 134749" d="M63.3,106.5a12.86,12.86,0,0,0,.67,1.82c.43,1.11,1,2.66,1.53,4.39s.92,3.34,1.18,4.5a12.84,12.84,0,0,0,.46,1.88,9.4,9.4,0,0,0-.22-1.92,36.22,36.22,0,0,0-1.09-4.56,38.383,38.383,0,0,0-1.63-4.39,9.26,9.26,0,0,0-.9-1.72Z" fill="#012739"/>
      <g id="Grupo_82758" data-name="Grupo 82758">
        <path id="Trazado_134750" data-name="Trazado 134750" d="M62.05,95.77a2,2,0,0,1-.73,1,1.68,1.68,0,0,1-1.41.27,1.75,1.75,0,0,1-1.2-1.41,1.6,1.6,0,0,1,.23-1.07,3.31,3.31,0,0,1,.85-.91,6.94,6.94,0,0,0,2.15-1.9,3.91,3.91,0,0,0,.37-3.15,4.32,4.32,0,0,0-.8-1.51,6.29,6.29,0,0,0-1.28-1.19,9.17,9.17,0,0,1-1.29-1.09,2.27,2.27,0,0,1-.62-1.41,2.79,2.79,0,0,1,.43-1.4,5.08,5.08,0,0,1,1-1.16,11.35,11.35,0,0,0,2-2.1,4.29,4.29,0,0,0,.62-2.43,5.62,5.62,0,0,0-.55-2,10.18,10.18,0,0,1-.55-1.44,3.13,3.13,0,0,1-.08-1.29v.08a1.848,1.848,0,0,0-.06.25,2.73,2.73,0,0,0,.06,1,10.43,10.43,0,0,0,.51,1.47,5.64,5.64,0,0,1,.5,1.94,4.19,4.19,0,0,1-.62,2.31,11.82,11.82,0,0,1-1.94,2,6,6,0,0,0-1,1.21,3,3,0,0,0-.46,1.6A2.5,2.5,0,0,0,58.73,85a8.93,8.93,0,0,0,1.33,1.13,6.36,6.36,0,0,1,1.23,1.13,4.44,4.44,0,0,1,.76,1.42,3.67,3.67,0,0,1-.33,2.93,6.92,6.92,0,0,1-2.08,1.85,3.8,3.8,0,0,0-.89,1,1.8,1.8,0,0,0-.24,1.21,1.91,1.91,0,0,0,1.35,1.53,1.78,1.78,0,0,0,1.52-.34,1.75,1.75,0,0,0,.6-.78A1.26,1.26,0,0,0,62.05,95.77Z" fill="#012739"/>
        <path id="Trazado_134751" data-name="Trazado 134751" d="M33.34,66.93a1.82,1.82,0,0,1,.37,1.27,7.6,7.6,0,0,1-.18,1.59,8.77,8.77,0,0,1-.44,1.54,1.82,1.82,0,0,1-.83,1c-.39.16-.9,0-1.31-.6a2.73,2.73,0,0,1-.45-1.11,4,4,0,0,1,0-1.46,4.21,4.21,0,0,1,.55-1.35A3.11,3.11,0,0,1,31.9,67,1.132,1.132,0,0,1,33.34,66.93Z" fill="#32c4b4"/>
        <path id="Trazado_134752" data-name="Trazado 134752" d="M28.7,82.5a6.23,6.23,0,0,1,.69-4.74,32.21,32.21,0,0,0,2.23-4.38c.55-1.69.51-3.54,1.19-5.18a6.5,6.5,0,0,1,3.91-3.65,11.55,11.55,0,0,0,3.14-1.08A11.68,11.68,0,0,0,42,60.8a10.11,10.11,0,0,1,4-3.44A9.82,9.82,0,0,1,52.81,57a5.71,5.71,0,0,1,2.8,2.73,12.08,12.08,0,0,1,1.07,3.83c2,.39,3.18,2.46,4.08,4.3a8.42,8.42,0,0,1,1.05,3.27A24.07,24.07,0,0,1,60.13,78c-3.22,5.81-8,7-13.82,10.25-2.25,1.25-3.64,4.1-6.2,4-3-.11-5.9-.23-7.63-2.66s-3.69-4.74-3.94-7.72" fill="#012739"/>
        <path id="Trazado_134753" data-name="Trazado 134753" d="M59.46,73.3c-.16-4.16-2.8-9.33-7-9l-13,3a2.45,2.45,0,0,0-2.24,2.43l.64,31.24H37.8s2.72,8.88,11.34,6.41c1.71-.49,2.54-2.32,2.92-4.22h.09v-.65a20.66,20.66,0,0,0,.17-4.28h0c.09-2.52.11-3.56.11-3.53s5.34-.76,6.6-7.67C59.68,83.59,59.64,77.93,59.46,73.3Z" fill="#c9655f"/>
        <g id="Grupo_82757" data-name="Grupo 82757">
          <g id="Grupo_82756" data-name="Grupo 82756">
            <path id="Trazado_134754" data-name="Trazado 134754" d="M48.89,78.52a.87.87,0,0,1-.87.87.84.84,0,0,1-.9-.82.89.89,0,0,1,.88-.88.85.85,0,0,1,.89.83Z" fill="#012739"/>
            <path id="Trazado_134755" data-name="Trazado 134755" d="M58.05,78.52a.89.89,0,0,1-.88.87.85.85,0,0,1-.9-.82.9.9,0,0,1,.88-.88.86.86,0,0,1,.9.83Z" fill="#012739"/>
            <path id="Trazado_134756" data-name="Trazado 134756" d="M58.52,76.34c-.11.16-.88-.45-1.92-.4s-1.77.68-1.89.54,0-.33.36-.63a2.39,2.39,0,0,1,1.51-.61,2.33,2.33,0,0,1,1.54.5C58.46,76,58.58,76.28,58.52,76.34Z" fill="#012739"/>
          </g>
          <path id="Trazado_134757" data-name="Trazado 134757" d="M48.88,76.48c-.14.14-.89-.53-2-.59s-2,.48-2.07.33.09-.33.46-.58a2.64,2.64,0,0,1,1.67-.44,2.54,2.54,0,0,1,1.57.65C48.84,76.15,48.94,76.42,48.88,76.48Z" fill="#012739"/>
          <path id="Trazado_134758" data-name="Trazado 134758" d="M52.06,83.35a6.71,6.71,0,0,1,1.56-.24c.24,0,.48-.07.52-.23a1.26,1.26,0,0,0-.14-.73l-.68-1.88a32.19,32.19,0,0,1-1.51-4.9,31.521,31.521,0,0,1,1.9,4.77c.23.66.44,1.29.65,1.89a1.47,1.47,0,0,1,.1,1,.62.62,0,0,1-.41.35,2.27,2.27,0,0,1-.42,0,6.86,6.86,0,0,1-1.57-.03Z" fill="#012739"/>
          <path id="Trazado_134759" data-name="Trazado 134759" d="M52.45,94.69A17.65,17.65,0,0,1,43.22,92s2.22,5,9.18,4.49Z" fill="#a24640"/>
          <path id="Trazado_134760" data-name="Trazado 134760" d="M51.6,85.65A1.71,1.71,0,0,0,50.07,85a1.52,1.52,0,0,0-1.1.56,1,1,0,0,0-.1,1.14,1.16,1.16,0,0,0,1.24.34,3.64,3.64,0,0,0,1.24-.7.83.83,0,0,0,.28-.28.3.3,0,0,0,0-.35" fill="#a24640"/>
          <path id="Trazado_134761" data-name="Trazado 134761" d="M49.23,83.94c.15,0,.13,1,1,1.8s2,.67,2,.81-.25.2-.72.2a2.63,2.63,0,0,1-1.66-.62,2.31,2.31,0,0,1-.78-1.5C49,84.19,49.16,83.94,49.23,83.94Z" fill="#012739"/>
        </g>
        <path id="Trazado_134762" data-name="Trazado 134762" d="M49.11,73.24c-.1.26-1,.11-2.18.22s-2,.39-2.18.15.1-.35.47-.59a3.79,3.79,0,0,1,3.32-.29C49,72.91,49.15,73.12,49.11,73.24Z" fill="#012739"/>
        <path id="Trazado_134763" data-name="Trazado 134763" d="M57.88,73.44c-.2.21-1,0-1.86-.06s-1.67.1-1.84-.13,0-.33.39-.52a2.71,2.71,0,0,1,1.51-.32,2.81,2.81,0,0,1,1.47.47C57.86,73.11,58,73.33,57.88,73.44Z" fill="#012739"/>
        <path id="Trazado_134764" data-name="Trazado 134764" d="M36.6,68a5.73,5.73,0,0,1,3.06-1.61,63.6,63.6,0,0,1,15-2.24,2.59,2.59,0,0,1-1.21,3.07A11.6,11.6,0,0,1,50,68.33a4.45,4.45,0,0,0-3,1.89c-.61,1.13-.34,2.56-.89,3.71-.95,2-3.89,2.37-4.83,4.36-.71,1.5-.25,1.16-.19,2.82.07,1.89-1.09,2.17-2.58,3.33a8.77,8.77,0,0,1-4.92,1.84c.25-6,1.79-8.81,2-14.76A6,6,0,0,1,36.6,68Z" fill="#012739"/>
        <path id="Trazado_134765" data-name="Trazado 134765" d="M44.92,58.52l.12-.09c.09,0,.21-.14.38-.22a5.77,5.77,0,0,1,1.51-.57,6.58,6.58,0,0,1,2.39-.11,6.4,6.4,0,0,1,2.73,1A6.52,6.52,0,0,1,54.73,63a5.67,5.67,0,0,1,0,1.61,2.38,2.38,0,0,1-.08.43v.15a7.56,7.56,0,0,0,0-2.18,6.69,6.69,0,0,0-.75-2.22A6.46,6.46,0,0,0,52,58.7a6.28,6.28,0,0,0-2.67-1,6.67,6.67,0,0,0-2.35.08A8.16,8.16,0,0,0,44.92,58.52Z" fill="#375a64"/>
        <path id="Trazado_134766" data-name="Trazado 134766" d="M38.25,64.14a1.16,1.16,0,0,1,.21,0,2.729,2.729,0,0,0,.56-.06,3.5,3.5,0,0,0,.85-.3,7.489,7.489,0,0,0,1-.64c.36-.27.73-.58,1.15-.91a7.53,7.53,0,0,1,1.42-.91,7.79,7.79,0,0,1,3.76-.73,7.57,7.57,0,0,1,3.66,1.14,7.93,7.93,0,0,1,2.27,2.18,7.67,7.67,0,0,1,.95,1.89c.08.24.13.43.16.56a.87.87,0,0,1,0,.19s-.07-.26-.25-.73a7.94,7.94,0,0,0-3.23-4,7.71,7.71,0,0,0-3.6-1.11,7.86,7.86,0,0,0-3.69.71,7.45,7.45,0,0,0-1.4.89c-.42.31-.8.62-1.16.88a6.83,6.83,0,0,1-1,.64,3.34,3.34,0,0,1-.87.28,2.5,2.5,0,0,1-.58,0,.55.55,0,0,1-.21.03Z" fill="#375a64"/>
        <path id="Trazado_134767" data-name="Trazado 134767" d="M32.41,71.55a14.13,14.13,0,0,0,.37,1.7,7.65,7.65,0,0,0,5.93,5.3,14,14,0,0,0,1.72.17h-.46a6.55,6.55,0,0,1-1.28-.1,7.61,7.61,0,0,1-3.79-1.81,7.69,7.69,0,0,1-2.23-3.56A7.85,7.85,0,0,1,32.43,72a2.38,2.38,0,0,1,0-.34Z" fill="#375a64"/>
        <path id="Trazado_134768" data-name="Trazado 134768" d="M39,81.85a3.111,3.111,0,0,1-.47-.08,12.87,12.87,0,0,1-1.25-.32,9.35,9.35,0,0,1-3.72-2.08,6.19,6.19,0,0,1-1.93-3.76,4.65,4.65,0,0,1,.05-1.3,1.668,1.668,0,0,1,.08-.35c.01-.08,0-.11.05-.11a6.09,6.09,0,0,0-.07,1.75,6.3,6.3,0,0,0,1.92,3.66,10,10,0,0,0,3.65,2.09c.52.17.94.29,1.24.37A2.18,2.18,0,0,1,39,81.85Z" fill="#375a64"/>
        <path id="Trazado_134769" data-name="Trazado 134769" d="M60.75,63a8.84,8.84,0,0,0-2.27,0,8.23,8.23,0,0,0-2.13.79,2.3,2.3,0,0,1,.56-.39,5.32,5.32,0,0,1,1.54-.56,5.47,5.47,0,0,1,1.64-.05A2.41,2.41,0,0,1,60.75,63Z" fill="#012739"/>
        <path id="Trazado_134770" data-name="Trazado 134770" d="M58,59.44a2.79,2.79,0,0,1,.05.73,6.4,6.4,0,0,1-.3,1.74A6.27,6.27,0,0,1,57,63.49a2.49,2.49,0,0,1-.46.56,10.8,10.8,0,0,0,1.09-2.19A10.85,10.85,0,0,0,58,59.44Z" fill="#012739"/>
        <path id="Trazado_134771" data-name="Trazado 134771" d="M39.06,79.1c-.11,0-4.34-1.48-4.38,2.89S39,85.5,39.05,85.38,39.06,79.1,39.06,79.1Z" fill="#c9655f"/>
        <path id="Trazado_134772" data-name="Trazado 134772" d="M37.73,83.71a2.079,2.079,0,0,1-.21.11.83.83,0,0,1-.57,0,1.92,1.92,0,0,1-.86-1.7A2.53,2.53,0,0,1,36.32,81a.86.86,0,0,1,.58-.58.38.38,0,0,1,.44.21c.06.12,0,.21.06.22s.09-.07.06-.25a.5.5,0,0,0-.17-.28.6.6,0,0,0-.42-.12,1.06,1.06,0,0,0-.8.67,2.55,2.55,0,0,0-.28,1.22A2,2,0,0,0,36.88,84a.83.83,0,0,0,.7-.11C37.72,83.81,37.74,83.72,37.73,83.71Z" fill="#a24640"/>
        <path id="Trazado_134773" data-name="Trazado 134773" d="M35.38,84.43l-.2.12-.58.34a4.133,4.133,0,0,0-1.36,5.41,4.26,4.26,0,0,0,1.45,1.54,4.14,4.14,0,0,0,2.2.61A4.06,4.06,0,0,0,38,92.27a3.67,3.67,0,0,0,1-.48,4.12,4.12,0,0,0,0-6.94,6.731,6.731,0,0,0-.81-.42,2.78,2.78,0,0,1,.84.37,4.08,4.08,0,0,1,1.65,1.85,4.16,4.16,0,0,1,.37,1.7,4.217,4.217,0,0,1-7.94,2.04,4.213,4.213,0,0,1,1.45-5.52c.26-.15.47-.24.61-.31a.84.84,0,0,1,.21-.13Z" fill="#fff"/>
        <path id="Trazado_134774" data-name="Trazado 134774" d="M32.06,71.09v.21a4.37,4.37,0,0,1-.06.61,8.85,8.85,0,0,1-.64,2.16c-.37.88-.93,1.87-1.5,3A16.24,16.24,0,0,0,29,78.84a8.35,8.35,0,0,0-.54,2,7.44,7.44,0,0,0,.59,4,8.59,8.59,0,0,0,.9,1.52,14.387,14.387,0,0,0,1,1.23c.59.74,1.1,1.32,1.45,1.72l.4.46c.09.11.14.16.13.17l-.16-.15c-.09-.1-.24-.24-.42-.44-.36-.39-.88-1-1.48-1.69-.3-.37-.63-.78-1-1.22A8.5,8.5,0,0,1,29,84.87a7.53,7.53,0,0,1-.61-4,8.12,8.12,0,0,1,.55-2.06A18.561,18.561,0,0,1,29.73,77c.59-1.11,1.15-2.09,1.53-3a9.14,9.14,0,0,0,.68-2.13c.06-.26.06-.46.09-.6Z" fill="#375a64"/>
      </g>
    </g>
    <g id="Grupo_82779" data-name="Grupo 82779">
      <g id="Grupo_82761" data-name="Grupo 82761">
        <path id="Trazado_134775" data-name="Trazado 134775" d="M218.43,156.68l-.66-.2c-3.09,1.28-5.13,4.33-6.2,7.5s-1.32,6.54-1.95,9.82-1.68,6.63-4,9a38.238,38.238,0,0,0,4.8,3.5,3.81,3.81,0,0,0,1.79.69,3.64,3.64,0,0,0,2.62-1.45c3.47-3.71,3.9-10.39,4.27-15.47S219.85,161.56,218.43,156.68Z" fill="#32c4b4"/>
        <g id="Grupo_82760" data-name="Grupo 82760" opacity="0.2">
          <path id="Trazado_134776" data-name="Trazado 134776" d="M216,158.6s-7.56,26.41-7.07,26.74,2,1.26,2,1.26l6.82-27.6Z"/>
        </g>
        <path id="Trazado_134777" data-name="Trazado 134777" d="M220.9,152.12a2.27,2.27,0,0,0-2-2,3.26,3.26,0,0,0-2.74,1.21,5.79,5.79,0,0,0-1.19,2.85c-.24,1.44-.05,3.14,1.14,4a2.9,2.9,0,0,0,3.16,0,4.21,4.21,0,0,0,1.75-2.74,8.09,8.09,0,0,0-.11-3.32" fill="#32c4b4"/>
        <path id="Trazado_134778" data-name="Trazado 134778" d="M218.39,156.49a2.25,2.25,0,0,1-.37-.92,5.73,5.73,0,0,1,.9-4.59,2.321,2.321,0,0,1,.69-.71s-.21.32-.51.83a6.68,6.68,0,0,0-.83,2.14,6.59,6.59,0,0,0,0,2.29,5.681,5.681,0,0,1,.12.96Z" fill="#012739"/>
        <path id="Trazado_134779" data-name="Trazado 134779" d="M217.29,158.93a.769.769,0,0,1-.43.13,1.51,1.51,0,0,1-1-.35,1.53,1.53,0,0,1-.54-.92c0-.28,0-.44.05-.44a2.525,2.525,0,0,0,.67,1.13,2.9,2.9,0,0,0,1.25.45Z" fill="#012739"/>
      </g>
      <path id="Trazado_134780" data-name="Trazado 134780" d="M256.93,122.52l5.67,12.24-12.61-7.26Z" fill="#ffbf9d"/>
      <g id="Grupo_82766" data-name="Grupo 82766">
        <g id="Grupo_82763" data-name="Grupo 82763">
          <g id="Grupo_82762" data-name="Grupo 82762">
            <path id="Trazado_134781" data-name="Trazado 134781" d="M154.65,83.63l17.06,22.46,7.36-1.95,3.7,2.1,6.41-11.78-3.85-2.02-2.85-7.23Z" fill="#fafafa"/>
            <path id="Trazado_134782" data-name="Trazado 134782" d="M154.64,83.63l27.84,1.49h.06l2.85,7.23V92.3l3.86,2h.08v.08l-3.27,6-3.14,5.77-.05.08-.08-.05-3.71-2.1h.07l-7.36,2h-.06c-9.95-13.19-16.52-21.9-17-22.52L171.78,106h-.09l7.36-2h0l3.7,2.1h-.13q1.53-2.83,3.14-5.77l3.27-6v.12l-3.86-2h0l-2.85-7.23.08.05Z" fill="#012739"/>
          </g>
          <path id="Trazado_134783" data-name="Trazado 134783" d="M175.13,90.17a4,4,0,0,1,1.65,5.5,4.17,4.17,0,0,1-5.58,1.71,4,4,0,0,1-1.65-5.5,4.17,4.17,0,0,1,5.58-1.71Z" fill="#012739"/>
          <path id="Trazado_134784" data-name="Trazado 134784" d="M154.64,83.63s4.21,2,9.34,4.59,9.27,4.71,9.24,4.76-4.2-2-9.33-4.59S154.62,83.68,154.64,83.63Z" fill="#012739"/>
          <path id="Trazado_134785" data-name="Trazado 134785" d="M288,152.41h0a6.64,6.64,0,0,1-8.85,2.75l-92.82-47.4,6.25-11.5,92.76,47.37a6.39,6.39,0,0,1,2.66,8.78Z" fill="#32c4b4"/>
          <path id="Trazado_134786" data-name="Trazado 134786" d="M193.73,95.63l-7.35,13.52-4.71-2.46,7.36-13.53Z" fill="#32c4b4"/>
        </g>
        <g id="Grupo_82764" data-name="Grupo 82764" opacity="0.3">
          <path id="Trazado_134787" data-name="Trazado 134787" d="M186.87,108.23l6.26-11.49,1.75.9-7.38,10.92Z"/>
        </g>
        <g id="Grupo_82765" data-name="Grupo 82765" opacity="0.5">
          <path id="Trazado_134788" data-name="Trazado 134788" d="M183.69,102.98l6.8-1.68,1.09-1.72-6.99,1.73Z" fill="#fff"/>
        </g>
      </g>
      <g id="Grupo_82767" data-name="Grupo 82767" opacity="0.2">
        <path id="Trazado_134789" data-name="Trazado 134789" d="M250.47,126.24a13.81,13.81,0,0,1,.34,14.59Z"/>
      </g>
      <path id="Trazado_134790" data-name="Trazado 134790" d="M233.29,271.32c.06.12.61-.07,1.3,0s1.24.24,1.3.13-.46-.53-1.28-.56S233.23,271.23,233.29,271.32Z" fill="#012739"/>
      <path id="Trazado_134791" data-name="Trazado 134791" d="M231.76,261.88c.1.07.5-.37,1.11-.68s1.19-.41,1.2-.53-.67-.23-1.39.15S231.66,261.83,231.76,261.88Z" fill="#012739"/>
      <g id="Grupo_82771" data-name="Grupo 82771">
        <g id="Grupo_82768" data-name="Grupo 82768">
          <path id="Trazado_134792" data-name="Trazado 134792" d="M232.81,261.52l.73,12.88s-12.84,5.07-12.94,7.46l25-.53-.32-20.11Z" fill="#32c4b4"/>
          <path id="Trazado_134793" data-name="Trazado 134793" d="M241.26,273.15a.967.967,0,0,1-.41,1.89,1.09,1.09,0,0,1-.77-1.23,1,1,0,0,1,1.27-.63" fill="#e1e1e1"/>
          <path id="Trazado_134794" data-name="Trazado 134794" d="M245.66,282v-2.7l-24.1,1.27s-1.1.51-1,1.29Z" fill="#012739"/>
          <path id="Trazado_134795" data-name="Trazado 134795" d="M233.13,274.28c0,.12.62.16,1.23.54s.94.89,1,.84a1.464,1.464,0,0,0-.83-1.2C233.78,274.01,233.11,274.17,233.13,274.28Z" fill="#012739"/>
          <path id="Trazado_134796" data-name="Trazado 134796" d="M230.53,275.42c0,.12.51.31.94.82s.55,1.05.68,1.05.18-.7-.36-1.33S230.53,275.3,230.53,275.42Z" fill="#012739"/>
          <path id="Trazado_134797" data-name="Trazado 134797" d="M229.11,278.59c.11,0,.27-.59-.06-1.25s-.91-.92-1-.82.32.46.58,1S229,278.58,229.11,278.59Z" fill="#012739"/>
        </g>
        <path id="Trazado_134798" data-name="Trazado 134798" d="M250,147.52s5.71,9.83,6.5,18.62c.71,8-4.32,17.06-4.32,17.06l-8.69,32.71L246,271.85l-13.89.71-8-64.12,2.43-59.69Z" fill="#012739"/>
        <g id="Grupo_82769" data-name="Grupo 82769">
          <path id="Trazado_134799" data-name="Trazado 134799" d="M226.47,253.61l7,10.81s-8.63,10.78-7.53,12.91l21.46-12.89-10.27-17.3Z" fill="#32c4b4"/>
          <path id="Trazado_134800" data-name="Trazado 134800" d="M239.58,259.51a.961.961,0,0,1,.59,1.83,1.09,1.09,0,0,1-1.28-.68,1,1,0,0,1,.79-1.18" fill="#e1e1e1"/>
          <path id="Trazado_134801" data-name="Trazado 134801" d="M247.44,264.44l-1.11-1.7-20.15,13s-.71,1-.2,1.6Z" fill="#012739"/>
          <path id="Trazado_134802" data-name="Trazado 134802" d="M233.09,264.52c.07.1.62-.16,1.34-.14s1.26.31,1.33.21-.45-.62-1.32-.63S233,264.44,233.09,264.52Z" fill="#012739"/>
          <path id="Trazado_134803" data-name="Trazado 134803" d="M231.4,266.8c0,.12.6,0,1.22.25s1,.64,1.11.57-.19-.7-1-1S231.34,266.7,231.4,266.8Z" fill="#012739"/>
          <path id="Trazado_134804" data-name="Trazado 134804" d="M231.74,270.26c.11,0-.06-.64-.67-1.06s-1.24-.34-1.23-.23.49.24,1,.59S231.63,270.31,231.74,270.26Z" fill="#012739"/>
        </g>
        <path id="Trazado_134805" data-name="Trazado 134805" d="M219.77,152.86s-16.91,60.82-13.28,67.63,22.28,44.71,22.28,44.71l15.67-8.63-17.9-41.81,13.61-29.93s6.51-5.67,9-13.62-1.83-21.05-1.83-21.05h-27.2Z" fill="#012739"/>
        <path id="Trazado_134806" data-name="Trazado 134806" d="M250,161.38s.05.16.11.47.14.78.22,1.39a34.8,34.8,0,0,1,.34,5.35,21.89,21.89,0,0,1-.43,3.82,11.729,11.729,0,0,1-.63,2.11,14.4,14.4,0,0,1-1.09,2.09,17.49,17.49,0,0,1-8.3,6.94l.08-.07-13.58,29.94v-.14c.25.58.52,1.2.78,1.82,6.67,15.64,12.71,29.79,17.08,40v.1h-.1L233,261.53l-3.13,1.69-.81.43-.29.14.27-.17.8-.46,3.1-1.74,11.44-6.36v.15l-17.17-40c-.26-.62-.53-1.24-.77-1.82v-.13L240,183.36v-.05h.06a17.27,17.27,0,0,0,8.2-6.8,14,14,0,0,0,1.09-2.05,12,12,0,0,0,.64-2.07,22.5,22.5,0,0,0,.45-3.78,35.482,35.482,0,0,0-.26-5.34c-.07-.61-.14-1.08-.19-1.39Z" fill="#375a64"/>
        <g id="Grupo_82770" data-name="Grupo 82770">
          <path id="Trazado_134807" data-name="Trazado 134807" d="M226.54,162.39a1.34,1.34,0,0,1,.32,0l.95-.07,3.64-.24,13-.81h.15V174.2h-.06l-2,1.68-6.68,5.7-.08.07-.09-.05-8.68-4.33h-.07v-.08c-.16-4.45-.3-8.15-.39-10.77,0-1.26-.07-2.26-.09-3V162.4a2.209,2.209,0,0,1,0,.28,5.117,5.117,0,0,0,.05.8c0,.71.09,1.72.16,3,.13,2.59.31,6.25.52,10.67l-.07-.12,8.69,4.29h-.18l6.67-5.71,2-1.67-.06.13v-12.7l.15.15-12.93.65-3.68.16h-1Z" fill="#375a64"/>
          <path id="Trazado_134808" data-name="Trazado 134808" d="M244.42,163.76a3.151,3.151,0,0,1-.69.14c-.45.08-1.1.16-1.91.26-1.61.2-3.85.42-6.33.57s-4.72.21-6.34.22h-1.93a3.48,3.48,0,0,1-.71-.06,2.39,2.39,0,0,1,.71-.07l1.92-.09c1.62-.06,3.86-.16,6.33-.31s4.71-.34,6.33-.47l1.91-.16A2.409,2.409,0,0,1,244.42,163.76Z" fill="#375a64"/>
        </g>
      </g>
      <g id="Grupo_82773" data-name="Grupo 82773">
        <path id="Trazado_134809" data-name="Trazado 134809" d="M220.18,120.48a22.58,22.58,0,0,0-1.77,10.88c.25,2.39,1.66,8.46,1.66,8.46l-.19,11.62s30.83-2.31,30.8-2.37.34-14.63.06-24.88-4.78-20.8-4.78-20.8-4.1-2.37-7.18-2.11-16,1.71-16,1.71Z" fill="#35afea"/>
        <path id="Trazado_134810" data-name="Trazado 134810" d="M222.3,103.38s-5.15.74-9.93,8.24c-4.93,7.74-7.19,10.95-7.19,10.95l14.06,9.18S227,120.07,228,117.56,230,103.14,222.3,103.38Z" fill="#35afea"/>
        <path id="Trazado_134811" data-name="Trazado 134811" d="M242.91,102.59s4.45,1.76,6.29,4.59c1.19,1.84,8.56,14.77,8.56,14.77l-8.46,5.89-6.39-17.94Z" fill="#35afea"/>
        <g id="Grupo_82772" data-name="Grupo 82772" opacity="0.2">
          <path id="Trazado_134812" data-name="Trazado 134812" d="M218.15,133.39l1.63.73s7.68-10.18,8-15.93l-8.44,13.08-1.42-.75Z"/>
        </g>
        <path id="Trazado_134813" data-name="Trazado 134813" d="M249.58,111.62a1.19,1.19,0,0,1,.06.29l.13.83c.1.72.23,1.77.38,3.07.29,2.59.6,6.19.8,10.17s.28,7.58.29,10.19v3.94a.939.939,0,0,1,0,.29.85.85,0,0,1,0-.29v-.84c0-.78-.05-1.82-.09-3.09-.07-2.61-.17-6.21-.38-10.19s-.48-7.57-.71-10.16c-.12-1.27-.22-2.31-.29-3.08a8.328,8.328,0,0,0-.07-.84,1.07,1.07,0,0,1-.12-.29Z" fill="#012739"/>
      </g>
      <g id="Grupo_82775" data-name="Grupo 82775">
        <g id="Grupo_82774" data-name="Grupo 82774">
          <path id="Trazado_134814" data-name="Trazado 134814" d="M247.33,88.3c-.64-3.29-2-6.38-3-9.56-1.2-3.71-2.13-7.81-5.12-10.31a15.732,15.732,0,0,0-7.08-2.84,17.1,17.1,0,0,0-6.93-.35c-1.14.23-2.23.67-3.36,1a20.83,20.83,0,0,0-3.92,1c-2.53,1.16-3.83,4.06-4.21,6.82s-.06,5.59-.46,8.35c-.19,1.32-.54,2.62-.86,3.92-1.17,2.52-2.45,5-2.27,7.74.13,2,1,3.76,1.46,5.67s.26,4.21-1.29,5.41a2.81,2.81,0,0,0,4.72-1.86,2.07,2.07,0,0,0,.77.64,5,5,0,0,0,2.52.2,18.14,18.14,0,0,0,7.14-1.71l12-1c3.1,1.25,6.84-.49,8.63-3.32S248,91.58,247.33,88.3Z" fill="#012739"/>
          <path id="Trazado_134815" data-name="Trazado 134815" d="M223,67.8c-1.16.23-2.39.06-3.53.38a5.72,5.72,0,0,0-3.52,3.52,17,17,0,0,0-.88,5.06c-.1,1.54-.21,3.08-.32,4.61a14.458,14.458,0,0,1-.41,2.94,31,31,0,0,0-1.18,5.27A14.87,14.87,0,0,0,216.55,100c1.06,1.2,6,1.23,7.57,1.55.69-.6,2.42-.6,3.11-1.2.12-.11-5-4-5-4.18a1.09,1.09,0,0,0-.07-.75,36.73,36.73,0,0,1,1.55-27.36" fill="#012739"/>
          <path id="Trazado_134816" data-name="Trazado 134816" d="M236.87,103l1.8-28.24h0a2.37,2.37,0,0,0-2.12-2.41L224,69.13c-4-.43-6.7,4.51-7,8.54-.29,4.49-.47,10,.06,13.31,1.05,6.73,6.2,7.6,6.2,7.6l.43,4.51s3.26-.57,5.67-.83C234.75,101.68,236.87,103,236.87,103Z" fill="#ffbf9d"/>
          <path id="Trazado_134817" data-name="Trazado 134817" d="M218.6,82.7a.86.86,0,0,0,.83.87.83.83,0,0,0,.89-.78.86.86,0,0,0-.83-.87.83.83,0,0,0-.89.78Z" fill="#012739"/>
          <path id="Trazado_134818" data-name="Trazado 134818" d="M218.61,80.72c.11.12.76-.37,1.69-.36s1.61.47,1.71.35-.06-.25-.35-.47a2.45,2.45,0,0,0-1.37-.42,2.25,2.25,0,0,0-1.35.43C218.66,80.47,218.56,80.67,218.61,80.72Z" fill="#012739"/>
          <path id="Trazado_134819" data-name="Trazado 134819" d="M227.12,82.81a.88.88,0,0,0,.83.87.81.81,0,0,0,.89-.77A.86.86,0,0,0,228,82a.84.84,0,0,0-.88.81Z" fill="#012739"/>
          <path id="Trazado_134820" data-name="Trazado 134820" d="M227.73,80.72c.11.12.77-.37,1.69-.36s1.61.47,1.71.35-.06-.25-.35-.47a2.42,2.42,0,0,0-1.37-.42,2.22,2.22,0,0,0-1.34.43C227.78,80.47,227.68,80.67,227.73,80.72Z" fill="#012739"/>
          <path id="Trazado_134821" data-name="Trazado 134821" d="M224.35,87.6a5.45,5.45,0,0,0-1.51-.28c-.23,0-.46-.07-.5-.23a1.29,1.29,0,0,1,.16-.7l.71-1.81a29.852,29.852,0,0,0,1.58-4.71,31.707,31.707,0,0,0-2,4.57c-.23.64-.46,1.24-.67,1.82a1.37,1.37,0,0,0-.13.93.67.67,0,0,0,.39.35,2.169,2.169,0,0,0,.4,0,6.57,6.57,0,0,0,1.57.06Z" fill="#012739"/>
          <path id="Trazado_134822" data-name="Trazado 134822" d="M223.3,98.58a18.18,18.18,0,0,0,9.4-2.38s-2.47,5.11-9.2,4.47Z" fill="#ff9a6c"/>
          <path id="Trazado_134823" data-name="Trazado 134823" d="M227.48,89.56a1.76,1.76,0,0,0-1.22-.66,2,2,0,0,0-1.73.71h0a.36.36,0,0,0,0,.4,1.339,1.339,0,0,0,.31.32,4.27,4.27,0,0,0,1.37.82,1.31,1.31,0,0,0,1.4-.35,1.12,1.12,0,0,0-.13-1.24Z" fill="#ff9a6c"/>
          <path id="Trazado_134824" data-name="Trazado 134824" d="M227.08,88.25c-.15,0-.15,1-1,1.71s-1.93.6-1.94.74.24.19.69.21a2.58,2.58,0,0,0,1.62-.56,2.17,2.17,0,0,0,.79-1.44C227.26,88.49,227.15,88.24,227.08,88.25Z" fill="#012739"/>
          <path id="Trazado_134825" data-name="Trazado 134825" d="M227.17,77.41c.09.25,1,.13,2.1.27s2,.43,2.12.2-.09-.34-.45-.59a3.52,3.52,0,0,0-1.56-.55,3.59,3.59,0,0,0-1.65.19C227.33,77.09,227.13,77.29,227.17,77.41Z" fill="#012739"/>
          <path id="Trazado_134826" data-name="Trazado 134826" d="M218.6,77.77c.16.21.8,0,1.57,0s1.42.14,1.57-.08,0-.32-.32-.52a2.21,2.21,0,0,0-1.28-.35,2.26,2.26,0,0,0-1.25.42C218.62,77.45,218.53,77.67,218.6,77.77Z" fill="#012739"/>
          <path id="Trazado_134827" data-name="Trazado 134827" d="M212.92,104.45a3.3,3.3,0,0,1-.13-.4c-.08-.26-.18-.65-.29-1.17a21.5,21.5,0,0,1-.45-4.39A23.38,23.38,0,0,1,213,92a71.437,71.437,0,0,0,2-7.7c.41-2.79.3-5.51.65-8a12.27,12.27,0,0,1,2.28-6.1,7.15,7.15,0,0,1,3.62-2.49,4.2,4.2,0,0,1,1.61-.17,8.649,8.649,0,0,0-1.57.29,7.25,7.25,0,0,0-3.47,2.51,12.26,12.26,0,0,0-2.17,6c-.32,2.43-.2,5.14-.62,8a67.714,67.714,0,0,1-2.08,7.73,23.91,23.91,0,0,0-1,6.4,22.88,22.88,0,0,0,.34,4.36c.08.51.17.91.22,1.17a1.79,1.79,0,0,1,.11.45Z" fill="#375a64"/>
        </g>
        <path id="Trazado_134828" data-name="Trazado 134828" d="M222.12,68.68a1.65,1.65,0,0,1,.69-.94,9.56,9.56,0,0,1,7.3-1.67,17.16,17.16,0,0,1,7,3,12.65,12.65,0,0,1,4.5,4.86,16.28,16.28,0,0,1,1.09,4.59c.53,3.87,1.57,7.76,1.53,11.67a47.471,47.471,0,0,1,0,6c-.28,2-2.22,4.45-4.2,4.9l-4.45.44s2.41-8.31,2.22-11.31c-.16-2.63-.14-5.51-.43-8.12a1.53,1.53,0,0,0-.16-.59,1.44,1.44,0,0,0-.61-.47l-2.78-1.42a26.872,26.872,0,0,1-2.62-1.46,25,25,0,0,1-2.63-1.81c-1.2-1-2.3-1.85-3.51-2.88a14.321,14.321,0,0,1-2.18-2.61,3.56,3.56,0,0,1-.6-2.83" fill="#012739"/>
        <path id="Trazado_134829" data-name="Trazado 134829" d="M237.06,83.94a2,2,0,0,1,2.87-1.66,2.68,2.68,0,0,1,1.14,2.7c-.17,4-4.2,3-4.2,2.93S237,85.62,237.06,83.94Z" fill="#ffbf9d"/>
        <path id="Trazado_134830" data-name="Trazado 134830" d="M238.17,86.43s.07,0,.18.11a.71.71,0,0,0,.53,0,1.73,1.73,0,0,0,.87-1.53,2.26,2.26,0,0,0-.15-1,.8.8,0,0,0-.51-.56.37.37,0,0,0-.43.17c0,.11,0,.2,0,.2a.229.229,0,0,1-.05-.24.42.42,0,0,1,.17-.24.54.54,0,0,1,.4-.09,1,1,0,0,1,.71.66,2.58,2.58,0,0,1,.2,1.14,1.82,1.82,0,0,1-1.11,1.7.74.74,0,0,1-.64-.13C238.17,86.52,238.15,86.43,238.17,86.43Z" fill="#ff9a6c"/>
        <path id="Trazado_134831" data-name="Trazado 134831" d="M243.78,77.57A14,14,0,0,0,241,75.85a21.581,21.581,0,0,0-3.39-1.14c-1.31-.35-2.77-.66-4.28-1.13a21.73,21.73,0,0,1-7.11-3.74,17.821,17.821,0,0,1-1.82-1.63,4.73,4.73,0,0,1-.59-.67,5.372,5.372,0,0,1,.68.58c.43.38,1.06.92,1.87,1.54a23.42,23.42,0,0,0,7.07,3.6c1.49.46,2.95.79,4.26,1.16a19.67,19.67,0,0,1,3.41,1.21,9.71,9.71,0,0,1,2.07,1.31,4.869,4.869,0,0,1,.49.45Q243.8,77.56,243.78,77.57Z" fill="#375a64"/>
        <path id="Trazado_134832" data-name="Trazado 134832" d="M242.05,72.33c1.55,5,4.08,9.59,5.63,13.2A28.131,28.131,0,0,1,249.77,91c.37,2-.48,3.94-.94,5.88s-.4,4.35,1.22,5.53a13,13,0,0,1-7.65,2.76,2.39,2.39,0,0,1-1.49-.33.94.94,0,0,1-.23-1.35,6.64,6.64,0,0,1-8.42.87c-.18-2.16-.32-4.5.87-6.32,1-1.48,2.73-2.41,3.37-4.06.38-1-.12-2.23,0-3.27a5.29,5.29,0,0,1,1.17-2.58h0a5.13,5.13,0,0,0,5.47-3.78l.09-.32Z" fill="#012739"/>
        <path id="Trazado_134833" data-name="Trazado 134833" d="M241.07,101.33a1.921,1.921,0,0,1,.21-.41l.63-1.15a29.58,29.58,0,0,0,2-4.4,18,18,0,0,0,1-7,12.45,12.45,0,0,0-3.27-7.85,23.45,23.45,0,0,0-7.31-4.67,55.149,55.149,0,0,1-6.44-3.2,15,15,0,0,1-3.72-3.11,10.378,10.378,0,0,1-.78-1.06,3.5,3.5,0,0,1-.22-.4,14.1,14.1,0,0,0,1.1,1.38,16,16,0,0,0,3.74,3,56,56,0,0,0,6.45,3.12,23.11,23.11,0,0,1,7.42,4.72,12.66,12.66,0,0,1,3.34,8.06,17.8,17.8,0,0,1-1.1,7.1A27.229,27.229,0,0,1,242,99.84c-.29.49-.53.86-.7,1.12a1.93,1.93,0,0,1-.23.37Z" fill="#375a64"/>
      </g>
      <path id="Trazado_134834" data-name="Trazado 134834" d="M228.56,116.75a20.107,20.107,0,0,0,.64-2,9.17,9.17,0,0,0-2.73-9c-.93-.86-1.65-1.22-1.62-1.27a1.76,1.76,0,0,1,.51.23,7.59,7.59,0,0,1,1.25.88,9.14,9.14,0,0,1,2.75,4.19,9,9,0,0,1,0,5,7.67,7.67,0,0,1-.55,1.42,1.92,1.92,0,0,1-.25.55Z" fill="#012739"/>
      <g id="Grupo_82776" data-name="Grupo 82776">
        <path id="Trazado_134835" data-name="Trazado 134835" d="M217.8,156.43l13.24.29a1.13,1.13,0,0,1,1.1,1.17c-.28,6.56-1.48,39.11,1.22,39.62,3,.56,6.19-5.17,10.6-3.17s9.65,4.23,12.12,1.74,4.44-31.36-5.4-47.15l-31.29,1.79Z" fill="#32c4b4"/>
        <path id="Trazado_134836" data-name="Trazado 134836" d="M234.1,152.84a3,3,0,0,1-.65,0h-1.76c-1.49,0-3.55,0-5.81.15s-4.31.42-5.78.65l-1.75.28a2.77,2.77,0,0,1-.64.08,2.479,2.479,0,0,1,.62-.19c.41-.1,1-.23,1.73-.37a49.42,49.42,0,0,1,11.64-.81,13.742,13.742,0,0,1,1.76.13,2.281,2.281,0,0,1,.64.08Z" fill="#012739"/>
        <path id="Trazado_134837" data-name="Trazado 134837" d="M240.77,156.51a5.271,5.271,0,0,1-.92-.14c-.59-.12-1.43-.27-2.48-.45a79.364,79.364,0,0,0-8.25-1c-3.25-.22-6.18-.29-8.31-.26l-2.52.06a5.529,5.529,0,0,1-.93,0,5.5,5.5,0,0,1,.92-.11c.6-.06,1.46-.11,2.53-.16a74.635,74.635,0,0,1,8.33.17,73.221,73.221,0,0,1,8.27,1.13c1,.21,1.89.4,2.46.55a5.7,5.7,0,0,1,.9.21Z" fill="#012739"/>
        <path id="Trazado_134838" data-name="Trazado 134838" d="M246,168.13a4.15,4.15,0,0,1,0,.84c0,.6-.05,1.38-.09,2.31-.08,1.94-.12,4.63,0,7.59s.32,5.65.51,7.59c.1.92.19,1.69.25,2.29a4.45,4.45,0,0,1,.06.85,5.479,5.479,0,0,1-.18-.83c-.09-.54-.21-1.32-.33-2.29-.26-1.93-.51-4.62-.61-7.6s0-5.67.12-7.61c.06-1,.13-1.76.19-2.31a4.562,4.562,0,0,1,.08-.83Z" fill="#012739"/>
        <path id="Trazado_134839" data-name="Trazado 134839" d="M250.25,188.11c-.08,0-.62-5.83-1.21-13s-1-13-.93-13.06.63,5.83,1.22,13S250.34,188.1,250.25,188.11Z" fill="#012739"/>
      </g>
      <g id="Grupo_82777" data-name="Grupo 82777">
        <path id="Trazado_134840" data-name="Trazado 134840" d="M206.73,123.56l-1.14,1.51-.41-7.72-7.79-2.62s-1.84,19.42-1.56,22.44c.31,3.29.37,3.45,1.21,5,1.07,1.92,4.79,3.26,6.91,2.7s4.4-3.46,6.1-5.19c3.09-3.14,7.86-9.11,7.86-9.11Z" fill="#ffbf9d"/>
        <path id="Trazado_134841" data-name="Trazado 134841" d="M206.73,123.56a10.863,10.863,0,0,1-.85,1.29c-.55.79-1.29,1.88-2,3.12s-1.42,2.39-1.88,3.23a9.071,9.071,0,0,1-.78,1.34,7.25,7.25,0,0,1,.6-1.44,34.8,34.8,0,0,1,1.8-3.28c.78-1.25,1.55-2.33,2.14-3.09a6.51,6.51,0,0,1,.97-1.17Z" fill="#ff9a6c"/>
        <path id="Trazado_134842" data-name="Trazado 134842" d="M197.34,115.72l-3-1.72c-1.22-1-2.34-1.92-2.63-3.45h0l9.56,4.32c.71.32,4,1.71,4,3.09Z" fill="#ffbf9d"/>
      </g>
      <g id="Grupo_82778" data-name="Grupo 82778" opacity="0.2">
        <path id="Trazado_134843" data-name="Trazado 134843" d="M229.06,152.23c3.28-.07,6.55,0,9.82.15.66,0,1.53.3,1.5,1a.89.89,0,0,1-.65.75,2.65,2.65,0,0,1-1,0l-8.72-.9a35.592,35.592,0,0,0-5.36-.27,34.94,34.94,0,0,0-6.39,1.13l-.11-.71S227.21,152.28,229.06,152.23Z"/>
      </g>
    </g>
    <path id="Trazado_134844" data-name="Trazado 134844" d="M81.74,67H73l-1,2.42a5.23,5.23,0,0,0-.52,2,1.66,1.66,0,0,0,.84,1.54,7.08,7.08,0,0,0,2.44.44V74H66.42v-.68a3.67,3.67,0,0,0,2.2-1.11,14.7,14.7,0,0,0,2.12-3.74l8.89-19.83H80l9,20.38a12.2,12.2,0,0,0,2.11,3.64,2.85,2.85,0,0,0,1.76.66V74h-12v-.68h.5a3.75,3.75,0,0,0,2-.4,1,1,0,0,0,.41-.84,2.35,2.35,0,0,0-.11-.68,11,11,0,0,0-.55-1.38Zm-.63-1.36L77.41,57,73.6,65.6Z" fill="#35afea"/>
  </g>
</svg>
