<svg xmlns="http://www.w3.org/2000/svg" width="282.613" height="269.41" viewBox="0 0 282.613 269.41">
  <g id="Capa_1" data-name="Capa 1" transform="translate(-8.65 -26.55)">
    <g id="Grupo_80483" data-name="Grupo 80483">
      <path id="Trazado_120176" data-name="Trazado 120176" d="M227.74,28.32A1.77,1.77,0,1,1,226,26.55a1.77,1.77,0,0,1,1.74,1.77Z" fill="#e1e1e1"/>
      <path id="Trazado_120177" data-name="Trazado 120177" d="M237,147.53a2.167,2.167,0,0,1,0-.24q0-.27,0-.72V133.36c0-8.86,0-21.23-.05-35.34v.1L229.34,89l-3.4-4.11h0c0-15.73,0-29.74.05-39.84v0c0,10.1,0,24.11.05,39.84v-.1l3.39,4.11L237,98.07h0c0,14.11,0,26.48-.06,35.34v13.93C236.94,147.52,237,147.53,237,147.53Z" fill="#e1e1e1"/>
    </g>
    <g id="Grupo_80485" data-name="Grupo 80485">
      <g id="Grupo_80484" data-name="Grupo 80484">
        <path id="Trazado_120178" data-name="Trazado 120178" d="M261.39,141.26a9.609,9.609,0,0,1-1.81,1.9l.47,2.39-3.67,1.63-1.46-2a10,10,0,0,1-2.62.06l-1.35,2-3.75-1.45.35-2.4a9.549,9.549,0,0,1-1.89-1.81l-2.39.47-1.63-3.67,2-1.45a10,10,0,0,1-.07-2.62l-2-1.35,1.44-3.75,2.41.35a9.859,9.859,0,0,1,1.8-1.9l-.47-2.38,3.68-1.63,1.45,2a9.55,9.55,0,0,1,2.62-.07l1.35-2,3.75,1.45-.35,2.4a9.89,9.89,0,0,1,1.9,1.81l2.38-.47,1.63,3.67-2,1.45a10,10,0,0,1,.07,2.62l2,1.35-1.44,3.75-2.4-.35Zm-4.06-4.09a4.31,4.31,0,1,0-5.58,2.47,4.31,4.31,0,0,0,5.58-2.47Z" fill="none"/>
        <path id="Trazado_120179" data-name="Trazado 120179" d="M257.33,137.17a3.41,3.41,0,0,1-.47,1,4.27,4.27,0,0,1-2.33,1.71,4.5,4.5,0,0,1-2,.12,4.44,4.44,0,0,1-2.11-1,3.86,3.86,0,0,1-.83-1,4.14,4.14,0,0,1-.54-1.21,4.41,4.41,0,0,1,1.89-4.89,4.09,4.09,0,0,1,1.21-.54,3.92,3.92,0,0,1,1.26-.15,4.36,4.36,0,0,1,2.24.66,4.45,4.45,0,0,1,1.42,1.45,4.3,4.3,0,0,1,.58,2.83,3.391,3.391,0,0,1-.3,1,4.962,4.962,0,0,0,.2-1,4.234,4.234,0,0,0-4.13-4.71,4.13,4.13,0,0,0-1.2.16,3.76,3.76,0,0,0-1.14.51,4.22,4.22,0,0,0-1.65,2,4.15,4.15,0,0,0-.13,2.6,3.721,3.721,0,0,0,.5,1.15,3.88,3.88,0,0,0,.78.92,4.26,4.26,0,0,0,2,1,4.17,4.17,0,0,0,1.94-.08,4.27,4.27,0,0,0,2.3-1.6C257.18,137.52,257.3,137.15,257.33,137.17Z" fill="#e1e1e1"/>
        <path id="Trazado_120180" data-name="Trazado 120180" d="M261.39,141.26h.15l.45.05,1.81.25h-.05c.37-1,.85-2.23,1.43-3.76v.08l-2-1.35h0v-.05a9.89,9.89,0,0,0-.08-2.59h0l1.95-1.46v.11c-.52-1.16-1.06-2.39-1.64-3.67l.11.05-2.38.48h-.06a10,10,0,0,0-1.88-1.78h-.06v-.07c.11-.74.23-1.56.35-2.4l.07.12-3.75-1.44h.14c-.43.62-.89,1.32-1.36,2v.06h-.08a9.77,9.77,0,0,0-2.58.06h-.07l-.05-.05-1.45-1.95h.15l-3.68,1.63.07-.14.47,2.39v.07h-.06a9.63,9.63,0,0,0-1.78,1.87h0l-.12.05h-.3l-.3-.05-.61-.09-1.2-.17.14-.08c-.49,1.27-1,2.52-1.45,3.75v-.14l2,1.35h.06v.07a9.739,9.739,0,0,0,.07,2.59v.07h-.06l-1.95,1.45v-.15c.55,1.26,1.1,2.48,1.63,3.68l-.13-.07,2.38-.46h.07v.06a9.3,9.3,0,0,0,1.88,1.78h0v.07q-.18,1.23-.36,2.4l-.06-.11,3.75,1.45h-.12l1.36-2h.05a9.74,9.74,0,0,0,2.6,0H255l1.44,1.95h-.08l3.68-1.62v.07c-.19-1-.34-1.74-.46-2.39h0a9.468,9.468,0,0,0,1.42-1.37l.31-.37.11-.13a1,1,0,0,1-.09.14,4.207,4.207,0,0,1-.3.39,9,9,0,0,1-1.4,1.4h0l.48,2.38v.05h0l-3.66,1.64h-.06v-.05l-1.46-1.94h.08a10.08,10.08,0,0,1-2.65.07h.09l-1.35,2v.07h-.07L247.16,146h-.07v-.08c.11-.78.23-1.58.35-2.4v.1a10,10,0,0,1-1.92-1.83h.11l-2.39.48h-.09v-.08l-1.64-3.67v-.09h.07l2-1.46-.05.12a10.21,10.21,0,0,1-.07-2.65l.06.11-2-1.35-.08-.06v-.09c.48-1.23,1-2.48,1.45-3.75v-.09h.1l1.2.18.6.09h.49a10.11,10.11,0,0,1,1.82-1.92v.12l-.47-2.38v-.1h.09l3.68-1.62h.09l.05.07,1.45,2h-.11a9.89,9.89,0,0,1,2.65-.07h-.11l1.35-2,.06-.08h.08l3.75,1.45h.08V125c-.12.84-.25,1.66-.36,2.41v-.11a10.511,10.511,0,0,1,1.92,1.83h-.1l2.38-.47h.08v.07l1.62,3.68v.06h-.06L263.2,134v-.08a9.819,9.819,0,0,1,.06,2.64v-.07l2,1.36h0c-.59,1.52-1.09,2.78-1.46,3.74h0l-1.78-.28-.46-.07C261.44,141.28,261.39,141.27,261.39,141.26Z" fill="#e1e1e1"/>
      </g>
      <path id="Trazado_120181" data-name="Trazado 120181" d="M280.35,106.77a15.331,15.331,0,0,1-2.85,3l.74,3.76-5.79,2.57-2.29-3.1a15.9,15.9,0,0,1-4.14.1l-2.13,3.18L258,114l.55-3.79a15.271,15.271,0,0,1-3-2.85l-3.76.74-2.58-5.79,3.08-2.29a15.471,15.471,0,0,1-.11-4.14L249,93.78l2.28-5.92,3.79.56a15.28,15.28,0,0,1,2.85-3l-.74-3.77,5.8-2.57,2.29,3.08a15.409,15.409,0,0,1,4.13-.11l2.13-3.18,5.92,2.28L276.88,85a15.629,15.629,0,0,1,3,2.85l3.76-.74,2.57,5.8-3.07,2.29a15.829,15.829,0,0,1,.1,4.13l3.18,2.13-2.28,5.92-3.79-.56Zm-6.4-6.46a3.589,3.589,0,1,0,.05,0Z" fill="#ececec" fill-rule="evenodd"/>
    </g>
    <g id="Grupo_80486" data-name="Grupo 80486">
      <circle id="Elipse_5402" data-name="Elipse 5402" cx="1.82" cy="1.82" r="1.82" transform="translate(49.13 126.61)" fill="#e1e1e1"/>
      <path id="Trazado_120182" data-name="Trazado 120182" d="M51,186.25c-.09,0-.16-12.65-.16-28.25s.07-28.25.16-28.25.15,12.64.15,28.25S51,186.25,51,186.25Z" fill="#e1e1e1"/>
    </g>
    <g id="Grupo_80487" data-name="Grupo 80487">
      <path id="Trazado_120183" data-name="Trazado 120183" d="M119.07,40.73a1.83,1.83,0,1,1-1.82-1.82,1.83,1.83,0,0,1,1.82,1.82Z" fill="#e1e1e1"/>
      <path id="Trazado_120184" data-name="Trazado 120184" d="M117.25,156.82c-.09,0-.16-25.69-.16-57.38s.07-57.38.16-57.38.15,25.68.15,57.38S117.33,156.82,117.25,156.82Z" fill="#e1e1e1"/>
    </g>
    <g id="Grupo_80488" data-name="Grupo 80488">
      <path id="Trazado_120185" data-name="Trazado 120185" d="M21.75,108.78a1.95,1.95,0,1,1-.553-1.411,1.95,1.95,0,0,1,.553,1.411Z" fill="#e1e1e1"/>
      <path id="Trazado_120186" data-name="Trazado 120186" d="M19.91,108.78v17.75c0,11.18,0,26.94.06,45.3h0l-8.63,12v54.3L21.8,250.81h0V251c0,11.69,0,21.31-.06,28v0c0-6.7,0-16.32-.06-28v.08L11.17,238.37h0V183.74h0l8.64-11.95v.08c0-18.36,0-34.12.06-45.3V109.12A1.267,1.267,0,0,1,19.91,108.78Z" fill="#e1e1e1"/>
    </g>
    <g id="Grupo_80489" data-name="Grupo 80489">
      <circle id="Elipse_5403" data-name="Elipse 5403" cx="2.2" cy="2.2" r="2.2" transform="translate(156.57 79.61)" fill="#e1e1e1"/>
      <circle id="Elipse_5404" data-name="Elipse 5404" cx="2.2" cy="2.2" r="2.2" transform="translate(144.52 205.17)" fill="#e1e1e1"/>
      <path id="Trazado_120187" data-name="Trazado 120187" d="M159.09,81.81a1.573,1.573,0,0,1,0,.2V93.08c0,7.13,0,17.22.06,29.08v.06h-.05l-12.35,12.37v52.54c0,5.84,0,10.58-.05,13.87V134.41h0L159,122.06l-.05.1c0-11.86.05-22,.06-29.08V82A1.572,1.572,0,0,1,159.09,81.81Z" fill="#e1e1e1"/>
    </g>
    <g id="Grupo_80490" data-name="Grupo 80490">
      <path id="Trazado_120188" data-name="Trazado 120188" d="M93.17,206.17c-2.38-4.07-4.92-8.16-8.66-11.54-9.49-8.55-25.78-11.09-39.62-8C34.21,189,24.12,195,21.31,203.49c-1.26,3.83-1,7.87-.58,11.82,2.6,25.83,15.53,72.72,16,73.8l87.18-.35a252.829,252.829,0,0,0-30.74-82.59Z" fill="#375a64"/>
      <path id="Trazado_120189" data-name="Trazado 120189" d="M124,288.76l-.14-.67-.39-1.95c-.17-.85-.37-1.92-.63-3.17s-.59-2.69-1-4.31a251,251,0,0,0-7.78-27,262.548,262.548,0,0,0-16.92-38.08L95.72,211c-.49-.86-1-1.73-1.48-2.61-1-1.75-2-3.51-3.1-5.25a35.62,35.62,0,0,0-8.1-9.47,13.25,13.25,0,0,0-1.28-1c-.44-.3-.87-.62-1.33-.91-.93-.53-1.83-1.13-2.82-1.58l-1.46-.71-1.5-.63-.76-.31-.78-.27-1.56-.53a52,52,0,0,0-13.16-2.18,56.108,56.108,0,0,0-13.31,1.18,45.329,45.329,0,0,0-12.14,4.5,30.341,30.341,0,0,0-5.21,3.56,23.3,23.3,0,0,0-4.17,4.55c-.27.44-.56.85-.81,1.29s-.46.91-.69,1.35l-.55,1.41a14,14,0,0,0-.42,1.44,22.5,22.5,0,0,0-.54,5.88c.06,2,.23,3.89.47,5.78s.41,3.78.71,5.62c.52,3.68,1.14,7.24,1.76,10.68,1.25,6.87,2.63,13.23,3.91,19,2.61,11.59,5,20.91,6.66,27.34.84,3.21,1.51,5.7,2,7.39.23.84.41,1.48.54,1.91s.19.65.19.65-.08-.21-.23-.64l-.57-1.9c-.48-1.69-1.18-4.17-2-7.38-1.72-6.42-4.12-15.73-6.75-27.32-1.31-5.8-2.7-12.16-4-19-.63-3.43-1.25-7-1.77-10.68-.3-1.84-.49-3.72-.73-5.62s-.41-3.84-.47-5.81a23.15,23.15,0,0,1,.54-6,14.6,14.6,0,0,1,.43-1.47c.19-.47.37-.95.56-1.43l.7-1.37c.25-.45.55-.88.82-1.32a23.63,23.63,0,0,1,4.22-4.61,30.38,30.38,0,0,1,5.26-3.6,45.32,45.32,0,0,1,12.2-4.5,55.669,55.669,0,0,1,13.38-1.19,51.871,51.871,0,0,1,13.25,2.19l1.57.53.78.27.76.32,1.52.63,1.48.72c1,.45,1.9,1.06,2.84,1.6.46.29.89.61,1.34.91a13.578,13.578,0,0,1,1.29,1,35.83,35.83,0,0,1,8.17,9.55c1.09,1.75,2.1,3.51,3.09,5.27L96,210.81l1.41,2.6a259.219,259.219,0,0,1,16.88,38.15A242.472,242.472,0,0,1,122,278.63c.35,1.62.65,3.07.92,4.32s.44,2.32.6,3.18.28,1.51.36,2S124,288.76,124,288.76Z" fill="#1a2e35"/>
      <path id="Trazado_120190" data-name="Trazado 120190" d="M24.84,197.42v.24l-.1.71c-.08.63-.18,1.55-.26,2.75a47.61,47.61,0,0,0,.74,10.08c1.46,8.45,3.26,20.16,5.89,33,1.33,6.41,2.77,12.47,4.3,17.92s3.14,10.3,4.6,14.32,2.85,7.21,3.83,9.39L45,288.31l.29.65.09.23a122.738,122.738,0,0,1-5.56-12.71c-1.49-4-3.13-8.86-4.67-14.32s-3-11.52-4.33-17.93c-2.63-12.82-4.39-24.54-5.8-33a46.151,46.151,0,0,1-.64-10.13,23.631,23.631,0,0,1,.46-3.68Z" fill="#1a2e35"/>
      <path id="Trazado_120191" data-name="Trazado 120191" d="M36.13,218c0,.05-.61.19-1.55.53a14.93,14.93,0,0,0-3.47,1.81,18.07,18.07,0,0,0-3.83,4,5,5,0,0,1,.82-1.43,12.3,12.3,0,0,1,2.83-2.81,12.52,12.52,0,0,1,3.58-1.77A5.31,5.31,0,0,1,36.13,218Z" fill="#1a2e35"/>
      <path id="Trazado_120192" data-name="Trazado 120192" d="M32.69,223.85c0,.1-1.15.06-2.51.38s-2.38.83-2.42.75a5.06,5.06,0,0,1,2.35-1.06A5,5,0,0,1,32.69,223.85Z" fill="#1a2e35"/>
      <path id="Trazado_120193" data-name="Trazado 120193" d="M30.21,253.27a.846.846,0,0,1,.11-.37,1.52,1.52,0,0,1,1.67-.6c.23.07.34.18.32.22a2.809,2.809,0,0,0-1.14.11C30.58,252.86,30.29,253.31,30.21,253.27Z" fill="#1a2e35"/>
      <path id="Trazado_120194" data-name="Trazado 120194" d="M31.39,255.75c-.09,0,0-.62.53-1.07s1.18-.36,1.15-.28a8.216,8.216,0,0,0-1,.53C31.57,255.31,31.48,255.77,31.39,255.75Z" fill="#1a2e35"/>
    </g>
    <g id="Grupo_80508" data-name="Grupo 80508">
      <g id="Grupo_80493" data-name="Grupo 80493">
        <path id="Trazado_120195" data-name="Trazado 120195" d="M143.94,265.21s-1.95-47.67-3.74-55.93c-2.29-10.51-11.13-16.86-11.13-16.86l-3.39,82,3.52,2.11,2.08,1.09c.93,3.49-1,4.34,8.54,6.79.76.2,16,2.6,16,2.6l1.49-15.47Z" fill="#c78976"/>
        <g id="Grupo_80492" data-name="Grupo 80492">
          <path id="Trazado_120196" data-name="Trazado 120196" d="M169.93,286.45s-5.51.38-7.76,1.29a8.58,8.58,0,0,1-7.49-.91,21.51,21.51,0,0,1-3.24-2.54h-7.51a9,9,0,0,1-1.66-9.26,10.209,10.209,0,0,1,1.66-3c.87-1,1.27-1.56,3.69-2l9.95,1.51s13.79-1.28,16.27-.17c0,0,3.12,1.76,4.09,2.51.37.28,1.53,3.77-.67,5.65,0,0,2,1.51,1,2.93l-.49.63s1.35,1.67.69,2.43-6.49,4.34-8.62,3.56-.65-2.54.27-2.92" fill="#c78976"/>
          <path id="Trazado_120197" data-name="Trazado 120197" d="M175.71,276.56a7.721,7.721,0,0,0-.72.28c-.46.19-1.13.45-2,.74-.42.14-.88.29-1.38.43s-1,.27-1.62.47a3.54,3.54,0,0,0-1.6,1,2,2,0,0,0-.39,2,1.52,1.52,0,0,0,.75.77,2.54,2.54,0,0,0,1,.25,7.642,7.642,0,0,0,1.88-.14,16.877,16.877,0,0,0,3-.85c.83-.32,1.49-.62,2-.82a4,4,0,0,0,.69-.35,7.147,7.147,0,0,0-.73.26c-.46.18-1.13.45-2,.74a17.349,17.349,0,0,1-3,.8,8.4,8.4,0,0,1-1.82.12,2.3,2.3,0,0,1-.89-.23,1.25,1.25,0,0,1-.63-.65,1.77,1.77,0,0,1,.35-1.73,3.38,3.38,0,0,1,1.49-.95c.54-.19,1.09-.32,1.59-.48s1-.31,1.39-.47c.84-.31,1.51-.6,2-.81a3.482,3.482,0,0,0,.64-.38Z" fill="#bf654e"/>
          <path id="Trazado_120198" data-name="Trazado 120198" d="M175.1,272.32a5.761,5.761,0,0,0-.72.28c-.46.19-1.13.46-2,.76s-1.84.62-3,.92a4,4,0,0,0-1.73.74,1.57,1.57,0,0,0-.49.91,1.9,1.9,0,0,0,.17,1.05,2.58,2.58,0,0,0,1.57,1.28,4.17,4.17,0,0,0,1.88.11,17.7,17.7,0,0,0,3-.94l2-.74a4.868,4.868,0,0,0,.71-.3,5.4,5.4,0,0,0-.74.21l-2,.67a20.119,20.119,0,0,1-3,.87A3.86,3.86,0,0,1,169,278a2.31,2.31,0,0,1-1.41-1.15,1.38,1.38,0,0,1,.26-1.68,3.931,3.931,0,0,1,1.62-.7,28.406,28.406,0,0,0,3-1c.86-.34,1.49-.62,1.93-.83a4.381,4.381,0,0,0,.7-.32Z" fill="#bf654e"/>
          <path id="Trazado_120199" data-name="Trazado 120199" d="M172.29,273.6a7.459,7.459,0,0,0,.24-1.19,6.172,6.172,0,0,0,.27-1.18,2.16,2.16,0,0,0-.51,1.13A2,2,0,0,0,172.29,273.6Z" fill="#bf654e"/>
          <g id="Grupo_80491" data-name="Grupo 80491">
            <path id="Trazado_120200" data-name="Trazado 120200" d="M151.54,274.21l5.2-2.13s14.41-7.1,14.67-6.74,1,.31.9,2.09-8.54,5.53-8.79,6.15.25,3.72-2.83,6a10.73,10.73,0,0,1-5.35,2.39" fill="#c78976"/>
            <path id="Trazado_120201" data-name="Trazado 120201" d="M155.34,282h.13a2,2,0,0,0,.36,0,8.159,8.159,0,0,0,1.35-.36,11,11,0,0,0,2-.92,11.858,11.858,0,0,0,2.38-1.73,6.37,6.37,0,0,0,1.73-3.1,14,14,0,0,0,.26-2,1.32,1.32,0,0,1,.05-.23.37.37,0,0,1,.14-.14,3.439,3.439,0,0,1,.42-.29c.29-.18.6-.35.91-.53,1.25-.7,2.58-1.41,3.92-2.21.66-.41,1.34-.83,2-1.32a8.839,8.839,0,0,0,.93-.81,2.279,2.279,0,0,0,.39-.52,1.07,1.07,0,0,0,.12-.33v-.32a2.32,2.32,0,0,0-.25-1.26,1.54,1.54,0,0,0-.47-.45,1,1,0,0,1-.21-.17l-.05-.05h-.36c-.79.26-1.5.59-2.22.9-1.43.64-2.79,1.28-4.08,1.9-2.59,1.23-4.91,2.36-6.85,3.32l-1.39.68-1.27.53-2,.86L152,274l-.33.15-.11.06h.12l.34-.12,1.3-.51,2-.82,1.28-.51c.46-.2.91-.44,1.4-.67l6.87-3.28c1.3-.61,2.66-1.25,4.09-1.88.71-.31,1.44-.64,2.19-.89h.18v-.06h0c-.16.12,0,0-.08.07h0a1.05,1.05,0,0,0,.26.22,1.22,1.22,0,0,1,.4.38,2.1,2.1,0,0,1,.21,1.13,1,1,0,0,1-.11.54,2.15,2.15,0,0,1-.35.46,6.721,6.721,0,0,1-.9.78,22.432,22.432,0,0,1-2,1.31c-1.33.81-2.65,1.52-3.9,2.22-.31.18-.62.36-.92.55a3.111,3.111,0,0,0-.44.3.51.51,0,0,0-.2.23,1.568,1.568,0,0,0-.06.28,14.249,14.249,0,0,1-.25,1.94,6.21,6.21,0,0,1-1.65,3,12.121,12.121,0,0,1-2.32,1.73,13.264,13.264,0,0,1-2,.95,9.126,9.126,0,0,1-1.33.4l-.36.07Z" fill="#bf654e"/>
          </g>
          <path id="Trazado_120202" data-name="Trazado 120202" d="M171.41,282.33a1.891,1.891,0,0,0-.55.17,5.781,5.781,0,0,0-1.36.82,5.308,5.308,0,0,0-.78.79,1.67,1.67,0,0,0-.39,1.24,1.34,1.34,0,0,0,1,1,2.55,2.55,0,0,0,1.52-.08,27.218,27.218,0,0,0,4.79-2,14.235,14.235,0,0,0,1.34-.83,2.569,2.569,0,0,0,.45-.35,2.881,2.881,0,0,0-.5.27c-.32.19-.79.46-1.37.76a34.125,34.125,0,0,1-4.78,2,2.35,2.35,0,0,1-1.38.08,1.11,1.11,0,0,1-.84-.83,1.46,1.46,0,0,1,.34-1.08,4.879,4.879,0,0,1,.72-.77,8.332,8.332,0,0,1,1.79-1.19Z" fill="#bf654e"/>
        </g>
      </g>
      <g id="Grupo_80502" data-name="Grupo 80502">
        <g id="Grupo_80494" data-name="Grupo 80494">
          <path id="Trazado_120203" data-name="Trazado 120203" d="M63.88,142.48a1.94,1.94,0,0,1-.78-3.21c-1-.54-.7-2.1.07-2.91a23.242,23.242,0,0,0,2.47-2.27,2.3,2.3,0,0,1-2.75-2,2,2,0,0,1-2-1.26,1.94,1.94,0,0,1,.76-2.19c-1.06-.09-1-1.83-.09-2.41s2-.54,3-1a12.43,12.43,0,0,1,6.6-3.87l-4.31-3.21a2.42,2.42,0,0,1-.86-.91c-.38-.86.29-1.8,1-2.41a10.13,10.13,0,0,1,5.35-2.34c.63-.07,1.43,0,1.64.63a9,9,0,0,1,4.36-.49,3.47,3.47,0,0,1,2.32.71,6.9,6.9,0,0,0-1.53-1.93,2.94,2.94,0,0,1-1-2.18c.08-.82,1.07-1.53,1.75-1.07-.76-.36-.66-1.58,0-2.12a3.84,3.84,0,0,1,2.41-.61c.59,0,1.34.09,1.5.65a1.65,1.65,0,0,1,3-.24,2,2,0,0,1,2.94.23,2.63,2.63,0,0,1,3.71,1.38q-1.16-1.92-2.29-3.84c-.43-.72-.51-2.08.33-2-1.2,0-1.89-1.64-1.3-2.69a3.12,3.12,0,0,1,3.14-1.31l1.05,1.52a2.42,2.42,0,0,1,2.76,0,2.45,2.45,0,0,1,.88,2.63,1.22,1.22,0,0,1,1.81.36,3.53,3.53,0,0,1,.34,2.06,2,2,0,0,1,3.16,1.69,6.59,6.59,0,0,1,3.46-.72,2.34,2.34,0,0,1,3-3.33,2.3,2.3,0,0,1,3-1.87c.37-1.4,2.21-2.44,3.32-1.51s.53,2.8-.17,4.11l-2.3,4.29,7.48-4a1.29,1.29,0,0,1,.75-.22c.36,0,.61.37.94.53s1,.12,1.48.26c1.32.41,1.3,2.42.4,3.47s-2.29,1.54-3.32,2.47l3.33.62a3.39,3.39,0,0,1,4.38-2.29c.46-1.23,2.1-1.39,3.41-1.33a4.8,4.8,0,0,1,3.29,1,3.25,3.25,0,0,1,0,4.12,9.36,9.36,0,0,1-3.63,2.57c.23,1,1.52,1.3,2.53,1.15s2.05-.54,3-.18c1.29.49,1.84,2.16,3.14,2.64a5.19,5.19,0,0,1,1.19.39,2.37,2.37,0,0,1,.8,1.55c.16.72.33,1.44.49,2.16a2.63,2.63,0,0,1,.09,1.08c-.24,1.18-1.88,1.43-3,1s-2-1.33-3.24-1.51c1.56.78,3.21,1.64,4.09,3.15s.51,3.86-1.13,4.45-3.3-.84-4.51-2.13-2.95-2.65-4.56-1.92" fill="#1a2e35"/>
          <path id="Trazado_120204" data-name="Trazado 120204" d="M66.28,141.45a2.13,2.13,0,0,0-3.21,1.86A4.45,4.45,0,0,0,61.4,151c1,.83,2.93.86,3.14-.4A3.46,3.46,0,0,0,67,152.73a3.36,3.36,0,0,0,1.35,4.76,3.58,3.58,0,0,0,.62,5.93,2.74,2.74,0,1,0,5,2.23,5.85,5.85,0,0,0,1.82,2.74c.92.62,2.43.51,2.89-.5a3.76,3.76,0,0,0,5.36,2.26,2.44,2.44,0,0,0,4.79.84l6.26.48a22.359,22.359,0,0,0,4.17.06,11.07,11.07,0,0,0,5-1.8,3.84,3.84,0,0,1,1.53-.75,3.91,3.91,0,0,1,1.89.46,10.15,10.15,0,0,0,9.82-1.45,4.88,4.88,0,0,1,1.36-.9,4.51,4.51,0,0,1,1.87-.1,18.27,18.27,0,0,0,4.61-.26,4.87,4.87,0,0,0,3.39-1.83c.7-1.13.15-3-1.17-3.09a2.86,2.86,0,0,1,.9-2.32,1.71,1.71,0,0,1,2.33.1,1.23,1.23,0,0,1-.74,1.95c1.33,1.1,3.65-.08,3.83-1.8a3.39,3.39,0,0,0-3.12-3.45,7.85,7.85,0,0,0,.43-3.78,2.79,2.79,0,0,0,3.75.76,4.84,4.84,0,0,0,2.92,2.5,2.9,2.9,0,0,0,3.32-1.46,2.08,2.08,0,0,0-1.74-2.84,2.48,2.48,0,0,0-1.89-3.77,3.86,3.86,0,0,0-2-4.29,2,2,0,0,0,3-.87c.69,1.33,2.66,1.19,4,.55,1.06-.51,2.1-1.27,1.93-2.8a3,3,0,0,0-1-1.88c-1.24-1.17-3-1.39-4.6-1.57a20.17,20.17,0,0,1-1.39-6.41,3.86,3.86,0,0,0,4.19-2.78L132.6,122s-21-3.24-21.76-3.24-44.68,22.62-44.68,22.62c-1,1.06-3,.58-3.74-.69a4.06,4.06,0,0,1,.35-4.17,12,12,0,0,1,3.21-3A6,6,0,0,1,62,132.29a2.24,2.24,0,0,1-.61-2.43c.51-1.21,1.91-1.13,2.81-1.82a4.89,4.89,0,0,0,1.15-1.6" fill="#1a2e35"/>
        </g>
        <g id="Grupo_80499" data-name="Grupo 80499">
          <path id="Trazado_120205" data-name="Trazado 120205" d="M125,136.67c-.52-7.5-5.56-16.68-13-15.83L88.63,126.9a4.38,4.38,0,0,0-3.9,4.49l2.58,50.37-5.62,2.69c-.06,0,5.81,3.26,5.76,3.27s5.39,15.86,20.8,10.94c3.06-1,4.44-4.33,5-7.78h.16c0-.41,5.1-4.31,5.1-4.7,0,.39-5-2.84-5-2.84v-7.71c0,.04,9.59-1.63,11.49-14.19C126,155.21,125.56,145,125,136.67Z" fill="#c78976"/>
          <g id="Grupo_80498" data-name="Grupo 80498">
            <g id="Grupo_80497" data-name="Grupo 80497">
              <g id="Grupo_80495" data-name="Grupo 80495">
                <path id="Trazado_120206" data-name="Trazado 120206" d="M121.83,145.71a1.6,1.6,0,0,1-1.53,1.63,1.55,1.55,0,0,1-1.67-1.44,1.62,1.62,0,0,1,1.54-1.63,1.53,1.53,0,0,1,1.66,1.44Z" fill="#1a2e35"/>
                <path id="Trazado_120207" data-name="Trazado 120207" d="M122.8,142c-.19.21-1.42-.69-3.14-.67s-3,.89-3.18.68.11-.47.66-.88a4.4,4.4,0,0,1,2.54-.8,4.3,4.3,0,0,1,2.51.79C122.72,141.52,122.9,141.9,122.8,142Z" fill="#1a2e35"/>
              </g>
              <g id="Grupo_80496" data-name="Grupo 80496">
                <path id="Trazado_120208" data-name="Trazado 120208" d="M105.34,145.78a1.6,1.6,0,0,1-1.53,1.63,1.55,1.55,0,0,1-1.67-1.44,1.61,1.61,0,0,1,1.54-1.63,1.53,1.53,0,0,1,1.66,1.44Z" fill="#1a2e35"/>
                <path id="Trazado_120209" data-name="Trazado 120209" d="M105.83,142.43c-.19.21-1.42-.68-3.14-.66s-3,.89-3.18.68.11-.47.66-.88a4.4,4.4,0,0,1,2.54-.8,4.24,4.24,0,0,1,2.5.79C105.75,142,105.93,142.34,105.83,142.43Z" fill="#1a2e35"/>
              </g>
              <path id="Trazado_120210" data-name="Trazado 120210" d="M112.19,155.2a11.421,11.421,0,0,1,2.8-.53c.44,0,.86-.14.93-.44a2.23,2.23,0,0,0-.31-1.3l-1.32-3.35c-1.85-4.77-3.18-8.69-3-8.77s1.84,3.74,3.69,8.51c.44,1.17.86,2.29,1.27,3.36a2.56,2.56,0,0,1,.24,1.73,1.1,1.1,0,0,1-.72.65,2.72,2.72,0,0,1-.75.11,11.7,11.7,0,0,1-2.83.03Z" fill="#1a2e35"/>
              <path id="Trazado_120211" data-name="Trazado 120211" d="M113.52,175.62a31.88,31.88,0,0,1-16.79-4.35s4.13,8.56,16.64,7.31Z" fill="#bf654e"/>
              <path id="Trazado_120212" data-name="Trazado 120212" d="M112.39,159.09a4.37,4.37,0,0,0-3.59-1.9,2.64,2.64,0,0,0-2.22,4.13,2.72,2.72,0,0,0,2.87,1,6.38,6.38,0,0,0,2.57-1.62,2.07,2.07,0,0,0,.55-.66.91.91,0,0,0-.08-.9" fill="#bf654e"/>
              <path id="Trazado_120213" data-name="Trazado 120213" d="M107.11,156.42c.28,0,.3,1.86,1.91,3.18s3.61,1.1,3.63,1.36-.45.37-1.29.4a4.72,4.72,0,0,1-3-1,4.05,4.05,0,0,1-1.48-2.67C106.78,156.88,107,156.42,107.11,156.42Z" fill="#1a2e35"/>
            </g>
            <path id="Trazado_120214" data-name="Trazado 120214" d="M106.59,138.45c-.17.47-1.89.26-3.92.52s-3.66.82-3.93.4c-.12-.2.16-.65.82-1.11a6.87,6.87,0,0,1,6-.7C106.28,137.86,106.66,138.22,106.59,138.45Z" fill="#1a2e35"/>
            <path id="Trazado_120215" data-name="Trazado 120215" d="M122.14,137c-.31.4-1.5,0-2.93,0s-2.64.28-2.92-.13c-.12-.2.06-.59.59-1a4.26,4.26,0,0,1,4.71.12C122.1,136.41,122.27,136.81,122.14,137Z" fill="#1a2e35"/>
          </g>
        </g>
        <path id="Trazado_120216" data-name="Trazado 120216" d="M84.67,144.22a2.1,2.1,0,0,0,.6,2.4,1.45,1.45,0,0,0,2-.57c.54.73,1.8,0,1.63-1,.67.38,1.56-.53,1.35-1.38.78.3,1.25-1,1.66-1.81a14.2,14.2,0,0,1,.81-1.3,8.75,8.75,0,0,0,1.3-4.72c1-1.16,1.29-3,1.5-4.62l.39-3.11.58-.72A1.7,1.7,0,0,0,97.66,129a3.67,3.67,0,0,0,1.89,0l1.86-.35,1.16.34a4.7,4.7,0,0,0,.33,3,3,3,0,0,0,1.07,1.7.88.88,0,0,0,1.23-.94,1,1,0,0,0,1.51-.23,3.18,3.18,0,0,0,.43-1.92,8.2,8.2,0,0,0-1.47-4.52l3.22,3a1.55,1.55,0,0,0,.79.49.85.85,0,0,0,.9.94,2.25,2.25,0,0,0,1.21-.8c.79-.83,1.63-2.23.93-3.17a.69.69,0,0,0,.31-1l3.66,2.81c-.36-.22-.77.35-.69.83a2,2,0,0,0,.76,1.09,2.88,2.88,0,0,0-.43,1.74c-.66-.6-1.65.5-1.45,1.45a2.07,2.07,0,0,0,1.94,1.52,1.45,1.45,0,0,0,1.64-1.06c.8.17,1.59-.93,1.3-1.85.58.4,1.1-.65,1.13-1.44a11.21,11.21,0,0,0-.62-4.27c0,.21.21.38.35.27a.32.32,0,0,0-.05-.49c.68,1.69,1.36,3.37,2.05,5.06a11.73,11.73,0,0,1,1.11,4.2c0,.6.08,1.43.58,1.49a.71.71,0,0,0,.4-.11A7.53,7.53,0,0,0,128,133a5.46,5.46,0,0,0,.51-1.77c.12-1.3-.41-2.55-.5-3.84a13.778,13.778,0,0,0-.1-1.71,5.24,5.24,0,0,0-1.32-2.24c-2-2.3-4-4.67-6.7-5.6-1.62-.57-3.35-.56-5-1.12a28.258,28.258,0,0,1-2.91-1.35c-4-1.88-8.42-2.14-12.71-1.79a20.37,20.37,0,0,0-7,1.64,24.72,24.72,0,0,0-6.63,5.06,37.83,37.83,0,0,0-7.8,10.44A18.4,18.4,0,0,0,76,141.07c.51,3.54,2.7,6.87,5.66,7.61l1.17-1.34" fill="#1a2e35"/>
        <g id="Grupo_80500" data-name="Grupo 80500">
          <path id="Trazado_120217" data-name="Trazado 120217" d="M88.09,146.62c-.17-.08-7-2.24-6.9,4.74s7.06,5.49,7.07,5.29S88.09,146.62,88.09,146.62Z" fill="#c78976"/>
          <path id="Trazado_120218" data-name="Trazado 120218" d="M86.1,154a3.268,3.268,0,0,1-.32.18,1.25,1.25,0,0,1-.91,0,3,3,0,0,1-1.42-2.69,4.11,4.11,0,0,1,.33-1.75,1.39,1.39,0,0,1,.9-.94.61.61,0,0,1,.72.33c.1.19.06.33.09.34s.15-.11.09-.4a.78.78,0,0,0-.28-.44.92.92,0,0,0-.67-.17,1.69,1.69,0,0,0-1.26,1.1,4.21,4.21,0,0,0-.41,1.95,3.17,3.17,0,0,0,1.81,3,1.3,1.3,0,0,0,1.11-.2C86.09,154.19,86.13,154,86.1,154Z" fill="#bf654e"/>
        </g>
        <g id="Grupo_80501" data-name="Grupo 80501">
          <path id="Trazado_120219" data-name="Trazado 120219" d="M110.93,144.48a12.8,12.8,0,0,0-.31-2,8.23,8.23,0,0,0-6.46-6,8.1,8.1,0,0,0-4.27.37,7.729,7.729,0,0,0-2.06,1.1,7.84,7.84,0,0,0-1.72,1.73,8.12,8.12,0,0,0,0,9.6A7.63,7.63,0,0,0,97.83,151a7.49,7.49,0,0,0,2.06,1.11A8.16,8.16,0,0,0,107.6,151a8.25,8.25,0,0,0,3-4.48,12.81,12.81,0,0,0,.31-2,2.671,2.671,0,0,1,0,.53,4,4,0,0,1,0,.64,5.411,5.411,0,0,1-.16.87,8.17,8.17,0,0,1-3,4.63,8.33,8.33,0,0,1-7.94,1.24,7.641,7.641,0,0,1-2.14-1.14,8,8,0,0,1-1.79-1.78,8.49,8.49,0,0,1-1.64-5,8.4,8.4,0,0,1,1.65-5,8,8,0,0,1,1.78-1.79,8.19,8.19,0,0,1,2.14-1.14,8.33,8.33,0,0,1,7.94,1.24,8.19,8.19,0,0,1,3,4.64,5.509,5.509,0,0,1,.16.86,4.05,4.05,0,0,1,0,.64A2.671,2.671,0,0,1,110.93,144.48Z" fill="#375a64"/>
          <path id="Trazado_120220" data-name="Trazado 120220" d="M130.64,144.48a16,16,0,0,0-.32-2,8.23,8.23,0,0,0-6.46-6,8.11,8.11,0,0,0-4.27.37,7.891,7.891,0,0,0-2.06,1.1,7.8,7.8,0,0,0-1.71,1.73A8.158,8.158,0,0,0,127.3,151a8.25,8.25,0,0,0,3-4.48,15.93,15.93,0,0,0,.32-2,3.542,3.542,0,0,1,0,.53,3.08,3.08,0,0,1,0,.64,5.3,5.3,0,0,1-.15.87,8.411,8.411,0,1,1-14.92-7.05,7.8,7.8,0,0,1,1.79-1.79,8,8,0,0,1,2.13-1.14,8.352,8.352,0,0,1,11,5.88,5.379,5.379,0,0,1,.15.86,3.13,3.13,0,0,1,0,.64A3.54,3.54,0,0,1,130.64,144.48Z" fill="#375a64"/>
          <path id="Trazado_120221" data-name="Trazado 120221" d="M114.44,142.54c0,.09-.83-.24-1.87-.27s-1.85.23-1.88.14a3.67,3.67,0,0,1,3.75.13Z" fill="#375a64"/>
          <path id="Trazado_120222" data-name="Trazado 120222" d="M94.32,145.3a13.89,13.89,0,0,1-3.49.89,13.2,13.2,0,0,1-3.59.25c0-.09,1.59-.25,3.54-.56S94.29,145.22,94.32,145.3Z" fill="#375a64"/>
          <path id="Trazado_120223" data-name="Trazado 120223" d="M110.06,143.18a4.58,4.58,0,0,1-.08,1.56,10,10,0,0,1-1.37,3.52A8.66,8.66,0,0,1,106,151a2,2,0,0,1-1.53.34,4,4,0,0,0,1.41-.53,9.54,9.54,0,0,0,2.49-2.69,11.47,11.47,0,0,0,1.42-3.39C110,143.77,110,143.18,110.06,143.18Z" fill="#fff"/>
          <path id="Trazado_120224" data-name="Trazado 120224" d="M128.08,148.5a11.474,11.474,0,0,1,.67-1.31,6.561,6.561,0,0,0,.55-1.45,4.92,4.92,0,0,0,0-1.88,9.92,9.92,0,0,0-1-3.33c-.43-.79-.86-1.17-.82-1.21s.14.07.33.24a5.07,5.07,0,0,1,.68.85,8.77,8.77,0,0,1,1.1,3.4,4.77,4.77,0,0,1-.06,2,5.75,5.75,0,0,1-.63,1.49A5.19,5.19,0,0,1,128.08,148.5Z" fill="#fff"/>
        </g>
        <path id="Trazado_120225" data-name="Trazado 120225" d="M83.16,156.41a2.447,2.447,0,0,0-.45.29,2.21,2.21,0,0,0-.8,1.17,2,2,0,0,0,.42,1.95,2.36,2.36,0,0,0,2.32.68,2.52,2.52,0,0,0,1.26-3.83,3.17,3.17,0,0,0-1.06-1c-.3-.17-.49-.22-.48-.25a1.33,1.33,0,0,1,.54.14,3,3,0,0,1,1.19.95,2.73,2.73,0,0,1,.49,2.21,2.8,2.8,0,0,1-1.85,2.05,2.62,2.62,0,0,1-2.63-.79,2.18,2.18,0,0,1-.53-1.13,2.36,2.36,0,0,1,.12-1.08,2.24,2.24,0,0,1,.94-1.2C83,156.41,83.16,156.39,83.16,156.41Z" fill="#375a64"/>
        <path id="Trazado_120226" data-name="Trazado 120226" d="M112.13,124.45a1.75,1.75,0,0,0,.47-.9,1.22,1.22,0,0,0-.31-1,1.33,1.33,0,0,0-1.34-.34l-.29.09.13-.28a1.39,1.39,0,0,0-.37-1.55,1.36,1.36,0,0,0-1.74.06l-.23-.21a.52.52,0,0,0,.1-.18.76.76,0,0,0-.11-.65.85.85,0,0,0-.57-.36,1.51,1.51,0,0,0-.7,0,2,2,0,0,1-.78.17c-.34-.06-.48-.31-.65-.42a2.8,2.8,0,0,0-.54-.33,3.09,3.09,0,0,0-2.75.13c-.35.2-.51.37-.53.35a1.35,1.35,0,0,1,.46-.45,3,3,0,0,1,1.7-.51,3.08,3.08,0,0,1,1.22.24,2.67,2.67,0,0,1,.61.35c.2.15.35.34.52.35a1.83,1.83,0,0,0,.66-.17,1.85,1.85,0,0,1,.85,0,1.22,1.22,0,0,1,.76.49,1.08,1.08,0,0,1,.15.93.84.84,0,0,1-.15.28l-.23-.21a1.6,1.6,0,0,1,2.56,1.82l-.16-.18a1.54,1.54,0,0,1,1.58.45,1.39,1.39,0,0,1,.31,1.23,1.45,1.45,0,0,1-.39.71A.9.9,0,0,1,112.13,124.45Z" fill="#375a64"/>
        <path id="Trazado_120227" data-name="Trazado 120227" d="M119.93,126.47a2.05,2.05,0,0,0,.6-.87,1.58,1.58,0,0,0-.07-1.18,1.64,1.64,0,0,0-1.23-.9H119l.16-.17a2,2,0,0,0,.53-1.7,1,1,0,0,0-.63-.71.83.83,0,0,0-.92.12l-.89,1,.65-1.13a1.61,1.61,0,0,0,.08-1.36,1.49,1.49,0,0,0-1.07-.93,1.63,1.63,0,0,0-1,.11l-.36.18.15-.38c.21-.54-.34-1.16-.88-1.23a2.65,2.65,0,0,0-1.66.41l-.3.16.1-.33a1.15,1.15,0,0,0-.38-1.11,2.12,2.12,0,0,0-1.07-.48,5.51,5.51,0,0,0-2,0,9.21,9.21,0,0,0-1.68.6,1.3,1.3,0,0,1,.39-.27,5.43,5.43,0,0,1,1.26-.5,5.31,5.31,0,0,1,2.08-.11,2.33,2.33,0,0,1,1.21.51,1.41,1.41,0,0,1,.47,1.39l-.2-.16a2.88,2.88,0,0,1,1.84-.46,1.44,1.44,0,0,1,.92.54,1.16,1.16,0,0,1,.2,1.11l-.22-.2a1.89,1.89,0,0,1,1.26-.13,1.8,1.8,0,0,1,1.3,1.12,1.93,1.93,0,0,1-.12,1.63l-.24-.19a1.14,1.14,0,0,1,1.26-.18,1.32,1.32,0,0,1,.78.91,2.18,2.18,0,0,1-.63,1.94l-.07-.2a1.79,1.79,0,0,1,1.37,1,1.73,1.73,0,0,1-.45,2C120,126.44,119.94,126.48,119.93,126.47Z" fill="#375a64"/>
        <path id="Trazado_120228" data-name="Trazado 120228" d="M136.75,127.93a1.19,1.19,0,0,0-.4-.86,1.58,1.58,0,0,0-1-.37,4.61,4.61,0,0,0-1.49.35l-.17.07v-.19a1.36,1.36,0,0,0-1.1-1.32,3.91,3.91,0,0,0-2.22.36l-1,.36.84-.62a1.11,1.11,0,0,0-.08-1.6,2.55,2.55,0,0,0-2-.46h-.09l-.62.06.52-.35a1.19,1.19,0,0,0-.14-1.89,1.81,1.81,0,0,0-2,.2l-.65.5.43-.69a2.73,2.73,0,0,0,0-2.75,2.53,2.53,0,0,0-1.86-1.18,2.72,2.72,0,0,0-1.47.19,5.09,5.09,0,0,0-.49.24l.1-.1a1.751,1.751,0,0,1,.35-.23,2.86,2.86,0,0,1,1.53-.28,2.7,2.7,0,0,1,2,1.23,2.93,2.93,0,0,1,0,3l-.21-.19a2.09,2.09,0,0,1,2.35-.23,1.52,1.52,0,0,1,.68,1.15,1.33,1.33,0,0,1-.54,1.26l-.1-.29h.1a2.77,2.77,0,0,1,2.19.55,1.54,1.54,0,0,1,.47,1,1.14,1.14,0,0,1-.42,1l-.14-.26a4.18,4.18,0,0,1,2.39-.34,1.6,1.6,0,0,1,1.26,1.61l-.15-.12a4.44,4.44,0,0,1,1.57-.32,1.61,1.61,0,0,1,1.12.46,1.13,1.13,0,0,1,.35.69C136.79,127.85,136.76,127.93,136.75,127.93Z" fill="#375a64"/>
        <path id="Trazado_120229" data-name="Trazado 120229" d="M127.94,111.92a.92.92,0,0,1-.41.15,5.46,5.46,0,0,1-1.23.06,3.61,3.61,0,0,0-1.75.27,1.11,1.11,0,0,0-.62.76.81.81,0,0,0,.32.92l-.21.15c-.07-.4-.57-.66-1-.92a5.21,5.21,0,0,0-1.47-.64,1.94,1.94,0,0,0-1.5.23,1.3,1.3,0,0,0-.65,1.16v.39l-.29-.26a3.43,3.43,0,0,0-2-.84,3.93,3.93,0,0,0-1.76.25,5.08,5.08,0,0,0-1.35.86,1.25,1.25,0,0,1,.26-.34,3.41,3.41,0,0,1,1-.69,3.91,3.91,0,0,1,1.84-.33,3.74,3.74,0,0,1,2.24.87l-.25.13a1.56,1.56,0,0,1,.77-1.46,2.23,2.23,0,0,1,1.73-.28,5.57,5.57,0,0,1,1.57.68,7.15,7.15,0,0,1,.68.44,1.22,1.22,0,0,1,.47.71v.3l-.26-.15a1.09,1.09,0,0,1-.45-1.24,1.4,1.4,0,0,1,.77-.93,3.7,3.7,0,0,1,1.88-.22,7.12,7.12,0,0,0,1.2,0A1.147,1.147,0,0,0,127.94,111.92Z" fill="#375a64"/>
        <path id="Trazado_120230" data-name="Trazado 120230" d="M112.34,105.87a3.94,3.94,0,0,0-.83.12,2.12,2.12,0,0,0-.79.5,1.74,1.74,0,0,0-.5,1.06v.17l-.16-.06a1,1,0,0,0-1.16.65,3.26,3.26,0,0,0-.06,1.74l.1.61-.38-.5-.06-.08a1.33,1.33,0,0,0-1.09-.45,1.5,1.5,0,0,0-1,.45,2.36,2.36,0,0,0-.63,1.85,4.8,4.8,0,0,0,.35,1.37,2.85,2.85,0,0,1,.2.49,2.213,2.213,0,0,1-.31-.44,3.93,3.93,0,0,1-.46-1.39,2.56,2.56,0,0,1,.65-2.09,1.75,1.75,0,0,1,2.56,0l.08.1-.29.11a3.36,3.36,0,0,1,.1-1.91,1.31,1.31,0,0,1,1.51-.77l-.17.11a1.9,1.9,0,0,1,.61-1.19,2.18,2.18,0,0,1,.9-.49,1.7,1.7,0,0,1,.65,0A.284.284,0,0,1,112.34,105.87Z" fill="#375a64"/>
        <path id="Trazado_120231" data-name="Trazado 120231" d="M98.58,115.43a1.427,1.427,0,0,1-.42-.09,2.78,2.78,0,0,1-1-.67,2.83,2.83,0,0,1-.71-1.58,1.43,1.43,0,0,0-.21-.86c-.18-.22-.57-.36-.8-.73a1.58,1.58,0,0,1,.4-2.12v.23a5.1,5.1,0,0,1-1.34-1.87,1.84,1.84,0,0,1-.22-.86s.13.3.37.78a5.5,5.5,0,0,0,1.38,1.73l.15.12-.17.11a1.3,1.3,0,0,0-.3,1.71c.16.27.51.39.77.7a1.6,1.6,0,0,1,.27,1,2.69,2.69,0,0,0,.59,1.46A4,4,0,0,0,98.58,115.43Z" fill="#375a64"/>
        <path id="Trazado_120232" data-name="Trazado 120232" d="M94.53,118.2a.79.79,0,0,1-.27,0,4,4,0,0,1-.75-.07,4.17,4.17,0,0,1-2.32-1.32h.2a2.65,2.65,0,0,1-1.85,1,2.83,2.83,0,0,1-1.18-.13,1.75,1.75,0,0,1-1-.79c-.07-.17-.08-.34-.12-.45a.61.61,0,0,0-.2-.3,2,2,0,0,0-.73-.32,2.56,2.56,0,0,1-.81-.33.93.93,0,0,1-.45-.78l.2.14a2.83,2.83,0,0,1-1.92,0,3,3,0,0,1-1.26-.8,2.38,2.38,0,0,1-.52-.81.77.77,0,0,1-.08-.33,3.94,3.94,0,0,0,.72,1,3,3,0,0,0,1.21.69,2.56,2.56,0,0,0,1.74-.08l.21-.09v.23a.6.6,0,0,0,.33.51,2.18,2.18,0,0,0,.73.28,2.17,2.17,0,0,1,.84.38,1,1,0,0,1,.3.44,4.088,4.088,0,0,0,.11.42,1.42,1.42,0,0,0,.82.62,2.49,2.49,0,0,0,1,.13,2.45,2.45,0,0,0,1.67-.84l.11-.12.1.12a4.27,4.27,0,0,0,2.19,1.4C94.16,118.18,94.53,118.16,94.53,118.2Z" fill="#375a64"/>
        <path id="Trazado_120233" data-name="Trazado 120233" d="M69.64,127.89v-.11a1.65,1.65,0,0,1,0-.33,3.44,3.44,0,0,1,.15-1.25,7.219,7.219,0,0,1,.85-1.77,6.521,6.521,0,0,1,.7-1,1.82,1.82,0,0,1,.55-.42.84.84,0,0,1,.77,0l-.2.13a2.1,2.1,0,0,1,3.42-1.82l-.25.12a1.41,1.41,0,0,1,1.93-1.35,1.51,1.51,0,0,1,.62.47l-.29.11a.91.91,0,0,1,.33-.74,1.32,1.32,0,0,1,.72-.3,2.78,2.78,0,0,1,1.34.35L80,120a2.31,2.31,0,0,1,1.37-1,3.09,3.09,0,0,1,1.54,0,7.9,7.9,0,0,1,2.38,1.18l-.17.14a.54.54,0,0,1,.07-.55.91.91,0,0,1,.39-.29,1.57,1.57,0,0,1,.84-.13,4.64,4.64,0,0,1,1.25.38,3.879,3.879,0,0,1,.71.42,1,1,0,0,1,.22.19,5.19,5.19,0,0,0-1-.49,4.88,4.88,0,0,0-1.22-.32,1.49,1.49,0,0,0-.74.13c-.24.11-.44.34-.33.57l.17.35-.33-.21a8.33,8.33,0,0,0-2.32-1.11,2.93,2.93,0,0,0-1.41,0,1.92,1.92,0,0,0-1.18.83l-.07.11h-.12a2.54,2.54,0,0,0-1.2-.32c-.38,0-.79.34-.75.7v.56l-.34-.45a1.12,1.12,0,0,0-1.52-.24,1.16,1.16,0,0,0-.46.92v.34l-.27-.21a1.8,1.8,0,0,0-3,1.55v.26l-.22-.13c-.34-.2-.75.08-1,.36a6.82,6.82,0,0,0-.7,1,7.491,7.491,0,0,0-.88,1.7A4.23,4.23,0,0,0,69.64,127.89Z" fill="#375a64"/>
        <path id="Trazado_120234" data-name="Trazado 120234" d="M71.4,137.12a.979.979,0,0,1-.16-.2,5.291,5.291,0,0,1-.37-.63,2.27,2.27,0,0,1-.25-1.16,1.62,1.62,0,0,1,.24-.72,1.17,1.17,0,0,1,.69-.53l-.07.17a1.48,1.48,0,0,1,1.58-2.26l-.15.23a1.19,1.19,0,0,1,0-1.41A1.76,1.76,0,0,1,74.3,130h.71a.6.6,0,0,0,.44-.37,2.56,2.56,0,0,1,.4-.68,1.33,1.33,0,0,1,.75-.41,7.339,7.339,0,0,1,1.68,0,1.82,1.82,0,0,0,1.36-.4,6.227,6.227,0,0,0,.43-.6,1.6,1.6,0,0,1,.64-.49,1.65,1.65,0,0,1,1.47.08l-.18.19a1.24,1.24,0,0,1,.17-1.45,1.78,1.78,0,0,1,1.18-.58,5.69,5.69,0,0,1,2.06.25,7.22,7.22,0,0,1,1.24.5,1.489,1.489,0,0,1,.4.25,15.655,15.655,0,0,0-1.68-.59,5.8,5.8,0,0,0-2-.19,1.56,1.56,0,0,0-1,.52,1,1,0,0,0-.14,1.14l.33.5-.52-.3a1.37,1.37,0,0,0-1.22,0,1.25,1.25,0,0,0-.51.4,6.351,6.351,0,0,1-.45.63,1.6,1.6,0,0,1-.75.42,3.379,3.379,0,0,1-.83.08,7.791,7.791,0,0,0-1.61,0,1,1,0,0,0-.59.31,2.41,2.41,0,0,0-.36.62.88.88,0,0,1-.66.53,4.551,4.551,0,0,1-.74,0,1.49,1.49,0,0,0-1.12.5.89.89,0,0,0-.07,1.05l.25.33-.39-.1a1.25,1.25,0,0,0-1.35.55,1.28,1.28,0,0,0,0,1.31l.09.13h-.16a1.2,1.2,0,0,0-.81,1.05,2.27,2.27,0,0,0,.19,1.09A9.154,9.154,0,0,1,71.4,137.12Z" fill="#375a64"/>
        <path id="Trazado_120235" data-name="Trazado 120235" d="M71.93,156.32a.79.79,0,0,1-.31-.1,2.24,2.24,0,0,1-1.25-1.9,2.41,2.41,0,0,1,.65-1.76v.17a4.34,4.34,0,0,1-.82-1.57,1.76,1.76,0,0,1,.07-1,1.28,1.28,0,0,1,.75-.78v.28a1.83,1.83,0,0,1-.79-1.65,2,2,0,0,1,.32-1,1.71,1.71,0,0,1,.82-.65c.3-.13.44-.27.45-.58a2.47,2.47,0,0,1,.21-.92,3.21,3.21,0,0,1,1.18-1.26c.42-.31.81-.6,1.19-.85a5.1,5.1,0,0,1,1.92-.9,1.86,1.86,0,0,1,.58-.05h.2a2.924,2.924,0,0,0-.75.14,5.69,5.69,0,0,0-1.83,1l-1.16.88a2.93,2.93,0,0,0-1.06,1.17,2.2,2.2,0,0,0-.18.83.92.92,0,0,1-.17.52,1.23,1.23,0,0,1-.44.31,1.63,1.63,0,0,0-.33,2.78l.27.17-.3.11a1.27,1.27,0,0,0-.64,1.44,4.49,4.49,0,0,0,.75,1.48l.07.09-.08.07a2.21,2.21,0,0,0-.62,1.57,2.12,2.12,0,0,0,.43,1.25,3.139,3.139,0,0,0,.87.71Z" fill="#375a64"/>
        <path id="Trazado_120236" data-name="Trazado 120236" d="M81.8,148.12a1.52,1.52,0,0,1-.43-.09,4.1,4.1,0,0,1-1.11-.58A4.36,4.36,0,0,1,79,146a1.76,1.76,0,0,1-.21-1.22.82.82,0,0,1,.48-.53.65.65,0,0,1,.77.13l-.23.14a2.09,2.09,0,0,1-.22-1.21,1,1,0,0,1,.38-.6.85.85,0,0,1,.72-.1,1.16,1.16,0,0,0,.55.07c.11,0,.13-.18.12-.41a1.93,1.93,0,0,1,.54-1.34,2.07,2.07,0,0,1,2.1-.63l-.2.18a1.79,1.79,0,0,1,.32-1.74,1.12,1.12,0,0,1,.86-.27.83.83,0,0,1,.7.52h-.27a4.4,4.4,0,0,1,.54-2.3,4.6,4.6,0,0,1,1.18-1.38,4.159,4.159,0,0,1,1-.58,1.76,1.76,0,0,1,.4-.1,6.769,6.769,0,0,0-1.32.8,4.78,4.78,0,0,0-1.08,1.37,4.19,4.19,0,0,0-.46,2.17l.08,1.15-.35-1.09c-.12-.38-.78-.43-1.09-.12a1.51,1.51,0,0,0-.23,1.45l.07.28-.27-.1a1.76,1.76,0,0,0-1.81.54,1.59,1.59,0,0,0-.45,1.11,1.23,1.23,0,0,1,0,.37.48.48,0,0,1-.31.34,1.36,1.36,0,0,1-.72-.06.53.53,0,0,0-.48.05.71.71,0,0,0-.26.41,1.89,1.89,0,0,0,.19,1.05l.29.76-.53-.62c-.21-.25-.73,0-.79.3a1.44,1.44,0,0,0,.17,1,4.26,4.26,0,0,0,1.15,1.45,6.33,6.33,0,0,0,1.47.88Z" fill="#375a64"/>
        <path id="Trazado_120237" data-name="Trazado 120237" d="M97.61,128.67a2.36,2.36,0,0,1-.94-.38,2.65,2.65,0,0,1-.84-.73,1.73,1.73,0,0,1-.31-1.37,1.62,1.62,0,0,1,.13-.33l.06.21a1.48,1.48,0,0,1-.77-1,1.39,1.39,0,0,1,.2-1c.35-.51.75-.56.75-.52a1.931,1.931,0,0,0-.57.63,1.25,1.25,0,0,0-.11.85,1.28,1.28,0,0,0,.65.82l.14.07-.08.15a1.06,1.06,0,0,0-.09.25,1.48,1.48,0,0,0,.24,1.13,2.68,2.68,0,0,0,.72.71C97.29,128.44,97.63,128.62,97.61,128.67Z" fill="#375a64"/>
        <path id="Trazado_120238" data-name="Trazado 120238" d="M105,125.27a2,2,0,0,0,.22-1.15,1.32,1.32,0,0,0-.74-1,1.41,1.41,0,0,0-1.51.23l-.2.19v-.27a2.47,2.47,0,0,0-.36-.93,1.18,1.18,0,0,0-.79-.56c-.5-.07-1.07.39-.93.81l-.3.06a2.36,2.36,0,0,0-2.21-2.09,3.64,3.64,0,0,0-1.32.24,1.11,1.11,0,0,1,.31-.21,2.37,2.37,0,0,1,1-.22,2.49,2.49,0,0,1,1.51.5,2.7,2.7,0,0,1,1,1.75l-.3.06a.89.89,0,0,1,.31-.92,1.28,1.28,0,0,1,1-.3,1.49,1.49,0,0,1,1,.71,2.69,2.69,0,0,1,.39,1l-.25-.09a1.66,1.66,0,0,1,1.82-.24,1.55,1.55,0,0,1,.64,2.12C105.05,125.21,105,125.28,105,125.27Z" fill="#375a64"/>
      </g>
      <g id="Grupo_80505" data-name="Grupo 80505">
        <path id="Trazado_120239" data-name="Trazado 120239" d="M135.85,233.38l9.21-3.81a124.178,124.178,0,0,0-5.51-22.67c-3.31-9.15-8.75-13.26-10.45-14.37v-.11l-2.75-1.66-11.82-7.61c2.08,9.45-14.84,19.15-29.23-1.14l-23.79,9.61L67.7,259l-5.89,29.79,59.51-.17v.57l12.67-.12-2.71-13.22c1.18-12.72,5-28.16,4.52-38.36C135.86,236.2,135.88,234.82,135.85,233.38Z" fill="#32d2c2"/>
        <g id="Grupo_80503" data-name="Grupo 80503">
          <path id="Trazado_120240" data-name="Trazado 120240" d="M133.19,259.86a2.491,2.491,0,0,0,.14-.47c.09-.35.2-.81.35-1.39s.32-1.35.49-2.21.4-1.85.57-2.95.4-2.3.57-3.59.33-2.69.49-4.15c.26-2.93.44-6.16.44-9.56s-.2-6.63-.48-9.56c-.16-1.46-.3-2.85-.5-4.15s-.38-2.49-.58-3.59-.4-2.08-.58-2.94-.35-1.61-.51-2.21-.26-1-.35-1.39a3.288,3.288,0,0,0-.14-.48,2.22,2.22,0,0,0,.08.5c.07.35.17.81.29,1.4s.3,1.35.45,2.21.37,1.85.54,2.95.38,2.29.54,3.59.31,2.68.47,4.14c.26,2.92.44,6.14.45,9.53s-.17,6.61-.42,9.53c-.14,1.46-.27,2.85-.45,4.14s-.35,2.5-.53,3.59-.36,2.08-.52,2.95-.31,1.61-.44,2.22-.22,1-.29,1.4a2.27,2.27,0,0,0-.08.49Z" fill="#1a2e35"/>
          <path id="Trazado_120241" data-name="Trazado 120241" d="M133.33,259.39a1.139,1.139,0,0,1,0,.3l-.16.87c-.15.75-.35,1.83-.58,3.18a65.072,65.072,0,0,0-1,10.58,47.878,47.878,0,0,0,.36,5.83,43.773,43.773,0,0,0,.86,4.7c.14.67.32,1.26.46,1.78s.27,1,.39,1.34l.25.84a1.429,1.429,0,0,1,.07.3,1,1,0,0,1-.13-.28l-.31-.83c-.13-.35-.29-.8-.44-1.32s-.35-1.11-.51-1.77a42.892,42.892,0,0,1-.93-4.72,46.323,46.323,0,0,1-.38-5.87,59.059,59.059,0,0,1,1.06-10.62c.26-1.35.49-2.43.68-3.17l.21-.85A1.081,1.081,0,0,1,133.33,259.39Z" fill="#1a2e35"/>
        </g>
        <path id="Trazado_120242" data-name="Trazado 120242" d="M37.78,238.85,50,203.94s3.22-10.29,12.89-12.83L69.79,226l-3.2,19.1Z" fill="#32d2c2"/>
        <path id="Trazado_120243" data-name="Trazado 120243" d="M72.17,216.88a1.07,1.07,0,0,1,0,.29,3,3,0,0,1-.09.84c-.07.72-.21,1.77-.42,3.06-.4,2.58-1.12,6.11-2,10S68,238.45,67.47,241c-.25,1.23-.46,2.26-.62,3l-.18.82a2,2,0,0,1-.08.28v-.29a7.83,7.83,0,0,1,.12-.83c.11-.73.29-1.77.53-3,.47-2.56,1.22-6.09,2.09-10s1.63-7.39,2.09-10c.23-1.28.41-2.32.52-3l.14-.83A1.24,1.24,0,0,1,72.17,216.88Z" fill="#1a2e35"/>
        <path id="Trazado_120244" data-name="Trazado 120244" d="M117.09,185.27a2.289,2.289,0,0,1,0,.46c0,.16,0,.34,0,.56a5.045,5.045,0,0,1-.13.76c-.05.28-.16.59-.26.93a8.26,8.26,0,0,1-.44,1.06,9.1,9.1,0,0,1-1.57,2.31,16.26,16.26,0,0,1-6.06,3.94,17.26,17.26,0,0,1-8.77,1,21.16,21.16,0,0,1-8.33-3,30.47,30.47,0,0,1-5.55-4.65,44.327,44.327,0,0,1-3.18-3.7c-.35-.45-.62-.81-.8-1.06a2.49,2.49,0,0,1-.25-.39,4.219,4.219,0,0,1,.3.35l.84,1c.74.88,1.81,2.15,3.25,3.62a30.58,30.58,0,0,0,5.55,4.55A21,21,0,0,0,99.84,196a17.12,17.12,0,0,0,8.62-1,16.29,16.29,0,0,0,6-3.82A9.171,9.171,0,0,0,116,189a8.211,8.211,0,0,0,.46-1c.11-.33.2-.63.28-.91l.16-.74a1.164,1.164,0,0,1,.08-.55,3.568,3.568,0,0,1,.11-.53Z" fill="#fafafa"/>
        <g id="Grupo_80504" data-name="Grupo 80504" opacity="0.3">
          <path id="Trazado_120245" data-name="Trazado 120245" d="M66.28,263.86c3.61-4.28,4-10.34,4.13-15.94.22-7.08.06-15.25.28-22.33-1.31,6.27-3.29,15.91-4.27,19.54,0,0,.47,3.7.5,5.15s-.09,2.77,0,4.09c.32,3.4.86,7.16-1.11,10"/>
        </g>
        <path id="Trazado_120246" data-name="Trazado 120246" d="M134.28,218.43l-.16.06-.45.15-1.77.55c-.77.24-1.72.52-2.83.8s-2.35.66-3.76,1-2.94.7-4.6,1-3.45.64-5.33.95c-3.76.57-7.93,1.05-12.31,1.31s-8.59.22-12.4.07c-1.9-.1-3.71-.19-5.39-.36s-3.26-.32-4.69-.5-2.71-.38-3.84-.55-2.1-.34-2.89-.5L72,222l-.47-.1h0l.48.07,1.83.3c.79.14,1.76.3,2.89.45s2.42.36,3.85.5,3,.34,4.68.46,3.49.23,5.39.33c3.8.13,8,.14,12.36-.1s8.53-.72,12.29-1.28c1.88-.3,3.66-.58,5.32-.92s3.2-.65,4.6-1,2.66-.65,3.77-.92,2.06-.53,2.83-.75l1.79-.49.47-.12A.969.969,0,0,1,134.28,218.43Z" fill="#fafafa"/>
        <path id="Trazado_120247" data-name="Trazado 120247" d="M140.88,210.88a25.12,25.12,0,0,1-3.24,2.19,26.078,26.078,0,0,1-3.41,1.92,22.478,22.478,0,0,1,3.24-2.19,25.359,25.359,0,0,1,3.41-1.92Z" fill="#fafafa"/>
        <path id="Trazado_120248" data-name="Trazado 120248" d="M71.53,220.22a6.333,6.333,0,0,1-1-.06,25.048,25.048,0,0,1-2.75-.32,75.13,75.13,0,0,1-9-1.79,74.148,74.148,0,0,1-8.69-2.84c-1.09-.43-2-.8-2.55-1.07a5.679,5.679,0,0,1-.91-.45,6.591,6.591,0,0,1,1,.33c.61.24,1.49.58,2.59,1,2.19.81,5.24,1.84,8.69,2.75s6.61,1.5,8.91,1.87c1.15.19,2.09.33,2.73.42a4.739,4.739,0,0,1,.98.16Z" fill="#fafafa"/>
      </g>
      <g id="Grupo_80507" data-name="Grupo 80507">
        <g id="Grupo_80506" data-name="Grupo 80506">
          <path id="Trazado_120249" data-name="Trazado 120249" d="M88.83,268l9.25.19s13.88-5,16.73-4.53c2.57.43,12,6.68,13.82,7.91a1.26,1.26,0,0,1,.45.57h0A2,2,0,0,1,128,274.7l-.19.08.08.28a3.19,3.19,0,0,1,.14,1.12,1.36,1.36,0,0,1-2.52.59l.36.63a1.61,1.61,0,0,1,.2.84v.57a1.52,1.52,0,0,1-1.06,1.38h0a1.52,1.52,0,0,1-1.61-.42c-1.2-1.31-3.77-3.94-5.52-4.23a40.1,40.1,0,0,0-5.69-.29,1.92,1.92,0,0,0-1.79,1.23h0c1,.08,8.24,3.84,10.79,5.18a2.76,2.76,0,0,1,1.49,2.06c.09.79-.31,1.63-1.89,1.26a69.758,69.758,0,0,1-9.49-3.59s-3.15-.9-5.19.54c-2.87,2-4.18,2.76-6.64,1.94a20.812,20.812,0,0,1-4.28-2l-8.9.51S81.58,274.34,88.83,268Z" fill="#c78976"/>
          <path id="Trazado_120250" data-name="Trazado 120250" d="M110.25,270.52c0,.06,1-.26,2.61-.36A13.47,13.47,0,0,1,124.08,275c1,1.24,1.49,2.16,1.54,2.13a3.54,3.54,0,0,0-.31-.64,11.721,11.721,0,0,0-1.09-1.61A13,13,0,0,0,112.85,270a11.087,11.087,0,0,0-1.92.32A4.291,4.291,0,0,0,110.25,270.52Z" fill="#bf654e"/>
          <path id="Trazado_120251" data-name="Trazado 120251" d="M111.72,267.15a10.54,10.54,0,0,1,9,1.32,25,25,0,0,1,5.08,4.3c.57.6,1,1.1,1.4,1.48a4.124,4.124,0,0,0,.53.53,4.232,4.232,0,0,0-.46-.6c-.3-.37-.75-.9-1.33-1.54a23.631,23.631,0,0,0-5.09-4.4,11.51,11.51,0,0,0-6.45-1.74,7.439,7.439,0,0,0-2,.37,3.844,3.844,0,0,0-.52.19Z" fill="#bf654e"/>
        </g>
        <path id="Trazado_120252" data-name="Trazado 120252" d="M41.32,239.62c0-.06-4.81,21.64-5.44,25.46-.73,4.46-2,15.31,8,17.43s51.22-.62,51.22-.62l3-13.71-37.82-5.37,4.13-18.16Z" fill="#c78976"/>
      </g>
    </g>
    <g id="Grupo_80514" data-name="Grupo 80514">
      <g id="Grupo_80512" data-name="Grupo 80512">
        <g id="Grupo_80509" data-name="Grupo 80509">
          <path id="Trazado_120253" data-name="Trazado 120253" d="M42.54,61.2c0-1.85,1-3,2.31-3s2.32,1.1,2.32,3-1,3-2.32,3S42.54,63.05,42.54,61.2Zm4,0c0-1.55-.7-2.4-1.71-2.4s-1.7.85-1.7,2.4.69,2.41,1.7,2.41,1.73-.86,1.73-2.41Z" fill="#1a2e35"/>
          <path id="Trazado_120254" data-name="Trazado 120254" d="M48,61.2c0-1.85,1-3,2.31-3s2.32,1.1,2.32,3-1,3-2.32,3S48,63.05,48,61.2Zm4,0c0-1.55-.7-2.4-1.71-2.4s-1.71.85-1.71,2.4.7,2.41,1.71,2.41,1.76-.86,1.76-2.41Z" fill="#1a2e35"/>
          <path id="Trazado_120255" data-name="Trazado 120255" d="M55.1,58.3v5.8h-.59V58.83H53.14V58.3Z" fill="#1a2e35"/>
          <path id="Trazado_120256" data-name="Trazado 120256" d="M56.49,61.2c0-1.85,1-3,2.31-3s2.32,1.1,2.32,3-1,3-2.32,3S56.49,63.05,56.49,61.2Zm4,0c0-1.55-.7-2.4-1.71-2.4s-1.71.85-1.71,2.4.7,2.41,1.71,2.41,1.73-.86,1.73-2.41Z" fill="#1a2e35"/>
          <path id="Trazado_120257" data-name="Trazado 120257" d="M63.56,58.3v5.8H63V58.83H61.6V58.3Z" fill="#1a2e35"/>
        </g>
        <g id="Grupo_80510" data-name="Grupo 80510">
          <path id="Trazado_120258" data-name="Trazado 120258" d="M36.83,69.43c0-1.84,1-3,2.31-3s2.32,1.11,2.32,3-1,3-2.32,3S36.83,71.28,36.83,69.43Zm4,0c0-1.55-.7-2.4-1.71-2.4s-1.71.85-1.71,2.4.7,2.41,1.71,2.41,1.73-.84,1.73-2.41Z" fill="#1a2e35"/>
          <path id="Trazado_120259" data-name="Trazado 120259" d="M42.31,69.43c0-1.84,1-3,2.32-3s2.32,1.11,2.32,3-1,3-2.32,3S42.31,71.28,42.31,69.43Zm4,0c0-1.55-.7-2.4-1.71-2.4s-1.71.85-1.71,2.4.7,2.41,1.71,2.41,1.74-.84,1.74-2.41Z" fill="#1a2e35"/>
          <path id="Trazado_120260" data-name="Trazado 120260" d="M49.39,66.53v5.81h-.6V67.06H47.43v-.53Z" fill="#1a2e35"/>
          <path id="Trazado_120261" data-name="Trazado 120261" d="M50.77,69.43c0-1.84,1-3,2.32-3s2.32,1.11,2.32,3-1,3-2.32,3S50.77,71.28,50.77,69.43Zm4,0c0-1.55-.7-2.4-1.71-2.4s-1.71.85-1.71,2.4.7,2.41,1.71,2.41S54.8,71,54.8,69.43Z" fill="#1a2e35"/>
          <path id="Trazado_120262" data-name="Trazado 120262" d="M57.85,66.53v5.81h-.59V67.06H55.89v-.53Z" fill="#1a2e35"/>
          <path id="Trazado_120263" data-name="Trazado 120263" d="M60.84,66.53v5.81h-.59V67.06H58.88v-.53Z" fill="#1a2e35"/>
          <path id="Trazado_120264" data-name="Trazado 120264" d="M62.23,69.43c0-1.84,1-3,2.31-3s2.32,1.11,2.32,3-1,3-2.32,3S62.23,71.28,62.23,69.43Zm4,0c0-1.55-.7-2.4-1.71-2.4s-1.71.85-1.71,2.4.7,2.41,1.71,2.41,1.73-.84,1.73-2.41Z" fill="#1a2e35"/>
          <path id="Trazado_120265" data-name="Trazado 120265" d="M69.3,66.53v5.81h-.59V67.06H67.34v-.53Z" fill="#1a2e35"/>
        </g>
        <g id="Grupo_80511" data-name="Grupo 80511">
          <path id="Trazado_120266" data-name="Trazado 120266" d="M42.54,77.4c0-1.85,1-3,2.31-3s2.33,1.11,2.33,3-1,2.95-2.33,2.95S42.54,79.24,42.54,77.4Zm4,0c0-1.55-.69-2.41-1.71-2.41s-1.7.86-1.7,2.41.69,2.4,1.7,2.4,1.73-.8,1.73-2.4Z" fill="#1a2e35"/>
          <path id="Trazado_120267" data-name="Trazado 120267" d="M49.62,74.49V80.3H49V75H47.65v-.53Z" fill="#1a2e35"/>
          <path id="Trazado_120268" data-name="Trazado 120268" d="M52.61,74.49V80.3H52V75H50.64v-.53Z" fill="#1a2e35"/>
          <path id="Trazado_120269" data-name="Trazado 120269" d="M55.6,74.49V80.3H55V75H53.64v-.53Z" fill="#1a2e35"/>
          <path id="Trazado_120270" data-name="Trazado 120270" d="M57,77.4c0-1.85,1-3,2.32-3s2.32,1.11,2.32,3-1,2.95-2.32,2.95S57,79.24,57,77.4Zm4,0c0-1.55-.69-2.41-1.7-2.41s-1.71.86-1.71,2.41.7,2.4,1.71,2.4S61,79,61,77.4Z" fill="#1a2e35"/>
          <path id="Trazado_120271" data-name="Trazado 120271" d="M64.06,74.49V80.3h-.6V75H62.1v-.53Z" fill="#1a2e35"/>
        </g>
      </g>
      <g id="Grupo_80513" data-name="Grupo 80513">
        <path id="Trazado_120272" data-name="Trazado 120272" d="M75.74,90.36a4.146,4.146,0,0,0-.76.1,3.35,3.35,0,0,0-1.76,1,3.23,3.23,0,0,0-.7,1.22,2.9,2.9,0,0,0,0,1.6,3.08,3.08,0,0,0,5.73.66,2.78,2.78,0,0,0,.36-1.56,3.28,3.28,0,0,0-.4-1.35,3.44,3.44,0,0,0-1.47-1.41c-.45-.21-.73-.24-.73-.27a.66.66,0,0,1,.21,0h.24a1.77,1.77,0,0,1,.31.12,3.4,3.4,0,0,1,2,2.83,3,3,0,0,1-.37,1.67,3.45,3.45,0,0,1-1.33,1.35A3.06,3.06,0,0,1,73.3,96a3.42,3.42,0,0,1-1-1.61,3,3,0,0,1,0-1.72,3.4,3.4,0,0,1,.77-1.28,3.33,3.33,0,0,1,1.86-1,1.48,1.48,0,0,1,.34,0,1,1,0,0,1,.24,0A.55.55,0,0,1,75.74,90.36Z" fill="#1a2e35"/>
        <path id="Trazado_120273" data-name="Trazado 120273" d="M79.13,76.69a1.959,1.959,0,0,1,.07-.42c.07-.28.13-.68.24-1.2a5.73,5.73,0,0,1,.17-.89c.06-.33.07-.69.11-1.08l.13-1.27a5.39,5.39,0,0,0,0-.7v-.75A24.57,24.57,0,0,0,78.82,63a25.65,25.65,0,0,0-4.52-8.71l-.87-1.08a13.478,13.478,0,0,0-1-1l-.5-.52a6.261,6.261,0,0,0-.53-.5l-1.13-1c-.2-.16-.38-.33-.58-.48l-.63-.43-1.27-.87c-.43-.28-.91-.51-1.37-.78l-.69-.38-.35-.19L65,47a23.88,23.88,0,0,0-3-1.21c-.53-.16-1.06-.35-1.61-.48L58.68,45a8.276,8.276,0,0,1-.84-.16L57,44.72c-.58,0-1.16-.13-1.74-.16a28.52,28.52,0,0,0-3.57.12l-.91.09h-.45l-.45.09L48,45.27c-.6.15-1.19.35-1.79.53-.29.1-.6.17-.89.29l-.88.36A27.919,27.919,0,0,0,41,48.12l-1.62,1.07-.41.27-.39.3-.76.62-.77.62-.71.69-.72.69-.35.35-.33.38c-.43.51-.86,1-1.3,1.54l-1.15,1.67a25.52,25.52,0,0,0-4,15.71c.07.68.13,1.35.2,2l.39,2,.11.49.14.48.29,1,.29.94.37.92.38.91.19.45.23.43.9,1.72a29.291,29.291,0,0,0,2.21,3.13l.59.74c.2.24.43.45.65.68.44.44.86.91,1.31,1.33l1.41,1.19.35.29.37.26.75.52a27.6,27.6,0,0,0,3.07,1.83c.53.26,1.08.47,1.61.7l.79.34c.27.11.55.18.82.27l1.63.51c.54.15,1.1.23,1.64.35a24.48,24.48,0,0,0,3.24.45h3.15l1.53-.15.76-.08.74-.14,1.45-.29a5.529,5.529,0,0,0,.7-.18l.7-.21c.45-.14.91-.27,1.35-.42L64.11,94a25.8,25.8,0,0,0,8.15-5.45l.77-.75c.22-.27.45-.53.67-.79l.64-.75.31-.38.26-.38,1-1.47c.31-.48.55-1,.81-1.41l.36-.65a4.579,4.579,0,0,0,.31-.63l.51-1.17c.15-.36.31-.69.42-1s.19-.61.28-.87c.16-.51.29-.9.37-1.17l.14-.39a1.161,1.161,0,0,1-.11.4l-.36,1.18c-.08.26-.16.55-.26.87s-.27.64-.42,1-.32.75-.49,1.17a4.181,4.181,0,0,1-.31.64l-.36.65c-.26.45-.49.94-.8,1.42l-1,1.48-.27.39c-.09.13-.2.25-.31.38l-.64.76-.67.8-.76.76a25.7,25.7,0,0,1-8.19,5.5l-1.29.54c-.44.15-.9.28-1.36.42l-.7.21a5.28,5.28,0,0,1-.71.19l-1.46.29-.74.15-.77.07-1.54.16H52.41a24.691,24.691,0,0,1-3.27-.45c-.55-.12-1.11-.2-1.65-.35l-1.64-.51c-.28-.09-.56-.16-.83-.27l-.8-.34c-.54-.24-1.09-.45-1.63-.71A25.67,25.67,0,0,1,39.5,91.7l-.76-.52-.38-.26-.35-.3-1.42-1.2c-.46-.42-.88-.89-1.33-1.33-.21-.23-.45-.44-.65-.69l-.6-.75a29.711,29.711,0,0,1-2.23-3.15c-.3-.58-.61-1.15-.91-1.74l-.23-.43-.2-.46-.37-.92L29.69,79l-.3-1-.29-1-.1-.43-.11-.49-.39-2-.21-2a25.8,25.8,0,0,1,4.08-15.86l1.17-1.68L34.81,53c.11-.12.21-.26.32-.38l.36-.35.72-.7.72-.7.78-.62.77-.62.39-.31.41-.27,1.64-1.08a29.23,29.23,0,0,1,3.48-1.68l.88-.37c.29-.12.6-.19.9-.29.61-.17,1.2-.38,1.81-.53l1.82-.36.46-.09.45-.05.91-.09a27.32,27.32,0,0,1,3.61-.11c.59,0,1.17.11,1.76.16l.87.09a4.9,4.9,0,0,1,.85.16l1.68.35c.55.13,1.09.32,1.62.48a25.2,25.2,0,0,1,3.08,1.19l.37.16.36.2.7.38c.46.27.94.5,1.37.78l1.28.88.63.44.58.48,1.14,1a4.22,4.22,0,0,1,.53.5l.51.52,1,1,.87,1.09A25.75,25.75,0,0,1,79,63a24.75,24.75,0,0,1,1,7.39q0,.39,0,.75a4,4,0,0,1,0,.7c-.05.46-.09.88-.14,1.27s-.07.76-.12,1.09-.13.62-.19.89l-.25,1.2A2.635,2.635,0,0,0,79.13,76.69Z" fill="#1a2e35"/>
      </g>
    </g>
    <g id="Grupo_80518" data-name="Grupo 80518">
      <g id="Grupo_80515" data-name="Grupo 80515">
        <rect id="Rectángulo_34766" data-name="Rectángulo 34766" width="115.81" height="71.72" transform="translate(154.94 141.01)" fill="#fafafa"/>
        <path id="Trazado_120274" data-name="Trazado 120274" d="M270.75,212.73V193.29c0-12.44,0-30.35-.06-52.28l.12.12H155.01l.16-.15V212.7l-.15-.15,83.36.07h.07l-83.46.07h-.14V140.67H270.92V141c0,22-.05,39.9-.06,52.36v18.09A5.735,5.735,0,0,1,270.75,212.73Z" fill="#1a2e35"/>
      </g>
      <path id="Trazado_120275" data-name="Trazado 120275" d="M270.69,148c0,.09-25.87.16-57.78.16s-57.79-.07-57.79-.16,25.87-.15,57.79-.15S270.69,147.92,270.69,148Z" fill="#1a2e35"/>
      <g id="Grupo_80516" data-name="Grupo 80516">
        <path id="Trazado_120276" data-name="Trazado 120276" d="M161.1,144.84a1,1,0,1,1-.95-.688A1,1,0,0,1,161.1,144.84Z" fill="#1a2e35"/>
        <path id="Trazado_120277" data-name="Trazado 120277" d="M164.53,144.84a1,1,0,1,1-.95-1,.95.95,0,0,1,.95,1Z" fill="#1a2e35"/>
        <circle id="Elipse_5405" data-name="Elipse 5405" cx="0.95" cy="0.95" r="0.95" transform="translate(166.07 143.89)" fill="#1a2e35"/>
      </g>
      <g id="Grupo_80517" data-name="Grupo 80517">
        <path id="Trazado_120278" data-name="Trazado 120278" d="M167.57,160.84l-2.75,1.06,2.75,1.06v.64l-3.47-1.37v-.67l3.47-1.37Z" fill="#1a2e35"/>
        <path id="Trazado_120279" data-name="Trazado 120279" d="M170.44,158.08h.67l-2.56,7.3h-.67Z" fill="#1a2e35"/>
        <path id="Trazado_120280" data-name="Trazado 120280" d="M174.81,161.56v.67l-3.47,1.37V163l2.76-1.06-2.76-1.06v-.65Z" fill="#1a2e35"/>
        <path id="Trazado_120281" data-name="Trazado 120281" d="M175.69,164.12a.52.52,0,0,1,.53-.53.51.51,0,0,1,.51.53.52.52,0,0,1-.51.54.53.53,0,0,1-.53-.54Z" fill="#1a2e35"/>
        <path id="Trazado_120282" data-name="Trazado 120282" d="M177.45,164.12a.52.52,0,0,1,.53-.53.51.51,0,0,1,.51.53.52.52,0,0,1-.51.54.53.53,0,0,1-.53-.54Z" fill="#1a2e35"/>
        <path id="Trazado_120283" data-name="Trazado 120283" d="M179.21,164.12a.52.52,0,0,1,.53-.53.51.51,0,0,1,.51.53.52.52,0,0,1-.51.54.53.53,0,0,1-.53-.54Z" fill="#1a2e35"/>
      </g>
      <path id="Trazado_120284" data-name="Trazado 120284" d="M240.7,171.08c0,.08-17.12.15-38.23.15s-38.24-.07-38.24-.15,17.12-.16,38.24-.16S240.7,171,240.7,171.08Z" fill="#32d2c2"/>
      <path id="Trazado_120285" data-name="Trazado 120285" d="M253.19,171.3a42.291,42.291,0,0,1-7.35,0,42.291,42.291,0,0,1,7.35,0Z" fill="#1a2e35"/>
      <path id="Trazado_120286" data-name="Trazado 120286" d="M263.93,171.3a50.461,50.461,0,0,1-8,0,50.463,50.463,0,0,1,8,0Z" fill="#1a2e35"/>
      <path id="Trazado_120287" data-name="Trazado 120287" d="M212.93,177.52c0,.09-10.88.16-24.3.16s-24.31-.07-24.31-.16,10.88-.16,24.31-.16S212.93,177.43,212.93,177.52Z" fill="#32d2c2"/>
      <path id="Trazado_120288" data-name="Trazado 120288" d="M212.58,201.56c0,.09-10.88.16-24.3.16s-24.31-.07-24.31-.16,10.88-.16,24.31-.16S212.58,201.47,212.58,201.56Z" fill="#32d2c2"/>
      <path id="Trazado_120289" data-name="Trazado 120289" d="M230.58,177.52c0,.09-3,.16-6.61.16s-6.61-.07-6.61-.16,3-.16,6.61-.16S230.58,177.43,230.58,177.52Z" fill="#1a2e35"/>
      <path id="Trazado_120290" data-name="Trazado 120290" d="M230.45,201.56c0,.09-3,.16-6.62.16s-6.61-.07-6.61-.16,3-.16,6.61-.16S230.45,201.47,230.45,201.56Z" fill="#1a2e35"/>
      <path id="Trazado_120291" data-name="Trazado 120291" d="M167.51,180.8a9,9,0,0,1-3.28,0,8.48,8.48,0,0,1,3.28,0Z" fill="#32d2c2"/>
      <path id="Trazado_120292" data-name="Trazado 120292" d="M178.82,180.86a19.889,19.889,0,0,1-3.57.16,19.819,19.819,0,0,1-3.56-.16,42.443,42.443,0,0,1,7.13,0Z" fill="#1a2e35"/>
      <path id="Trazado_120293" data-name="Trazado 120293" d="M186.05,180.86a29.149,29.149,0,0,1-6.1,0A31.08,31.08,0,0,1,186.05,180.86Z" fill="#1a2e35"/>
      <path id="Trazado_120294" data-name="Trazado 120294" d="M195.2,180.86a30.211,30.211,0,0,1-6.21,0A32.21,32.21,0,0,1,195.2,180.86Z" fill="#1a2e35"/>
      <path id="Trazado_120295" data-name="Trazado 120295" d="M203.23,180.86a25,25,0,0,1-5.65,0,26.681,26.681,0,0,1,5.65,0Z" fill="#1a2e35"/>
      <path id="Trazado_120296" data-name="Trazado 120296" d="M229.79,180.86c0,.09-5.56.16-12.43.16s-12.43-.07-12.43-.16,5.56-.15,12.43-.15S229.79,180.78,229.79,180.86Z" fill="#1a2e35"/>
      <path id="Trazado_120297" data-name="Trazado 120297" d="M167.06,185a3.21,3.21,0,0,1-1.41.16,3.28,3.28,0,0,1-1.42-.16,3.28,3.28,0,0,1,1.42-.16,3.21,3.21,0,0,1,1.41.16Z" fill="#32d2c2"/>
      <path id="Trazado_120298" data-name="Trazado 120298" d="M167.17,189.27a6.83,6.83,0,0,1-2.94,0,7.279,7.279,0,0,1,2.94,0Z" fill="#32d2c2"/>
      <path id="Trazado_120299" data-name="Trazado 120299" d="M167.17,194.13a6.83,6.83,0,0,1-2.94,0,7.28,7.28,0,0,1,2.94,0Z" fill="#32d2c2"/>
      <path id="Trazado_120300" data-name="Trazado 120300" d="M194,193.91c0,.09-4.91.16-11,.16s-11-.07-11-.16,4.91-.16,11-.16S194,193.82,194,193.91Z" fill="#1a2e35"/>
      <path id="Trazado_120301" data-name="Trazado 120301" d="M192,189.27c0,.09-4.68.16-10.45.16s-10.46-.07-10.46-.16,4.68-.15,10.46-.15S192,189.19,192,189.27Z" fill="#1a2e35"/>
      <path id="Trazado_120302" data-name="Trazado 120302" d="M242.57,184.75c0,.09-15.95.16-35.61.16s-35.6-.07-35.6-.16,15.93-.16,35.6-.16S242.57,184.67,242.57,184.75Z" fill="#1a2e35"/>
    </g>
    <g id="Grupo_80522" data-name="Grupo 80522">
      <g id="Grupo_80519" data-name="Grupo 80519">
        <rect id="Rectángulo_34767" data-name="Rectángulo 34767" width="48.79" height="83.82" transform="translate(168.88 44.07)" fill="#fafafa"/>
        <path id="Trazado_120303" data-name="Trazado 120303" d="M217.68,127.89V104.36c0-14.81,0-35.74-.07-60.29l.15.14H168.97l.16-.16v83.82l-.13-.13,35.59.07h.08l-35.67.07h-.12V43.78h49.1v.15c0,24.59-.06,45.55-.08,60.38v23.04A1.512,1.512,0,0,0,217.68,127.89Z" fill="#1a2e35"/>
      </g>
      <g id="Grupo_80520" data-name="Grupo 80520">
        <circle id="Elipse_5406" data-name="Elipse 5406" cx="0.99" cy="0.99" r="0.99" transform="translate(171.34 46.77)" fill="#1a2e35"/>
        <circle id="Elipse_5407" data-name="Elipse 5407" cx="0.99" cy="0.99" r="0.99" transform="translate(174.91 46.77)" fill="#1a2e35"/>
        <path id="Trazado_120304" data-name="Trazado 120304" d="M180.47,47.76a1,1,0,1,1-1-1A1,1,0,0,1,180.47,47.76Z" fill="#1a2e35"/>
      </g>
      <g id="Grupo_80521" data-name="Grupo 80521">
        <path id="Trazado_120305" data-name="Trazado 120305" d="M204.27,70.62c0,.09-6.19.16-13.82.16s-13.82-.07-13.82-.16,6.19-.16,13.82-.16S204.27,70.53,204.27,70.62Z" fill="#32d2c2"/>
        <path id="Trazado_120306" data-name="Trazado 120306" d="M210,77.33c0,.09-7.53.16-16.81.16s-16.82-.07-16.82-.16,7.53-.16,16.82-.16S210,77.24,210,77.33Z" fill="#32d2c2"/>
        <path id="Trazado_120307" data-name="Trazado 120307" d="M211.4,102.37c0,.09-8,.16-17.93.16s-17.93-.07-17.93-.16,8-.16,17.93-.16S211.4,102.28,211.4,102.37Z" fill="#32d2c2"/>
        <path id="Trazado_120308" data-name="Trazado 120308" d="M179.23,80.74a9.22,9.22,0,0,1-3.42,0,9.82,9.82,0,0,1,3.42,0Z" fill="#32d2c2"/>
        <path id="Trazado_120309" data-name="Trazado 120309" d="M191,80.82a46,46,0,0,1-7.42,0A43.09,43.09,0,0,1,191,80.82Z" fill="#32d2c2"/>
        <path id="Trazado_120310" data-name="Trazado 120310" d="M198.54,80.82a33.779,33.779,0,0,1-6.36,0,31.681,31.681,0,0,1,6.36,0Z" fill="#32d2c2"/>
        <path id="Trazado_120311" data-name="Trazado 120311" d="M178.76,85.1a6.88,6.88,0,0,1-2.95,0,6.88,6.88,0,0,1,2.95,0Z" fill="#32d2c2"/>
        <path id="Trazado_120312" data-name="Trazado 120312" d="M178.87,89.58a7.878,7.878,0,0,1-3.06,0,3.78,3.78,0,0,1,1.53-.16,3.74,3.74,0,0,1,1.53.16Z" fill="#32d2c2"/>
        <path id="Trazado_120313" data-name="Trazado 120313" d="M178.87,94.64a3.74,3.74,0,0,1-1.53.16,3.78,3.78,0,0,1-1.53-.16,3.78,3.78,0,0,1,1.53-.16,3.74,3.74,0,0,1,1.53.16Z" fill="#32d2c2"/>
        <path id="Trazado_120314" data-name="Trazado 120314" d="M206.78,94.4c0,.09-5.12.16-11.42.16s-11.42-.07-11.42-.16,5.11-.16,11.42-.16S206.78,94.32,206.78,94.4Z" fill="#32d2c2"/>
        <path id="Trazado_120315" data-name="Trazado 120315" d="M204.78,89.58c0,.08-4.88.15-10.89.15s-10.9-.07-10.9-.15,4.88-.16,10.9-.16S204.78,89.49,204.78,89.58Z" fill="#32d2c2"/>
        <path id="Trazado_120316" data-name="Trazado 120316" d="M181.1,109.06a3.74,3.74,0,0,1-1.53.16,3.78,3.78,0,0,1-1.53-.16,3.78,3.78,0,0,1,1.53-.16,3.74,3.74,0,0,1,1.53.16Z" fill="#32d2c2"/>
        <path id="Trazado_120317" data-name="Trazado 120317" d="M181.1,114.12a3.74,3.74,0,0,1-1.53.16,3.78,3.78,0,0,1-1.53-.16,3.78,3.78,0,0,1,1.53-.16,3.74,3.74,0,0,1,1.53.16Z" fill="#32d2c2"/>
        <path id="Trazado_120318" data-name="Trazado 120318" d="M209,113.89c0,.08-5.12.15-11.42.15s-11.42-.07-11.42-.15,5.11-.16,11.42-.16S209,113.8,209,113.89Z" fill="#32d2c2"/>
        <path id="Trazado_120319" data-name="Trazado 120319" d="M207,109.06c0,.09-4.88.16-10.89.16s-10.9-.07-10.9-.16,4.88-.16,10.9-.16S207,109,207,109.06Z" fill="#32d2c2"/>
        <path id="Trazado_120320" data-name="Trazado 120320" d="M212.88,84.87c0,.08-6.64.15-14.83.15s-14.82-.07-14.82-.15,6.64-.16,14.82-.16S212.88,84.78,212.88,84.87Z" fill="#32d2c2"/>
        <path id="Trazado_120321" data-name="Trazado 120321" d="M217.22,51.63c0,.09-10.71.16-23.93.16s-23.93-.07-23.93-.16,10.71-.16,23.93-.16S217.22,51.54,217.22,51.63Z" fill="#1a2e35"/>
        <path id="Trazado_120322" data-name="Trazado 120322" d="M186.73,66.57a39.61,39.61,0,0,1-5,.16,39.708,39.708,0,0,1-5.06-.16,39.71,39.71,0,0,1,5.06-.16A39.61,39.61,0,0,1,186.73,66.57Z" fill="#32d2c2"/>
        <path id="Trazado_120323" data-name="Trazado 120323" d="M181,57.42a17.86,17.86,0,0,1-4.77,0,17.86,17.86,0,0,1,4.77,0Z" fill="#32d2c2"/>
      </g>
    </g>
    <g id="Grupo_80524" data-name="Grupo 80524">
      <g id="Grupo_80523" data-name="Grupo 80523">
        <path id="Trazado_120324" data-name="Trazado 120324" d="M207.22,289.11h-84.7l10.93-59.44a4.45,4.45,0,0,1,4.37-3.64h76.1a4.45,4.45,0,0,1,4.37,5.28Z" fill="#104c90"/>
        <path id="Trazado_120325" data-name="Trazado 120325" d="M122.52,289.11H90.4l.13-.09a17.36,17.36,0,0,1,9.9-3.47l23-.68Z" fill="#375a64"/>
      </g>
      <path id="Trazado_120326" data-name="Trazado 120326" d="M142.87,226.11h-.69a4.06,4.06,0,0,0-1.88.46,5.83,5.83,0,0,0-2.26,2.06,10.86,10.86,0,0,0-1.38,3.84c-.28,1.5-.52,3.17-.82,4.95s-.63,3.69-1,5.68c-.74,4-1.61,8.38-2.56,13-1.91,9.18-3.68,17.48-4.84,23.51-.58,3-1,5.46-1.34,7.15-.15.83-.27,1.48-.35,1.95l-.1.5a.691.691,0,0,1,0,.17,1.23,1.23,0,0,1,0-.18l.06-.5c.08-.47.17-1.13.3-2,.27-1.7.68-4.15,1.24-7.17,1.1-6.05,2.84-14.36,4.75-23.54.95-4.59,1.83-9,2.58-13,.39-2,.72-3.9,1-5.67s.57-3.44.86-5a11,11,0,0,1,1.45-3.89,5.91,5.91,0,0,1,2.36-2.07,4.17,4.17,0,0,1,1.93-.42,2.891,2.891,0,0,1,.69.17Z" fill="#1a2e35"/>
      <path id="Trazado_120327" data-name="Trazado 120327" d="M178.63,256.23a4.1,4.1,0,1,1-4.09-4.09,4.1,4.1,0,0,1,4.09,4.09Z" fill="#f5f5f5"/>
    </g>
    <path id="Trazado_120328" data-name="Trazado 120328" d="M284.79,289.11c0,.09-61.82.16-138.06.16S8.65,289.2,8.65,289.11,70.46,289,146.73,289,284.79,289,284.79,289.11Z" fill="#1a2e35"/>
    <g id="Grupo_80545" data-name="Grupo 80545">
      <g id="Grupo_80544" data-name="Grupo 80544">
        <g id="Grupo_80525" data-name="Grupo 80525">
          <path id="Trazado_120329" data-name="Trazado 120329" d="M278.27,245.38l-.06-.13-.2-.37c-.19-.32-.47-.79-.88-1.37a14.66,14.66,0,0,0-4.34-4.1A10.66,10.66,0,0,0,268.9,238a9.74,9.74,0,0,0-4.73.49,7.69,7.69,0,0,0-4.05,3.32,24.519,24.519,0,0,0-1.77,5.35,10,10,0,0,1-1.13,2.55,7.83,7.83,0,0,1-1.92,1.89c-.73.54-1.48,1-2.17,1.58a9.341,9.341,0,0,0-1.76,1.91,11.6,11.6,0,0,0-1.8,4.4,15.219,15.219,0,0,0-.24,4.14,31.482,31.482,0,0,0,1.06,5.89c.18.68.33,1.2.43,1.56a4.324,4.324,0,0,0,.18.54,4,4,0,0,0-.12-.56c-.09-.38-.21-.91-.37-1.58a34.063,34.063,0,0,1-.95-5.87,15.2,15.2,0,0,1,.28-4.07,11.46,11.46,0,0,1,1.78-4.28,9,9,0,0,1,1.71-1.84c.67-.54,1.42-1,2.16-1.56a8,8,0,0,0,2-2,9.94,9.94,0,0,0,1.17-2.64A24.778,24.778,0,0,1,260.4,242a7.42,7.42,0,0,1,3.87-3.19,9.32,9.32,0,0,1,4.59-.51,10.32,10.32,0,0,1,3.81,1.36,15.179,15.179,0,0,1,4.36,4c.42.57.72,1,.92,1.33a2.829,2.829,0,0,0,.32.39Z" fill="#e1e1e1"/>
          <path id="Trazado_120330" data-name="Trazado 120330" d="M254.45,252.06c.5-.46.74-.14,1.42,0a4.41,4.41,0,0,1,1.82.91,7.67,7.67,0,0,1,2.48,8.05,6,6,0,0,1-5.49-9" fill="#e1e1e1"/>
          <path id="Trazado_120331" data-name="Trazado 120331" d="M275.05,242.68c.25-.63.61-.44,1.28-.62a4.23,4.23,0,0,1,2,0,7.69,7.69,0,0,1,5.71,6.2,6,6,0,0,1-8.83-5.75" fill="#e1e1e1"/>
          <path id="Trazado_120332" data-name="Trazado 120332" d="M249.91,264.76a6.9,6.9,0,0,1,10.86.53,8.57,8.57,0,0,1-5.63,2.22,8.72,8.72,0,0,1-5.68-2.3" fill="#e1e1e1"/>
          <path id="Trazado_120333" data-name="Trazado 120333" d="M251.6,255.28a7,7,0,0,1-7.07-8.36,6.28,6.28,0,0,1,7.3,8.29" fill="#e1e1e1"/>
          <path id="Trazado_120334" data-name="Trazado 120334" d="M258.85,244.13a7,7,0,0,1-9.44-5.53,6.29,6.29,0,0,1,9.64,5.39" fill="#e1e1e1"/>
          <path id="Trazado_120335" data-name="Trazado 120335" d="M261.28,240.5a7,7,0,0,1,9.45,5.53,6.29,6.29,0,0,1-9.64-5.39" fill="#e1e1e1"/>
          <path id="Trazado_120336" data-name="Trazado 120336" d="M264.18,238.54a7,7,0,0,1-3.72-10.3,6.28,6.28,0,0,1,4,10.31" fill="#e1e1e1"/>
          <path id="Trazado_120337" data-name="Trazado 120337" d="M271.61,238.89a7,7,0,0,1,5.72-9.33,6.29,6.29,0,0,1-5.58,9.53" fill="#e1e1e1"/>
        </g>
        <path id="Trazado_120338" data-name="Trazado 120338" d="M241.67,289.09l-3.96-24.83,30.33.37-2.99,24.14" fill="#1a2e35"/>
        <g id="Grupo_80543" data-name="Grupo 80543">
          <g id="Grupo_80527" data-name="Grupo 80527">
            <g id="Grupo_80526" data-name="Grupo 80526">
              <path id="Trazado_120339" data-name="Trazado 120339" d="M254.75,259.72a5.19,5.19,0,0,0,5,.43,5.47,5.47,0,0,0,2.75-4.35,5.82,5.82,0,0,0-8.37,3.48" fill="#32d2c2"/>
              <path id="Trazado_120340" data-name="Trazado 120340" d="M268.62,265.07a5.17,5.17,0,0,0,5,.43,5.47,5.47,0,0,0,2.75-4.35,5.8,5.8,0,0,0-8.34,3.48" fill="#32d2c2"/>
              <path id="Trazado_120341" data-name="Trazado 120341" d="M260.84,253.13a5.16,5.16,0,0,0,4,3.12,5.46,5.46,0,0,0,4.7-2.12,6.18,6.18,0,0,0-4.06-3,6.1,6.1,0,0,0-4.84,1.29" fill="#32d2c2"/>
              <path id="Trazado_120342" data-name="Trazado 120342" d="M265.89,259.31a5.2,5.2,0,0,0-4.52,2.24,5.46,5.46,0,0,0-.11,5.15,5.81,5.81,0,0,0,5.36-7.31" fill="#32d2c2"/>
              <path id="Trazado_120343" data-name="Trazado 120343" d="M270.78,269.09a5.16,5.16,0,0,0,.12,5.05,5.47,5.47,0,0,0,4.62,2.27,6.2,6.2,0,0,0-.29-5,5.62,5.62,0,0,0-4-2.57" fill="#32d2c2"/>
            </g>
            <path id="Trazado_120344" data-name="Trazado 120344" d="M278.84,270.24a3.72,3.72,0,0,0-1.2-.77,5.281,5.281,0,0,0-1.65-.28,18.562,18.562,0,0,0-2.23.13,6.68,6.68,0,0,1-2.76-.24,4.24,4.24,0,0,1-2.27-2.2,12.259,12.259,0,0,1-1-3.35,9.69,9.69,0,0,0-1.17-3.44,12.189,12.189,0,0,0-2.56-2.61,12.33,12.33,0,0,1-2.46-2.49,8.2,8.2,0,0,1-1.22-5.71,8,8,0,0,1,1.49-3.66,6.58,6.58,0,0,1,.73-.81l.28-.24a2.214,2.214,0,0,1-.24.29,9.252,9.252,0,0,0-.67.83,8.27,8.27,0,0,0-1.36,3.63,8,8,0,0,0,1.24,5.5,12.219,12.219,0,0,0,2.41,2.41,12.449,12.449,0,0,1,2.64,2.68,9.82,9.82,0,0,1,1.2,3.56,12.658,12.658,0,0,0,.94,3.28,4,4,0,0,0,2.1,2.08,6.551,6.551,0,0,0,2.64.26A18.19,18.19,0,0,1,276,269a5.11,5.11,0,0,1,1.69.36,2.741,2.741,0,0,1,.91.59,1.55,1.55,0,0,1,.19.21Z" fill="#32d2c2"/>
            <path id="Trazado_120345" data-name="Trazado 120345" d="M278.84,270.24a3.72,3.72,0,0,0-1.2-.77,5.281,5.281,0,0,0-1.65-.28,18.562,18.562,0,0,0-2.23.13,6.68,6.68,0,0,1-2.76-.24,4.24,4.24,0,0,1-2.27-2.2,12.259,12.259,0,0,1-1-3.35,9.69,9.69,0,0,0-1.17-3.44,12.189,12.189,0,0,0-2.56-2.61,12.33,12.33,0,0,1-2.46-2.49,8.2,8.2,0,0,1-1.22-5.71,8,8,0,0,1,1.49-3.66,6.58,6.58,0,0,1,.73-.81l.28-.24a2.214,2.214,0,0,1-.24.29,9.252,9.252,0,0,0-.67.83,8.27,8.27,0,0,0-1.36,3.63,8,8,0,0,0,1.24,5.5,12.219,12.219,0,0,0,2.41,2.41,12.449,12.449,0,0,1,2.64,2.68,9.82,9.82,0,0,1,1.2,3.56,12.658,12.658,0,0,0,.94,3.28,4,4,0,0,0,2.1,2.08,6.551,6.551,0,0,0,2.64.26A18.19,18.19,0,0,1,276,269a5.11,5.11,0,0,1,1.69.36,2.741,2.741,0,0,1,.91.59,1.55,1.55,0,0,1,.19.21Z" fill="#32d2c2"/>
          </g>
          <g id="Grupo_80541" data-name="Grupo 80541">
            <g id="Grupo_80528" data-name="Grupo 80528">
              <path id="Trazado_120346" data-name="Trazado 120346" d="M221,272.78a7.68,7.68,0,0,0-10.39-7.55,12.81,12.81,0,0,0,10.11,7.46" fill="#32d2c2"/>
              <path id="Trazado_120347" data-name="Trazado 120347" d="M219,273.84c-1.48,1.63-1.38,4.25-.32,6.18a13.9,13.9,0,0,0,4.71,4.53,9.94,9.94,0,0,0-4.29-11.3" fill="#32d2c2"/>
              <path id="Trazado_120348" data-name="Trazado 120348" d="M226.14,266.2a8.85,8.85,0,0,0,10.06,7.89,12.16,12.16,0,0,0-3.38-6.4c-1.84-1.62-4.74-2.22-6.78-.86" fill="#32d2c2"/>
              <path id="Trazado_120349" data-name="Trazado 120349" d="M226.09,263.77a5.18,5.18,0,0,0-4.71-3.94,9,9,0,0,0-6.11,2.05A7.93,7.93,0,0,0,226.11,263" fill="#32d2c2"/>
              <path id="Trazado_120350" data-name="Trazado 120350" d="M214.79,282.23a7.11,7.11,0,0,0-1.74,7.54,12.6,12.6,0,0,0,5.17,6.19,16.33,16.33,0,0,0,1-8,8.41,8.41,0,0,0-4.56-6.36" fill="#32d2c2"/>
              <path id="Trazado_120351" data-name="Trazado 120351" d="M225.75,257.69a6.39,6.39,0,0,1,10.13-.6,5.52,5.52,0,0,1-10,.26" fill="#32d2c2"/>
              <path id="Trazado_120352" data-name="Trazado 120352" d="M228.3,251.43a8.32,8.32,0,0,1-10.6-6.5,18.68,18.68,0,0,1,5,.07,8.13,8.13,0,0,1,4.43,2.18,4.41,4.41,0,0,1,1.16,4.25" fill="#32d2c2"/>
              <path id="Trazado_120353" data-name="Trazado 120353" d="M233.11,249.81a6.8,6.8,0,0,1,0-10.49,14.16,14.16,0,0,1,3,6.34,5.28,5.28,0,0,1,0,2.62,2.42,2.42,0,0,1-1.84,1.72" fill="#32d2c2"/>
            </g>
            <g id="Grupo_80540" data-name="Grupo 80540">
              <g id="Grupo_80537" data-name="Grupo 80537">
                <g id="Grupo_80529" data-name="Grupo 80529" opacity="0.4">
                  <path id="Trazado_120354" data-name="Trazado 120354" d="M221,272.78a7.68,7.68,0,0,0-10.39-7.55,12.81,12.81,0,0,0,10.11,7.46"/>
                </g>
                <g id="Grupo_80530" data-name="Grupo 80530" opacity="0.4">
                  <path id="Trazado_120355" data-name="Trazado 120355" d="M219,273.84c-1.48,1.63-1.38,4.25-.32,6.18a13.9,13.9,0,0,0,4.71,4.53,9.94,9.94,0,0,0-4.29-11.3"/>
                </g>
                <g id="Grupo_80531" data-name="Grupo 80531" opacity="0.4">
                  <path id="Trazado_120356" data-name="Trazado 120356" d="M226.14,266.2a8.85,8.85,0,0,0,10.06,7.89,12.16,12.16,0,0,0-3.38-6.4c-1.84-1.62-4.74-2.22-6.78-.86"/>
                </g>
                <g id="Grupo_80532" data-name="Grupo 80532" opacity="0.4">
                  <path id="Trazado_120357" data-name="Trazado 120357" d="M226.09,263.77a5.18,5.18,0,0,0-4.71-3.94,9,9,0,0,0-6.11,2.05A7.93,7.93,0,0,0,226.11,263"/>
                </g>
                <g id="Grupo_80533" data-name="Grupo 80533" opacity="0.4">
                  <path id="Trazado_120358" data-name="Trazado 120358" d="M214.79,282.23a7.11,7.11,0,0,0-1.74,7.54,12.6,12.6,0,0,0,5.17,6.19,16.33,16.33,0,0,0,1-8,8.41,8.41,0,0,0-4.56-6.36"/>
                </g>
                <g id="Grupo_80534" data-name="Grupo 80534" opacity="0.4">
                  <path id="Trazado_120359" data-name="Trazado 120359" d="M225.75,257.69a6.39,6.39,0,0,1,10.13-.6,5.52,5.52,0,0,1-10,.26"/>
                </g>
                <g id="Grupo_80535" data-name="Grupo 80535" opacity="0.4">
                  <path id="Trazado_120360" data-name="Trazado 120360" d="M228.3,251.43a8.32,8.32,0,0,1-10.6-6.5,18.68,18.68,0,0,1,5,.07,8.13,8.13,0,0,1,4.43,2.18,4.41,4.41,0,0,1,1.16,4.25"/>
                </g>
                <g id="Grupo_80536" data-name="Grupo 80536" opacity="0.4">
                  <path id="Trazado_120361" data-name="Trazado 120361" d="M233.11,249.81a6.8,6.8,0,0,1,0-10.49,14.16,14.16,0,0,1,3,6.34,5.28,5.28,0,0,1,0,2.62,2.42,2.42,0,0,1-1.84,1.72"/>
                </g>
              </g>
              <g id="Grupo_80539" data-name="Grupo 80539">
                <path id="Trazado_120362" data-name="Trazado 120362" d="M241.43,265.06v-.67c0-.44.07-1.09.08-1.92a17,17,0,0,0-1.12-6.89,10.6,10.6,0,0,0-2.77-3.9,7.44,7.44,0,0,0-5.05-1.86,6.26,6.26,0,0,0-2.84.72,5.58,5.58,0,0,0-2.2,2.09,11.28,11.28,0,0,0-1.27,6.34,45.281,45.281,0,0,1,.15,6.67,10.39,10.39,0,0,1-.83,3.09,6.57,6.57,0,0,1-1.87,2.44,9.16,9.16,0,0,1-2.6,1.33,13.61,13.61,0,0,0-2.44,1.11,8.91,8.91,0,0,0-3.22,3.5,8.54,8.54,0,0,0-.93,3.84,8.83,8.83,0,0,0,.49,3,11.918,11.918,0,0,0,1.14,2.31l-.11-.13c-.06-.09-.17-.22-.29-.41a8.57,8.57,0,0,1-.86-1.73,8.83,8.83,0,0,1-.55-3,8.51,8.51,0,0,1,.9-3.94,9.1,9.1,0,0,1,3.28-3.63c1.5-1,3.48-1.25,5-2.45a7.82,7.82,0,0,0,2.57-5.33A46.33,46.33,0,0,0,226,259a11.47,11.47,0,0,1,1.33-6.51,5.86,5.86,0,0,1,2.32-2.21,6.64,6.64,0,0,1,3-.74,7.71,7.71,0,0,1,5.22,1.95,10.57,10.57,0,0,1,2.81,4,14.56,14.56,0,0,1,1,3.93,21.933,21.933,0,0,1,.08,3.05,15.29,15.29,0,0,1-.14,1.92l-.07.5A1.061,1.061,0,0,0,241.43,265.06Z" fill="#32d2c2"/>
                <g id="Grupo_80538" data-name="Grupo 80538" opacity="0.4">
                  <path id="Trazado_120363" data-name="Trazado 120363" d="M241.43,265.06v-.67c0-.44.07-1.09.08-1.92a17,17,0,0,0-1.12-6.89,10.6,10.6,0,0,0-2.77-3.9,7.44,7.44,0,0,0-5.05-1.86,6.26,6.26,0,0,0-2.84.72,5.58,5.58,0,0,0-2.2,2.09,11.28,11.28,0,0,0-1.27,6.34,45.281,45.281,0,0,1,.15,6.67,10.39,10.39,0,0,1-.83,3.09,6.57,6.57,0,0,1-1.87,2.44,9.16,9.16,0,0,1-2.6,1.33,13.61,13.61,0,0,0-2.44,1.11,8.91,8.91,0,0,0-3.22,3.5,8.54,8.54,0,0,0-.93,3.84,8.83,8.83,0,0,0,.49,3,11.918,11.918,0,0,0,1.14,2.31l-.11-.13c-.06-.09-.17-.22-.29-.41a8.57,8.57,0,0,1-.86-1.73,8.83,8.83,0,0,1-.55-3,8.51,8.51,0,0,1,.9-3.94,9.1,9.1,0,0,1,3.28-3.63c1.5-1,3.48-1.25,5-2.45a7.82,7.82,0,0,0,2.57-5.33A46.33,46.33,0,0,0,226,259a11.47,11.47,0,0,1,1.33-6.51,5.86,5.86,0,0,1,2.32-2.21,6.64,6.64,0,0,1,3-.74,7.71,7.71,0,0,1,5.22,1.95,10.57,10.57,0,0,1,2.81,4,14.56,14.56,0,0,1,1,3.93,21.933,21.933,0,0,1,.08,3.05,15.29,15.29,0,0,1-.14,1.92l-.07.5A1.061,1.061,0,0,0,241.43,265.06Z"/>
                </g>
              </g>
            </g>
          </g>
          <path id="Trazado_120364" data-name="Trazado 120364" d="M285.58,259.64a6.289,6.289,0,0,0,.45-2.22,5.52,5.52,0,0,0-.59-2.57,5.44,5.44,0,0,0-4.42-2.91,6.37,6.37,0,0,0-2.18.25c-1.48.39-2.95,1.24-4.71,1.59a5.62,5.62,0,0,1-2.73-.07,4.17,4.17,0,0,1-2.23-1.78c-1.06-1.64-1.36-3.7-2.64-5.22a5.17,5.17,0,0,0-2.39-1.56,6.86,6.86,0,0,0-2.8-.29,7.19,7.19,0,0,0-4.65,2.43,10.86,10.86,0,0,0-2.31,4.27,12.8,12.8,0,0,0-.52,4.23,46,46,0,0,0,.79,6.2c.12.71.22,1.27.29,1.68a1,1,0,0,0,.06.44c.06.12,0,.15,0,.15a1,1,0,0,1,0-.15l-.1-.43c-.08-.41-.2-1-.35-1.67a41.507,41.507,0,0,1-.89-6.21,13,13,0,0,1,.48-4.32,11.18,11.18,0,0,1,2.35-4.4,8.27,8.27,0,0,1,2.13-1.7,7.2,7.2,0,0,1,2.72-.84,7,7,0,0,1,2.93.3,5.5,5.5,0,0,1,2.54,1.66c1.36,1.62,1.65,3.7,2.66,5.26a3.81,3.81,0,0,0,2.05,1.65,5.25,5.25,0,0,0,2.58.07c1.69-.33,3.17-1.16,4.7-1.55a6.58,6.58,0,0,1,2.27-.25,5.52,5.52,0,0,1,5.12,5.74,5,5,0,0,1-.33,1.68A2.4,2.4,0,0,1,285.58,259.64Z" fill="#32d2c2"/>
          <path id="Trazado_120365" data-name="Trazado 120365" d="M267.85,248.63a5.88,5.88,0,0,0,5.4.36,5.45,5.45,0,0,0,2.76-4.35,5.82,5.82,0,0,0-8.37,3.48" fill="#32d2c2"/>
          <path id="Trazado_120366" data-name="Trazado 120366" d="M273.59,253.85a5.89,5.89,0,0,0,2.51,4.8,5.47,5.47,0,0,0,5.15.09,6.22,6.22,0,0,0-2.39-4.43,6.12,6.12,0,0,0-4.93-.9" fill="#32d2c2"/>
          <path id="Trazado_120367" data-name="Trazado 120367" d="M283.57,252.69a5.87,5.87,0,0,0,5.41-.22,5.46,5.46,0,0,0,2.28-4.62,5.82,5.82,0,0,0-7.95,4.35" fill="#32d2c2"/>
          <path id="Trazado_120368" data-name="Trazado 120368" d="M259.47,245.18a6.16,6.16,0,0,1-2.15-5.1,5.47,5.47,0,0,1,3.34-3.92,5.8,5.8,0,0,1-.85,9" fill="#32d2c2"/>
          <g id="Grupo_80542" data-name="Grupo 80542">
            <path id="Trazado_120369" data-name="Trazado 120369" d="M220.53,238l.06-.13.2-.37a15.615,15.615,0,0,1,.88-1.37,14.66,14.66,0,0,1,4.34-4.1,10.48,10.48,0,0,1,3.89-1.43,9.5,9.5,0,0,1,4.73.49,7.66,7.66,0,0,1,4.05,3.32,24.341,24.341,0,0,1,1.77,5.35,10.1,10.1,0,0,0,1.13,2.55,7.83,7.83,0,0,0,1.92,1.89c.73.53,1.48,1,2.17,1.58a9.27,9.27,0,0,1,1.76,1.9,11.64,11.64,0,0,1,1.8,4.41,15.66,15.66,0,0,1,.25,4.14,32,32,0,0,1-1.06,5.88c-.18.69-.33,1.21-.44,1.57a2.19,2.19,0,0,1-.18.54,3.473,3.473,0,0,1,.12-.56c.09-.39.21-.91.37-1.58a33.1,33.1,0,0,0,1-5.87,15.59,15.59,0,0,0-.27-4.07,11.42,11.42,0,0,0-1.79-4.28,8.74,8.74,0,0,0-1.71-1.84c-.67-.54-1.42-1-2.16-1.56a8.3,8.3,0,0,1-2-2,9.94,9.94,0,0,1-1.17-2.64,25.06,25.06,0,0,0-1.74-5.29,7.4,7.4,0,0,0-3.87-3.18,9.31,9.31,0,0,0-4.59-.51,10.39,10.39,0,0,0-3.81,1.36,15,15,0,0,0-4.35,4,15.151,15.151,0,0,0-.93,1.33,3.562,3.562,0,0,1-.37.47Z" fill="#32d2c2"/>
            <path id="Trazado_120370" data-name="Trazado 120370" d="M244.35,244.72c-.5-.47-.74-.14-1.42,0a4.18,4.18,0,0,0-1.82.91,7.67,7.67,0,0,0-2.48,8,6,6,0,0,0,5.49-9" fill="#32d2c2"/>
            <path id="Trazado_120371" data-name="Trazado 120371" d="M223.75,235.34c-.25-.64-.61-.45-1.27-.63a4.27,4.27,0,0,0-2,0,7.7,7.7,0,0,0-5.71,6.2,6,6,0,0,0,8.84-5.75" fill="#32d2c2"/>
            <path id="Trazado_120372" data-name="Trazado 120372" d="M248.89,257.41a6.9,6.9,0,0,0-10.86.53,8.52,8.52,0,0,0,5.63,2.22,8.76,8.76,0,0,0,5.68-2.29" fill="#32d2c2"/>
            <path id="Trazado_120373" data-name="Trazado 120373" d="M247.2,247.93a7,7,0,0,0,7.07-8.35,6.29,6.29,0,0,0-7.3,8.29" fill="#32d2c2"/>
            <path id="Trazado_120374" data-name="Trazado 120374" d="M240,236.79a7,7,0,0,0,9.44-5.53,6.29,6.29,0,0,0-9.64,5.39" fill="#32d2c2"/>
            <path id="Trazado_120375" data-name="Trazado 120375" d="M237.52,233.15a7,7,0,0,0-9.45,5.53,6.27,6.27,0,0,0,9.64-5.38" fill="#32d2c2"/>
            <path id="Trazado_120376" data-name="Trazado 120376" d="M234.62,231.19a7,7,0,0,0,3.73-10.29,6.29,6.29,0,0,0-4,10.31" fill="#32d2c2"/>
            <path id="Trazado_120377" data-name="Trazado 120377" d="M227.19,231.55a7,7,0,0,0-5.71-9.34,6.29,6.29,0,0,0,5.57,9.54" fill="#32d2c2"/>
          </g>
        </g>
      </g>
      <path id="Trazado_120378" data-name="Trazado 120378" d="M237.33,286.21l2.32,2.88h28.53l1.95-2.88Z" fill="#1a2e35"/>
      <path id="Trazado_120379" data-name="Trazado 120379" d="M269.5,286.19c0,.09-7,.16-15.66.16s-15.66-.07-15.66-.16,7-.17,15.66-.17S269.5,286.1,269.5,286.19Z" fill="#375a64"/>
      <path id="Trazado_120380" data-name="Trazado 120380" d="M266.29,275.35a1.956,1.956,0,0,1-.17.24,7.552,7.552,0,0,1-.59.61A11.092,11.092,0,0,1,263,278a11.35,11.35,0,0,1-4.46,1.14,10.649,10.649,0,0,1-2.72-.23A15.608,15.608,0,0,1,253,278c-1.84-.78-3.51-1.67-5.14-2.19a8.81,8.81,0,0,0-4.44-.43,5.84,5.84,0,0,0-2.73,1.26c-.54.48-.74.83-.77.81a1.151,1.151,0,0,1,.14-.25,3.7,3.7,0,0,1,.55-.65,5.63,5.63,0,0,1,2.76-1.4,8.92,8.92,0,0,1,4.58.37c1.67.51,3.36,1.41,5.18,2.18a16.091,16.091,0,0,0,2.72.91,11,11,0,0,0,2.64.24,11.28,11.28,0,0,0,4.37-1.05A13.3,13.3,0,0,0,266.29,275.35Z" fill="#375a64"/>
      <path id="Trazado_120381" data-name="Trazado 120381" d="M266.58,273.13a1.291,1.291,0,0,1-.2.22,8.267,8.267,0,0,1-.62.57,12.379,12.379,0,0,1-2.64,1.64,12.659,12.659,0,0,1-4.49,1.07,12.231,12.231,0,0,1-2.73-.19,18.581,18.581,0,0,1-2.82-.79c-1.89-.69-3.62-1.47-5.27-1.94a10.49,10.49,0,0,0-4.47-.4,6.731,6.731,0,0,0-2.83,1.08c-.59.41-.85.73-.88.71a2,2,0,0,1,.18-.24,4.678,4.678,0,0,1,.62-.57,6.55,6.55,0,0,1,2.87-1.21,10.451,10.451,0,0,1,4.59.34c1.69.46,3.43,1.24,5.3,1.92a20,20,0,0,0,2.77.79,12.171,12.171,0,0,0,2.66.19,12.31,12.31,0,0,0,4.4-1A16.38,16.38,0,0,0,266.58,273.13Z" fill="#375a64"/>
    </g>
  </g>
</svg>
