<svg id="Capa_1" data-name="Capa 1" xmlns="http://www.w3.org/2000/svg" width="120" height="120" viewBox="0 0 120 120">
  <rect id="Rectángulo_34841" data-name="Rectángulo 34841" width="120" height="120" fill="none"/>
  <circle id="Elipse_5429" data-name="Elipse 5429" cx="50" cy="50" r="50" transform="translate(10 10)" fill="#99b9de"/>
  <g id="Grupo_80741" data-name="Grupo 80741">
    <path id="Trazado_121235" data-name="Trazado 121235" d="M14.46,73.23V18.54c.26,0,.31-.21.39-.4a5.31,5.31,0,0,1,4.06-3.34.37.37,0,0,0,.34-.34h81.32c0,.31.27.3.51.36a5.27,5.27,0,0,1,4.1,4.1c.06.24,0,.48.36.51V72.34a.35.35,0,0,0-.32.25c-1.12,3.4-2.7,4.54-6.23,4.54H86.22a1.6,1.6,0,0,0-.06-.53c-.46-2.68-1.66-4.87-4.42-5.67s-5.52-.69-7.81,1.43a7.76,7.76,0,0,0-2.11,4.76H47.4c-.84-5.52-5.43-8.17-10.47-6-2.6,1.13-3.58,3.36-3.9,6H20.47A5.81,5.81,0,0,1,15,74C14.87,73.75,14.93,73.29,14.46,73.23ZM47.94,66.5h24c.73,0,1-.19,1-.94q-.06-6.16,0-12.33c0-.73-.2-1-1-1h-48c-.76,0-.93.23-.93,1q.06,6.12,0,12.24c0,.79.18,1,1,1C32,66.49,40,66.5,47.94,66.5Zm-17.86-27h6.21c.67,0,.92-.12.91-.86V26.13c0-.64-.12-.86-.82-.86H23.78c-.59,0-.82.11-.82.76V38.72c0,.66.23.78.82.77,2.1-.05,4.22-.03,6.3-.03Zm52.56-7.1V26.11c0-.64-.13-.87-.82-.87H69.23c-.7,0-.82.24-.82.87v12.5c0,.64.13.88.82.87h12.6c.7,0,.82-.24.81-.87C82.62,36.54,82.64,34.47,82.64,32.4Zm1,31a1.08,1.08,0,0,0,.15-.87c-.17-.95.28-1.11,1.13-1.1h9.41c1.86,0,2.55-.71,2.55-2.58V32.79a1.89,1.89,0,0,0-2-2.15H88.31c-.42,0-.57.15-.56.57v2.57c0,.5.13.67.64.66H92.3c.53,0,.78.07.78.71V57.06c0,.49-.11.68-.64.68H84.37c-.46,0-.65-.13-.62-.6s0-1,0-1.64C82.06,56.76,80.53,58,79,59.24c-.34.28-.15.42.08.6ZM61.42,32.44l-5.22-4.1c0,.42-.05.67-.06.92,0,1.45.22,1.29-1.34,1.3H44.25c-.66,0-.9.17-.84.84a15.141,15.141,0,0,1,0,2.13c-.06.65.14.85.82.84H54.6c1.49,0,1.49,0,1.54,1.52a.339.339,0,0,0,.21.38Z" fill="#e7eae9"/>
    <path id="Trazado_121236" data-name="Trazado 121236" d="M86.11,92.23c.16.28.42.3.69.33,1.58.19,3.16.41,4.75.56a3,3,0,0,1,2.88,2.23c1,3.39,2,6.8,2.95,10.19h-36a22.41,22.41,0,0,1,.9-3.4c.62-2.21,1.32-4.4,1.91-6.61a3,3,0,0,1,2.73-2.37c1.61-.21,3.22-.4,4.83-.58a1.41,1.41,0,0,0,1-.37,7.34,7.34,0,0,1,3.44-.52h7.78c.72,0,1.35.42,2.06.23A.07.07,0,0,1,86,92C85.87,92.14,86,92.19,86.11,92.23Z" fill="#00baa6"/>
    <path id="Trazado_121237" data-name="Trazado 121237" d="M22.45,105.54q1.59-5.22,3.2-10.46a2.77,2.77,0,0,1,2.52-1.92c1.55-.21,3.1-.41,4.65-.57A1.47,1.47,0,0,0,34,92a13.52,13.52,0,0,1,3.85-.34h5.68a11.4,11.4,0,0,1,3.68.34,1,1,0,0,0,.83.54c1.62.17,3.22.4,4.84.56a3,3,0,0,1,2.79,2.23c1,3.27,1.91,6.55,2.86,9.84a1.28,1.28,0,0,1,0,.34Z" fill="#22495f"/>
    <path id="Trazado_121238" data-name="Trazado 121238" d="M47.94,66.5h-24c-.84,0-1-.25-1-1q.06-6.12,0-12.24c0-.73.17-1,.93-1h48c.75,0,1,.23,1,1V65.59c0,.75-.23.94-1,.94C63.91,66.49,55.92,66.5,47.94,66.5Z" fill="#fed152"/>
    <path id="Trazado_121239" data-name="Trazado 121239" d="M35.09,86.5c-.61-.64-.54-1.51-.77-2.28,0-1.71-.78-3.21-1.25-4.8V77.14c.32-2.64,1.3-4.87,3.9-6,5-2.17,9.63.48,10.47,6v1.88A14.18,14.18,0,0,1,46.87,81a9.64,9.64,0,0,0-.6,3.1c-.2.9-.08,1.93-1,2.6a10.84,10.84,0,0,1-10.18-.2Z" fill="#305a6c"/>
    <path id="Trazado_121240" data-name="Trazado 121240" d="M85.12,84.05c-.27.86-.06,1.9-.92,2.54A10.72,10.72,0,0,1,74,86.52a4.15,4.15,0,0,1-.78-2.33c0-1.74-.87-3.27-1.28-4.92l-.07-2.14a7.76,7.76,0,0,1,2.11-4.76c2.29-2.12,5-2.24,7.81-1.43s4,3,4.42,5.67a1.6,1.6,0,0,0,.06.53v1.94a14.058,14.058,0,0,1-.39,1.45,9.87,9.87,0,0,0-.76,3.52Z" fill="#305a6c"/>
    <path id="Trazado_121241" data-name="Trazado 121241" d="M30.08,39.46h-6.3c-.59,0-.82-.11-.82-.77Q23,32.35,23,26c0-.65.23-.76.82-.76h12.6c.7,0,.82.22.82.86V38.61c0,.74-.24.88-.91.86C34.22,39.44,32.15,39.46,30.08,39.46Z" fill="#01c0ec"/>
    <path id="Trazado_121242" data-name="Trazado 121242" d="M82.64,32.4v6.21c0,.63-.11.88-.81.87H69.23c-.69,0-.82-.23-.82-.87V26.11c0-.63.12-.87.82-.87H81.82c.69,0,.83.23.82.87C82.62,28.2,82.64,30.3,82.64,32.4Z" fill="#fe7158"/>
    <path id="Trazado_121243" data-name="Trazado 121243" d="M83.6,63.35l-4.53-3.51c-.23-.18-.42-.32-.08-.6,1.54-1.23,3.07-2.48,4.77-3.86v1.64c0,.48.16.61.62.6h8.07c.53,0,.64-.19.64-.68V35.03c0-.64-.25-.72-.78-.71H88.4c-.51,0-.66-.16-.64-.66V31.09c0-.42.14-.57.56-.57h6.57c1.26,0,1.93.8,2,2.15V58.73c0,1.87-.69,2.58-2.55,2.58H84.93c-.85,0-1.3.15-1.13,1.1A1.08,1.08,0,0,1,83.6,63.35Z" fill="#305a6c"/>
    <path id="Trazado_121244" data-name="Trazado 121244" d="M61.42,32.44l-5.07,3.8c-.26-.08-.2-.25-.21-.38,0-1.52,0-1.52-1.54-1.52H44.23c-.68,0-.88-.19-.82-.84a15.14,15.14,0,0,0,0-2.13c-.06-.67.18-.84.84-.84H54.8c1.56,0,1.32.15,1.34-1.3a5.7,5.7,0,0,1,.06-.92Z" fill="#315b6d"/>
    <path id="Trazado_121245" data-name="Trazado 121245" d="M47.16,92a11.4,11.4,0,0,0-3.68-.34H37.8A13.52,13.52,0,0,0,34,92a9.72,9.72,0,0,0,.88-2,1.8,1.8,0,0,1,1.68-1.29,20.68,20.68,0,0,1,9.16.33A25.52,25.52,0,0,1,47.16,92Z" fill="#315b6c"/>
    <path id="Trazado_121246" data-name="Trazado 121246" d="M85.94,91.9c-.71.19-1.34-.25-2.06-.23-2.59.06-5.19,0-7.78,0a7.34,7.34,0,0,0-3.44.52,9.83,9.83,0,0,0,1.1-2.37A1.44,1.44,0,0,1,75,88.77a20.17,20.17,0,0,1,9.55.24,30.522,30.522,0,0,1,1.39,2.89Z" fill="#03c6b9"/>
    <path id="Trazado_121247" data-name="Trazado 121247" d="M84.57,89A20.17,20.17,0,0,0,75,88.77a1.44,1.44,0,0,0-1.26,1.07A28.179,28.179,0,0,1,74,86.52a10.72,10.72,0,0,0,10.25.07A11,11,0,0,0,84.57,89Z" fill="#f8ce57"/>
    <path id="Trazado_121248" data-name="Trazado 121248" d="M45.72,89a20.68,20.68,0,0,0-9.16-.33A1.8,1.8,0,0,0,34.88,90l.21-3.45a10.84,10.84,0,0,0,10.23.15C45.46,87.43,45.59,88.21,45.72,89Z" fill="#f8cd53"/>
    <path id="Trazado_121249" data-name="Trazado 121249" d="M46.27,84.05a9.64,9.64,0,0,1,.6-3.1A14.18,14.18,0,0,0,47.42,79c1,.89.6,3.84-.21,4.74a.91.91,0,0,1-.94.31Z" fill="#f8ce57"/>
    <path id="Trazado_121250" data-name="Trazado 121250" d="M71.89,79.27c.41,1.65,1.24,3.18,1.28,4.92-.69.21-1-.27-1.21-.75A4.64,4.64,0,0,1,71.89,79.27Z" fill="#f8ce57"/>
    <path id="Trazado_121251" data-name="Trazado 121251" d="M85.12,84.05a9.87,9.87,0,0,1,.71-3.52,14.056,14.056,0,0,0,.39-1.45c1.13.84.54,4.09-.28,4.79a.91.91,0,0,1-.82.18Z" fill="#f8ce57"/>
    <path id="Trazado_121252" data-name="Trazado 121252" d="M86.11,92.23c-.13,0-.24-.09-.13-.26A1.264,1.264,0,0,0,86.11,92.23Z" fill="#03c6b9"/>
    <path id="Trazado_121253" data-name="Trazado 121253" d="M33.07,79.42c.47,1.59,1.25,3.09,1.25,4.8a.87.87,0,0,1-.93-.36C32.76,83.06,32.2,80.65,33.07,79.42Z" fill="#f8ce57"/>
  </g>
</svg>
