<svg id="Capa_1" data-name="Capa 1" xmlns="http://www.w3.org/2000/svg" width="120" height="120" viewBox="0 0 120 120">
  <rect id="Rectángulo_34840" data-name="Rectángulo 34840" width="120" height="120" fill="none"/>
  <circle id="Elipse_5428" data-name="Elipse 5428" cx="50" cy="50" r="50" transform="translate(10 10)" fill="#99b9de"/>
  <g id="Grupo_80740" data-name="Grupo 80740">
    <path id="Trazado_121196" data-name="Trazado 121196" d="M58.21,111c-.9-.35-1.82-.66-2.69-1.07a8,8,0,0,1-3.14-2.49H67.59a10,10,0,0,1-5.51,3.35c-.18,0-.41,0-.49.22Z" fill="#305b6d"/>
    <path id="Trazado_121197" data-name="Trazado 121197" d="M44.86,86.7a21.79,21.79,0,0,0-4-5.71c-1.88-2-4-3.8-5.71-6a30.35,30.35,0,0,1-4.38-7.4,33.11,33.11,0,0,1-2.45-10,29.18,29.18,0,0,1,2.4-14.29,31.606,31.606,0,0,1,59.05,2.42,31.36,31.36,0,0,1-.9,22.3,28.09,28.09,0,0,1-6,9c-1.45,1.45-2.94,2.86-4.33,4.36a17.7,17.7,0,0,0-3.61,5.28H46A4.013,4.013,0,0,1,44.86,86.7ZM45,61.59a6.682,6.682,0,0,0,1,0c.85-.12,1,.2.62.91a2.87,2.87,0,0,0,.3,3.18,11.3,11.3,0,0,0,1,1.35c2.51,2.62,5.43,4.1,9.17,3.12a13.16,13.16,0,0,0,3.5-1.64A3.72,3.72,0,0,1,63,68c.63.07.53.85.8,1.28.43.68.86,1.48,1.68,1.59a3.07,3.07,0,0,1,2,1.35,6.55,6.55,0,0,0,1,.86c1.07.84,1.56.68,1.76-.68a.84.84,0,0,1,.89-.82,10.47,10.47,0,0,0,8.51-5.76,1.23,1.23,0,0,1,.5-.6c2.2-1,3.31-3,4.12-5.14a9.65,9.65,0,0,0,.63-6.31,41.74,41.74,0,0,0-4.15-9.87c-5.19-8.49-12.76-12.53-22.7-12a28.38,28.38,0,0,0-15.74,6c-2.91,2.2-5.27,4.74-6,8.46-.39,2-.69,3.9-.92,5.88a7.79,7.79,0,0,0,3.21,7.36A10.58,10.58,0,0,0,45,61.59Z" fill="#e7eae9"/>
    <path id="Trazado_121198" data-name="Trazado 121198" d="M44.86,86.7H74.94a6.06,6.06,0,0,1,1.27.18A3,3,0,0,1,78.49,90a2.9,2.9,0,0,1-2.74,2.74c-.38,0-.8-.1-1.14.18h-.27c-.29-.32-.68-.18-1-.18H46.72c-.35,0-.73-.14-1,.18h-.27c-.28-.25-.63-.15-1-.17a3,3,0,0,1-.26-5.9Z" fill="#325c6d"/>
    <path id="Trazado_121199" data-name="Trazado 121199" d="M74.69,95.87a3.59,3.59,0,0,1,2.89,1,2.89,2.89,0,0,1-1.94,5H45.25A3.16,3.16,0,0,1,42,100.49a2.94,2.94,0,0,1,2-4.51,10.262,10.262,0,0,1,1.37-.11Z" fill="#2f5a6c"/>
    <path id="Trazado_121200" data-name="Trazado 121200" d="M45.25,101.83h29.5a11.806,11.806,0,0,1-.14,1.47,4.59,4.59,0,0,1-4.55,4.09H50.38c-3.18,0-5-1.73-5.09-4.88A3.144,3.144,0,0,0,45.25,101.83Z" fill="#23495f"/>
    <path id="Trazado_121201" data-name="Trazado 121201" d="M74.69,95.87H45.31c0-1,0-2,.08-3H74.61C74.64,93.87,74.67,94.87,74.69,95.87Z" fill="#22495f"/>
    <path id="Trazado_121202" data-name="Trazado 121202" d="M21.21,31.48a1.7,1.7,0,0,1,1,.28c1.48.87,3,1.73,4.44,2.63A2.51,2.51,0,0,1,28,36.9,2.16,2.16,0,0,1,25,39a25.84,25.84,0,0,1-5.59-3,2.36,2.36,0,0,1-.75-2.86,2.69,2.69,0,0,1,2.55-1.66Z" fill="#03c7ba"/>
    <path id="Trazado_121203" data-name="Trazado 121203" d="M28.16,76.44a2.38,2.38,0,0,1-1.37,2.19c-1.39.78-2.78,1.55-4.19,2.28a2.64,2.64,0,0,1-3.49-.59,2.2,2.2,0,0,1,.58-3.42,55.96,55.96,0,0,1,5-2.72,2.45,2.45,0,0,1,3.47,2.26Z" fill="#03c7ba"/>
    <path id="Trazado_121204" data-name="Trazado 121204" d="M80,24.54a2.2,2.2,0,0,1-2.3-3,26.84,26.84,0,0,1,2.88-5.42,2.54,2.54,0,0,1,3.22-.7,2.42,2.42,0,0,1,1,3A31.769,31.769,0,0,1,82,23.58a2.11,2.11,0,0,1-2,.96Z" fill="#315c6d"/>
    <path id="Trazado_121205" data-name="Trazado 121205" d="M92.05,76.41c0-1.85,1.38-3,3.06-2.35A27.39,27.39,0,0,1,100.53,77a2.55,2.55,0,0,1,.67,3.22,2.75,2.75,0,0,1-3.27.9c-1.56-.8-3.1-1.65-4.62-2.52a2.3,2.3,0,0,1-1.26-2.19Z" fill="#03c7ba"/>
    <path id="Trazado_121206" data-name="Trazado 121206" d="M40.22,24.55a2.58,2.58,0,0,1-2.46-1.37C37,21.8,36.21,20.4,35.48,19a2.6,2.6,0,0,1,.83-3.64,2.63,2.63,0,0,1,3.57,1.38c.77,1.39,1.56,2.77,2.27,4.19C43,22.65,41.78,24.61,40.22,24.55Z" fill="#315c6d"/>
    <path id="Trazado_121207" data-name="Trazado 121207" d="M17.63,54h2.39a2.4,2.4,0,0,1,2.55,2.37A2.56,2.56,0,0,1,20,58.94c-1.6,0-3.19.05-4.78,0a2.51,2.51,0,0,1-2.56-2.6A2.47,2.47,0,0,1,15.24,54Z" fill="#335d6e"/>
    <path id="Trazado_121208" data-name="Trazado 121208" d="M102.36,54h2.49a2.49,2.49,0,0,1,2.54,2.51,2.37,2.37,0,0,1-2.39,2.4,48.758,48.758,0,0,1-5.27,0,2.3,2.3,0,0,1-2.33-2.45A2.54,2.54,0,0,1,100.07,54Z" fill="#335d6e"/>
    <path id="Trazado_121209" data-name="Trazado 121209" d="M62.36,14.15a19.4,19.4,0,0,1-.09,2.8,2.32,2.32,0,0,1-2.35,2,2.53,2.53,0,0,1-2.45-2.19c-.08-1.76-.09-3.52,0-5.28A2.67,2.67,0,0,1,60,9a2.45,2.45,0,0,1,2.35,2.57C62.39,12.38,62.36,13.18,62.36,14.15Z" fill="#05c7ba"/>
    <path id="Trazado_121210" data-name="Trazado 121210" d="M99,31.69a2.65,2.65,0,0,1,2.46,1.6,2.4,2.4,0,0,1-1.17,2.63c-1.43.9-2.87,1.8-4.31,2.67a2.71,2.71,0,0,1-3.63-.72,2.6,2.6,0,0,1,1.09-3.52c1.44-.82,2.91-1.59,4.36-2.38a2,2,0,0,1,1.2-.28Z" fill="#03c7ba"/>
    <path id="Trazado_121211" data-name="Trazado 121211" d="M45,61.59a10.58,10.58,0,0,1-6.52-2,7.79,7.79,0,0,1-3.21-7.36c.23-2,.53-3.93.92-5.88.75-3.72,3.11-6.26,6-8.46a28.38,28.38,0,0,1,15.74-6c9.94-.54,17.51,3.5,22.7,12a41.74,41.74,0,0,1,4.15,9.87,9.65,9.65,0,0,1-.63,6.31c-.81,2.14-1.92,4.09-4.12,5.14a1.23,1.23,0,0,0-.5.6A10.47,10.47,0,0,1,71,71.56a.84.84,0,0,0-.89.82c-.2,1.36-.69,1.52-1.76.68a6.551,6.551,0,0,1-1-.86,3.07,3.07,0,0,0-2-1.35c-.82-.11-1.25-.91-1.68-1.59-.27-.43-.17-1.21-.8-1.28a3.72,3.72,0,0,0-2.38.52,13.16,13.16,0,0,1-3.5,1.64c-3.74,1-6.66-.5-9.17-3.12a11.3,11.3,0,0,1-1-1.35,2.87,2.87,0,0,1-.3-3.18c.35-.71.23-1-.62-.91a6.681,6.681,0,0,1-.9.01Zm26.59-7v-.07h-.06l.09.09a.38.38,0,0,0,.38.22c1.22,1.63,2.08,1.57,4.28-.41.37,1.7.71,3.28-.24,4.83-.17.27-.73.54-.25.86s.65-.23.86-.5a2,2,0,0,0,.45-.87,9.31,9.31,0,0,0,.19-3.44c-.31-1.26-.69-2.47.06-3.7a1.23,1.23,0,0,0,0-.58c0-.19.07-.45-.19-.5s-.39.23-.4.46a3.26,3.26,0,0,1-.52,1.59C74.7,55.2,74.3,55.79,72,54.8a.39.39,0,0,0-.44-.19ZM67,38.28v-.4c.61-1.46-1.09-1.16-1.41-2,.12-.33.54-.42.87-.62s.48-.33.29-.63-.42-.08-.62,0a4.7,4.7,0,0,0-2.41,2.55,4.14,4.14,0,0,1-2.4,2.35,6.54,6.54,0,0,0-1.82,1.18c-.22.2-.27.82-.66.55S57.4,40.82,57.23,40a3.83,3.83,0,0,1,2.68-4c1.53-.28,1.82-.57,2.17-2.14.06-.29.25-.66-.12-.78s-.48.28-.57.61a3.38,3.38,0,0,1-3,1.68c-.19-.06-.19-.24-.27-.38a3.42,3.42,0,0,0-1.61-1.27c-.22-.12-.53-.24-.69.09s.15.39.35.51a5.24,5.24,0,0,1,.51.3c1.08.83,1.14,1.36.35,2.48a3.35,3.35,0,0,0-.72,2.4c.06.47-.21.49-.54.47s-.3-.27-.25-.55a2.19,2.19,0,0,0-2-2.81c-2.53-.49-4.75.42-6.88,1.63a4.29,4.29,0,0,0-2.06,1.93c-.14.32-.32.63.05.89s.55-.14.74-.36a9.33,9.33,0,0,1,8.09-3.11c.63,0,1.33.1,1.61.77a1.55,1.55,0,0,1-.57,1.77c-.19.18-.46.36-.28.67s.45.16.71.1a3.92,3.92,0,0,1,3.55.76c.31.26.53.41.74-.07a3.45,3.45,0,0,1,2-1.58c1.32-.63,2.51-1.34,2.95-2.87.18-.6.47-.87,1.15-.4a10.88,10.88,0,0,0,1.43,1c0,.16,0,.32.19.41a5.83,5.83,0,0,1,.61,2.39c-.79.27-1.56.58-2.35.78a3.25,3.25,0,0,0-1.95,1.27A17.8,17.8,0,0,0,61,46.51c-.19.44-.4.6-.91.41a4.84,4.84,0,0,0-2.64-.21c-.27,0-.79,0-.72.48s.48.24.75.25a14,14,0,0,1,1.59,0c.84.11,1.61.27,1.62,1.45a2.53,2.53,0,0,0,1,2.08c.18.14.4.36.6.13s-.06-.43-.24-.54a2.19,2.19,0,0,1-1-2.23,8.63,8.63,0,0,1,2.48-5.07c1.33-1.57,3.29-1.83,5.22-2a1.15,1.15,0,0,1,.66.19c1.5.88,3.06,1.63,3.78,3.46.23.6.11.66-.3.89a9.42,9.42,0,0,1-4.29,1l-1.8-.58a4.29,4.29,0,0,1-1.61-1.44c-.16-.24-.35-.66-.65-.45s-.1.63.16.84A2.32,2.32,0,0,1,65.4,48a2.61,2.61,0,0,0,0,.4,10.82,10.82,0,0,1-1,3.61c-.61,1.09-1.79,1.77-2.6,1.36s-2-.74-2-2.1A7.92,7.92,0,0,0,59.6,50c-.05-.23-.09-.5-.4-.47s-.19.3-.2.48a4.29,4.29,0,0,0,.39,2.13c.31.63.19,1-.44,1.23a6.18,6.18,0,0,0-2.69,2.27,3.12,3.12,0,0,1-3.18,1.58,7.35,7.35,0,0,0-1.69,0,2.67,2.67,0,0,0-2.31,3.24c.68-2.54,2.5-2.41,4.47-2.2A3.91,3.91,0,0,0,53,59.61c-.63-.16-1,.22-1.32.65a6.05,6.05,0,0,0-1.06,4.41,2.83,2.83,0,0,0-1.71-.26.5.5,0,0,0-.49.52c0,.28.16.46.43.42,1.14-.2,1.51.56,2,1.38a3.92,3.92,0,0,0,4,2.22c.23,0,.52,0,.55-.28s-.22-.46-.51-.51H54.5a3.27,3.27,0,0,1-3.25-3.36q0-.645,0-1.29A4.72,4.72,0,0,1,53,59.8a4,4,0,0,0,1,2.92c.62.73.48,1.17-.48,1.47A3.5,3.5,0,0,0,52.1,65c-.15.14-.3.29-.16.51a.392.392,0,0,0,.59.1c.6-.35,1.24-.65,1.8-1a1.65,1.65,0,0,0,.6-2.33,14.449,14.449,0,0,0-.75-1.4c-.61-1.12-.56-2.83,1.11-3,.11,0,.31-.06.32-.11,0-.87.88-1.21,1.27-1.85.76-1.27,2.14-1.71,3.37-2.33.28-.14.51,0,.75.11A3,3,0,0,0,65.18,52a13.26,13.26,0,0,0,1-4.72c0-.31-.2-.77.38-.86a2.88,2.88,0,0,0,2,.56c1-.17,1.27.34,1.21,1.29a25.13,25.13,0,0,1-.85,5.86,5.86,5.86,0,0,1-3.49,4c-2,.79-4.08.7-6.13,1-.2,0-.53-.15-.56.2s.2.41.45.47a1.43,1.43,0,0,0,.19.9c0,.33,0,.67,0,1-.12,1.13.58,2.59-1.21,3.07a.2.2,0,0,0-.06.07c-.37,1.54-1.66,1.4-2.78,1.46a1.72,1.72,0,0,0-1.27.66c-.11.12-.26.28-.15.43a.34.34,0,0,0,.53,0A1.7,1.7,0,0,1,55.92,67a3,3,0,0,0,2.21-.73,2.55,2.55,0,0,1,1.65-.49c1.61,0,3.25.24,4.79-.55a1.52,1.52,0,0,1,1.25.16,3.8,3.8,0,0,0,1.73.38c.16,0,.34,0,.38-.23s-.15-.33-.36-.36a8,8,0,0,1-2.21-.53,1.34,1.34,0,0,0-1.32.24,4.18,4.18,0,0,1-3.81.31c-.59-.16-.13-1.57-.23-2.41a1.33,1.33,0,0,0,0-.2c-.06-.63.08-.83.76-.54,1.66.71,3.25,1.62,5.2,1.39a22.392,22.392,0,0,0,2.22-.49,16,16,0,0,1,3.22-.55c.29,0,.69,0,.66-.4s-.35-.5-.79-.48a20.27,20.27,0,0,0-4.37.87,5.6,5.6,0,0,1-4.9-.8v-.12c.79,0,1.59-.06,2.38,0A2.61,2.61,0,0,0,67,60.1a.51.51,0,0,1,.65-.28,15.87,15.87,0,0,0,3.77.16,1,1,0,0,1,1,.71c.61,1.47.31,2.45-1.14,3.62-.21.17-.63.27-.34.66s.57,0,.77-.11a3.93,3.93,0,0,0,1.52-1.67c.31-1,1-1.13,1.86-1.22A4.52,4.52,0,0,0,78,60.86a18.291,18.291,0,0,1-3.13.35.76.76,0,0,1-.83-.65c-.19-.57,0-.87.57-1,.23-.07.42-.27.29-.54s-.26-.13-.42-.06c-1.59.76-3.23.5-4.87.29-1.35-.18-1.55-.63-.73-1.75.15-.22.43-.37.52-.6.44-1.21,2.21-2.12.88-3.75-.05,0,0-.19,0-.28a19.65,19.65,0,0,0,.3-4.84.867.867,0,0,1,.76-1,4,4,0,0,0,2.08-.87c.87-.81,1.68-.49,2.57-.23A3.3,3.3,0,0,1,77.61,47c.14.16.32.27.52.11a.41.41,0,0,0,.07-.54,1.45,1.45,0,0,0-.53-.57,6.16,6.16,0,0,0-3.23-1.15c-.33,0-.78,0-.82-.36-.15-1.3-1.23-1.76-2.07-2.41-1-.8-2.11-1.64-3.58-1.42C67.79,39.81,67.91,38.82,67,38.28Zm6.38,12.55a3.4,3.4,0,0,1-.25-2.69,1.63,1.63,0,0,0,.25,2.69,1.23,1.23,0,0,0,1.9,0A4.1,4.1,0,0,0,76.38,49c.13-.36.17-1,.74-.89s.54.59.61,1c.13.74.27,1.49.42,2.23a.344.344,0,0,0,.38.37c.06,0,.18-.14.16-.19-.39-1.21-.15-2.59-.9-3.7a1.13,1.13,0,0,0-2,.19,14,14,0,0,0-.64,1.55,1.63,1.63,0,0,1-1.8,1.27Zm-31.53,6.6a1.16,1.16,0,0,1,.66-1.22A3.43,3.43,0,0,0,43.85,55a7.42,7.42,0,0,1,4.71-3.34c2.35-.49,2.62-1,2.69-3.41,0-1.69.55-3.14,2.36-3.73.2-.06.41-.1.37-.37s-.2-.23-.37-.26c-.89-.14-1.19-.72-1.19-1.55V40.15a15.908,15.908,0,0,0-.06-1.69c0-.21-.13-.5-.43-.44s-.28.27-.27.48c.06,1.65-.36,3.37.3,4.92.45,1.06-.41,1.2-.8,1.6s-.8-.13-1.11-.41c-1.44-1.3-1.35-3-1.11-4.7,0-.28.11-.55-.29-.58s-.38.2-.4.46c-.1,1.78-.21,3.64,1.21,4.94a4,4,0,0,1,1.23,3.22,2.64,2.64,0,0,1-2.46,2.91,6.65,6.65,0,0,0-2.85,1.32c-.92.66-1.31,1.74-2.15,2.44s-1.42,1.15-2.49.6A8.25,8.25,0,0,1,38.57,54c-.16-.16-.4-.33-.6-.08s0,.44.19.58a4.74,4.74,0,0,0,.93.57c.58.24,1.21.37,1.78.62.72.31.23,1.31.95,1.74Zm40.69-3.18v-.6a7,7,0,0,0-1.15-3.83c-.14-.22-.33-.49-.63-.35s-.08.41,0,.58c1.5,2.46,1.33,5,.46,7.62-.21.66-.55.88-1.16.66a1.34,1.34,0,0,0-1.23.13c-.17.11-.32.26-.24.49a.35.35,0,0,0,.48.21c1.15-.32,2.12.23,3.13.58.36.12.79.52,1,0s-.39-.58-.68-.67c-.83-.23-.88-.68-.6-1.39a8,8,0,0,0,.59-3.43Zm-27.73.43c-.15.36-.24.78.21.83s.4-.42.43-.74A3.76,3.76,0,0,0,55.13,53a6.09,6.09,0,0,1,1.65-6.85,3.72,3.72,0,0,1,2.22-1c.22,0,.6-.08.5-.46s-.34-.31-.58-.22c-1.36.48-2.84.82-3.7,2.14a7.26,7.26,0,0,0-.86,6.23,7.74,7.74,0,0,1,.42,1.84ZM36.5,48.2c.69-.34.9-.87,1.38-1.09a20.34,20.34,0,0,0,2.52-1.35,1.27,1.27,0,0,1,1.19-.19,1.364,1.364,0,0,0,1.85-.84,2.63,2.63,0,0,1,2.92-2.09c.31,0,.63,0,.65-.44s-.27-.48-.59-.52A3.39,3.39,0,0,0,43,44c-.15.54-.2,1.57-1.2,1.11a1.73,1.73,0,0,0-2,.37,12.25,12.25,0,0,1-1.41.88C37.74,46.75,36.86,47,36.5,48.2Zm11.14-.06a2.26,2.26,0,0,0-.21-.28,3.37,3.37,0,0,0-4.4,0c-.5.47-.89.57-1.45.08-1.18-1-2.26-.84-3.16.46a9.169,9.169,0,0,0-.55.83c-.3.52-.6.91-1.22.37a.29.29,0,0,0-.44,0c-.13.16,0,.3.12.42a1.1,1.1,0,0,0,1.73.07,6.55,6.55,0,0,0,1-1.49,1.3,1.3,0,0,1,2.24-.41c.89.78,1.48.83,2.32,0a1.88,1.88,0,0,1,2.19-.34c.4.15.77.38,1.16.55S47.48,48.54,47.64,48.14Zm-9.52-2.68a1.59,1.59,0,0,0,1.15-.5,10.85,10.85,0,0,1,2.61-2.11,1.5,1.5,0,0,0,.67-1.17,6.43,6.43,0,0,1,1-3.06.31.31,0,0,0,0-.45c-.21-.17-.36,0-.49.13a3.81,3.81,0,0,0-.8,1.7c-.27,1.38-.69,2.62-2.23,3.1a2.14,2.14,0,0,0-.75.64,3.27,3.27,0,0,1-1.41.89c-.23.07-.6,0-.54.4S37.77,45.48,38.12,45.46Zm9.94,11.75a1.27,1.27,0,0,0,1.42-1.06c.24-.92.46-1.86.68-2.79.06-.25.2-.57-.15-.68s-.49.21-.56.52c-.18.84-.33,1.68-.54,2.51s-.7,1.09-1.54.74c-.34-.13-.67-.31-1-.42a.33.33,0,0,0-.47.22.32.32,0,0,0,.24.38Zm19.66-20q.5.066,1,.18a11.47,11.47,0,0,1,1.13.37,1.93,1.93,0,0,0,1.36,0c.24-.09.61-.08.59-.41s-.41-.23-.65-.24H69.91c.05-.25.47-.29.22-.51-.5-.54-1.5-.28-2.41.6Z" fill="#fed051"/>
    <path id="Trazado_121212" data-name="Trazado 121212" d="M74.34,92.86H45.66c.3-.32.68-.18,1-.18H73.28C73.66,92.68,74.05,92.54,74.34,92.86Z" fill="#5b7989"/>
    <path id="Trazado_121213" data-name="Trazado 121213" d="M68.57,46.85a9.42,9.42,0,0,0,4.29-1c.41-.23.53-.29.3-.89-.72-1.83-2.28-2.58-3.78-3.46a1.15,1.15,0,0,0-.66-.19c-1.93.17-3.89.43-5.22,2A8.63,8.63,0,0,0,61,48.35a2.19,2.19,0,0,0,1,2.23c.18.11.46.29.24.54s-.42,0-.6-.13a2.53,2.53,0,0,1-1-2.08c0-1.18-.78-1.34-1.62-1.45a14,14,0,0,0-1.59,0c-.27,0-.7.14-.75-.25s.45-.43.72-.48a4.84,4.84,0,0,1,2.64.21c.51.19.72,0,.91-.41a17.8,17.8,0,0,1,2.33-3.79,3.25,3.25,0,0,1,1.95-1.27c.79-.2,1.56-.51,2.35-.78H68c1.47-.22,2.54.62,3.58,1.42.84.65,1.92,1.11,2.07,2.41,0,.41.49.35.82.36A6.16,6.16,0,0,1,77.67,46a1.45,1.45,0,0,1,.53.57.41.41,0,0,1-.07.54c-.2.16-.38.05-.52-.11A3.3,3.3,0,0,0,76,45.94c-.89-.26-1.7-.58-2.57.23a4,4,0,0,1-2.08.87c-.56.09-.76.38-.76,1a19.65,19.65,0,0,1-.3,4.84c0,.09-.05.23,0,.28,1.33,1.63-.44,2.54-.88,3.75-.09.23-.37.38-.52.6-.82,1.12-.62,1.57.73,1.75,1.64.21,3.28.47,4.87-.29.16-.07.34-.12.42.06a.445.445,0,0,1-.29.54c-.55.16-.76.46-.57,1a.76.76,0,0,0,.83.65A18.29,18.29,0,0,0,78,60.86,4.52,4.52,0,0,1,75.08,62c-.87.09-1.55.23-1.86,1.22a3.93,3.93,0,0,1-1.52,1.67c-.2.16-.51.45-.77.11s.13-.49.34-.66c1.45-1.17,1.75-2.15,1.14-3.62a1,1,0,0,0-1-.71,15.87,15.87,0,0,1-3.77-.16.51.51,0,0,0-.65.28,2.61,2.61,0,0,1-2.58,1.32H62.03c-.43-.65,0-.82.52-.84h2.37a2,2,0,0,0,2-2.29,31.435,31.435,0,0,1-3,1.12,24.87,24.87,0,0,1-4.71.44c-.25-.06-.46-.23-.45-.47s.36-.18.56-.2c2-.28,4.14-.19,6.13-1a5.86,5.86,0,0,0,3.49-4,25.13,25.13,0,0,0,.85-5.86c.06-1-.17-1.46-1.21-1.29Z" fill="#fe7757"/>
    <path id="Trazado_121214" data-name="Trazado 121214" d="M66.79,37.87c-.51-.29-.94-.71-1.43-1-.68-.47-1-.2-1.15.4-.44,1.53-1.63,2.24-2.95,2.87a3.45,3.45,0,0,0-2,1.58c-.21.48-.43.33-.74.07A3.92,3.92,0,0,0,55,41c-.26.06-.54.19-.71-.1s.09-.49.28-.67a1.55,1.55,0,0,0,.57-1.77c-.28-.67-1-.72-1.61-.77a9.33,9.33,0,0,0-8.09,3.11c-.19.22-.3.69-.74.36s-.19-.57-.05-.89a4.29,4.29,0,0,1,2.06-1.93c2.13-1.21,4.35-2.12,6.88-1.63a2.19,2.19,0,0,1,2,2.81c0,.28-.19.53.25.55s.6,0,.54-.47a3.35,3.35,0,0,1,.72-2.4c.79-1.12.73-1.65-.35-2.48a5.24,5.24,0,0,0-.51-.3c-.2-.12-.48-.22-.35-.51s.47-.21.69-.09a3.42,3.42,0,0,1,1.61,1.27c.08.14.08.32.27.38a3.38,3.38,0,0,0,3-1.68c.09-.33.1-.76.57-.61s.18.49.12.78c-.35,1.57-.64,1.86-2.17,2.14a3.83,3.83,0,0,0-2.68,4c.17.79,1,.87,1.55,1.25s.44-.35.66-.55a6.54,6.54,0,0,1,1.82-1.18,4.14,4.14,0,0,0,2.4-2.35,4.7,4.7,0,0,1,2.41-2.55c.2-.09.45-.26.62,0s0,.48-.29.63-.75.29-.87.62c.32.83,2,.53,1.41,2Z" fill="#fe7757"/>
    <path id="Trazado_121215" data-name="Trazado 121215" d="M53,59.61a3.91,3.91,0,0,1,.52-1.35c-2-.21-3.79-.34-4.47,2.2a2.67,2.67,0,0,1,2.31-3.24,7.35,7.35,0,0,1,1.69,0,3.12,3.12,0,0,0,3.18-1.58A6.18,6.18,0,0,1,59,53.37c.63-.27.75-.6.44-1.23A4.29,4.29,0,0,1,59,50c0-.18-.06-.45.2-.48s.35.24.4.47a7.92,7.92,0,0,1,.22,1.26c0,1.36,1.1,1.66,2,2.1s2-.27,2.6-1.36a10.82,10.82,0,0,0,1-3.61,2.609,2.609,0,0,1,0-.4,2.32,2.32,0,0,0-.73-2.77c-.26-.21-.5-.6-.16-.84s.49.21.65.45a4.29,4.29,0,0,0,1.61,1.44l-.21.19c-.58.09-.34.55-.38.86a13.26,13.26,0,0,1-1,4.72A3,3,0,0,1,61,53.62c-.24-.1-.47-.25-.75-.11-1.23.62-2.61,1.06-3.37,2.33-.39.64-1.22,1-1.27,1.85,0,.05-.21.1-.32.11-1.67.2-1.72,1.91-1.11,3a14.448,14.448,0,0,1,.75,1.4,1.65,1.65,0,0,1-.6,2.33,13.249,13.249,0,0,1-1.8,1c-.23.14-.44.16-.59-.1s0-.37.16-.51a3.5,3.5,0,0,1,1.46-.81c1-.3,1.1-.74.48-1.47a4,4,0,0,1-1-2.92Z" fill="#fe7757"/>
    <path id="Trazado_121216" data-name="Trazado 121216" d="M41.82,57.43c-.72-.43-.23-1.4-1-1.72-.57-.25-1.2-.38-1.78-.62a4.74,4.74,0,0,1-.93-.57c-.2-.14-.37-.35-.19-.58s.44-.08.6.08a8.25,8.25,0,0,0,2.17,1.16c1.07.55,1.76,0,2.49-.6s1.23-1.78,2.15-2.44a6.65,6.65,0,0,1,2.85-1.32,2.64,2.64,0,0,0,2.46-2.91,4,4,0,0,0-1.23-3.22c-1.42-1.3-1.31-3.16-1.21-4.94,0-.26.11-.48.4-.46s.33.3.29.58c-.24,1.71-.33,3.4,1.11,4.7.31.28.65.9,1.11.41s1.25-.54.8-1.6c-.66-1.55-.24-3.27-.3-4.92,0-.21.06-.44.27-.48s.41.23.43.44a15.908,15.908,0,0,0,.06,1.69V42.3a1.394,1.394,0,0,0,1.19,1.55c.17,0,.35.06.37.26s-.17.31-.37.37c-1.81.59-2.31,2-2.36,3.73-.07,2.37-.34,2.92-2.69,3.41A7.42,7.42,0,0,0,43.85,55a3.43,3.43,0,0,1-1.37,1.25,1.16,1.16,0,0,0-.66,1.18Z" fill="#fe7857"/>
    <path id="Trazado_121217" data-name="Trazado 121217" d="M62,61.57a5.6,5.6,0,0,0,4.9.8,20.269,20.269,0,0,1,4.37-.87c.44,0,.77,0,.79.48s-.37.39-.66.4a16,16,0,0,0-3.22.55,22.389,22.389,0,0,1-2.22.49c-1.95.23-3.54-.68-5.2-1.39-.68-.29-.82-.09-.76.54a1.33,1.33,0,0,1,0,.2c.1.84-.36,2.25.23,2.41A4.18,4.18,0,0,0,64,64.87a1.34,1.34,0,0,1,1.32-.24,8,8,0,0,0,2.21.53c.21,0,.4.08.36.36s-.22.23-.38.23a3.8,3.8,0,0,1-1.73-.38,1.52,1.52,0,0,0-1.25-.16c-1.54.79-3.18.51-4.79.55a2.55,2.55,0,0,0-1.65.49,3,3,0,0,1-2.21.73,1.7,1.7,0,0,0-1.47.45.34.34,0,0,1-.53,0c-.11-.15,0-.31.15-.43a1.72,1.72,0,0,1,1.27-.66c1.12-.06,2.41.08,2.78-1.46a.2.2,0,0,1,.06-.07c1.79-.48,1.09-1.94,1.21-3.07v-1a10.4,10.4,0,0,0,2.65.83Z" fill="#fe7757"/>
    <path id="Trazado_121218" data-name="Trazado 121218" d="M53,59.61v.19a4.72,4.72,0,0,0-1.79,3.7q0,.645,0,1.29a3.27,3.27,0,0,0,3.25,3.36h.39a.468.468,0,0,1,.51.51c-.03.32-.32.26-.55.28a3.92,3.92,0,0,1-4-2.22c-.47-.82-.84-1.58-2-1.38a.378.378,0,0,1-.43-.42.5.5,0,0,1,.49-.52,2.83,2.83,0,0,1,1.71.26,6.05,6.05,0,0,1,1.06-4.41C52.06,59.83,52.4,59.45,53,59.61Z" fill="#fe7857"/>
    <path id="Trazado_121219" data-name="Trazado 121219" d="M72,54.8c2.34,1,2.74.4,4.27-2.23A3.26,3.26,0,0,0,76.75,51c0-.23.09-.51.4-.46s.18.31.19.5a1.23,1.23,0,0,1,0,.58c-.75,1.23-.37,2.44-.06,3.7A9.31,9.31,0,0,1,77,58.74a2,2,0,0,1-.45.87c-.21.27-.51.74-.86.5s.08-.59.25-.86c1-1.55.61-3.13.24-4.83-2.2,2-3.06,2-4.28.41Z" fill="#fe7857"/>
    <path id="Trazado_121220" data-name="Trazado 121220" d="M82.51,54.25a8,8,0,0,1-.59,3.39c-.28.71-.23,1.16.6,1.39.29.09.86.2.68.67s-.65.16-1,0c-1-.35-2-.9-3.13-.58a.35.35,0,0,1-.48-.21c-.08-.23.07-.38.24-.49a1.34,1.34,0,0,1,1.23-.13c.61.22,1,0,1.16-.66.87-2.61,1-5.16-.46-7.62-.1-.17-.35-.42,0-.58s.49.13.63.35a7,7,0,0,1,1.15,3.83C82.52,53.85,82.51,54.05,82.51,54.25Z" fill="#fe7857"/>
    <path id="Trazado_121221" data-name="Trazado 121221" d="M62,61.57a10.4,10.4,0,0,1-2.61-.81,1.43,1.43,0,0,1-.19-.9,24.87,24.87,0,0,0,4.71-.44c1-.28,2-.75,3-1.12a2,2,0,0,1-2,2.29H62.54c-.55,0-1,.19-.52.84Z" fill="#feca52"/>
    <path id="Trazado_121222" data-name="Trazado 121222" d="M54.78,54.68a7.74,7.74,0,0,0-.42-1.79,7.26,7.26,0,0,1,.86-6.23c.86-1.32,2.34-1.66,3.7-2.14.24-.09.51-.06.58.22s-.28.43-.5.46a3.72,3.72,0,0,0-2.22,1A6.09,6.09,0,0,0,55.13,53a3.76,3.76,0,0,1,.29,1.75c0,.32,0,.79-.43.74S54.63,55,54.78,54.68Z" fill="#fe7857"/>
    <path id="Trazado_121223" data-name="Trazado 121223" d="M36.5,48.2c.36-1.18,1.24-1.45,1.93-1.86a12.249,12.249,0,0,0,1.41-.88,1.73,1.73,0,0,1,2-.37c1,.46,1-.57,1.2-1.11a3.39,3.39,0,0,1,3.4-2.3c.32,0,.61.14.59.52s-.34.45-.65.44a2.63,2.63,0,0,0-2.92,2.09c-.24.89-1,1.07-1.85.84a1.27,1.27,0,0,0-1.19.19,20.34,20.34,0,0,1-2.52,1.35C37.4,47.33,37.19,47.86,36.5,48.2Z" fill="#fe7857"/>
    <path id="Trazado_121224" data-name="Trazado 121224" d="M47.64,48.14c-.16.4-.43.33-.68.22s-.76-.4-1.16-.55a1.88,1.88,0,0,0-2.19.34c-.84.81-1.43.76-2.32,0a1.3,1.3,0,0,0-2.24.41,6.55,6.55,0,0,1-1,1.49A1.1,1.1,0,0,1,36.33,50c-.1-.12-.25-.26-.12-.42a.29.29,0,0,1,.44,0c.62.54.92.15,1.22-.37a9.17,9.17,0,0,1,.55-.83c.9-1.3,2-1.48,3.16-.46a.909.909,0,0,0,1.45-.08,3.37,3.37,0,0,1,4.4,0A2.26,2.26,0,0,1,47.64,48.14Z" fill="#fe7857"/>
    <path id="Trazado_121225" data-name="Trazado 121225" d="M38.12,45.46c-.35,0-.71,0-.78-.43s.31-.33.54-.4a3.27,3.27,0,0,0,1.41-.89A2.14,2.14,0,0,1,40,43.1c1.54-.48,2-1.72,2.23-3.1a3.81,3.81,0,0,1,.8-1.7c.13-.16.28-.3.49-.13a.31.31,0,0,1,0,.45,6.43,6.43,0,0,0-1,3.06,1.5,1.5,0,0,1-.67,1.17A10.85,10.85,0,0,0,39.27,45,1.59,1.59,0,0,1,38.12,45.46Z" fill="#fe7857"/>
    <path id="Trazado_121226" data-name="Trazado 121226" d="M73.35,50.83a1.63,1.63,0,0,0,1.79-1.24A14,14,0,0,1,75.78,48a1.13,1.13,0,0,1,2-.19c.75,1.11.51,2.49.9,3.7,0,.05-.1.19-.16.19-.25,0-.34-.17-.38-.37-.15-.74-.29-1.49-.42-2.23-.07-.43-.11-1-.61-1s-.61.53-.74.89a4.1,4.1,0,0,1-1.13,1.83,1.23,1.23,0,0,1-1.9,0Z" fill="#fe7857"/>
    <path id="Trazado_121227" data-name="Trazado 121227" d="M48.06,57.21l-1.93-.58a.32.32,0,0,1-.24-.38.33.33,0,0,1,.47-.22c.34.11.67.29,1,.42.84.35,1.32.13,1.54-.74s.36-1.67.54-2.51c.07-.31.16-.64.56-.52s.21.43.15.68c-.22.93-.44,1.87-.68,2.79A1.27,1.27,0,0,1,48.06,57.21Z" fill="#fe7857"/>
    <path id="Trazado_121228" data-name="Trazado 121228" d="M67.72,37.2c.91-.88,1.91-1.14,2.46-.63.25.22-.17.26-.22.51H71.2c.24,0,.62-.13.65.24s-.35.32-.59.41a1.93,1.93,0,0,1-1.36,0,11.47,11.47,0,0,0-1.13-.37,10.41,10.41,0,0,0-1.05-.16Z" fill="#fe7857"/>
    <path id="Trazado_121229" data-name="Trazado 121229" d="M73.35,50.83a1.63,1.63,0,0,1-.25-2.69,3.4,3.4,0,0,0,.25,2.69Z" fill="#fe7857"/>
    <path id="Trazado_121230" data-name="Trazado 121230" d="M68,40.67h-.38A5.83,5.83,0,0,0,67,38.28h0C67.91,38.82,67.79,39.81,68,40.67Z" fill="#fe7857"/>
    <path id="Trazado_121231" data-name="Trazado 121231" d="M66.56,46.46l.21-.19,1.8.58V47a2.88,2.88,0,0,1-2.01-.54Z" fill="#fe7857"/>
    <path id="Trazado_121232" data-name="Trazado 121232" d="M71.94,54.83a.38.38,0,0,1-.38-.22h0a.39.39,0,0,1,.4.19Z" fill="#fe7857"/>
    <path id="Trazado_121233" data-name="Trazado 121233" d="M66.79,37.87h.15v.4h0C66.81,38.19,66.8,38,66.79,37.87Z" fill="#fe7857"/>
    <path id="Trazado_121234" data-name="Trazado 121234" d="M71.56,54.61l-.09-.09h.06v.07Z" fill="#fe7857"/>
  </g>
</svg>
