<svg xmlns="http://www.w3.org/2000/svg" width="1240" height="537" viewBox="0 0 1240 537">
  <g id="Grupo_83004" data-name="Grupo 83004" transform="translate(-180 -6153)">
    <rect id="Rectángulo_34932" data-name="Rectángulo 34932" width="1240" height="537" transform="translate(180 6153)" fill="#f3f9ff"/>
    <g id="Grupo_79953" data-name="Grupo 79953" transform="translate(102 -8195.26)">
      <rect id="Rectángulo_33770" data-name="Rectángulo 33770" width="4" height="25" transform="translate(183 14383)" fill="#ffa726"/>
      <path id="Trazado_135505" data-name="Trazado 135505" d="M6.17-4.082H2.292V0H1.073V-9.242H6.8v1H2.292v3.167H6.17ZM9.35,0H8.176V-6.868H9.35ZM8.081-8.69a.7.7,0,0,1,.175-.482.655.655,0,0,1,.517-.2.666.666,0,0,1,.521.2.694.694,0,0,1,.178.482.671.671,0,0,1-.178.476.678.678,0,0,1-.521.19.667.667,0,0,1-.517-.19A.678.678,0,0,1,8.081-8.69Zm2.869,5.2a4.037,4.037,0,0,1,.743-2.555A2.375,2.375,0,0,1,13.66-7a2.363,2.363,0,0,1,1.961.889l.057-.762h1.073v6.7a2.794,2.794,0,0,1-.79,2.1,2.916,2.916,0,0,1-2.123.768,3.532,3.532,0,0,1-1.454-.317,2.5,2.5,0,0,1-1.085-.87l.609-.7a2.3,2.3,0,0,0,1.847.933,1.8,1.8,0,0,0,1.336-.482A1.844,1.844,0,0,0,15.571-.1v-.59a2.414,2.414,0,0,1-1.923.813A2.346,2.346,0,0,1,11.7-.844,4.244,4.244,0,0,1,10.95-3.491Zm1.181.133a3.08,3.08,0,0,0,.476,1.825,1.547,1.547,0,0,0,1.333.663,1.72,1.72,0,0,0,1.631-1.009V-5.015A1.74,1.74,0,0,0,13.952-6a1.561,1.561,0,0,0-1.339.667A3.354,3.354,0,0,0,12.13-3.358ZM22.763-.679A2.494,2.494,0,0,1,20.75.127a2.135,2.135,0,0,1-1.673-.638A2.761,2.761,0,0,1,18.5-2.4V-6.868h1.174v4.437q0,1.562,1.27,1.562a1.758,1.758,0,0,0,1.79-1v-5h1.174V0H22.788Zm6.246-5.135a3.519,3.519,0,0,0-.578-.044,1.547,1.547,0,0,0-1.568.984V0H25.689V-6.868h1.143l.019.793A1.829,1.829,0,0,1,28.488-7a1.2,1.2,0,0,1,.521.089ZM34.074,0a2.467,2.467,0,0,1-.165-.724,2.62,2.62,0,0,1-1.955.851,2.424,2.424,0,0,1-1.666-.574A1.859,1.859,0,0,1,29.637-1.9a1.942,1.942,0,0,1,.816-1.666,3.846,3.846,0,0,1,2.295-.594H33.89V-4.7a1.319,1.319,0,0,0-.368-.981,1.48,1.48,0,0,0-1.085-.365,1.712,1.712,0,0,0-1.054.317.935.935,0,0,0-.425.768H29.777a1.621,1.621,0,0,1,.365-.993,2.491,2.491,0,0,1,.99-.759A3.331,3.331,0,0,1,32.506-7a2.715,2.715,0,0,1,1.86.594,2.141,2.141,0,0,1,.7,1.635v3.161a3.865,3.865,0,0,0,.241,1.5V0ZM32.125-.9a2.064,2.064,0,0,0,1.047-.286,1.728,1.728,0,0,0,.717-.743V-3.333h-.92q-2.158,0-2.158,1.263a1.069,1.069,0,0,0,.368.863A1.415,1.415,0,0,0,32.125-.9Zm9.585-4.3h.882A1.939,1.939,0,0,0,43.9-5.63a1.463,1.463,0,0,0,.476-1.149A1.434,1.434,0,0,0,42.758-8.4a1.684,1.684,0,0,0-1.216.435,1.522,1.522,0,0,0-.454,1.152H39.914a2.358,2.358,0,0,1,.8-1.825,2.925,2.925,0,0,1,2.041-.727,2.891,2.891,0,0,1,2.05.692,2.5,2.5,0,0,1,.743,1.923,2.029,2.029,0,0,1-.39,1.168,2.357,2.357,0,0,1-1.063.844,2.271,2.271,0,0,1,1.177.8,2.221,2.221,0,0,1,.416,1.365A2.521,2.521,0,0,1,44.878-.6a3.043,3.043,0,0,1-2.114.73,3.123,3.123,0,0,1-2.117-.7,2.337,2.337,0,0,1-.816-1.86h1.181a1.511,1.511,0,0,0,.476,1.168,1.811,1.811,0,0,0,1.276.438,1.777,1.777,0,0,0,1.3-.444,1.712,1.712,0,0,0,.451-1.276,1.554,1.554,0,0,0-.5-1.238,2.157,2.157,0,0,0-1.428-.444H41.71ZM59.141-4.082H55.263V0H54.044V-9.242H59.77v1H55.263v3.167h3.878ZM65.07,0A2.467,2.467,0,0,1,64.9-.724,2.62,2.62,0,0,1,62.95.127a2.424,2.424,0,0,1-1.666-.574A1.859,1.859,0,0,1,60.633-1.9a1.942,1.942,0,0,1,.816-1.666,3.846,3.846,0,0,1,2.295-.594h1.143V-4.7a1.319,1.319,0,0,0-.368-.981,1.48,1.48,0,0,0-1.085-.365,1.712,1.712,0,0,0-1.054.317.935.935,0,0,0-.425.768H60.772a1.621,1.621,0,0,1,.365-.993,2.491,2.491,0,0,1,.99-.759A3.331,3.331,0,0,1,63.5-7a2.715,2.715,0,0,1,1.86.594,2.141,2.141,0,0,1,.7,1.635v3.161A3.865,3.865,0,0,0,66.3-.1V0ZM63.121-.9a2.064,2.064,0,0,0,1.047-.286,1.728,1.728,0,0,0,.717-.743V-3.333h-.92q-2.158,0-2.158,1.263a1.069,1.069,0,0,0,.368.863A1.415,1.415,0,0,0,63.121-.9ZM71.9-1.822a.864.864,0,0,0-.359-.74,3.452,3.452,0,0,0-1.25-.454,5.912,5.912,0,0,1-1.416-.457,2.014,2.014,0,0,1-.774-.635,1.518,1.518,0,0,1-.251-.876,1.782,1.782,0,0,1,.714-1.428A2.789,2.789,0,0,1,70.389-7a2.87,2.87,0,0,1,1.895.6,1.915,1.915,0,0,1,.727,1.542H71.83a1.06,1.06,0,0,0-.409-.832,1.534,1.534,0,0,0-1.031-.349,1.606,1.606,0,0,0-1,.279.879.879,0,0,0-.362.73.712.712,0,0,0,.336.641,4.139,4.139,0,0,0,1.216.413A6.334,6.334,0,0,1,72-3.5a2.079,2.079,0,0,1,.809.657,1.615,1.615,0,0,1,.263.936,1.758,1.758,0,0,1-.736,1.476,3.089,3.089,0,0,1-1.911.555,3.459,3.459,0,0,1-1.46-.292,2.375,2.375,0,0,1-.993-.816,1.966,1.966,0,0,1-.359-1.133H68.79a1.216,1.216,0,0,0,.473.936,1.835,1.835,0,0,0,1.165.346A1.894,1.894,0,0,0,71.5-1.1.829.829,0,0,0,71.9-1.822ZM77.454.127A3,3,0,0,1,75.182-.79a3.4,3.4,0,0,1-.876-2.453v-.216a4.121,4.121,0,0,1,.39-1.825,3.045,3.045,0,0,1,1.092-1.257A2.745,2.745,0,0,1,77.308-7a2.572,2.572,0,0,1,2.082.882,3.82,3.82,0,0,1,.743,2.526V-3.1H75.48a2.441,2.441,0,0,0,.594,1.641,1.866,1.866,0,0,0,1.444.625,2.045,2.045,0,0,0,1.054-.254,2.648,2.648,0,0,0,.755-.673l.717.559A2.884,2.884,0,0,1,77.454.127ZM77.308-6.03a1.566,1.566,0,0,0-1.193.517,2.515,2.515,0,0,0-.6,1.45h3.44v-.089a2.237,2.237,0,0,0-.482-1.387A1.475,1.475,0,0,0,77.308-6.03ZM85.49-1.822a.864.864,0,0,0-.359-.74,3.452,3.452,0,0,0-1.25-.454,5.912,5.912,0,0,1-1.416-.457,2.014,2.014,0,0,1-.774-.635,1.518,1.518,0,0,1-.251-.876,1.782,1.782,0,0,1,.714-1.428A2.789,2.789,0,0,1,83.979-7a2.87,2.87,0,0,1,1.895.6A1.915,1.915,0,0,1,86.6-4.85H85.42a1.06,1.06,0,0,0-.409-.832,1.534,1.534,0,0,0-1.031-.349,1.606,1.606,0,0,0-1,.279.879.879,0,0,0-.362.73.712.712,0,0,0,.336.641,4.139,4.139,0,0,0,1.216.413,6.334,6.334,0,0,1,1.425.47,2.079,2.079,0,0,1,.809.657,1.615,1.615,0,0,1,.263.936,1.758,1.758,0,0,1-.736,1.476,3.089,3.089,0,0,1-1.911.555,3.459,3.459,0,0,1-1.46-.292,2.375,2.375,0,0,1-.993-.816,1.966,1.966,0,0,1-.359-1.133H82.38a1.216,1.216,0,0,0,.473.936,1.835,1.835,0,0,0,1.165.346,1.894,1.894,0,0,0,1.07-.27A.829.829,0,0,0,85.49-1.822Zm5.637-1.669a4.023,4.023,0,0,1,.749-2.542A2.369,2.369,0,0,1,93.837-7a2.382,2.382,0,0,1,1.911.825V-9.75h1.174V0H95.843l-.057-.736a2.391,2.391,0,0,1-1.961.863,2.346,2.346,0,0,1-1.946-.978A4.069,4.069,0,0,1,91.127-3.4Zm1.174.133a3.046,3.046,0,0,0,.482,1.828,1.56,1.56,0,0,0,1.333.66,1.713,1.713,0,0,0,1.631-1V-5.027A1.726,1.726,0,0,0,94.129-6a1.567,1.567,0,0,0-1.346.667A3.354,3.354,0,0,0,92.3-3.358ZM101.594.127A3,3,0,0,1,99.322-.79a3.4,3.4,0,0,1-.876-2.453v-.216a4.121,4.121,0,0,1,.39-1.825,3.045,3.045,0,0,1,1.092-1.257A2.745,2.745,0,0,1,101.448-7a2.572,2.572,0,0,1,2.082.882,3.82,3.82,0,0,1,.743,2.526V-3.1H99.62a2.441,2.441,0,0,0,.594,1.641,1.866,1.866,0,0,0,1.444.625,2.045,2.045,0,0,0,1.054-.254,2.648,2.648,0,0,0,.755-.673l.717.559A2.884,2.884,0,0,1,101.594.127Zm-.146-6.157a1.566,1.566,0,0,0-1.193.517,2.515,2.515,0,0,0-.6,1.45h3.44v-.089a2.237,2.237,0,0,0-.482-1.387A1.475,1.475,0,0,0,101.448-6.03ZM106.025,0V-5.96h-1.085v-.908h1.085v-.584a2.386,2.386,0,0,1,.657-1.79,2.548,2.548,0,0,1,1.857-.641,5.591,5.591,0,0,1,1.8.387l-.2.99a4.069,4.069,0,0,0-1.511-.317,1.478,1.478,0,0,0-1.089.34,1.4,1.4,0,0,0-.333,1.019v.6h1.4v.908h-1.4V0Zm4.894,0h-1.181V-6.868h1.181Zm3.021-6.868.038.863A2.5,2.5,0,0,1,116.035-7q2.177,0,2.2,2.457V0h-1.174V-4.545a1.581,1.581,0,0,0-.34-1.1A1.361,1.361,0,0,0,115.68-6a1.7,1.7,0,0,0-1,.3,2.069,2.069,0,0,0-.673.8V0H112.83V-6.868ZM121.278,0H120.1V-6.868h1.174Zm-1.27-8.69a.7.7,0,0,1,.175-.482.655.655,0,0,1,.517-.2.666.666,0,0,1,.521.2.694.694,0,0,1,.178.482.671.671,0,0,1-.178.476.678.678,0,0,1-.521.19.667.667,0,0,1-.517-.19A.678.678,0,0,1,120.009-8.69Zm2.863,5.2a4.023,4.023,0,0,1,.749-2.542A2.369,2.369,0,0,1,125.582-7a2.382,2.382,0,0,1,1.911.825V-9.75h1.174V0h-1.079l-.057-.736a2.391,2.391,0,0,1-1.961.863,2.346,2.346,0,0,1-1.946-.978,4.069,4.069,0,0,1-.752-2.552Zm1.174.133a3.046,3.046,0,0,0,.482,1.828,1.56,1.56,0,0,0,1.333.66,1.713,1.713,0,0,0,1.631-1V-5.027A1.726,1.726,0,0,0,125.874-6a1.567,1.567,0,0,0-1.346.667A3.354,3.354,0,0,0,124.046-3.358ZM134.729,0a2.467,2.467,0,0,1-.165-.724,2.62,2.62,0,0,1-1.955.851,2.424,2.424,0,0,1-1.666-.574,1.859,1.859,0,0,1-.651-1.457,1.942,1.942,0,0,1,.816-1.666,3.846,3.846,0,0,1,2.295-.594h1.143V-4.7a1.319,1.319,0,0,0-.368-.981,1.48,1.48,0,0,0-1.085-.365,1.712,1.712,0,0,0-1.054.317.935.935,0,0,0-.425.768h-1.181a1.621,1.621,0,0,1,.365-.993,2.491,2.491,0,0,1,.99-.759A3.331,3.331,0,0,1,133.161-7a2.715,2.715,0,0,1,1.86.594,2.141,2.141,0,0,1,.7,1.635v3.161a3.865,3.865,0,0,0,.241,1.5V0ZM132.78-.9a2.064,2.064,0,0,0,1.047-.286,1.728,1.728,0,0,0,.717-.743V-3.333h-.92q-2.158,0-2.158,1.263a1.069,1.069,0,0,0,.368.863A1.415,1.415,0,0,0,132.78-.9Zm8.779-.927a.865.865,0,0,0-.359-.74,3.452,3.452,0,0,0-1.25-.454,5.912,5.912,0,0,1-1.416-.457,2.014,2.014,0,0,1-.774-.635,1.518,1.518,0,0,1-.251-.876,1.782,1.782,0,0,1,.714-1.428A2.789,2.789,0,0,1,140.048-7a2.87,2.87,0,0,1,1.895.6,1.915,1.915,0,0,1,.727,1.542h-1.181a1.06,1.06,0,0,0-.409-.832,1.534,1.534,0,0,0-1.031-.349,1.605,1.605,0,0,0-1,.279.879.879,0,0,0-.362.73.712.712,0,0,0,.336.641,4.139,4.139,0,0,0,1.216.413,6.334,6.334,0,0,1,1.425.47,2.079,2.079,0,0,1,.809.657,1.615,1.615,0,0,1,.263.936A1.758,1.758,0,0,1,142-.428a3.089,3.089,0,0,1-1.911.555,3.459,3.459,0,0,1-1.46-.292,2.375,2.375,0,0,1-.993-.816,1.966,1.966,0,0,1-.359-1.133h1.174a1.216,1.216,0,0,0,.473.936,1.835,1.835,0,0,0,1.165.346,1.894,1.894,0,0,0,1.07-.27A.829.829,0,0,0,141.559-1.822ZM150.332.127a3,3,0,0,1-2.272-.917,3.4,3.4,0,0,1-.876-2.453v-.216a4.121,4.121,0,0,1,.39-1.825,3.045,3.045,0,0,1,1.092-1.257A2.745,2.745,0,0,1,150.186-7a2.572,2.572,0,0,1,2.082.882,3.82,3.82,0,0,1,.743,2.526V-3.1h-4.653a2.441,2.441,0,0,0,.594,1.641,1.866,1.866,0,0,0,1.444.625,2.045,2.045,0,0,0,1.054-.254,2.647,2.647,0,0,0,.755-.673l.717.559A2.884,2.884,0,0,1,150.332.127Zm-.146-6.157a1.566,1.566,0,0,0-1.193.517,2.515,2.515,0,0,0-.6,1.45h3.44v-.089a2.237,2.237,0,0,0-.482-1.387A1.475,1.475,0,0,0,150.186-6.03Zm5.294-.838.038.863A2.5,2.5,0,0,1,157.574-7q2.177,0,2.2,2.457V0H158.6V-4.545a1.581,1.581,0,0,0-.34-1.1A1.361,1.361,0,0,0,157.219-6a1.7,1.7,0,0,0-1,.3,2.069,2.069,0,0,0-.673.8V0h-1.174V-6.868Zm12.854,3.129h-2.171V0h-1.225V-9.242H168a3.621,3.621,0,0,1,2.4.711,2.558,2.558,0,0,1,.841,2.069,2.488,2.488,0,0,1-.467,1.5,2.785,2.785,0,0,1-1.3.958l2.171,3.923V0h-1.308Zm-2.171-1h1.873a2.112,2.112,0,0,0,1.444-.471,1.591,1.591,0,0,0,.536-1.259,1.676,1.676,0,0,0-.511-1.316,2.164,2.164,0,0,0-1.476-.464h-1.866Zm11.889,2.317H174.18L173.31,0h-1.257l3.529-9.242h1.066L180.185,0h-1.25Zm-3.5-1h3.142l-1.574-4.323ZM181.429,0V-9.242h2.609a4.2,4.2,0,0,1,2.133.533A3.606,3.606,0,0,1,187.6-7.192a4.938,4.938,0,0,1,.511,2.26v.59a4.955,4.955,0,0,1-.5,2.292A3.55,3.55,0,0,1,186.167-.54a4.467,4.467,0,0,1-2.18.54Zm1.219-8.246V-1h1.282a2.79,2.79,0,0,0,2.193-.877,3.622,3.622,0,0,0,.784-2.5v-.54a3.68,3.68,0,0,0-.74-2.449,2.632,2.632,0,0,0-2.1-.886Z" transform="translate(198 14400)" fill="#12263f"/>
    </g>
    <g id="Capa_1" data-name="Capa 1" transform="translate(263.98 6002.289)">
      <path id="Trazado_122154" data-name="Trazado 122154" d="M722.749,290.2,566.43,395.938l131,25.269Z" transform="translate(-76.469 -7.816)" fill="#5db59a" stroke="#fff" stroke-linecap="round" stroke-linejoin="round" stroke-width="11"/>
      <path id="Trazado_122155" data-name="Trazado 122155" d="M660.783,413.391,686.1,282.384l-45.99,31.107h0a175.4,175.4,0,0,0-31.692-36.008h0c-1.075-.937-2.167-1.849-3.267-2.751l-.086-.069c-1.092-.86-2.184-1.771-3.293-2.631l-.146-.112c-1.092-.86-2.184-1.677-3.293-2.5l-.215-.155c-1.092-.8-2.184-1.591-3.293-2.373l-.292-.2q-1.625-1.135-3.276-2.244l-.378-.241q-1.608-1.075-3.259-2.107l-.464-.292q-1.6-1.006-3.233-1.978l-.55-.318c-1.057-.628-2.124-1.255-3.2-1.857l-.671-.37c-1.04-.576-2.089-1.152-3.147-1.72l-.782-.4c-1.023-.533-2.046-1.066-3.087-1.591l-.86-.439c-1.006-.5-2.012-.989-3.026-1.462l-1.032-.473c-.98-.456-1.96-.86-2.949-1.341l-1.169-.5c-.954-.413-1.909-.86-2.872-1.221l-1.315-.516c-.92-.378-1.84-.748-2.777-1.1l-1.479-.55c-.86-.327-1.771-.662-2.665-.98-.542-.2-1.1-.378-1.651-.567-.86-.292-1.72-.585-2.579-.86-.61-.206-1.229-.4-1.849-.585-.8-.258-1.591-.507-2.39-.748s-1.4-.4-2.1-.6l-2.2-.636c-.782-.215-1.573-.413-2.364-.619s-1.315-.353-1.977-.516c-.963-.241-1.926-.456-2.9-.679l-1.487-.353q-2.21-.49-4.437-.929a184.2,184.2,0,0,0-37.109-3.439,187.435,187.435,0,0,0-104.947,33.085,184.1,184.1,0,0,0,71.887,332.483,186.156,186.156,0,0,0,33.308,3.018A182.775,182.775,0,0,0,593.9,570.183l-44.219-63.857a106.423,106.423,0,1,1-121.157-175,108.91,108.91,0,0,1,82.836-17.3l.92.189,1.6.335,1.212.292c.43.095.86.189,1.29.3l1.341.353,1.126.292c.49.129.98.275,1.47.421l.972.275,1.522.482.86.275,1.634.559.757.258,1.72.628.636.241c.593.224,1.178.456,1.72.7l.567.224,1.8.757.5.215,1.823.86.439.2c.636.292,1.264.6,1.883.911l.352.172c.645.318,1.29.653,1.926.989l.275.146c.653.344,1.3.7,1.943,1.058l.224.12c.671.378,1.324.765,1.986,1.152l.146.086,1.995,1.221.112.069c.671.421,1.333.86,1.995,1.29l.069.052c.671.447,1.341.9,2,1.376h0c.671.473,1.333.946,1.995,1.436h0a97.338,97.338,0,0,1,23.618,25.063l-46,31.116Z" transform="translate(-39.824)" fill="#36e0cf" stroke="#fff" stroke-linecap="round" stroke-linejoin="round" stroke-width="5"/>
      <path id="Trazado_122156" data-name="Trazado 122156" d="M402.217,507.167c-19.148-19.775-29.233-45.311-28.545-72.016l55.526.61L335.884,340.41,240.49,433.7l55.517.61c-.963,47.332,16.912,92.342,50.461,126.932a187.16,187.16,0,0,0,133.647,56.531V540.089A109.082,109.082,0,0,1,402.217,507.167Z" transform="translate(-30.771 -14.856)" fill="#1565b8" stroke="#fff" stroke-linecap="round" stroke-linejoin="round" stroke-width="5"/>
      <path id="Trazado_122157" data-name="Trazado 122157" d="M688.444,399.849l-7.093,36.713-66.815-12.9a109.134,109.134,0,0,1-15.476,77.253c-14.831,23.214-37.393,38.888-63.547,44.3l-12.14-54.167L452,603.732,564.676,675.2,552.6,621.014c46.291-9.913,85.979-37.633,111.98-78.241A187.169,187.169,0,0,0,688.951,399.72Z" transform="translate(-60.426 -23.171)" fill="#35afea" stroke="#fff" stroke-linecap="round" stroke-linejoin="round" stroke-width="5"/>
      <path id="Trazado_135506" data-name="Trazado 135506" d="M2.063,0V-17.773H7.08a8.076,8.076,0,0,1,4.1,1.025,6.935,6.935,0,0,1,2.753,2.917,9.5,9.5,0,0,1,.983,4.346V-8.35a9.529,9.529,0,0,1-.97,4.407,6.826,6.826,0,0,1-2.771,2.905A8.591,8.591,0,0,1,6.982,0ZM4.407-15.857v13.94H6.873A5.365,5.365,0,0,0,11.09-3.6,6.966,6.966,0,0,0,12.6-8.4V-9.443a7.076,7.076,0,0,0-1.422-4.71,5.061,5.061,0,0,0-4.034-1.7Z" transform="translate(391.352 297.026) rotate(-21.52)" fill="#fff"/>
      <path id="Trazado_135507" data-name="Trazado 135507" d="M7.19.244A5.771,5.771,0,0,1,2.82-1.52,6.547,6.547,0,0,1,1.135-6.238v-.415a7.926,7.926,0,0,1,.751-3.51,5.856,5.856,0,0,1,2.1-2.417,5.279,5.279,0,0,1,2.924-.873,4.947,4.947,0,0,1,4,1.7A7.346,7.346,0,0,1,12.341-6.9v.94H3.394A4.7,4.7,0,0,0,4.535-2.8,3.588,3.588,0,0,0,7.312-1.6a3.933,3.933,0,0,0,2.026-.488,5.091,5.091,0,0,0,1.453-1.294L12.17-2.307A5.546,5.546,0,0,1,7.19.244ZM6.909-11.6a3.012,3.012,0,0,0-2.295.995A4.836,4.836,0,0,0,3.467-7.812h6.616v-.171a4.3,4.3,0,0,0-.928-2.667A2.836,2.836,0,0,0,6.909-11.6Z" transform="translate(406.995 290.94) rotate(-15.19)" fill="#fff"/>
      <path id="Trazado_135508" data-name="Trazado 135508" d="M3.833-13.208l.061,1.465a4.878,4.878,0,0,1,3.918-1.709,3.776,3.776,0,0,1,3.772,2.124A5,5,0,0,1,13.3-12.866a5.066,5.066,0,0,1,2.5-.586q4.346,0,4.419,4.6V0H17.957V-8.716a3.033,3.033,0,0,0-.647-2.118,2.849,2.849,0,0,0-2.173-.7,3,3,0,0,0-2.087.751,3.046,3.046,0,0,0-.964,2.02V0H9.814V-8.655q0-2.881-2.82-2.881a3.021,3.021,0,0,0-3.04,1.892V0H1.7V-13.208Z" transform="translate(419.891 287.098) rotate(-7.7)" fill="#fff"/>
      <path id="Trazado_135509" data-name="Trazado 135509" d="M1.111-6.726a7.8,7.8,0,0,1,.763-3.491A5.691,5.691,0,0,1,4-12.61,5.782,5.782,0,0,1,7.1-13.452a5.57,5.57,0,0,1,4.364,1.868,7.186,7.186,0,0,1,1.666,4.968v.159A7.869,7.869,0,0,1,12.4-3,5.608,5.608,0,0,1,10.284-.61,5.848,5.848,0,0,1,7.129.244,5.556,5.556,0,0,1,2.777-1.624,7.149,7.149,0,0,1,1.111-6.567Zm2.271.269A5.651,5.651,0,0,0,4.4-2.93,3.262,3.262,0,0,0,7.129-1.6,3.242,3.242,0,0,0,9.863-2.948a6.179,6.179,0,0,0,1.013-3.778,5.641,5.641,0,0,0-1.031-3.522A3.279,3.279,0,0,0,7.1-11.6a3.243,3.243,0,0,0-2.7,1.331A6.133,6.133,0,0,0,3.381-6.458Z" transform="matrix(1, -0.016, 0.016, 1, 442.227, 284.442)" fill="#fff"/>
      <path id="Trazado_135510" data-name="Trazado 135510" d="M9.4-3.5a1.663,1.663,0,0,0-.69-1.422A6.639,6.639,0,0,0,6.3-5.8a11.37,11.37,0,0,1-2.722-.879A3.873,3.873,0,0,1,2.094-7.9a2.92,2.92,0,0,1-.482-1.685,3.426,3.426,0,0,1,1.373-2.747,5.363,5.363,0,0,1,3.51-1.123,5.519,5.519,0,0,1,3.644,1.16,3.683,3.683,0,0,1,1.4,2.966H9.265a2.039,2.039,0,0,0-.787-1.6A2.95,2.95,0,0,0,6.494-11.6a3.087,3.087,0,0,0-1.929.537,1.691,1.691,0,0,0-.7,1.4,1.37,1.37,0,0,0,.647,1.233,7.96,7.96,0,0,0,2.338.793,12.18,12.18,0,0,1,2.74.9,4,4,0,0,1,1.556,1.263,3.106,3.106,0,0,1,.507,1.8A3.38,3.38,0,0,1,10.242-.824,5.94,5.94,0,0,1,6.567.244,6.651,6.651,0,0,1,3.76-.317a4.566,4.566,0,0,1-1.91-1.569,3.781,3.781,0,0,1-.69-2.179H3.418a2.338,2.338,0,0,0,.909,1.8,3.528,3.528,0,0,0,2.24.665,3.642,3.642,0,0,0,2.057-.519A1.594,1.594,0,0,0,9.4-3.5Z" transform="matrix(0.995, 0.097, -0.097, 0.995, 456.769, 284.317)" fill="#fff"/>
      <path id="Trazado_135511" data-name="Trazado 135511" d="M4.773-16.406v3.2H7.239v1.746H4.773v8.2A1.833,1.833,0,0,0,5.1-2.07a1.387,1.387,0,0,0,1.123.4A5.468,5.468,0,0,0,7.3-1.819V0A6.586,6.586,0,0,1,5.566.244,2.812,2.812,0,0,1,3.284-.671a3.933,3.933,0,0,1-.769-2.6v-8.191H.11v-1.746h2.4v-3.2Z" transform="matrix(0.985, 0.175, -0.175, 0.985, 469.919, 285.694)" fill="#fff"/>
      <path id="Trazado_135512" data-name="Trazado 135512" d="M8.093-11.182a6.768,6.768,0,0,0-1.111-.085A2.976,2.976,0,0,0,3.967-9.375V0H1.709V-13.208h2.2l.037,1.526a3.516,3.516,0,0,1,3.149-1.77,2.307,2.307,0,0,1,1,.171Z" transform="matrix(0.97, 0.24, -0.24, 0.97, 478.122, 287.135)" fill="#fff"/>
      <path id="Trazado_135513" data-name="Trazado 135513" d="M9.863,0a4.744,4.744,0,0,1-.317-1.392A5.039,5.039,0,0,1,5.786.244a4.662,4.662,0,0,1-3.2-1.1,3.574,3.574,0,0,1-1.251-2.8A3.734,3.734,0,0,1,2.9-6.866,7.4,7.4,0,0,1,7.312-8.008h2.2V-9.045A2.536,2.536,0,0,0,8.8-10.931a2.845,2.845,0,0,0-2.087-.7,3.293,3.293,0,0,0-2.026.61A1.8,1.8,0,0,0,3.87-9.546H1.6a3.117,3.117,0,0,1,.7-1.91,4.791,4.791,0,0,1,1.9-1.459,6.406,6.406,0,0,1,2.643-.537,5.222,5.222,0,0,1,3.577,1.141,4.117,4.117,0,0,1,1.343,3.143v6.079A7.432,7.432,0,0,0,12.231-.2V0ZM6.116-1.721A3.969,3.969,0,0,0,8.13-2.271,3.323,3.323,0,0,0,9.509-3.7v-2.71H7.739q-4.15,0-4.15,2.429A2.056,2.056,0,0,0,4.3-2.319,2.721,2.721,0,0,0,6.116-1.721Z" transform="translate(486.012 288.899) rotate(18.072)" fill="#fff"/>
      <path id="Trazado_135514" data-name="Trazado 135514" d="M8.093-11.182a6.768,6.768,0,0,0-1.111-.085A2.976,2.976,0,0,0,3.967-9.375V0H1.709V-13.208h2.2l.037,1.526a3.516,3.516,0,0,1,3.149-1.77,2.307,2.307,0,0,1,1,.171Z" transform="translate(499.23 293.328) rotate(22.81)" fill="#fff"/>
      <path id="Trazado_135524" data-name="Trazado 135524" d="M9.268-7.765H4.759V0H2.215V-19.2H8.569a7.521,7.521,0,0,1,4.99,1.477,5.312,5.312,0,0,1,1.747,4.3,5.168,5.168,0,0,1-.969,3.125,5.784,5.784,0,0,1-2.7,1.991L16.15-.158V0H13.434ZM4.759-9.835H8.648a4.387,4.387,0,0,0,3-.977,3.305,3.305,0,0,0,1.114-2.615A3.48,3.48,0,0,0,11.7-16.161a4.494,4.494,0,0,0-3.065-.964H4.759Z" transform="translate(522.051 548.305) rotate(-33.22)" fill="#fff"/>
      <path id="Trazado_135525" data-name="Trazado 135525" d="M7.765.264a6.233,6.233,0,0,1-4.72-1.905,7.071,7.071,0,0,1-1.819-5.1v-.448a8.56,8.56,0,0,1,.811-3.79A6.325,6.325,0,0,1,4.3-13.586a5.7,5.7,0,0,1,3.157-.943A5.342,5.342,0,0,1,11.786-12.7a7.934,7.934,0,0,1,1.542,5.247v1.015H3.665A5.071,5.071,0,0,0,4.9-3.026a3.875,3.875,0,0,0,3,1.3,4.248,4.248,0,0,0,2.188-.527,5.5,5.5,0,0,0,1.569-1.4l1.49,1.16A5.99,5.99,0,0,1,7.765.264Zm-.3-12.788A3.253,3.253,0,0,0,4.983-11.45,5.222,5.222,0,0,0,3.744-8.437H10.89v-.185a4.645,4.645,0,0,0-1-2.881A3.063,3.063,0,0,0,7.462-12.524Z" transform="matrix(0.765, -0.644, 0.644, 0.765, 537.491, 538.008)" fill="#fff"/>
      <path id="Trazado_135526" data-name="Trazado 135526" d="M3.045,0V-12.379H.791v-1.885H3.045v-1.463a4.857,4.857,0,0,1,1.226-3.546,4.632,4.632,0,0,1,3.467-1.252,6.44,6.44,0,0,1,1.674.223l-.132,1.966a7,7,0,0,0-1.318-.119,2.38,2.38,0,0,0-1.833.694,2.816,2.816,0,0,0-.646,1.99v1.508H8.53v1.885H5.484V0Z" transform="matrix(0.696, -0.718, 0.718, 0.696, 549.582, 527.676)" fill="#fff"/>
      <path id="Trazado_135527" data-name="Trazado 135527" d="M4.329,0H1.98V-13.736H4.329ZM1.79-17.38a1.4,1.4,0,0,1,.349-.965,1.311,1.311,0,0,1,1.035-.394,1.331,1.331,0,0,1,1.041.394,1.387,1.387,0,0,1,.355.965,1.342,1.342,0,0,1-.355.952,1.355,1.355,0,0,1-1.041.381,1.334,1.334,0,0,1-1.035-.381A1.356,1.356,0,0,1,1.79-17.38Z" transform="translate(555.937 519.671) rotate(-48.71)" fill="#fff"/>
      <path id="Trazado_135528" data-name="Trazado 135528" d="M4.153-14.265l.079,1.793A5.2,5.2,0,0,1,8.5-14.528q4.522,0,4.562,5.1V0H10.626V-9.439a3.284,3.284,0,0,0-.705-2.281,2.827,2.827,0,0,0-2.156-.738,3.52,3.52,0,0,0-2.083.633,4.3,4.3,0,0,0-1.4,1.661V0H1.846V-14.265Z" transform="matrix(0.596, -0.803, 0.803, 0.596, 561.899, 514.612)" fill="#fff"/>
      <path id="Trazado_135529" data-name="Trazado 135529" d="M10.652,0a5.123,5.123,0,0,1-.343-1.5A5.442,5.442,0,0,1,6.249.264,5.035,5.035,0,0,1,2.788-.929,3.86,3.86,0,0,1,1.437-3.955,4.033,4.033,0,0,1,3.131-7.416,7.987,7.987,0,0,1,7.9-8.648H10.27V-9.769a2.739,2.739,0,0,0-.765-2.037,3.073,3.073,0,0,0-2.254-.758,3.556,3.556,0,0,0-2.188.659,1.942,1.942,0,0,0-.883,1.6H1.727a3.366,3.366,0,0,1,.758-2.063,5.174,5.174,0,0,1,2.057-1.575,6.919,6.919,0,0,1,2.854-.58A5.639,5.639,0,0,1,11.259-13.3,4.447,4.447,0,0,1,12.709-9.9v6.565a8.027,8.027,0,0,0,.5,3.125V0ZM6.6-1.859A4.287,4.287,0,0,0,8.78-2.452a3.589,3.589,0,0,0,1.49-1.542V-6.921H8.358q-4.482,0-4.482,2.624A2.22,2.22,0,0,0,4.641-2.5,2.939,2.939,0,0,0,6.6-1.859Z" transform="translate(571.772 501.159) rotate(-60.02)" fill="#fff"/>
      <path id="Trazado_135530" data-name="Trazado 135530" d="M8.417-11.629a7.038,7.038,0,0,0-1.155-.089A3.1,3.1,0,0,0,4.126-9.75V0H1.777V-13.736H4.063L4.1-12.149A3.657,3.657,0,0,1,7.376-13.99a2.4,2.4,0,0,1,1.041.178Z" transform="translate(579.579 486.983) rotate(-65.225)" fill="#fff"/>
      <path id="Trazado_135515" data-name="Trazado 135515" d="M16.348-6.091a7.062,7.062,0,0,1-2.248,4.7A7.367,7.367,0,0,1,9.07.264,6.764,6.764,0,0,1,3.619-2.175,9.812,9.812,0,0,1,1.569-8.7v-1.846a10.937,10.937,0,0,1,.956-4.707,7.139,7.139,0,0,1,2.709-3.118,7.543,7.543,0,0,1,4.061-1.088,6.936,6.936,0,0,1,4.9,1.707,7.147,7.147,0,0,1,2.149,4.726H13.8a5.515,5.515,0,0,0-1.43-3.332,4.328,4.328,0,0,0-3.078-1.031,4.529,4.529,0,0,0-3.8,1.795,8.238,8.238,0,0,0-1.378,5.106v1.861A8.468,8.468,0,0,0,5.418-3.653,4.217,4.217,0,0,0,9.07-1.806a4.871,4.871,0,0,0,3.237-.956,5.3,5.3,0,0,0,1.5-3.329Z" transform="matrix(0.01, 1, -1, 0.01, 304.804, 414.794)" fill="#fff"/>
      <path id="Trazado_135516" data-name="Trazado 135516" d="M1.2-7.264a8.425,8.425,0,0,1,.824-3.771,6.147,6.147,0,0,1,2.294-2.584,6.244,6.244,0,0,1,3.355-.91,6.016,6.016,0,0,1,4.713,2.017,7.76,7.76,0,0,1,1.8,5.366v.171a8.5,8.5,0,0,1-.8,3.738A6.056,6.056,0,0,1,11.107-.659,6.316,6.316,0,0,1,7.7.264,6,6,0,0,1,3-1.753,7.721,7.721,0,0,1,1.2-7.093Zm2.452.29a6.1,6.1,0,0,0,1.1,3.81A3.523,3.523,0,0,0,7.7-1.727a3.5,3.5,0,0,0,2.953-1.457,6.673,6.673,0,0,0,1.094-4.08,6.092,6.092,0,0,0-1.114-3.8,3.542,3.542,0,0,0-2.96-1.457,3.5,3.5,0,0,0-2.914,1.437A6.624,6.624,0,0,0,3.652-6.974Z" transform="matrix(0.138, 0.99, -0.99, 0.138, 305.176, 434.391)" fill="#fff"/>
      <path id="Trazado_135517" data-name="Trazado 135517" d="M4.153-14.265l.079,1.793A5.2,5.2,0,0,1,8.5-14.528q4.522,0,4.562,5.1V0H10.626V-9.439a3.284,3.284,0,0,0-.705-2.281,2.827,2.827,0,0,0-2.156-.738,3.52,3.52,0,0,0-2.083.633,4.3,4.3,0,0,0-1.4,1.661V0H1.846V-14.265Z" transform="matrix(0.254, 0.967, -0.967, 0.254, 307.663, 451.46)" fill="#fff"/>
      <path id="Trazado_135518" data-name="Trazado 135518" d="M10.151-3.784A1.8,1.8,0,0,0,9.406-5.32a7.17,7.17,0,0,0-2.6-.943,12.279,12.279,0,0,1-2.94-.949A4.183,4.183,0,0,1,2.261-8.53a3.154,3.154,0,0,1-.521-1.819,3.7,3.7,0,0,1,1.483-2.966,5.792,5.792,0,0,1,3.79-1.213,5.96,5.96,0,0,1,3.935,1.252,3.978,3.978,0,0,1,1.51,3.2H10.006a2.2,2.2,0,0,0-.85-1.727,3.186,3.186,0,0,0-2.142-.725,3.334,3.334,0,0,0-2.083.58,1.826,1.826,0,0,0-.751,1.516,1.479,1.479,0,0,0,.7,1.332A8.6,8.6,0,0,0,7.4-8.24a13.155,13.155,0,0,1,2.96.976A4.317,4.317,0,0,1,12.043-5.9a3.355,3.355,0,0,1,.547,1.945A3.651,3.651,0,0,1,11.061-.89,6.415,6.415,0,0,1,7.093.264,7.183,7.183,0,0,1,4.061-.343,4.932,4.932,0,0,1,2-2.037,4.083,4.083,0,0,1,1.252-4.39H3.691a2.525,2.525,0,0,0,.982,1.945,3.81,3.81,0,0,0,2.419.719,3.933,3.933,0,0,0,2.221-.56A1.722,1.722,0,0,0,10.151-3.784Z" transform="matrix(0.36, 0.933, -0.933, 0.36, 311.983, 467.538)" fill="#fff"/>
      <path id="Trazado_135519" data-name="Trazado 135519" d="M5.155-17.719v3.454H7.818v1.885H5.155v8.857a1.98,1.98,0,0,0,.356,1.287,1.5,1.5,0,0,0,1.213.429,5.9,5.9,0,0,0,1.16-.158V0A7.112,7.112,0,0,1,6.012.264,3.037,3.037,0,0,1,3.546-.725a4.248,4.248,0,0,1-.831-2.808v-8.846H.119v-1.885h2.6v-3.454Z" transform="translate(317.673 481.982) rotate(63.09)" fill="#fff"/>
      <path id="Trazado_135520" data-name="Trazado 135520" d="M8.417-11.629a7.038,7.038,0,0,0-1.155-.089A3.1,3.1,0,0,0,4.126-9.75V0H1.777V-13.736H4.063L4.1-12.149A3.657,3.657,0,0,1,7.376-13.99a2.4,2.4,0,0,1,1.041.178Z" transform="translate(322.121 490.574) rotate(60.113)" fill="#fff"/>
      <path id="Trazado_135521" data-name="Trazado 135521" d="M10.652-1.411A5.181,5.181,0,0,1,6.473.264,4.434,4.434,0,0,1,3-1.061,5.735,5.735,0,0,1,1.793-4.983v-9.281H4.232v9.215q0,3.243,2.637,3.243,2.795,0,3.718-2.083V-14.265h2.439V0h-2.32Z" transform="translate(327.168 499.793) rotate(54.75)" fill="#fff"/>
      <path id="Trazado_135522" data-name="Trazado 135522" d="M4.329,0H1.98V-13.736H4.329ZM1.79-17.38a1.4,1.4,0,0,1,.349-.965,1.311,1.311,0,0,1,1.035-.394,1.331,1.331,0,0,1,1.041.394,1.387,1.387,0,0,1,.355.965,1.342,1.342,0,0,1-.355.952,1.355,1.355,0,0,1-1.041.381,1.334,1.334,0,0,1-1.035-.381A1.356,1.356,0,0,1,1.79-17.38Z" transform="translate(337.53 512.347) rotate(49.97)" fill="#fff"/>
      <path id="Trazado_135523" data-name="Trazado 135523" d="M8.741-12.076a7.309,7.309,0,0,0-1.2-.092,3.214,3.214,0,0,0-3.256,2.043V0H1.846V-14.265H4.219l.04,1.648a3.8,3.8,0,0,1,3.4-1.912,2.492,2.492,0,0,1,1.081.185Z" transform="matrix(0.689, 0.725, -0.725, 0.689, 341.535, 518.704)" fill="#fff"/>
      <g id="Grupo_80779" data-name="Grupo 80779" transform="translate(633.409 333.997)">
        <line id="Línea_303" data-name="Línea 303" x2="119.211" transform="translate(0 99.229)" fill="none" stroke="#c6f1ed" stroke-miterlimit="10" stroke-width="95"/>
        <path id="Trazado_122158" data-name="Trazado 122158" d="M856.45,350.23V548.688l99.195-99.22Z" transform="translate(-750.54 -350.23)" fill="#c6f1ed"/>
      </g>
      <g id="Grupo_80780" data-name="Grupo 80780" transform="translate(845.916 333.997)">
        <line id="Línea_304" data-name="Línea 304" x2="119.219" transform="translate(0 99.229)" fill="none" stroke="#6de6da" stroke-miterlimit="10" stroke-width="95"/>
        <path id="Trazado_122159" data-name="Trazado 122159" d="M1103.61,350.23V548.688l99.195-99.22Z" transform="translate(-997.7 -350.23)" fill="#6de6da"/>
      </g>
      <g id="Grupo_80781" data-name="Grupo 80781" transform="translate(21.02 333.997)">
        <line id="Línea_305" data-name="Línea 305" x2="119.211" transform="translate(0 99.229)" fill="none" stroke="#68c3ef" stroke-miterlimit="10" stroke-width="95"/>
        <path id="Trazado_122160" data-name="Trazado 122160" d="M144.19,350.23V548.688l99.2-99.22Z" transform="translate(-38.289 -350.23)" fill="#68c3ef"/>
      </g>
      <g id="Grupo" transform="translate(29.902 401.104)">
        <path id="Trazado_135537" data-name="Trazado 135537" d="M11.4-4.465H4.254L2.648,0H.328L6.844-17.062H8.813L15.34,0H13.031ZM4.934-6.3h5.8l-2.906-7.98ZM19.348-12.68l.07,1.594a4.621,4.621,0,0,1,3.8-1.828q4.02,0,4.055,4.535V0H25.1V-8.391a2.919,2.919,0,0,0-.627-2.027,2.512,2.512,0,0,0-1.916-.656,3.129,3.129,0,0,0-1.852.563,3.82,3.82,0,0,0-1.242,1.477V0H17.3V-12.68ZM38.367,0a4.554,4.554,0,0,1-.3-1.336A4.837,4.837,0,0,1,34.453.234,4.476,4.476,0,0,1,31.377-.826a3.431,3.431,0,0,1-1.2-2.689,3.584,3.584,0,0,1,1.506-3.076,7.1,7.1,0,0,1,4.236-1.1h2.109v-1a2.435,2.435,0,0,0-.68-1.811,2.732,2.732,0,0,0-2-.674,3.161,3.161,0,0,0-1.945.586,1.727,1.727,0,0,0-.785,1.418h-2.18A2.992,2.992,0,0,1,31.107-11a4.6,4.6,0,0,1,1.828-1.4,6.15,6.15,0,0,1,2.537-.516,5.013,5.013,0,0,1,3.434,1.1A3.953,3.953,0,0,1,40.2-8.8v5.836a7.135,7.135,0,0,0,.445,2.777V0Zm-3.6-1.652A3.81,3.81,0,0,0,36.7-2.18a3.19,3.19,0,0,0,1.324-1.371v-2.6h-1.7q-3.984,0-3.984,2.332a1.974,1.974,0,0,0,.68,1.594A2.612,2.612,0,0,0,34.77-1.652Zm2-16.324H39.4l-3.141,3.445-1.746-.006ZM45.949,0H43.781V-18h2.168Zm5.824,0H49.605V-12.68h2.168ZM49.43-16.043a1.294,1.294,0,0,1,.322-.891,1.21,1.21,0,0,1,.955-.363,1.229,1.229,0,0,1,.961.363,1.28,1.28,0,0,1,.328.891,1.238,1.238,0,0,1-.328.879,1.251,1.251,0,0,1-.961.352,1.232,1.232,0,0,1-.955-.352A1.251,1.251,0,0,1,49.43-16.043Zm13.2,12.68a1.6,1.6,0,0,0-.662-1.365,6.373,6.373,0,0,0-2.309-.838,10.915,10.915,0,0,1-2.613-.844,3.718,3.718,0,0,1-1.43-1.172A2.8,2.8,0,0,1,55.148-9.2a3.289,3.289,0,0,1,1.318-2.637,5.149,5.149,0,0,1,3.369-1.078,5.3,5.3,0,0,1,3.5,1.113,3.536,3.536,0,0,1,1.342,2.848H62.5a1.957,1.957,0,0,0-.756-1.535,2.832,2.832,0,0,0-1.9-.645,2.964,2.964,0,0,0-1.852.516,1.623,1.623,0,0,0-.668,1.348,1.315,1.315,0,0,0,.621,1.184,7.642,7.642,0,0,0,2.244.762,11.693,11.693,0,0,1,2.631.867,3.838,3.838,0,0,1,1.494,1.213,2.982,2.982,0,0,1,.486,1.729A3.245,3.245,0,0,1,63.434-.791,5.7,5.7,0,0,1,59.906.234a6.385,6.385,0,0,1-2.7-.539,4.384,4.384,0,0,1-1.834-1.506A3.629,3.629,0,0,1,54.715-3.9h2.168a2.245,2.245,0,0,0,.873,1.729,3.387,3.387,0,0,0,2.15.639,3.5,3.5,0,0,0,1.975-.5A1.53,1.53,0,0,0,62.625-3.363ZM69.973,0H67.8V-12.68h2.168ZM67.629-16.043a1.294,1.294,0,0,1,.322-.891,1.21,1.21,0,0,1,.955-.363,1.229,1.229,0,0,1,.961.363,1.28,1.28,0,0,1,.328.891,1.238,1.238,0,0,1-.328.879,1.251,1.251,0,0,1-.961.352,1.232,1.232,0,0,1-.955-.352A1.251,1.251,0,0,1,67.629-16.043Zm13.2,12.68a1.6,1.6,0,0,0-.662-1.365,6.373,6.373,0,0,0-2.309-.838A10.915,10.915,0,0,1,75.24-6.41a3.718,3.718,0,0,1-1.43-1.172A2.8,2.8,0,0,1,73.348-9.2a3.289,3.289,0,0,1,1.318-2.637,5.149,5.149,0,0,1,3.369-1.078,5.3,5.3,0,0,1,3.5,1.113,3.536,3.536,0,0,1,1.342,2.848H80.7a1.957,1.957,0,0,0-.756-1.535,2.832,2.832,0,0,0-1.9-.645,2.964,2.964,0,0,0-1.852.516,1.623,1.623,0,0,0-.668,1.348,1.315,1.315,0,0,0,.621,1.184,7.642,7.642,0,0,0,2.244.762,11.693,11.693,0,0,1,2.631.867,3.838,3.838,0,0,1,1.494,1.213,2.982,2.982,0,0,1,.486,1.729A3.245,3.245,0,0,1,81.633-.791,5.7,5.7,0,0,1,78.105.234,6.385,6.385,0,0,1,75.41-.3a4.384,4.384,0,0,1-1.834-1.506A3.629,3.629,0,0,1,72.914-3.9h2.168a2.245,2.245,0,0,0,.873,1.729,3.387,3.387,0,0,0,2.15.639,3.5,3.5,0,0,0,1.975-.5A1.53,1.53,0,0,0,80.824-3.363Zm15.082.188,2.953-9.5h2.32l-5.1,14.637Q94.9,5.121,92.32,5.121l-.41-.035L91.1,4.934V3.176l.586.047A2.885,2.885,0,0,0,93.4,2.777a3.223,3.223,0,0,0,1.014-1.629L94.9-.141,90.375-12.68h2.367Z" transform="translate(21.598 23)" fill="#12263f"/>
        <path id="Trazado_135538" data-name="Trazado 135538" d="M1.113-6.445A7.428,7.428,0,0,1,2.5-11.139a4.373,4.373,0,0,1,3.621-1.775,4.4,4.4,0,0,1,3.527,1.523V-18h2.168V0H9.82L9.715-1.359A4.415,4.415,0,0,1,6.094.234,4.331,4.331,0,0,1,2.5-1.57,7.512,7.512,0,0,1,1.113-6.281ZM3.281-6.2a5.624,5.624,0,0,0,.891,3.375A2.879,2.879,0,0,0,6.633-1.605,3.163,3.163,0,0,0,9.645-3.457V-9.281a3.187,3.187,0,0,0-2.988-1.793,2.893,2.893,0,0,0-2.484,1.23A6.192,6.192,0,0,0,3.281-6.2ZM17.531,0H15.363V-12.68h2.168ZM15.188-16.043a1.294,1.294,0,0,1,.322-.891,1.21,1.21,0,0,1,.955-.363,1.229,1.229,0,0,1,.961.363,1.28,1.28,0,0,1,.328.891,1.238,1.238,0,0,1-.328.879,1.251,1.251,0,0,1-.961.352,1.232,1.232,0,0,1-.955-.352A1.251,1.251,0,0,1,15.188-16.043Zm13.2,12.68a1.6,1.6,0,0,0-.662-1.365,6.373,6.373,0,0,0-2.309-.838A10.915,10.915,0,0,1,22.8-6.41a3.718,3.718,0,0,1-1.43-1.172A2.8,2.8,0,0,1,20.906-9.2a3.289,3.289,0,0,1,1.318-2.637,5.149,5.149,0,0,1,3.369-1.078,5.3,5.3,0,0,1,3.5,1.113,3.536,3.536,0,0,1,1.342,2.848h-2.18a1.957,1.957,0,0,0-.756-1.535,2.832,2.832,0,0,0-1.9-.645,2.964,2.964,0,0,0-1.852.516,1.623,1.623,0,0,0-.668,1.348A1.315,1.315,0,0,0,23.7-8.086a7.642,7.642,0,0,0,2.244.762,11.693,11.693,0,0,1,2.631.867,3.838,3.838,0,0,1,1.494,1.213,2.982,2.982,0,0,1,.486,1.729A3.245,3.245,0,0,1,29.191-.791,5.7,5.7,0,0,1,25.664.234a6.385,6.385,0,0,1-2.7-.539,4.384,4.384,0,0,1-1.834-1.506A3.629,3.629,0,0,1,20.473-3.9h2.168a2.245,2.245,0,0,0,.873,1.729,3.387,3.387,0,0,0,2.15.639,3.5,3.5,0,0,0,1.975-.5A1.53,1.53,0,0,0,28.383-3.363ZM38.637.234a5.54,5.54,0,0,1-4.2-1.693,6.285,6.285,0,0,1-1.617-4.529v-.4a7.609,7.609,0,0,1,.721-3.369,5.622,5.622,0,0,1,2.016-2.32,5.068,5.068,0,0,1,2.807-.838,4.749,4.749,0,0,1,3.844,1.629,7.053,7.053,0,0,1,1.371,4.664v.9h-8.59a4.507,4.507,0,0,0,1.1,3.029,3.444,3.444,0,0,0,2.666,1.154A3.776,3.776,0,0,0,40.7-2a4.888,4.888,0,0,0,1.395-1.242l1.324,1.031A5.325,5.325,0,0,1,38.637.234Zm-.27-11.367a2.892,2.892,0,0,0-2.2.955,4.642,4.642,0,0,0-1.1,2.678h6.352v-.164a4.129,4.129,0,0,0-.891-2.561A2.723,2.723,0,0,0,38.367-11.133Zm9.773-1.547.07,1.594a4.621,4.621,0,0,1,3.8-1.828q4.02,0,4.055,4.535V0H53.895V-8.391a2.919,2.919,0,0,0-.627-2.027,2.512,2.512,0,0,0-1.916-.656,3.129,3.129,0,0,0-1.852.563,3.82,3.82,0,0,0-1.242,1.477V0H46.09V-12.68Zm7.172-4.945a2.914,2.914,0,0,1-.721,2.051,2.341,2.341,0,0,1-1.8.785,2.639,2.639,0,0,1-.832-.117,4.489,4.489,0,0,1-.92-.48,3.984,3.984,0,0,0-.82-.439,2.008,2.008,0,0,0-.58-.076,1.075,1.075,0,0,0-.82.369,1.338,1.338,0,0,0-.34.943l-1.453-.082a3.059,3.059,0,0,1,.709-2.074,2.274,2.274,0,0,1,1.8-.82,2.185,2.185,0,0,1,.738.117,5.381,5.381,0,0,1,.891.457,5.241,5.241,0,0,0,.861.445,1.978,1.978,0,0,0,.662.105,1.048,1.048,0,0,0,.838-.4,1.4,1.4,0,0,0,.334-.926ZM58.758-6.457a7.489,7.489,0,0,1,.732-3.352,5.464,5.464,0,0,1,2.039-2.3,5.551,5.551,0,0,1,2.982-.809A5.347,5.347,0,0,1,68.7-11.121a6.9,6.9,0,0,1,1.6,4.77V-6.2a7.555,7.555,0,0,1-.709,3.322A5.383,5.383,0,0,1,67.564-.586a5.614,5.614,0,0,1-3.029.82,5.334,5.334,0,0,1-4.178-1.793,6.863,6.863,0,0,1-1.6-4.746Zm2.18.258a5.424,5.424,0,0,0,.979,3.387,3.132,3.132,0,0,0,2.619,1.277A3.113,3.113,0,0,0,67.16-2.83a5.932,5.932,0,0,0,.973-3.627,5.415,5.415,0,0,0-.99-3.381,3.148,3.148,0,0,0-2.631-1.295,3.113,3.113,0,0,0-2.59,1.277A5.888,5.888,0,0,0,60.938-6.2Z" transform="translate(0 51.889)" fill="#12263f"/>
        <path id="Trazado_135539" data-name="Trazado 135539" d="M7.122-9.84a5.955,5.955,0,0,0-.978-.075A2.619,2.619,0,0,0,3.491-8.25V0H1.5V-11.623H3.438L3.47-10.28a3.094,3.094,0,0,1,2.771-1.558,2.03,2.03,0,0,1,.881.15Z" transform="translate(77.554 49.889)" fill="#12263f"/>
        <path id="Trazado_135540" data-name="Trazado 135540" d="M9.074,0a4.364,4.364,0,0,1-.292-1.28A4.636,4.636,0,0,1,5.323.225,4.289,4.289,0,0,1,2.375-.792,3.288,3.288,0,0,1,1.224-3.369,3.435,3.435,0,0,1,2.667-6.317a6.8,6.8,0,0,1,4.06-1.05H8.749v-.955A2.333,2.333,0,0,0,8.1-10.057a2.618,2.618,0,0,0-1.92-.646,3.03,3.03,0,0,0-1.864.562A1.655,1.655,0,0,0,3.56-8.782H1.471a2.867,2.867,0,0,1,.646-1.758,4.407,4.407,0,0,1,1.752-1.342A5.894,5.894,0,0,1,6.3-12.376a4.8,4.8,0,0,1,3.291,1.05,3.788,3.788,0,0,1,1.235,2.892v5.593A6.838,6.838,0,0,0,11.253-.18V0ZM5.626-1.583a3.651,3.651,0,0,0,1.853-.505A3.057,3.057,0,0,0,8.749-3.4V-5.9H7.12Q3.3-5.9,3.3-3.661a1.891,1.891,0,0,0,.651,1.527A2.5,2.5,0,0,0,5.626-1.583Zm1.92-15.644h2.516l-3.01,3.3-1.673-.006Zm16.8,11.287a7.276,7.276,0,0,1-1.269,4.47,4.067,4.067,0,0,1-3.437,1.7,4.456,4.456,0,0,1-3.481-1.4V4.672H14.083V-12.151h1.9l.1,1.348a4.28,4.28,0,0,1,3.526-1.572,4.144,4.144,0,0,1,3.465,1.651,7.355,7.355,0,0,1,1.275,4.593ZM22.27-6.177a5.369,5.369,0,0,0-.876-3.246,2.822,2.822,0,0,0-2.4-1.19,3.054,3.054,0,0,0-2.83,1.673v5.806a3.06,3.06,0,0,0,2.853,1.662,2.809,2.809,0,0,0,2.375-1.185A5.861,5.861,0,0,0,22.27-6.177ZM29.244,0H27.167V-12.151h2.078ZM27-15.375a1.24,1.24,0,0,1,.309-.854,1.16,1.16,0,0,1,.915-.348,1.178,1.178,0,0,1,.921.348,1.227,1.227,0,0,1,.314.854,1.187,1.187,0,0,1-.314.842,1.2,1.2,0,0,1-.921.337,1.18,1.18,0,0,1-.915-.337A1.2,1.2,0,0,1,27-15.375Zm5.065,9.2a7.118,7.118,0,0,1,1.325-4.5,4.191,4.191,0,0,1,3.47-1.7,4.214,4.214,0,0,1,3.38,1.46V-17.25h2.078V0H40.407l-.1-1.3A4.231,4.231,0,0,1,36.836.225,4.15,4.15,0,0,1,33.394-1.5,7.2,7.2,0,0,1,32.063-6.02Zm2.078.236a5.39,5.39,0,0,0,.854,3.234,2.759,2.759,0,0,0,2.358,1.168,3.031,3.031,0,0,0,2.886-1.774V-8.895a3.054,3.054,0,0,0-2.864-1.718,2.772,2.772,0,0,0-2.381,1.179A5.934,5.934,0,0,0,34.141-5.941Zm10.849-.247a7.177,7.177,0,0,1,.7-3.212,5.236,5.236,0,0,1,1.954-2.2,5.319,5.319,0,0,1,2.858-.775,5.124,5.124,0,0,1,4.015,1.718,6.611,6.611,0,0,1,1.533,4.571v.146a7.24,7.24,0,0,1-.679,3.184,5.159,5.159,0,0,1-1.943,2.2,5.38,5.38,0,0,1-2.9.786,5.112,5.112,0,0,1-4-1.718,6.577,6.577,0,0,1-1.533-4.548Zm2.089.247A5.2,5.2,0,0,0,48.016-2.7a3,3,0,0,0,2.51,1.224,2.983,2.983,0,0,0,2.516-1.241,5.685,5.685,0,0,0,.932-3.476,5.189,5.189,0,0,0-.949-3.24A3.017,3.017,0,0,0,50.5-10.669a2.983,2.983,0,0,0-2.482,1.224A5.642,5.642,0,0,0,47.078-5.941Z" transform="translate(85.231 50.889)" fill="#12263f"/>
      </g>
      <path id="Trazado_135541" data-name="Trazado 135541" d="M4.23-6.68V0H1.98V-17.062H8.273a6.322,6.322,0,0,1,4.389,1.43,4.847,4.847,0,0,1,1.588,3.785A4.783,4.783,0,0,1,12.7-8.021,6.6,6.6,0,0,1,8.25-6.68Zm0-1.84H8.273a4.042,4.042,0,0,0,2.766-.851A3.112,3.112,0,0,0,12-11.83a3.215,3.215,0,0,0-.961-2.442A3.787,3.787,0,0,0,8.4-15.223H4.23Zm18.68-2.215a6.5,6.5,0,0,0-1.066-.082A2.857,2.857,0,0,0,18.949-9V0H16.781V-12.68h2.109l.035,1.465a3.376,3.376,0,0,1,3.023-1.7,2.215,2.215,0,0,1,.961.164Zm9.82,9.48A4.6,4.6,0,0,1,29.016.234,3.942,3.942,0,0,1,25.928-.943,5.1,5.1,0,0,1,24.855-4.43v-8.25h2.168v8.191q0,2.883,2.344,2.883a3.245,3.245,0,0,0,3.3-1.852V-12.68H34.84V0H32.777ZM43.395.234a5.54,5.54,0,0,1-4.2-1.693,6.285,6.285,0,0,1-1.617-4.529v-.4A7.609,7.609,0,0,1,38.3-9.756a5.622,5.622,0,0,1,2.016-2.32,5.068,5.068,0,0,1,2.807-.838,4.749,4.749,0,0,1,3.844,1.629A7.053,7.053,0,0,1,48.34-6.621v.9H39.75a4.507,4.507,0,0,0,1.1,3.029,3.444,3.444,0,0,0,2.666,1.154A3.776,3.776,0,0,0,45.457-2a4.888,4.888,0,0,0,1.395-1.242l1.324,1.031A5.325,5.325,0,0,1,43.395.234Zm-.27-11.367a2.892,2.892,0,0,0-2.2.955A4.642,4.642,0,0,0,39.82-7.5h6.352v-.164a4.129,4.129,0,0,0-.891-2.561A2.723,2.723,0,0,0,43.125-11.133ZM61.582-6.2a7.539,7.539,0,0,1-1.336,4.67A4.269,4.269,0,0,1,56.66.234a4.42,4.42,0,0,1-3.715-1.7L52.84,0H50.848V-18h2.168v6.715a4.4,4.4,0,0,1,3.621-1.629,4.3,4.3,0,0,1,3.627,1.746,7.766,7.766,0,0,1,1.318,4.781Zm-2.168-.246a5.858,5.858,0,0,0-.855-3.422A2.832,2.832,0,0,0,56.1-11.074a3.183,3.183,0,0,0-3.082,1.992V-3.6a3.272,3.272,0,0,0,3.105,1.992,2.816,2.816,0,0,0,2.426-1.207A6.23,6.23,0,0,0,59.414-6.445ZM72.141,0a4.554,4.554,0,0,1-.3-1.336A4.837,4.837,0,0,1,68.227.234,4.476,4.476,0,0,1,65.15-.826a3.431,3.431,0,0,1-1.2-2.689,3.584,3.584,0,0,1,1.506-3.076,7.1,7.1,0,0,1,4.236-1.1H71.8v-1a2.435,2.435,0,0,0-.68-1.811,2.732,2.732,0,0,0-2-.674,3.161,3.161,0,0,0-1.945.586,1.727,1.727,0,0,0-.785,1.418h-2.18A2.992,2.992,0,0,1,64.881-11a4.6,4.6,0,0,1,1.828-1.4,6.15,6.15,0,0,1,2.537-.516,5.013,5.013,0,0,1,3.434,1.1A3.953,3.953,0,0,1,73.969-8.8v5.836a7.135,7.135,0,0,0,.445,2.777V0Zm-3.6-1.652a3.81,3.81,0,0,0,1.934-.527A3.19,3.19,0,0,0,71.8-3.551v-2.6H70.1q-3.984,0-3.984,2.332a1.974,1.974,0,0,0,.68,1.594A2.612,2.612,0,0,0,68.543-1.652ZM84.75-3.363a1.6,1.6,0,0,0-.662-1.365,6.373,6.373,0,0,0-2.309-.838,10.915,10.915,0,0,1-2.613-.844,3.718,3.718,0,0,1-1.43-1.172A2.8,2.8,0,0,1,77.273-9.2a3.289,3.289,0,0,1,1.318-2.637,5.149,5.149,0,0,1,3.369-1.078,5.3,5.3,0,0,1,3.5,1.113A3.536,3.536,0,0,1,86.8-8.953h-2.18a1.957,1.957,0,0,0-.756-1.535,2.832,2.832,0,0,0-1.9-.645,2.964,2.964,0,0,0-1.852.516,1.623,1.623,0,0,0-.668,1.348,1.315,1.315,0,0,0,.621,1.184,7.642,7.642,0,0,0,2.244.762,11.693,11.693,0,0,1,2.631.867,3.838,3.838,0,0,1,1.494,1.213,2.982,2.982,0,0,1,.486,1.729A3.245,3.245,0,0,1,85.559-.791,5.7,5.7,0,0,1,82.031.234a6.385,6.385,0,0,1-2.7-.539A4.384,4.384,0,0,1,77.5-1.811,3.629,3.629,0,0,1,76.84-3.9h2.168a2.245,2.245,0,0,0,.873,1.729,3.387,3.387,0,0,0,2.15.639,3.5,3.5,0,0,0,1.975-.5A1.53,1.53,0,0,0,84.75-3.363Z" transform="translate(678.325 442.401)" fill="#12263f"/>
      <g id="Grupo-2" data-name="Grupo" transform="translate(399.235 392.343)">
        <path id="Trazado_135532" data-name="Trazado 135532" d="M14.3-5.447a5.786,5.786,0,0,1-1.948,4.155A6.843,6.843,0,0,1,7.715.225,6.153,6.153,0,0,1,2.768-1.892,8.68,8.68,0,0,1,.966-7.7v-1A9.8,9.8,0,0,1,1.8-12.859a6.228,6.228,0,0,1,2.375-2.757,6.654,6.654,0,0,1,3.588-.96,6.666,6.666,0,0,1,4.56,1.516,6.218,6.218,0,0,1,2,4.256H10.95a3.415,3.415,0,0,0-.882-2.3,3.265,3.265,0,0,0-2.308-.713,2.863,2.863,0,0,0-2.521,1.207A6.766,6.766,0,0,0,4.38-8.861v1.235a7.242,7.242,0,0,0,.8,3.875A2.81,2.81,0,0,0,7.715-2.527a3.326,3.326,0,0,0,2.33-.713,3.221,3.221,0,0,0,.882-2.207ZM19.721,0H16.464V-12.151h3.257ZM16.273-15.3a1.6,1.6,0,0,1,.489-1.2,1.835,1.835,0,0,1,1.331-.472,1.839,1.839,0,0,1,1.325.472,1.589,1.589,0,0,1,.494,1.2,1.593,1.593,0,0,1-.5,1.213,1.844,1.844,0,0,1-1.32.472,1.844,1.844,0,0,1-1.32-.472A1.593,1.593,0,0,1,16.273-15.3Zm11.174,12.9a2.129,2.129,0,0,0,1.46-.494A1.731,1.731,0,0,0,29.491-4.2h3.043a4.163,4.163,0,0,1-.674,2.263A4.446,4.446,0,0,1,30.047-.343,5.676,5.676,0,0,1,27.5.225a5.275,5.275,0,0,1-4.11-1.656,6.555,6.555,0,0,1-1.5-4.576v-.213A6.48,6.48,0,0,1,23.382-10.7a5.214,5.214,0,0,1,4.1-1.673,5.111,5.111,0,0,1,3.656,1.3,4.593,4.593,0,0,1,1.4,3.453H29.491a2.23,2.23,0,0,0-.584-1.541,1.947,1.947,0,0,0-1.482-.593,1.955,1.955,0,0,0-1.713.827,4.791,4.791,0,0,0-.578,2.683v.337a4.852,4.852,0,0,0,.573,2.7A1.979,1.979,0,0,0,27.447-2.392ZM37.813,0H34.556V-17.25h3.257ZM39.98-6.188a7.206,7.206,0,0,1,.7-3.223,5.1,5.1,0,0,1,2-2.19,5.849,5.849,0,0,1,3.038-.775,5.533,5.533,0,0,1,4.015,1.5,6.04,6.04,0,0,1,1.735,4.088l.022.831a6.351,6.351,0,0,1-1.561,4.487A5.426,5.426,0,0,1,45.742.225,5.453,5.453,0,0,1,41.547-1.46,6.463,6.463,0,0,1,39.98-6.042Zm3.246.23a4.542,4.542,0,0,0,.651,2.649,2.149,2.149,0,0,0,1.864.917A2.154,2.154,0,0,0,47.583-3.3a4.97,4.97,0,0,0,.663-2.9,4.5,4.5,0,0,0-.663-2.632,2.154,2.154,0,0,0-1.864-.934,2.119,2.119,0,0,0-1.842.928A5.054,5.054,0,0,0,43.226-5.958Zm15.487-.208a7.323,7.323,0,0,1,1.275-4.526,4.136,4.136,0,0,1,3.487-1.685,3.722,3.722,0,0,1,2.931,1.325v-6.2h3.257V0H66.731l-.157-1.292A3.819,3.819,0,0,1,63.452.225a4.125,4.125,0,0,1-3.442-1.69A7.559,7.559,0,0,1,58.713-6.166Zm3.246.231a4.823,4.823,0,0,0,.6,2.629,1.937,1.937,0,0,0,1.729.914,2.171,2.171,0,0,0,2.123-1.275V-8.484a2.14,2.14,0,0,0-2.1-1.275Q61.958-9.759,61.958-5.935ZM77.771.225a5.965,5.965,0,0,1-4.352-1.64A5.828,5.828,0,0,1,71.74-5.784V-6.1a7.341,7.341,0,0,1,.708-3.274,5.192,5.192,0,0,1,2-2.224,5.627,5.627,0,0,1,2.959-.781A5.043,5.043,0,0,1,81.337-10.8a6.389,6.389,0,0,1,1.432,4.458V-5.02H75.031a3.015,3.015,0,0,0,.949,1.909,2.869,2.869,0,0,0,2,.719,3.5,3.5,0,0,0,2.931-1.359L82.51-1.965A4.872,4.872,0,0,1,80.534-.354,6.485,6.485,0,0,1,77.771.225ZM77.4-9.759a2.028,2.028,0,0,0-1.567.654,3.388,3.388,0,0,0-.769,1.873h4.515v-.26A2.416,2.416,0,0,0,79-9.167,2.092,2.092,0,0,0,77.4-9.759Z" transform="translate(12.845 22)" fill="#12263f"/>
        <path id="Trazado_135534" data-name="Trazado 135534" d="M5.039-6.012V0H1.523V-17.062H8.18a7.7,7.7,0,0,1,3.381.7,5.181,5.181,0,0,1,2.244,2,5.571,5.571,0,0,1,.785,2.947,4.9,4.9,0,0,1-1.717,3.955A7.15,7.15,0,0,1,8.121-6.012Zm0-2.848H8.18a3.088,3.088,0,0,0,2.127-.656,2.387,2.387,0,0,0,.732-1.875,2.814,2.814,0,0,0-.738-2.027,2.758,2.758,0,0,0-2.039-.8H5.039Z" transform="translate(0 51.889)" fill="#12263f"/>
        <path id="Trazado_135533" data-name="Trazado 135533" d="M8.075-9.108A8.818,8.818,0,0,0,6.907-9.2,2.377,2.377,0,0,0,4.492-7.951V0H1.247V-12.151H4.313L4.4-10.7a3.007,3.007,0,0,1,2.707-1.673,3.4,3.4,0,0,1,1.011.146Z" transform="translate(15.528 50.889)" fill="#12263f"/>
        <path id="Trazado_135535" data-name="Trazado 135535" d="M.741-6.188a7.206,7.206,0,0,1,.7-3.223,5.1,5.1,0,0,1,2-2.19,5.849,5.849,0,0,1,3.038-.775,5.533,5.533,0,0,1,4.015,1.5A6.04,6.04,0,0,1,12.23-6.783l.022.831a6.351,6.351,0,0,1-1.561,4.487A5.426,5.426,0,0,1,6.5.225,5.453,5.453,0,0,1,2.308-1.46,6.463,6.463,0,0,1,.741-6.042Zm3.246.23a4.542,4.542,0,0,0,.651,2.649A2.149,2.149,0,0,0,6.5-2.392,2.154,2.154,0,0,0,8.344-3.3a4.97,4.97,0,0,0,.663-2.9,4.5,4.5,0,0,0-.663-2.632A2.154,2.154,0,0,0,6.48-9.759a2.119,2.119,0,0,0-1.842.928A5.054,5.054,0,0,0,3.987-5.958Z" transform="translate(23.885 50.889)" fill="#12263f"/>
        <path id="Trazado_135536" data-name="Trazado 135536" d="M4.909-14.48v2.857H6.9v2.277H4.909v5.8a1.385,1.385,0,0,0,.247.924,1.241,1.241,0,0,0,.945.279,4.951,4.951,0,0,0,.913-.075V-.064a6.391,6.391,0,0,1-1.88.279q-3.266,0-3.33-3.3V-9.346H.107v-2.277H1.8V-14.48Z" transform="translate(37.496 49.889)" fill="#12263f"/>
        <path id="Trazado_135531" data-name="Trazado 135531" d="M.773-6.457A7.52,7.52,0,0,1,1.5-9.82a5.319,5.319,0,0,1,2.092-2.285,6.1,6.1,0,0,1,3.17-.809,5.774,5.774,0,0,1,4.189,1.57,6.3,6.3,0,0,1,1.811,4.266l.023.867a6.627,6.627,0,0,1-1.629,4.682A5.662,5.662,0,0,1,6.785.234,5.69,5.69,0,0,1,2.408-1.523,6.744,6.744,0,0,1,.773-6.3Zm3.387.24a4.74,4.74,0,0,0,.68,2.764A2.242,2.242,0,0,0,6.785-2.5a2.247,2.247,0,0,0,1.922-.945A5.186,5.186,0,0,0,9.4-6.463a4.692,4.692,0,0,0-.691-2.746,2.248,2.248,0,0,0-1.945-.974,2.211,2.211,0,0,0-1.922.968A5.274,5.274,0,0,0,4.16-6.217ZM18.926-15.8v3.117h2.168V-10.2H18.926v6.328a1.511,1.511,0,0,0,.27,1.008,1.354,1.354,0,0,0,1.031.3,5.4,5.4,0,0,0,1-.082V-.07a6.972,6.972,0,0,1-2.051.3q-3.562,0-3.633-3.6V-10.2H13.688V-12.68h1.852V-15.8ZM26.555,0h-3.4V-12.68h3.4Zm-3.6-15.961a1.668,1.668,0,0,1,.51-1.254,1.915,1.915,0,0,1,1.389-.492,1.919,1.919,0,0,1,1.383.492,1.658,1.658,0,0,1,.516,1.254,1.663,1.663,0,0,1-.521,1.266,1.924,1.924,0,0,1-1.377.492,1.924,1.924,0,0,1-1.377-.492A1.663,1.663,0,0,1,22.957-15.961Zm17.8,9.738a7.6,7.6,0,0,1-1.33,4.693A4.264,4.264,0,0,1,35.836.234,3.95,3.95,0,0,1,32.73-1.1V4.875H29.344V-12.68h3.141l.117,1.242a3.98,3.98,0,0,1,3.211-1.477,4.294,4.294,0,0,1,3.645,1.734,7.811,7.811,0,0,1,1.3,4.781Zm-3.387-.258a5.018,5.018,0,0,0-.627-2.739,2.04,2.04,0,0,0-1.822-.964A2.217,2.217,0,0,0,32.73-8.961v5.207A2.254,2.254,0,0,0,34.945-2.5Q37.371-2.5,37.371-6.481Zm4.957.024a7.52,7.52,0,0,1,.727-3.363,5.319,5.319,0,0,1,2.092-2.285,6.1,6.1,0,0,1,3.17-.809,5.774,5.774,0,0,1,4.189,1.57,6.3,6.3,0,0,1,1.811,4.266l.023.867a6.627,6.627,0,0,1-1.629,4.682A5.662,5.662,0,0,1,48.34.234a5.69,5.69,0,0,1-4.377-1.758A6.744,6.744,0,0,1,42.328-6.3Zm3.387.24a4.74,4.74,0,0,0,.68,2.764A2.242,2.242,0,0,0,48.34-2.5a2.247,2.247,0,0,0,1.922-.945,5.186,5.186,0,0,0,.691-3.022,4.692,4.692,0,0,0-.691-2.746,2.248,2.248,0,0,0-1.945-.974,2.211,2.211,0,0,0-1.922.968A5.274,5.274,0,0,0,45.715-6.217ZM63.293-3.5a1.091,1.091,0,0,0-.615-.979A6.989,6.989,0,0,0,60.7-5.121Q56.18-6.07,56.18-8.965a3.484,3.484,0,0,1,1.4-2.818,5.649,5.649,0,0,1,3.662-1.131A6.08,6.08,0,0,1,65.1-11.777a3.582,3.582,0,0,1,1.447,2.953H63.164a1.639,1.639,0,0,0-.469-1.2A1.984,1.984,0,0,0,61.23-10.5a2.027,2.027,0,0,0-1.324.387,1.221,1.221,0,0,0-.469.984,1.044,1.044,0,0,0,.533.908,5.485,5.485,0,0,0,1.8.6,14.693,14.693,0,0,1,2.133.568q2.684.984,2.684,3.41A3.307,3.307,0,0,1,65.1-.838,6.42,6.42,0,0,1,61.254.234a6.706,6.706,0,0,1-2.83-.568,4.748,4.748,0,0,1-1.939-1.559,3.621,3.621,0,0,1-.7-2.139h3.211a1.768,1.768,0,0,0,.668,1.383,2.649,2.649,0,0,0,1.664.48,2.452,2.452,0,0,0,1.471-.369A1.149,1.149,0,0,0,63.293-3.5Z" transform="translate(45.277 51.889)" fill="#12263f"/>
      </g>
      <path id="Trazado_135542" data-name="Trazado 135542" d="M4.395,0H2.145V-17.062h2.25Zm5.813-12.68.059,1.406a4.683,4.683,0,0,1,3.762-1.641,3.625,3.625,0,0,1,3.621,2.039,4.8,4.8,0,0,1,1.646-1.477,4.863,4.863,0,0,1,2.4-.562q4.172,0,4.242,4.418V0H23.766V-8.367a2.911,2.911,0,0,0-.621-2.033,2.735,2.735,0,0,0-2.086-.674,2.875,2.875,0,0,0-2,.721,2.924,2.924,0,0,0-.926,1.939V0h-2.18V-8.309q0-2.766-2.707-2.766a2.9,2.9,0,0,0-2.918,1.816V0H8.156V-12.68ZM39.914-6.2A7.592,7.592,0,0,1,38.59-1.535,4.244,4.244,0,0,1,35,.234,4.65,4.65,0,0,1,31.371-1.23V4.875H29.2V-12.68h1.98l.105,1.406a4.466,4.466,0,0,1,3.68-1.641,4.324,4.324,0,0,1,3.615,1.723A7.675,7.675,0,0,1,39.914-6.4Zm-2.168-.246a5.6,5.6,0,0,0-.914-3.387,2.945,2.945,0,0,0-2.508-1.242,3.187,3.187,0,0,0-2.953,1.746V-3.27a3.193,3.193,0,0,0,2.977,1.734,2.931,2.931,0,0,0,2.479-1.236A6.115,6.115,0,0,0,37.746-6.445ZM45.023,0H42.855V-18h2.168Zm8.73.234a5.54,5.54,0,0,1-4.2-1.693,6.285,6.285,0,0,1-1.617-4.529v-.4a7.609,7.609,0,0,1,.721-3.369,5.622,5.622,0,0,1,2.016-2.32,5.068,5.068,0,0,1,2.807-.838,4.749,4.749,0,0,1,3.844,1.629A7.053,7.053,0,0,1,58.7-6.621v.9h-8.59a4.507,4.507,0,0,0,1.1,3.029,3.444,3.444,0,0,0,2.666,1.154A3.776,3.776,0,0,0,55.816-2a4.888,4.888,0,0,0,1.395-1.242l1.324,1.031A5.325,5.325,0,0,1,53.754.234Zm-.27-11.367a2.892,2.892,0,0,0-2.2.955A4.642,4.642,0,0,0,50.18-7.5h6.352v-.164a4.129,4.129,0,0,0-.891-2.561A2.723,2.723,0,0,0,53.484-11.133Zm9.762-1.547.059,1.406a4.683,4.683,0,0,1,3.762-1.641,3.625,3.625,0,0,1,3.621,2.039,4.8,4.8,0,0,1,1.646-1.477,4.863,4.863,0,0,1,2.4-.562q4.172,0,4.242,4.418V0H76.8V-8.367a2.911,2.911,0,0,0-.621-2.033,2.735,2.735,0,0,0-2.086-.674,2.875,2.875,0,0,0-2,.721,2.924,2.924,0,0,0-.926,1.939V0h-2.18V-8.309q0-2.766-2.707-2.766a2.9,2.9,0,0,0-2.918,1.816V0H61.2V-12.68ZM87.5.234a5.54,5.54,0,0,1-4.2-1.693,6.285,6.285,0,0,1-1.617-4.529v-.4a7.609,7.609,0,0,1,.721-3.369,5.622,5.622,0,0,1,2.016-2.32,5.068,5.068,0,0,1,2.807-.838,4.749,4.749,0,0,1,3.844,1.629,7.053,7.053,0,0,1,1.371,4.664v.9h-8.59a4.507,4.507,0,0,0,1.1,3.029,3.444,3.444,0,0,0,2.666,1.154A3.776,3.776,0,0,0,89.566-2a4.888,4.888,0,0,0,1.395-1.242l1.324,1.031A5.325,5.325,0,0,1,87.5.234Zm-.27-11.367a2.892,2.892,0,0,0-2.2.955A4.642,4.642,0,0,0,83.93-7.5h6.352v-.164a4.129,4.129,0,0,0-.891-2.561A2.723,2.723,0,0,0,87.234-11.133Zm9.773-1.547.07,1.594a4.621,4.621,0,0,1,3.8-1.828q4.02,0,4.055,4.535V0h-2.168V-8.391a2.919,2.919,0,0,0-.627-2.027,2.512,2.512,0,0,0-1.916-.656,3.129,3.129,0,0,0-1.852.563,3.82,3.82,0,0,0-1.242,1.477V0H94.957V-12.68Zm14.133-3.07v3.07h2.367V-11h-2.367v7.873a1.76,1.76,0,0,0,.316,1.144,1.332,1.332,0,0,0,1.078.381,5.249,5.249,0,0,0,1.031-.141V0A6.322,6.322,0,0,1,111.9.234a2.7,2.7,0,0,1-2.191-.879,3.776,3.776,0,0,1-.738-2.5V-11h-2.309V-12.68h2.309v-3.07ZM123.867,0a4.554,4.554,0,0,1-.3-1.336,4.837,4.837,0,0,1-3.609,1.57,4.476,4.476,0,0,1-3.076-1.061,3.431,3.431,0,0,1-1.2-2.689,3.584,3.584,0,0,1,1.506-3.076,7.1,7.1,0,0,1,4.236-1.1h2.109v-1a2.435,2.435,0,0,0-.68-1.811,2.732,2.732,0,0,0-2-.674,3.161,3.161,0,0,0-1.945.586,1.727,1.727,0,0,0-.785,1.418h-2.18A2.992,2.992,0,0,1,116.607-11a4.6,4.6,0,0,1,1.828-1.4,6.15,6.15,0,0,1,2.537-.516,5.013,5.013,0,0,1,3.434,1.1A3.953,3.953,0,0,1,125.7-8.8v5.836a7.135,7.135,0,0,0,.445,2.777V0Zm-3.6-1.652A3.81,3.81,0,0,0,122.2-2.18a3.19,3.19,0,0,0,1.324-1.371v-2.6h-1.7q-3.984,0-3.984,2.332a1.974,1.974,0,0,0,.68,1.594A2.612,2.612,0,0,0,120.27-1.652Zm13.91.117a3.123,3.123,0,0,0,2.027-.7A2.474,2.474,0,0,0,137.168-4h2.051a3.931,3.931,0,0,1-.75,2.074,4.94,4.94,0,0,1-1.846,1.57,5.326,5.326,0,0,1-2.443.586,5.223,5.223,0,0,1-4.119-1.729,6.884,6.884,0,0,1-1.529-4.729v-.363a7.634,7.634,0,0,1,.68-3.293,5.177,5.177,0,0,1,1.951-2.238,5.543,5.543,0,0,1,3.006-.8,5.085,5.085,0,0,1,3.545,1.277,4.565,4.565,0,0,1,1.506,3.316h-2.051a2.988,2.988,0,0,0-.932-2.021,2.9,2.9,0,0,0-2.068-.791,3.034,3.034,0,0,0-2.561,1.189A5.586,5.586,0,0,0,130.7-6.5v.41a5.475,5.475,0,0,0,.9,3.375A3.049,3.049,0,0,0,134.18-1.535ZM144.012,0h-2.168V-12.68h2.168Zm-2.344-16.043a1.294,1.294,0,0,1,.322-.891,1.21,1.21,0,0,1,.955-.363,1.229,1.229,0,0,1,.961.363,1.28,1.28,0,0,1,.328.891,1.238,1.238,0,0,1-.328.879,1.251,1.251,0,0,1-.961.352,1.232,1.232,0,0,1-.955-.352A1.251,1.251,0,0,1,141.668-16.043Zm5.238,9.586a7.489,7.489,0,0,1,.732-3.352,5.464,5.464,0,0,1,2.039-2.3,5.551,5.551,0,0,1,2.982-.809,5.347,5.347,0,0,1,4.189,1.793,6.9,6.9,0,0,1,1.6,4.77V-6.2a7.555,7.555,0,0,1-.709,3.322,5.383,5.383,0,0,1-2.027,2.291,5.614,5.614,0,0,1-3.029.82,5.334,5.334,0,0,1-4.178-1.793,6.863,6.863,0,0,1-1.6-4.746Zm2.18.258a5.424,5.424,0,0,0,.979,3.387,3.132,3.132,0,0,0,2.619,1.277,3.113,3.113,0,0,0,2.625-1.295,5.932,5.932,0,0,0,.973-3.627,5.415,5.415,0,0,0-.99-3.381,3.148,3.148,0,0,0-2.631-1.295,3.113,3.113,0,0,0-2.59,1.277A5.888,5.888,0,0,0,149.086-6.2Zm4.559-11.777h2.625l-3.141,3.445-1.746-.006Zm9.574,5.3.07,1.594a4.621,4.621,0,0,1,3.8-1.828q4.02,0,4.055,4.535V0h-2.168V-8.391a2.919,2.919,0,0,0-.627-2.027,2.512,2.512,0,0,0-1.916-.656,3.129,3.129,0,0,0-1.852.563,3.82,3.82,0,0,0-1.242,1.477V0h-2.168V-12.68Z" transform="translate(861.031 442.401)" fill="#12263f"/>
    </g>
  </g>
</svg>
