<svg xmlns="http://www.w3.org/2000/svg" xmlns:xlink="http://www.w3.org/1999/xlink" width="102.44" height="102.47" viewBox="0 0 102.44 102.47">
  <defs>
    <linearGradient id="linear-gradient" x1="-6.84" y1="26.182" x2="-6.21" y2="24.987" gradientUnits="objectBoundingBox">
      <stop offset="0" stop-color="#996233"/>
      <stop offset="0.13" stop-color="#935e31"/>
      <stop offset="0.3" stop-color="#81522b"/>
      <stop offset="0.51" stop-color="#633f21"/>
      <stop offset="0.73" stop-color="#3a2513"/>
      <stop offset="0.98" stop-color="#050402"/>
      <stop offset="1"/>
    </linearGradient>
    <linearGradient id="linear-gradient-2" x1="-6.555" y1="25.146" x2="-5.995" y2="23.941" xlink:href="#linear-gradient"/>
  </defs>
  <g id="Capa_1" data-name="Capa 1" transform="translate(-8.78 -8.78)">
    <g id="Grupo_80752" data-name="Grupo 80752">
      <circle id="Elipse_5434" data-name="Elipse 5434" cx="51.22" cy="51.22" r="51.22" transform="translate(8.78 8.78)" fill="#1565b8"/>
      <g id="Grupo_80751" data-name="Grupo 80751">
        <path id="Trazado_121338" data-name="Trazado 121338" d="M57.48,72.47c.22,2-3,11.39-3.16,13.4,2.13.33,6.79.4,8.88.62,1.73.19,4.06-6.77,5.79-6.58,1-2.52,2.1-5,3.09-7.56a135.7,135.7,0,0,0-14.6.12Z" fill="#ed8c73"/>
        <path id="Trazado_121339" data-name="Trazado 121339" d="M78.37,76.07c-.72-3.13-4.6-3.36-6.51-3.9C71.48,74,57,86.12,57,86.12s1-11.38,1.91-13.85c-.42-.06-4.69.75-5.06.73,0,0-2.41,4.11-5.31,8.33-1.24,1.8-4.48,3.77-4.48,8.44a40.67,40.67,0,0,0,1.15,8.67s-1.18,3.72-3,9.63a51.35,51.35,0,0,0,29.66,1.74c-1-1.37-1.82-2.65-1.82-3.23C70.1,100.05,81.67,90.28,78.37,76.07Z" fill="#fff"/>
        <path id="Trazado_121340" data-name="Trazado 121340" d="M78.56,75.8c-2.06,5.92-5,11.93-10,14.31-10.47,5-25.14,1.34-26.14-.79,0,4.52,2.85,9.12,2.85,9.12s-1.18,3.72-3,9.63a51.35,51.35,0,0,0,29.66,1.74c-1-1.37-1.82-2.65-1.82-3.23C70.1,100.51,79.82,88.82,78.56,75.8Z" fill="#704c9c" opacity="0.05"/>
        <path id="Trazado_121341" data-name="Trazado 121341" d="M64.89,59.45a4.85,4.85,0,0,0-4.39,4.78l-.41,9.61a5,5,0,0,0,5.14,4.49,4.86,4.86,0,0,0,4.39-4.79l-1.27-9.47C68.3,61.67,67.35,59.22,64.89,59.45Z" fill="#ed8c73"/>
        <path id="Trazado_121342" data-name="Trazado 121342" d="M44.34,44.08c-2,.57-3,3.46-2.27,6.44s3,4.94,5.07,4.36,3-3.47,2.27-6.45S46.37,43.5,44.34,44.08Z" fill="#ed8c73"/>
        <path id="Trazado_121343" data-name="Trazado 121343" d="M66.89,20.6a18.75,18.75,0,0,0-6.44.71,22,22,0,0,0-11.39,8.36,24.83,24.83,0,0,0-2.2,3.59l-.09.18C41.26,44.58,43.4,69.39,61,70.5c10.47.66,21-10.94,22.26-22.53C84.57,36,79.79,21.35,66.89,20.6Z" fill="#f9a184"/>
        <g id="Grupo_80746" data-name="Grupo 80746" opacity="0.58">
          <path id="Trazado_121344" data-name="Trazado 121344" d="M52.41,43.59a7.61,7.61,0,1,0,7.18,8,7.61,7.61,0,0,0-7.18-8Z" fill="#f9a184"/>
          <path id="Trazado_121345" data-name="Trazado 121345" d="M52.4,43.64a7.56,7.56,0,1,0,5.234,2.515A7.56,7.56,0,0,0,52.4,43.64Z" fill="#f9a083"/>
          <path id="Trazado_121346" data-name="Trazado 121346" d="M52.4,43.69a7.5,7.5,0,1,0,5.189,2.477A7.51,7.51,0,0,0,52.4,43.69Z" fill="#f99f82"/>
          <path id="Trazado_121347" data-name="Trazado 121347" d="M52.4,43.73A7.46,7.46,0,1,0,57.555,46.2,7.47,7.47,0,0,0,52.4,43.73Z" fill="#f99e82"/>
          <path id="Trazado_121348" data-name="Trazado 121348" d="M52.4,43.78a7.42,7.42,0,1,0,7,7.81,7.42,7.42,0,0,0-7-7.81Z" fill="#f99d81"/>
          <path id="Trazado_121349" data-name="Trazado 121349" d="M52.39,43.83A7.36,7.36,0,1,0,57.5,46.248,7.37,7.37,0,0,0,52.39,43.83Z" fill="#f99c80"/>
          <path id="Trazado_121350" data-name="Trazado 121350" d="M52.39,43.87a7.32,7.32,0,1,0,5.059,2.42,7.33,7.33,0,0,0-5.059-2.42Z" fill="#f89b7f"/>
          <path id="Trazado_121351" data-name="Trazado 121351" d="M52.39,43.92a7.28,7.28,0,1,0,6.87,7.66A7.28,7.28,0,0,0,52.39,43.92Z" fill="#f89a7f"/>
          <path id="Trazado_121352" data-name="Trazado 121352" d="M52.39,44a7.22,7.22,0,1,0,4.988,2.391A7.23,7.23,0,0,0,52.39,44Z" fill="#f8997e"/>
          <path id="Trazado_121353" data-name="Trazado 121353" d="M52.38,44a7.18,7.18,0,1,0,4.962,2.372A7.19,7.19,0,0,0,52.38,44Z" fill="#f8987d"/>
          <path id="Trazado_121354" data-name="Trazado 121354" d="M52.38,44.06a7.14,7.14,0,1,0,6.74,7.51,7.14,7.14,0,0,0-6.74-7.51Z" fill="#f8977c"/>
          <path id="Trazado_121355" data-name="Trazado 121355" d="M52.38,44.11a7.08,7.08,0,1,0,4.892,2.343A7.09,7.09,0,0,0,52.38,44.11Z" fill="#f8967b"/>
          <path id="Trazado_121356" data-name="Trazado 121356" d="M52.38,44.16a7,7,0,1,0,4.853,2.327A7,7,0,0,0,52.38,44.16Z" fill="#f8957b"/>
          <path id="Trazado_121357" data-name="Trazado 121357" d="M52.37,44.2a7,7,0,1,0,4.841,2.306A7,7,0,0,0,52.37,44.2Z" fill="#f8947a"/>
          <path id="Trazado_121358" data-name="Trazado 121358" d="M52.37,44.25a6.95,6.95,0,1,0,6.56,7.31A6.95,6.95,0,0,0,52.37,44.25Z" fill="#f89379"/>
          <path id="Trazado_121359" data-name="Trazado 121359" d="M52.37,44.3a6.89,6.89,0,1,0,4.767,2.277A6.9,6.9,0,0,0,52.37,44.3Z" fill="#f89278"/>
          <path id="Trazado_121360" data-name="Trazado 121360" d="M52.37,44.34a6.85,6.85,0,1,0,6.47,7.21A6.85,6.85,0,0,0,52.37,44.34Z" fill="#f89178"/>
          <path id="Trazado_121361" data-name="Trazado 121361" d="M52.36,44.39a6.8,6.8,0,1,0,6.43,7.16A6.8,6.8,0,0,0,52.36,44.39Z" fill="#f89077"/>
          <path id="Trazado_121362" data-name="Trazado 121362" d="M52.36,44.44a6.75,6.75,0,1,0,4.67,2.229A6.75,6.75,0,0,0,52.36,44.44Z" fill="#f78f76"/>
          <path id="Trazado_121363" data-name="Trazado 121363" d="M52.36,44.48A6.7,6.7,0,1,0,57,46.7,6.71,6.71,0,0,0,52.36,44.48Z" fill="#f78e75"/>
          <path id="Trazado_121364" data-name="Trazado 121364" d="M52.36,44.53a6.66,6.66,0,1,0,6.29,7,6.66,6.66,0,0,0-6.29-7Z" fill="#f78d74"/>
          <path id="Trazado_121365" data-name="Trazado 121365" d="M52.35,44.58a6.61,6.61,0,1,0,4.583,2.2,6.61,6.61,0,0,0-4.583-2.2Z" fill="#f78c74"/>
          <path id="Trazado_121366" data-name="Trazado 121366" d="M52.35,44.62a6.57,6.57,0,1,0,4.54,2.173A6.57,6.57,0,0,0,52.35,44.62Z" fill="#f78b73"/>
          <path id="Trazado_121367" data-name="Trazado 121367" d="M52.35,44.67a6.52,6.52,0,1,0,6.16,6.87,6.52,6.52,0,0,0-6.16-6.87Z" fill="#f78a72"/>
          <path id="Trazado_121368" data-name="Trazado 121368" d="M52.35,44.72a6.46,6.46,0,1,0,4.468,2.137A6.47,6.47,0,0,0,52.35,44.72Z" fill="#f78971"/>
          <path id="Trazado_121369" data-name="Trazado 121369" d="M52.34,44.76a6.43,6.43,0,1,0,4.443,2.125A6.43,6.43,0,0,0,52.34,44.76Z" fill="#f78871"/>
          <path id="Trazado_121370" data-name="Trazado 121370" d="M52.34,44.81a6.38,6.38,0,1,0,6,6.72A6.38,6.38,0,0,0,52.34,44.81Z" fill="#f78770"/>
          <path id="Trazado_121371" data-name="Trazado 121371" d="M52.34,44.86a6.33,6.33,0,1,0,4.386,2.089A6.33,6.33,0,0,0,52.34,44.86Z" fill="#f7866f"/>
          <path id="Trazado_121372" data-name="Trazado 121372" d="M52.34,44.91a6.28,6.28,0,1,0,4.34,2.074,6.29,6.29,0,0,0-4.34-2.074Z" fill="#f7856e"/>
          <path id="Trazado_121373" data-name="Trazado 121373" d="M52.33,45a6.24,6.24,0,1,0,5.9,6.57A6.24,6.24,0,0,0,52.33,45Z" fill="#f6846d"/>
          <path id="Trazado_121374" data-name="Trazado 121374" d="M52.33,45a6.19,6.19,0,1,0,4.277,2.047A6.19,6.19,0,0,0,52.33,45Z" fill="#f6836d"/>
          <path id="Trazado_121375" data-name="Trazado 121375" d="M52.33,45.05a6.14,6.14,0,1,0,4.248,2.029A6.14,6.14,0,0,0,52.33,45.05Z" fill="#f6826c"/>
          <path id="Trazado_121376" data-name="Trazado 121376" d="M52.33,45.09a6.1,6.1,0,1,0,5.76,6.42,6.1,6.1,0,0,0-5.76-6.42Z" fill="#f6816b"/>
          <path id="Trazado_121377" data-name="Trazado 121377" d="M52.32,45.14A6.05,6.05,0,1,0,58,51.51a6.05,6.05,0,0,0-5.68-6.37Z" fill="#f6806a"/>
          <circle id="Elipse_5435" data-name="Elipse 5435" cx="6.01" cy="6.01" r="6.01" transform="matrix(0.245, -0.97, 0.97, 0.245, 44.708, 55.55)" fill="#f67f6a"/>
          <circle id="Elipse_5436" data-name="Elipse 5436" cx="5.96" cy="5.96" r="5.96" transform="matrix(0.269, -0.963, 0.963, 0.269, 44.659, 55.329)" fill="#f67e69"/>
          <circle id="Elipse_5437" data-name="Elipse 5437" cx="5.91" cy="5.91" r="5.91" transform="matrix(0.291, -0.957, 0.957, 0.291, 44.629, 55.123)" fill="#f67d68"/>
          <circle id="Elipse_5438" data-name="Elipse 5438" cx="5.87" cy="5.87" r="5.87" transform="matrix(0.312, -0.95, 0.95, 0.312, 44.59, 54.933)" fill="#f67c67"/>
          <circle id="Elipse_5439" data-name="Elipse 5439" cx="5.82" cy="5.82" r="5.82" transform="translate(44.588 54.752) rotate(-70.65)" fill="#f67b66"/>
          <circle id="Elipse_5440" data-name="Elipse 5440" cx="5.77" cy="5.77" r="5.77" transform="matrix(0.349, -0.937, 0.937, 0.349, 44.585, 54.573)" fill="#f67a66"/>
          <circle id="Elipse_5441" data-name="Elipse 5441" cx="5.73" cy="5.73" r="5.73" transform="translate(44.576 54.429) rotate(-68.54)" fill="#f67965"/>
          <circle id="Elipse_5442" data-name="Elipse 5442" cx="5.68" cy="5.68" r="5.68" transform="translate(44.587 54.267) rotate(-67.6)" fill="#f57964"/>
          <circle id="Elipse_5443" data-name="Elipse 5443" cx="5.63" cy="5.63" r="5.63" transform="matrix(0.395, -0.919, 0.919, 0.395, 44.612, 54.132)" fill="#f57863"/>
          <circle id="Elipse_5444" data-name="Elipse 5444" cx="5.59" cy="5.59" r="5.59" transform="translate(44.62 54.006) rotate(-65.89)" fill="#f57763"/>
          <circle id="Elipse_5445" data-name="Elipse 5445" cx="5.54" cy="5.54" r="5.54" transform="translate(44.65 53.878) rotate(-65.12)" fill="#f57662"/>
          <circle id="Elipse_5446" data-name="Elipse 5446" cx="5.49" cy="5.49" r="5.49" transform="translate(44.68 53.762) rotate(-64.4)" fill="#f57561"/>
          <circle id="Elipse_5447" data-name="Elipse 5447" cx="5.44" cy="5.44" r="5.44" transform="translate(44.712 53.648) rotate(-63.73)" fill="#f57460"/>
          <circle id="Elipse_5448" data-name="Elipse 5448" cx="5.4" cy="5.4" r="5.4" transform="translate(44.739 53.559) rotate(-63.1)" fill="#f5735f"/>
          <circle id="Elipse_5449" data-name="Elipse 5449" cx="5.35" cy="5.35" r="5.35" transform="translate(44.787 53.457) rotate(-62.51)" fill="#f5725f"/>
          <circle id="Elipse_5450" data-name="Elipse 5450" cx="5.3" cy="5.3" r="5.3" transform="translate(44.83 53.375) rotate(-61.95)" fill="#f5715e"/>
          <circle id="Elipse_5451" data-name="Elipse 5451" cx="5.26" cy="5.26" r="5.26" transform="translate(44.87 53.297) rotate(-61.43)" fill="#f5705d"/>
          <circle id="Elipse_5452" data-name="Elipse 5452" cx="5.21" cy="5.21" r="5.21" transform="translate(44.919 53.214) rotate(-60.94)" fill="#f56f5c"/>
          <circle id="Elipse_5453" data-name="Elipse 5453" cx="5.16" cy="5.16" r="5.16" transform="translate(44.974 53.131) rotate(-60.48)" fill="#f56e5c"/>
          <circle id="Elipse_5454" data-name="Elipse 5454" cx="5.12" cy="5.12" r="5.12" transform="translate(45.012 53.06) rotate(-60.05)" fill="#f46d5b"/>
          <circle id="Elipse_5455" data-name="Elipse 5455" cx="5.07" cy="5.07" r="5.07" transform="translate(45.068 52.997) rotate(-59.63)" fill="#f46c5a"/>
          <circle id="Elipse_5456" data-name="Elipse 5456" cx="5.02" cy="5.02" r="5.02" transform="translate(45.119 52.931) rotate(-59.25)" fill="#f46b59"/>
          <circle id="Elipse_5457" data-name="Elipse 5457" cx="4.98" cy="4.98" r="4.98" transform="matrix(0.517, -0.856, 0.856, 0.517, 45.161, 52.869)" fill="#f46a58"/>
          <circle id="Elipse_5458" data-name="Elipse 5458" cx="4.93" cy="4.93" r="4.93" transform="matrix(0.522, -0.853, 0.853, 0.522, 45.219, 52.814)" fill="#f46958"/>
          <circle id="Elipse_5459" data-name="Elipse 5459" cx="4.88" cy="4.88" r="4.88" transform="translate(45.279 52.757) rotate(-58.2)" fill="#f46857"/>
          <circle id="Elipse_5460" data-name="Elipse 5460" cx="4.83" cy="4.83" r="4.83" transform="translate(45.344 52.709) rotate(-57.88)" fill="#f46756"/>
          <circle id="Elipse_5461" data-name="Elipse 5461" cx="4.79" cy="4.79" r="4.79" transform="translate(45.385 52.653) rotate(-57.59)" fill="#f46655"/>
          <circle id="Elipse_5462" data-name="Elipse 5462" cx="4.74" cy="4.74" r="4.74" transform="translate(45.45 52.614) rotate(-57.3)" fill="#f46555"/>
          <path id="Trazado_121378" data-name="Trazado 121378" d="M52.25,46.5a4.69,4.69,0,1,0,4.43,4.94A4.69,4.69,0,0,0,52.25,46.5Z" fill="#f46454"/>
          <path id="Trazado_121379" data-name="Trazado 121379" d="M52.25,46.55a4.64,4.64,0,1,0,3.21,1.534A4.65,4.65,0,0,0,52.25,46.55Z" fill="#f46353"/>
          <path id="Trazado_121380" data-name="Trazado 121380" d="M52.24,46.59a4.6,4.6,0,1,0,4.35,4.84A4.6,4.6,0,0,0,52.24,46.59Z" fill="#f36252"/>
          <path id="Trazado_121381" data-name="Trazado 121381" d="M52.24,46.64a4.55,4.55,0,1,0,4.3,4.79,4.55,4.55,0,0,0-4.3-4.79Z" fill="#f36151"/>
          <path id="Trazado_121382" data-name="Trazado 121382" d="M52.24,46.69a4.49,4.49,0,1,0,3.117,1.483A4.5,4.5,0,0,0,52.24,46.69Z" fill="#f36051"/>
          <path id="Trazado_121383" data-name="Trazado 121383" d="M52.24,46.73a4.46,4.46,0,1,0,4.21,4.7A4.46,4.46,0,0,0,52.24,46.73Z" fill="#f35f50"/>
          <path id="Trazado_121384" data-name="Trazado 121384" d="M52.23,46.78a4.41,4.41,0,1,0,4.17,4.64,4.41,4.41,0,0,0-4.17-4.64Z" fill="#f35e4f"/>
          <path id="Trazado_121385" data-name="Trazado 121385" d="M52.23,46.83a4.36,4.36,0,1,0,3.017,1.438A4.36,4.36,0,0,0,52.23,46.83Z" fill="#f35d4e"/>
          <path id="Trazado_121386" data-name="Trazado 121386" d="M52.23,46.87a4.32,4.32,0,1,0,4.08,4.55,4.32,4.32,0,0,0-4.08-4.55Z" fill="#f35c4e"/>
          <path id="Trazado_121387" data-name="Trazado 121387" d="M52.23,46.92a4.27,4.27,0,1,0,4,4.5A4.27,4.27,0,0,0,52.23,46.92Z" fill="#f35b4d"/>
          <path id="Trazado_121388" data-name="Trazado 121388" d="M52.22,47a4.22,4.22,0,1,0,2.921,1.39A4.22,4.22,0,0,0,52.22,47Z" fill="#f35a4c"/>
          <path id="Trazado_121389" data-name="Trazado 121389" d="M52.22,47a4.18,4.18,0,1,0,2.919,1.365A4.18,4.18,0,0,0,52.22,47Z" fill="#f3594b"/>
          <path id="Trazado_121390" data-name="Trazado 121390" d="M52.22,47.06a4.13,4.13,0,1,0,3.9,4.35A4.13,4.13,0,0,0,52.22,47.06Z" fill="#f3584a"/>
          <path id="Trazado_121391" data-name="Trazado 121391" d="M52.22,47.11a4.08,4.08,0,1,0,3.85,4.3A4.08,4.08,0,0,0,52.22,47.11Z" fill="#f3574a"/>
          <path id="Trazado_121392" data-name="Trazado 121392" d="M52.21,47.15a4,4,0,1,0,2.784,1.333A4,4,0,0,0,52.21,47.15Z" fill="#f25649"/>
          <path id="Trazado_121393" data-name="Trazado 121393" d="M52.21,47.2A4,4,0,1,0,56,51.4,4,4,0,0,0,52.21,47.2Z" fill="#f25548"/>
          <path id="Trazado_121394" data-name="Trazado 121394" d="M52.21,47.25a3.94,3.94,0,1,0,3.72,4.15,3.94,3.94,0,0,0-3.72-4.15Z" fill="#f25447"/>
          <path id="Trazado_121395" data-name="Trazado 121395" d="M52.21,47.3A3.89,3.89,0,1,0,54.9,48.586,3.9,3.9,0,0,0,52.21,47.3Z" fill="#f25347"/>
          <path id="Trazado_121396" data-name="Trazado 121396" d="M52.2,47.34a3.85,3.85,0,1,0,3.64,4A3.85,3.85,0,0,0,52.2,47.34Z" fill="#f25246"/>
          <path id="Trazado_121397" data-name="Trazado 121397" d="M52.2,47.39a3.8,3.8,0,1,0,3.59,4,3.8,3.8,0,0,0-3.59-4Z" fill="#f25145"/>
        </g>
        <g id="Grupo_80747" data-name="Grupo 80747" opacity="0.65">
          <path id="Trazado_121398" data-name="Trazado 121398" d="M71.89,44.65a7.59,7.59,0,1,0,5.25,2.51A7.6,7.6,0,0,0,71.89,44.65Z" fill="#f9a184"/>
          <path id="Trazado_121399" data-name="Trazado 121399" d="M71.89,44.69a7.57,7.57,0,1,0,5.224,2.521A7.56,7.56,0,0,0,71.89,44.69Z" fill="#f9a083"/>
          <path id="Trazado_121400" data-name="Trazado 121400" d="M71.88,44.74a7.51,7.51,0,1,0,7.1,7.9,7.51,7.51,0,0,0-7.1-7.9Z" fill="#f99f82"/>
          <path id="Trazado_121401" data-name="Trazado 121401" d="M71.88,44.79a7.45,7.45,0,1,0,5.154,2.462A7.46,7.46,0,0,0,71.88,44.79Z" fill="#f99e82"/>
          <path id="Trazado_121402" data-name="Trazado 121402" d="M71.88,44.83a7.42,7.42,0,1,0,7,7.81A7.42,7.42,0,0,0,71.88,44.83Z" fill="#f99d81"/>
          <path id="Trazado_121403" data-name="Trazado 121403" d="M71.88,44.88A7.37,7.37,0,1,0,76.99,47.3a7.37,7.37,0,0,0-5.11-2.421Z" fill="#f99c80"/>
          <path id="Trazado_121404" data-name="Trazado 121404" d="M71.87,44.93a7.31,7.31,0,1,0,5.058,2.414A7.32,7.32,0,0,0,71.87,44.93Z" fill="#f89b7f"/>
          <path id="Trazado_121405" data-name="Trazado 121405" d="M71.87,45a7.27,7.27,0,1,0,5.023,2.406A7.28,7.28,0,0,0,71.87,45Z" fill="#f89a7f"/>
          <path id="Trazado_121406" data-name="Trazado 121406" d="M71.87,45a7.23,7.23,0,1,0,6.83,7.61A7.23,7.23,0,0,0,71.87,45Z" fill="#f8997e"/>
          <path id="Trazado_121407" data-name="Trazado 121407" d="M71.87,45.07a7.17,7.17,0,1,0,4.955,2.369A7.18,7.18,0,0,0,71.87,45.07Z" fill="#f8987d"/>
          <path id="Trazado_121408" data-name="Trazado 121408" d="M71.86,45.11a7.13,7.13,0,1,0,4.927,2.358A7.14,7.14,0,0,0,71.86,45.11Z" fill="#f8977c"/>
          <path id="Trazado_121409" data-name="Trazado 121409" d="M71.86,45.16a7.09,7.09,0,1,0,6.7,7.46,7.09,7.09,0,0,0-6.7-7.46Z" fill="#f8967b"/>
          <path id="Trazado_121410" data-name="Trazado 121410" d="M71.86,45.21a7,7,0,1,0,4.872,2.316A7,7,0,0,0,71.86,45.21Z" fill="#f8957b"/>
          <path id="Trazado_121411" data-name="Trazado 121411" d="M71.86,45.25a7,7,0,1,0,6.6,7.36,7,7,0,0,0-6.6-7.36Z" fill="#f8947a"/>
          <path id="Trazado_121412" data-name="Trazado 121412" d="M71.85,45.3a6.95,6.95,0,1,0,6.57,7.31,6.95,6.95,0,0,0-6.57-7.31Z" fill="#f89379"/>
          <path id="Trazado_121413" data-name="Trazado 121413" d="M71.85,45.35a6.9,6.9,0,1,0,6.52,7.26,6.9,6.9,0,0,0-6.52-7.26Z" fill="#f89278"/>
          <path id="Trazado_121414" data-name="Trazado 121414" d="M71.85,45.4a6.84,6.84,0,1,0,4.731,2.262A6.85,6.85,0,0,0,71.85,45.4Z" fill="#f89178"/>
          <path id="Trazado_121415" data-name="Trazado 121415" d="M71.85,45.44a6.81,6.81,0,1,0,6.43,7.16,6.81,6.81,0,0,0-6.43-7.16Z" fill="#f89077"/>
          <path id="Trazado_121416" data-name="Trazado 121416" d="M71.84,45.49a6.76,6.76,0,1,0,6.39,7.11,6.76,6.76,0,0,0-6.39-7.11Z" fill="#f78f76"/>
          <path id="Trazado_121417" data-name="Trazado 121417" d="M71.84,45.54a6.7,6.7,0,1,0,4.635,2.214A6.71,6.71,0,0,0,71.84,45.54Z" fill="#f78e75"/>
          <path id="Trazado_121418" data-name="Trazado 121418" d="M71.84,45.58a6.66,6.66,0,1,0,6.29,7A6.66,6.66,0,0,0,71.84,45.58Z" fill="#f78d74"/>
          <path id="Trazado_121419" data-name="Trazado 121419" d="M71.84,45.63a6.62,6.62,0,1,0,4.58,2.2,6.62,6.62,0,0,0-4.58-2.2Z" fill="#f78c74"/>
          <path id="Trazado_121420" data-name="Trazado 121420" d="M71.83,45.68A6.57,6.57,0,1,0,78,52.59,6.57,6.57,0,0,0,71.83,45.68Z" fill="#f78b73"/>
          <path id="Trazado_121421" data-name="Trazado 121421" d="M71.83,45.72a6.52,6.52,0,1,0,4.511,2.155A6.52,6.52,0,0,0,71.83,45.72Z" fill="#f78a72"/>
          <path id="Trazado_121422" data-name="Trazado 121422" d="M71.83,45.77a6.48,6.48,0,1,0,4.5,2.126,6.47,6.47,0,0,0-4.5-2.126Z" fill="#f78971"/>
          <path id="Trazado_121423" data-name="Trazado 121423" d="M71.83,45.82a6.42,6.42,0,1,0,4.436,2.122A6.43,6.43,0,0,0,71.83,45.82Z" fill="#f78871"/>
          <path id="Trazado_121424" data-name="Trazado 121424" d="M71.82,45.86a6.38,6.38,0,1,0,6,6.72,6.38,6.38,0,0,0-6-6.72Z" fill="#f78770"/>
          <path id="Trazado_121425" data-name="Trazado 121425" d="M71.82,45.91A6.34,6.34,0,1,0,76.2,48,6.33,6.33,0,0,0,71.82,45.91Z" fill="#f7866f"/>
          <path id="Trazado_121426" data-name="Trazado 121426" d="M71.82,46a6.29,6.29,0,1,0,5.94,6.62A6.29,6.29,0,0,0,71.82,46Z" fill="#f7856e"/>
          <path id="Trazado_121427" data-name="Trazado 121427" d="M71.82,46a6.24,6.24,0,1,0,5.89,6.57A6.24,6.24,0,0,0,71.82,46Z" fill="#f6846d"/>
          <path id="Trazado_121428" data-name="Trazado 121428" d="M71.81,46.05a6.19,6.19,0,1,0,5.86,6.52A6.19,6.19,0,0,0,71.81,46.05Z" fill="#f6836d"/>
          <path id="Trazado_121429" data-name="Trazado 121429" d="M71.81,46.1a6.14,6.14,0,1,0,4.248,2.029A6.15,6.15,0,0,0,71.81,46.1Z" fill="#f6826c"/>
          <path id="Trazado_121430" data-name="Trazado 121430" d="M71.81,46.14a6.1,6.1,0,1,0,4.213,2.021A6.1,6.1,0,0,0,71.81,46.14Z" fill="#f6816b"/>
          <path id="Trazado_121431" data-name="Trazado 121431" d="M71.81,46.19a6.05,6.05,0,1,0,5.72,6.37A6.05,6.05,0,0,0,71.81,46.19Z" fill="#f6806a"/>
          <path id="Trazado_121432" data-name="Trazado 121432" d="M71.8,46.24a6,6,0,1,0,4.152,1.981A6,6,0,0,0,71.8,46.24Z" fill="#f67f6a"/>
          <path id="Trazado_121433" data-name="Trazado 121433" d="M71.8,46.29a6,6,0,1,0,5.63,6.27A6,6,0,0,0,71.8,46.29Z" fill="#f67e69"/>
          <path id="Trazado_121434" data-name="Trazado 121434" d="M71.8,46.33a5.91,5.91,0,1,0,5.58,6.23,5.91,5.91,0,0,0-5.58-6.23Z" fill="#f67d68"/>
          <path id="Trazado_121435" data-name="Trazado 121435" d="M71.8,46.38a5.87,5.87,0,1,0,5.54,6.17,5.87,5.87,0,0,0-5.54-6.17Z" fill="#f67c67"/>
          <path id="Trazado_121436" data-name="Trazado 121436" d="M71.79,46.43a5.8,5.8,0,1,0,4.023,1.916A5.82,5.82,0,0,0,71.79,46.43Z" fill="#f67b66"/>
          <path id="Trazado_121437" data-name="Trazado 121437" d="M71.79,46.47a5.77,5.77,0,1,0,3.985,1.91A5.77,5.77,0,0,0,71.79,46.47Z" fill="#f67a66"/>
          <path id="Trazado_121438" data-name="Trazado 121438" d="M71.79,46.52a5.73,5.73,0,1,0,5.41,6,5.73,5.73,0,0,0-5.41-6Z" fill="#f67965"/>
          <path id="Trazado_121439" data-name="Trazado 121439" d="M71.79,46.57a5.67,5.67,0,1,0,3.929,1.885A5.68,5.68,0,0,0,71.79,46.57Z" fill="#f57964"/>
          <path id="Trazado_121440" data-name="Trazado 121440" d="M71.78,46.61a5.63,5.63,0,1,0,3.889,1.862A5.63,5.63,0,0,0,71.78,46.61Z" fill="#f57863"/>
          <path id="Trazado_121441" data-name="Trazado 121441" d="M71.78,46.66a5.58,5.58,0,1,0,5.28,5.88,5.58,5.58,0,0,0-5.28-5.88Z" fill="#f57763"/>
          <path id="Trazado_121442" data-name="Trazado 121442" d="M71.78,46.71A5.52,5.52,0,1,0,75.6,48.54,5.54,5.54,0,0,0,71.78,46.71Z" fill="#f57662"/>
          <path id="Trazado_121443" data-name="Trazado 121443" d="M71.78,46.75a5.49,5.49,0,1,0,3.812,1.8,5.49,5.49,0,0,0-3.812-1.8Z" fill="#f57561"/>
          <path id="Trazado_121444" data-name="Trazado 121444" d="M71.77,46.8a5.44,5.44,0,1,0,5.15,5.73,5.44,5.44,0,0,0-5.15-5.73Z" fill="#f57460"/>
          <path id="Trazado_121445" data-name="Trazado 121445" d="M71.77,46.85A5.39,5.39,0,1,0,75.5,48.632,5.4,5.4,0,0,0,71.77,46.85Z" fill="#f5735f"/>
          <path id="Trazado_121446" data-name="Trazado 121446" d="M71.77,46.89a5.35,5.35,0,1,0,5,5.64A5.35,5.35,0,0,0,71.77,46.89Z" fill="#f5725f"/>
          <path id="Trazado_121447" data-name="Trazado 121447" d="M71.77,46.94a5.3,5.3,0,1,0,5,5.58,5.3,5.3,0,0,0-5-5.58Z" fill="#f5715e"/>
          <path id="Trazado_121448" data-name="Trazado 121448" d="M71.76,47a5.26,5.26,0,1,0,3.649,1.726A5.26,5.26,0,0,0,71.76,47Z" fill="#f5705d"/>
          <path id="Trazado_121449" data-name="Trazado 121449" d="M71.76,47a5.2,5.2,0,1,0,3.6,1.719A5.21,5.21,0,0,0,71.76,47Z" fill="#f56f5c"/>
          <path id="Trazado_121450" data-name="Trazado 121450" d="M71.76,47.08a5.16,5.16,0,1,0,4.87,5.44,5.16,5.16,0,0,0-4.87-5.44Z" fill="#f56e5c"/>
          <path id="Trazado_121451" data-name="Trazado 121451" d="M71.76,47.13a5.12,5.12,0,1,0,4.83,5.38A5.12,5.12,0,0,0,71.76,47.13Z" fill="#f46d5b"/>
          <path id="Trazado_121452" data-name="Trazado 121452" d="M71.75,47.18a5.06,5.06,0,1,0,3.5,1.671,5.07,5.07,0,0,0-3.5-1.671Z" fill="#f46c5a"/>
          <path id="Trazado_121453" data-name="Trazado 121453" d="M71.75,47.22a5,5,0,1,0,3.473,1.657A5,5,0,0,0,71.75,47.22Z" fill="#f46b59"/>
          <path id="Trazado_121454" data-name="Trazado 121454" d="M71.75,47.27a5,5,0,1,0,4.7,5.24,5,5,0,0,0-4.7-5.24Z" fill="#f46a58"/>
          <path id="Trazado_121455" data-name="Trazado 121455" d="M71.75,47.32A4.93,4.93,0,1,0,76.4,52.5a4.93,4.93,0,0,0-4.65-5.18Z" fill="#f46958"/>
          <path id="Trazado_121456" data-name="Trazado 121456" d="M71.74,47.36a4.88,4.88,0,1,0,4.61,5.14A4.88,4.88,0,0,0,71.74,47.36Z" fill="#f46857"/>
          <path id="Trazado_121457" data-name="Trazado 121457" d="M71.74,47.41a4.83,4.83,0,1,0,4.57,5.09,4.83,4.83,0,0,0-4.57-5.09Z" fill="#f46756"/>
          <path id="Trazado_121458" data-name="Trazado 121458" d="M71.74,47.46a4.79,4.79,0,1,0,4.52,5,4.79,4.79,0,0,0-4.52-5Z" fill="#f46655"/>
          <path id="Trazado_121459" data-name="Trazado 121459" d="M71.74,47.5a4.74,4.74,0,1,0,3.271,1.574A4.74,4.74,0,0,0,71.74,47.5Z" fill="#f46555"/>
          <path id="Trazado_121460" data-name="Trazado 121460" d="M71.73,47.55a4.69,4.69,0,1,0,4.44,4.94,4.69,4.69,0,0,0-4.44-4.94Z" fill="#f46454"/>
          <path id="Trazado_121461" data-name="Trazado 121461" d="M71.73,47.6a4.64,4.64,0,1,0,3.21,1.534A4.65,4.65,0,0,0,71.73,47.6Z" fill="#f46353"/>
          <path id="Trazado_121462" data-name="Trazado 121462" d="M71.73,47.64a4.6,4.6,0,1,0,4.34,4.85,4.6,4.6,0,0,0-4.34-4.85Z" fill="#f36252"/>
          <path id="Trazado_121463" data-name="Trazado 121463" d="M71.73,47.69A4.55,4.55,0,1,0,76,52.48a4.55,4.55,0,0,0-4.27-4.79Z" fill="#f36151"/>
          <path id="Trazado_121464" data-name="Trazado 121464" d="M71.72,47.74a4.5,4.5,0,1,0,3.127,1.479A4.51,4.51,0,0,0,71.72,47.74Z" fill="#f36051"/>
          <path id="Trazado_121465" data-name="Trazado 121465" d="M71.72,47.79A4.45,4.45,0,1,0,74.8,49.261,4.46,4.46,0,0,0,71.72,47.79Z" fill="#f35f50"/>
          <path id="Trazado_121466" data-name="Trazado 121466" d="M71.72,47.83a4.41,4.41,0,1,0,4.16,4.65A4.41,4.41,0,0,0,71.72,47.83Z" fill="#f35e4f"/>
          <path id="Trazado_121467" data-name="Trazado 121467" d="M71.71,47.88a4.36,4.36,0,1,0,3.017,1.438A4.37,4.37,0,0,0,71.71,47.88Z" fill="#f35d4e"/>
          <path id="Trazado_121468" data-name="Trazado 121468" d="M71.71,47.93a4.31,4.31,0,1,0,2.982,1.423A4.32,4.32,0,0,0,71.71,47.93Z" fill="#f35c4e"/>
          <path id="Trazado_121469" data-name="Trazado 121469" d="M71.71,48a4.27,4.27,0,1,0,4,4.5,4.27,4.27,0,0,0-4-4.5Z" fill="#f35b4d"/>
          <path id="Trazado_121470" data-name="Trazado 121470" d="M71.71,48a4.23,4.23,0,1,0,4,4.45A4.23,4.23,0,0,0,71.71,48Z" fill="#f35a4c"/>
          <path id="Trazado_121471" data-name="Trazado 121471" d="M71.7,48.07a4.16,4.16,0,1,0,2.922,1.355A4.18,4.18,0,0,0,71.7,48.07Z" fill="#f3594b"/>
          <path id="Trazado_121472" data-name="Trazado 121472" d="M71.7,48.11a4.13,4.13,0,1,0,3.9,4.35,4.13,4.13,0,0,0-3.9-4.35Z" fill="#f3584a"/>
          <path id="Trazado_121473" data-name="Trazado 121473" d="M71.7,48.16a4.08,4.08,0,1,0,3.86,4.3A4.08,4.08,0,0,0,71.7,48.16Z" fill="#f3574a"/>
          <path id="Trazado_121474" data-name="Trazado 121474" d="M71.7,48.21a4,4,0,1,0,2.8,1.326A4,4,0,0,0,71.7,48.21Z" fill="#f25649"/>
          <path id="Trazado_121475" data-name="Trazado 121475" d="M71.69,48.25a4,4,0,1,0,3.77,4.2A4,4,0,0,0,71.69,48.25Z" fill="#f25548"/>
          <path id="Trazado_121476" data-name="Trazado 121476" d="M71.69,48.3a3.94,3.94,0,1,0,2.726,1.3,3.94,3.94,0,0,0-2.726-1.3Z" fill="#f25447"/>
          <path id="Trazado_121477" data-name="Trazado 121477" d="M71.69,48.35a3.89,3.89,0,1,0,2.691,1.286A3.9,3.9,0,0,0,71.69,48.35Z" fill="#f25347"/>
          <path id="Trazado_121478" data-name="Trazado 121478" d="M71.69,48.39a3.85,3.85,0,1,0,3.63,4.06,3.85,3.85,0,0,0-3.63-4.06Z" fill="#f25246"/>
          <path id="Trazado_121479" data-name="Trazado 121479" d="M71.68,48.44a3.8,3.8,0,1,0,3.6,4,3.8,3.8,0,0,0-3.6-4Z" fill="#f25145"/>
        </g>
        <path id="Trazado_121480" data-name="Trazado 121480" d="M74.51,36.88l-2.68-.67L67,39.07s.51,6.23-.43,9.57L77,44.46s-.44-5.09-1.26-6.67Z" fill="#ed8c73"/>
        <path id="Trazado_121481" data-name="Trazado 121481" d="M50,37s-1.75,4.36-1.68,6.63l7.88,5.21s1.75-6.2,2.34-10l-4.93-2.63Z" fill="#ed8c73"/>
        <path id="Trazado_121482" data-name="Trazado 121482" d="M49.22,43.12s-2.21,3.55.41,5.39c2.41,1.69,6.54.35,6.54.35S52.46,39.2,49.22,43.12Z" fill="#fff"/>
        <path id="Trazado_121483" data-name="Trazado 121483" d="M66.54,48.64a9.6,9.6,0,0,0,3.94,1.8c3,.65,5.7-2.28,5.47-6C75.94,44.25,70.13,41.8,66.54,48.64Z" fill="#fff"/>
        <path id="Trazado_121484" data-name="Trazado 121484" d="M50,37l.44.66s4.08-2.76,7.86,3l.43-2.31S55.13,33.1,50,37Z" fill="#3e1208"/>
        <path id="Trazado_121485" data-name="Trazado 121485" d="M66.88,38.2l.18,2.34c4.38-5.33,8.14-2.15,8.14-2.15l.51-.6C71,33.33,66.88,38.2,66.88,38.2Z" fill="#3e1208"/>
        <path id="Trazado_121486" data-name="Trazado 121486" d="M53.58,54.43s-.38,9.15,7.2,9.63c6.94.43,9.22-9,9.22-9C60,62.46,53.58,54.43,53.58,54.43Z" fill="#7c302a"/>
        <path id="Trazado_121487" data-name="Trazado 121487" d="M54.76,55.59c-.18.35,1,4.54,6.38,4.94,4.57.35,7.73-4.65,7.73-4.65C62,60.28,56.93,57.41,54.76,55.59Z" fill="#fff"/>
        <path id="Trazado_121488" data-name="Trazado 121488" d="M56.35,58.56c2.9-.88,5.94-.22,8.74,1a12.54,12.54,0,0,0,3.78-3.64c-6.91,4.4-11.94,1.53-14.11-.29A4.47,4.47,0,0,0,56.35,58.56Z" fill="#d6b7a3" opacity="0.35"/>
        <path id="Trazado_121489" data-name="Trazado 121489" d="M63.26,45l-2.07.3a3.26,3.26,0,0,1-.55,3.29s-4.51-.15-3.88,3.92c1.11,3.75,8.3,3.61,7.55-3.19A23.73,23.73,0,0,0,63.26,45Z" fill="#f9a184"/>
        <path id="Trazado_121490" data-name="Trazado 121490" d="M61.19,45.28a3.26,3.26,0,0,1-.55,3.29s-3.47-.1-3.89,2.64a13,13,0,0,0,4.07.49c1.47-1.94,2.4-4.37,1.56-6.6Z" fill="#fff" opacity="0.1"/>
        <path id="Trazado_121491" data-name="Trazado 121491" d="M56.74,52.35v.14c.89,3,5.72,3.51,7.18.06a10.76,10.76,0,0,1-7.18-.2Z" fill="#ed8c73"/>
        <path id="Trazado_121492" data-name="Trazado 121492" d="M53.79,43.42c-1-.38-2.29.6-2.88,2.19s-.28,3.17.72,3.54,2.29-.61,2.88-2.19S54.78,43.79,53.79,43.42Z" fill="url(#linear-gradient)"/>
        <path id="Trazado_121493" data-name="Trazado 121493" d="M50.14,46.35l.48,1.12s3-.28,2.79-1.6S50.14,46.35,50.14,46.35Z" fill="#fff" opacity="0.89"/>
        <path id="Trazado_121494" data-name="Trazado 121494" d="M72.54,44.3c-1-.39-2.39.63-3,2.29s-.29,3.31.76,3.7,2.38-.63,3-2.29S73.58,44.69,72.54,44.3Z" fill="url(#linear-gradient-2)"/>
        <path id="Trazado_121495" data-name="Trazado 121495" d="M68.87,47.77l.22,1.14s3.35-.66,3.11-2S68.87,47.77,68.87,47.77Z" fill="#fff" opacity="0.89"/>
        <path id="Trazado_121496" data-name="Trazado 121496" d="M52.21,40.83c-2.44-1-4,2.09-4,2.09h-2l2.31,1.64s1.12-2.8,3-2.26,4.63,6.55,4.63,6.55S54.65,41.8,52.21,40.83Z" fill="#3e1208"/>
        <path id="Trazado_121497" data-name="Trazado 121497" d="M71.49,42.56c-3.39.7-4.95,6.08-4.95,6.08s2.63-3.39,5.37-4.31c2.42-.83,4,1.62,4,1.62l3.34-1.54L76.85,44a5.84,5.84,0,0,0-5.36-1.44Z" fill="#3e1208"/>
        <path id="Trazado_121498" data-name="Trazado 121498" d="M85.76,46.34c-2-.79-4.42.9-5.52,3.78s-.38,5.87,1.57,6.66,4.42-.9,5.51-3.78S87.71,47.13,85.76,46.34Z" fill="#f9a184"/>
        <path id="Trazado_121499" data-name="Trazado 121499" d="M80.62,53.16C77.64,61,70,67.87,61.74,68.7a17.21,17.21,0,0,1-11.24-3A15.46,15.46,0,0,0,61,70.5c8,.5,16-6.06,19.92-14.32a2.69,2.69,0,0,0,.89.6c1.86.75,4.18-.75,5.34-3.38a9.93,9.93,0,0,1-2.32,1.43C83,55.25,81.88,54.46,80.62,53.16Z" fill="#ed8c73"/>
        <path id="Trazado_121500" data-name="Trazado 121500" d="M82,51.46l2,.38a4.05,4.05,0,0,1,2.27-3.72C82.93,46.73,82,51.46,82,51.46Z" fill="#ed8c73"/>
        <path id="Trazado_121501" data-name="Trazado 121501" d="M53.58,54.43a9.39,9.39,0,0,0,7.17,4c5.11.47,9.25-3.3,9.25-3.3a21.81,21.81,0,0,1-9.31,1.38C55.69,56,53.58,54.43,53.58,54.43Z" fill="#ea6150"/>
        <path id="Trazado_121502" data-name="Trazado 121502" d="M53.58,54.43s.6,8,6.69,8.42c6.29.47,9.73-7.74,9.73-7.74s-1.59,10.43-9.93,10C52.45,64.65,53.58,54.43,53.58,54.43Z" fill="#f67460"/>
        <g id="Grupo_80748" data-name="Grupo 80748" opacity="0.28">
          <path id="Trazado_121503" data-name="Trazado 121503" d="M62,63.4h-.91a8.279,8.279,0,0,1-1,0,3.59,3.59,0,0,1-.73-.12,1.75,1.75,0,0,0-.6-.09.46.46,0,0,0-.31.19.45.45,0,0,0,0,.11.63.63,0,0,0,.06.33c.16.27.65.3.93.35a8.45,8.45,0,0,0,1.33.14,2.39,2.39,0,0,0,1.32-.2.42.42,0,0,0,.19-.26.5.5,0,0,0,0-.12c0-.1,0-.22-.09-.27a.23.23,0,0,0-.14,0Z" fill="#fff"/>
        </g>
        <path id="Trazado_121504" data-name="Trazado 121504" d="M59.83,65.93a9.1,9.1,0,0,0,1.52.06.77.77,0,0,1,.78,1,1.52,1.52,0,0,1-1.58.91A1.44,1.44,0,0,1,59,67a.78.78,0,0,1,.83-1.07Z" fill="#ed8c73" opacity="0.4"/>
        <g id="Grupo_80749" data-name="Grupo 80749">
          <path id="Trazado_121505" data-name="Trazado 121505" d="M69.33,72.53C68,75.92,57,86.18,57,86.18L69.93,80s2.28-5.34,2.39-7S70.64,69.14,69.33,72.53Z" fill="#704c9c" opacity="0.05"/>
          <path id="Trazado_121506" data-name="Trazado 121506" d="M56.7,73.11l-2.07,5L57,86.18l2.21-13S58.8,69.84,56.7,73.11Z" fill="#704c9c" opacity="0.05"/>
        </g>
        <g id="Grupo_80750" data-name="Grupo 80750">
          <path id="Trazado_121507" data-name="Trazado 121507" d="M62.64,8.84a10,10,0,0,0-.16,1.46C62.36,16.17,68,21.11,75,21.34a13.09,13.09,0,0,0,11.34-5.27,51,51,0,0,0-23.7-7.23Z" fill="#9a3f2c"/>
          <path id="Trazado_121508" data-name="Trazado 121508" d="M71.29,10a48.2,48.2,0,0,1-8.65,2.12,12,12,0,0,0,.3,1.18l.54-.09a45.14,45.14,0,0,0,9.85-2.71C72.66,10.36,72,10.19,71.29,10Z" fill="#853327"/>
          <path id="Trazado_121509" data-name="Trazado 121509" d="M79.42,12.59A46.29,46.29,0,0,1,64.94,16.8a10.59,10.59,0,0,0,1,1.07l.81-.12a50,50,0,0,0,9.72-2.54,30,30,0,0,0,4.29-2Z" fill="#853327"/>
          <path id="Trazado_121510" data-name="Trazado 121510" d="M85,15.3c-5.51,3.7-13,4.32-16.33,4.41a14.57,14.57,0,0,0,2.67,1.06c.93-.08,2-.2,3.06-.37a39.129,39.129,0,0,0,4-.87,23.84,23.84,0,0,0,7.71-3.6Z" fill="#853327"/>
          <path id="Trazado_121511" data-name="Trazado 121511" d="M82.21,13.83A12.92,12.92,0,0,1,71.07,15.1,9.75,9.75,0,0,1,64.85,9c-.73-.07-1.47-.13-2.21-.17a8.82,8.82,0,0,0-.16,1.46C62.36,16.17,68,21.11,75,21.34a13.09,13.09,0,0,0,11.34-5.27Q84.34,14.86,82.21,13.83Z" fill="#491b02" opacity="0.06"/>
        </g>
        <path id="Trazado_121512" data-name="Trazado 121512" d="M76.09,48.3h-.18a.32.32,0,0,0,.18,0Z" fill="#ed8c73"/>
        <path id="Trazado_121513" data-name="Trazado 121513" d="M42.3,100.5l-.2-.17L54.9,72.71s-8.12.61-15.1,11.94c-3.33,5.41-6.9,11.17-9.15,15.85Z" fill="#3b2b1e"/>
        <path id="Trazado_121514" data-name="Trazado 121514" d="M53.75,72.91a30.14,30.14,0,0,1-5.55,7.71c-1.82,1.81-5.81,4-5.81,8.7a22.19,22.19,0,0,0,1.32,7.47s-1.58,4.69-3.42,10.5A50.4,50.4,0,0,0,50,110.24a65.189,65.189,0,0,1,1-10.63,107.617,107.617,0,0,1,3.7-13c.88-2.48,3.83-13.27,4.22-14.38C58.52,72.21,57.84,72,53.75,72.91Z" fill="#443325"/>
        <path id="Trazado_121515" data-name="Trazado 121515" d="M79.48,75.52c-.73-3.13-5.34-3.19-7.62-3.35-.21,1-4.48,5-8.39,8.4-.81,2.09-1.72,4.15-2.5,6.18a96.691,96.691,0,0,0-3.85,12.66A103.817,103.817,0,0,0,55.34,111c1.53.14,3.09.22,4.66.22a51,51,0,0,0,14.39-2.06A12.92,12.92,0,0,1,73,106.08C72.33,97.13,82.77,89.72,79.48,75.52Z" fill="#443325"/>
        <path id="Trazado_121516" data-name="Trazado 121516" d="M46.16,103.75,42.1,100.5H30.73c-.2,0-.38.71-.55,1.14a50.9,50.9,0,0,0,26.72,9.48c3.38-2.43,5.5-7.86,5.5-7.86Z" fill="#3b2b1e"/>
        <path id="Trazado_121517" data-name="Trazado 121517" d="M67.68,15.16c-19.49-.29-24.31,16.44-24,29.21l.46.26c-.07-1.11,2.15-18,17.62-20.62A16.86,16.86,0,0,1,79.7,32.88c3.22,5.87,2.36,14.63,2.73,14.23a3.32,3.32,0,0,1,2.78-.83C88.44,32.77,87.33,15.45,67.68,15.16Z" fill="#9a3f2c"/>
        <path id="Trazado_121518" data-name="Trazado 121518" d="M43.66,43c.19.18.38.36.59.53.06-.42.15-.94.28-1.53a8.15,8.15,0,0,1-.81-1C43.69,41.67,43.67,42.33,43.66,43Z" fill="#853327"/>
        <path id="Trazado_121519" data-name="Trazado 121519" d="M45.26,39.32c.14-.42.29-.85.46-1.3a7.92,7.92,0,0,1-1.52-1.71c-.09.6-.18,1.21-.25,1.81A8,8,0,0,0,45.26,39.32Z" fill="#853327"/>
        <path id="Trazado_121520" data-name="Trazado 121520" d="M47,35.16c.2-.39.42-.78.65-1.18a9.94,9.94,0,0,1-2.18-3c-.19.59-.36,1.18-.52,1.77A11,11,0,0,0,47,35.16Z" fill="#853327"/>
        <path id="Trazado_121521" data-name="Trazado 121521" d="M49.36,31.43a9.453,9.453,0,0,1,.87-1,18,18,0,0,1-2.31-5c-.3.52-.59,1-.86,1.58a17.1,17.1,0,0,0,2.3,4.42Z" fill="#853327"/>
        <path id="Trazado_121522" data-name="Trazado 121522" d="M52.93,27.84c.35-.26.7-.52,1.07-.77a16.34,16.34,0,0,1-2.43-6.29c-.39.37-.76.76-1.11,1.15a16.49,16.49,0,0,0,2.47,5.91Z" fill="#853327"/>
        <path id="Trazado_121523" data-name="Trazado 121523" d="M56.94,17.17c-.47.21-.93.44-1.37.68a17.23,17.23,0,0,0,1.23,7.66c.4-.17.8-.34,1.22-.49a16.32,16.32,0,0,1-1.08-7.85Z" fill="#853327"/>
        <path id="Trazado_121524" data-name="Trazado 121524" d="M62.18,15.59q-.69.12-1.35.27a24.56,24.56,0,0,0,.55,8.23l.38-.08.94-.13a23.5,23.5,0,0,1-.52-8.29Z" fill="#853327"/>
        <path id="Trazado_121525" data-name="Trazado 121525" d="M66.35,23.85a7.26,7.26,0,0,1,1.3.18c.54-2.81,1.08-6.53,1.39-8.81-.43,0-.86-.05-1.32-.06C67.41,17.46,66.87,21.14,66.35,23.85Z" fill="#853327"/>
        <path id="Trazado_121526" data-name="Trazado 121526" d="M71.69,25.26q.61.27,1.2.6a21.52,21.52,0,0,0,3.59-9c-.41-.17-.83-.33-1.26-.47C74.85,18.54,73.91,22.49,71.69,25.26Z" fill="#853327"/>
        <path id="Trazado_121527" data-name="Trazado 121527" d="M81,19.67c-.58,2.55-1.92,6.67-4.71,8.68a10.36,10.36,0,0,1,.93,1c2.75-2.08,4.18-5.83,4.88-8.53C81.71,20.4,81.35,20,81,19.67Z" fill="#853327"/>
        <path id="Trazado_121528" data-name="Trazado 121528" d="M85.87,28.55c-.14-.56-.28-1.12-.45-1.66a10.56,10.56,0,0,1-6.37,4.9c.22.35.44.71.65,1.09a1,1,0,0,1,0,.1A11.52,11.52,0,0,0,85.87,28.55Z" fill="#853327"/>
        <path id="Trazado_121529" data-name="Trazado 121529" d="M86.59,34.87a14.39,14.39,0,0,1-5.4,1.83c.12.43.23.86.32,1.29a15.05,15.05,0,0,0,5.07-1.61C86.59,35.88,86.6,35.37,86.59,34.87Z" fill="#853327"/>
        <path id="Trazado_121530" data-name="Trazado 121530" d="M86,42.62c.08-.48.16-1,.23-1.44a11.41,11.41,0,0,1-4.11.52c.05.46.08.9.11,1.32h.58a12.69,12.69,0,0,0,3.19-.4Z" fill="#853327"/>
        <path id="Trazado_121531" data-name="Trazado 121531" d="M62,21.91C66.32,22,73.93,21,76.92,17A19.27,19.27,0,0,0,72,15.56c-3,2.84-8.63,3.08-12.59,2.31a25.151,25.151,0,0,1-2.63-.64,19.44,19.44,0,0,0-3.33,2A17,17,0,0,0,62,21.91Z" fill="#fff" opacity="0.1"/>
        <path id="Trazado_121532" data-name="Trazado 121532" d="M57,86.18l3.07-13.85s0-3.15-3.16-.13l-3.64,4.26Z" fill="#fff"/>
        <path id="Trazado_121533" data-name="Trazado 121533" d="M42.53,104.19c1.24-1.57,2-3,3.37-4.49.66-.73,1.5-.77,2.34-1.47-4.15-1.31-5-2-6.31-2.41a5.626,5.626,0,0,0-5.3.57,10.43,10.43,0,0,0-2.77,4.32,27.4,27.4,0,0,1,6.43,2.14C40.79,103.12,41.25,103.39,42.53,104.19Z" fill="#f9a184"/>
        <path id="Trazado_121534" data-name="Trazado 121534" d="M43.3,96.35a4,4,0,0,1-.95,1.82A5.43,5.43,0,0,1,40,99.71c-1.8.53-3.92.31-5-1.36a12.29,12.29,0,0,0-1.11,2.36,27.4,27.4,0,0,1,6.43,2.14c.5.27,1,.54,2.24,1.34,1.24-1.57,2-3,3.37-4.49.66-.73,1.5-.77,2.34-1.47a39.221,39.221,0,0,1-4.97-1.88Z" fill="#ed8c73" opacity="0.44"/>
        <path id="Trazado_121535" data-name="Trazado 121535" d="M46.17,97.32h0c-2.85.91-4.44,3.31-5.45,5.84a18.869,18.869,0,0,0,2.22,1.59,58.066,58.066,0,0,1,4-4.44A17.811,17.811,0,0,1,49,98.39C48.16,98.14,46.75,97.52,46.17,97.32Z" fill="#fff"/>
        <path id="Trazado_121536" data-name="Trazado 121536" d="M76.85,72.92C66.94,72.72,64,99.43,64,99.43s-8.78.21-14-1.32c-1-.29-.73-.21-1.54-.47a10.15,10.15,0,0,0-6.52,7.13c1.56,1,3.92,1.92,8.06,4.06A39.08,39.08,0,0,0,54.9,111a50.631,50.631,0,0,0,5.1.25,51.66,51.66,0,0,0,9.45-.88,11.833,11.833,0,0,0,1.14-.9c5.82-5.21,10.48-20.36,11.88-26.93C84.12,74.85,76.85,72.92,76.85,72.92Z" fill="#443325"/>
        <path id="Trazado_121537" data-name="Trazado 121537" d="M57,86.18S68,75.06,69.33,71.67s2.75-1.61,3,.5a54.439,54.439,0,0,1,0,5.66Z" fill="#fff"/>
        <path id="Trazado_121538" data-name="Trazado 121538" d="M63.39,94.3a4.47,4.47,0,0,1,1.5-.09s2.68-2.82,4.13-2.93,4.17,3.48,4,3.81c-.4.67-1.53.53-2.41-.25s-1.08-1.15-1.66-1-.47.32-.47.32,1-.18,1.25.54a50,50,0,0,0,3.21,6.46c.35.61-.6,1.65-2,.45-.41-.35-2.88-4.44-2.88-4.44s2.3,4.83,2.3,5.14c0,1-2,1.12-2.68.18.15.46-.62,1.33-2.19.42A9.48,9.48,0,0,1,63,100.55a9,9,0,0,0-5.75-1.3S62.19,94.48,63.39,94.3Z" fill="#f9a184"/>
        <path id="Trazado_121539" data-name="Trazado 121539" d="M68.46,94.21s-.12-.12.47-.32.78.18,1.66,1,2,.92,2.41.25c.19-.33-2.53-3.92-4-3.81s-4.13,2.93-4.13,2.93Z" fill="#ed8c73" opacity="0.74"/>
      </g>
    </g>
  </g>
</svg>
