<svg id="Capa_1" data-name="Capa 1" xmlns="http://www.w3.org/2000/svg" width="120" height="120" viewBox="0 0 120 120">
  <rect id="Rectángulo_34844" data-name="Rectángulo 34844" width="120" height="120" fill="none"/>
  <circle id="Elipse_5432" data-name="Elipse 5432" cx="50" cy="50" r="50" transform="translate(10 10)" fill="#99b9de"/>
  <g id="Grupo_80744" data-name="Grupo 80744">
    <path id="Trazado_121313" data-name="Trazado 121313" d="M72.77,83.24H22.05a4.11,4.11,0,0,1-4.37-3c0-.07-.11-.12-.16-.17v-2A4.48,4.48,0,0,1,21.66,75H98.34l.49.08a4,4,0,0,1,1.29,7.68,6.2,6.2,0,0,1-2.59.43h-14Z" fill="#fe7158"/>
    <path id="Trazado_121314" data-name="Trazado 121314" d="M17.52,22.51V20.85c1.11-2.7,2.05-3.32,5-3.32H98.59A4.05,4.05,0,0,1,102.24,23c-.55,1.7-1.85,2.61-3.92,2.73H21.67a4.59,4.59,0,0,1-2.62-.89,5.78,5.78,0,0,1-1.53-2.33Z" fill="#fe7158"/>
    <path id="Trazado_121315" data-name="Trazado 121315" d="M83.53,83.24l9.24,18.26a2.27,2.27,0,0,1,.41,1H82.56a1.9,1.9,0,0,0-.38-.9L73.05,83.84c-.1-.2-.19-.4-.28-.6Z" fill="#23495f"/>
    <path id="Trazado_121316" data-name="Trazado 121316" d="M26.81,102.47a2.27,2.27,0,0,1,.41-1l9-17.66c.1-.2.18-.4.27-.6H47.22q-4.36,8.51-8.73,17a12.22,12.22,0,0,0-1.06,2.22Z" fill="#23495f"/>
    <path id="Trazado_121317" data-name="Trazado 121317" d="M21.66,75V25.81H98.32V75H22.65A5.456,5.456,0,0,1,21.66,75ZM28,36.9c1.41-.49,2.38-.28,3,.58a1.79,1.79,0,0,1-.16,2.08c-.65.83-1.49,1-2.75.43a.83.83,0,0,0,0,.15c0,1.07,0,2.15,0,3.23,0,1.89.58,2.48,2.46,2.49h3.34c-.45,1.09-.48,2,.43,2.74a2,2,0,0,0,2.25.19c1.11-.73,1.11-1.77.69-2.93h3.31c1.75,0,2.38-.65,2.39-2.41V40.14c1.22.55,2,.44,2.64-.29a2,2,0,0,0,.31-2.3c-.51-.88-1.35-1.1-2.86-.77a1.49,1.49,0,0,1-.09-.81V33.15a1.691,1.691,0,0,0-1.46-1.92,35.659,35.659,0,0,0-4.28-.09c.58,1.2.49,2-.22,2.69a2,2,0,0,1-2.53.24c-1.16-.72-1.06-1.79-.67-2.92H30.01A1.8,1.8,0,0,0,28,33.09Zm54.29-3.14V34a11.752,11.752,0,0,0,.52,1.48c.27.57,0,.77-.45,1A40.57,40.57,0,0,0,63,52.7a45.58,45.58,0,0,0-5.5,12.44c-.18.67-.11,1,.68,1a6.19,6.19,0,0,1,1.7.34c.77.27,1,0,1.25-.74a41.4,41.4,0,0,1,13-20.35,35.44,35.44,0,0,1,9.63-5.73c.52-.21.73-.11.88.41s.39,1.11.64,1.8c1.25-2.05,2.42-4,3.61-5.9.27-.44,0-.5-.32-.59-1.38-.38-2.76-.78-4.14-1.14a10.89,10.89,0,0,0-2.17-.48ZM79.08,62.7a5.82,5.82,0,1,0-5.83,5.77,5.82,5.82,0,0,0,5.83-5.77ZM39.34,59.33H49.95c.67,0,1-.18.92-.89a16.511,16.511,0,0,1,0-2c0-.57-.2-.77-.77-.77H28.63c-.52,0-.68.19-.66.68a17.141,17.141,0,0,1,0,2.15c-.06.7.23.83.85.82C32.32,59.32,35.83,59.33,39.34,59.33ZM67.65,33c-.09-.11-.19-.27-.32-.41-.54-.55-1.11-1.08-1.63-1.65-.31-.33-.51-.29-.8,0-.65.68-1.34,1.32-2,2-.33.35-.55.35-.87,0-.61-.68-1.27-1.31-1.88-2-.25-.27-.41-.37-.72-.06-.62.62-1.28,1.22-1.94,1.8-.3.26-.32.45,0,.73.58.55,1.14,1.13,1.7,1.7.77.77.77.77,0,1.5-.56.57-1.12,1.15-1.7,1.7-.32.3-.32.48,0,.77.61.51,1.18,1.08,1.74,1.65.35.36.6.38,1,0,.59-.66,1.23-1.27,1.83-1.92.29-.32.51-.32.81,0,.65.68,1.34,1.32,2,2,.31.34.53.37.86,0,.52-.57,1.07-1.12,1.64-1.64.37-.33.41-.57,0-.93-.6-.56-1.13-1.2-1.74-1.77-.43-.41-.47-.73,0-1.16s1.12-1.15,1.67-1.73A.87.87,0,0,0,67.65,33ZM90.76,57a3,3,0,0,0,.32-.25c.61-.61,1.21-1.22,1.83-1.81.29-.28.28-.47,0-.74-.61-.57-1.15-1.21-1.78-1.75s-.69-.86,0-1.39a24.316,24.316,0,0,0,1.77-1.74c.32-.3.34-.5,0-.8-.59-.55-1.15-1.12-1.7-1.7-.28-.3-.47-.36-.78,0-.52.57-1.08,1.1-1.63,1.65-.81.81-.81.81-1.65,0l-2-1.9a19.48,19.48,0,0,0-2.09,2L83,48.5c-.32.24-.29.46,0,.73.66.63,1.27,1.32,2,1.92.5.43.43.7,0,1.1-.66.59-1.25,1.26-1.89,1.86-.31.29-.34.5,0,.8.58.54,1.16,1.11,1.69,1.7.35.39.55.28.85,0,.62-.66,1.31-1.27,1.92-2,.38-.42.61-.35,1,0,.61.67,1.28,1.3,1.93,1.94C90.49,56.71,90.62,56.82,90.76,57ZM35.08,68.47h6.46c.52,0,.75-.13.72-.7V65.54c0-.43-.15-.58-.58-.58H28.52c-.46,0-.56.2-.55.6v2.15c0,.71.16.77.75.76C30.83,68.45,33,68.47,35.08,68.47Z" fill="#e7eae9"/>
    <path id="Trazado_121318" data-name="Trazado 121318" d="M98.32,25.82H21.67v-.13H98.32Z" fill="#faf5f4"/>
    <path id="Trazado_121319" data-name="Trazado 121319" d="M28,36.9V33.09a1.8,1.8,0,0,1,1.91-1.94H33.7c-.39,1.13-.49,2.2.67,2.92a2,2,0,0,0,2.53-.24c.71-.67.8-1.49.22-2.69a35.659,35.659,0,0,1,4.28.09c1,.15,1.42.81,1.46,1.92v2.82a1.49,1.49,0,0,0,.09.81c1.51-.33,2.35-.11,2.86.77a2,2,0,0,1-.31,2.3c-.63.73-1.42.84-2.64.29v3.31c0,1.76-.64,2.4-2.39,2.41H37.14c.42,1.16.42,2.2-.69,2.93a2,2,0,0,1-2.25-.19c-.91-.73-.88-1.65-.43-2.74H30.43c-1.88,0-2.46-.6-2.46-2.49V40.14A.83.83,0,0,1,28,40c1.26.53,2.1.4,2.75-.43a1.79,1.79,0,0,0,.16-2.08C30.35,36.62,29.38,36.41,28,36.9Z" fill="#244a60"/>
    <path id="Trazado_121320" data-name="Trazado 121320" d="M82.26,33.76a10.89,10.89,0,0,1,2.2.53c1.38.36,2.76.76,4.14,1.14.34.09.59.15.32.59-1.19,1.92-2.36,3.85-3.61,5.9-.25-.69-.48-1.24-.64-1.8s-.36-.62-.88-.41a35.44,35.44,0,0,0-9.63,5.73,41.4,41.4,0,0,0-13,20.35c-.22.75-.48,1-1.25.74a6.19,6.19,0,0,0-1.7-.34c-.79,0-.86-.38-.68-1A45.58,45.58,0,0,1,63,52.7,40.57,40.57,0,0,1,82.33,36.41c.49-.2.72-.4.45-1A11.75,11.75,0,0,1,82.26,34Z" fill="#02c6ba"/>
    <path id="Trazado_121321" data-name="Trazado 121321" d="M79.08,62.7a5.82,5.82,0,1,1-5.75-5.86,5.82,5.82,0,0,1,5.75,5.86Zm-3.5.18a2.31,2.31,0,1,0-2.32,2.26A2.39,2.39,0,0,0,75.58,62.88Z" fill="#01c1ec"/>
    <path id="Trazado_121322" data-name="Trazado 121322" d="M39.34,59.33H28.81c-.62,0-.91-.12-.85-.82a17.14,17.14,0,0,0,0-2.15c0-.49.14-.68.66-.68H50.09c.57,0,.8.2.77.77a16.51,16.51,0,0,0,0,2c.05.71-.25.9-.92.89C46.42,59.32,42.88,59.33,39.34,59.33Z" fill="#adb5bd"/>
    <path id="Trazado_121323" data-name="Trazado 121323" d="M67.65,33a.87.87,0,0,1-.34.61c-.55.58-1.09,1.18-1.67,1.73s-.42.75,0,1.16c.61.57,1.14,1.21,1.74,1.77.39.36.35.6,0,.93-.57.52-1.12,1.07-1.64,1.64-.33.36-.55.33-.86,0-.64-.69-1.33-1.33-2-2-.3-.31-.52-.31-.81,0-.6.65-1.24,1.26-1.83,1.92-.35.39-.6.37-1,0-.56-.57-1.13-1.14-1.74-1.65-.36-.29-.36-.47,0-.77.58-.55,1.14-1.13,1.7-1.7.74-.73.74-.73,0-1.5-.56-.57-1.12-1.15-1.7-1.7-.3-.28-.28-.47,0-.73.66-.58,1.32-1.18,1.94-1.8.31-.31.47-.21.72.06.61.68,1.27,1.31,1.88,2,.32.35.54.35.87,0,.64-.68,1.33-1.32,2-2,.29-.31.49-.35.8,0,.52.57,1.09,1.1,1.63,1.65C67.46,32.76,67.56,32.92,67.65,33Z" fill="#fed253"/>
    <path id="Trazado_121324" data-name="Trazado 121324" d="M90.76,57c-.14-.13-.27-.24-.38-.36-.65-.64-1.32-1.27-1.93-1.94-.35-.38-.58-.45-1,0-.61.68-1.3,1.29-1.92,2-.3.32-.5.43-.85,0-.53-.59-1.11-1.16-1.69-1.7-.33-.3-.3-.51,0-.8.64-.6,1.23-1.27,1.89-1.86.45-.4.52-.67,0-1.1-.68-.6-1.29-1.29-2-1.92-.28-.27-.31-.49,0-.73l.06-.06a19.48,19.48,0,0,1,2.09-2l2,1.9c.84.84.84.84,1.65,0,.55-.55,1.11-1.08,1.63-1.65.31-.34.5-.28.78,0,.55.58,1.11,1.15,1.7,1.7.33.3.31.5,0,.8-.6.56-1.13,1.21-1.77,1.74s-.56.9,0,1.39,1.17,1.18,1.78,1.75c.28.27.29.46,0,.74-.62.59-1.22,1.2-1.83,1.81a3,3,0,0,1-.21.29Z" fill="#fe7259"/>
    <path id="Trazado_121325" data-name="Trazado 121325" d="M35.08,68.47H28.71c-.59,0-.78-.18-.75-.76s0-1.43,0-2.15c0-.4.09-.6.55-.6H41.67c.43,0,.59.15.58.58v2.23c0,.57-.2.7-.72.7C39.39,68.45,37.23,68.47,35.08,68.47Z" fill="#abb3bb"/>
    <path id="Trazado_121326" data-name="Trazado 121326" d="M75.58,62.88a2.31,2.31,0,1,1-2.3-2.36,2.4,2.4,0,0,1,2.3,2.36Z" fill="#e2e9e9"/>
  </g>
</svg>
