<svg id="Capa_1" data-name="Capa 1" xmlns="http://www.w3.org/2000/svg" width="120" height="120" viewBox="0 0 120 120">
  <rect id="Rectángulo_34843" data-name="Rectángulo 34843" width="120" height="120" fill="none"/>
  <circle id="Elipse_5431" data-name="Elipse 5431" cx="50" cy="50" r="50" transform="translate(10 10)" fill="#99b9de"/>
  <g id="Grupo_80743" data-name="Grupo 80743">
    <path id="Trazado_121279" data-name="Trazado 121279" d="M86.3,50.23c.76-.45,1.56-.15,2.32-.1,4.3.27,8.6.6,12.89.9l8.34.58v.2a40.6,40.6,0,0,0-3.31,4.3q-5.17,6.95-10.31,13.94c-.17.23-.3.5-.6.61A26.4,26.4,0,0,0,93,59.47a28.7,28.7,0,0,0-5.57-8.06l-.2-.21A3.6,3.6,0,0,0,86.3,50.23Z" fill="#fe7259"/>
    <path id="Trazado_121280" data-name="Trazado 121280" d="M28.06,77.91l.77-.7a7.663,7.663,0,0,0,.85-.46c2.6-1.71,5.2-3.42,7.78-5.16a29.841,29.841,0,0,0,3.42-2.38,1.69,1.69,0,0,0,.86-.44C44.48,67,47.19,65.15,50,63.4a11.53,11.53,0,0,1,2.83-1.67,3.27,3.27,0,0,1,.56.11c2.8,1,5.6,2,8.39,3.08l6.82,2.56c-.33.17-.46.21-.56.28L56.23,76.9c-.24.2-.58.31-.66.67l-.6.21a2.46,2.46,0,0,0-3,.77,4.49,4.49,0,0,1-1.61,1.36c-.34.14-.41.33-.2.66.61,1,1.2,1.93,1.78,2.9.17.28.36.45.7.26.7-.4.84.15,1,.62a11.76,11.76,0,0,0,1,2.92,30.929,30.929,0,0,0,2.76,4,20.8,20.8,0,0,0-5.68,1.59,1.68,1.68,0,0,0-1,.11C47,94,43.3,95,39.65,96a4.91,4.91,0,0,0-1.9.67h-1Z" fill="#e7eae9"/>
    <path id="Trazado_121281" data-name="Trazado 121281" d="M87.4,51.41A28.7,28.7,0,0,1,93,59.47a26.4,26.4,0,0,1,2.66,11.19,1.27,1.27,0,0,1-.55.88,73.4,73.4,0,0,1-14.4,10.85,79.4,79.4,0,0,1-16.94,6.74c-1.27.35-2.53.77-3.81,1.14a.75.75,0,0,0-.5.42A9.84,9.84,0,0,1,58.29,86a19.68,19.68,0,0,0,0-4.06l.42-1.26a20.48,20.48,0,0,1,4.11,2.78c.51.47.75.32,1.13-.13,2.19-2.62,4.41-5.21,6.6-7.83a8.87,8.87,0,0,1,2.09-1.87A44.771,44.771,0,0,0,77,70.36a4,4,0,0,0,1.74-4,6.75,6.75,0,0,0-2.58-4.53C73.07,59.48,70,57,66.88,54.64c.12-.45.51-.55.88-.68a65.829,65.829,0,0,1,11.83-3,52.231,52.231,0,0,1,6.71-.78,3.6,3.6,0,0,1,.9,1C87.26,51.28,87.09,51.57,87.4,51.41Z" fill="#e7eae9"/>
    <path id="Trazado_121282" data-name="Trazado 121282" d="M43.24,24.26a8.83,8.83,0,0,1,.35-.9c.87-1.65,1.95-3.16,4.56-2.26a6.71,6.71,0,0,0,3.92.1c-.21.62-.09,1,.65,1.12.24,0,.64.05.34.44s-.11.79.09,1.15c1.41,2.48,3,4.83,4.22,7.44a1.66,1.66,0,0,0,.51.58,3.72,3.72,0,0,1,1.81,3c0,.16,0,.34.22.38s.31-.15.38-.34a5.6,5.6,0,0,1,.4-1c.36-.59.38-1.4,1.11-1.75-.57,6.55,2,12.53,3.41,18.71.25,1.06.61,2.1.91,3.16a8.45,8.45,0,0,1-3.52-3.84,21.88,21.88,0,0,1-.77-3.68,19.11,19.11,0,0,0-1.12-3.76c0,2.05.21,4.09.16,6.13a3.39,3.39,0,0,1-.59,1.91c-1.7,2.5-4.17,3.51-7.07,3.84-2,.23-4,.11-5.92.22a11.59,11.59,0,0,0-1.56,0c-.92.11-1.1-.29-1.1-1.14,0-4-.1-8-.33-12-.18-3.05-.3-6.1-.44-9.16a17.049,17.049,0,0,1-.18-2c.07-1.95-.34-3.87-.21-5.82a.59.59,0,0,0-.23-.53Z" fill="#2f5a6c"/>
    <path id="Trazado_121283" data-name="Trazado 121283" d="M47.29,55c2-.11,3.94,0,5.92-.22,2.9-.33,5.37-1.34,7.07-3.84A3.39,3.39,0,0,0,60.87,49c.05-2-.17-4.08-.16-6.13a19.109,19.109,0,0,1,1.12,3.76,21.88,21.88,0,0,0,.77,3.68,8.45,8.45,0,0,0,3.52,3.84l.76.49c3.1,2.4,6.19,4.84,9.32,7.21a6.75,6.75,0,0,1,2.58,4.53,4,4,0,0,1-1.74,4,44.77,44.77,0,0,1-4.4,3.23,8.87,8.87,0,0,0-2.09,1.87c-2.19,2.62-4.41,5.21-6.6,7.83-.38.45-.62.6-1.13.13a20.48,20.48,0,0,0-4.11-2.78l-3.14-3.07c.08-.36.42-.47.66-.67L68,67.76c.1-.07.23-.11.56-.28l-6.82-2.56c-2.79-1-5.59-2.06-8.39-3.08a2.52,2.52,0,0,0-.56-.1l-1.08-.62C49.2,59.81,47.42,58,47.29,55Z" fill="#23495f"/>
    <path id="Trazado_121284" data-name="Trazado 121284" d="M23.65,66.26l-3-.06V49.97a4,4,0,0,1,.49,0c.82.14,1.11-.13,1.08-1,0-1.43.65-2,2.28-2.1-.07.55-.52,1-.36,1.63-.53.34-.38.89-.24,1.3s.62.2,1,.21h2.91c1.23,0,1.34-.18.9-1.41,1-1.37,1.28-1.4,1.83-.27.11,1.63.11,1.63,1.46,1.68V66.22H24.37l-.38-.1-.19.12a.19.19,0,0,1-.15.02Z" fill="#01baa5"/>
    <path id="Trazado_121285" data-name="Trazado 121285" d="M37.75,96.67a4.91,4.91,0,0,1,1.9-.67c3.65-1,7.3-2,11-3.06a1.68,1.68,0,0,1,1-.11c-.53,6.67-3.64,11.7-9.56,14.87a17,17,0,0,1-10.7,1.81A18.143,18.143,0,0,0,37.75,96.67Z" fill="#fe7259"/>
    <path id="Trazado_121286" data-name="Trazado 121286" d="M23.65,66.26a.19.19,0,0,0,.11-.07H32l3.82.06a23.36,23.36,0,0,1,5.1,2.95,29.842,29.842,0,0,1-3.42,2.38c-2.58,1.74-5.18,3.45-7.78,5.16a7.659,7.659,0,0,1-.85.46A17.18,17.18,0,0,0,15,73.68a16.73,16.73,0,0,1,3.63-4.37,19.89,19.89,0,0,1,5.02-3.05Z" fill="#fe7259"/>
    <path id="Trazado_121287" data-name="Trazado 121287" d="M31.36,92.91a7.82,7.82,0,0,1-3.24,3.63,7.23,7.23,0,0,1-2.81.7c-4.91.46-9.8.05-14.7-.16-.15,0-.35,0-.43-.14s.15-.4.29-.56c2.3-2.65,4.64-5.26,7.16-7.7.73-.7,1.5-1.35,2.23-2,2.21-2.1,4.71-3,7.74-2,.21.5.43,1,.65,1.5a2.45,2.45,0,0,0-1.39.35c-2.31,1.55-3.92,3.76-5.79,5.83a30.48,30.48,0,0,0,5.84.24c1.34-.07,2.74-.1,3.76-1.21Z" fill="#fed152"/>
    <path id="Trazado_121288" data-name="Trazado 121288" d="M43.24,24.26a.59.59,0,0,1,.23.6c-.13,1.95.28,3.87.21,5.82a17.049,17.049,0,0,0,.18,2,1,1,0,0,0-.38,0L37.93,35a1.93,1.93,0,0,0-.68.52,33.82,33.82,0,0,0-5.4,6.86c-.18.31-.36.63-.81.57a.9.9,0,0,0-.34-1.15,13.74,13.74,0,0,0-2.51-1.47c-.37-.17-.62,0-.91.11-.71-.47-.64-.92-.08-1.53C29.81,36,32.36,33.1,35,30.2a17.45,17.45,0,0,1,4.74-3.53,19,19,0,0,0,3.5-2.41Z" fill="#244b60"/>
    <path id="Trazado_121289" data-name="Trazado 121289" d="M80.94,22.16c.13.26.79.45,0,.79-6.11,2.7-12,6-18.13,8.55l-1,.39c0-1.3.72-2.58.19-3.89a18.059,18.059,0,0,1-.58-2.91,41,41,0,0,0,9.26-3.45A57.4,57.4,0,0,1,79,18C79.45,19.46,79.74,21,80.94,22.16Z" fill="#315b6d"/>
    <path id="Trazado_121290" data-name="Trazado 121290" d="M62.62,13.06a5.79,5.79,0,0,1,1.5,2.9c.14.83.89,1.24,1.27,1.9.3.49,1.21,1-.08,1.48-.22.08-.11.32-.07.52A4.15,4.15,0,0,1,65,22.22c-.31.92-1.45,1.34-2.82,1.18-.56-.06-1.35-.49-1.53.58l-.24.1c-.17.08-.36.16-.3.41h0c-1,.5-1.56.05-2.18-.69-.93-1.11-2-2.13-2.95-3.19A3.36,3.36,0,0,0,56.8,17a.81.81,0,0,1,.46-.9,1,1,0,0,1,1.08.23,3.18,3.18,0,0,1,.69.93c.11.23.06.65.55.46s.36-.41.32-.77a3.52,3.52,0,0,1,2.72-3.89Z" fill="#fed152"/>
    <path id="Trazado_121291" data-name="Trazado 121291" d="M28.25,86.15c-.22-.5-.44-1-.65-1.5-.88-1.9-1.74-3.81-2.63-5.71-.23-.49-.26-.72.4-.8a18.539,18.539,0,0,1,2.69-.23l8.67,18.8a12.45,12.45,0,0,1-1.91,1.93c-.42.42-.62.37-.87-.18-.84-1.86-1.72-3.7-2.59-5.55l-.69-1.55C29.92,89.6,29.16,87.84,28.25,86.15Z" fill="#325c6d"/>
    <path id="Trazado_121292" data-name="Trazado 121292" d="M62.62,13.06a3.52,3.52,0,0,0-2.72,3.88c0,.36.08.62-.32.77s-.44-.23-.55-.46a3.18,3.18,0,0,0-.69-.93,1,1,0,0,0-1.08-.23.81.81,0,0,0-.46.9A3.36,3.36,0,0,1,55,20.61c-.22.09-.47.13-.61.36-.52,0-1.11.13-1.3-.6-.2-1.67-.61-3.3-.81-5a3.19,3.19,0,0,1,2-3.66,14.59,14.59,0,0,1,6.29-1.44C62.17,10.29,62.82,11.21,62.62,13.06Z" fill="#315b6d"/>
    <path id="Trazado_121293" data-name="Trazado 121293" d="M58.29,81.9a19.68,19.68,0,0,1,0,4.06,9.84,9.84,0,0,0,1.17,4.73,4,4,0,0,1,.15.45c.06.41.54.86,0,1.24s-1,0-1.38-.32-.63-.55-1-.82a30.931,30.931,0,0,1-2.76-4,11.76,11.76,0,0,1-1-2.92c-.12-.47-.26-1-1-.62-.34.19-.53,0-.7-.26-.58-1-1.17-2-1.78-2.9-.21-.33-.14-.52.2-.66a4.49,4.49,0,0,0,1.61-1.36,2.46,2.46,0,0,1,3-.77v.86c0,1.86.42,2.38,2.2,2.87A8.9,8.9,0,0,1,58.29,81.9Z" fill="#315b6d"/>
    <path id="Trazado_121294" data-name="Trazado 121294" d="M53,20.37c.19.73.78.59,1.3.6.88,2,2.45,3.57,3.22,5.61l.21.67a12.41,12.41,0,0,0,1.94,5.2l-.28-5.24v-.37l.63-2.35h0c.22,0,.21-.27.3-.41l.24-.1c.45.24.43.83.82,1.11A18.059,18.059,0,0,0,62,28c.53,1.31-.22,2.59-.19,3.89v.39c-.73.35-.75,1.16-1.11,1.75a5.6,5.6,0,0,0-.4,1c-.07.19-.12.4-.38.34s-.22-.22-.22-.38a3.72,3.72,0,0,0-1.81-3,1.66,1.66,0,0,1-.51-.58c-1.18-2.61-2.81-5-4.22-7.44-.2-.36-.43-.7-.09-1.15s-.1-.42-.34-.44c-.74-.08-.86-.5-.65-1.12Z" fill="#244b60"/>
    <path id="Trazado_121295" data-name="Trazado 121295" d="M18.29,66.2c-3.44.14-2.95-.17-3-2.85V51.74c0-1.62.11-1.73,1.69-1.77h1.27Z" fill="#01baa5"/>
    <path id="Trazado_121296" data-name="Trazado 121296" d="M18.29,66.2V50a6.93,6.93,0,0,1,2.36,0V66.23Z" fill="#01c6b9"/>
    <path id="Trazado_121297" data-name="Trazado 121297" d="M24.14,48.47c-.16-.61.29-1.08.36-1.63,1.05-1.67,1.59-3.62,2.76-5.24a2.57,2.57,0,0,1,1.22.28c.75.32,1.66.47,1.79,1.53a1.36,1.36,0,0,0,.2,1.36,2.81,2.81,0,0,1,0,3.54c-.55-1.13-.8-1.1-1.83.27-.42.52-.83,1-1.55.38-.08-.08-.31,0-.46,0a7.44,7.44,0,0,1-2.49-.49Z" fill="#fed152"/>
    <path id="Trazado_121298" data-name="Trazado 121298" d="M81.73,17.25a31.6,31.6,0,0,0,5-2.36c1.18-.62,1.29-.54,2.09.47A2.41,2.41,0,0,1,89.35,18a1.24,1.24,0,0,1-1.11.8,4.49,4.49,0,0,1-2.3-.11,2.24,2.24,0,0,0-2.51.41,6,6,0,0,1-.91.55,7.36,7.36,0,0,1-.79-2.4Z" fill="#fed152"/>
    <path id="Trazado_121299" data-name="Trazado 121299" d="M81.73,17.25a7.36,7.36,0,0,0,.79,2.37c.63,1,.16,1.54-.84,1.87-.31.11-.71.21-.74.67C79.74,21,79.45,19.46,79,18c.66-.31,1.34-.59,2-.94C81.39,16.82,81.53,17.08,81.73,17.25Z" fill="#e7eae9"/>
    <path id="Trazado_121300" data-name="Trazado 121300" d="M30.27,43.41c-.13-1.06-1-1.21-1.79-1.53a2.57,2.57,0,0,0-1.22-.28c-.31-.38.11-.75,0-1.13.29-.1.54-.28.91-.11a13.74,13.74,0,0,1,2.51,1.47A.9.9,0,0,1,31,43Z" fill="#e7eae9"/>
    <path id="Trazado_121301" data-name="Trazado 121301" d="M87.4,51.41c-.31.16-.14-.13-.2-.21Z" fill="#fefefe"/>
    <path id="Trazado_121302" data-name="Trazado 121302" d="M58.29,81.9c-.36-.13-.71-.29-1.08-.39C55.43,81,55,80.5,55,78.64v-.86l.6-.21,3.14,3.07Z" fill="#c5d1dc"/>
    <path id="Trazado_121303" data-name="Trazado 121303" d="M34.5,50c2.88-.2,2.9-.18,2.9,2.67V64.44c0,1.49-.16,1.68-1.62,1.83L32,66.2v-.15a10.422,10.422,0,0,1,1.37,0c.94.12,1.2-.24,1.19-1.18C34.47,59.92,34.5,55,34.5,50Z" fill="#04bba7"/>
    <path id="Trazado_121304" data-name="Trazado 121304" d="M34.5,50V64.9c0,.94-.25,1.3-1.19,1.18a10.42,10.42,0,0,0-1.37,0Q32,58,32,50a6.63,6.63,0,0,1,2.5,0Z" fill="#01c6b9"/>
    <path id="Trazado_121305" data-name="Trazado 121305" d="M24.14,48.47a7.44,7.44,0,0,0,2.51.51c.15,0,.38-.1.46,0,.72.64,1.13.14,1.55-.38.44,1.23.33,1.41-.9,1.41H24.85c-.33,0-.82.2-1-.21A1,1,0,0,1,24.14,48.47Z" fill="#efeeeb"/>
    <path id="Trazado_121306" data-name="Trazado 121306" d="M24.33,66.17h-.37v-.13Z" fill="#04bba7"/>
    <path id="Trazado_121307" data-name="Trazado 121307" d="M24,66.07v.13h-.2Z" fill="#01c6b9"/>
    <path id="Trazado_121308" data-name="Trazado 121308" d="M28.25,86.15c.91,1.69,1.67,3.45,2.42,5.21-1,1.11-2.42,1.14-3.76,1.21a30.48,30.48,0,0,1-5.84-.24c1.87-2.07,3.48-4.28,5.79-5.83A2.45,2.45,0,0,1,28.25,86.15Z" fill="#fe7259"/>
    <path id="Trazado_121309" data-name="Trazado 121309" d="M60.08,24.49l-.63,2.35c-.3-.51-.14-1.17-.53-1.71l-1.36,1.45c-.77-2-2.34-3.63-3.22-5.61.14-.23.39-.27.61-.36,1,1.06,2,2.08,2.95,3.19C58.52,24.54,59.12,25,60.08,24.49Z" fill="#efeeeb"/>
    <path id="Trazado_121310" data-name="Trazado 121310" d="M60.37,24.08c-.09.14-.08.36-.3.41C60,24.24,60.2,24.16,60.37,24.08Z" fill="#efeeeb"/>
    <path id="Trazado_121311" data-name="Trazado 121311" d="M59.43,27.21l.28,5.24a12.41,12.41,0,0,1-1.94-5.2Z" fill="#efeeeb"/>
    <path id="Trazado_121312" data-name="Trazado 121312" d="M59.43,27.21H57.77l-.21-.67,1.36-1.45c.39.54.23,1.2.53,1.71Z" fill="#fed152"/>
  </g>
</svg>
