<svg id="Capa_1" data-name="Capa 1" xmlns="http://www.w3.org/2000/svg" width="120" height="120" viewBox="0 0 120 120">
  <rect id="Rectángulo_34838" data-name="Rectángulo 34838" width="120" height="120" fill="none"/>
  <circle id="Elipse_5426" data-name="Elipse 5426" cx="50" cy="50" r="50" transform="translate(10 10)" fill="#9cbce1"/>
  <g id="Grupo_80738" data-name="Grupo 80738">
    <path id="Trazado_121125" data-name="Trazado 121125" d="M26.22,59.86c-.81,1.73-1.64,3.45-2.4,5.2-.3.68-.54.82-1.27.48C15.39,62.2,8.2,58.92,1,55.62c-.32-.15-.61-.42-1-.36V55c1.77-3.79,3.56-7.57,5.31-11.37,2.76-6,5.52-11.94,8.22-17.94.41-.91.77-.93,1.59-.55q10.48,4.89,21,9.67c1.05.48,1.36.9.7,1.86a1.65,1.65,0,0,0-.14.41Q31.48,48.49,26.22,59.86ZM15.71,55.61a3.5,3.5,0,0,0,3.41,3.63,3.64,3.64,0,0,0,3.48-3.53c.14-1.92-1.94-3.59-3.56-3.56S15.41,53.67,15.71,55.61Z" fill="#305a6c"/>
    <path id="Trazado_121126" data-name="Trazado 121126" d="M85.2,88.89h.27c0,.57-.46,1.32.28,1.66A1.05,1.05,0,0,0,87.13,90L95,91.39l16.84,3.07c.06,0,.11.08.32.24l-2.22.64c-6.76,2-13.51,4-20.27,5.94-5.92,1.72-11.85,3.41-17.77,5.12a11.472,11.472,0,0,0-2.2.68c-2.82,1.45-5.52.59-8.29-.18-6.57-1.84-13.15-3.6-19.73-5.39L17.7,95Q9.32,92.7.92,90.45a.81.81,0,0,1-.62-.4l8.48-1.38c3.9-.64,7.79-1.29,11.69-1.92l11.58-1.84c3.43-.56,6.88-1,10.28-1.72a22.68,22.68,0,0,1,9.21.18c5.12,1,10.28,1.89,15.41,2.89,1,.2,2.1.07,3,.79-2.43-.12-4.85-.26-7.28-.37-4.38-.18-8.77,0-13.15.1l-1.29.31a32.48,32.48,0,0,0,7,2l1.47.29a.89.89,0,0,1-.65.38L34.63,94.2l-5,1.06a3.19,3.19,0,0,0,2.24.39c7.69-1.62,15.38-3.18,23.07-4.8,1.25-.27,2.6-.24,3.74-1l9.9.82a37.148,37.148,0,0,1-4.89,1.21c-6,1.39-12,2.74-18,4.12-2.25.51-4.5,1.07-7,1.66A3.68,3.68,0,0,0,41,98c4.29-1,8.59-2,12.88-2.93q8.58-2,17.16-3.93l9.54.85a19.88,19.88,0,0,1-3.38.92L54.73,98.5l-6.88,1.73a3,3,0,0,0,2.26.37l33.6-8.49-1.21-.33.13-.5C85.14,91.08,85.14,91.08,85.2,88.89ZM32.52,88h0c-.35-.36-.75-.25-1.24-.12a2.61,2.61,0,0,0,1.24.12Zm-2-.89a8.37,8.37,0,0,0-3.1.46c1.09.43,2-.28,2.81.15.22,0,.51.24.61-.14.06-.2.16-.52-.31-.46ZM44.06,85.9c.1-.11.58-.2.06-.34a6.11,6.11,0,0,0-3.28.08l1.42.42c.15.29.49.1.73.31-.21.09-.46.09-.54.33a.41.41,0,0,1-.51,0c-1.28-.8-2.72-.52-4.4-.75,1.67.85,3.24.6,4.66,1.09.31.1.12-.27.25-.34h1.57c1.11.5,2.2-.06,3.29-.11A1.71,1.71,0,0,0,49,86c-.92.28-1.48-.49-2.39.17-.53.39-1.7.2-2.54.55ZM23,88.58c-1.23-.07-2.49-.4-3.81.14a5.38,5.38,0,0,0,3.24.74c-.19-.14-.62.1-.64-.43a14.3,14.3,0,0,1,2,.07c.64,0,0,.57.28.58,1,0,2,.25,2.89-.5.27-.39.61-.26,1-.19.78.15,1.58.23,2.37.34a7,7,0,0,0-5.78-1.06h-.32C23.74,88.25,23.26,88,23,88.58Zm69.93,5.35a3.61,3.61,0,0,0-2.41-.29c-9.87,2.74-19.76,5.45-29.63,8.21a8.2,8.2,0,0,0-3.3,1.24c11.85-2.71,23.56-6.03,35.32-9.16ZM20,92.7a4.52,4.52,0,0,0,3,.3c1.94-.38,3.9-.7,5.85-1l10.18-1.8a3.79,3.79,0,0,0-3-.54c-2.19.47-4.4.84-6.6,1.26Zm-5-3.22c1.34.79,6.48,1.21,7.8.62a8.22,8.22,0,0,0-2.42,0,2.17,2.17,0,0,1-1.82-.17c-1.18-.93-2.4-.34-3.56-.45Zm22.08-1.94a8.75,8.75,0,0,0-5.65-.44c2.05.25,3.8.73,5.63.44Zm10.71-2.63a4,4,0,0,0-3.41.12,9.28,9.28,0,0,0,3.39-.12Z" fill="#f1f1f1"/>
    <path id="Trazado_121127" data-name="Trazado 121127" d="M37.38,63.22c-.18-.49-.65-.67-1.05-.9a41.691,41.691,0,0,0-5.55-2.88c-.18-.52.13-.92.33-1.35Q33.42,53,35.75,48c1.34-2.89,2.71-5.77,4.07-8.65a2.6,2.6,0,0,0,2,0c3.79-1.29,7.65-2.4,11.37-3.86a9,9,0,0,1,8.77,1A33.6,33.6,0,0,1,55.6,38.8,3.84,3.84,0,0,0,52.72,42c-.24,1.29-.69,2.52-.88,3.82-.05.37-.18.72.11,1a9.06,9.06,0,0,0-.52,1.2c-.18.62-.69,1.25-.1,1.92a4,4,0,0,0,5.09,0,7.57,7.57,0,0,0,2.67-3.71,3,3,0,0,1,3.23-2,13.52,13.52,0,0,1,5.74,1.74c3.67,1.81,6.64,4.57,9.61,7.28a34.43,34.43,0,0,1,4.82,5.13,19.432,19.432,0,0,1-.06,2.53,3.46,3.46,0,0,1-3.72,2.81c-.85,0-1,.19-.88,1,.39,3.42-1.17,5-4.49,4.6-.53-.06-.62.11-.71.53-.56,2.67-1.32,3.2-4.13,2.93-.35,0-.67-.14-.83.42-.67,2.34-2,3.08-4.34,2.56a5.81,5.81,0,0,1-1.84-.71,4.26,4.26,0,0,1,.76-2,4.66,4.66,0,0,0,.58-2.31,2,2,0,0,0-2.62-1.79c-.29.09-.52.4-.87.27-.19-2.12-.73-2.78-2.29-2.86a.46.46,0,0,1-.2,0c-1-.55-1.76,0-2.46.62s-1.14,1.14-1.73,1.7c-.2.19-.37.57-.68.45s-.08-.49,0-.75a1.22,1.22,0,0,0-.27-1,3.79,3.79,0,0,0-3-1.64A5.44,5.44,0,0,0,44.77,67c-.61.5-1.18.86-1.77-.07C41.7,64.85,39.28,64.43,37.38,63.22Zm36.07-2.65-.24-.16v.08l.28.08A4.44,4.44,0,0,0,76.32,63l.24.16v-.08L76.32,63A5.1,5.1,0,0,0,73.45,60.57Zm-3.2,6.93a4.57,4.57,0,0,0-2-1.9,4.12,4.12,0,0,0,2,1.9Zm-6.37,3a1.86,1.86,0,0,0,1.71,1.28c-.5-.46-.83-.77-1.17-1.07A2.34,2.34,0,0,0,63.88,70.5Zm2.32,1.57a.88.88,0,0,0-.23-.14c-.12,0-.21.06-.17.17a.33.33,0,0,0,.22.16c.11.03.2-.02.18-.19Zm1.65-6.77v.07c0,.01,0,0,.08,0v-.12Z" fill="#fed151"/>
    <path id="Trazado_121128" data-name="Trazado 121128" d="M79.66,37.09C79,35.76,79,35.77,80.31,35q8.72-5,17.43-10c.66-.38,1-.47,1.42.32q6.78,12,13.65,24c.39.67.3.94-.37,1.32q-9,5.1-18,10.27c-.66.38-1,.32-1.33-.37-.79-1.48-1.69-2.92-2.54-4.38Q85.215,46.59,79.66,37.09ZM99.55,52.38a3.16,3.16,0,0,0-3.1-3.09,3.1,3.1,0,0,0,0,6.19,3.18,3.18,0,0,0,3.1-3.1Z" fill="#305a6c"/>
    <path id="Trazado_121129" data-name="Trazado 121129" d="M52,46.85c-.29-.32-.16-.67-.11-1,.19-1.3.64-2.53.88-3.82a3.84,3.84,0,0,1,2.91-3.25A33.6,33.6,0,0,0,62,36.43a4.52,4.52,0,0,1,3.73.88c2.6,1.72,5.66,2.12,8.52,3.08A3.19,3.19,0,0,0,77,39.56c1.93,3.34,3.88,6.68,5.78,10a41.2,41.2,0,0,1,2.85,5.22,18.46,18.46,0,0,1-3.13,3.53,34.43,34.43,0,0,0-4.82-5.13c-3-2.71-5.94-5.47-9.61-7.28a13.52,13.52,0,0,0-5.74-1.74,3,3,0,0,0-3.23,2A7.57,7.57,0,0,1,56.42,50a4,4,0,0,1-5.09,0c3.41-.08,3.32-.68,4-2.85a1.23,1.23,0,0,0-.26-1.42,1.61,1.61,0,0,0-1.66-.28C52.68,45.65,52.38,46.32,52,46.85Z" fill="#feb742"/>
    <path id="Trazado_121130" data-name="Trazado 121130" d="M57.05,66.33c1.56.08,2.1.74,2.29,2.86.35.13.58-.18.87-.27a2,2,0,0,1,2.62,1.79A4.66,4.66,0,0,1,62.25,73a4.26,4.26,0,0,0-.76,2c-.3,0-.43.23-.58.45a2.73,2.73,0,0,1-4.64.26,1.82,1.82,0,0,1-.42-.65c-.23-.91-.66-1.07-1.62-.82-2.07.53-3.78-.45-5.33-1.73-.31-.26-.48-.54-1-.24a3.73,3.73,0,0,1-5.43-3.08,6.46,6.46,0,0,1,.22-2.3c-1.78.65-3.4.9-4.69-.59a2.78,2.78,0,0,1-.63-3.13c1.9,1.21,4.32,1.63,5.62,3.72.59.93,1.16.57,1.77.07a5.44,5.44,0,0,1,3.95-1.35,3.79,3.79,0,0,1,3,1.64,1.22,1.22,0,0,1,.27,1c-.05.26-.39.59,0,.75s.48-.26.68-.45c.59-.56,1.11-1.19,1.73-1.7s1.45-1.17,2.46-.62a3.55,3.55,0,0,0-2.12,2.52,1.55,1.55,0,0,0,.57,2c.7.42,1.26,0,1.79-.41C59.3,68.51,59.3,68.11,57.05,66.33Zm-8.4,4c1,0,2.7-1.3,2.7-2s-1.65-2-2.24-2-2,1.68-2,2.45a1.4,1.4,0,0,0,1.54,1.53Zm11.06,3.11c.87,0,2.74-1.43,2.75-2.11a4.1,4.1,0,0,0-1.83-1.65c-.72,0-2,1.74-2,2.74-.05.77.37.99,1.08,1Z" fill="#feb744"/>
    <path id="Trazado_121131" data-name="Trazado 121131" d="M85.2,88.89c-.06,2.19-.06,2.19-2.57,2.39-.1-.24,0-.6-.49-.57A28.23,28.23,0,0,1,74.42,90a10,10,0,0,0-3.4-.19c-.68.08-1.5,0-1.88.85h-.58l-9.9-.82a9,9,0,0,0-2-.5l-1.47-.29c.19-.35.08-.73.14-1.09.14-.94-.26-1.18-1.17-1.15H49.53c4.38,0,8.77-.28,13.15-.1,2.43.11,4.85.25,7.28.37,3.94.23,7.88.4,11.8.75A6.64,6.64,0,0,1,85.2,88.89Z" fill="#325b6d"/>
    <path id="Trazado_121132" data-name="Trazado 121132" d="M39.82,39.33c-1.36,2.88-2.73,5.76-4.07,8.65Q33.41,53,31.11,58.09c-.2.43-.51.83-.33,1.35a1.36,1.36,0,0,0-.35.27c-.92,1.32-.91,1.3-2.45.72a5,5,0,0,0-1.76-.57q5.25-11.37,10.49-22.74c.82.38,1.62.8,2.46,1.13a.89.89,0,0,1,.65,1.08Z" fill="#e6e9e7"/>
    <path id="Trazado_121133" data-name="Trazado 121133" d="M85.62,54.82a41.2,41.2,0,0,0-2.85-5.22c-1.9-3.36-3.85-6.7-5.78-10,.22-1,1.2-1,1.8-1.44.37-.3.82-.48.87-1,3.7,6.33,7.36,12.69,10.89,19.12a8.14,8.14,0,0,1-2.47,1.58c-.46.25-.65,0-.84-.38a13.89,13.89,0,0,0-1.62-2.66Z" fill="#e6e9e7"/>
    <path id="Trazado_121134" data-name="Trazado 121134" d="M87.13,90a1.05,1.05,0,0,1-1.38.59c-.74-.34-.24-1.09-.28-1.66C86.31,88.84,87,89,87.13,90Z" fill="#fe7861"/>
    <path id="Trazado_121135" data-name="Trazado 121135" d="M15.71,55.61c-.3-1.94,1.81-3.44,3.33-3.46s3.7,1.64,3.56,3.56a3.64,3.64,0,0,1-3.48,3.53,3.5,3.5,0,0,1-3.41-3.63Z" fill="#22495f"/>
    <path id="Trazado_121136" data-name="Trazado 121136" d="M82.5,91.78l1.21.33-33.6,8.49a3,3,0,0,1-2.26-.37l6.88-1.73,22.44-5.58A19.879,19.879,0,0,0,80.55,92C81.2,91.92,81.89,92.16,82.5,91.78Z" fill="#b0b8bf"/>
    <path id="Trazado_121137" data-name="Trazado 121137" d="M92.91,93.93c-11.76,3.13-23.47,6.45-35.34,9.16a8.2,8.2,0,0,1,3.3-1.24c9.87-2.76,19.76-5.47,29.63-8.21a3.61,3.61,0,0,1,2.41.29Z" fill="#b0b8bf"/>
    <path id="Trazado_121138" data-name="Trazado 121138" d="M68.56,90.68h.59c.43.83,1.25.29,1.86.51q-8.58,2-17.16,3.93C49.56,96.06,45.26,97,41,98a3.68,3.68,0,0,1-2.35-.34c2.52-.59,4.77-1.15,7-1.66,6-1.38,12-2.73,18-4.12a37.15,37.15,0,0,0,4.91-1.2Z" fill="#b0b8bf"/>
    <path id="Trazado_121139" data-name="Trazado 121139" d="M56.61,89.36a9,9,0,0,1,2,.5c-1.14.75-2.49.72-3.74,1-7.69,1.62-15.38,3.18-23.07,4.8a3.19,3.19,0,0,1-2.24-.39l5-1.06L56,89.74a.89.89,0,0,0,.61-.38Z" fill="#b0b8bf"/>
    <path id="Trazado_121140" data-name="Trazado 121140" d="M20,92.7l9.4-1.8c2.2-.42,4.41-.79,6.6-1.26a3.79,3.79,0,0,1,3,.54L28.87,92c-1.95.34-3.91.66-5.85,1A4.52,4.52,0,0,1,20,92.7Z" fill="#fe7861"/>
    <path id="Trazado_121141" data-name="Trazado 121141" d="M71,91.15c-.61-.22-1.43.32-1.86-.51.37-.83,1.19-.77,1.87-.85a10,10,0,0,1,3.4.19,28.23,28.23,0,0,0,7.72.73c.48,0,.39.33.49.57s-.09.34-.13.5c-.61.38-1.3.14-2,.22Z" fill="#fb725b"/>
    <path id="Trazado_121142" data-name="Trazado 121142" d="M49.48,86.78c1.55,0,3.09.1,4.63,0,.91,0,1.31.21,1.17,1.15a5.008,5.008,0,0,1-.14,1.09,32.48,32.48,0,0,1-7-2Z" fill="#fb725b"/>
    <path id="Trazado_121143" data-name="Trazado 121143" d="M24.17,88.27h.32c-.21.38.08.39.33.45l2.09.46c-.86.75-1.9.51-2.89.5-.24,0,.36-.56-.28-.58a14.3,14.3,0,0,0-2-.07c0,.53.45.29.64.43a5.38,5.38,0,0,1-3.24-.74c1.32-.54,2.58-.21,3.81-.14C23.42,88.63,23.91,88.9,24.17,88.27Z" fill="#25c9ed"/>
    <path id="Trazado_121144" data-name="Trazado 121144" d="M15,89.48c1.18.11,2.4-.49,3.56.42a2.17,2.17,0,0,0,1.82.17,8.22,8.22,0,0,1,2.42,0C21.46,90.69,16.32,90.27,15,89.48Z" fill="#25c9ed"/>
    <path id="Trazado_121145" data-name="Trazado 121145" d="M26.91,89.18l-2.09-.46c-.25-.06-.54-.07-.33-.45a7,7,0,0,1,5.78,1.06c-.79-.11-1.59-.19-2.37-.34C27.52,88.92,27.18,88.79,26.91,89.18Z" fill="#b4e4f1"/>
    <path id="Trazado_121146" data-name="Trazado 121146" d="M37.06,87.54c-1.83.29-3.58-.19-5.65-.44a8.75,8.75,0,0,1,5.65.44Z" fill="#25c9ed"/>
    <path id="Trazado_121147" data-name="Trazado 121147" d="M42.45,86.7c-.13.07.06.44-.25.34-1.42-.49-3-.24-4.66-1.09,1.68.23,3.12,0,4.4.75a.41.41,0,0,0,.51,0Z" fill="#25c9ed"/>
    <path id="Trazado_121148" data-name="Trazado 121148" d="M44,86.68c.84-.35,2-.16,2.54-.55.91-.66,1.47.11,2.39-.17a1.71,1.71,0,0,1-1.64.61C46.2,86.62,45.11,87.18,44,86.68Z" fill="#b4e4f1"/>
    <path id="Trazado_121149" data-name="Trazado 121149" d="M42.26,86.06l-1.42-.42a6.11,6.11,0,0,1,3.28-.08c.52.14,0,.23-.06.34C43.46,85.88,42.83,85.6,42.26,86.06Z" fill="#25c9ed"/>
    <path id="Trazado_121150" data-name="Trazado 121150" d="M47.77,84.91a9.28,9.28,0,0,1-3.41.12A4,4,0,0,1,47.77,84.91Z" fill="#25c9ed"/>
    <path id="Trazado_121151" data-name="Trazado 121151" d="M30.24,87.73c-.84-.43-1.72.28-2.81-.15a8.37,8.37,0,0,1,3.1-.46Z" fill="#25c9ed"/>
    <path id="Trazado_121152" data-name="Trazado 121152" d="M42.26,86.06c.57-.46,1.2-.18,1.8-.16v.78H42.49c.08-.24.33-.24.54-.33C42.75,86.16,42.41,86.35,42.26,86.06Z" fill="#b4e4f1"/>
    <path id="Trazado_121153" data-name="Trazado 121153" d="M24.17,88.27c-.26.63-.75.36-1.19.31C23.26,88,23.74,88.25,24.17,88.27Z" fill="#b4e4f1"/>
    <path id="Trazado_121154" data-name="Trazado 121154" d="M30.24,87.73l.29-.61c.42-.06.37.26.32.47C30.75,88,30.46,87.74,30.24,87.73Z" fill="#b4e4f1"/>
    <path id="Trazado_121155" data-name="Trazado 121155" d="M32.52,88a2.61,2.61,0,0,1-1.24-.13c.49-.13.89-.24,1.24.12Z" fill="#b4e4f1"/>
    <path id="Trazado_121156" data-name="Trazado 121156" d="M32.52,88l.09.06h-.09Z" fill="#b4e4f1"/>
    <path id="Trazado_121157" data-name="Trazado 121157" d="M52,46.85c.43-.53.73-1.2,1.46-1.43a1.61,1.61,0,0,1,1.66.28,1.23,1.23,0,0,1,.26,1.42c-.68,2.17-.59,2.77-4,2.85-.59-.67-.08-1.3.1-1.92A9.061,9.061,0,0,1,52,46.85Z" fill="#e8e9e5"/>
    <path id="Trazado_121158" data-name="Trazado 121158" d="M57.05,66.33c2.25,1.78,2.25,2.18,0,4-.53.44-1.09.83-1.79.41a1.55,1.55,0,0,1-.57-2,3.55,3.55,0,0,1,2.12-2.52.46.46,0,0,0,.24.11Z" fill="#e8e9e5"/>
    <path id="Trazado_121159" data-name="Trazado 121159" d="M73.45,60.57A5.1,5.1,0,0,1,76.32,63h0a4.44,4.44,0,0,1-2.88-2.44Z" fill="#feb742"/>
    <path id="Trazado_121160" data-name="Trazado 121160" d="M70.25,67.5a4.12,4.12,0,0,1-2-1.9,4.57,4.57,0,0,1,2,1.9Z" fill="#feb744"/>
    <path id="Trazado_121161" data-name="Trazado 121161" d="M63.88,70.5a2.34,2.34,0,0,1,.54.21c.34.3.67.61,1.17,1.07a1.86,1.86,0,0,1-1.71-1.28Z" fill="#feb744"/>
    <path id="Trazado_121162" data-name="Trazado 121162" d="M66.2,72.07c0,.17-.07.22-.18.19a.33.33,0,0,1-.22-.16c0-.11,0-.2.17-.17a.879.879,0,0,1,.23.14Z" fill="#feb744"/>
    <path id="Trazado_121163" data-name="Trazado 121163" d="M67.85,65.3h.08v.12h-.08C67.83,65.42,67.86,65.33,67.85,65.3Z" fill="#feb744"/>
    <path id="Trazado_121164" data-name="Trazado 121164" d="M76.32,63l.29.09v.08Z" fill="#feb742"/>
    <path id="Trazado_121165" data-name="Trazado 121165" d="M73.44,60.57l-.28-.08v-.08l.24.16Z" fill="#feb742"/>
    <path id="Trazado_121166" data-name="Trazado 121166" d="M99.55,52.38a3.18,3.18,0,0,1-3.1,3.1,3.1,3.1,0,0,1,0-6.19,3.16,3.16,0,0,1,3.1,3.09Z" fill="#22495f"/>
    <path id="Trazado_121167" data-name="Trazado 121167" d="M48.65,70.31a1.4,1.4,0,0,1-1.54-1.48c0-.77,1.34-2.41,2-2.45a3.449,3.449,0,0,1,2.24,2C51.35,68.98,49.6,70.3,48.65,70.31Z" fill="#e8e9e5"/>
    <path id="Trazado_121168" data-name="Trazado 121168" d="M59.71,73.42c-.67,0-1.13-.23-1.11-1,0-1,1.31-2.79,2-2.74a3.889,3.889,0,0,1,1.83,1.65C62.45,72,60.58,73.42,59.71,73.42Z" fill="#e8e9e5"/>
  </g>
</svg>
