<svg id="Capa_1" data-name="Capa 1" xmlns="http://www.w3.org/2000/svg" width="120" height="120" viewBox="0 0 120 120">
  <rect id="Rectángulo_34842" data-name="Rectángulo 34842" width="120" height="120" fill="none"/>
  <circle id="Elipse_5430" data-name="Elipse 5430" cx="50" cy="50" r="50" transform="translate(10 10)" fill="#99b9de"/>
  <g id="Grupo_80742" data-name="Grupo 80742">
    <path id="Trazado_121254" data-name="Trazado 121254" d="M18.46,27.18a.181.181,0,0,0,.14-.1c.89-2.67,2.84-3.6,5.54-3.56,4.82.07,9.64,0,14.46,0v7.63H27.72c-.77,0-1,.16-1,1V97.79c0,.83.24,1,1,1H79.97c.88,0,1.08-.24,1.08-1.1V60.91l8.14-10.92v51.45a4.94,4.94,0,0,1-2.72,4.87,4.86,4.86,0,0,1-2,.48H22.95a4.38,4.38,0,0,1-4.25-3.11c-.05-.14-.06-.3-.24-.34Z" fill="#01c6b9"/>
    <path id="Trazado_121255" data-name="Trazado 121255" d="M38.57,31.17V23.54a2.89,2.89,0,0,1,3.21-2.13c1.65.05,3.3,0,4.94,0,.47,0,.66-.09.72-.61a6.36,6.36,0,0,1,5.79-5.88A6.57,6.57,0,0,1,60.09,20c.12.46-.13,1.13.3,1.33a4.15,4.15,0,0,0,1.59.09h4a2.74,2.74,0,0,1,3,2.12v7.64a22.644,22.644,0,0,0,0,2.33c.08.87-.14,1.16-1.1,1.15-3.89-.07-7.78,0-11.68,0H39.3c-.61,0-.84-.13-.8-.78A17.5,17.5,0,0,0,38.57,31.17Zm15.32-7.61a2.13,2.13,0,0,0,2.34-2.22,2.42,2.42,0,0,0-2.37-2.23,2.34,2.34,0,0,0-2.24,2.23,2.16,2.16,0,0,0,2.27,2.22Z" fill="#2f5a6c"/>
    <path id="Trazado_121256" data-name="Trazado 121256" d="M89.14,49.94,81,60.86c-.58.54-.87,1.31-1.5,1.8.3-.53-.1-.74-.43-1L73.2,57.31,74.92,55l6.13-8.31Q85,41.37,89,36a1.48,1.48,0,0,0,.17-.41l1.43-1.77c.14-.1.25-.2.16-.4h0c.46,0,.56-.48.77-.76,1.6-2.11,3.19-4.24,4.76-6.37a1.66,1.66,0,0,1,.9-.69,13.56,13.56,0,0,1,2.85-.26,27.72,27.72,0,0,1,5.77,1.16c.6.36.12.66-.08.93l-7.12,9.59-9,12.12C89.44,49.43,89.3,49.69,89.14,49.94Z" fill="#fd7159"/>
    <path id="Trazado_121257" data-name="Trazado 121257" d="M89.2,35.63A1.48,1.48,0,0,1,89,36q-4,5.33-8,10.65V32.02c0-.67-.14-.92-.89-.92-3.68.05-7.36,0-11,0V23.46H83.87c3.39,0,5.32,2,5.33,5.37v1.88L86.92,34c-.26.36-.57.7-.29,1.21a1.57,1.57,0,0,0,1.31.8C88.44,36.08,88.76,35.67,89.2,35.63Z" fill="#01c6b9"/>
    <path id="Trazado_121258" data-name="Trazado 121258" d="M89.2,35.63c-.44,0-.76.45-1.26.38a1.57,1.57,0,0,1-1.31-.8c-.28-.51,0-.85.29-1.21l2.29-3.21,6.08-8.1c.89-1.19,1.77-2.4,2.67-3.6.66-.88,1-.93,1.94-.32,1.55,1.07,1.57,1.09,2.66-.4.36-.49.62-.52,1-.12a9.117,9.117,0,0,0,.79.6l3.56,2.59c1,.88,1,.88.23,2l-2.34,3.14a27.72,27.72,0,0,0-5.77-1.16,13.56,13.56,0,0,0-2.85.26L100,21.89c.22-.3.47-.52,0-.84s-.62-.38-1,.09c-2.66,3.4-5.35,6.77-8,10.15-.16.2-.45.38-.25.69.3.49.1,1,.09,1.49h0c-.21.08-.22.22-.16.4Z" fill="#315c6d"/>
    <path id="Trazado_121259" data-name="Trazado 121259" d="M107.94,21.44l-3.56-2.59a15.82,15.82,0,0,1,2.38-3.24,2.07,2.07,0,0,1,2.92-.17,2.18,2.18,0,0,1,.46,3C109.44,19.49,108.68,20.46,107.94,21.44Z" fill="#fe735b"/>
    <path id="Trazado_121260" data-name="Trazado 121260" d="M69.1,31.18h11c.75,0,.89.25.89.92V46.73L74.92,55,73.2,57.31c-1.61,1.91-3.06,3.95-4.49,6-5.62,7.82-12.17,20.51-12,23.26A65.807,65.807,0,0,0,63,81.83,74.649,74.649,0,0,0,75.58,68l3.92-5.35c.63-.49.92-1.26,1.5-1.8V97.63c0,.86-.2,1.1-1.08,1.1H27.67c-.77,0-1-.15-1-1V32.09c0-.82.24-1,1-1,3.62.05,7.25,0,10.88,0,0,.89.06,1.79,0,2.69,0,.65.19.79.8.78H67.93c1,0,1.18-.28,1.1-1.15q-.02-1.116.07-2.23Zm-27.63,32H35.36c-2,0-2,0-2,2a4.6,4.6,0,0,0-.94-.23c-.56,0-1.17-.07-1.52.52a1.58,1.58,0,0,0,.1,1.84,6,6,0,0,0,.52.61l1.86,1.92v3.23c0,.59.2.76.78.76h9.05c.63,0,.81-.2.8-.82V65.39c.31-.35.65-.69.94-1.07a1.591,1.591,0,0,0-2.3-2.2,12.692,12.692,0,0,0-1.18,1.05Zm-8,26.22v3.24c0,.59.19.77.77.76h9c.69,0,.87-.28.86-.91V84.93l.72-.79a1.82,1.82,0,0,0,.18-2.5,1.72,1.72,0,0,0-2.49.2l-1,1H35.4c-1.83,0-1.83,0-1.85,1.83-1.17-.48-1.94-.38-2.42.31s-.34,1.58.53,2.47ZM44,45.69c.23-.27.47-.54.69-.82a1.63,1.63,0,1,0-2.42-2.18c-.44.4-.87.81-1.3,1.22H35.16c-1.76,0-1.76,0-1.77,1.8-1.14-.52-1.89-.43-2.4.28s-.37,1.56.49,2.44l1.92,2v3.32c0,.46.15.64.62.64h9.33c.52,0,.67-.19.67-.69C44,51,44,48.35,44,45.69Z" fill="#fdfdfd"/>
    <path id="Trazado_121261" data-name="Trazado 121261" d="M79.5,62.66,75.58,68c-.49.13-.78-.22-1.1-.46q-2.9-2.11-5.77-4.25c1.43-2,2.88-4.08,4.49-6l5.87,4.36C79.4,61.92,79.8,62.13,79.5,62.66Z" fill="#335a6c"/>
    <path id="Trazado_121262" data-name="Trazado 121262" d="M90.63,33.86a.3.3,0,0,1,.16-.4C90.88,33.66,90.77,33.76,90.63,33.86Z" fill="#f9f8f8"/>
    <path id="Trazado_121263" data-name="Trazado 121263" d="M68.71,63.3q2.88,2.13,5.77,4.25c.32.24.61.59,1.1.46A74.65,74.65,0,0,1,63,81.83a65.809,65.809,0,0,1-6.23,4.73C56.54,83.81,63.09,71.12,68.71,63.3Z" fill="#fe7259"/>
    <path id="Trazado_121264" data-name="Trazado 121264" d="M41,43.91c.43-.41.86-.82,1.3-1.22a1.63,1.63,0,1,1,2.42,2.18c-.22.28-.46.55-.69.82a5,5,0,0,0-1,1.12C41.3,48.56,39.66,50.3,38,52.06a1.7,1.7,0,0,1-2.72.18c-.2-.17-.36-.41-.65-.44a4,4,0,0,0-1.26-1.4l-1.92-2c-.86-.88-1-1.69-.49-2.44s1.26-.8,2.4-.28L34.64,47c.43.45.87.9,1.3,1.36.22.24.4.31.66,0,1.14-1.2,2.29-2.36,3.4-3.55A3,3,0,0,0,41,43.91Z" fill="#fe725a"/>
    <path id="Trazado_121265" data-name="Trazado 121265" d="M41.35,82.81l1-1a1.72,1.72,0,0,1,2.49-.2,1.82,1.82,0,0,1-.18,2.5l-.72.79L42.92,86l-4.57,4.5c-1.72,1.72-1.86,1.73-3.69.11L33.43,89.4l-1.93-2c-.87-.89-1.05-1.72-.53-2.47s1.25-.79,2.42-.31l1.24,1.23c.49.52,1,1,1.48,1.55.26.28.46.29.73,0q1.8-1.86,3.62-3.7Z" fill="#fe735b"/>
    <path id="Trazado_121266" data-name="Trazado 121266" d="M33.41,69.8l-1.86-1.92a6,6,0,0,1-.52-.61,1.58,1.58,0,0,1-.1-1.84c.35-.59,1-.54,1.52-.52a4.6,4.6,0,0,1,.94.23l1.22,1.12c.5.52,1,1,1.48,1.55.29.32.52.3.81,0,1.09-1.13,2.2-2.26,3.3-3.38a6.22,6.22,0,0,0,1.26-1.25c.4-.37.78-.75,1.19-1.09a1.591,1.591,0,1,1,2.3,2.2c-.29.38-.63.72-.94,1.07L42.92,66.5c-1.72,1.73-3.45,3.5-5.15,5.2a1.52,1.52,0,0,1-2,.24,8.4,8.4,0,0,1-1.09-.9Z" fill="#fe725a"/>
    <path id="Trazado_121267" data-name="Trazado 121267" d="M42.92,86,44,84.92v7.56c0,.63-.17.92-.86.91h-9c-.58,0-.79-.17-.77-.76V89.39L34.6,90.6a2.23,2.23,0,0,1,0,.45c-.14.86.2,1.13,1.07,1.1,2.15-.06,4.31,0,6.47,0,.58,0,.78-.18.77-.77C42.91,89.58,42.93,87.78,42.92,86Z" fill="#d0dae3"/>
    <path id="Trazado_121268" data-name="Trazado 121268" d="M42.94,46.81a5,5,0,0,1,1-1.12c0,2.66,0,5.32,0,8,0,.5-.15.69-.67.69H33.94c-.47,0-.63-.18-.62-.64V50.42a4,4,0,0,1,1.26,1.4c0,1.78-.11,1.44,1.46,1.46h6c.64,0,.83-.2.82-.82C42.91,50.58,42.94,48.69,42.94,46.81Z" fill="#ced8e1"/>
    <path id="Trazado_121269" data-name="Trazado 121269" d="M42.92,66.49,44,65.35v7.62c0,.62-.17.83-.8.82H34.15c-.58,0-.8-.17-.78-.76V69.8L34.66,71v.9c-.11.76.21,1,1,1h6.46c.73,0,.92-.23.9-.92C42.9,70.14,42.92,68.32,42.92,66.49Z" fill="#ced8e1"/>
    <path id="Trazado_121270" data-name="Trazado 121270" d="M34.61,66.26l-1.22-1.12c0-2,0-2,2-2H41.5a6.54,6.54,0,0,1-1.27,1.25h-3.6C34.71,64.42,34.71,64.42,34.61,66.26Z" fill="#d0dae3"/>
    <path id="Trazado_121271" data-name="Trazado 121271" d="M34.63,85.84l-1.24-1.23c0-1.84,0-1.84,1.85-1.83h6.11l-.89.88H36.87C34.68,83.68,34.68,83.68,34.63,85.84Z" fill="#ced8e1"/>
    <path id="Trazado_121272" data-name="Trazado 121272" d="M34.64,47l-1.25-1.3c0-1.8,0-1.8,1.77-1.8H41a3,3,0,0,1-.91.9H36.81C34.65,44.81,34.65,44.81,34.64,47Z" fill="#ced8e1"/>
    <path id="Trazado_121273" data-name="Trazado 121273" d="M42.94,46.81v5.65c0,.62-.18.83-.82.82h-6c-1.57,0-1.5.32-1.46-1.46.29,0,.45.27.65.44a1.7,1.7,0,0,0,2.69-.2C39.66,50.3,41.3,48.56,42.94,46.81Z" fill="#fdfcfc"/>
    <path id="Trazado_121274" data-name="Trazado 121274" d="M34.64,47c0-2.14,0-2.14,2.17-2.14H40c-1.15,1.18-2.3,2.35-3.44,3.54-.26.27-.44.2-.66,0A9.105,9.105,0,0,0,34.64,47Z" fill="#fdfcfc"/>
    <path id="Trazado_121275" data-name="Trazado 121275" d="M42.92,86v5.38c0,.59-.19.78-.77.77H35.68c-.87,0-1.21-.24-1.07-1.1a2.23,2.23,0,0,0,0-.45c1.83,1.62,2,1.61,3.69-.11Z" fill="#fdfdfd"/>
    <path id="Trazado_121276" data-name="Trazado 121276" d="M34.63,85.84c0-2.16,0-2.16,2.24-2.16h3.59q-1.82,1.84-3.62,3.7c-.27.29-.47.28-.73,0C35.62,86.86,35.12,86.36,34.63,85.84Z" fill="#fdfdfd"/>
    <path id="Trazado_121277" data-name="Trazado 121277" d="M42.92,66.49v5.48c0,.69-.17.93-.9.92H35.56c-.74,0-1.06-.19-1-1v-.9a8.4,8.4,0,0,0,1.09.9,1.52,1.52,0,0,0,2-.24C39.47,70,41.2,68.23,42.92,66.49Z" fill="#fdfcfc"/>
    <path id="Trazado_121278" data-name="Trazado 121278" d="M34.61,66.26c.1-1.84.1-1.84,2-1.84H40.2c-1.1,1.12-2.21,2.25-3.3,3.38-.29.31-.52.33-.81,0C35.61,67.28,35.11,66.78,34.61,66.26Z" fill="#fdfcfc"/>
  </g>
</svg>
