<svg id="Capa_1" data-name="Capa 1" xmlns="http://www.w3.org/2000/svg" width="120" height="120" viewBox="0 0 120 120">
  <rect id="Rectángulo_34845" data-name="Rectángulo 34845" width="120" height="120" fill="none"/>
  <circle id="Elipse_5433" data-name="Elipse 5433" cx="50" cy="50" r="50" transform="translate(10 10)" fill="#99b9de"/>
  <g id="Grupo_80745" data-name="Grupo 80745">
    <path id="Trazado_121327" data-name="Trazado 121327" d="M52.64,108.34a11.33,11.33,0,0,0-3-.36,29.64,29.64,0,0,1-8.07-1.71,6.56,6.56,0,0,1-3.33-2.65A3.61,3.61,0,0,1,38.71,99c.48-.54,1-1,1.49-1.57,1,.35,1.7,1.13,2.68,1.52a30.8,30.8,0,0,0,10.86,1.83,103.24,103.24,0,0,0,15.33-.35,26,26,0,0,0,5.76-1.23,26,26,0,0,0,3.29-1.77c.69.77,1.41,1.52,2.06,2.33a3.67,3.67,0,0,1-.55,4.64,10.27,10.27,0,0,1-5.73,2.83,44.88,44.88,0,0,1-7.75,1c-.17,0-.39-.07-.47.18H64a6.43,6.43,0,0,0-3.4,0H57.74a5.75,5.75,0,0,0-3.21,0Z" fill="#23495f"/>
    <path id="Trazado_121328" data-name="Trazado 121328" d="M60.58,108.34a6.43,6.43,0,0,1,3.4,0Z" fill="#537182"/>
    <path id="Trazado_121329" data-name="Trazado 121329" d="M54.53,108.34a5.75,5.75,0,0,1,3.21,0Z" fill="#4e6d7f"/>
    <path id="Trazado_121330" data-name="Trazado 121330" d="M78.12,97.39a26,26,0,0,1-3.29,1.77,26,26,0,0,1-5.76,1.23,103.24,103.24,0,0,1-15.33.35,30.8,30.8,0,0,1-10.86-1.83c-1-.39-1.7-1.17-2.68-1.52.14-.41-.21-.63-.37-.91a3.25,3.25,0,0,1,.43-4.31c6.33-6.64,9.61-14.7,11-23.63a62.89,62.89,0,0,0,.67-9.31c1.9.07,3.78.4,5.69.41a83.459,83.459,0,0,0,8.8-.4A59.77,59.77,0,0,0,68.5,74.58a41.77,41.77,0,0,0,9,16.58c1.67,1.85,2.37,3.63.67,6C78.1,97.18,78.13,97.3,78.12,97.39Z" fill="#2f5a6c"/>
    <path id="Trazado_121331" data-name="Trazado 121331" d="M51.5,48.28c-.86-1-1.76-2-2.56-3.12A23,23,0,0,1,45.73,39a5.25,5.25,0,0,1,2.11-6.6,14.74,14.74,0,0,1,4.74-2.24c.62-.17,1-.35,1.08-1.13a9.6,9.6,0,0,1,1.58-3.45H50.81c-.67,0-1-.12-.92-.87.06-1.57,0-3.14,0-4.72,0-.53.15-.71.69-.7h4.66c0-.49-.33-.77-.51-1.11A7.09,7.09,0,0,1,53.57,15a2,2,0,0,1,.83-1.7,7.92,7.92,0,0,1,9.41-.14,2.19,2.19,0,0,1,1,2.45,9.31,9.31,0,0,1-1.13,2.68,2.36,2.36,0,0,0-.53,1.06h4.9c.52,0,.7.13.69.68v4.91c0,.54-.15.7-.69.69H63.23c.45,1,1.22,1.75,1.33,2.73.16,1.38,1,1.74,2.15,2.08a10.74,10.74,0,0,1,5,3,4.74,4.74,0,0,1,1.2,4.71,22.31,22.31,0,0,1-5.11,9.12l-.94,1a138.258,138.258,0,0,0-15.36.01Z" fill="#23495f"/>
    <path id="Trazado_121332" data-name="Trazado 121332" d="M30.67,23.09l3.72,1.5,5.77,2.33c.3.13.73.15.51.69C39.34,30.82,38,34,36.6,37.46,36,36,35.43,34.83,35,33.58c-.26-.73-.51-.92-1.26-.54A20.67,20.67,0,0,0,21.88,49.46a20.6,20.6,0,0,0,4.38,15.92c.36.46.35.68-.1,1-1,.81-2,1.65-2.95,2.51-.38.34-.6.39-1-.06a25.33,25.33,0,0,1-5.69-20.8,25.83,25.83,0,0,1,14.83-20c.83-.41.95-.74.53-1.54-.55-1.05-.95-2.17-1.42-3.26Z" fill="#fe7259"/>
    <path id="Trazado_121333" data-name="Trazado 121333" d="M85.64,73.21c.71,1.39,1.32,2.55,1.87,3.73.26.56.48.67,1,.33,5.91-3.63,9.37-8.82,10-15.76A19.39,19.39,0,0,0,93,45.86c-.35-.38-.41-.62,0-1,.93-.89,1.84-1.8,2.74-2.73.31-.32.56-.34.85,0,.65.73,1.35,1.42,2,2.18a25.5,25.5,0,0,1,1.8,28.44,25.16,25.16,0,0,1-9,9.08c-.91.53-1,1-.48,1.82a13.55,13.55,0,0,1,1.37,3.17l-4.3-1.52c-1.57-.56-3.12-1.15-4.7-1.68-.58-.2-.81-.38-.58-1.06C83.65,79.54,84.59,76.5,85.64,73.21Z" fill="#fed252"/>
    <path id="Trazado_121334" data-name="Trazado 121334" d="M66.43,59.24a83.457,83.457,0,0,1-8.8.4c-1.91,0-3.79-.34-5.69-.41-1.22-.47-2.56-.53-3.76-1.07a17.409,17.409,0,0,1-1.7-.78c-1.59-.9-1.59-2.13,0-3.05A12.61,12.61,0,0,1,49.86,53l1.64-.4H66.96a18.92,18.92,0,0,1,4.64,1.5,6.591,6.591,0,0,1,.72.44,1.43,1.43,0,0,1,0,2.55,10.87,10.87,0,0,1-3.72,1.54,11.451,11.451,0,0,0-2.17.61Z" fill="#23495f"/>
    <path id="Trazado_121335" data-name="Trazado 121335" d="M79.23,32.71a7.26,7.26,0,0,1,7-7.29c4.34-.13,7.55,3,7.69,7.5.11,3.79-3.29,7.07-7.47,7.19C82.59,40.22,79.36,36.91,79.23,32.71Zm10.84-.05a3.43,3.43,0,0,0-3.58-3.45A3.56,3.56,0,0,0,83,32.74a3.52,3.52,0,1,0,7-.08Z" fill="#03c7ba"/>
    <path id="Trazado_121336" data-name="Trazado 121336" d="M25.82,84.24a1.93,1.93,0,0,1,.5-1.39c.68-.82,1.32-1.68,2-2.49.34-.39.27-.6-.11-.88-.78-.59-1.54-1.2-2.29-1.82a2.06,2.06,0,0,1-.47-3,2,2,0,0,1,3-.11c.74.58,1.52,1.13,2.2,1.78s.83.37,1.22-.17c.5-.72,1.07-1.4,1.64-2.07.89-1,2-1.26,2.9-.57a2,2,0,0,1,.23,3.07c-.56.72-1.1,1.46-1.72,2.12s-.46,1,.18,1.38a23.28,23.28,0,0,1,2.07,1.64,2,2,0,0,1,.52,2.83,2.05,2.05,0,0,1-3,.29c-.86-.64-1.69-1.31-2.51-2-.35-.29-.55-.27-.83.09-.65.85-1.3,1.7-2,2.49a1.91,1.91,0,0,1-2.2.67,2,2,0,0,1-1.33-1.86Z" fill="#03c1ec"/>
    <path id="Trazado_121337" data-name="Trazado 121337" d="M67,52.64H51.54c-1.32-.62-1.81-1.3-1.73-2.38a2.1,2.1,0,0,1,1.73-2,138.255,138.255,0,0,1,15.37,0,2.23,2.23,0,0,1,1.8,2.1A2.31,2.31,0,0,1,67,52.64Z" fill="#2f5a6c"/>
  </g>
</svg>
