<svg id="Capa_1" data-name="Capa 1" xmlns="http://www.w3.org/2000/svg" width="437.44mm" height="319.27mm" viewBox="0 0 1240 905.01">
  <defs>
    <style>
      .cls-1 {
        fill: #ffecb1;
      }

      .cls-2 {
        fill: none;
        stroke: #807659;
        stroke-miterlimit: 10;
        opacity: 0.17;
      }

      .cls-13, .cls-2 {
        isolation: isolate;
      }

      .cls-3 {
        fill: #4480bf;
      }

      .cls-4 {
        fill: #fff;
      }

      .cls-5 {
        fill: #02749e;
      }

      .cls-6 {
        fill: #e77c4b;
      }

      .cls-7 {
        fill: #276871;
      }

      .cls-8 {
        fill: #4b4f59;
      }

      .cls-9 {
        fill: #0b3360;
      }

      .cls-10 {
        fill: #3a8e9b;
      }

      .cls-11 {
        fill: #024e73;
      }

      .cls-12 {
        fill: #36dac9;
      }

      .cls-13 {
        font-size: 18px;
        fill: #12263f;
        font-family: Roboto-Regular, Roboto;
      }
    </style>
  </defs>
  <g id="Capa_2" data-name="Capa 2">
    <rect class="cls-1" x="111.78" y="46.91" width="1030" height="699.79" rx="12"/>
    <line class="cls-2" x1="111.78" y1="74.81" x2="1141.78" y2="74.81"/>
    <line class="cls-2" x1="111.78" y1="105.84" x2="1141.78" y2="105.84"/>
    <line class="cls-2" x1="111.78" y1="136.87" x2="1141.78" y2="136.87"/>
    <line class="cls-2" x1="111.78" y1="167.89" x2="1141.78" y2="167.89"/>
    <line class="cls-2" x1="111.78" y1="198.92" x2="1141.78" y2="198.92"/>
    <line class="cls-2" x1="111.78" y1="229.94" x2="1141.78" y2="229.94"/>
    <line class="cls-2" x1="111.78" y1="260.97" x2="1141.78" y2="260.97"/>
    <line class="cls-2" x1="111.78" y1="291.99" x2="1141.78" y2="291.99"/>
    <line class="cls-2" x1="111.78" y1="323.02" x2="1141.78" y2="323.02"/>
    <line class="cls-2" x1="111.78" y1="354.04" x2="1141.78" y2="354.04"/>
    <line class="cls-2" x1="111.78" y1="385.07" x2="1141.78" y2="385.07"/>
    <line class="cls-2" x1="111.78" y1="416.1" x2="1141.78" y2="416.1"/>
    <line class="cls-2" x1="111.78" y1="447.12" x2="1141.78" y2="447.12"/>
    <line class="cls-2" x1="111.78" y1="478.15" x2="1141.78" y2="478.15"/>
    <line class="cls-2" x1="111.78" y1="509.17" x2="1141.78" y2="509.17"/>
    <line class="cls-2" x1="111.78" y1="540.2" x2="1141.78" y2="540.2"/>
    <line class="cls-2" x1="111.78" y1="571.22" x2="1141.78" y2="571.22"/>
    <line class="cls-2" x1="111.78" y1="602.25" x2="1141.78" y2="602.25"/>
    <line class="cls-2" x1="111.78" y1="633.28" x2="1141.78" y2="633.28"/>
    <line class="cls-2" x1="111.78" y1="664.3" x2="1141.78" y2="664.3"/>
    <line class="cls-2" x1="111.78" y1="695.33" x2="1141.78" y2="695.33"/>
    <line class="cls-2" x1="111.78" y1="726.35" x2="1141.78" y2="726.35"/>
  </g>
  <path class="cls-3" d="M486.17,282.58c1.68-1.27,3.3-2.6,5-3.74s3.15-1,3.26,1.53c.38,8.39,1.08,16.7,4.13,24.6a1.75,1.75,0,0,1-.85,2.31l-.28.1c-4.3-3.2-5-9.63-9.55-12.73-6.73,5.09-6.74,5.1-9.1-3.3A155.94,155.94,0,0,1,474.06,271a23.74,23.74,0,0,1-.39-3.77c0-1.27-.69-3.09,1.24-3.45,1.49-.28,2,1.24,2.49,2.36,1.74,3.63,3.36,7.33,5.17,10.92A16.73,16.73,0,0,0,486.17,282.58Zm5.45,0c-.8.44-1.23.63-1.61.9-4.19,2.87-5.22,2.7-8-1.54-1.2-1.85-2.28-3.77-3.41-5.66l-.63.28c1.48,6,3,12.05,4.5,18.25,2.55-1.34,3.65-3.8,6-4.54,1.25,1.48,2,3.47,4.2,4.31-.31-4-.67-7.71-1.05-12Z"/>
  <path class="cls-3" d="M718.07,267.92c-2-.78-3.94-1.45-5.82-2.33s-2.48-2.18-.4-3.59c6.95-4.71,13.66-9.66,18.8-16.39a1.73,1.73,0,0,1,2.38-.51h0a1.5,1.5,0,0,1,.25.19c-.48,5.35-5.6,9.29-5.84,14.81,7.85,3.06,7.87,3.08,1.95,9.47a155.57,155.57,0,0,1-14.81,14.69,23.93,23.93,0,0,1-3,2.31c-1.09.65-2.27,2.21-3.59.76-1-1.13,0-2.33.7-3.37,2.19-3.38,4.48-6.7,6.6-10.12A17,17,0,0,0,718.07,267.92Zm-2.86-4.65c.79.46,1.18.72,1.61.91,4.64,2.06,5,3,2.87,7.61-.94,2-2,3.91-3,5.87l.57.39,13.19-13.4c-2.47-1.46-5.14-1.11-7-2.76.61-1.84,1.92-3.51,1.47-5.84Z"/>
  <path class="cls-3" d="M816.65,303.62c-2.61-1.19-5.48-1.27-7.46-3.38-1.23-1.31-1.82-3.17.1-3.42,4.52-.57,5.22-4.2,6.88-7.09.87-1.5,1.42-3.17,2.15-4.75.37-.79.84-1.58,1.93-1.46s1.4.91,1.8,1.75c2.5,5.2,5.05,10.37,7.57,15.56.57,1.18,1.42,2.4.5,3.7-1.12,1.58-2.32.21-3.54-.06-5.21-1.16-6.16-.53-6.63,4.92-.89,10.35-3.94,19.85-10,28.34-6.36,8.89-14.66,11.11-24.8,6.3a93.89,93.89,0,0,1-14.49-8.18c-1.06-.76-2.54-1.15-2.37-3,1.7-1.69,3.21-.24,4.67.6,3.52,2,6.9,4.28,10.48,6.16,11.74,6.15,19.26,4.05,25.64-7C814.37,323.43,816.53,315.26,816.65,303.62Z"/>
  <path class="cls-3" d="M512.32,236.49c-6.32,2.16-6.37,2.13-5.6-4.83.4-3.56-.4-7.67,4.33-10,2.55,3.86,7.23,6,9.24,10.21-1.4,2.26-3.7,1-5,3.25,5,9.22,9.18,19.33,13.62,29.33s9.18,19.57,12.81,29.77C528.83,276.45,522.28,255.63,512.32,236.49Z"/>
  <path class="cls-3" d="M510.19,421.08c-4.17,10.5-13,14.42-22.64,16.9-10,2.56-19.62-.81-29.48-2.07-1.86,4.43,4.81,7.6,1.54,12.06-3.9-1.73-11.2-13.91-10.81-17.59.18-1.72,1-2.81,2.74-2.84,5.09-.08,9.3-2.74,13.86-4.42,2.24-.83,5-2.82,6.88-.06s-1.24,4.29-3,5.94c-.74.71-1.58,1.31-3,2.49C483.55,437.83,497,430.82,510.19,421.08Z"/>
  <path class="cls-3" d="M647.41,454.39c-1.09,13.6-6.33,26.5-5.9,40.36,4.2,1.15,7.74-3,11.61-1.18.36,3.55-2,3.95-3.84,4.7-2.82,1.13-5.79,1.66-8.41,3.53s-5.13,1-7.12-1.45a16.39,16.39,0,0,1-4.06-10.81c0-2.46-1.05-5.56,1.57-7.09,3.14-1.84,3.51,2.62,5.67,3.74C639.89,475.16,640,463.56,647.41,454.39Z"/>
  <path class="cls-3" d="M779.68,407c11.4-1.47,22.81,3.63,34-.22.39-2.24-1.52-3.06-2.33-4.47-1-1.66-1.36-3.27.09-4.67s3-.94,4.47.3c2.43,2,5,3.9,7.33,6s3.67,4.72,2.25,7.87c-2.09,4.66-4.34,9.24-6.62,13.8-.89,1.8-2.2,3.59-4.45,2.25s-1.07-3.49-.36-5.22c1.19-2.89,2.54-5.71,4.36-9.79C804.58,413.78,791.48,415.53,779.68,407Z"/>
  <path class="cls-4" d="M733.22,545.61c.92,22.89,1.4,45.78,5,68.42C735.93,591.26,735.57,568.34,733.22,545.61Z"/>
  <path class="cls-5" d="M749.87,659.4c.4-9.43.45-19-.88-28.32-4.1-29-6.08-58.2-7.62-87.43-.22-4.2-1.94-5.08-5.21-4.35-8.3,1.87-16.77,1.76-25.15,2.12q-68.91,3-137.72,7.65A195.11,195.11,0,0,0,544.62,553v4.88c0,18.1-.13,36.2,0,54.29.11,17-.45,34,1.58,51,.33,2.71,3.81,7.32-2.5,8.4-.55.09-.4,1.94.3,3.12C612.18,666.74,680.83,664.31,749.87,659.4Z"/>
  <path class="cls-6" d="M564.86,545.55c45.93-2.63,91.85-5.43,137.78-7.89C656.6,538.25,610.69,541.14,564.86,545.55Z"/>
  <path class="cls-6" d="M753.64,637.05v21.09A74.51,74.51,0,0,0,753.64,637.05Z"/>
  <path class="cls-4" d="M542.81,555c1.76,3,1.41,5.72,2.17,8.41,1.2-1.3.89-2.78.77-4-.48-4.81.58-8.22,6.11-8.35-1.7-.09-3.4-.14-5.09-.26-1-.08-2-.37-2.09-1.6-.1-1.59,1.16-1.73,2.26-1.77,14.13-.47,28-3.59,42.09-4.35,26.54-1.43,53.05-3.46,79.6-4.65,21.49-1,43-1.09,64.52-1.5,4.32-.08,5.61,1.41,5.85,5.78,1.65,29.93,3,59.88,6.92,89.63.87,6.57.51,13.33.54,20,0,2.7-.3,5.34,3,6.71-1.84,1.94-3.87,3.29-3.59,6.45-11.94-6.18-24.27-3.28-36.26-3.62-32.52-.92-64.9,2-97.21,5.36-19.06,2-38,5.16-57,8-10.14,1.52-11.44.85-11-9.79,1-23,1.09-46-.15-69-.61-11.34-1.78-22.65-2.68-34C541.45,560.12,541.2,557.76,542.81,555ZM739.1,654.27a143.92,143.92,0,0,0-.81-26.25c-3.81-26.89-5.65-53.95-7.07-81-.2-3.89-1.8-4.71-4.83-4-7.69,1.73-15.54,1.63-23.32,2q-63.86,2.78-127.64,7.09a179,179,0,0,0-26.58,3.65v4.52c0,16.78-.13,33.55,0,50.33.1,15.76-.42,31.54,1.47,47.27.3,2.5,3.52,6.78-2.32,7.78-.51.09-.38,1.8.27,2.89C611.47,661.08,675.1,658.82,739.1,654.27ZM567.61,548.74c42.57-2.44,85.13-5,127.71-7.31C652.65,542,610.09,544.66,567.61,548.74Zm167.18-8.21c1,24.24,1.48,48.48,5.35,72.45C737.67,588.87,737.28,564.6,734.79,540.53Zm7.81,93v19.55a69.37,69.37,0,0,0,0-19.52Z"/>
  <path class="cls-7" d="M343,155.65c-6.07.63-12.19.95-18.21,2-5.63.94-11.54,2.15-15,7.48-5.6,8.57-9.49,17.79-8.09,28.61.92,7.17,6.53,13.75,13.28,15.22a72.46,72.46,0,0,0,15.13,1.38c21.47.08,42.93-.49,64.38-.6,37.66-.19,75.24-1.53,112.69-5.77,9.22-1,17.82-3.63,24-11.65,2.41-3.12,3-7,4.58-10.39,5.28-11-2.88-25.62-15.38-26.33a31.28,31.28,0,0,1-4.09-.5c-9.66-1.87-19.33-3.89-29.15-4.13-11.62-.28-23.24-.71-34.86-1.16-3.45-.13-6.9,0-10.54,0,.8,1.32,2.39.53,2.73,1.89-.3.74-.88.57-1.37.53-13.83-1.19-27.67-.82-41.5.07-21,1.34-42.08,1.56-62.47,7.85-1.24.38-2.57.78-3.81-.5C337.62,157.42,340.63,157.35,343,155.65Z"/>
  <path class="cls-8" d="M301.47,181c-3.13,8.75-1.37,16.54,4.62,20.77-1.85-3.34-3.6-6.16-4.13-9.56S301.83,185.21,301.47,181Z"/>
  <path class="cls-4" d="M320.68,208.5c2.58-1.92,5-1.53,7.18-1.55,19.77-.21,39.53-.14,59.29.75,19,.86,38-.16,57.05-1,16.89-.77,33.75-2.34,50.68-2.14,10.08.12,20-1.55,30-2.39,5.39-.45,9.53-3.26,12.66-7.78,7.41-10.71,7-22.09,2.71-33.79a8.16,8.16,0,0,0-1.16-2,6.74,6.74,0,0,0-1.66-1.58c.83,2.56,2.23,4.9,2.15,7.74-.61,20.3-10.21,31.08-29.85,34.36-14.82,2.48-29.86,2.91-44.81,4.06-24.9,1.91-49.85,1.61-74.79,2.14-22.94.49-45.87.46-68.81.46a39.35,39.35,0,0,1-12.45-2.11c-11-3.66-16.13-12.57-13.59-24.24a75.88,75.88,0,0,1,8.32-21.24c.7-1.23,1.15-4.41,4-2.25.1.08.69-.42,1-.72,5-5.18,11.53-6.65,18.19-7.52,16-2.06,32.07-2,48-4.07,17.53-2.3,35.08-4,52.76-3.75,20.39.36,40.8.55,61.17,1.49a151.58,151.58,0,0,1,26.62,4c3.9.89,7.93,1,11.79,2.34,25.09,8.93,21.83,41.65,8.24,52.87-3.6,3-7.73,3.91-12.07,4.36-12,1.24-24,2.11-36,2.35-20.07.4-40.12,1.71-60.18,2.65-16.17.76-32.32.66-48.5-.07-17.21-.77-34.45-.83-51.68-.69A14.93,14.93,0,0,1,320.68,208.5Zm22.2-59.79c-6.07.62-12.19.95-18.21,1.95-5.63.94-11.54,2.16-15,7.49-5.6,8.57-9.49,17.79-8.1,28.61.93,7.16,6.54,13.74,13.29,15.21A71.89,71.89,0,0,0,330,203.35c21.47.09,42.93-.49,64.38-.6C432,202.56,469.59,201.23,507,197c9.21-1,17.82-3.64,24-11.65,2.41-3.12,3-7,4.57-10.4,5.29-11-2.88-25.61-15.37-26.33a31.27,31.27,0,0,1-4.09-.49c-9.66-1.87-19.33-3.9-29.15-4.13-11.62-.29-23.24-.72-34.86-1.16-3.45-.13-6.9,0-10.54,0,.8,1.32,2.39.52,2.73,1.88-.3.74-.88.57-1.37.53-13.84-1.19-27.67-.82-41.5.07-21,1.35-42.08,1.57-62.47,7.85-1.24.38-2.57.79-3.81-.49,2.35-2.2,5.36-2.28,7.74-4Zm-44.18,28c-3.13,8.74-1.37,16.53,4.62,20.77-1.85-3.34-3.6-6.17-4.13-9.57s-.12-7-.49-11.22Z"/>
  <path class="cls-9" d="M1023.3,432.67c-4.15-3.15-7.27-6.77-8.55-11.37-1.93-7-1.37-14-.79-21,.55-6.5,1.86,7,4.11.65a19.26,19.26,0,0,0,1.18-7.21c-.19-5.82-7.28-12-15.38-12-10.55,0-71.1.23-81.65.1-11.88-.14-23.76-.3-35.64-.26-4.05,0-8.38-.43-12.13.78-7.94,2.57-12.34,9-10.13,15.67,1.75,5.26,2.54,10.62,3.94,15.91,2.08,7.85,1.59-4.18,1,3.73-.42,6-3.66,11.15-9.49,15.08a16.31,16.31,0,0,1,3.41,6.51c2.66,8.49,2.33,17.15,1.53,25.73-.94,9.93-1.1-10.16-.14-.27.44,4.46,3.47,8,8.69,10.1C878,476.66,883,477,888,477c12.64,0,25.28-.18,37.93-.15,8.55,0,67.09.5,75.64-.18,10.44-.84,17.53-5.79,17.07-14.81-.08-1.53-.27-3.05-.27-4.58,0-14-1,1.92.31-12.12A27,27,0,0,1,1023.3,432.67Z"/>
  <path class="cls-10" d="M863.29,467c1,7.3,4.58,10,13.2,10.16C869.81,475.5,865.91,472.2,863.29,467Z"/>
  <path class="cls-10" d="M1018.34,473.19l-10.55,4.17C1014.26,477.57,1016.53,476.64,1018.34,473.19Z"/>
  <path class="cls-10" d="M865.18,409c-.19-3-.26-6-2.54-9.25A33.8,33.8,0,0,0,865.18,409Z"/>
  <path class="cls-4" d="M1026.64,429.23c-1.27.29-4.09,0-1.52,2.1.16.13-.13.72-.36,1-6.67,9.18-6.7,19.25-5.92,29.37.74,9.7.3-10.61.32-.91,0,1.91.12,3.82,0,5.72-.26,4.94-3.18,9.52-10.92,9.66-4.66.09-9.33.31-14,.15-17.12-.6-84.22-.28-101.33.1-6.74.15-13.51.53-20.3-.3-9.39-1.15-13.82-4.53-14.35-12.28a186.38,186.38,0,0,1,.34-22.67c.61-11.38.58,7.26-1.4-4.05-.43-2.43-1.4-4.59-4.3-5.87-1.21-.54-1.25-1.28-.22-2,10.35-7.48,12.66-17,11.66-27.7-.62-6.57-3.67,7.4-5.35,1.07A31.92,31.92,0,0,1,858.3,387a6.93,6.93,0,0,1,2.27-3.89c.38-.31,1-.56.88-1.1-.29-2.24,1.82-3.09,3.74-3.85a47.79,47.79,0,0,1,18.37-3.51c24.15.35,98.3.5,122.44.79,5.93.07,11.8,4.41,13.71,9.31,2.09,5.37.9,10.62-.38,15.84-2.08,8.41-3.31-3.1-4,5.43S1018,421.94,1026,427.8a1.14,1.14,0,0,1,.66,1.46Zm-5.36,0c-4.14-3.16-7.27-6.77-8.55-11.37-1.93-7-1.37,6-.79-1a76.77,76.77,0,0,1,4.11-19.35,19.26,19.26,0,0,0,1.18-7.21c-.19-5.83-7.27-12-15.37-12-10.55,0-71.11.23-81.66.1-11.88-.15-23.76-.31-35.64-.27-4,0-8.38-.42-12.13.79-7.93,2.57-12.34,9-10.13,15.67,1.76,5.26,2.54,10.62,3.94,15.9,2.08,7.86,1.6-4.17,1,3.74-.42,5.95-3.66,11.15-9.49,15.08a16.31,16.31,0,0,1,3.41,6.51c2.66,8.49,2.34,17.14,1.53,25.73-.94,9.92-1.09-10.17-.13-.27.43,4.46,3.46,8,8.68,10.1,4.67,1.86,9.72,2.15,14.74,2.17,12.64.05,25.29-.18,37.93-.15,8.55,0,67.09.5,75.64-.18,10.45-.84,17.53-5.79,17.07-14.82-.08-1.52-.26-3-.26-4.57,0-14-1.06,1.92.3-12.12a27,27,0,0,1,4.62-12.51ZM860.8,464c1,7.3,4.58,10,13.2,10.16C867.32,472.5,863.42,469.2,860.8,464Zm155.05,6.2-10.55,4.17c6.47.2,8.7-.73,10.55-4.18ZM862.69,406c-.19-3-.26-6-2.54-9.25A33.8,33.8,0,0,0,862.69,406Z"/>
  <path class="cls-11" d="M424.26,438.16c0-8.05-2.11-13.62-6.43-17.53-6.75-6.09-13.42-12.47-21.39-16.88C384.26,397,372,390.39,359.58,384.09c-21.29-10.8-43.78-17.95-66.81-23.57-5-1.23-8.41.28-11.87,3.71-12.51,12.41-18.77,28.73-26,44.42a238.24,238.24,0,0,0-14,39.94c-1.41,5.52-.81,9.24,3,12.92,7.45,7.14,16,12.51,25.07,17.08,29.88,15.05,59.07,31.58,89.64,45.17a100.72,100.72,0,0,0,12.47,4.71c2.61.77,4.1.1,5.6-2.07,9.29-13.44,20.66-25.31,27.11-40.88,2.7-6.52,7-12.34,10.67-18.4A72.78,72.78,0,0,0,424.26,438.16Z"/>
  <path class="cls-10" d="M336.75,368.68l-.24.91a22.14,22.14,0,0,0,2.43,1.23c17.19,6.15,32.89,15.61,49.18,23.77,11.35,5.69,21.22,13.57,30.94,21.73a24.34,24.34,0,0,1,4.56,5.5c4,6.16,4.86,13,3.78,21.15,5.45-10.75,2.76-20.9-3.71-27.09a93.9,93.9,0,0,0-8.89-7.27c-15.69-11.75-32.83-20.91-50.39-29.14C355.45,375.27,346,372.24,336.75,368.68Z"/>
  <path class="cls-10" d="M322.14,509.09c-23.73-13.28-48.51-24.41-72.23-37.72C273.81,484.32,295.82,501,322.14,509.09Z"/>
  <path class="cls-10" d="M257.61,394.44c7.19-11.7,11.75-25.26,23.91-34.66a10.86,10.86,0,0,0-8.8,4.33C265.33,372.94,261.36,383.59,257.61,394.44Z"/>
  <path class="cls-10" d="M404.74,489.89c-5.8,13.71-16,24.34-23.52,36.89C390.17,515.25,399.5,504,404.74,489.89Z"/>
  <path class="cls-4" d="M253.45,379.39c-3.82-2-4.24-4.8,1.19-3.68,1.4.29,1.78-1.78,2.29-2.95a67.46,67.46,0,0,1,12.52-19,9.35,9.35,0,0,1,6.06-3.24,48.72,48.72,0,0,1,11.7,0c35.33,4.22,68.2,16.05,99.36,33.65a228.51,228.51,0,0,1,34,23c8.81,7.35,13,21.58,7.85,31.76-2.4,4.79-5.46,9.4-8.29,14.05a56.78,56.78,0,0,0-7,15.85c7.8,6.11-2.32,4-3.6,6.94A206.13,206.13,0,0,1,384.32,519c-5.72,7.61-10.55,9.82-19.27,6.55-18.74-7-37.41-14.18-56.08-21.38-20.6-7.95-38.47-21.08-58.06-30.87a42.6,42.6,0,0,1-17.95-17c-.75-1.3-1.56-2.61-1.44-4.13.6-7.52,1.39-14.94,3.66-22.25,5.13-16.5,12.57-32,17.93-48.42A13.64,13.64,0,0,0,253.45,379.39Zm167.68,53.12c0-8.05-2.12-13.62-6.44-17.52-6.74-6.1-13.42-12.48-21.38-16.89-12.19-6.75-24.46-13.36-36.87-19.65-21.28-10.81-43.78-18-66.8-23.58-5.05-1.23-8.42.28-11.87,3.71C265.26,371,259,387.31,251.8,403a236.16,236.16,0,0,0-14,39.94c-1.42,5.52-.81,9.24,3,12.92,7.45,7.14,16,12.51,25.06,17.08C295.79,488,325,504.52,355.55,518.11A100.49,100.49,0,0,0,368,522.83c2.61.76,4.1.09,5.6-2.08,9.28-13.44,20.66-25.31,27.11-40.88,2.69-6.52,7-12.34,10.66-18.4A72.57,72.57,0,0,0,421.13,432.51Zm-88-69-.24.9a18.46,18.46,0,0,0,2.43,1.23c17.19,6.15,32.89,15.61,49.17,23.77,11.35,5.69,21.23,13.57,30.94,21.73a24.39,24.39,0,0,1,4.56,5.51c4,6.16,4.86,13,3.78,21.14,5.45-10.75,2.77-20.9-3.7-27.09a96.83,96.83,0,0,0-8.9-7.26c-15.69-11.76-32.82-20.92-50.39-29.15-8.93-4.19-18.4-7.22-27.63-10.78ZM318.54,503.92c-23.73-13.28-48.52-24.42-72.23-37.73C270.2,479.14,292.22,495.86,318.54,503.92ZM254,389.27c7.2-11.7,11.76-25.27,23.91-34.66a10.86,10.86,0,0,0-8.8,4.33C261.72,367.76,257.75,378.41,254,389.27Zm147.14,95.45c-5.81,13.7-16,24.34-23.52,36.88C386.57,510.08,395.89,498.83,401.14,484.72Z"/>
  <path class="cls-10" d="M844.07,262a63.77,63.77,0,0,0,9.86-.61c15.14-2.12,26.93-9.31,35.14-23.09,7-11.8,10-24.64,11.25-38.16.33-3.72,1.35-7.55-.21-11.15-4.72-10.92-11.44-20-22.49-24.72-14.87-6.32-29.94-10.08-46.48-8.34-14.4,1.52-24.46,9.63-32.9,19.91-4.67,5.69-7.77,13.41-9.25,21.3a91.13,91.13,0,0,0-1.4,24.06c1.45,18.82,12.93,33.64,30.64,38.15C826.72,261.53,835.42,261.57,844.07,262Z"/>
  <path class="cls-10" d="M808.69,255.51c.47.41.93.84,1.43,1.21,6.85,5.1,14.68,7.67,22.83,9.23,10.84,2.07,21.83,3.92,32.58.08,22.36-8,35.48-24.3,39.37-48.52.47-2.91.88-5.85,1.07-8.8s0-5.67,0-8.82c-1.09.91-.84,1.77-.94,2.51-1.12,8-2.42,16-5.51,23.49-10.37,25.32-27.29,36.7-53.79,36C833.16,261.58,820.54,261.26,808.69,255.51Z"/>
  <path class="cls-10" d="M800.57,169.1a89.54,89.54,0,0,1,14-12c3.2-2.24,6.5-4.45,10.38-5,6.31-.87,12.64-1.62,19-2,10.21-.7,19.68,2.8,29.23,5.91s18,7.72,24.36,16c.08.1.33,0,.91.11-4-6.18-7.88-12.22-14.09-15.75-15.92-9-32.62-13.86-51-9.65C819.68,149.85,808.64,157.08,800.57,169.1Z"/>
  <path class="cls-4" d="M905.81,200.19c-.65,14.89-3.08,29.45-12.1,41.53-13.46,18-31.14,27-53.54,24.12-7.32-.92-14.65-2-21.56-4.73-21.29-8.46-33.05-24.81-35.91-48.07a72.45,72.45,0,0,1,.95-25.51C789,164.91,808.14,138.58,843,138c14.42-.26,27.54,4.17,39.46,11.53,11.29,7,18.5,17.86,20.71,31.84C904.11,187.59,906.41,193.65,905.81,200.19Zm-62,54.7a62.55,62.55,0,0,0,9.86-.6c15.14-2.12,26.93-9.31,35.14-23.09,7-11.81,10-24.65,11.25-38.17.33-3.71,1.35-7.55-.21-11.15-4.72-10.92-11.44-20-22.49-24.72-14.87-6.31-29.94-10.08-46.48-8.33-14.4,1.52-24.46,9.63-32.9,19.91-4.67,5.68-7.77,13.4-9.25,21.29a90.37,90.37,0,0,0-1.4,24.07c1.45,18.81,12.93,33.63,30.63,38.15,8.52,2.16,17.22,2.2,25.87,2.64Zm-38-3.86c.47.41.93.84,1.43,1.22,6.85,5.09,14.68,7.66,22.83,9.22,10.84,2.07,21.83,3.92,32.58.08,22.36-8,35.48-24.3,39.37-48.51.47-2.92.88-5.86,1.07-8.8s0-5.68,0-8.83c-1.09.91-.84,1.77-.94,2.51-1.12,8-2.42,16-5.5,23.49-10.38,25.32-27.3,36.7-53.8,36-12.57-.3-25.19-.63-37-6.41Zm-8.12-86.4a89.54,89.54,0,0,1,14-12c3.2-2.24,6.5-4.45,10.38-5,6.31-.87,12.64-1.61,19-2,10.21-.7,19.68,2.8,29.23,5.91s18,7.72,24.37,16c.07.1.32.05.9.11-4-6.17-7.87-12.22-14.09-15.75-15.91-9-32.61-13.86-51-9.65A51.93,51.93,0,0,0,797.69,164.63Z"/>
  <path class="cls-3" d="M566.14,407.13s-57.21-10.5-50.21-52.39S551.14,317,551.14,317s8.76-18,17.14-23.37c14.7-9.39,27.43-2.7,27.43-2.7s17-16.09,31.23-16.14c24.92-.07,27.76,12.59,27.76,12.59a43.5,43.5,0,0,1,23.2,0c11,3.25,19.7,15.29,19.7,15.29s17.37-2,32.68,13.18c10.49,10.41,7.8,24.85,7.8,24.85s21.39,17.88,12.81,38.5c-8.17,19.6-17.53,18.36-17.53,18.36s2.66,19.41-7.68,30c-11.9,12.23-22.41,10.19-22.41,10.19s-.11,35.21-11.48,31.35-16.54-31-22.6-30.81-19.32,3-25.5,1.4c-6.85-1.77-23.9-15.15-23.9-15.15s-20.77,10.7-34.12.92-18.4-24.67-18.4-24.67"/>
  <path class="cls-4" d="M742.34,338.79a51.76,51.76,0,0,1,5.95,5.61,49.09,49.09,0,0,1,9.58,14.37,26.59,26.59,0,0,1,.76,19.61,50.29,50.29,0,0,1-6.09,11.53,24.86,24.86,0,0,1-5.54,5.81,11.71,11.71,0,0,1-4.59,2.17L742,398c-.44.09.14,0,0,0h-.58a2.26,2.26,0,0,1-.52,0c-1.09-.14-1.56,1.06-1.45,1.9-.11-.85,0-.09,0,.1,0,.42.08.85.11,1.27.11,1.48.16,3,.16,4.44A49.33,49.33,0,0,1,737.94,419a28.64,28.64,0,0,1-8.13,13.46,33.57,33.57,0,0,1-14.35,8.31,21,21,0,0,1-5,.66,11.09,11.09,0,0,1-1.41-.06c-.62,0,.2.05-.19,0a1.52,1.52,0,0,0-1.85,1.09,2.16,2.16,0,0,0,0,.36,106.76,106.76,0,0,1-1.68,18.8c-.73,3.91-1.64,8.12-3.89,11.46a7.6,7.6,0,0,1-1.38,1.51,4.31,4.31,0,0,1-1.41.69,3.26,3.26,0,0,1-1.64-.06,8.71,8.71,0,0,1-2.51-1.17c-4.15-2.67-6.78-7.55-9-11.79-2.43-4.65-4.42-9.52-7-14.12a18.64,18.64,0,0,0-3.24-4.63,5.25,5.25,0,0,0-4.39-1.56c-6.76.41-13.43,1.71-20.2,1.87a26.8,26.8,0,0,1-9.36-1.32,43.54,43.54,0,0,1-9.84-4.86,57.82,57.82,0,0,1-11.2-9.5l-.52-.59a1.51,1.51,0,0,0-1.82-.23,46.68,46.68,0,0,1-22.75,5.17,24.36,24.36,0,0,1-8.41-1.87,29.59,29.59,0,0,1-8.19-5.78,59,59,0,0,1-11.06-14,47.91,47.91,0,0,1-3.86-8.12c-.62-1.81-3.52-1-2.9.8A59.17,59.17,0,0,0,575,425.68a40,40,0,0,0,8.37,6.68,25.4,25.4,0,0,0,8.93,2.9,42.68,42.68,0,0,0,17.4-1.61,53.51,53.51,0,0,0,9.7-3.65l-1.82-.24a53.25,53.25,0,0,0,8.36,7.73c5.58,4.3,12.33,8.23,19.43,9.19,6.92.94,14.14-.47,21-1.23,1.47-.16,3-.32,4.43-.41l.94-.05H672a.87.87,0,0,1,.46.2,2.12,2.12,0,0,1,.51.38,12.48,12.48,0,0,1,.86.92,18.55,18.55,0,0,1,1.44,2.17c2.7,4.55,4.66,9.51,7.07,14.22s5.12,9.64,9.31,12.93c3.1,2.44,7.15,3.78,10.47,1,3-2.53,4.32-6.9,5.24-10.57a87,87,0,0,0,2.13-14,70.87,70.87,0,0,0,.45-8.86v-.46l-1.9,1.45a18.32,18.32,0,0,0,6.56-.23,33.61,33.61,0,0,0,14.58-7.1A32.63,32.63,0,0,0,740,422.33a47.93,47.93,0,0,0,2.62-14.82,49.13,49.13,0,0,0-.35-8.4l-1.44,1.9c2.13.27,4.59-.82,6.36-1.85,5.83-3.41,9.68-9.72,12.47-15.67a33.09,33.09,0,0,0,3.46-11.78,29.26,29.26,0,0,0-1.23-10.52,47.28,47.28,0,0,0-9.63-16.81,54.21,54.21,0,0,0-7.81-7.71c-1.51-1.18-3.64.93-2.12,2.12Z"/>
  <path class="cls-4" d="M741.12,335a51.24,51.24,0,0,1,5.87,5.54,49.5,49.5,0,0,1,9.58,14.26,26.69,26.69,0,0,1,1,19.47,73,73,0,0,1-5.89,12.21,51.54,51.54,0,0,1-5.4,7.71,32.15,32.15,0,0,1-2.49,2.6l-1,.93a7.23,7.23,0,0,1-.69.55,14.06,14.06,0,0,1-1.31.86c-.18.1-.91.43-.14.1a1.54,1.54,0,0,0-1.1,1.45,35.68,35.68,0,0,1-3.24,17.57,35.16,35.16,0,0,1-11,13.25,30.47,30.47,0,0,1-12.13,5.71,19.17,19.17,0,0,1-4.07.39,7.43,7.43,0,0,1-1.25-.07c-.42-.07.33.07-.08,0a1.52,1.52,0,0,0-1.85,1.09,2.16,2.16,0,0,0,0,.36,108.14,108.14,0,0,1-1.58,18.23c-.69,3.89-1.55,8.06-3.63,11.46a7.37,7.37,0,0,1-1.31,1.69,4,4,0,0,1-.63.52l-.4.25c-.08.05-.52.23-.25.13a2.69,2.69,0,0,1-1.72.22c.28,0-.18,0-.26-.05a4.42,4.42,0,0,1-.52-.14,7.46,7.46,0,0,1-1.3-.55c-4.18-2.2-6.87-6.76-9.07-10.75-2.55-4.63-4.59-9.51-7-14.21-1.38-2.68-3.34-7-6.67-7.64a11.68,11.68,0,0,0-3.34.09c-1.55.13-3.09.31-4.63.49-3.52.41-7,.84-10.58,1.09a34.67,34.67,0,0,1-8.93-.12A47.86,47.86,0,0,1,633,436a54.79,54.79,0,0,1-12.6-7.95l-.58-.52a1.49,1.49,0,0,0-1.46-.38,55,55,0,0,1-23.49,2.31,28.18,28.18,0,0,1-16.72-7.79,58.15,58.15,0,0,1-11.64-14.48,47.79,47.79,0,0,1-4-8.35c-.62-1.82-3.52-1-2.9.8a49.91,49.91,0,0,0,3.45,7.55A62.68,62.68,0,0,0,574.13,422a40.52,40.52,0,0,0,8.49,6.66,31.45,31.45,0,0,0,8.86,3.2,52.68,52.68,0,0,0,17.89.23,57.91,57.91,0,0,0,9.74-2.11l-1.46-.39a48.86,48.86,0,0,0,9.12,6.52c6.12,3.54,13.31,6.64,20.48,6.82,6.93.18,13.81-1.12,20.69-1.74.66-.06,1.31-.11,2-.15h.92c.17,0,.41.14.23.06s.17.1.22.13.45.31.21.12c.14.11.27.23.4.35a17.52,17.52,0,0,1,3,4.47c2.53,4.69,4.56,9.63,7.07,14.34,2.39,4.49,5.25,9.25,9.57,12.14,3.18,2.12,7,2.6,9.86-.25s4-7,4.92-10.78a92.44,92.44,0,0,0,2-13.55,70.22,70.22,0,0,0,.43-8.7V439l-1.9,1.44a16.7,16.7,0,0,0,5.51-.06,30.7,30.7,0,0,0,12.38-4.9,37,37,0,0,0,17.34-27,34.34,34.34,0,0,0,.36-7.78l-1.1,1.45a18,18,0,0,0,5.7-4.39c5.13-5.34,8.78-12.06,11.75-18.78A32.17,32.17,0,0,0,762,367.26,29.48,29.48,0,0,0,760.6,357a48.11,48.11,0,0,0-9.6-16.48,53,53,0,0,0-7.73-7.62c-1.51-1.17-3.64.94-2.12,2.12Z"/>
  <path class="cls-4" d="M656.64,282.47a42.66,42.66,0,0,1,20.36-.93,31.62,31.62,0,0,1,12.29,5.21,51.13,51.13,0,0,1,8.22,7.26c1,1,1.88,2.08,2.77,3.16l.39.5.15.19.28.36a1.46,1.46,0,0,0,1.29.74c6.31-.72,13.23,1,19,3.46a46.21,46.21,0,0,1,16.48,11.75,28.76,28.76,0,0,1,6.6,15,34.12,34.12,0,0,1,.24,6.47,17.18,17.18,0,0,1-.16,1.9v.39c-.35,1.89,2.54,2.7,2.89.8a33.13,33.13,0,0,0-5.25-24,47.09,47.09,0,0,0-16.59-13.62,48,48,0,0,0-15.32-4.83,32.58,32.58,0,0,0-7.89-.32l1.3.75a56.09,56.09,0,0,0-11.63-11.65,34.08,34.08,0,0,0-11.9-5.88A46.52,46.52,0,0,0,664,278.06a41.46,41.46,0,0,0-8.19,1.51c-1.84.59-1,3.48.79,2.9Z"/>
  <path class="cls-4" d="M656.64,282.47a42.66,42.66,0,0,1,20.36-.93,31.62,31.62,0,0,1,12.29,5.21,51.13,51.13,0,0,1,8.22,7.26c1,1,1.88,2.08,2.77,3.16l.39.5.15.19.28.36a1.46,1.46,0,0,0,1.29.74c6.16-.7,12.88,1,18.52,3.27a45.53,45.53,0,0,1,16.41,11.37,17.24,17.24,0,0,1,3.92,14.75A24.45,24.45,0,0,1,738,337c-1,1.64,1.56,3.14,2.59,1.51,4.43-7,5.53-16.89,1-24.08a32.14,32.14,0,0,0-7.57-7.82,50.43,50.43,0,0,0-8.8-5.64,48.55,48.55,0,0,0-15.2-4.69,31.92,31.92,0,0,0-7.69-.29l1.3.75A56.09,56.09,0,0,0,692,285.09a34.08,34.08,0,0,0-11.9-5.88,46.44,46.44,0,0,0-16.1-1.15,41.46,41.46,0,0,0-8.19,1.51c-1.84.59-1,3.48.79,2.9Z"/>
  <path class="cls-4" d="M546.18,313.64A98.42,98.42,0,0,1,557,296a41.09,41.09,0,0,1,4.67-5.11,26.15,26.15,0,0,1,7-4.35,29.83,29.83,0,0,1,16.08-2.48,28.34,28.34,0,0,1,5.53,1.31l.84.31.35.14c.29.11-.27-.13.11.05l.53.24a1.54,1.54,0,0,0,1.82-.23,80.72,80.72,0,0,1,8.41-6.81c5.65-4,11.88-7.74,18.68-9.4a33.32,33.32,0,0,1,11.31-.42,38.28,38.28,0,0,1,10,2.38,25.93,25.93,0,0,1,11,8,22.39,22.39,0,0,1,2.46,4.1c0,.06.2.47.1.22s0,.12.07.19a3.28,3.28,0,0,1,.2.52l.15.48a1.5,1.5,0,0,0,2.89-.8,18.12,18.12,0,0,0-2.64-5.34,27.59,27.59,0,0,0-10.81-9.14,37.64,37.64,0,0,0-9.88-3.12,41.82,41.82,0,0,0-12.18-.59c-7.39.92-14.29,4.55-20.41,8.63a86.19,86.19,0,0,0-11.5,9l1.82-.24c-6.83-3.56-15.8-3.38-22.92-1A31.77,31.77,0,0,0,556.47,292a84.61,84.61,0,0,0-8.57,12.25c-1.53,2.58-3,5.2-4.31,7.9-.84,1.73,1.74,3.25,2.59,1.52Z"/>
  <path class="cls-4" d="M561.41,408.32a91.53,91.53,0,0,1-15.73-4.62c-10.07-3.81-19.95-9.21-27.37-17.14a38.57,38.57,0,0,1-8.78-14.7c-2.11-6.73-1.95-13.71-.6-20.58,2.58-13.06,8.63-26.45,21.14-32.59a31.44,31.44,0,0,1,17.54-3.05h-.05c1.88.33,2.7-2.56.79-2.89A32.57,32.57,0,0,0,532,314.64c-12.46,4.62-20.19,15.84-24,28.19-2.41,7.82-3.81,16.16-2.58,24.33a38.88,38.88,0,0,0,7.23,17.19c7,9.41,17.19,15.89,27.81,20.43a97,97,0,0,0,19.88,6.37l.32.06c1.89.35,2.7-2.54.8-2.89Z"/>
  <path class="cls-4" d="M559.16,404.33c-.37-.05.5.07.05,0l-.89-.13c-1.1-.18-2.19-.38-3.28-.6a98.34,98.34,0,0,1-10.82-2.84c-9.66-3.13-19.24-7.83-26.38-15.2a35,35,0,0,1-8.44-14c-2-6.59-1.8-13.45-.5-20.16,2.33-12,7.71-25.74,19.86-30.5a25.28,25.28,0,0,1,10.67-1.76c.7,0,1.4.08,2.1.15l.46.06h.13l.84.14c.73.13,1.44.31,2.16.48l.29.09c1.83.6,2.62-2.3.79-2.9a28.3,28.3,0,0,0-15.46-.08c-12.35,3.3-19.5,14.64-23,26.25-2.3,7.7-3.65,15.9-2.44,23.91a36.51,36.51,0,0,0,7,16.43c6.8,9,16.9,14.76,27.3,18.63a91,91,0,0,0,18.86,4.91l.68.09c1.91.23,1.89-2.77,0-3Z"/>
  <path class="cls-4" d="M344.7,183.5a11,11,0,0,0-.24-2.14c-.16-.76-.33-1.55-.52-2.35s-.36-1.61-.53-2.41a10.66,10.66,0,0,1-.28-2.25H339v-.43a2.6,2.6,0,0,1,.06-.56,1.85,1.85,0,0,1,.16-.52.52.52,0,0,1,.34-.29h10.2a1.62,1.62,0,0,1-.24.91,1.5,1.5,0,0,1-.58.48,2.85,2.85,0,0,1-.81.21l-.89.11a8.74,8.74,0,0,0-.87.14,1.54,1.54,0,0,0-.74.32,1.47,1.47,0,0,0-.46.66,2.5,2.5,0,0,0-.08,1.12,8.37,8.37,0,0,0,.05,1c.05.4.1.89.19,1.38a12.51,12.51,0,0,0,.33,1.5,8.35,8.35,0,0,0,.51,1.37,3.71,3.71,0,0,0,.71,1,1.24,1.24,0,0,0,.93.38,5.57,5.57,0,0,0,1,0H350a10.46,10.46,0,0,1,1.12,0,1.42,1.42,0,0,1,.77.23.42.42,0,0,1,.11.54,3.06,3.06,0,0,1-.82,1,11,11,0,0,1-2.4.6,19.87,19.87,0,0,1-2.44.17h-4.88a4.09,4.09,0,0,1-.81-1.28c-.09-.29-.06-.5.1-.62a1.27,1.27,0,0,1,.74-.18,10.09,10.09,0,0,1,1.1,0c.4,0,.8.06,1.19.08A2.93,2.93,0,0,0,344.7,183.5Z"/>
  <path class="cls-4" d="M353,178.28a1.48,1.48,0,0,1,.15-.72.76.76,0,0,1,.68-.26h.41c.09.38.18.8.27,1.25s.2.91.32,1.36.27.91.42,1.36a5.49,5.49,0,0,0,.57,1.2,2.1,2.1,0,0,0,.48-.83,6.86,6.86,0,0,0,.22-1,6,6,0,0,1,.14-.95A2,2,0,0,1,357,179a1.17,1.17,0,0,1,.6-.47,2.09,2.09,0,0,1,1.11,0,2.33,2.33,0,0,1,1.24.28,3.31,3.31,0,0,1,.81.73c.23.29.45.6.67.93a3.61,3.61,0,0,0,.82.88c.08-.16.17-.36.28-.61A5.15,5.15,0,0,1,363,180c.17-.27.35-.54.54-.79a6,6,0,0,1,.6-.73,4.78,4.78,0,0,1,.65-.54,1.25,1.25,0,0,1,.65-.21,2,2,0,0,1,1.31.47,4.4,4.4,0,0,1,1,1.19,7.71,7.71,0,0,1,.66,1.6,16.63,16.63,0,0,1,.41,1.69q.15.82.21,1.5c0,.45.07.77.07,1a.5.5,0,0,1-.12.37.6.6,0,0,1-.27.2,1.53,1.53,0,0,1-.37.08h-.64l-.2-.05-1.21-5.55a.26.26,0,0,0-.14-.21,1.1,1.1,0,0,0-.23-.2h-.18a1.09,1.09,0,0,0-.74.32,4.09,4.09,0,0,0-.64.8,8.3,8.3,0,0,0-.55,1.07c-.18.4-.33.79-.47,1.18l-.36,1.08c-.1.33-.19.58-.25.75a.8.8,0,0,1-.3.06h-.29a1,1,0,0,1-.8-.36,2.72,2.72,0,0,1-.45-.9,8.16,8.16,0,0,1-.3-1.18,8.16,8.16,0,0,0-.3-1.18,3,3,0,0,0-.48-.9,1,1,0,0,0-.86-.36c-.14,0-.27.14-.39.41a5.13,5.13,0,0,0-.34,1c-.1.41-.19.86-.28,1.34s-.15.92-.21,1.33-.11.91-.16,1.48a.44.44,0,0,1-.15.12l-.23.14-.24.11h-.17a1.44,1.44,0,0,1-1-.48,5.06,5.06,0,0,1-.88-1.22,12.81,12.81,0,0,1-.72-1.66c-.22-.61-.4-1.2-.55-1.78s-.26-1.11-.34-1.58A6.47,6.47,0,0,1,353,178.28Z"/>
  <path class="cls-4" d="M369.72,179.23a3.75,3.75,0,0,1,.83-2.67,3.44,3.44,0,0,1,2.56-.88,8.9,8.9,0,0,1,1.46.13,4.77,4.77,0,0,1,1.38.46,3,3,0,0,1,1,.9,2.58,2.58,0,0,1,.4,1.48,4.26,4.26,0,0,1-.44,1.89,8.28,8.28,0,0,1-1.09,1.65,12.24,12.24,0,0,1-1.45,1.43l-1.47,1.25a1.08,1.08,0,0,0-.07.31,1.5,1.5,0,0,0,0,.3,2.46,2.46,0,0,0,.37,1.24q.36.61.78,1.26a10.9,10.9,0,0,1,.78,1.32,3.09,3.09,0,0,1,.36,1.43c0,.3-.07.48-.19.53a2.28,2.28,0,0,1-.78.08,1.68,1.68,0,0,1-.73-.69,11,11,0,0,1-.73-1.35c-.24-.53-.47-1.13-.7-1.79s-.45-1.33-.65-2-.4-1.37-.58-2l-.47-1.86c-.13-.57-.26-1.07-.36-1.48S369.75,179.4,369.72,179.23Zm1.57.17v.8a7.62,7.62,0,0,0,.16,1.05,2.93,2.93,0,0,0,.36.9.76.76,0,0,0,.67.38,2.1,2.1,0,0,0,1.16-.39,4.74,4.74,0,0,0,1-1,5.77,5.77,0,0,0,.74-1.27,3.13,3.13,0,0,0,.29-1.24,1.14,1.14,0,0,0-.23-.73,1.48,1.48,0,0,0-.56-.43,2.64,2.64,0,0,0-.73-.2h-.75a1.87,1.87,0,0,0-2.11,1.59,1.63,1.63,0,0,0,0,.54Z"/>
  <path class="cls-4" d="M378.92,175.57a8.4,8.4,0,0,0-.07-1,3.47,3.47,0,0,1,0-.91.93.93,0,0,1,.29-.64,1.34,1.34,0,0,1,.91-.25,6.52,6.52,0,0,1,.4,1.3c.13.58.26,1.25.38,2s.24,1.57.36,2.46.21,1.77.3,2.66.18,1.76.24,2.62.12,1.65.16,2.35c-.41.27-.74.29-1,.06a2.69,2.69,0,0,1-.61-1.2,11.87,11.87,0,0,1-.38-2.06c-.08-.81-.17-1.65-.25-2.52s-.17-1.73-.28-2.58A17.82,17.82,0,0,0,378.92,175.57Z"/>
  <path class="cls-4" d="M382.82,180.92a8.42,8.42,0,0,1,.24-2,5.63,5.63,0,0,1,.77-1.8,4.26,4.26,0,0,1,1.37-1.3,4,4,0,0,1,2.05-.5,2.64,2.64,0,0,1,2.61,1.87,4,4,0,0,1,.17,1.14,4.18,4.18,0,0,1-.43,1.84,5.28,5.28,0,0,1-1.17,1.56,4.64,4.64,0,0,1-1.68,1,3.53,3.53,0,0,1-1.93.16,1.23,1.23,0,0,0,.36.87,2.26,2.26,0,0,0,.83.49,4.24,4.24,0,0,0,1,.21h.93a4.26,4.26,0,0,0,.8-.08l.74-.16c.24-.07.49-.12.75-.17a4,4,0,0,1,.77-.1h.33a.9.9,0,0,1,.32.09.52.52,0,0,1,.24.2.67.67,0,0,1,.09.34.77.77,0,0,1-.26.59,2.48,2.48,0,0,1-.66.4,4.43,4.43,0,0,1-.88.25c-.32,0-.63.1-.94.13a5.75,5.75,0,0,1-.83,0h-.57a5.54,5.54,0,0,1-2.13-.38,4.31,4.31,0,0,1-1.6-1.06,4.36,4.36,0,0,1-1-1.63A6.21,6.21,0,0,1,382.82,180.92Zm2-1.21a1.94,1.94,0,0,0,.18.95c.12.2.4.29.86.29a2.58,2.58,0,0,0,.95-.17,2.94,2.94,0,0,0,.84-.49,2.34,2.34,0,0,0,.61-.75,2,2,0,0,0,.22-.92,3.79,3.79,0,0,0-.05-.58,1.57,1.57,0,0,0-.19-.55,1.45,1.45,0,0,0-.38-.4,1,1,0,0,0-.61-.16,2,2,0,0,0-1,.25,2.41,2.41,0,0,0-.77.65,3.66,3.66,0,0,0-.7,1.88Z"/>
  <path class="cls-4" d="M392.76,178.28a1.29,1.29,0,0,1,.16-.72c.1-.17.33-.26.68-.26h.4c.09.38.18.8.27,1.25s.2.91.33,1.36.26.91.42,1.36a6,6,0,0,0,.56,1.2,2,2,0,0,0,.48-.83,6.9,6.9,0,0,0,.23-1,6,6,0,0,1,.14-.95,2,2,0,0,1,.26-.78,1.14,1.14,0,0,1,.61-.47,2.05,2.05,0,0,1,1.1,0,2.37,2.37,0,0,1,1.25.28,3.7,3.7,0,0,1,.8.73c.23.29.45.6.67.93a3.86,3.86,0,0,0,.83.88l.27-.61c.13-.26.27-.51.42-.76s.35-.53.54-.79a6,6,0,0,1,.6-.73,4.78,4.78,0,0,1,.65-.54,1.25,1.25,0,0,1,.65-.21,2,2,0,0,1,1.32.47,4.4,4.4,0,0,1,1,1.19,7.71,7.71,0,0,1,.66,1.6,13.87,13.87,0,0,1,.41,1.69q.15.83.21,1.5c0,.33.06.67.07,1a.56.56,0,0,1-.11.37.8.8,0,0,1-.28.2,1.55,1.55,0,0,1-.36.08h-.64l-.21-.05-1.2-5.55a.27.27,0,0,0-.15-.21,1,1,0,0,0-.22-.2h-.19a1,1,0,0,0-.73.32,4.09,4.09,0,0,0-.64.8,8.36,8.36,0,0,0-.56,1.07c-.17.4-.33.79-.46,1.18s-.26.75-.36,1.08l-.25.75a.8.8,0,0,1-.3.06h-.3a1,1,0,0,1-.8-.36,3,3,0,0,1-.45-.9,8.16,8.16,0,0,1-.3-1.18,11.94,11.94,0,0,0-.29-1.18,2.82,2.82,0,0,0-.49-.9,1,1,0,0,0-.86-.36c-.14,0-.27.14-.39.41a5.86,5.86,0,0,0-.33,1c-.1.41-.2.86-.28,1.34s-.16.92-.21,1.33-.11.91-.16,1.48l-.15.12-.23.14-.24.11h-.18a1.42,1.42,0,0,1-1-.48,4.8,4.8,0,0,1-.88-1.22,12.87,12.87,0,0,1-.73-1.66c-.21-.61-.4-1.2-.54-1.78s-.27-1.11-.35-1.58A7.24,7.24,0,0,1,392.76,178.28Z"/>
  <path class="cls-4" d="M409.46,180.92a8.42,8.42,0,0,1,.24-2,5.63,5.63,0,0,1,.77-1.8,4.26,4.26,0,0,1,1.37-1.3,4,4,0,0,1,2.06-.5,2.93,2.93,0,0,1,1.2.25,2.58,2.58,0,0,1,1.4,1.66,3.67,3.67,0,0,1,.18,1.14,4.06,4.06,0,0,1-.44,1.84,5.28,5.28,0,0,1-1.17,1.56,4.56,4.56,0,0,1-1.68,1,3.53,3.53,0,0,1-1.93.16,1.23,1.23,0,0,0,.37.87,2.14,2.14,0,0,0,.82.49,4.24,4.24,0,0,0,1,.21c.35,0,.66.05.93.05a4.26,4.26,0,0,0,.8-.08l.74-.16c.25-.07.5-.12.75-.17a4.45,4.45,0,0,1,.81-.08H418a.9.9,0,0,1,.32.09.52.52,0,0,1,.24.2.67.67,0,0,1,.09.34.74.74,0,0,1-.26.59,2.28,2.28,0,0,1-.65.4,4.72,4.72,0,0,1-.89.25,9.05,9.05,0,0,0-.93.13h-1.4a5.41,5.41,0,0,1-2.14-.38,4.27,4.27,0,0,1-1.59-1.06,4.36,4.36,0,0,1-1-1.63A6.1,6.1,0,0,1,409.46,180.92Zm2-1.21a2.06,2.06,0,0,0,.17.95c.12.2.41.29.87.29a2.52,2.52,0,0,0,.94-.17,3.14,3.14,0,0,0,.85-.49,2.43,2.43,0,0,0,.6-.75,2,2,0,0,0,.22-.92,5.61,5.61,0,0,0,0-.58,1.59,1.59,0,0,0-.2-.55,1.12,1.12,0,0,0-.38-.4,1,1,0,0,0-.6-.16,2,2,0,0,0-1,.25,2.41,2.41,0,0,0-.77.65,3,3,0,0,0-.65,1.88Z"/>
  <path class="cls-4" d="M419.81,179.82a.84.84,0,0,1,.25-.69,1.06,1.06,0,0,1,.77-.22H421a4.19,4.19,0,0,0,.13.69,4.52,4.52,0,0,0,.22.8,5.17,5.17,0,0,0,.36.75,1.55,1.55,0,0,0,.5.55,2.9,2.9,0,0,1,.32-1.26,4.73,4.73,0,0,1,.76-1.07,4.82,4.82,0,0,1,1-.8,4,4,0,0,1,1.09-.44h.41a2.91,2.91,0,0,1,1.52.4,3.7,3.7,0,0,1,1.05,1A4.94,4.94,0,0,1,429,181a13.57,13.57,0,0,1,.34,1.66,14.73,14.73,0,0,1,.15,1.63v1.35h-1.36c-.07-.75-.16-1.46-.28-2.14a5,5,0,0,0-.14-.86c-.06-.3-.13-.59-.21-.85s-.15-.5-.24-.75a3.19,3.19,0,0,0-.3-.58l-.19-.2-.25-.26-.24-.23-.13-.09a1,1,0,0,0-1,.21,3.54,3.54,0,0,0-.72,1,6.81,6.81,0,0,0-.51,1.39c-.13.52-.24,1-.33,1.49s-.14.89-.18,1.25-.06.56-.08.64a1,1,0,0,1-.87.19,1.77,1.77,0,0,1-.77-.58,4.49,4.49,0,0,1-.65-1.12,14.23,14.23,0,0,1-.53-1.42c-.16-.5-.3-1-.43-1.51S419.91,180.26,419.81,179.82Z"/>
  <path class="cls-4" d="M430.15,176.72v-.09a.14.14,0,0,1,0-.09l.22-.24q.15-.15.18-.15h3.73c0-.22,0-.43,0-.65s-.07-.63-.1-1a7.11,7.11,0,0,1,0-1.13,3.73,3.73,0,0,1,.16-1,1.84,1.84,0,0,1,.44-.78,1.13,1.13,0,0,1,.86-.31,14.37,14.37,0,0,0,.26,3,5,5,0,0,0,.7,1.74,2,2,0,0,0,1,.8,3.38,3.38,0,0,0,1.14.16,5.42,5.42,0,0,0,1.14-.18,6.81,6.81,0,0,1,1-.2,1.1,1.1,0,0,1,.69.08c.18.09.26.31.26.66a.73.73,0,0,1-.17.55,1.29,1.29,0,0,1-.68.26l-.49.07-.77.08-.91.09-.91.08-.78.05h-.52v.61a5,5,0,0,0,.26,1.58c.18.52.36,1,.57,1.53s.39,1,.56,1.53a4.66,4.66,0,0,1,.26,1.57,1.61,1.61,0,0,1,0,.31,1,1,0,0,1-.11.28.51.51,0,0,1-.25.18.64.64,0,0,1-.43,0,1.64,1.64,0,0,1-1-.8,4.79,4.79,0,0,1-.51-1.46,12,12,0,0,1-.22-1.79q-.06-.94-.18-1.77a5.25,5.25,0,0,0-.38-1.41,1.18,1.18,0,0,0-.83-.72l-3.59-.81a.27.27,0,0,1-.22-.16,1,1,0,0,1-.18-.23.14.14,0,0,1,0-.09A.28.28,0,0,1,430.15,176.72Z"/>
  <path class="cls-4" d="M450.47,183.68c-.47.32-.88.61-1.22.86a8.07,8.07,0,0,1-1,.64,3.59,3.59,0,0,1-1,.39,5.57,5.57,0,0,1-1.35.13,3.28,3.28,0,0,1-2.56-.91,4,4,0,0,1-.83-2.74,6,6,0,0,1,.18-1.47,8,8,0,0,1,.55-1.51,9,9,0,0,1,.86-1.43,6.76,6.76,0,0,1,1.14-1.19,5.27,5.27,0,0,1,1.34-.83,3.92,3.92,0,0,1,1.51-.31,4.47,4.47,0,0,1,2.1.66,3.3,3.3,0,0,1,1.15,1.36,6.53,6.53,0,0,1,.54,1.83c.1.68.17,1.37.23,2.09s.13,1.44.21,2.15a7,7,0,0,0,.54,2,3.36,3.36,0,0,1-.45.86.34.34,0,0,1-.47.1h0a2.56,2.56,0,0,1-.6-.82A17.51,17.51,0,0,1,450.47,183.68Zm-6.4-1.59a2.49,2.49,0,0,0,.39,1.55,1.75,1.75,0,0,0,1.42.49,4.06,4.06,0,0,0,1.46-.27,3.91,3.91,0,0,0,1.22-.74,3.76,3.76,0,0,0,.83-1.15,3.29,3.29,0,0,0,.32-1.48v-.94a5.9,5.9,0,0,0-.07-1.19,2.78,2.78,0,0,0-.35-1,.87.87,0,0,0-.78-.44,3.27,3.27,0,0,0-1.78.49,5.26,5.26,0,0,0-1.41,1.25,6,6,0,0,0-.93,1.68A5.47,5.47,0,0,0,444.07,182.09Z"/>
  <path class="cls-4" d="M453.64,180.49a4.36,4.36,0,0,1,.34-1.63,6.22,6.22,0,0,1,.92-1.55,5.1,5.1,0,0,1,1.33-1.16,3,3,0,0,1,1.58-.47,2.62,2.62,0,0,1,1.63.58,2.22,2.22,0,0,1,.55.67,1.66,1.66,0,0,1,.22.87,2.48,2.48,0,0,1-.61-.07,4.56,4.56,0,0,1-.52-.18l-.51-.18a2.18,2.18,0,0,0-1.79.31,2.78,2.78,0,0,0-.75.95,4.82,4.82,0,0,0-.38,1.24,7.29,7.29,0,0,0-.1,1.23v1.45a2,2,0,0,0,0,.35,3.65,3.65,0,0,0,.4.69,1.32,1.32,0,0,0,.42.36,1.34,1.34,0,0,0,.48.15h.62a2,2,0,0,0,.84-.15,6.24,6.24,0,0,0,.68-.35,4.44,4.44,0,0,0,.59-.46,5.2,5.2,0,0,1,.59-.46,3.48,3.48,0,0,1,.66-.35,2.13,2.13,0,0,1,.83-.14,3.75,3.75,0,0,1-.33,1.61,3.58,3.58,0,0,1-.9,1.21,4.36,4.36,0,0,1-1.38.77,5.23,5.23,0,0,1-1.71.27,2.33,2.33,0,0,1-1.57-.6,5.37,5.37,0,0,1-1.19-1.45,7.67,7.67,0,0,1-.75-1.83A6.77,6.77,0,0,1,453.64,180.49Z"/>
  <path class="cls-4" d="M463.81,172.16a1.38,1.38,0,0,1,.59.48.88.88,0,0,1,.21.6c0,.18-.15.31-.41.38a2.65,2.65,0,0,1-1.3-.22,1.87,1.87,0,0,1,.19-.87A.73.73,0,0,1,463.81,172.16Zm-.26,7v-1.8a1.62,1.62,0,0,1,.53-.48,3.93,3.93,0,0,1,.66-.3,11.78,11.78,0,0,0,.32,2.13c.17.76.35,1.51.55,2.28s.38,1.51.53,2.25a9.68,9.68,0,0,1,.23,2.08.75.75,0,0,1-.63.83h-.22a1.09,1.09,0,0,1-.87-.42,3.16,3.16,0,0,1-.57-1.09,10.45,10.45,0,0,1-.34-1.47,13.89,13.89,0,0,1-.18-1.58c0-.52-.05-1-.05-1.43v-1Z"/>
  <path class="cls-4" d="M467.15,182.31a4.31,4.31,0,0,1,.54-2.14,5.54,5.54,0,0,1,1.41-1.71,7,7,0,0,1,2-1.12,6.35,6.35,0,0,1,2.24-.41,1.65,1.65,0,0,1,1.12.41,3.6,3.6,0,0,1,.82,1,4.57,4.57,0,0,1,.51,1.23,4.07,4.07,0,0,1-.32,3.15,6.24,6.24,0,0,1-1.3,1.72,6.89,6.89,0,0,1-1.8,1.22,4.61,4.61,0,0,1-2,.46,3.4,3.4,0,0,1-1.51-.3,2.83,2.83,0,0,1-1-.82,3.33,3.33,0,0,1-.55-1.21A6.16,6.16,0,0,1,467.15,182.31Zm1.57.18a4,4,0,0,0,.09.85,1.32,1.32,0,0,0,.29.62,1.51,1.51,0,0,0,.57.4,2.34,2.34,0,0,0,.87.14,2.92,2.92,0,0,0,1.38-.38,5.39,5.39,0,0,0,1.23-1,5.17,5.17,0,0,0,.88-1.29,3.25,3.25,0,0,0,.33-1.37,3.49,3.49,0,0,0-.05-.65,3,3,0,0,0-.19-.65,1.31,1.31,0,0,0-.37-.5.9.9,0,0,0-.61-.2,1.8,1.8,0,0,0-.79.22,6.92,6.92,0,0,0-.94.57c-.35.25-.68.52-1,.8a10.2,10.2,0,0,0-.86.89,4.37,4.37,0,0,0-.62.86,1.43,1.43,0,0,0-.21.69Zm4.46-10.15-2,3a.48.48,0,0,1-.44.23.55.55,0,0,1-.35-.22.68.68,0,0,1-.12-.44.75.75,0,0,1,.19-.53.61.61,0,0,0,.12-.16.64.64,0,0,0,.08-.14l.43-.67c.16-.24.33-.48.5-.69a7,7,0,0,1,.51-.58,1.58,1.58,0,0,1,.48-.33.37.37,0,0,1,.38,0A.87.87,0,0,1,473.18,172.34Z"/>
  <path class="cls-4" d="M476.68,179.82a.84.84,0,0,1,.25-.69,1.06,1.06,0,0,1,.77-.22h.19a4.19,4.19,0,0,0,.13.69,4.52,4.52,0,0,0,.22.8,5.17,5.17,0,0,0,.36.75,1.55,1.55,0,0,0,.5.55,2.9,2.9,0,0,1,.32-1.26,4.73,4.73,0,0,1,.76-1.07,4.82,4.82,0,0,1,1-.8,4,4,0,0,1,1.09-.44h.41a2.91,2.91,0,0,1,1.52.4,3.7,3.7,0,0,1,1.05,1,5.15,5.15,0,0,1,.64,1.46,13.57,13.57,0,0,1,.34,1.66,14.73,14.73,0,0,1,.15,1.63v1.35H485c-.07-.75-.16-1.46-.28-2.14a5,5,0,0,0-.14-.86c-.06-.3-.13-.59-.21-.85s-.15-.5-.24-.75a3.19,3.19,0,0,0-.3-.58l-.19-.2-.25-.26-.24-.23-.13-.09a1,1,0,0,0-1,.21,3.54,3.54,0,0,0-.72,1,6.81,6.81,0,0,0-.51,1.39c-.13.52-.24,1-.33,1.49s-.14.89-.18,1.25-.06.56-.08.64a1,1,0,0,1-.87.19,1.77,1.77,0,0,1-.77-.58,4.49,4.49,0,0,1-.65-1.12,14.23,14.23,0,0,1-.53-1.42c-.16-.5-.3-1-.43-1.51S476.78,180.26,476.68,179.82Z"/>
  <path class="cls-4" d="M812.42,197.09c.08-.23.19-.35.33-.39a2,2,0,0,1,.49-.06,1.47,1.47,0,0,1,1,.57,9,9,0,0,1,1.08,1.51,22.24,22.24,0,0,1,1.12,2.17c.38.82.75,1.66,1.1,2.53s.68,1.75,1,2.61.58,1.66.81,2.39.4,1.35.53,1.88a6.7,6.7,0,0,1,.18,1.09,1.12,1.12,0,0,1-.14.57.5.5,0,0,1-.49.27.59.59,0,0,1-.38-.14,1.27,1.27,0,0,1-.27-.34l-.2-.41c-.06-.14-.12-.26-.17-.35s-.15-.4-.31-.78-.31-.79-.48-1.21-.32-.82-.47-1.19l-.32-.8-2.6-.41c-.88-.13-1.79-.26-2.76-.38h-.2c-.45,1.91-.84,3.43-1.18,4.54a19.8,19.8,0,0,1-.85,2.38c-.23.47-.41.66-.54.58s-.22-.36-.26-.85a11.13,11.13,0,0,1,0-2,18.81,18.81,0,0,1,.31-2.7c.15-1,.35-2,.57-3.09s.49-2.11.8-3.12a25.39,25.39,0,0,1,1.06-2.79A9.54,9.54,0,0,1,812.42,197.09Zm-.44,6.53a1.17,1.17,0,0,0,.44,1,2.35,2.35,0,0,0,1.08.42,8.47,8.47,0,0,0,1.33.07H816a6.2,6.2,0,0,0-.24-1.6,13,13,0,0,0-.61-1.72c-.25-.57-.51-1.12-.79-1.66l-.77-1.46a2.52,2.52,0,0,0-.44.76c-.15.36-.3.77-.46,1.22s-.29.89-.42,1.33-.21.78-.27,1.06v.58Z"/>
  <path class="cls-4" d="M821.14,207.13a.83.83,0,0,1,.25-.7,1.17,1.17,0,0,1,.77-.21h.19a5.1,5.1,0,0,0,.13.68,4.52,4.52,0,0,0,.22.8,5.17,5.17,0,0,0,.36.75,1.55,1.55,0,0,0,.5.55,2.86,2.86,0,0,1,.32-1.25,4.69,4.69,0,0,1,1.76-1.88,3.65,3.65,0,0,1,1.09-.43h.41a2.73,2.73,0,0,1,1.52.4,3.24,3.24,0,0,1,1.05,1,4.94,4.94,0,0,1,.64,1.45,13.57,13.57,0,0,1,.34,1.66,14.91,14.91,0,0,1,.15,1.64v1.34h-1.36c-.07-.74-.16-1.45-.28-2.13a5.25,5.25,0,0,0-.14-.87c-.06-.31-.13-.58-.21-.85a4.91,4.91,0,0,0-.24-.74,3,3,0,0,0-.3-.59l-.19-.2-.25-.26-.24-.22-.13-.1a1,1,0,0,0-1,.22,3.12,3.12,0,0,0-.72,1,6.81,6.81,0,0,0-.51,1.39q-.19.78-.33,1.5c-.08.47-.14.89-.18,1.24s-.06.57-.08.64a1,1,0,0,1-.87.2,1.8,1.8,0,0,1-.77-.59,5.13,5.13,0,0,1-.65-1.11c-.19-.45-.37-.92-.53-1.42s-.3-1-.43-1.51S821.24,207.56,821.14,207.13Z"/>
  <path class="cls-4" d="M839.87,211c-.47.32-.88.6-1.22.86a8.07,8.07,0,0,1-1,.64,4.51,4.51,0,0,1-1,.39,6.79,6.79,0,0,1-1.35.13,3.32,3.32,0,0,1-2.56-.92,4,4,0,0,1-.83-2.74,6,6,0,0,1,.18-1.46,8.37,8.37,0,0,1,.55-1.52,9,9,0,0,1,.86-1.42,7.55,7.55,0,0,1,1.13-1.2,5.51,5.51,0,0,1,1.35-.83,3.91,3.91,0,0,1,1.51-.3,4.23,4.23,0,0,1,2.1.66,3.27,3.27,0,0,1,1.15,1.35,6.5,6.5,0,0,1,.54,1.84c.1.67.17,1.37.23,2.08s.13,1.44.21,2.16a7,7,0,0,0,.54,2,3.07,3.07,0,0,1-.45.86.34.34,0,0,1-.47.1h0a2.13,2.13,0,0,1-.6-.82C840.49,212.4,840.2,211.79,839.87,211Zm-6.41-1.6a2.49,2.49,0,0,0,.4,1.55,1.74,1.74,0,0,0,1.42.49,4.06,4.06,0,0,0,1.46-.27,3.76,3.76,0,0,0,1.21-.74,3.63,3.63,0,0,0,.84-1.14,3.36,3.36,0,0,0,.32-1.49v-.93a6,6,0,0,0-.07-1.2,2.78,2.78,0,0,0-.35-1,.87.87,0,0,0-.78-.44,3.4,3.4,0,0,0-1.78.5,4.69,4.69,0,0,0-1.41,1.25,6,6,0,0,0-.93,1.68,5.11,5.11,0,0,0-.33,1.73Zm5.37-11.4-2,3a.48.48,0,0,1-.44.22A.51.51,0,0,1,836,201a.81.81,0,0,1,.07-1,.61.61,0,0,0,.12-.16.64.64,0,0,0,.08-.14l.43-.66c.16-.25.33-.48.5-.7a7,7,0,0,1,.51-.58,1.67,1.67,0,0,1,.47-.33.37.37,0,0,1,.38,0A.83.83,0,0,1,838.83,198Z"/>
  <path class="cls-4" d="M843.86,202.88a6.74,6.74,0,0,0-.08-1,4.61,4.61,0,0,1,0-.91,1,1,0,0,1,.29-.64A1.38,1.38,0,0,1,845,200a5.93,5.93,0,0,1,.4,1.3c.13.58.26,1.25.38,2s.24,1.57.35,2.46.22,1.77.31,2.66.17,1.77.24,2.63.12,1.64.16,2.34c-.41.28-.74.29-1,.06a2.69,2.69,0,0,1-.61-1.2,13.08,13.08,0,0,1-.37-2.06c-.09-.81-.17-1.65-.25-2.52s-.18-1.73-.29-2.58A18.44,18.44,0,0,0,843.86,202.88Z"/>
  <path class="cls-4" d="M848.79,199.46a1.28,1.28,0,0,1,.59.49.83.83,0,0,1,.22.6c0,.18-.16.3-.42.37a2.54,2.54,0,0,1-1.3-.21,1.78,1.78,0,0,1,.2-.88A.73.73,0,0,1,848.79,199.46Zm-.26,7v-1.8a1.44,1.44,0,0,1,.53-.48,3.83,3.83,0,0,1,.65-.3A13.85,13.85,0,0,0,850,206c.17.75.36,1.51.56,2.27s.37,1.51.52,2.25a10.36,10.36,0,0,1,.24,2.08.75.75,0,0,1-.64.84h-.22a1.1,1.1,0,0,1-.87-.43,3.53,3.53,0,0,1-.56-1.09,9.13,9.13,0,0,1-.35-1.46c-.08-.54-.14-1.07-.17-1.59s0-1-.06-1.43a5.4,5.4,0,0,1,0-1Z"/>
  <path class="cls-4" d="M855.69,212.54c.2-.13.44-.31.72-.53s.56-.44.84-.69a9.82,9.82,0,0,0,.8-.78,3.74,3.74,0,0,0,.58-.79,1.38,1.38,0,0,0,.22-.71.64.64,0,0,0-.34-.56,11.3,11.3,0,0,0-1.3.05,11.06,11.06,0,0,1-1.41,0,7.73,7.73,0,0,1-1.36-.12,3.25,3.25,0,0,1-1.18-.41,2.14,2.14,0,0,1-.82-.84,2.82,2.82,0,0,1-.31-1.4,4.2,4.2,0,0,1,.38-1.81,5.26,5.26,0,0,1,1-1.43,7.88,7.88,0,0,1,1.42-1.09,11.88,11.88,0,0,1,1.59-.81,2.44,2.44,0,0,1,.89.46,3.83,3.83,0,0,1,.7.75,1,1,0,0,1-.51.63,4.83,4.83,0,0,1-.87.39l-1,.35a3.72,3.72,0,0,0-1,.49,2.58,2.58,0,0,0-.74.8,2.52,2.52,0,0,0-.29,1.29,1.2,1.2,0,0,0,.29.87,1.55,1.55,0,0,0,.78.38,4.49,4.49,0,0,0,1.1.07,6.51,6.51,0,0,0,1.25-.08,6.51,6.51,0,0,1,1.25-.06,3.43,3.43,0,0,1,1.1.14,1.71,1.71,0,0,1,.77.52,1.55,1.55,0,0,1,.29,1,2.25,2.25,0,0,1-.2.77,7.29,7.29,0,0,1-.52,1,8.77,8.77,0,0,1-.76,1.05,8.87,8.87,0,0,1-.91.93,5.83,5.83,0,0,1-.94.69,1.75,1.75,0,0,1-.89.27.48.48,0,0,1-.51-.28A1.26,1.26,0,0,1,855.69,212.54Z"/>
  <path class="cls-4" d="M862.32,199.46a1.28,1.28,0,0,1,.59.49.88.88,0,0,1,.21.6c0,.18-.15.3-.41.37a2.54,2.54,0,0,1-1.3-.21,1.91,1.91,0,0,1,.19-.88A.76.76,0,0,1,862.32,199.46Zm-.26,7v-1.8a1.62,1.62,0,0,1,.53-.48,3.93,3.93,0,0,1,.66-.3,11.89,11.89,0,0,0,.32,2.14c.17.75.35,1.51.55,2.27s.38,1.51.53,2.25a9.68,9.68,0,0,1,.23,2.08.75.75,0,0,1-.65.84H864a1.1,1.1,0,0,1-.87-.43,3.16,3.16,0,0,1-.57-1.09,9.1,9.1,0,0,1-.34-1.46,14.33,14.33,0,0,1-.18-1.59v-2.43Z"/>
  <path class="cls-4" d="M869.22,212.54a7.27,7.27,0,0,0,.71-.53c.28-.21.56-.44.85-.69a9.82,9.82,0,0,0,.8-.78,4.46,4.46,0,0,0,.58-.79,1.47,1.47,0,0,0,.21-.71.65.65,0,0,0-.33-.56,11.3,11.3,0,0,0-1.3.05,11.06,11.06,0,0,1-1.41,0,7.73,7.73,0,0,1-1.36-.12,3.25,3.25,0,0,1-1.18-.41,2.1,2.1,0,0,1-.83-.84,2.83,2.83,0,0,1-.3-1.4A4.1,4.1,0,0,1,866,204a5.26,5.26,0,0,1,1-1.43,7.15,7.15,0,0,1,1.42-1.09,11.2,11.2,0,0,1,1.58-.81,2.44,2.44,0,0,1,.89.46,3.88,3.88,0,0,1,.71.75,1.14,1.14,0,0,1-.51.63,4.83,4.83,0,0,1-.87.39l-1,.35a3.72,3.72,0,0,0-1,.49,2.4,2.4,0,0,0-1,2.09,1.11,1.11,0,0,0,.3.87,1.55,1.55,0,0,0,.78.38,4.44,4.44,0,0,0,1.09.07,6.67,6.67,0,0,0,1.26-.08,6.51,6.51,0,0,1,1.25-.06,3.33,3.33,0,0,1,1.09.14,1.45,1.45,0,0,1,1.06,1.52,2,2,0,0,1-.19.77,9.48,9.48,0,0,1-.52,1,8.77,8.77,0,0,1-.76,1.05,10,10,0,0,1-.91.93,5.91,5.91,0,0,1-.95.69,1.72,1.72,0,0,1-.88.27.48.48,0,0,1-.51-.28A1.55,1.55,0,0,1,869.22,212.54Z"/>
  <path class="cls-4" d="M904.91,417.88a1.81,1.81,0,0,1,.45-1.28,3.34,3.34,0,0,1,1.14-.79,5.19,5.19,0,0,1,1.45-.39,11.14,11.14,0,0,1,1.41-.1,4.21,4.21,0,0,1,2,.47,3.79,3.79,0,0,1,1.33,1.25,5.34,5.34,0,0,1,.73,1.8,9.68,9.68,0,0,1,.23,2.08,11.51,11.51,0,0,1-.15,1.66,13.47,13.47,0,0,1-.45,2,16,16,0,0,1-.73,2,9.14,9.14,0,0,1-1,1.78,5.23,5.23,0,0,1-1.29,1.28,2.82,2.82,0,0,1-1.57.48c-.11,0-.24-.15-.4-.46a13,13,0,0,1-.52-1.21c-.19-.51-.39-1.09-.59-1.76s-.41-1.34-.6-2.05-.39-1.43-.56-2.15-.33-1.38-.47-2-.25-1.14-.33-1.6A6.77,6.77,0,0,1,904.91,417.88Zm1.54,1.06a8.74,8.74,0,0,0,.08,1.35c.08.51.15,1,.26,1.58a11.71,11.71,0,0,0,.45,1.64,12.22,12.22,0,0,0,.62,1.55,7.65,7.65,0,0,0,.8,1.31,3.51,3.51,0,0,0,1,.92c.42-.6.79-1.13,1.1-1.6a9.58,9.58,0,0,0,.76-1.41,7.14,7.14,0,0,0,.43-1.5,10.52,10.52,0,0,0,.14-1.86,12.25,12.25,0,0,0-.09-1.48,3.66,3.66,0,0,0-.4-1.29,2.35,2.35,0,0,0-.86-.91,2.7,2.7,0,0,0-1.47-.34,4.39,4.39,0,0,0-1.44.23,6.45,6.45,0,0,0-1.34.6v1a1,1,0,0,1,0,.25Z"/>
  <path class="cls-4" d="M915.45,416.54a1.28,1.28,0,0,1,.59.49.89.89,0,0,1,.22.6c0,.18-.16.3-.42.37a2.54,2.54,0,0,1-1.3-.21,1.78,1.78,0,0,1,.2-.88A.73.73,0,0,1,915.45,416.54Zm-.26,7v-1.8a1.5,1.5,0,0,1,.52-.48,3.93,3.93,0,0,1,.66-.3,11.89,11.89,0,0,0,.32,2.14c.17.75.36,1.51.55,2.27s.38,1.51.53,2.25a10.36,10.36,0,0,1,.24,2.08.75.75,0,0,1-.64.84h-.22a1.1,1.1,0,0,1-.87-.43,3.78,3.78,0,0,1-.57-1.09,10.65,10.65,0,0,1-.34-1.46c-.09-.54-.14-1.07-.18-1.59s0-1,0-1.43v-1Z"/>
  <path class="cls-4" d="M922.35,429.62c.2-.13.44-.31.72-.52s.56-.45.84-.7.55-.51.8-.78a3.74,3.74,0,0,0,.58-.79,1.48,1.48,0,0,0,.22-.71.69.69,0,0,0-.34-.56,11.3,11.3,0,0,0-1.3.05q-.71,0-1.41,0a7.73,7.73,0,0,1-1.36-.12,3.59,3.59,0,0,1-1.18-.4,2.1,2.1,0,0,1-.82-.85,2.82,2.82,0,0,1-.31-1.4,4.2,4.2,0,0,1,.38-1.81,5.26,5.26,0,0,1,1-1.43,7.15,7.15,0,0,1,1.42-1.09,11.88,11.88,0,0,1,1.59-.81,2.44,2.44,0,0,1,.89.46,4.15,4.15,0,0,1,.7.75,1,1,0,0,1-.51.63,4.83,4.83,0,0,1-.87.39l-1,.35a3.72,3.72,0,0,0-1,.49,2.69,2.69,0,0,0-.74.8,2.52,2.52,0,0,0-.29,1.29,1.16,1.16,0,0,0,.29.87,1.55,1.55,0,0,0,.78.38,4.5,4.5,0,0,0,1.1.08l1.25-.09c.43,0,.84-.06,1.25-.06a3.15,3.15,0,0,1,1.1.15,1.4,1.4,0,0,1,1,1.51,2,2,0,0,1-.19.77,7.29,7.29,0,0,1-.52,1,8.23,8.23,0,0,1-.76,1,8,8,0,0,1-.91.93,5.91,5.91,0,0,1-1,.69,1.72,1.72,0,0,1-.88.27.48.48,0,0,1-.51-.28A1.19,1.19,0,0,1,922.35,429.62Z"/>
  <path class="cls-4" d="M927.94,425.3a8.42,8.42,0,0,1,.24-2,5.63,5.63,0,0,1,.77-1.8,4.15,4.15,0,0,1,1.37-1.3,3.89,3.89,0,0,1,2-.5,2.79,2.79,0,0,1,1.21.25,2.66,2.66,0,0,1,1.4,1.61,3.66,3.66,0,0,1,.17,1.14,4.18,4.18,0,0,1-.43,1.84,5.46,5.46,0,0,1-1.17,1.57,5,5,0,0,1-1.68,1,3.62,3.62,0,0,1-1.93.16,1.22,1.22,0,0,0,.36.86,2.26,2.26,0,0,0,.83.49,4.24,4.24,0,0,0,1,.21,7.21,7.21,0,0,0,.93,0,4.25,4.25,0,0,0,.8-.07l.74-.17.75-.17a4.43,4.43,0,0,1,.81-.07,1.82,1.82,0,0,1,.33,0,1.16,1.16,0,0,1,.32.08.52.52,0,0,1,.24.2.73.73,0,0,1,.09.35.77.77,0,0,1-.26.58,2.12,2.12,0,0,1-.66.4,3.85,3.85,0,0,1-.88.25c-.32.06-.63.1-.94.13l-.83.06H933a5.73,5.73,0,0,1-2.13-.38,4.66,4.66,0,0,1-1.6-1.06,4.72,4.72,0,0,1-1-1.63A6.35,6.35,0,0,1,927.94,425.3Zm2-1.21a1.92,1.92,0,0,0,.18,1c.12.2.41.3.86.3a2.55,2.55,0,0,0,.95-.18,2.94,2.94,0,0,0,.84-.49,2.31,2.31,0,0,0,.61-.74,2.15,2.15,0,0,0,.22-.93,5.61,5.61,0,0,0,0-.58,1.52,1.52,0,0,0-.19-.54,1.24,1.24,0,0,0-.38-.41,1,1,0,0,0-.61-.16,2.18,2.18,0,0,0-1,.25,2.69,2.69,0,0,0-.77.65,4.67,4.67,0,0,0-.75,1.83Z"/>
  <path class="cls-4" d="M938.07,419.36a8,8,0,0,1,.11-1.29,4.21,4.21,0,0,1,.41-1.24,2.48,2.48,0,0,1,.82-.94,2.38,2.38,0,0,1,1.37-.37,2,2,0,0,1,1,.27,3.34,3.34,0,0,1,.78.67c.23.28.44.57.64.87a5.43,5.43,0,0,0,.63.88,2.92,2.92,0,0,0,.73.67,1.65,1.65,0,0,0,.94.26,1.79,1.79,0,0,0,.91-.18.85.85,0,0,0,.39-.5,1.89,1.89,0,0,0,.06-.67v-.74a2.37,2.37,0,0,1,.09-.65.73.73,0,0,1,.39-.45h.38l.17.06.24.11a1.34,1.34,0,0,1,.24.12l.16.08v1a3.64,3.64,0,0,1-.85,2.55,3.16,3.16,0,0,1-2.45.92,2.17,2.17,0,0,1-1.06-.24,2.93,2.93,0,0,1-.79-.61,5.43,5.43,0,0,1-.62-.81,9,9,0,0,0-.58-.8,3.36,3.36,0,0,0-.64-.61,1.27,1.27,0,0,0-.8-.25,1.24,1.24,0,0,0-.85.23,1.26,1.26,0,0,0-.34.59,3.46,3.46,0,0,0-.09.78,5.69,5.69,0,0,1-.06.83,2.08,2.08,0,0,1-.23.73,1.06,1.06,0,0,1-.6.48l-.43-.39v-1C938.11,419.59,938.09,419.47,938.07,419.36Zm.22,4.85a.87.87,0,0,1,.24-.7,1.2,1.2,0,0,1,.78-.21h.19a3.89,3.89,0,0,0,.13.68,4.52,4.52,0,0,0,.22.8,5.12,5.12,0,0,0,.35.75,2,2,0,0,0,.5.55,2.71,2.71,0,0,1,.33-1.25,4.3,4.3,0,0,1,.76-1.08,4.82,4.82,0,0,1,1-.8,3.65,3.65,0,0,1,1.09-.43h.4a2.73,2.73,0,0,1,1.52.4,3.24,3.24,0,0,1,1.05,1,4.94,4.94,0,0,1,.64,1.45,13.61,13.61,0,0,1,.35,1.66,14.91,14.91,0,0,1,.15,1.64V430h-1.35c-.08-.74-.17-1.45-.28-2.13q-.06-.4-.15-.87c-.06-.3-.13-.58-.2-.85s-.16-.51-.24-.74a3.27,3.27,0,0,0-.3-.59l-.2-.2-.25-.26a1.26,1.26,0,0,0-.24-.22c-.07-.06-.11-.1-.13-.1a1,1,0,0,0-1,.22,3.31,3.31,0,0,0-.73,1,6.81,6.81,0,0,0-.51,1.39c-.13.52-.23,1-.32,1.5s-.15.89-.19,1.24-.06.57-.07.64a1,1,0,0,1-.87.2,1.8,1.8,0,0,1-.77-.59,4.75,4.75,0,0,1-.65-1.11c-.19-.45-.37-.92-.53-1.42s-.31-1-.44-1.51S938.39,424.64,938.29,424.21Z"/>
  <path class="cls-4" d="M949,426.69a4.45,4.45,0,0,1,.54-2.14,5.72,5.72,0,0,1,1.42-1.71,7,7,0,0,1,2-1.12,6.29,6.29,0,0,1,2.23-.41,1.7,1.7,0,0,1,1.12.41,3.47,3.47,0,0,1,.83,1,5.58,5.58,0,0,1,.51,1.24,4.37,4.37,0,0,1,.18,1.13,4.49,4.49,0,0,1-.5,2,6.29,6.29,0,0,1-1.3,1.73,6.62,6.62,0,0,1-1.8,1.21,4.77,4.77,0,0,1-2,.47,3.37,3.37,0,0,1-1.5-.31,2.57,2.57,0,0,1-1-.82,3.54,3.54,0,0,1-.55-1.2A6.12,6.12,0,0,1,949,426.69Zm1.58.19a4,4,0,0,0,.08.84,1.56,1.56,0,0,0,.3.62,1.35,1.35,0,0,0,.57.4,2.34,2.34,0,0,0,.87.14,2.64,2.64,0,0,0,1.37-.38,5,5,0,0,0,1.24-1,5.66,5.66,0,0,0,.88-1.29,3.29,3.29,0,0,0,.33-1.38v-.65a2.36,2.36,0,0,0-.19-.64,1.34,1.34,0,0,0-.37-.51,1,1,0,0,0-.61-.2,1.8,1.8,0,0,0-.79.22,6.2,6.2,0,0,0-1,.58,8.55,8.55,0,0,0-1,.8,10.42,10.42,0,0,0-.87.89,5.78,5.78,0,0,0-.62.85,1.57,1.57,0,0,0-.16.71Z"/>
  <path class="cls-4" d="M591.84,586.87a2,2,0,0,1,1.36.48,4,4,0,0,1,.9,1.25,8.36,8.36,0,0,1,.62,1.76c.16.67.31,1.35.46,2s.3,1.38.46,2a8.56,8.56,0,0,0,.59,1.77,4,4,0,0,0,.87,1.25,1.86,1.86,0,0,0,1.31.47h.18a.58.58,0,0,0,.23-.18.91.91,0,0,0,.18-.21,3.3,3.3,0,0,0,.15-.62c.08-.34.18-.78.31-1.31s.27-1.13.43-1.8.33-1.35.51-2,.37-1.36.55-2,.37-1.23.54-1.73a10.71,10.71,0,0,1,.49-1.22c.16-.3.29-.45.4-.45a.54.54,0,0,1,.35.09.5.5,0,0,1,.19.24,1.3,1.3,0,0,1,.07.33v.34a6.64,6.64,0,0,1-.1,1c-.07.47-.16,1-.28,1.66s-.26,1.34-.43,2.09-.35,1.52-.54,2.29-.42,1.52-.65,2.23-.48,1.34-.72,1.89a6.12,6.12,0,0,1-.74,1.32,1,1,0,0,1-.75.49,1.87,1.87,0,0,1-1-.28,3.56,3.56,0,0,1-.87-.72,8.31,8.31,0,0,1-.77-1c-.24-.38-.46-.76-.65-1.14s-.37-.75-.53-1.1-.29-.65-.39-.91l-.49-1.21-.59-1.5c-.2-.5-.41-1-.61-1.56l-.55-1.41-.39-1a4,4,0,0,1-.15-.45Z"/>
  <path class="cls-4" d="M604.14,595.12a8.42,8.42,0,0,1,.24-2,5.63,5.63,0,0,1,.77-1.8,4.19,4.19,0,0,1,1.38-1.3,4,4,0,0,1,2.05-.5,2.78,2.78,0,0,1,1.2.25,2.83,2.83,0,0,1,.88.66,2.66,2.66,0,0,1,.52,1,3.67,3.67,0,0,1,.18,1.14,4.06,4.06,0,0,1-.44,1.84,5.43,5.43,0,0,1-1.16,1.57,5,5,0,0,1-1.68,1,3.62,3.62,0,0,1-1.93.16,1.22,1.22,0,0,0,.36.86,2.14,2.14,0,0,0,.82.49,4.82,4.82,0,0,0,1,.22h.92a4.25,4.25,0,0,0,.8-.07l.74-.17.76-.17a4.25,4.25,0,0,1,.8-.07h.34a1.09,1.09,0,0,1,.31.08.49.49,0,0,1,.24.21.59.59,0,0,1,.1.34.77.77,0,0,1-.26.58,2.48,2.48,0,0,1-.66.4,3.85,3.85,0,0,1-.88.25c-.33.06-.64.1-.94.13l-.84.06h-.56a5.79,5.79,0,0,1-2.14-.38,4.62,4.62,0,0,1-1.59-1.06,4.36,4.36,0,0,1-1-1.63A6.18,6.18,0,0,1,604.14,595.12Zm2-1.2a1.91,1.91,0,0,0,.18.94c.11.2.4.3.86.3a2.53,2.53,0,0,0,.94-.18,2.77,2.77,0,0,0,.85-.49,2.51,2.51,0,0,0,.6-.74,1.9,1.9,0,0,0,.22-.93,5.42,5.42,0,0,0,0-.57,1.59,1.59,0,0,0-.2-.55,1.24,1.24,0,0,0-.38-.41,1.06,1.06,0,0,0-.6-.16,2.18,2.18,0,0,0-1,.25,2.69,2.69,0,0,0-.77.65,3.07,3.07,0,0,0-.48.89,3.2,3.2,0,0,0-.25,1Z"/>
  <path class="cls-4" d="M614.5,592.49v-.35a1.09,1.09,0,0,1,.08-.31.58.58,0,0,1,.18-.23.52.52,0,0,1,.34-.1c.12,0,.26.1.42.29a4.32,4.32,0,0,1,.47.73c.17.32.33.66.47,1s.29.67.41,1,.21.54.29.75a2.26,2.26,0,0,0,.13.33q.24-.65.54-1.41a6.81,6.81,0,0,1,.73-1.42,4.56,4.56,0,0,1,1-1.1,2.35,2.35,0,0,1,1.47-.45,2.7,2.7,0,0,1,.85.14,2.05,2.05,0,0,1,.7.41,1.92,1.92,0,0,1,.49.64,1.79,1.79,0,0,1,.19.85.6.6,0,0,1-.32.58,1.71,1.71,0,0,1-.74.17H622l-.8-.8H621a1.36,1.36,0,0,0-1,.36,2.42,2.42,0,0,0-.55.89,4.74,4.74,0,0,0-.23,1.12v1.06a3.84,3.84,0,0,0,.07.76,3.18,3.18,0,0,0,.17.74c.06.24.11.49.16.74a4.15,4.15,0,0,1,.08.79q0,.78-.84.78a1.42,1.42,0,0,1-1-.49,6.76,6.76,0,0,1-1-1.26A15.93,15.93,0,0,1,616,597a19,19,0,0,1-.78-1.79c-.22-.58-.4-1.1-.53-1.57A4.07,4.07,0,0,1,614.5,592.49Z"/>
  <path class="cls-4" d="M625,586.36a1.28,1.28,0,0,1,.59.49.88.88,0,0,1,.21.6c0,.18-.15.3-.41.37a2.54,2.54,0,0,1-1.3-.21,1.76,1.76,0,0,1,.19-.87A.74.74,0,0,1,625,586.36Zm-.26,7v-1.8a1.62,1.62,0,0,1,.53-.48,3.93,3.93,0,0,1,.66-.3,11.89,11.89,0,0,0,.32,2.14c.17.75.35,1.51.55,2.27s.38,1.51.53,2.25a9.68,9.68,0,0,1,.23,2.08.75.75,0,0,1-.65.84h-.2a1,1,0,0,1-.87-.43,3.21,3.21,0,0,1-.57-1.08,9.22,9.22,0,0,1-.34-1.47,14.33,14.33,0,0,1-.18-1.59v-1.43c0-.43.06-.8.06-1Z"/>
  <path class="cls-4" d="M635.91,602c-.26-.49-.55-1.09-.86-1.81s-.64-1.48-1-2.27-.68-1.55-1-2.31a16.89,16.89,0,0,0-1.1-2,1.31,1.31,0,0,0-.61-.21h-1.66a2.09,2.09,0,0,1-.73-.2,1,1,0,0,1-.45-.52,2,2,0,0,1-.06-1h3.12a18,18,0,0,1,.31-2.06,11.82,11.82,0,0,1,.61-2,10.15,10.15,0,0,1,.92-1.72,5.88,5.88,0,0,1,1.3-1.38,6.05,6.05,0,0,1,1.75-.9,6.91,6.91,0,0,1,2.25-.34,2,2,0,0,1,.89.21,3.06,3.06,0,0,1,.8.57,2.66,2.66,0,0,1,.57.8,2,2,0,0,1,.21.89,1.52,1.52,0,0,1-.63-.14,3.65,3.65,0,0,1-.54-.32l-.55-.33a1.57,1.57,0,0,0-.67-.16,4.8,4.8,0,0,0-2.07.45,5.51,5.51,0,0,0-2.79,2.91,5.15,5.15,0,0,0-.41,2.08v1.39A8.54,8.54,0,0,0,635,592a16.38,16.38,0,0,0,1.72.13h1.67a7,7,0,0,0,1.44-.09l.2.21a.62.62,0,0,1,.17.22.09.09,0,0,0,0,.07v.11a.71.71,0,0,1-.41.62,3.16,3.16,0,0,1-1,.32,10.88,10.88,0,0,1-1.4.14l-1.49.07a7.79,7.79,0,0,0-1.28.07,2.17,2.17,0,0,0-.79.18,7.2,7.2,0,0,0,.87,2.15c.41.69.84,1.38,1.27,2.08a23.55,23.55,0,0,1,1.15,2.09,5.26,5.26,0,0,1,.5,2.17h-.91a2.19,2.19,0,0,1-.57-.16A.46.46,0,0,1,635.91,602Z"/>
  <path class="cls-4" d="M642.5,586.36a1.28,1.28,0,0,1,.59.49.88.88,0,0,1,.21.6c0,.18-.16.3-.42.37a2.48,2.48,0,0,1-1.29-.21,1.76,1.76,0,0,1,.19-.87A.74.74,0,0,1,642.5,586.36Zm-.26,7v-1.8a1.62,1.62,0,0,1,.53-.48,3.93,3.93,0,0,1,.66-.3,14,14,0,0,0,.31,2.14c.18.75.36,1.51.56,2.27s.37,1.51.53,2.25a11.13,11.13,0,0,1,.23,2.08.75.75,0,0,1-.65.84h-.2a1,1,0,0,1-.87-.43,3.21,3.21,0,0,1-.57-1.08,9.22,9.22,0,0,1-.34-1.47,14.33,14.33,0,0,1-.18-1.59,11.32,11.32,0,0,0-.06-1.43Z"/>
  <path class="cls-4" d="M645.46,594.7a4.43,4.43,0,0,1,.35-1.64,5.53,5.53,0,0,1,.92-1.55,5.22,5.22,0,0,1,1.32-1.16,3,3,0,0,1,1.59-.46,2.45,2.45,0,0,1,.85.15,2.54,2.54,0,0,1,.77.43,2.1,2.1,0,0,1,.56.66,1.79,1.79,0,0,1,.21.88,2.47,2.47,0,0,1-.6-.08,4.72,4.72,0,0,1-.53-.18l-.51-.17a2.12,2.12,0,0,0-1.78.3,2.75,2.75,0,0,0-.75,1,4.09,4.09,0,0,0-.38,1.23,7.32,7.32,0,0,0-.1,1.24v1.8a3.57,3.57,0,0,0,.4.68,1.25,1.25,0,0,0,.42.37,1.16,1.16,0,0,0,.48.14h.61a2.19,2.19,0,0,0,.84-.15,3.36,3.36,0,0,0,.68-.35,6.7,6.7,0,0,0,.6-.45,6.61,6.61,0,0,1,.58-.47,3.28,3.28,0,0,1,.67-.35,2.28,2.28,0,0,1,.82-.14,3.91,3.91,0,0,1-.32,1.62,3.45,3.45,0,0,1-.91,1.2A4.08,4.08,0,0,1,651,600a5.29,5.29,0,0,1-1.72.27,2.37,2.37,0,0,1-1.57-.59,5.19,5.19,0,0,1-1.18-1.46,8.13,8.13,0,0,1-.76-1.83A7,7,0,0,1,645.46,594.7Z"/>
  <path class="cls-4" d="M662.57,597.89c-.47.32-.87.61-1.21.86a8.07,8.07,0,0,1-1,.64,4.51,4.51,0,0,1-1,.39,5.49,5.49,0,0,1-1.34.13,3.28,3.28,0,0,1-2.56-.92,3.87,3.87,0,0,1-.84-2.74,6,6,0,0,1,.19-1.46,6.83,6.83,0,0,1,.55-1.51,9,9,0,0,1,.86-1.43,7.55,7.55,0,0,1,1.13-1.2,5.51,5.51,0,0,1,1.35-.83,3.91,3.91,0,0,1,1.51-.3,4.32,4.32,0,0,1,2.09.66,3.27,3.27,0,0,1,1.15,1.35,6.5,6.5,0,0,1,.54,1.84c.1.67.18,1.37.23,2.09s.13,1.43.22,2.15a6.32,6.32,0,0,0,.54,2,3.3,3.3,0,0,1-.46.87.34.34,0,0,1-.46.09h0a2.13,2.13,0,0,1-.6-.82A17.64,17.64,0,0,1,662.57,597.89Zm-6.4-1.6a2.36,2.36,0,0,0,.4,1.55,1.74,1.74,0,0,0,1.42.49,4,4,0,0,0,1.45-.27,3.91,3.91,0,0,0,1.22-.74,3.63,3.63,0,0,0,.84-1.14,3.42,3.42,0,0,0,.31-1.48v-.94a6.91,6.91,0,0,0-.07-1.2,3,3,0,0,0-.36-1,.84.84,0,0,0-.78-.43,3.48,3.48,0,0,0-1.78.49,5.26,5.26,0,0,0-1.41,1.25,6.73,6.73,0,0,0-.93,1.68,5.19,5.19,0,0,0-.31,1.74Z"/>
  <path class="cls-4" d="M665.74,594.7a4.43,4.43,0,0,1,.35-1.64,5.53,5.53,0,0,1,.92-1.55,5.22,5.22,0,0,1,1.32-1.16,3,3,0,0,1,1.59-.46,2.45,2.45,0,0,1,.85.15,2.54,2.54,0,0,1,.77.43,2.1,2.1,0,0,1,.56.66,1.79,1.79,0,0,1,.21.88,2.47,2.47,0,0,1-.6-.08,4.72,4.72,0,0,1-.53-.18l-.51-.17a2.12,2.12,0,0,0-1.78.3,2.75,2.75,0,0,0-.75,1,4.09,4.09,0,0,0-.38,1.23,7.32,7.32,0,0,0-.1,1.24v1.8a3.57,3.57,0,0,0,.4.68,1.25,1.25,0,0,0,.42.37,1.16,1.16,0,0,0,.48.14h.61a2.45,2.45,0,0,0,.85-.15,3.28,3.28,0,0,0,.67-.35,6.7,6.7,0,0,0,.6-.45,6.61,6.61,0,0,1,.58-.47,3.28,3.28,0,0,1,.67-.35,2.28,2.28,0,0,1,.82-.14,3.91,3.91,0,0,1-.32,1.62,3.45,3.45,0,0,1-.91,1.2,4.21,4.21,0,0,1-1.37.77,5.29,5.29,0,0,1-1.72.27,2.37,2.37,0,0,1-1.57-.59,5.19,5.19,0,0,1-1.18-1.46,8.13,8.13,0,0,1-.76-1.83A6.55,6.55,0,0,1,665.74,594.7Z"/>
  <path class="cls-4" d="M675.91,586.36a1.36,1.36,0,0,1,.6.49.88.88,0,0,1,.21.6c0,.18-.16.3-.42.37a2.54,2.54,0,0,1-1.3-.21,1.77,1.77,0,0,1,.2-.87A.72.72,0,0,1,675.91,586.36Zm-.26,7v-1.8a1.44,1.44,0,0,1,.53-.48,3.93,3.93,0,0,1,.66-.3,11.87,11.87,0,0,0,.31,2.14c.17.75.36,1.51.56,2.27s.37,1.51.53,2.25a11.13,11.13,0,0,1,.23,2.08.75.75,0,0,1-.64.84h-.22a1.1,1.1,0,0,1-.87-.43,3.37,3.37,0,0,1-.56-1.08,9.25,9.25,0,0,1-.35-1.47c-.08-.54-.14-1.07-.17-1.59s0-1-.06-1.43a5.4,5.4,0,0,1,0-1Z"/>
  <path class="cls-4" d="M679.25,596.51a4.45,4.45,0,0,1,.54-2.14,5.72,5.72,0,0,1,1.42-1.71,7,7,0,0,1,2-1.12,6.35,6.35,0,0,1,2.24-.41,1.7,1.7,0,0,1,1.12.41,3.47,3.47,0,0,1,.83,1,5.58,5.58,0,0,1,.51,1.24,4,4,0,0,1-.33,3.14,6.26,6.26,0,0,1-1.29,1.73,7.11,7.11,0,0,1-1.8,1.21,4.77,4.77,0,0,1-2,.47A3.19,3.19,0,0,1,681,600a2.55,2.55,0,0,1-1-.81,3.68,3.68,0,0,1-.55-1.21A5.6,5.6,0,0,1,679.25,596.51Zm1.58.19a4,4,0,0,0,.08.84,1.67,1.67,0,0,0,.3.63,1.33,1.33,0,0,0,.57.39,2.34,2.34,0,0,0,.87.14,2.64,2.64,0,0,0,1.37-.38,4.74,4.74,0,0,0,1.23-1,5.21,5.21,0,0,0,.89-1.29,3.25,3.25,0,0,0,.33-1.37,3.49,3.49,0,0,0-.06-.65,2.52,2.52,0,0,0-.18-.65,1.39,1.39,0,0,0-.37-.5.91.91,0,0,0-.61-.21,1.94,1.94,0,0,0-.79.22,6.2,6.2,0,0,0-1,.58,8.55,8.55,0,0,0-1,.8,10.42,10.42,0,0,0-.87.89,5.78,5.78,0,0,0-.62.85A1.58,1.58,0,0,0,680.83,596.7Zm4.45-10.15-2,3a.5.5,0,0,1-.45.22.43.43,0,0,1-.34-.21.9.9,0,0,1-.13-.45.86.86,0,0,1,.19-.53l.13-.15.08-.14c.12-.2.26-.42.43-.67a7.66,7.66,0,0,1,1-1.27,1.32,1.32,0,0,1,.47-.34.37.37,0,0,1,.38,0A.86.86,0,0,1,685.28,586.55Z"/>
  <path class="cls-4" d="M688.79,594a.9.9,0,0,1,.24-.7,1.2,1.2,0,0,1,.78-.21H690a3.89,3.89,0,0,0,.13.68,4.52,4.52,0,0,0,.22.8,4.26,4.26,0,0,0,.35.75,1.55,1.55,0,0,0,.5.55,2.71,2.71,0,0,1,.33-1.25,4.3,4.3,0,0,1,.76-1.08,4.25,4.25,0,0,1,1-.79,3.28,3.28,0,0,1,1.08-.44h.41a2.73,2.73,0,0,1,1.52.4,3.24,3.24,0,0,1,1.05,1,4.94,4.94,0,0,1,.64,1.45,13.64,13.64,0,0,1,.49,3.3v1.34h-1.35c-.08-.74-.17-1.45-.28-2.13a4.19,4.19,0,0,0-.15-.86c-.06-.3-.13-.59-.2-.86s-.16-.51-.24-.74a3.19,3.19,0,0,0-.3-.58l-.2-.21-.25-.26-.24-.22a.38.38,0,0,0-.13-.09,1,1,0,0,0-1,.21,3,3,0,0,0-.73,1,7.12,7.12,0,0,0-.51,1.4c-.13.51-.23,1-.32,1.49s-.15.89-.19,1.24-.06.57-.07.64a1,1,0,0,1-.87.2,1.67,1.67,0,0,1-.77-.59,4.43,4.43,0,0,1-.65-1.11c-.19-.45-.37-.92-.53-1.42s-.31-1-.44-1.51S688.89,594.46,688.79,594Z"/>
  <path class="cls-4" d="M262.79,397.59a7.22,7.22,0,0,1,1.47,0,9.37,9.37,0,0,1,1.29.21c.41.11.83.23,1.24.38l1.35.5.48.18.73.28.72.26.47.17a.61.61,0,0,1,.21.35,1.55,1.55,0,0,1,0,.43,1.85,1.85,0,0,1-.07.41l-.09.31L264.83,399l-1.36,3.75,6.24,2.27a1.28,1.28,0,0,1-.71.8,2.75,2.75,0,0,1-1.1.2,5.42,5.42,0,0,1-1.33-.2c-.46-.12-.9-.26-1.31-.41s-.75-.3-1.06-.44a4.78,4.78,0,0,0-.62-.26l-.13.36a3,3,0,0,0-.15,1.52,11.66,11.66,0,0,0,.31,1.54c.14.51.25,1,.35,1.49a2.41,2.41,0,0,1-.08,1.33,1.51,1.51,0,0,1-.4.62.67.67,0,0,1-.68.08,1.33,1.33,0,0,1-.7-.77,5.6,5.6,0,0,1-.39-1.51,16.65,16.65,0,0,1-.12-2c0-.75,0-1.52.07-2.31s.11-1.57.19-2.34.19-1.47.3-2.12.2-1.23.3-1.72a6.22,6.22,0,0,1,.27-1.05Z"/>
  <path class="cls-4" d="M270.21,406.17l.15-.37c.07-.18.14-.36.21-.56s.14-.38.21-.55a3.65,3.65,0,0,0,.14-.35,4.37,4.37,0,0,1,.44-.31,1.2,1.2,0,0,1,.45-.15.6.6,0,0,1,.41.12,1,1,0,0,1,.32.51l-.05.14-.09.23-.22.38-.38.66c-.13.24-.26.46-.38.66a2.42,2.42,0,0,0-.21.39,6.28,6.28,0,0,0-.23.85,10.68,10.68,0,0,0-.18,1.11,8,8,0,0,0-.06,1.2,5.54,5.54,0,0,0,.12,1.15,3.41,3.41,0,0,0,.37.93,1.25,1.25,0,0,0,.69.57,1.85,1.85,0,0,0,1.09.06,2.94,2.94,0,0,0,1-.5,4.69,4.69,0,0,0,.9-.88,9.89,9.89,0,0,0,.76-1.07c.23-.37.42-.74.6-1.1a7.19,7.19,0,0,0,.4-1,4.42,4.42,0,0,0,.23-.81c.05-.27.09-.53.12-.8s.07-.52.12-.77a3.77,3.77,0,0,1,.2-.75.52.52,0,0,1,.41-.38,1,1,0,0,1,.58.05.9.9,0,0,1,.51.43,1.58,1.58,0,0,1,.16.68,3.23,3.23,0,0,1-.1.82,6.28,6.28,0,0,1-.27.87c-.1.27-.2.54-.3.78l-.24.6a10.17,10.17,0,0,1-.57,1.31,9.92,9.92,0,0,1-.87,1.43,13.17,13.17,0,0,1-1.11,1.36,6.66,6.66,0,0,1-1.28,1.09,4,4,0,0,1-1.42.58,2.9,2.9,0,0,1-2.72-1,3.48,3.48,0,0,1-.64-1.36,6.6,6.6,0,0,1-.18-1.66,11,11,0,0,1,.14-1.72,14.73,14.73,0,0,1,.35-1.6C270,407,270.09,406.6,270.21,406.17Z"/>
  <path class="cls-4" d="M278.72,410.67a.9.9,0,0,1,.47-.57,1.11,1.11,0,0,1,.8.07l.18.06a5.5,5.5,0,0,1-.11.69,4.57,4.57,0,0,0-.07.83,4.47,4.47,0,0,0,.08.82,1.74,1.74,0,0,0,.28.69,2.92,2.92,0,0,1,.73-1.07,4.07,4.07,0,0,1,1.09-.75,4.67,4.67,0,0,1,1.21-.41,3.83,3.83,0,0,1,1.17,0l.38.14a2.87,2.87,0,0,1,1.3.89,3.52,3.52,0,0,1,.63,1.34A5.06,5.06,0,0,1,287,415a13.61,13.61,0,0,1-.25,1.68,14.26,14.26,0,0,1-.41,1.59c-.17.5-.31.92-.44,1.27l-1.27-.46c.18-.73.34-1.43.47-2.1.06-.27.11-.56.15-.86s.08-.6.1-.88,0-.53,0-.78a2.82,2.82,0,0,0-.08-.65,2,2,0,0,1-.11-.26l-.15-.33c-.05-.11-.1-.2-.15-.29l-.09-.13a1,1,0,0,0-1-.13,3.38,3.38,0,0,0-1,.67,7.16,7.16,0,0,0-1,1.13c-.3.45-.57.88-.81,1.3a11.72,11.72,0,0,0-.6,1.1l-.29.58a1,1,0,0,1-.89-.12,1.72,1.72,0,0,1-.52-.81,4.59,4.59,0,0,1-.23-1.27v-1.51c0-.51.05-1.05.1-1.58S278.67,411.11,278.72,410.67Z"/>
  <path class="cls-4" d="M288.24,414.85a4.45,4.45,0,0,1,.88-1.42,5.69,5.69,0,0,1,1.4-1.14,5.39,5.39,0,0,1,1.64-.64,3,3,0,0,1,1.65.11,2.66,2.66,0,0,1,.75.43,2.48,2.48,0,0,1,.58.67,2.13,2.13,0,0,1,.29.81,1.74,1.74,0,0,1-.1.9,2.77,2.77,0,0,1-.54-.28c-.15-.11-.29-.23-.43-.35l-.42-.34a2.24,2.24,0,0,0-1.78-.32,2.77,2.77,0,0,0-1,.64,4.21,4.21,0,0,0-.78,1,7.71,7.71,0,0,0-.52,1.13c0,.11-.07.22-.11.33l-.17.52-.17.52a1.91,1.91,0,0,0-.1.34,4.12,4.12,0,0,0,.14.78,1.57,1.57,0,0,0,.27.49,1.31,1.31,0,0,0,.4.3q.28.14.57.24a2.19,2.19,0,0,0,.84.15,4.79,4.79,0,0,0,.76-.1,4.52,4.52,0,0,0,.71-.23,5.88,5.88,0,0,1,.71-.23,3.16,3.16,0,0,1,.75-.11,2.3,2.3,0,0,1,.82.16,3.88,3.88,0,0,1-.85,1.4,3.56,3.56,0,0,1-1.27.82,3.89,3.89,0,0,1-1.55.26,5,5,0,0,1-1.71-.34,2.31,2.31,0,0,1-1.27-1.09,5.83,5.83,0,0,1-.62-1.77,8.36,8.36,0,0,1-.08-2A6.51,6.51,0,0,1,288.24,414.85Z"/>
  <path class="cls-4" d="M298,417a1.43,1.43,0,0,1,.14-.34c.07-.15.12-.32.19-.49l.21-.5c.06-.16.11-.28.13-.35a1.59,1.59,0,0,1,.66-.27,3.49,3.49,0,0,1,.72-.05,13.85,13.85,0,0,0-.43,2.11c-.1.77-.18,1.55-.25,2.33s-.17,1.55-.28,2.3a10.62,10.62,0,0,1-.49,2,.74.74,0,0,1-.88.57h0a.54.54,0,0,1-.21-.08,1.09,1.09,0,0,1-.67-.7,3.11,3.11,0,0,1-.16-1.21,9.45,9.45,0,0,1,.18-1.5c.1-.52.22-1,.37-1.55s.3-.95.44-1.36S297.94,417.17,298,417Zm2.63-6.45a1.49,1.49,0,0,1,.39.65.88.88,0,0,1,0,.64c-.07.17-.25.23-.52.21a2.56,2.56,0,0,1-1.14-.65,1.7,1.7,0,0,1,.48-.75.73.73,0,0,1,.81-.15Z"/>
  <path class="cls-4" d="M300.31,421.18a4.59,4.59,0,0,1,1.24-1.83,5.54,5.54,0,0,1,1.92-1.12,6.78,6.78,0,0,1,4.49,0,1.74,1.74,0,0,1,.92.77,3.56,3.56,0,0,1,.43,1.22,5,5,0,0,1,.06,1.33,4.09,4.09,0,0,1-1.38,2.84,6.42,6.42,0,0,1-1.81,1.18,6.68,6.68,0,0,1-2.11.53,4.68,4.68,0,0,1-2-.25,3.41,3.41,0,0,1-1.31-.8,2.63,2.63,0,0,1-.64-1.11,3.47,3.47,0,0,1-.11-1.32A6,6,0,0,1,300.31,421.18Zm1.42.71a3.8,3.8,0,0,0-.21.82,1.47,1.47,0,0,0,.07.69,1.33,1.33,0,0,0,.39.57,2.59,2.59,0,0,0,.78.43,3,3,0,0,0,1.42.11,5.22,5.22,0,0,0,1.49-.49,4.71,4.71,0,0,0,1.26-.91,3,3,0,0,0,.79-1.17,4.91,4.91,0,0,0,.17-.63,3.07,3.07,0,0,0,.05-.68,1.5,1.5,0,0,0-.18-.59,1,1,0,0,0-.51-.41,1.85,1.85,0,0,0-.81-.06,6.79,6.79,0,0,0-1.09.22,8.28,8.28,0,0,0-1.18.42c-.4.17-.77.35-1.12.54a5.78,5.78,0,0,0-.87.59,1.42,1.42,0,0,0-.45.55Z"/>
  <path class="cls-4" d="M310.13,422.1a.85.85,0,0,1,.46-.57,1.13,1.13,0,0,1,.81.07l.17.06a5.5,5.5,0,0,1-.11.69,5.69,5.69,0,0,0-.07.83,4.47,4.47,0,0,0,.08.82,1.74,1.74,0,0,0,.28.69,3.07,3.07,0,0,1,.74-1.07,4,4,0,0,1,1.08-.75,4.67,4.67,0,0,1,1.21-.41,3.83,3.83,0,0,1,1.17,0l.39.14a2.89,2.89,0,0,1,1.29.89,3.52,3.52,0,0,1,.63,1.34,4.94,4.94,0,0,1,.1,1.58,13.59,13.59,0,0,1-.24,1.68q-.18.84-.42,1.59c-.17.5-.31.92-.44,1.27l-1.27-.46c.18-.73.34-1.43.47-2.1q.09-.4.15-.87c.05-.3.08-.59.1-.87s0-.52,0-.78a2.82,2.82,0,0,0-.08-.65.85.85,0,0,0-.11-.26l-.15-.33c0-.11-.1-.2-.15-.29a.38.38,0,0,0-.09-.13,1,1,0,0,0-1-.13,3.38,3.38,0,0,0-1,.67,7.16,7.16,0,0,0-1,1.13q-.45.67-.81,1.29t-.6,1.11c-.16.32-.25.51-.29.57a.92.92,0,0,1-.89-.11,1.89,1.89,0,0,1-.52-.81,4.59,4.59,0,0,1-.23-1.27v-1.52c0-.52,0-1.05.11-1.57S310.07,422.54,310.13,422.1Z"/>
  <path class="cls-4" d="M326.4,432.13c-.55.14-1,.27-1.44.4a9.1,9.1,0,0,1-1.15.26,4.05,4.05,0,0,1-1.1,0,5.85,5.85,0,0,1-1.31-.33,3.36,3.36,0,0,1-2.09-1.74,3.93,3.93,0,0,1,.15-2.86,5.89,5.89,0,0,1,.68-1.32,7.37,7.37,0,0,1,1-1.23,8.78,8.78,0,0,1,1.3-1.05,6.72,6.72,0,0,1,1.47-.73,5.49,5.49,0,0,1,1.55-.32,3.75,3.75,0,0,1,1.52.23,4.35,4.35,0,0,1,1.75,1.34,3.32,3.32,0,0,1,.61,1.66,6.13,6.13,0,0,1-.12,1.91c-.14.67-.3,1.35-.49,2s-.38,1.4-.54,2.1a6.73,6.73,0,0,0-.17,2.05,2.67,2.67,0,0,1-.73.65.32.32,0,0,1-.45-.06h0a2.36,2.36,0,0,1-.29-1C326.5,433.66,326.44,433,326.4,432.13Zm-5.47-3.69a2.49,2.49,0,0,0-.16,1.59,1.73,1.73,0,0,0,1.17,1,3.84,3.84,0,0,0,1.46.25,4,4,0,0,0,1.4-.28,3.46,3.46,0,0,0,1.17-.79,3.57,3.57,0,0,0,.81-1.29q.11-.32.33-.87a5.83,5.83,0,0,0,.34-1.15,2.86,2.86,0,0,0,0-1.09.85.85,0,0,0-.58-.68A3.41,3.41,0,0,0,325,425a5,5,0,0,0-1.75.69A5.83,5.83,0,0,0,321.8,427,5.07,5.07,0,0,0,320.93,428.44Z"/>
  <path class="cls-4" d="M331.19,428.13a1.45,1.45,0,0,1,.4-.63.77.77,0,0,1,.72,0l.2.08.18.08c-.05.39-.11.81-.18,1.27s-.12.92-.16,1.39-.06.94-.07,1.42a7.37,7.37,0,0,0,.12,1.32,2,2,0,0,0,.74-.62,7.48,7.48,0,0,0,.54-.84l.46-.84a1.79,1.79,0,0,1,.52-.64,1.27,1.27,0,0,1,.73-.24,2.15,2.15,0,0,1,1,.38,2.28,2.28,0,0,1,1.07.7,2.79,2.79,0,0,1,.51,1c.12.35.22.72.31,1.1a3.23,3.23,0,0,0,.48,1.11l.47-.47a5,5,0,0,1,.65-.57l.78-.57a6.56,6.56,0,0,1,.81-.47,3.17,3.17,0,0,1,.8-.28,1.13,1.13,0,0,1,.68,0,1.89,1.89,0,0,1,1.07.89,4.38,4.38,0,0,1,.5,1.45,8.26,8.26,0,0,1,.07,1.72,14.72,14.72,0,0,1-.2,1.74c-.09.54-.19,1-.31,1.47s-.2.75-.27.94a.52.52,0,0,1-.23.31.63.63,0,0,1-.33.09,1.14,1.14,0,0,1-.37-.05l-.34-.1-.11,0-.14-.08-.18-.12.77-5.63a.43.43,0,0,0-.07-.25.94.94,0,0,0-.14-.26h-.13a1.06,1.06,0,0,0-.8.05,3.22,3.22,0,0,0-.87.53,6.92,6.92,0,0,0-.89.82c-.3.31-.58.63-.84,1l-.71.88c-.21.28-.38.48-.49.62a.81.81,0,0,1-.31,0l-.28-.07a1,1,0,0,1-.63-.61,3.38,3.38,0,0,1-.12-1,7,7,0,0,1,.13-1.2,8.13,8.13,0,0,0,.12-1.21,2.82,2.82,0,0,0-.15-1,1.06,1.06,0,0,0-.7-.64.57.57,0,0,0-.51.25,6.2,6.2,0,0,0-.67.86c-.23.35-.47.74-.71,1.16s-.47.81-.66,1.18-.41.81-.65,1.33a.39.39,0,0,1-.18.06h-.71a1.38,1.38,0,0,1-.78-.79,4.91,4.91,0,0,1-.41-1.45,12.14,12.14,0,0,1-.11-1.81q0-.93.09-1.86c.06-.59.13-1.13.22-1.6A6.13,6.13,0,0,1,331.19,428.13Z"/>
  <path class="cls-4" d="M347.33,434.89l.13-.33c.07-.16.13-.32.2-.49l.2-.5c.07-.16.11-.28.14-.35a1.59,1.59,0,0,1,.66-.27,4.37,4.37,0,0,1,.72-.06A12.62,12.62,0,0,0,349,435c-.1.77-.18,1.54-.26,2.32s-.16,1.55-.27,2.3a10.62,10.62,0,0,1-.49,2,.75.75,0,0,1-.9.56.62.62,0,0,1-.19-.07,1.06,1.06,0,0,1-.67-.7,3.32,3.32,0,0,1-.17-1.21,9.45,9.45,0,0,1,.18-1.5c.11-.53.23-1.05.38-1.55s.29-.95.44-1.36S347.25,435.11,347.33,434.89Zm2.62-6.45a1.46,1.46,0,0,1,.4.66.88.88,0,0,1,0,.64c-.08.16-.25.23-.52.21a2.56,2.56,0,0,1-1.14-.65,1.7,1.7,0,0,1,.48-.75.71.71,0,0,1,.83-.11Z"/>
  <path class="cls-4" d="M350.1,437.82A8.81,8.81,0,0,1,351,436a5.53,5.53,0,0,1,1.34-1.43,4.07,4.07,0,0,1,1.73-.75,3.87,3.87,0,0,1,2.1.23,2.78,2.78,0,0,1,1.05.64,2.66,2.66,0,0,1,.76,2,3.6,3.6,0,0,1-.22,1.13,4.1,4.1,0,0,1-1,1.58,5.07,5.07,0,0,1-1.63,1.07,4.93,4.93,0,0,1-1.93.39,3.63,3.63,0,0,1-1.87-.51,1.2,1.2,0,0,0,.05.93,2.43,2.43,0,0,0,.6.75,4.86,4.86,0,0,0,.87.54c.28.13.57.25.86.36a4.15,4.15,0,0,0,.77.2l.76.1.76.1a3.54,3.54,0,0,1,.79.21,1.94,1.94,0,0,1,.3.13,1.27,1.27,0,0,1,.27.18.61.61,0,0,1,.16.28.69.69,0,0,1,0,.35.76.76,0,0,1-.45.46,1.93,1.93,0,0,1-.75.15,4.69,4.69,0,0,1-.92-.06l-.92-.2c-.3-.08-.56-.15-.8-.24l-.54-.18a5.67,5.67,0,0,1-1.87-1.09,4.33,4.33,0,0,1-1.14-1.54,4.47,4.47,0,0,1-.38-1.87A6.46,6.46,0,0,1,350.1,437.82Zm2.26-.47a2.07,2.07,0,0,0-.16.95c0,.23.28.42.71.58a2.79,2.79,0,0,0,.95.16,3.39,3.39,0,0,0,1-.18,2.45,2.45,0,0,0,.82-.49,2,2,0,0,0,.53-.79,5.12,5.12,0,0,0,.15-.56,1.42,1.42,0,0,0,0-.58,1.24,1.24,0,0,0-.21-.52,1,1,0,0,0-.52-.35,2,2,0,0,0-1-.11,2.48,2.48,0,0,0-.95.35,3.05,3.05,0,0,0-.76.67,3.32,3.32,0,0,0-.56.87Z"/>
  <path class="cls-4" d="M360.2,440.33a.9.9,0,0,1,.47-.57,1.11,1.11,0,0,1,.8.06l.18.07a4.16,4.16,0,0,1-.12.69,5.66,5.66,0,0,0-.06.82,4.57,4.57,0,0,0,.07.83,1.53,1.53,0,0,0,.29.68,2.88,2.88,0,0,1,.73-1.06,4.26,4.26,0,0,1,1.08-.75,4.87,4.87,0,0,1,1.22-.41,3.83,3.83,0,0,1,1.17,0l.38.14a2.67,2.67,0,0,1,1.29.9,3.27,3.27,0,0,1,.63,1.33,5,5,0,0,1,.11,1.59,13.61,13.61,0,0,1-.25,1.68c-.12.55-.26,1.08-.42,1.58s-.3.93-.43,1.28l-1.27-.47c.18-.72.34-1.42.46-2.1.06-.27.11-.55.16-.86s.08-.6.1-.87,0-.54,0-.78a2.82,2.82,0,0,0-.08-.65l-.12-.26a1,1,0,0,0-.14-.33,1.59,1.59,0,0,0-.15-.29c-.05-.09-.08-.13-.09-.13a1,1,0,0,0-1-.13,3.35,3.35,0,0,0-1,.66,6.12,6.12,0,0,0-.95,1.14c-.3.44-.57.87-.82,1.29s-.44.79-.6,1.1-.25.52-.29.58a1,1,0,0,1-.88-.11,1.72,1.72,0,0,1-.53-.82,4.51,4.51,0,0,1-.22-1.26v-1.52c0-.52.06-1,.11-1.57S360.15,440.77,360.2,440.33Z"/>
  <path class="cls-4" d="M371,441v-.08l.05-.08.29-.15c.13-.06.2-.09.23-.08l3.5,1.28a4.91,4.91,0,0,0,.17-.63l.24-1c.1-.35.22-.7.36-1.06a4.28,4.28,0,0,1,.51-.94,1.7,1.7,0,0,1,.69-.58,1.11,1.11,0,0,1,.91,0,13.4,13.4,0,0,0-.78,2.92,4.9,4.9,0,0,0,.05,1.87,2.06,2.06,0,0,0,.66,1.09,3,3,0,0,0,1,.54,5.49,5.49,0,0,0,1.14.23,8.3,8.3,0,0,1,1,.14,1.16,1.16,0,0,1,.62.32c.13.15.14.38,0,.71a.77.77,0,0,1-.35.46,1.5,1.5,0,0,1-.73,0l-.48-.1-.76-.19-.88-.23-.88-.23c-.28-.08-.53-.15-.75-.23l-.49-.17a2.55,2.55,0,0,1-.13.29l-.12.28a5,5,0,0,0-.29,1.58v3.25a5.2,5.2,0,0,1-.3,1.57,1.43,1.43,0,0,1-.13.28.7.7,0,0,1-.2.22.63.63,0,0,1-.29.1.67.67,0,0,1-.4-.18,1.64,1.64,0,0,1-.71-1.11,5,5,0,0,1,0-1.54,11.8,11.8,0,0,1,.4-1.76c.18-.6.33-1.18.44-1.72a5.51,5.51,0,0,0,.12-1.46,1.19,1.19,0,0,0-.54-1l-3.08-2a.76.76,0,0,1-.16-.22,1.31,1.31,0,0,1-.09-.28.17.17,0,0,1,0-.1Z"/>
  <path class="cls-4" d="M380.66,450.42a4.36,4.36,0,0,1,1.24-1.83,5.59,5.59,0,0,1,1.91-1.12,6.86,6.86,0,0,1,2.25-.38,6.6,6.6,0,0,1,2.24.39,1.77,1.77,0,0,1,.92.76,4.05,4.05,0,0,1,.44,1.22,5.92,5.92,0,0,1,0,1.33,4.91,4.91,0,0,1-.22,1.13,4.3,4.3,0,0,1-1.16,1.72,6.18,6.18,0,0,1-1.81,1.17,6.68,6.68,0,0,1-2.11.53,4.68,4.68,0,0,1-2-.25,3.19,3.19,0,0,1-1.3-.8,2.68,2.68,0,0,1-.65-1.1,3.46,3.46,0,0,1-.1-1.32A6,6,0,0,1,380.66,450.42Zm1.42.71a4,4,0,0,0-.21.82,1.61,1.61,0,0,0,.06.69,1.35,1.35,0,0,0,.4.57,2.34,2.34,0,0,0,.77.43,3,3,0,0,0,1.42.11,4.9,4.9,0,0,0,1.49-.48,5.67,5.67,0,0,0,1.27-.91,3.12,3.12,0,0,0,.78-1.18,3.45,3.45,0,0,0,.17-.63,2.51,2.51,0,0,0,0-.67,1.27,1.27,0,0,0-.18-.6.9.9,0,0,0-.5-.4,1.75,1.75,0,0,0-.82-.06,6.77,6.77,0,0,0-1.09.21,8.28,8.28,0,0,0-1.18.42c-.39.17-.77.36-1.11.54a6.44,6.44,0,0,0-.88.59,1.42,1.42,0,0,0-.39.55Z"/>
  <path class="cls-4" d="M399.35,451a1,1,0,0,1,.13-.32,1.67,1.67,0,0,1,.18-.28.56.56,0,0,1,.26-.17.77.77,0,0,1,.37,0h.06l.08,0a4.45,4.45,0,0,1,.16,1.36,11.81,11.81,0,0,1-.08,1.68,17.68,17.68,0,0,0-.09,1.78,6.09,6.09,0,0,0,.15,1.7,3.46,3.46,0,0,0,.65,1.4,2.65,2.65,0,0,0,1.4.89.56.56,0,0,0,.68-.25,4.3,4.3,0,0,0,.54-1.07c.17-.45.34-.95.51-1.51a14.56,14.56,0,0,1,.57-1.56,4.34,4.34,0,0,1,.73-1.2,1.29,1.29,0,0,1,1-.48,5.47,5.47,0,0,1-.14,1.56q-.21,1-.6,2.31c-.26.86-.57,1.78-.92,2.76s-.74,2-1.14,2.91-.81,1.86-1.23,2.72-.81,1.61-1.17,2.24a8.5,8.5,0,0,1-1,1.45c-.3.33-.52.43-.67.31a2.39,2.39,0,0,1-.24-1.11,6.07,6.07,0,0,1,.17-1.34,10.75,10.75,0,0,1,.46-1.46c.2-.5.4-1,.62-1.5s.43-1,.65-1.47.4-.91.55-1.32a3,3,0,0,1-1.21-.65,5,5,0,0,1-1-1.23,7.87,7.87,0,0,1-.74-1.68,9.69,9.69,0,0,1-.39-2,10.48,10.48,0,0,1,.06-2.24A11.19,11.19,0,0,1,399.35,451Z"/>
  <path class="cls-4" d="M260.9,426.81a1.34,1.34,0,0,1,.39-.63.79.79,0,0,1,.73,0l.19.08.18.08c-.05.39-.1.81-.17,1.27s-.12.92-.16,1.39-.07.94-.07,1.41a5.93,5.93,0,0,0,.12,1.33,2.09,2.09,0,0,0,.73-.62,6.38,6.38,0,0,0,.55-.84l.45-.84a2.29,2.29,0,0,1,.52-.64,1.14,1.14,0,0,1,.73-.24,1.92,1.92,0,0,1,1,.38,2.45,2.45,0,0,1,1.07.69,3.38,3.38,0,0,1,.51,1c.11.35.22.72.31,1.1a4,4,0,0,0,.47,1.11l.47-.47a5,5,0,0,1,.65-.57c.25-.2.51-.38.78-.57a6.68,6.68,0,0,1,.82-.47,3.75,3.75,0,0,1,.79-.29,1.13,1.13,0,0,1,.68,0,2,2,0,0,1,1.08.89,4.39,4.39,0,0,1,.49,1.44,7.69,7.69,0,0,1,.07,1.73,14.3,14.3,0,0,1-.19,1.73c-.1.55-.2,1-.31,1.48a6.33,6.33,0,0,1-.28.94.56.56,0,0,1-.23.31.63.63,0,0,1-.33.09,1.49,1.49,0,0,1-.36-.05,2,2,0,0,1-.35-.11h-.1l-.15-.09a.66.66,0,0,1-.17-.12l.76-5.62a.54.54,0,0,0-.06-.25,1.35,1.35,0,0,0-.15-.26h-.13a1.1,1.1,0,0,0-.8,0,4.31,4.31,0,0,0-.87.53,7,7,0,0,0-.89.83c-.3.31-.58.62-.84.94l-.71.89c-.21.27-.37.48-.49.62a.76.76,0,0,1-.3,0l-.29-.07a1,1,0,0,1-.63-.62,2.81,2.81,0,0,1-.12-1,9.73,9.73,0,0,1,.13-1.21,8.13,8.13,0,0,0,.12-1.21,2.61,2.61,0,0,0-.14-1,1.13,1.13,0,0,0-.69-.63.57.57,0,0,0-.51.25,5.38,5.38,0,0,0-.66.85c-.24.36-.48.74-.72,1.16l-.66,1.18c-.19.38-.41.82-.65,1.34l-.18.06-.27.05h-.44a1.47,1.47,0,0,1-.78-.79,5.23,5.23,0,0,1-.41-1.45,12.14,12.14,0,0,1-.11-1.81q0-.93.09-1.86c.06-.6.14-1.13.22-1.6A6.5,6.5,0,0,1,260.9,426.81Z"/>
  <path class="cls-4" d="M282.24,440.32c-.55.14-1,.27-1.44.4a9.1,9.1,0,0,1-1.15.26,4.05,4.05,0,0,1-1.1,0,5.38,5.38,0,0,1-1.31-.34,3.31,3.31,0,0,1-2.09-1.73,3.93,3.93,0,0,1,.15-2.86,5.89,5.89,0,0,1,.68-1.32,8.4,8.4,0,0,1,1-1.23,8.78,8.78,0,0,1,1.3-1.05,6.72,6.72,0,0,1,1.47-.73,5.49,5.49,0,0,1,1.55-.32,3.75,3.75,0,0,1,1.52.23A4.52,4.52,0,0,1,284.6,433a3.32,3.32,0,0,1,.61,1.66,6.13,6.13,0,0,1-.12,1.91c-.14.67-.3,1.35-.49,2s-.38,1.39-.54,2.1a6.73,6.73,0,0,0-.17,2.05,2.67,2.67,0,0,1-.73.65.32.32,0,0,1-.45-.06h0a2.36,2.36,0,0,1-.29-1A19.8,19.8,0,0,1,282.24,440.32Zm-5.47-3.69a2.51,2.51,0,0,0-.16,1.6,1.76,1.76,0,0,0,1.17.94,3.84,3.84,0,0,0,1.46.25,4,4,0,0,0,1.4-.28,3.46,3.46,0,0,0,1.17-.79,3.57,3.57,0,0,0,.81-1.29q.11-.31.33-.87a5.83,5.83,0,0,0,.34-1.15,2.86,2.86,0,0,0,0-1.09.85.85,0,0,0-.58-.68,3.4,3.4,0,0,0-1.84-.14,5,5,0,0,0-1.75.69,5.83,5.83,0,0,0-1.45,1.26A5.12,5.12,0,0,0,276.77,436.63Z"/>
  <path class="cls-4" d="M286.89,437.91a.85.85,0,0,1,.46-.57,1.13,1.13,0,0,1,.81.06l.17.07a5.07,5.07,0,0,1-.11.68,5.69,5.69,0,0,0-.06.83,4.57,4.57,0,0,0,.07.83,1.69,1.69,0,0,0,.28.68,3.12,3.12,0,0,1,.74-1.06,4.26,4.26,0,0,1,1.08-.75,4.87,4.87,0,0,1,1.22-.41,3.76,3.76,0,0,1,1.16,0l.39.14a2.67,2.67,0,0,1,1.29.9,3.15,3.15,0,0,1,.63,1.33,5,5,0,0,1,.1,1.59,11.92,11.92,0,0,1-.24,1.68c-.12.55-.26,1.08-.42,1.58s-.31.93-.43,1.27l-1.28-.46c.19-.72.34-1.42.47-2.1.06-.27.11-.55.16-.86s.08-.6.1-.87,0-.52,0-.78a2.81,2.81,0,0,0-.07-.65l-.12-.26a1,1,0,0,0-.14-.33l-.15-.29a.13.13,0,0,0-.1-.13,1,1,0,0,0-1-.13,3.35,3.35,0,0,0-1,.66,6.12,6.12,0,0,0-.95,1.14c-.3.44-.58.87-.82,1.29s-.44.79-.6,1.1-.25.52-.29.58a1,1,0,0,1-.88-.11,1.8,1.8,0,0,1-.53-.82,5,5,0,0,1-.23-1.27V441c0-.51.06-1,.11-1.57S286.83,438.35,286.89,437.91Z"/>
  <path class="cls-4" d="M297.66,438.53v-.16l.29-.15c.13-.06.2-.09.23-.08l3.5,1.28c.07-.21.12-.42.17-.63l.24-1a10.34,10.34,0,0,1,.36-1.07,4.28,4.28,0,0,1,.51-.94,2,2,0,0,1,.68-.58,1.22,1.22,0,0,1,.92,0,14,14,0,0,0-.79,2.92,4.9,4.9,0,0,0,.06,1.87,2.06,2.06,0,0,0,.66,1.09,3.24,3.24,0,0,0,1,.54,5.53,5.53,0,0,0,1.13.23,8.3,8.3,0,0,1,1,.14,1.16,1.16,0,0,1,.62.32c.13.15.14.38,0,.71a.72.72,0,0,1-.36.46,1.46,1.46,0,0,1-.72,0l-.49-.1-.75-.19L305,443l-.88-.23c-.28-.08-.53-.15-.75-.23l-.49-.17a1.08,1.08,0,0,1-.13.29l-.12.28a5.33,5.33,0,0,0-.3,1.58v3.25a4.9,4.9,0,0,1-.29,1.57,1,1,0,0,1-.33.5.63.63,0,0,1-.29.1.67.67,0,0,1-.4-.18,1.71,1.71,0,0,1-.72-1.11,5.67,5.67,0,0,1,0-1.54,15.47,15.47,0,0,1,.41-1.76c.18-.61.32-1.18.44-1.73a5.44,5.44,0,0,0,.12-1.45,1.19,1.19,0,0,0-.54-1l-3.08-2c-.05,0-.1-.09-.16-.22a.92.92,0,0,1-.09-.28.17.17,0,0,1,0-.1A.28.28,0,0,1,297.66,438.53Z"/>
  <path class="cls-4" d="M307.82,446.69a8.69,8.69,0,0,1,.91-1.8,5.69,5.69,0,0,1,1.34-1.43,4.11,4.11,0,0,1,1.74-.75,4,4,0,0,1,2.09.23,2.67,2.67,0,0,1,1.65,1.57,3.05,3.05,0,0,1,.17,1.08,3.92,3.92,0,0,1-.23,1.13,4.1,4.1,0,0,1-1,1.58,5.68,5.68,0,0,1-1.63,1.07,4.75,4.75,0,0,1-1.93.38,3.63,3.63,0,0,1-1.87-.51,1.23,1.23,0,0,0,.05.94,2.07,2.07,0,0,0,.61.74,3.72,3.72,0,0,0,.87.54c.28.13.56.25.85.36a3.46,3.46,0,0,0,.78.21q.38.06.75.09l.76.11a4.36,4.36,0,0,1,.79.2l.31.13a1,1,0,0,1,.26.19.57.57,0,0,1,.13.63.74.74,0,0,1-.44.46,2.44,2.44,0,0,1-.76.15,4,4,0,0,1-.91-.07c-.32-.06-.63-.12-.93-.2s-.56-.15-.8-.23l-.54-.18a5.67,5.67,0,0,1-1.87-1.09,4.36,4.36,0,0,1-1.51-3.42A6.08,6.08,0,0,1,307.82,446.69Zm2.26-.46a1.93,1.93,0,0,0-.16.95c.05.23.28.42.71.57a2.57,2.57,0,0,0,.95.16,2.84,2.84,0,0,0,1-.17,2.45,2.45,0,0,0,.82-.49,2,2,0,0,0,.53-.8,4.94,4.94,0,0,0,.15-.55,1.47,1.47,0,0,0,0-.59,1.36,1.36,0,0,0-.22-.51,1,1,0,0,0-.51-.35,2,2,0,0,0-1-.11,2.27,2.27,0,0,0-.94.34,2.86,2.86,0,0,0-.76.67,3.17,3.17,0,0,0-.57.88Z"/>
  <path class="cls-4" d="M317.92,449.2a.9.9,0,0,1,.47-.57,1.11,1.11,0,0,1,.8.07l.18.06a5.5,5.5,0,0,1-.11.69,4.57,4.57,0,0,0-.07.83,4.47,4.47,0,0,0,.08.82,1.74,1.74,0,0,0,.28.69,2.92,2.92,0,0,1,.73-1.07,4.65,4.65,0,0,1,2.3-1.15,3.29,3.29,0,0,1,1.17,0l.38.14a2.87,2.87,0,0,1,1.3.89,3.52,3.52,0,0,1,.63,1.34,4.94,4.94,0,0,1,.1,1.58,13.61,13.61,0,0,1-.25,1.68,14.26,14.26,0,0,1-.41,1.59c-.17.5-.31.92-.44,1.27l-1.27-.46c.18-.73.34-1.43.47-2.1.06-.27.11-.56.15-.86s.08-.6.1-.88,0-.53,0-.78a2.82,2.82,0,0,0-.08-.65,2,2,0,0,1-.11-.26q-.07-.15-.15-.33c-.05-.11-.1-.2-.15-.29l-.09-.13a1,1,0,0,0-1-.13,3.38,3.38,0,0,0-1,.67,7.16,7.16,0,0,0-1,1.13c-.3.45-.57.88-.81,1.3a11.72,11.72,0,0,0-.6,1.1c-.16.32-.26.51-.29.58a1,1,0,0,1-.89-.12,1.67,1.67,0,0,1-.52-.81,4.59,4.59,0,0,1-.23-1.27v-1.51a8.23,8.23,0,0,1,.1-1.57C317.79,450.17,317.87,449.64,317.92,449.2Z"/>
  <path class="cls-4" d="M329,452.48l.14-.34.19-.49.21-.5c.06-.16.11-.27.13-.34a1.59,1.59,0,0,1,.66-.27,4.37,4.37,0,0,1,.72-.06,13.73,13.73,0,0,0-.43,2.12c-.1.76-.18,1.54-.25,2.32s-.17,1.55-.28,2.3a10.62,10.62,0,0,1-.49,2,.75.75,0,0,1-.89.57.68.68,0,0,1-.2-.07,1.09,1.09,0,0,1-.67-.7,3.16,3.16,0,0,1-.16-1.22,7.49,7.49,0,0,1,.18-1.49c.1-.52.22-1,.37-1.55a13.79,13.79,0,0,1,.44-1.36C328.81,453,328.91,452.7,329,452.48Zm2.63-6.45a1.53,1.53,0,0,1,.39.66.88.88,0,0,1,0,.64c-.08.16-.25.23-.52.2a2.54,2.54,0,0,1-1.14-.64,1.7,1.7,0,0,1,.48-.75.73.73,0,0,1,.78-.14Z"/>
  <path class="cls-4" d="M332.28,452.79a1.43,1.43,0,0,1,.39-.63.79.79,0,0,1,.73,0l.2.08.18.08a9,9,0,0,1-.18,1.27c-.07.46-.12.92-.16,1.39s-.07.94-.07,1.41a5.93,5.93,0,0,0,.12,1.33,2.21,2.21,0,0,0,.74-.62,7.48,7.48,0,0,0,.54-.84l.45-.84a2.29,2.29,0,0,1,.52-.64,1.14,1.14,0,0,1,.73-.24,2.15,2.15,0,0,1,1,.38,2.38,2.38,0,0,1,1.07.7,3.49,3.49,0,0,1,.51.95c.11.35.22.72.31,1.1a4,4,0,0,0,.47,1.11l.47-.47c.21-.2.42-.39.65-.57l.78-.57a6.68,6.68,0,0,1,.82-.47,3.24,3.24,0,0,1,.79-.28,1.13,1.13,0,0,1,.68,0,2,2,0,0,1,1.08.89,4.63,4.63,0,0,1,.49,1.44,8.33,8.33,0,0,1,.08,1.73,11.18,11.18,0,0,1-.2,1.73c-.09.54-.2,1-.31,1.48a7.75,7.75,0,0,1-.27.94.57.57,0,0,1-.24.31.62.62,0,0,1-.32.09.91.91,0,0,1-.33,0l-.35-.1h-.1l-.15-.08-.17-.13L344,459a.54.54,0,0,0-.06-.25,1.35,1.35,0,0,0-.15-.26l-.08-.05h0a1,1,0,0,0-.79.05,3.28,3.28,0,0,0-.88.53,8.65,8.65,0,0,0-.89.82c-.3.31-.58.63-.84.94l-.71.89c-.21.27-.37.48-.49.62a.76.76,0,0,1-.3,0l-.29-.07a1,1,0,0,1-.62-.62,2.6,2.6,0,0,1-.12-1,8.13,8.13,0,0,1,.12-1.21,8.13,8.13,0,0,0,.12-1.2,2.61,2.61,0,0,0-.14-1,1.13,1.13,0,0,0-.69-.63.56.56,0,0,0-.5.25,5.45,5.45,0,0,0-.67.85c-.24.36-.47.75-.72,1.16s-.46.82-.66,1.19-.41.81-.65,1.33a.64.64,0,0,1-.18.06l-.26.05h-.45a1.47,1.47,0,0,1-.78-.79,5.23,5.23,0,0,1-.41-1.45,12.14,12.14,0,0,1-.11-1.81,11.6,11.6,0,0,1,.1-1.86c.1-.6.13-1.13.21-1.6A6.38,6.38,0,0,1,332.28,452.79Z"/>
  <path class="cls-4" d="M348.42,459.55a2,2,0,0,1,.13-.34l.2-.49c.07-.17.13-.34.2-.5a3.42,3.42,0,0,0,.13-.34,1.64,1.64,0,0,1,.67-.27,4.37,4.37,0,0,1,.72-.06,12.67,12.67,0,0,0-.44,2.12c-.09.76-.18,1.54-.25,2.32s-.17,1.55-.28,2.3a9.9,9.9,0,0,1-.49,2,.75.75,0,0,1-.89.57.68.68,0,0,1-.2-.07,1.11,1.11,0,0,1-.67-.7,3.36,3.36,0,0,1-.16-1.22,9.33,9.33,0,0,1,.18-1.49c.1-.52.23-1,.38-1.55a14.08,14.08,0,0,1,.43-1.36C348.22,460.11,348.34,459.77,348.42,459.55ZM351,453.1a1.36,1.36,0,0,1,.39.66.88.88,0,0,1,0,.64c-.08.16-.25.23-.52.2a2.57,2.57,0,0,1-1.15-.64,1.7,1.7,0,0,1,.48-.75A.73.73,0,0,1,351,453.1Z"/>
  <path class="cls-4" d="M351.18,462.47a9.26,9.26,0,0,1,.92-1.8,5.29,5.29,0,0,1,1.33-1.42,4.31,4.31,0,0,1,1.74-.76,4.07,4.07,0,0,1,2.1.23,2.66,2.66,0,0,1,1,.65,2.82,2.82,0,0,1,.6.92,2.64,2.64,0,0,1,.17,1.08,3.92,3.92,0,0,1-.23,1.13,4.1,4.1,0,0,1-1,1.58,5.4,5.4,0,0,1-1.64,1.07,4.93,4.93,0,0,1-1.93.39,3.58,3.58,0,0,1-1.86-.52,1.18,1.18,0,0,0,0,.94,2.31,2.31,0,0,0,.61.74,3.76,3.76,0,0,0,.87.55l.85.36a5.25,5.25,0,0,0,.78.2l.75.1a4.91,4.91,0,0,1,.77.1,5.25,5.25,0,0,1,.78.2l.31.14a1.27,1.27,0,0,1,.27.18.59.59,0,0,1,.15.28.53.53,0,0,1,0,.35.74.74,0,0,1-.44.46,2.19,2.19,0,0,1-.76.15,4,4,0,0,1-.91-.07c-.32-.05-.63-.12-.92-.19l-.81-.24-.53-.18a5.72,5.72,0,0,1-1.88-1.09,4.69,4.69,0,0,1-1.14-1.54,4.62,4.62,0,0,1-.37-1.87A6.4,6.4,0,0,1,351.18,462.47Zm2.26-.46a1.94,1.94,0,0,0-.15.95c0,.23.28.42.71.58a2.51,2.51,0,0,0,.94.15,2.84,2.84,0,0,0,1-.17,2.45,2.45,0,0,0,.82-.49,2,2,0,0,0,.52-.8,3.47,3.47,0,0,0,.16-.55,1.43,1.43,0,0,0-.22-1.1,1,1,0,0,0-.51-.35,2,2,0,0,0-1-.11,2.5,2.5,0,0,0-.94.35,2.86,2.86,0,0,0-.76.67,2.93,2.93,0,0,0-.57.86Z"/>
  <path class="cls-4" d="M361.29,465a.89.89,0,0,1,.46-.58,1.25,1.25,0,0,1,.81.07l.17.06a5.5,5.5,0,0,1-.11.69,5.69,5.69,0,0,0-.07.83,4.58,4.58,0,0,0,.08.83,1.69,1.69,0,0,0,.28.68,2.72,2.72,0,0,1,.74-1.06,4.79,4.79,0,0,1,1.08-.76,4.65,4.65,0,0,1,1.21-.4,3.82,3.82,0,0,1,1.17,0l.39.14a2.89,2.89,0,0,1,1.29.89,3.52,3.52,0,0,1,.63,1.34,5,5,0,0,1,.1,1.59,16.17,16.17,0,0,1-.24,1.68c-.12.55-.26,1.08-.42,1.58s-.31.92-.44,1.27l-1.27-.46c.19-.72.34-1.42.47-2.1.06-.27.11-.56.16-.86s.07-.6.1-.87a6.77,6.77,0,0,0,0-.78,2.82,2.82,0,0,0-.08-.65l-.11-.26a.82.82,0,0,0-.15-.33,1.59,1.59,0,0,0-.15-.29l-.09-.14a1,1,0,0,0-1-.12,3.35,3.35,0,0,0-1,.66,6.39,6.39,0,0,0-1,1.14q-.45.66-.81,1.29c-.25.42-.45.78-.6,1.1l-.29.58a1,1,0,0,1-.89-.12,1.89,1.89,0,0,1-.52-.81,5,5,0,0,1-.23-1.27v-1.51c0-.51.06-1.05.11-1.57S361.23,465.43,361.29,465Z"/>
  <path class="cls-4" d="M372.45,465.3c.12-.06.2-.09.22-.08l3.51,1.28a4.91,4.91,0,0,1,.17-.63c.07-.29.14-.61.24-1a10.34,10.34,0,0,1,.36-1.07,4.28,4.28,0,0,1,.51-.94,2,2,0,0,1,.68-.58,1.13,1.13,0,0,1,.92,0,14.74,14.74,0,0,0-.79,2.91,5,5,0,0,0,.06,1.88,2,2,0,0,0,.66,1.09,3.24,3.24,0,0,0,1,.54,4.91,4.91,0,0,0,1.13.22,8.31,8.31,0,0,1,1,.15,1.16,1.16,0,0,1,.63.32c.13.14.14.38,0,.71a.72.72,0,0,1-.36.46,1.46,1.46,0,0,1-.72,0l-.49-.11a3.16,3.16,0,0,1-.75-.18l-.88-.23-.89-.24c-.27-.07-.52-.14-.74-.22l-.5-.17-.12.29-.12.27a4.76,4.76,0,0,0-.3,1.58v3.26a4.9,4.9,0,0,1-.29,1.57.72.72,0,0,1-.13.28.83.83,0,0,1-.2.22.5.5,0,0,1-.29.09.69.69,0,0,1-.41-.17,1.7,1.7,0,0,1-.71-1.11,5,5,0,0,1,0-1.54,13.55,13.55,0,0,1,.4-1.76c.19-.61.33-1.18.45-1.73a5.44,5.44,0,0,0,.12-1.45,1.19,1.19,0,0,0-.54-1l-3.09-2A.76.76,0,0,1,372,466a1.33,1.33,0,0,1-.1-.28.14.14,0,0,1,0-.09S372.45,465.3,372.45,465.3Z"/>
  <path class="cls-4" d="M381.74,475.08a4.49,4.49,0,0,1,1.24-1.83,5.54,5.54,0,0,1,1.92-1.12,6.78,6.78,0,0,1,4.49,0,1.68,1.68,0,0,1,.91.77,3.58,3.58,0,0,1,.44,1.22,5,5,0,0,1,.06,1.33,4.11,4.11,0,0,1-1.38,2.85,6.54,6.54,0,0,1-1.81,1.17,6.68,6.68,0,0,1-2.11.53,4.68,4.68,0,0,1-2-.25,3.29,3.29,0,0,1-1.31-.8,2.63,2.63,0,0,1-.64-1.11,3.47,3.47,0,0,1-.11-1.32A7.09,7.09,0,0,1,381.74,475.08Zm1.42.71a3.8,3.8,0,0,0-.21.82,1.47,1.47,0,0,0,.07.69,1.33,1.33,0,0,0,.39.57,2.54,2.54,0,0,0,.77.43,3,3,0,0,0,1.42.11,4.92,4.92,0,0,0,1.49-.49,4.76,4.76,0,0,0,1.27-.91,3.19,3.19,0,0,0,.79-1.17c.06-.19.12-.4.17-.63a2.58,2.58,0,0,0,0-.68,1.34,1.34,0,0,0-.17-.59,1,1,0,0,0-.51-.4,1.88,1.88,0,0,0-.82-.07,8,8,0,0,0-1.08.22,8.28,8.28,0,0,0-1.18.42c-.4.17-.77.35-1.12.54a5.78,5.78,0,0,0-.87.59,1.47,1.47,0,0,0-.41.55Z"/>
  <path class="cls-4" d="M580.07,357.58a9.36,9.36,0,0,1,.28-2.17,13.88,13.88,0,0,1,.78-2.36,16.86,16.86,0,0,1,1.2-2.31,10.16,10.16,0,0,1,1.58-2,7.58,7.58,0,0,1,1.9-1.38,4.81,4.81,0,0,1,2.17-.51,5.81,5.81,0,0,1,1.76.25,3.89,3.89,0,0,1,1.41.74,3.66,3.66,0,0,1,.92,1.25,4.3,4.3,0,0,1,.34,1.77,1.52,1.52,0,0,1-1-.34,5.18,5.18,0,0,1-.74-.74,5.11,5.11,0,0,0-.73-.74,1.57,1.57,0,0,0-1-.32,3.44,3.44,0,0,0-1.74.47,6.13,6.13,0,0,0-1.56,1.26,9.64,9.64,0,0,0-1.26,1.79,19.05,19.05,0,0,0-.93,2,14,14,0,0,0-.62,2,7.29,7.29,0,0,0-.22,1.67,8.7,8.7,0,0,0,.46,2.86,6.86,6.86,0,0,0,1.3,2.31,5.85,5.85,0,0,0,2.11,1.54,7.06,7.06,0,0,0,2.87.56,5.89,5.89,0,0,0,2-.31c.61-.21,1.21-.43,1.79-.67s1.14-.48,1.71-.69a4.71,4.71,0,0,1,1.7-.32h.34a1.85,1.85,0,0,1,.41.07,1.09,1.09,0,0,1,.33.19.49.49,0,0,1,.15.4,2.32,2.32,0,0,1-.81,1.79,6.67,6.67,0,0,1-1.92,1.18,10.33,10.33,0,0,1-2.31.66,11.22,11.22,0,0,1-2,.21,11.79,11.79,0,0,1-4.16-.72,10.11,10.11,0,0,1-3.37-2,9.29,9.29,0,0,1-2.26-3.18A10.16,10.16,0,0,1,580.07,357.58Z"/>
  <path class="cls-4" d="M605.24,341.91a.81.81,0,0,1,.51-.62,3.46,3.46,0,0,1,.78-.09,2.3,2.3,0,0,1,1.51.9,14.35,14.35,0,0,1,1.71,2.38,37,37,0,0,1,1.77,3.43c.6,1.29,1.17,2.62,1.73,4s1.08,2.75,1.57,4.12.91,2.62,1.27,3.76.64,2.14.84,3a9.09,9.09,0,0,1,.29,1.72,1.9,1.9,0,0,1-.22.9.81.81,0,0,1-.78.42.83.83,0,0,1-.6-.22,2,2,0,0,1-.42-.54,5.46,5.46,0,0,1-.32-.64c-.1-.22-.19-.4-.27-.56s-.24-.63-.48-1.23-.5-1.24-.76-1.91-.52-1.28-.75-1.87-.4-1-.5-1.26l-4.11-.66-4.35-.6h-.33c-.7,3-1.32,5.43-1.86,7.18a27.9,27.9,0,0,1-1.34,3.75c-.37.74-.65,1.05-.85.92s-.35-.58-.41-1.35a22.76,22.76,0,0,1,0-3.09c.09-1.29.26-2.71.5-4.26s.54-3.18.9-4.88a49.32,49.32,0,0,1,1.27-4.92,41.16,41.16,0,0,1,1.67-4.41A14.81,14.81,0,0,1,605.24,341.91Zm-.71,10.31a1.86,1.86,0,0,0,.71,1.6,3.62,3.62,0,0,0,1.7.65,12.16,12.16,0,0,0,2.09.12h1.89a9.39,9.39,0,0,0-.38-2.53,20,20,0,0,0-1-2.71c-.39-.9-.8-1.77-1.24-2.62s-.85-1.62-1.22-2.3a4.11,4.11,0,0,0-.69,1.18c-.24.58-.48,1.22-.73,1.94s-.46,1.41-.66,2.09-.34,1.24-.44,1.67v.91Z"/>
  <path class="cls-4" d="M623.43,366.37a1.9,1.9,0,0,1,.75-1.16,8.33,8.33,0,0,1,1.37-.83c.52-.26,1.06-.5,1.63-.72a14.85,14.85,0,0,0,1.57-.72,4.47,4.47,0,0,0,1.18-.89,1.8,1.8,0,0,0,.47-1.25,2.46,2.46,0,0,0-.48-1.55,4,4,0,0,0-1.29-1.05,9.35,9.35,0,0,0-1.83-.74l-2.09-.6c-.72-.2-1.42-.43-2.1-.67a8.26,8.26,0,0,1-1.83-.92,4.38,4.38,0,0,1-1.29-1.35,3.77,3.77,0,0,1-.48-2,4.46,4.46,0,0,1,.39-1.83,7.67,7.67,0,0,1,1.06-1.64A9.19,9.19,0,0,1,622,347a9.76,9.76,0,0,1,1.82-1,11,11,0,0,1,1.92-.69,7.15,7.15,0,0,1,1.78-.25h.33c.17.06.41.16.7.29l.85.4c.27.13.51.24.7.35s.29.17.29.19V347a11.46,11.46,0,0,0-1.43.21c-.58.1-1.2.25-1.85.43s-1.35.41-2,.66a9.17,9.17,0,0,0-1.79.92,5.16,5.16,0,0,0-1.29,1.22,2.56,2.56,0,0,0-.49,1.56,2.43,2.43,0,0,0,.87,2,7.33,7.33,0,0,0,2.2,1.19,26.46,26.46,0,0,0,2.89.83,22.25,22.25,0,0,1,2.88.88,6.57,6.57,0,0,1,2.2,1.35,2.94,2.94,0,0,1,.88,2.24A3.5,3.5,0,0,1,633,362a8.79,8.79,0,0,1-1.21,1.64,14.4,14.4,0,0,1-1.68,1.54,15.18,15.18,0,0,1-1.92,1.27,12.33,12.33,0,0,1-1.92.88,5,5,0,0,1-1.67.34,2.07,2.07,0,0,1-.5-.06,1.27,1.27,0,0,1-.45-.19.77.77,0,0,1-.29-.4A.91.91,0,0,1,623.43,366.37Z"/>
  <path class="cls-4" d="M634.68,357.58a9.36,9.36,0,0,1,.28-2.17,13.88,13.88,0,0,1,.78-2.36,16.86,16.86,0,0,1,1.2-2.31,10.16,10.16,0,0,1,1.58-2,7.17,7.17,0,0,1,1.9-1.38,4.81,4.81,0,0,1,2.17-.51,5.81,5.81,0,0,1,1.76.25,3.89,3.89,0,0,1,1.41.74,3.66,3.66,0,0,1,.92,1.25,4.45,4.45,0,0,1,.33,1.77,1.52,1.52,0,0,1-1-.34,6.38,6.38,0,0,1-.73-.74,5.11,5.11,0,0,0-.73-.74,1.57,1.57,0,0,0-1-.32,3.44,3.44,0,0,0-1.74.47,6.13,6.13,0,0,0-1.56,1.26,9,9,0,0,0-1.26,1.79,19.05,19.05,0,0,0-.93,2,14,14,0,0,0-.62,2,7.29,7.29,0,0,0-.22,1.67,8.7,8.7,0,0,0,.46,2.86,6.86,6.86,0,0,0,1.3,2.31,5.85,5.85,0,0,0,2.11,1.54,6.9,6.9,0,0,0,2.87.56,5.89,5.89,0,0,0,2-.31c.61-.21,1.21-.43,1.78-.67s1.15-.48,1.72-.69a4.71,4.71,0,0,1,1.7-.32h.33a1.85,1.85,0,0,1,.41.07,1,1,0,0,1,.34.19.49.49,0,0,1,.15.4,2.32,2.32,0,0,1-.81,1.79,6.67,6.67,0,0,1-1.92,1.18,10.33,10.33,0,0,1-2.31.66,11.22,11.22,0,0,1-2,.21,11.79,11.79,0,0,1-4.16-.72,10.11,10.11,0,0,1-3.37-2,9.29,9.29,0,0,1-2.26-3.18A10.16,10.16,0,0,1,634.68,357.58Z"/>
  <path class="cls-4" d="M659.85,341.91c.11-.36.28-.56.51-.62a3.46,3.46,0,0,1,.78-.09,2.27,2.27,0,0,1,1.5.9,13.85,13.85,0,0,1,1.72,2.38c.58,1,1.18,2.14,1.77,3.43s1.17,2.62,1.73,4,1.08,2.75,1.57,4.12.91,2.62,1.27,3.76.64,2.14.84,3a9.09,9.09,0,0,1,.29,1.72,1.9,1.9,0,0,1-.22.9.81.81,0,0,1-.78.42.83.83,0,0,1-.6-.22,1.71,1.71,0,0,1-.42-.54,5.46,5.46,0,0,1-.32-.64c-.1-.22-.19-.4-.27-.56s-.24-.63-.48-1.23-.5-1.24-.76-1.91-.52-1.28-.75-1.87-.4-1-.5-1.26l-4.11-.66c-1.38-.2-2.83-.4-4.36-.6h-.32c-.7,3-1.32,5.43-1.86,7.18a28,28,0,0,1-1.35,3.75c-.36.74-.64,1.05-.85.92s-.34-.58-.41-1.35a22.76,22.76,0,0,1,0-3.09c.09-1.29.26-2.71.5-4.26s.54-3.18.9-4.88a49.32,49.32,0,0,1,1.27-4.92,41.16,41.16,0,0,1,1.67-4.41A14.85,14.85,0,0,1,659.85,341.91Zm-.71,10.31a1.86,1.86,0,0,0,.71,1.6,3.62,3.62,0,0,0,1.7.65,12.16,12.16,0,0,0,2.09.12h1.89a9.39,9.39,0,0,0-.38-2.53,20,20,0,0,0-1-2.71c-.39-.9-.8-1.77-1.24-2.62s-.85-1.62-1.22-2.3a4.11,4.11,0,0,0-.69,1.18c-.24.58-.49,1.22-.73,1.94s-.46,1.41-.66,2.09-.34,1.24-.44,1.67v.91Z"/>
  <path class="cls-4" d="M673.67,347.77a2.93,2.93,0,0,1,.72-2,5.06,5.06,0,0,1,1.79-1.24,8.7,8.7,0,0,1,2.3-.62,18.43,18.43,0,0,1,2.23-.16,6.27,6.27,0,0,1,3.2.75,6.12,6.12,0,0,1,2.11,2,8.39,8.39,0,0,1,1.16,2.84,15.11,15.11,0,0,1,.35,3.28,17.71,17.71,0,0,1-.23,2.62,23.72,23.72,0,0,1-.71,3.11,25.38,25.38,0,0,1-1.15,3.16,14.46,14.46,0,0,1-1.6,2.81,7.92,7.92,0,0,1-2,2,4.29,4.29,0,0,1-2.47.76q-.27,0-.63-.72a18.92,18.92,0,0,1-.82-1.91c-.3-.8-.62-1.73-.94-2.77s-.64-2.13-1-3.25-.61-2.26-.88-3.39l-.75-3.13q-.33-1.44-.51-2.52A11.13,11.13,0,0,1,673.67,347.77Zm2.44,1.67a19,19,0,0,0,.13,2.13,23.08,23.08,0,0,0,.41,2.49,25.54,25.54,0,0,0,.7,2.6,17.85,17.85,0,0,0,1,2.44,12.17,12.17,0,0,0,1.26,2.07,5.75,5.75,0,0,0,1.58,1.45c.67-.94,1.24-1.78,1.73-2.52a13.29,13.29,0,0,0,1.2-2.23,9.77,9.77,0,0,0,.69-2.37,16.93,16.93,0,0,0,.22-2.93,20.41,20.41,0,0,0-.14-2.34,5.84,5.84,0,0,0-.63-2,3.86,3.86,0,0,0-1.37-1.44,4.31,4.31,0,0,0-2.31-.54,7,7,0,0,0-2.27.37,10.9,10.9,0,0,0-2.12.95v1.51A1.55,1.55,0,0,1,676.11,349.44Z"/>
  <path class="cls-4" d="M695,341.91c.12-.36.29-.56.52-.62a3.31,3.31,0,0,1,.77-.09,2.3,2.3,0,0,1,1.51.9,13.28,13.28,0,0,1,1.71,2.38c.59,1,1.18,2.14,1.78,3.43s1.17,2.62,1.73,4,1.07,2.75,1.56,4.12.92,2.62,1.28,3.76.64,2.14.83,3a8.38,8.38,0,0,1,.3,1.72,2,2,0,0,1-.22.9.81.81,0,0,1-.78.42.83.83,0,0,1-.6-.22,1.74,1.74,0,0,1-.43-.54l-.32-.64c-.1-.22-.18-.4-.26-.56s-.24-.63-.49-1.23l-.76-1.91-.74-1.87c-.24-.59-.4-1-.5-1.26-1.37-.23-2.74-.45-4.12-.66l-4.35-.6h-.32c-.7,3-1.32,5.43-1.86,7.18a28,28,0,0,1-1.35,3.75c-.36.74-.64,1.05-.85.92s-.34-.58-.41-1.35a19.92,19.92,0,0,1,0-3.09c.09-1.29.25-2.71.5-4.26s.54-3.18.89-4.88a49.38,49.38,0,0,1,1.28-4.92,36.65,36.65,0,0,1,1.67-4.41A14.81,14.81,0,0,1,695,341.91Zm-.7,10.31a1.86,1.86,0,0,0,.7,1.6,3.73,3.73,0,0,0,1.7.65,12.33,12.33,0,0,0,2.1.12h1.89a9.39,9.39,0,0,0-.38-2.53,22,22,0,0,0-1-2.71c-.39-.9-.81-1.77-1.25-2.62s-.84-1.62-1.21-2.3a3.7,3.7,0,0,0-.69,1.18c-.24.58-.49,1.22-.73,1.94s-.47,1.41-.66,2.09-.34,1.24-.44,1.67v.46C694.33,352,694.3,352.14,694.3,352.22Z"/>
  <circle class="cls-12" cx="258.54" cy="136.87" r="15"/>
  <text class="cls-13" transform="translate(253.6 142.84)">1</text>
  <circle class="cls-12" cx="258.54" cy="213.92" r="15"/>
  <text class="cls-13" transform="translate(253.6 219.89)">2</text>
  <circle class="cls-12" cx="947.99" cy="244.82" r="15"/>
  <text class="cls-13" transform="translate(937.99 250.79)">10</text>
  <circle class="cls-12" cx="1062.83" cy="401.38" r="15"/>
  <text class="cls-13" transform="translate(1052.83 407.36)">11</text>
  <circle class="cls-12" cx="1062.83" cy="463.69" r="15"/>
  <text class="cls-13" transform="translate(1052.83 469.67)">12</text>
  <circle class="cls-12" cx="942.73" cy="158.6" r="15"/>
  <text class="cls-13" transform="translate(937.79 164.57)">9</text>
  <circle class="cls-12" cx="226.45" cy="357.13" r="15"/>
  <text class="cls-13" transform="translate(221.5 363.11)">3</text>
  <circle class="cls-12" cx="192.14" cy="441.21" r="15"/>
  <text class="cls-13" transform="translate(187.19 447.18)">4</text>
  <circle class="cls-12" cx="238.33" cy="512.23" r="15"/>
  <text class="cls-13" transform="translate(233.38 518.2)">5</text>
  <circle class="cls-12" cx="506.82" cy="528.78" r="15"/>
  <text class="cls-13" transform="translate(501.87 534.75)">6</text>
  <circle class="cls-12" cx="506.82" cy="602.44" r="15"/>
  <text class="cls-13" transform="translate(501.87 608.41)">7</text>
  <circle class="cls-12" cx="506.82" cy="676.09" r="15"/>
  <text class="cls-13" transform="translate(501.87 682.06)">8</text>
</svg>
