<svg id="cf6_equipo_copia_4" data-name="cf6_equipo copia 4" xmlns="http://www.w3.org/2000/svg" xmlns:xlink="http://www.w3.org/1999/xlink" width="200" height="200" viewBox="0 0 200 200">
  <defs>
    <linearGradient id="linear-gradient" x1="-377.792" y1="0.5" x2="-376.792" y2="0.5" gradientUnits="objectBoundingBox">
      <stop offset="0.05" stop-color="#feb9b8"/>
      <stop offset="0.99" stop-color="#fea5a4"/>
    </linearGradient>
    <linearGradient id="linear-gradient-2" x1="-490.733" y1="0.5" x2="-489.731" y2="0.5" xlink:href="#linear-gradient"/>
    <linearGradient id="linear-gradient-3" x1="-353.379" y1="0.501" x2="-352.373" y2="0.501" xlink:href="#linear-gradient"/>
    <linearGradient id="linear-gradient-4" x1="-787.717" y1="0.5" x2="-786.723" y2="0.5" xlink:href="#linear-gradient"/>
    <linearGradient id="linear-gradient-5" x1="-254.634" y1="0.496" x2="-253.642" y2="0.496" xlink:href="#linear-gradient"/>
    <linearGradient id="linear-gradient-6" x1="-215.054" y1="0.501" x2="-214.058" y2="0.501" xlink:href="#linear-gradient"/>
    <linearGradient id="linear-gradient-7" x1="-365.467" y1="0.5" x2="-364.467" y2="0.5" xlink:href="#linear-gradient"/>
    <linearGradient id="linear-gradient-8" x1="-79.084" y1="0.5" x2="-78.084" y2="0.5" xlink:href="#linear-gradient"/>
    <linearGradient id="linear-gradient-9" x1="-243.609" y1="0.498" x2="-242.615" y2="0.498" xlink:href="#linear-gradient"/>
    <linearGradient id="linear-gradient-10" x1="-363.688" y1="0.498" x2="-362.692" y2="0.498" xlink:href="#linear-gradient"/>
    <linearGradient id="linear-gradient-11" x1="1059.943" y1="0.501" x2="1060.942" y2="0.501" xlink:href="#linear-gradient"/>
    <linearGradient id="linear-gradient-12" x1="1512.014" y1="0.828" x2="1512.474" y2="0.386" xlink:href="#linear-gradient"/>
    <linearGradient id="linear-gradient-13" x1="1271.436" y1="0.286" x2="1270.541" y2="0.872" xlink:href="#linear-gradient"/>
    <linearGradient id="linear-gradient-14" x1="1989.853" y1="0.499" x2="1990.855" y2="0.499" xlink:href="#linear-gradient"/>
    <linearGradient id="linear-gradient-15" x1="1194.175" y1="0.501" x2="1195.178" y2="0.501" gradientUnits="objectBoundingBox">
      <stop offset="0.12" stop-color="#fec7c7"/>
      <stop offset="0.97" stop-color="#ffadb7"/>
    </linearGradient>
    <linearGradient id="linear-gradient-16" x1="0.024" y1="0.524" x2="1.192" y2="0.33" gradientUnits="objectBoundingBox">
      <stop offset="0.12" stop-color="#feb9b8"/>
      <stop offset="1" stop-color="#ffdede"/>
    </linearGradient>
  </defs>
  <g id="Capa_1" data-name="Capa 1">
    <rect id="Rectángulo_35045" data-name="Rectángulo 35045" width="200" height="200" fill="none"/>
    <g id="Grupo_81579" data-name="Grupo 81579">
      <g id="Grupo_81574" data-name="Grupo 81574">
        <g id="Grupo_81549" data-name="Grupo 81549">
          <path id="Trazado_126319" data-name="Trazado 126319" d="M79.11,114.08,43.3,94.65.41,119.41l35.82,19.43Z" fill="#e3e4ed"/>
          <g id="Grupo_81541" data-name="Grupo 81541">
            <path id="Trazado_126320" data-name="Trazado 126320" d="M20.86,112.99l-1.44.83L44.43,45.5l2.16-1.25Z" fill="#323436"/>
            <path id="Trazado_126321" data-name="Trazado 126321" d="M19.42,113.82l-.85-1.1L43.1,44.28l1.33,1.22Z" fill="#383a42"/>
          </g>
          <path id="Trazado_126322" data-name="Trazado 126322" d="M47.96,44.7l-3.49.03,1.33,1.22Z" fill="#383a42"/>
          <g id="Grupo_81543" data-name="Grupo 81543">
            <path id="Trazado_126323" data-name="Trazado 126323" d="M42,44l6.5-3.76,1.72.47L63.65,86l-25.6,14.78Zm5-.42-2.34,4.64-4.1,48.67L60.69,85.27Z" fill="#383a42"/>
            <path id="Trazado_126324" data-name="Trazado 126324" d="M42,43.98l1.71.47,6.51-3.75-1.72-.47Z" fill="#474663"/>
            <path id="Trazado_126325" data-name="Trazado 126325" d="M43.71,44.45l6.51-3.75L65.36,86.51l-25.6,14.78Zm5-.41-3.09,1.78L42.27,97.36,62.41,85.74Z" fill="#696880"/>
            <g id="Grupo_81542" data-name="Grupo 81542">
              <path id="Trazado_126326" data-name="Trazado 126326" d="M34.89,134.71l1.64.98L29.25,59.57l-2.16,1.25Z" fill="#4b4c54"/>
              <path id="Trazado_126327" data-name="Trazado 126327" d="M71.18,113.75l1.65.99L65.55,38.61l-2.17,1.25Z" fill="#4b4c54"/>
              <path id="Trazado_126328" data-name="Trazado 126328" d="M36.53,135.69l1.52-.87L31.41,60.65,29.25,61.9Z" fill="#696880"/>
              <path id="Trazado_126329" data-name="Trazado 126329" d="M72.83,114.74l1.52-.88L67.71,39.69l-2.16,1.25Z" fill="#696880"/>
            </g>
          </g>
          <path id="Trazado_126330" data-name="Trazado 126330" d="M33.25,104.38l1.34.23-.22-2.36-1.34-.22Z" fill="#4b4c54"/>
          <path id="Trazado_126331" data-name="Trazado 126331" d="M34.59,104.61,74.22,81.73,74,79.38,34.37,102.25Z" fill="#7a7a89"/>
          <path id="Trazado_126332" data-name="Trazado 126332" d="M72.66,79.15l1.34.23L34.37,102.25l-1.34-.22Z" fill="#9b9ba8"/>
          <path id="Trazado_126333" data-name="Trazado 126333" d="M24.07,59.64l4.2,44.3,1.63.28L73.09,78.07l-4.2-44.31Z" fill="#838383"/>
          <path id="Trazado_126334" data-name="Trazado 126334" d="M73.66,77.85l-4-42.2L26.77,60.41l4,42.2Z" fill="#838383"/>
          <path id="Trazado_126335" data-name="Trazado 126335" d="M73.03,77.56l-4-42.2L26.15,60.12l3.99,42.21Z" fill="#f4f4f4"/>
          <g id="Grupo_81545" data-name="Grupo 81545">
            <path id="Trazado_126336" data-name="Trazado 126336" d="M44.99,57.38l20.62-11.9-.25-1.79L44.75,55.59Z" fill="#ccd3ed"/>
            <path id="Trazado_126337" data-name="Trazado 126337" d="M49.03,87.16l20.61-11.9-3.2-27L45.82,60.16Z" fill="#ccd3ed"/>
            <g id="Grupo_81544" data-name="Grupo 81544">
              <path id="Trazado_126338" data-name="Trazado 126338" d="M49.67,72.37c.7,5.95,4.89,8.68,9.34,6.11a10.72,10.72,0,0,0,2.29-1.81l-3.57-9-7.93.11a16.19,16.19,0,0,0-.13,4.59Z" fill="#52955e"/>
              <path id="Trazado_126339" data-name="Trazado 126339" d="M49.8,67.82l7.93-.11,3.57,9A17.72,17.72,0,0,0,65.8,63.1a11.89,11.89,0,0,0-.68-2.82c-1.51-3.93-5-5.42-8.67-3.3a10.61,10.61,0,0,0-2.12,1.66,17.28,17.28,0,0,0-4.53,9.18Z" fill="#f195b0"/>
              <path id="Trazado_126340" data-name="Trazado 126340" d="M49.8,67.82l7.93-.11-3.4-9.11a17.28,17.28,0,0,0-4.53,9.22Z" fill="#f7d37e"/>
              <path id="Trazado_126341" data-name="Trazado 126341" d="M57.73,67.71l3.57,9A17.72,17.72,0,0,0,65.8,63.1Z" fill="#8b95b0"/>
            </g>
          </g>
          <g id="Grupo_81548" data-name="Grupo 81548">
            <path id="Trazado_126342" data-name="Trazado 126342" d="M33.63,94.57l14.56-8.48L45.7,63.31,31.15,71.78Z" fill="#ededed"/>
            <g id="Grupo_81546" data-name="Grupo 81546">
              <path id="Trazado_126343" data-name="Trazado 126343" d="M35.52,76.09c.25,2.34,2.09,3.28,4.11,2.11a5.65,5.65,0,0,0,1-.8L39.17,74l-3.55.32A5.58,5.58,0,0,0,35.52,76.09Z" fill="#52955e"/>
              <path id="Trazado_126344" data-name="Trazado 126344" d="M35.62,74.28,39.17,74l1.5,3.44a7.19,7.19,0,0,0,2.16-5.57,3.87,3.87,0,0,0-.28-1.09c-.63-1.51-2.18-2-3.84-1a5.6,5.6,0,0,0-1,.73,7.55,7.55,0,0,0-2.09,3.77Z" fill="#f195b0"/>
              <path id="Trazado_126345" data-name="Trazado 126345" d="M35.62,74.28,39.17,74l-1.43-3.5a7.55,7.55,0,0,0-2.12,3.78Z" fill="#f7d37e"/>
              <path id="Trazado_126346" data-name="Trazado 126346" d="M39.17,74l1.5,3.44a7.19,7.19,0,0,0,2.16-5.57Z" fill="#8b95b0"/>
            </g>
            <g id="Grupo_81547" data-name="Grupo 81547">
              <path id="Trazado_126347" data-name="Trazado 126347" d="M42.51,79.36c-1.61-.82-3.92.53-5.17,3a8,8,0,0,0-.53,1.37l3.44.12,3.22-3.57a2.45,2.45,0,0,0-.96-.92Z" fill="#f7d37e"/>
              <path id="Trazado_126348" data-name="Trazado 126348" d="M43.47,80.29l-3.22,3.57-3.44-.12c-.57,2-.13,4,1.18,4.62a2.19,2.19,0,0,0,.91.23c1.48.08,3.24-1.2,4.26-3.24a7.49,7.49,0,0,0,.51-1.27,5,5,0,0,0-.2-3.79Z" fill="#8b95b0"/>
              <path id="Trazado_126349" data-name="Trazado 126349" d="M43.47,80.29l-3.22,3.57,3.42.22a5,5,0,0,0-.2-3.79Z" fill="#f195b0"/>
              <path id="Trazado_126350" data-name="Trazado 126350" d="M40.25,83.86l-3.44-.12c-.57,2-.13,4,1.18,4.62Z" fill="#52955e"/>
            </g>
          </g>
          <path id="Trazado_126351" data-name="Trazado 126351" d="M68.89,33.76l1.64.27L25.71,59.91l-1.64-.28Z" fill="#a9a9a9"/>
          <path id="Trazado_126352" data-name="Trazado 126352" d="M25.71,59.91l4.19,44.31L74.73,78.34,70.53,34Zm1.06.5L69.66,35.65l4,42.2L30.77,102.61Z" fill="#cbcbcb"/>
        </g>
        <g id="Grupo_81557" data-name="Grupo 81557">
          <g id="Grupo_81550" data-name="Grupo 81550">
            <path id="Trazado_126353" data-name="Trazado 126353" d="M186.2,138.8l-8.16-4a5,5,0,0,0-4.11-.28,4.06,4.06,0,0,0-2.34-3.11,12.45,12.45,0,0,0-11.26,0c-3.1,1.79-3.08,4.7,0,6.5a11.3,11.3,0,0,0,5,1.34l-5.11,2.83c-1.29.74-1.25,1.95.09,2.65l9.31,3.89a7.28,7.28,0,0,0,6.39-.09l10-6C187.78,141.48,187.86,139.85,186.2,138.8Z" fill="#e3e4ed"/>
            <path id="Trazado_126354" data-name="Trazado 126354" d="M162.09,114.33c.93,3.08,2.46,4.26,2.35,7.89a31.75,31.75,0,0,0,.91,7.22c0,.68-3,3.41-3.89.19s-5.36-15.14-4.29-18S162.09,114.33,162.09,114.33Z" fill="url(#linear-gradient)"/>
            <path id="Trazado_126355" data-name="Trazado 126355" d="M161.6,130.34a19.405,19.405,0,0,1-.28,2.77A16.1,16.1,0,0,0,160,135c-.29.59.05,1,1,1.16s1.25-.07,1.53-1.22,1.6-1.39,2.17-1.57a2.36,2.36,0,0,0,1.67-1.45,2.89,2.89,0,0,0-.52-2.18c-.31-.47-.57-.81-.57-.81s-1.2,1.52-2.24,1.64a1.89,1.89,0,0,1-1.44-.23Z" fill="#ff5288"/>
            <path id="Trazado_126356" data-name="Trazado 126356" d="M167,126.9a9.53,9.53,0,0,1-.58,3.88c-.49,1-1.89,2.07-.78,2.82a2.56,2.56,0,0,0,2.61.18c.52-.23,1.82-.71,2-1.6s-.22-2,.42-2.67a3,3,0,0,0,1-2.07c-.07-.6.21-1.42-.79-1.69a5.13,5.13,0,0,0-3.18.5,2.53,2.53,0,0,0-.7.65Z" fill="#ff5288"/>
            <path id="Trazado_126357" data-name="Trazado 126357" d="M165.83,131.8c.24.55.33.69,0,1.09s-.33,3.56-.39,3.71-.45.3-.54.22-.49-2.88-.49-2.88-.27-.49-.64-.25,0-.6.58-.94S164.63,132,165.83,131.8Z" fill="#8e8e8e"/>
            <path id="Trazado_126358" data-name="Trazado 126358" d="M171.24,128.11c.32-.08.27.71.07,1.1a5.67,5.67,0,0,0-.33,2.19c0,.73.1,2.19.06,2.48s-.33.45-.75.44-.44-3.24-.61-3.78a5.179,5.179,0,0,0-.49-1.06S169.49,128.45,171.24,128.11Z" fill="#8e8e8e"/>
            <path id="Trazado_126359" data-name="Trazado 126359" d="M167.36,126.08c.19-.63,2.87-1.81,2.87-1.94s-2.7-10.06-3-10.82-3.85-.69-3.41,2.24S167.36,126.08,167.36,126.08Z" fill="url(#linear-gradient-2)"/>
          </g>
          <g id="Grupo_81553" data-name="Grupo 81553">
            <g id="Grupo_81551" data-name="Grupo 81551">
              <path id="Trazado_126360" data-name="Trazado 126360" d="M175.31,135.84h.07a.24.24,0,0,0,.24-.26l-1.84-19.65-1.52.87,2.81,18.83A.25.25,0,0,0,175.31,135.84Z" fill="#707070"/>
              <path id="Trazado_126361" data-name="Trazado 126361" d="M160.58,144.38h0a.24.24,0,0,1-.24-.26l1.82-21.49,1.51-.87-2.85,22.41a.24.24,0,0,1-.24.21Z" fill="#707070"/>
              <rect id="Rectángulo_35046" data-name="Rectángulo 35046" width="0.32" height="10.99" transform="matrix(0.144, -0.99, 0.99, 0.144, 163.048, 122.69)" fill="#707070"/>
              <rect id="Rectángulo_35047" data-name="Rectángulo 35047" width="17.84" height="0.32" transform="matrix(0.609, -0.793, 0.793, 0.609, 161.871, 130.922)" fill="#707070"/>
              <rect id="Rectángulo_35048" data-name="Rectángulo 35048" width="10.35" height="0.32" transform="matrix(0.967, -0.253, 0.253, 0.967, 173.905, 123.931)" fill="#707070"/>
              <rect id="Rectángulo_35049" data-name="Rectángulo 35049" width="0.32" height="17.07" transform="translate(172.758 116.975) rotate(-45.44)" fill="#707070"/>
              <path id="Trazado_126362" data-name="Trazado 126362" d="M186.4,140.46h.07a.24.24,0,0,0,.24-.26l-1.85-19.65-1.51.87,2.81,18.84a.25.25,0,0,0,.24.2Z" fill="#9d9d9d"/>
              <path id="Trazado_126363" data-name="Trazado 126363" d="M171.67,149h0a.24.24,0,0,1-.24-.26l1.82-21.48,1.51-.88-2.85,22.41A.25.25,0,0,1,171.67,149Z" fill="#9d9d9d"/>
              <rect id="Rectángulo_35050" data-name="Rectángulo 35050" width="0.32" height="10.99" transform="translate(173.426 126.696) rotate(-81.951)" fill="#9d9d9d"/>
              <rect id="Rectángulo_35051" data-name="Rectángulo 35051" width="17.84" height="0.32" transform="matrix(0.609, -0.793, 0.793, 0.609, 172.963, 135.535)" fill="#9d9d9d"/>
              <rect id="Rectángulo_35052" data-name="Rectángulo 35052" width="11.52" height="0.32" transform="translate(161.967 130.826) rotate(-13.1)" fill="#9d9d9d"/>
              <rect id="Rectángulo_35053" data-name="Rectángulo 35053" width="0.32" height="15.71" transform="matrix(0.768, -0.64, 0.64, 0.768, 162.894, 123.649)" fill="#9d9d9d"/>
            </g>
            <g id="Grupo_81552" data-name="Grupo 81552">
              <path id="Trazado_126364" data-name="Trazado 126364" d="M160.5,119.85l1.76-.11,11.19-6.46a4.93,4.93,0,0,1,4.59,0l7.4,4.69a1.851,1.851,0,0,1,.27.19l.93-.06v1.7h0a2.37,2.37,0,0,1-1.37,1.86L176,127a7.28,7.28,0,0,1-6.39.1l-8.12-4.27a1.64,1.64,0,0,1-1-1.32h0Z" fill="#4d4c8c"/>
              <path id="Trazado_126365" data-name="Trazado 126365" d="M176,125.38l9.23-5.34c1.76-1,1.83-2.63.17-3.68l-7.4-4.69a4.93,4.93,0,0,0-4.59,0l-12,6.93a1.387,1.387,0,0,0,.09,2.65l8.12,4.27a7.28,7.28,0,0,0,6.38-.14Z" fill="#807abe"/>
              <path id="Trazado_126366" data-name="Trazado 126366" d="M172.75,125.62a6.48,6.48,0,0,0,3.16-.75l9.24-5.34a2.12,2.12,0,0,0,1.24-1.65,2,2,0,0,0-1.08-1.6l-7.4-4.69a4.69,4.69,0,0,0-4.33,0l-12,6.93a1.35,1.35,0,0,0-.81,1.1,1.43,1.43,0,0,0,.89,1.11l8.12,4.27a6.48,6.48,0,0,0,2.97.62Z" fill="#938dcb"/>
            </g>
          </g>
          <path id="Trazado_126367" data-name="Trazado 126367" d="M159.31,108.76c2.27-.37,4.57-2,6.69-2s8.19,3.44,8.44,4.46-.21,2.16-3.73,2.94S153.89,110.81,159.31,108.76Z" fill="#485455"/>
          <path id="Trazado_126368" data-name="Trazado 126368" d="M183.54,110.36c1.72,3.06,2.23,3.64,1.44,6.86s-5.68,4.87-6.93,5-9.69-5.2-9.59-6.43S183.54,110.36,183.54,110.36Z" fill="#8e8e8e"/>
          <path id="Trazado_126369" data-name="Trazado 126369" d="M180.26,112.71c1.61,5.82.16,8.94-2.71,10.39s-9.12,1.25-12.57-2-5.82-5.77-6.83-6.56-1.39-3.55-.43-4.83,4-1.62,5.52-.63,4.72,4.12,5.43,4.31S180.26,112.71,180.26,112.71Z" fill="#485455"/>
          <g id="Grupo_81554" data-name="Grupo 81554">
            <path id="Trazado_126370" data-name="Trazado 126370" d="M168,101.24c1.37,5,1,8.33.36,14.34.06.41.51.75,1.2,1,2.23.88,7,1,10.47,0,4.48-1.31,4.72-3.69,4.75-4.4s-1.11-4-1.26-5.53,2.36-10.28,1.89-12.38a3.31,3.31,0,0,0-3.34-2.76,44.86,44.86,0,0,0-7.93,1.94,23.649,23.649,0,0,1-4.55,1.36,3.62,3.62,0,0,0-1.63,2,7.11,7.11,0,0,0,.04,4.43Z" fill="#dde8f6"/>
            <path id="Trazado_126371" data-name="Trazado 126371" d="M173.49,92.76c0-1-.11-2-.11-2a1.52,1.52,0,0,0-1-.53c-.57,0-1.08-.42-1.68-2.32a10.68,10.68,0,0,1-.37-4.46c.09-.59.25-3.14,2-2.93s6.85,2.07,6.71,5.89a28.5,28.5,0,0,0,.2,5.63Z" fill="url(#linear-gradient-3)"/>
            <path id="Trazado_126372" data-name="Trazado 126372" d="M173.26,92.36a8.5,8.5,0,0,1,3-.78,10,10,0,0,0,2.95-.86s1,1.2.91,1.54-.82,1-2.53,1.19a34.2,34.2,0,0,0-3.67.56,5.476,5.476,0,0,1-.76.16,4.75,4.75,0,0,1,.1-1.81Z" fill="#fcfdfe"/>
            <path id="Trazado_126373" data-name="Trazado 126373" d="M168,101.24c1.37,5,1,8.33.36,14.34.06.41.51.75,1.2,1,.29-5.75.7-12,.7-12a9.2,9.2,0,0,1-.16-3.79l-1.82-3.93a1.11,1.11,0,0,0-.32,0A7.11,7.11,0,0,0,168,101.24Z" fill="#dae2eb"/>
            <path id="Trazado_126374" data-name="Trazado 126374" d="M172,95.83c.45,1.68-.88,6.61-.8,7.78s2.72,3,5.41,3.42,6.41-1.26,6.95-2.71,1.59-8,1.33-9.16-.47-3.41-2.36-3.09-5.33,2.19-6.48,2.25S171,94.31,172,95.83Z" fill="#d3e1f2"/>
            <path id="Trazado_126375" data-name="Trazado 126375" d="M171.42,87c.06.13.24,1,.24,1s.34-1.72.51-1.5A9.42,9.42,0,0,1,174,89.19c.27,1,2.19,2.86,5.27,2.29,1.19-.79,2.08-4.75,2.15-5.59s.49-4-1.8-5.67-3.9-1.68-6.32-1a3,3,0,0,0-2.44,2.56,9.5,9.5,0,0,0,.19,2.45c.27,1,.5,1.08.44,1.68a5.469,5.469,0,0,0-.07,1.09Z" fill="#ff5288"/>
            <path id="Trazado_126376" data-name="Trazado 126376" d="M179.83,89.88A6.38,6.38,0,0,1,183.08,94c.41,2,.86,7.15-1.64,11.17A61.341,61.341,0,0,1,180,96.7c-.17-.72-.34-4.67-.74-5.34s-.58-1-.35-1.34S179.83,89.88,179.83,89.88Z" fill="#ff5288"/>
            <path id="Trazado_126377" data-name="Trazado 126377" d="M172.59,87.39c0-.46.41-.57.61-.31a3.25,3.25,0,0,1,.27,1.57c-.07.27-.43.44-.55.23A10.69,10.69,0,0,1,172.59,87.39Z" fill="#febcbb"/>
            <path id="Trazado_126378" data-name="Trazado 126378" d="M155.86,91.72h0a1.791,1.791,0,0,0,0,.23c.24,2.37,8.22,7.4,10.54,8.66,1.75.94,3.26,2,4.48,1.22a3.33,3.33,0,0,0,1.12-1.48,4.41,4.41,0,0,0-1.22-5.48c-.69-.55-3.69-.68-4.46-.9a24.65,24.65,0,0,1-5.52-3.74C158.44,89,155.81,89.53,155.86,91.72Z" fill="#c7d9f0"/>
            <path id="Trazado_126379" data-name="Trazado 126379" d="M155.86,91.72c.41,2.08,3.46.12,4.56-1,.26-.25.41-.45.4-.54,0-.5-.85-3.65-1-4.86s-.45-5.92-.45-6,0,0-.14,0a21.311,21.311,0,0,1-2.77,0s-.41,1.83-.82,4.61A22.35,22.35,0,0,0,155.86,91.72Z" fill="#c7d9f0"/>
            <path id="Trazado_126380" data-name="Trazado 126380" d="M159.08,79.7a14.658,14.658,0,0,1,.37-2.17c.12-.11.64-.4.74-.88a6.441,6.441,0,0,0-.05-1.41c0-.38.27-.84.19-1.15s-.63-.26-.75-.14-.37.15-.44.54-.38,1.4-.38,1.4l.09-2.68s.41-3.12.37-3.51a1,1,0,0,0-.26-.58,1,1,0,0,0,0-.54.59.59,0,0,0-.43-.33,3.078,3.078,0,0,0-.34.44s-.31-.26-.37.21-.81,2.67-.85,2.93a17.183,17.183,0,0,0-.31,1.82c0,.37.23,2.86.23,3.14s-.54,3.59-.54,3.68S158.88,81.81,159.08,79.7Z" fill="url(#linear-gradient-4)"/>
            <path id="Trazado_126381" data-name="Trazado 126381" d="M160.29,89.56l-.1,1.16h.23c.26-.25.41-.45.4-.54,0-.5-.85-3.65-1-4.86s-.45-5.92-.45-6,0,0-.14,0a37.41,37.41,0,0,0,1.06,10.24Z" fill="#a3b8d4"/>
            <path id="Trazado_126382" data-name="Trazado 126382" d="M155.86,91.72a1.791,1.791,0,0,0,0,.23c.24,2.37,8.22,7.4,10.54,8.66,1.75.94,3.26,2,4.48,1.22-1.36.34-2.9-.85-5.15-2a39.361,39.361,0,0,1-7.2-5.06A11.21,11.21,0,0,1,155.86,91.72Z" fill="#a3b8d4"/>
            <path id="Trazado_126383" data-name="Trazado 126383" d="M159.93,91.39c1-.17,3.32,1.52,4.25,2.24s4.52,1.19,5.93,1.86,2,1,1.93,3-1.19,3.29-3.06,2.58a46.13,46.13,0,0,1-8.83-5.58A16.121,16.121,0,0,1,158.1,93a2.41,2.41,0,0,1,1.83-1.61Z" fill="#d3e1f2"/>
            <path id="Trazado_126384" data-name="Trazado 126384" d="M156.71,79.79a14.749,14.749,0,0,0,2.11,0s.3,7,.49,8.45.49,1.49.23,2.76-2.61,1.38-3.17.5-.77-6-.51-7.28S156.71,79.79,156.71,79.79Z" fill="#d3e1f2"/>
            <path id="Trazado_126385" data-name="Trazado 126385" d="M179.88,89.7a1,1,0,0,1,.77.46,1.53,1.53,0,0,1,0,.28,2.67,2.67,0,0,0-.86.33,1.93,1.93,0,0,0-.51.68c0,.13-.38-.23-.38-.23v-.84a3.45,3.45,0,0,1,.6-.56.72.72,0,0,1,.38-.12Z" fill="#fcfdfe"/>
          </g>
          <g id="Grupo_81556" data-name="Grupo 81556">
            <path id="Trazado_126386" data-name="Trazado 126386" d="M173.33,124.33c.09-2.83.5-8.21.57-11a4.07,4.07,0,0,1,2.46-3.4,67.22,67.22,0,0,0,12.77-7.37,2.42,2.42,0,0,1,1.37-.6h0a4.69,4.69,0,0,1,1.7.63s-.57,1-1.54,2.66c-.66,3.24-1.46,7.64-2,10.27a11.69,11.69,0,0,1-3.83,6.11,50.3,50.3,0,0,1-7.36,4.4c-.63.87-1.05,1.36-1.17,1.34a8.26,8.26,0,0,1-1.79-.62h0l-.12-.06h0A2.41,2.41,0,0,1,173.33,124.33Z" fill="#807abe"/>
            <g id="Grupo_81555" data-name="Grupo 81555">
              <path id="Trazado_126387" data-name="Trazado 126387" d="M177.41,127.14a48.231,48.231,0,0,0,8.72-5A11.56,11.56,0,0,0,190,116c.69-3.17,1.72-8.91,2.42-12.09.35-1.57-.52-1.92-1.91-.87a67.22,67.22,0,0,1-12.77,7.37,4.1,4.1,0,0,0-2.47,3.4c-.07,2.82-.48,8.2-.57,11C174.6,126.74,175.79,127.84,177.41,127.14Z" fill="#665eb1"/>
              <path id="Trazado_126388" data-name="Trazado 126388" d="M176.68,127.26a2.19,2.19,0,0,0,.86-.2,48.051,48.051,0,0,0,8.69-5,11.41,11.41,0,0,0,3.76-6c.33-1.52.73-3.58,1.15-5.75s.9-4.68,1.27-6.34a1.48,1.48,0,0,0-.06-1.11.42.42,0,0,0-.33-.14,2.28,2.28,0,0,0-1.22.57,68.171,68.171,0,0,1-12.8,7.39,3.9,3.9,0,0,0-2.35,3.23c0,1.48-.17,3.67-.3,5.78s-.23,3.9-.27,5.25a2.57,2.57,0,0,0,.58,1.89,1.4,1.4,0,0,0,1.02.43Z" fill="#575096"/>
            </g>
            <path id="Trazado_126389" data-name="Trazado 126389" d="M181.81,111.53a21.581,21.581,0,0,0,4.91-2.84,1.54,1.54,0,0,0,.59-1.12h0c0-.37-.26-.48-.59-.24a21.53,21.53,0,0,1-4.91,2.83,1.1,1.1,0,0,0-.59.93h0C181.22,111.46,181.49,111.67,181.81,111.53Z" fill="#3f366f"/>
          </g>
        </g>
        <g id="Grupo_81563" data-name="Grupo 81563">
          <path id="Trazado_126390" data-name="Trazado 126390" d="M151.2,159l-8.2-4a5,5,0,0,0-4.11-.28l-13.68,7.53c-1.29.75-1.25,1.95.09,2.66l9.31,3.89a7.24,7.24,0,0,0,6.39-.1l10-6C152.78,161.69,152.86,160.06,151.2,159Z" fill="#e3e4ed"/>
          <g id="Grupo_81560" data-name="Grupo 81560">
            <g id="Grupo_81558" data-name="Grupo 81558">
              <path id="Trazado_126391" data-name="Trazado 126391" d="M140.31,156.05h.07a.24.24,0,0,0,.24-.27l-1.84-19.64-1.52.87,2.81,18.83a.25.25,0,0,0,.24.21Z" fill="#707070"/>
              <path id="Trazado_126392" data-name="Trazado 126392" d="M125.58,164.58h0a.24.24,0,0,1-.24-.26l1.82-21.48,1.51-.87-2.85,22.4a.24.24,0,0,1-.24.21Z" fill="#707070"/>
              <rect id="Rectángulo_35054" data-name="Rectángulo 35054" width="0.32" height="10.99" transform="translate(127.537 142.236) rotate(-81.951)" fill="#707070"/>
              <rect id="Rectángulo_35055" data-name="Rectángulo 35055" width="17.84" height="0.32" transform="matrix(0.609, -0.793, 0.793, 0.609, 126.865, 151.121)" fill="#707070"/>
              <rect id="Rectángulo_35056" data-name="Rectángulo 35056" width="10.35" height="0.32" transform="matrix(0.967, -0.253, 0.253, 0.967, 138.9, 144.16)" fill="#707070"/>
              <rect id="Rectángulo_35057" data-name="Rectángulo 35057" width="0.32" height="17.07" transform="translate(137.76 137.184) rotate(-45.44)" fill="#707070"/>
              <path id="Trazado_126393" data-name="Trazado 126393" d="M151.4,160.67h.07a.24.24,0,0,0,.24-.26l-1.85-19.65-1.51.87,2.81,18.83A.25.25,0,0,0,151.4,160.67Z" fill="#9d9d9d"/>
              <path id="Trazado_126394" data-name="Trazado 126394" d="M136.67,169.21h0a.25.25,0,0,1-.24-.27l1.82-21.48,1.51-.87L136.91,169a.25.25,0,0,1-.24.21Z" fill="#9d9d9d"/>
              <rect id="Rectángulo_35058" data-name="Rectángulo 35058" width="0.32" height="10.99" transform="translate(138.574 146.824) rotate(-81.951)" fill="#9d9d9d"/>
              <rect id="Rectángulo_35059" data-name="Rectángulo 35059" width="17.84" height="0.32" transform="translate(137.952 155.726) rotate(-52.47)" fill="#9d9d9d"/>
              <rect id="Rectángulo_35060" data-name="Rectángulo 35060" width="11.52" height="0.32" transform="translate(126.978 151.033) rotate(-13.1)" fill="#9d9d9d"/>
              <rect id="Rectángulo_35061" data-name="Rectángulo 35061" width="0.32" height="15.71" transform="matrix(0.768, -0.64, 0.64, 0.768, 127.898, 143.853)" fill="#9d9d9d"/>
            </g>
            <g id="Grupo_81559" data-name="Grupo 81559">
              <path id="Trazado_126395" data-name="Trazado 126395" d="M125.5,140.06l1.76-.11,11.19-6.46a4.93,4.93,0,0,1,4.59,0l7.4,4.69a1.851,1.851,0,0,1,.27.19l.93-.06v1.7h0a2.37,2.37,0,0,1-1.37,1.86L141,147.25a7.28,7.28,0,0,1-6.39.09l-8.12-4.27a1.62,1.62,0,0,1-1-1.31h0Z" fill="#4d4c8c"/>
              <path id="Trazado_126396" data-name="Trazado 126396" d="M141,145.58l9.23-5.33c1.76-1,1.83-2.64.17-3.69l-7.4-4.68a4.9,4.9,0,0,0-4.59,0l-12,6.93a1.387,1.387,0,0,0,.09,2.65l8.12,4.27a7.24,7.24,0,0,0,6.38-.15Z" fill="#807abe"/>
              <path id="Trazado_126397" data-name="Trazado 126397" d="M137.75,145.83a6.37,6.37,0,0,0,3.16-.76l9.24-5.33a2.12,2.12,0,0,0,1.24-1.65,2,2,0,0,0-1.08-1.6l-7.4-4.69a4.69,4.69,0,0,0-4.33,0l-12,6.93a1.32,1.32,0,0,0-.81,1.1,1.4,1.4,0,0,0,.89,1.1l8.12,4.28a6.61,6.61,0,0,0,2.97.62Z" fill="#938dcb"/>
            </g>
          </g>
          <g id="Grupo_81562" data-name="Grupo 81562">
            <path id="Trazado_126398" data-name="Trazado 126398" d="M138.33,144.53c.09-2.83.5-8.2.57-11a4.07,4.07,0,0,1,2.46-3.4,67.771,67.771,0,0,0,12.77-7.37,2.42,2.42,0,0,1,1.37-.6h0a4.52,4.52,0,0,1,1.7.63s-.57,1-1.54,2.66c-.66,3.24-1.46,7.63-2,10.27a11.63,11.63,0,0,1-3.83,6.1,50.4,50.4,0,0,1-7.36,4.41c-.63.86-1.05,1.36-1.17,1.34a7.709,7.709,0,0,1-1.79-.63h0l-.12-.06h0a2.41,2.41,0,0,1-1.06-2.35Z" fill="#807abe"/>
            <g id="Grupo_81561" data-name="Grupo 81561">
              <path id="Trazado_126399" data-name="Trazado 126399" d="M142.41,147.35a48.231,48.231,0,0,0,8.72-5,11.56,11.56,0,0,0,3.83-6.1c.69-3.18,1.72-8.91,2.42-12.09.35-1.58-.52-1.92-1.91-.87a67.769,67.769,0,0,1-12.77,7.37,4.08,4.08,0,0,0-2.47,3.4c-.07,2.82-.48,8.19-.57,11C139.6,147,140.79,148.05,142.41,147.35Z" fill="#665eb1"/>
              <path id="Trazado_126400" data-name="Trazado 126400" d="M141.68,147.47a2.19,2.19,0,0,0,.86-.2,48.13,48.13,0,0,0,8.69-5,11.33,11.33,0,0,0,3.76-6c.33-1.51.73-3.57,1.15-5.74s.9-4.68,1.27-6.35a1.45,1.45,0,0,0-.06-1.1.42.42,0,0,0-.33-.14,2.33,2.33,0,0,0-1.22.56,67.7,67.7,0,0,1-12.81,7.4,3.89,3.89,0,0,0-2.35,3.23c0,1.47-.17,3.66-.3,5.78s-.23,3.89-.27,5.24a2.58,2.58,0,0,0,.58,1.9A1.4,1.4,0,0,0,141.68,147.47Z" fill="#575096"/>
            </g>
            <path id="Trazado_126401" data-name="Trazado 126401" d="M146.81,131.73a21.531,21.531,0,0,0,4.91-2.83,1.58,1.58,0,0,0,.59-1.12h0c0-.38-.26-.48-.59-.24a21.53,21.53,0,0,1-4.91,2.83,1.09,1.09,0,0,0-.59.93h0C146.22,131.67,146.49,131.87,146.81,131.73Z" fill="#3f366f"/>
          </g>
        </g>
        <g id="Grupo_81570" data-name="Grupo 81570">
          <path id="Trazado_126402" data-name="Trazado 126402" d="M116.9,179.07l-8.15-4a5,5,0,0,0-4.13-.28c.14-1.27-.63-2.58-2.32-3.56a12.45,12.45,0,0,0-11.26,0c-3.1,1.79-3.09,4.7,0,6.5a11.72,11.72,0,0,0,5.77,1.36L91,182.35c-1.29.74-1.25,2,.09,2.65l9.31,3.89a7.24,7.24,0,0,0,6.39-.1l10-6C118.49,181.75,118.56,180.12,116.9,179.07Z" fill="#e3e4ed"/>
          <g id="Grupo_81567" data-name="Grupo 81567">
            <path id="Trazado_126403" data-name="Trazado 126403" d="M98.81,127.17a3.74,3.74,0,0,1-.3,1.41,4.27,4.27,0,0,1-.63.94c-.13.13-.26.19-.38.11-.29-.21-2.16-1.83-2.16-1.83a6.239,6.239,0,0,1-1.19-.44c-.51-.28-1.38-.64-1.43-.7s-.82-.27-1.1-.43a12.318,12.318,0,0,1-1.1-.69h0q-.15-.12-.15-.21c0-.22.1-.33.34-.3a16.737,16.737,0,0,1,1.6.63l.29.13v-.09s-1.78-1.06-2-1.23-.39-.28-.43-.44v-.1c0-.16.25-.21.37-.22h.08a.51.51,0,0,1-.08-.15v-.05a.28.28,0,0,1,.15-.38,2.17,2.17,0,0,1,.9,0l1.31.57h0l.3.13-1.15-.68s-.27-.24-.3-.41h0a.28.28,0,0,1,.16-.3c.12-.07.61.13,1,.27a7.56,7.56,0,0,1,1.66,1.05,2.75,2.75,0,0,0,.9.47.1.1,0,0,0,.09,0,2.89,2.89,0,0,0,.67-.71h0a.15.15,0,0,0,0-.07,3.223,3.223,0,0,1,.13-1,1,1,0,0,1,.6-.75c.12,0,.56,0,.43.42a7.75,7.75,0,0,0-.24,1.94v1.66a8.54,8.54,0,0,0,1.66,1.45Z" fill="url(#linear-gradient-5)"/>
            <path id="Trazado_126404" data-name="Trazado 126404" d="M90.67,124.46c-.17-.15-.39-.28-.43-.44h.05a7.53,7.53,0,0,0,1.42,1l1,.56h.28l-.26.32-.09.17-.14-.29-.19-.12.29.13v-.09S90.86,124.63,90.67,124.46Z" fill="#d6b3a6"/>
            <path id="Trazado_126405" data-name="Trazado 126405" d="M91.82,122.78h0a1.81,1.81,0,0,0,.41.39c.16.11,1.65,1,1.82,1.13L93,123.74l.3.13-1.15-.68S91.85,123,91.82,122.78Z" fill="#d6b3a6"/>
            <path id="Trazado_126406" data-name="Trazado 126406" d="M90.69,123.69a.51.51,0,0,1-.08-.15h.06s1.25.62,1.51.79.89.52.89.52l.21-.14-.28.4-.13-.22a9.139,9.139,0,0,0-1-.6c-.16-.06-1-.51-1.31-.64Z" fill="#d6b3a6"/>
            <path id="Trazado_126407" data-name="Trazado 126407" d="M94.9,126.4a6,6,0,0,0,.61-1,6.459,6.459,0,0,1,.07-1.13.1.1,0,0,0,.09,0,2.89,2.89,0,0,0,.67-.71c-.13.31-.63.75-.63,1a4.855,4.855,0,0,0,.05.88C95.81,125.63,94.9,126.4,94.9,126.4Z" fill="#d6b3a6"/>
            <path id="Trazado_126408" data-name="Trazado 126408" d="M97.88,129.52c-.13.13-.26.19-.38.11-.29-.21-2.16-1.83-2.16-1.83a6.239,6.239,0,0,1-1.19-.44c-.51-.28-1.38-.64-1.43-.7s-.82-.27-1.1-.43a12.318,12.318,0,0,1-1.1-.69c.36.21,1,.55,1.19.65s1,.33,1.12.41a11.709,11.709,0,0,0,1.66.73,5.08,5.08,0,0,1,1,.21,2.37,2.37,0,0,0,.55.2l-.17.31a10.6,10.6,0,0,0,1.57,1.14,1.75,1.75,0,0,1,.44.33Z" fill="#d6b3a6"/>
            <path id="Trazado_126409" data-name="Trazado 126409" d="M104.88,136.57a2.42,2.42,0,0,1-.39-.2c-1.95-1.15-6.94-5.83-6.94-5.83a2,2,0,0,1-.63-1.38,1.51,1.51,0,0,1,0-.28A4,4,0,0,1,98.24,127a.8.8,0,0,1,.9.1s6.81,4.46,8.69,5.6S106.42,137.16,104.88,136.57Z" fill="#c7d9f0"/>
            <path id="Trazado_126410" data-name="Trazado 126410" d="M106,135.2l-1.47,1.17c-1.95-1.15-6.94-5.83-6.94-5.83a2,2,0,0,1-.63-1.38,1.509,1.509,0,0,1,0-.28,4.92,4.92,0,0,0,1.32,1.66c.37.3,2.08,1.79,2.51,2.07S106,135.2,106,135.2Z" fill="#a3b8d4"/>
            <path id="Trazado_126411" data-name="Trazado 126411" d="M98.62,127.2a3.82,3.82,0,0,0-1.07,1.64,49.793,49.793,0,0,0,5.63,4.38c1.4.89,3,1.26,3.43.77s-2.9-3.51-2.9-3.51Z" fill="#d3e1f2"/>
            <path id="Trazado_126412" data-name="Trazado 126412" d="M103,147c-4.26-2.11-6-1.24-6.36-.91s-1.1.68-.82,5.08.38,14.67.63,14.7,1.42-.9,2-.9h.94l-.61-11.67s5,1.15,6.78.79S103,147,103,147Z" fill="url(#linear-gradient-6)"/>
            <path id="Trazado_126413" data-name="Trazado 126413" d="M94.41,168a6.428,6.428,0,0,1-.66.9h0c-.23.24-.63.25-.88.32-.65.16-1.72,2.23-1.72,2.23s-.06-.24-.18-2.42-2.3-13.69-2.58-17.38c0,0,4.36.31,4.81,1.85a10,10,0,0,1,.25,1.41c.26,2.24.35,5.89.37,6.93C93.85,163.15,94.41,168,94.41,168Z" fill="url(#linear-gradient-7)"/>
            <path id="Trazado_126414" data-name="Trazado 126414" d="M90.79,169.32a19.418,19.418,0,0,1-.28,2.78,16.651,16.651,0,0,0-1.35,1.9c-.29.59.06,1,1,1.16s1.24-.06,1.53-1.21,1.59-1.39,2.16-1.57a2.38,2.38,0,0,0,1.67-1.45,3,3,0,0,0-.51-2.19c-.32-.46-.58-.8-.58-.8s-1.2,1.52-2.24,1.64a1.91,1.91,0,0,1-1.4-.26Z" fill="#ff5288"/>
            <path id="Trazado_126415" data-name="Trazado 126415" d="M96,166.07a9.49,9.49,0,0,1-.59,3.88c-.49,1-1.89,2.08-.77,2.82a2.52,2.52,0,0,0,2.6.19c.52-.23,1.82-.71,2-1.6s-.22-2,.42-2.68a3,3,0,0,0,1-2.06c-.07-.6.2-1.42-.8-1.69a5.08,5.08,0,0,0-3.18.5,2.65,2.65,0,0,0-.68.64Z" fill="#ff5288"/>
            <path id="Trazado_126416" data-name="Trazado 126416" d="M95,170.78c.25.56.33.7,0,1.1s-.33,3.56-.39,3.71-.45.3-.54.21-.49-2.88-.49-2.88-.27-.49-.64-.24.05-.61.58-.94S93.82,171,95,170.78Z" fill="#8e8e8e"/>
            <path id="Trazado_126417" data-name="Trazado 126417" d="M100.19,167.29c.32-.09.27.71.06,1.09a6,6,0,0,0-.32,2.2,22.194,22.194,0,0,1,0,2.47.692.692,0,0,1-.75.45c-.42,0-.44-3.25-.6-3.78a5.851,5.851,0,0,0-.49-1.06S98.44,167.63,100.19,167.29Z" fill="#8e8e8e"/>
            <path id="Trazado_126418" data-name="Trazado 126418" d="M93.75,168.9a28.34,28.34,0,0,0-.47-6.32c-.3-1.12-1.08-2.07-2.38-3.88s-1.46-3.7-1.9-4.95l2.33-.59a4.43,4.43,0,0,1,2.13,1.75c.26,2.24.35,5.89.37,6.93,0,1.31.59,6.16.59,6.16a6.43,6.43,0,0,1-.67.9Z" fill="#d6b3a6"/>
            <g id="Grupo_81566" data-name="Grupo 81566">
              <g id="Grupo_81564" data-name="Grupo 81564">
                <path id="Trazado_126419" data-name="Trazado 126419" d="M106,176.11h.07a.24.24,0,0,0,.24-.26l-1.85-19.65-1.51.87,2.81,18.83A.25.25,0,0,0,106,176.11Z" fill="#707070"/>
                <path id="Trazado_126420" data-name="Trazado 126420" d="M91.29,184.65h0a.25.25,0,0,1-.24-.27l1.82-21.48,1.51-.87-2.85,22.41A.25.25,0,0,1,91.29,184.65Z" fill="#707070"/>
                <rect id="Rectángulo_35062" data-name="Rectángulo 35062" width="0.32" height="10.99" transform="translate(93.396 162.222) rotate(-81.951)" fill="#707070"/>
                <rect id="Rectángulo_35063" data-name="Rectángulo 35063" width="17.84" height="0.32" transform="matrix(0.609, -0.793, 0.793, 0.609, 92.571, 171.183)" fill="#707070"/>
                <rect id="Rectángulo_35064" data-name="Rectángulo 35064" width="10.35" height="0.32" transform="matrix(0.967, -0.253, 0.253, 0.967, 104.608, 164.22)" fill="#707070"/>
                <rect id="Rectángulo_35065" data-name="Rectángulo 35065" width="0.32" height="17.07" transform="translate(103.456 157.249) rotate(-45.44)" fill="#707070"/>
                <path id="Trazado_126421" data-name="Trazado 126421" d="M117.11,180.73h.07a.24.24,0,0,0,.24-.26l-1.85-19.65-1.51.87,2.81,18.84a.25.25,0,0,0,.24.2Z" fill="#9d9d9d"/>
                <path id="Trazado_126422" data-name="Trazado 126422" d="M102.38,189.27h0a.24.24,0,0,1-.24-.26L104,167.52l1.51-.87-2.85,22.41A.25.25,0,0,1,102.38,189.27Z" fill="#9d9d9d"/>
                <rect id="Rectángulo_35066" data-name="Rectángulo 35066" width="0.32" height="10.99" transform="matrix(0.144, -0.99, 0.99, 0.144, 104.856, 167.582)" fill="#9d9d9d"/>
                <rect id="Rectángulo_35067" data-name="Rectángulo 35067" width="17.84" height="0.32" transform="translate(103.669 175.785) rotate(-52.47)" fill="#9d9d9d"/>
                <rect id="Rectángulo_35068" data-name="Rectángulo 35068" width="11.52" height="0.32" transform="translate(92.677 171.105) rotate(-13.1)" fill="#9d9d9d"/>
                <rect id="Rectángulo_35069" data-name="Rectángulo 35069" width="0.32" height="15.71" transform="matrix(0.768, -0.64, 0.64, 0.768, 93.61, 163.916)" fill="#9d9d9d"/>
              </g>
              <g id="Grupo_81565" data-name="Grupo 81565">
                <path id="Trazado_126423" data-name="Trazado 126423" d="M91.21,160.12,93,160l11.19-6.46a4.93,4.93,0,0,1,4.59,0l7.4,4.69a1.85,1.85,0,0,1,.27.19l.93-.06v1.7h0A2.33,2.33,0,0,1,116,162l-9.23,5.33a7.31,7.31,0,0,1-6.39.1l-8.12-4.27a1.68,1.68,0,0,1-1-1.32h0Z" fill="#4d4c8c"/>
                <path id="Trazado_126424" data-name="Trazado 126424" d="M106.75,165.65l9.23-5.34c1.76-1,1.83-2.63.17-3.69l-7.4-4.68a4.9,4.9,0,0,0-4.59-.05l-12,6.93a1.385,1.385,0,0,0,.09,2.65l8.12,4.27a7.28,7.28,0,0,0,6.38-.09Z" fill="#807abe"/>
                <path id="Trazado_126425" data-name="Trazado 126425" d="M103.45,165.89a6.52,6.52,0,0,0,3.17-.75l9.23-5.34a2.08,2.08,0,0,0,1.24-1.65,2,2,0,0,0-1.08-1.6l-7.39-4.69a4.27,4.27,0,0,0-2.2-.55,4.34,4.34,0,0,0-2.14.51l-12,6.93a1.33,1.33,0,0,0-.81,1.1c0,.41.33.81.89,1.11l8.11,4.27a6.64,6.64,0,0,0,2.98.66Z" fill="#938dcb"/>
              </g>
            </g>
            <path id="Trazado_126426" data-name="Trazado 126426" d="M115.32,160.23c-.83,2-3.13,2.93-4.69,3.15s-1.21.54-3.8,1.17c-6.34,1.34-9.92-1.67-13.23-5.05-2.46-2.53-3.83-3.91-4.61-5.74h0a9.82,9.82,0,0,1-.6-2.1c-.58-3.11,1-4.65,2.87-4.63s7.64,4.65,8.58,4.74c0,0,15.22.17,15.73.81S116.52,157.34,115.32,160.23Z" fill="url(#linear-gradient-8)"/>
            <path id="Trazado_126427" data-name="Trazado 126427" d="M106.83,164.55c-6.34,1.34-9.92-1.67-13.23-5.05-2.46-2.53-3.83-3.91-4.61-5.74a30.87,30.87,0,0,1,2.21,2.59c1.26,1.65,5.8,6.16,7.8,7.08A16,16,0,0,0,106.83,164.55Z" fill="#d6b3a6"/>
            <path id="Trazado_126428" data-name="Trazado 126428" d="M103.46,147.77c-4.92,1.21-10.26,3.52-10.53,7.14s.26,4.57.55,5.34,5.65,4.76,9.49,4.84,10.85-1.62,11.51-2.25a33.153,33.153,0,0,0,2.57-4.4s-.6-5.52-1.71-6.3S103.46,147.77,103.46,147.77Z" fill="#485455"/>
            <path id="Trazado_126429" data-name="Trazado 126429" d="M114.84,146.65c-.57,2.07.64,4.66.74,5.68s-1.33,1.88-3.77,3.26a15.1,15.1,0,0,1-7.87,1.39,13.88,13.88,0,0,1-4.59-2,3.15,3.15,0,0,1-1.45-1.64c-.27-1.52,1.12-4.58,1.12-5.23a22.51,22.51,0,0,0-1.1-6.55,7.26,7.26,0,0,1-.47-2.21,11.68,11.68,0,0,1,1-5.64c1-2,6.37-3.28,7.38-4,0,0,6.64-1.58,7.19-1.64s2.48,1.14,3.71,2,1.18,2.54,1.15,4.78S115.42,144.58,114.84,146.65Z" fill="#dde8f6"/>
            <path id="Trazado_126430" data-name="Trazado 126430" d="M101.56,140.79c-.59,1.19-1.22,2.59-1.45,3.2a3.75,3.75,0,0,0-.23,3c.43,2-.31,4.45-.37,5.78a21.378,21.378,0,0,1-.16,2.18,3.15,3.15,0,0,1-1.45-1.64c-.27-1.52,1.12-4.58,1.12-5.23a22.51,22.51,0,0,0-1.1-6.55,7.26,7.26,0,0,1-.47-2.21,55.215,55.215,0,0,1,5.28-1.84C102.9,138,102.16,139.6,101.56,140.79Z" fill="#a3b8d4"/>
            <path id="Trazado_126431" data-name="Trazado 126431" d="M105.52,129.64a5.81,5.81,0,0,0,.09-1.92c-.13-.37-1.1-.4-1.84-1a2.71,2.71,0,0,1-1-2.32,30.79,30.79,0,0,1,.3-4.23c.22-1.2.68-2.89,1.72-3.25s7.16,5.67,7,7.67-.49,3.34-.27,4.1-2.53.69-2.53.69Z" fill="url(#linear-gradient-9)"/>
            <path id="Trazado_126432" data-name="Trazado 126432" d="M107.63,128.44a7.13,7.13,0,0,0-2.4.53,4.46,4.46,0,0,0-.53,1.37,2.1,2.1,0,0,0,.46.16,40.747,40.747,0,0,0,4.16.28,7.13,7.13,0,0,0,3-1,1.06,1.06,0,0,0,.48-1.42,8.58,8.58,0,0,0-.79-.64l-2.26.53Z" fill="#fcfdfe"/>
            <path id="Trazado_126433" data-name="Trazado 126433" d="M105.18,125.72c.33.18.44-.14.65-.61s.22-1.6-.2-1.86-.65-.13-.79.35a5.66,5.66,0,0,0,.14,1.7A.51.51,0,0,0,105.18,125.72Z" fill="#fec0bf"/>
            <path id="Trazado_126434" data-name="Trazado 126434" d="M112.3,130.44c-1.7.9-5.92.76-7.5,1.44s-3.3.81-3.94,1.32a10.58,10.58,0,0,1,2.32,6.67c0,2.29,3.87,2.42,6.08,1.49s2.08-1.43,3.23-1.67,3.82,1,4.56-1.62.79-5.58.33-6.86-3.25-1-3.25-1Z" fill="#e1edfb"/>
            <path id="Trazado_126435" data-name="Trazado 126435" d="M107,125.3c-.7-.63-.7-1.93-1.32-2.26a.87.87,0,0,0-1.18.3,14.819,14.819,0,0,0-.09,2.15,13.9,13.9,0,0,1-.31-2.57,5.33,5.33,0,0,0-.3-2.1,2.31,2.31,0,0,1,.11-1.67c.2-.41.08-1.48.24-1.79a3,3,0,0,1,1.38-1.5,7.58,7.58,0,0,1,5-.1,5.93,5.93,0,0,1,3.37,5.22c-.13,2.2-.42,3.59-.32,4.36a9.519,9.519,0,0,0,.23,1.27l-1.26.42a7.239,7.239,0,0,0-1.76-.18,7,7,0,0,1-3-.61,3.48,3.48,0,0,1-.79-.94Z" fill="#754554"/>
            <path id="Trazado_126436" data-name="Trazado 126436" d="M112.65,126.66c-.23.17-.22.21-.15.54s.42.53,0,1.32-2.52,4.79,2.78,13.38a20,20,0,0,0,.56-7.24c-.33-2,0-5.39-.27-6.47a2.74,2.74,0,0,0-2-1.7,1.59,1.59,0,0,0-.92.17Z" fill="#754554"/>
            <path id="Trazado_126437" data-name="Trazado 126437" d="M92.23,142.48a1.23,1.23,0,0,1-1.08.35,1,1,0,0,1-.43-.21c-1.58-1.28-3.21-10.93-3.21-11.09s0-.12.15-.32l.08-.16a1.78,1.78,0,0,1,2.5,0c.3.31,2.26,5.68,2.67,6.22a3.07,3.07,0,0,1,.2.36A4.46,4.46,0,0,1,92.23,142.48Z" fill="#c7d9f0"/>
            <path id="Trazado_126438" data-name="Trazado 126438" d="M102.69,137.8a4.53,4.53,0,0,1-1.61,2.06A15.14,15.14,0,0,1,98,141.75c-3.21,1.53-6,1.44-6.85,1.08h0a1.67,1.67,0,0,1-.84-1.58,5.141,5.141,0,0,1,.1-1.13c.25-1.22,1.53-1.89,2.72-2.48l.24-.12c1.25-.61,3.19-2.54,4.38-3.44s3.11-1.69,4.26.08a6.19,6.19,0,0,1,.68,3.64Z" fill="#c7d9f0"/>
            <path id="Trazado_126439" data-name="Trazado 126439" d="M90.05,130.89a4.07,4.07,0,0,0,0,.74l-1.88.32A5.37,5.37,0,0,0,87,130.12l-1-1s-1.81-2.66-1.81-2.85a.42.42,0,0,1,.51-.36,1.59,1.59,0,0,1,.56.4s.15-.32.3-.3a.79.79,0,0,1,.43.31c.07.12,1.1,1.47,1.13,1.47h0c0-.15-.58-2-.56-2.18a.21.21,0,0,1,.14-.15c.11-.06.29,0,.49.18a2.81,2.81,0,0,1,.48,1,.46.46,0,0,1,.63,0,6.44,6.44,0,0,1,.87,1.68,13.682,13.682,0,0,1,1.06,1.46C90.29,130.07,90.05,130.38,90.05,130.89Z" fill="url(#linear-gradient-10)"/>
            <path id="Trazado_126440" data-name="Trazado 126440" d="M86.25,128a8,8,0,0,1-.93-.44,9.849,9.849,0,0,0-1.38-.68c-.26,0-.51.17-.34.37a17.369,17.369,0,0,0,1.65,1.39c.19.08,1.75,1.46,2,1.63s1.6.34,1.37-.66A1.65,1.65,0,0,0,87,128.4,2,2,0,0,1,86.25,128Z" fill="#febbba"/>
            <path id="Trazado_126441" data-name="Trazado 126441" d="M85.23,126.21c0,.1,1.3,2,1.3,2l-.35-.25-1-1.68Z" fill="#d6b3a6"/>
            <path id="Trazado_126442" data-name="Trazado 126442" d="M87.59,126.58l.27.9.37.61-.26-.88-.29-.69Z" fill="#d6b3a6"/>
            <path id="Trazado_126443" data-name="Trazado 126443" d="M87.41,128.18l-.36-.41h0c0-.15-.58-2-.56-2.18a.21.21,0,0,1,.14-.15c-.06.16,0,.33.1.82a15.46,15.46,0,0,0,.46,1.53,2.711,2.711,0,0,0,.22.39Z" fill="#d6b3a6"/>
            <path id="Trazado_126444" data-name="Trazado 126444" d="M101.08,139.86A15.14,15.14,0,0,1,98,141.75c-3.21,1.53-6,1.44-6.85,1.08a1,1,0,0,1-.43-.21c-1.58-1.28-3.21-10.93-3.21-11.09s0-.12.15-.32c.21,1.39,1.1,5.65,1.6,7.3a21.821,21.821,0,0,0,1,2.73,3.43,3.43,0,0,0,.61,1,3.82,3.82,0,0,0,1.33.24,12.79,12.79,0,0,0,3.53-.24,16.1,16.1,0,0,0,4.24-1.89A5,5,0,0,1,101.08,139.86Z" fill="#a3b8d4"/>
            <path id="Trazado_126445" data-name="Trazado 126445" d="M101.77,135.07c-.81-1.83-1.91-1.66-2.71-1.35a58.456,58.456,0,0,0-6.54,5c-.47.55-1.41,1.5-1.14,2.54s3.88-.14,5.14-.65,4.84-2.22,5.41-3S101.77,135.07,101.77,135.07Z" fill="#d3e1f2"/>
            <path id="Trazado_126446" data-name="Trazado 126446" d="M89.8,131a2.18,2.18,0,0,0-1.72,0c0,.57.84,4.48,1,5.34s1.81,4.75,2.4,5c1-1.59,1.4-2.22.89-3.33a27.082,27.082,0,0,1-1.65-4.27A20.688,20.688,0,0,0,89.8,131Z" fill="#d3e1f2"/>
            <path id="Trazado_126447" data-name="Trazado 126447" d="M113.57,125.85c-.43-.12-1.14.37-1.36.77s-.08.52,0,.64a4.856,4.856,0,0,0,.47.43,3.379,3.379,0,0,1,.93-.55,2.67,2.67,0,0,1,1-.11,2,2,0,0,0-1.04-1.18Z" fill="#fcfdfe"/>
          </g>
          <g id="Grupo_81569" data-name="Grupo 81569">
            <path id="Trazado_126448" data-name="Trazado 126448" d="M104,164.6c.09-2.83.5-8.21.57-11a4.1,4.1,0,0,1,2.47-3.4,67.219,67.219,0,0,0,12.77-7.37,2.36,2.36,0,0,1,1.37-.6h0a4.69,4.69,0,0,1,1.7.63s-.57,1-1.54,2.66c-.66,3.24-1.46,7.64-2,10.27a11.63,11.63,0,0,1-3.83,6.11,50.3,50.3,0,0,1-7.36,4.4c-.62.87-1,1.36-1.16,1.34a7.711,7.711,0,0,1-1.79-.63h0l-.12-.06h0A2.45,2.45,0,0,1,104,164.6Z" fill="#807abe"/>
            <g id="Grupo_81568" data-name="Grupo 81568">
              <path id="Trazado_126449" data-name="Trazado 126449" d="M108.11,167.41a48,48,0,0,0,8.73-5,11.56,11.56,0,0,0,3.83-6.1c.69-3.18,1.72-8.91,2.42-12.09.35-1.57-.52-1.92-1.91-.87a68.08,68.08,0,0,1-12.77,7.37,4.08,4.08,0,0,0-2.47,3.4c-.07,2.82-.48,8.2-.57,11C105.31,167,106.5,168.11,108.11,167.41Z" fill="#665eb1"/>
              <path id="Trazado_126450" data-name="Trazado 126450" d="M107.39,167.53a2.19,2.19,0,0,0,.86-.2,48.13,48.13,0,0,0,8.69-5,11.4,11.4,0,0,0,3.76-6c.33-1.52.72-3.58,1.14-5.75s.91-4.68,1.28-6.35a1.4,1.4,0,0,0-.07-1.1.39.39,0,0,0-.33-.14,2.31,2.31,0,0,0-1.22.57A67.551,67.551,0,0,1,108.69,151a3.94,3.94,0,0,0-2.35,3.23c0,1.48-.17,3.66-.29,5.78s-.23,3.9-.28,5.25a2.62,2.62,0,0,0,.59,1.89A1.4,1.4,0,0,0,107.39,167.53Z" fill="#575096"/>
            </g>
            <path id="Trazado_126451" data-name="Trazado 126451" d="M112.52,151.8a21.8,21.8,0,0,0,4.91-2.84,1.54,1.54,0,0,0,.59-1.12h0c0-.37-.26-.48-.59-.24a21.74,21.74,0,0,1-4.91,2.83,1.07,1.07,0,0,0-.59.93h0C111.93,151.73,112.19,151.94,112.52,151.8Z" fill="#3f366f"/>
          </g>
        </g>
        <g id="Grupo_81573" data-name="Grupo 81573">
          <ellipse id="Elipse_5519" data-name="Elipse 5519" cx="11.39" cy="6.57" rx="11.39" ry="6.57" transform="translate(87.235 104.132) rotate(-0.573)" fill="#e3e4ed"/>
          <g id="Grupo_81572" data-name="Grupo 81572">
            <g id="Grupo_81571" data-name="Grupo 81571">
              <path id="Trazado_126452" data-name="Trazado 126452" d="M96.86,105.38c.22.15.53.36.57.7a2.433,2.433,0,0,1-.12,1.14,15.409,15.409,0,0,1-1.33,1.13,7.29,7.29,0,0,1-1,.24l-1.32,2c-.18.27-1.86,2.08-3.65,1.56-.85-.29-1.16-.72-1.22-.94a3.89,3.89,0,0,1,.08-1l.94-.88Z" fill="#484848"/>
              <path id="Trazado_126453" data-name="Trazado 126453" d="M105.5,109.23c.11.28.75.94.7,1.34a15,15,0,0,1-.23,2.8,2.28,2.28,0,0,1-2.61,1.55c-1.81-.08-2-1-2-1a3,3,0,0,1-.16-1.45,14.251,14.251,0,0,1,.5-1.84,13.689,13.689,0,0,1,1.73-1Z" fill="#484848"/>
              <path id="Trazado_126454" data-name="Trazado 126454" d="M96.92,104.12c.08.54.49,1.26.36,1.91s-1.7,1.67-2,1.86a21.841,21.841,0,0,0-2.08,2.51c-.35.49-2,1.81-3.35,1.28s-.55-2.4-.35-2.61a26.369,26.369,0,0,1,2.7-2.71c.56-.33.82-1.75,1.26-2.11S96.92,104.12,96.92,104.12Z" fill="#626b6c"/>
              <path id="Trazado_126455" data-name="Trazado 126455" d="M105.14,106.68c.13.67.85,2.65.9,3.25s.1,2.79-.54,3.56a2.76,2.76,0,0,1-2.5.93,1.62,1.62,0,0,1-1.38-1.73,24.451,24.451,0,0,1,.15-2.48,24.048,24.048,0,0,1,0-2.63c.1-.6,2.15-1.32,2.15-1.32Z" fill="#626b6c"/>
              <path id="Trazado_126456" data-name="Trazado 126456" d="M85.43,58.72a.93.93,0,0,0,.68.21c1.7-.13,5.35-4.41,6.23-5.48l.82-3.18.45-1.72s.16-2.94-1.44-2.54-6.45,8.19-7,8.77h0C84.69,55.36,84.5,58,85.43,58.72Z" fill="#b87287"/>
              <path id="Trazado_126457" data-name="Trazado 126457" d="M72.56,57.13a1.1,1.1,0,0,0,.06.46c.17.26,11.86,1.66,13.49,1.34.78-.16.81-.9.63-1.63h0a7.22,7.22,0,0,0-.64-1.56c-.65-.65-.76-.86-1-.91a1.05,1.05,0,0,0-.37,0c-.58.05-11.37-.34-11.72-.26S72.56,56.28,72.56,57.13Z" fill="#b87287"/>
              <path id="Trazado_126458" data-name="Trazado 126458" d="M64.2,53.58v.09a6.3,6.3,0,0,0,1.57.55l2,.57-2.53-.51a1.57,1.57,0,0,0-.43,0,.41.41,0,0,0-.16,0c-.21.06-.19.38-.18.48l3.1,1,.34.19-.2.2H66.05s-.51,0-.58.18.11.38.41.43,1.66.21,1.66.21L69,57l.58.15c.47.11,1.1.25,1.45.29a5,5,0,0,0,1.75,0,.33.33,0,0,0,.09-.14,13,13,0,0,0,.28-2.59s-1.89-1.78-2-1.86-2-.48-2.3-.57a2.06,2.06,0,0,0-.77,0v.2l-2.25-.65c-.48-.13-.68.07-.7.26a.32.32,0,0,0,0,.14,24.729,24.729,0,0,0,2.95,1.32l.07.18-2-.34H66l-1.35-.22C64.21,53.07,64.15,53.37,64.2,53.58Z" fill="url(#linear-gradient-11)"/>
              <path id="Trazado_126459" data-name="Trazado 126459" d="M68.66,53.14a1.68,1.68,0,0,0,.32.09l.48.11a3,3,0,0,1,.79.25l.11.08a.43.43,0,0,1,0,.16,1.45,1.45,0,0,1,0,.36.55.55,0,0,0,0,.18.34.34,0,0,0,.06.12l.25.43a2.62,2.62,0,0,1-.53-.33.52.52,0,0,1-.14-.16c-.09-.16,0-.35,0-.52a.11.11,0,0,0,0-.08h-.07l-.21-.07a7.389,7.389,0,0,1-1-.36,1.08,1.08,0,0,1-.59-.44.56.56,0,0,1,0-.42.62.62,0,0,0,.26.43,1.2,1.2,0,0,0,.27.17Z" fill="#d6b3a6"/>
              <path id="Trazado_126460" data-name="Trazado 126460" d="M68.22,55.93s-2.81-.87-3.71-1.17l3.1,1,.34.19-.17.17h.17a.85.85,0,0,0,.27-.19Z" fill="#d6b3a6"/>
              <path id="Trazado_126461" data-name="Trazado 126461" d="M64.2,53.58v.09a6.3,6.3,0,0,0,1.57.55l2,.57-2.53-.51a1.57,1.57,0,0,0-.43,0c.77.17,2.65.62,2.65.62a5.872,5.872,0,0,0,.6,0c.12,0,0,0,0,0s-.6-.24-.94-.36a29.411,29.411,0,0,1-2.92-.96Z" fill="#d6b3a6"/>
              <path id="Trazado_126462" data-name="Trazado 126462" d="M65.1,52.08a.32.32,0,0,0,0,.14,24.729,24.729,0,0,0,2.95,1.32l.07.18-2-.34c.5.1,2.19.45,2.43.47s-.07-.12-.18-.21a1.39,1.39,0,0,0-.37-.22c-.12,0-2.18-.91-2.43-1a2.41,2.41,0,0,1-.47-.34Z" fill="#d6b3a6"/>
              <path id="Trazado_126463" data-name="Trazado 126463" d="M72.63,56.55a.9.9,0,0,0,.07-.27C72.68,56.37,72.65,56.46,72.63,56.55Z" fill="#d6b3a6"/>
              <path id="Trazado_126464" data-name="Trazado 126464" d="M69.57,57.17c.47.11,1.1.25,1.45.29a5,5,0,0,0,1.75,0,.33.33,0,0,0,.09-.14.49.49,0,0,1-.26-.15.55.55,0,0,1,0-.42c0-.07,0-.13,0-.19a1,1,0,0,1-.15.25,1.12,1.12,0,0,1-.37.35,3.1,3.1,0,0,1-.53.1h-.19a5.279,5.279,0,0,1-1,0Z" fill="#d6b3a6"/>
              <path id="Trazado_126465" data-name="Trazado 126465" d="M72.56,57.13a1.1,1.1,0,0,0,.06.46c.17.26,11.86,1.66,13.49,1.34,1.7-.13,5.35-4.41,6.23-5.48l.82-3.18a1.83,1.83,0,0,0-1.89,1.06c-.06.13-.1.28-.15.41-.21.65-.55,1.25-.81,1.88a1,1,0,0,0-.1.34,2.32,2.32,0,0,1,0,.59c-.18.41-.18.89-.38,1.3a2.33,2.33,0,0,1-.38.51,5.55,5.55,0,0,1-1.2,1.07,3.23,3.23,0,0,1-1.31.68,2.83,2.83,0,0,0-.15-.81h0a2.92,2.92,0,0,0-.9-1.31,1.6,1.6,0,0,0,.18.68,9.06,9.06,0,0,1,.49,1.5.56.56,0,0,1,0,.34c-.08.23-.88.18-1.09.23a2.93,2.93,0,0,1-.66,0,38.56,38.56,0,0,1-6.62-.64C76.1,57.7,74.55,57.51,72.56,57.13Z" fill="#a36578"/>
              <path id="Trazado_126466" data-name="Trazado 126466" d="M80.18,54.93a30.378,30.378,0,0,1,3.82.25,2,2,0,0,1,.73.2,1.75,1.75,0,0,1,.48.46A3,3,0,0,1,86,57.77a.59.59,0,0,1-.07.29c-.13.22-.43.24-.68.23a33.75,33.75,0,0,1-6.08-.87c-1-.22-2-.47-3-.72-.43-.12-.89-.19-1.31-.34a7.7,7.7,0,0,1-1.32-.72h0a.57.57,0,0,1,0-.68c.26-.34.87-.2,1.24-.19l1.79.07Z" fill="#c47a90"/>
              <path id="Trazado_126467" data-name="Trazado 126467" d="M90.84,82.61c.68,7,2.22,21.63,2.15,22.22s1,.85,2.48.91a2.32,2.32,0,0,0,1-.14,1.86,1.86,0,0,0,1.16-1.29c.1-.43.23-11.33,0-13.32.39-5,.4-11.45.31-14.28a5.238,5.238,0,0,0-.05-1c-.13-1.83-.52-5.68-2.12-6.59s-4.89-.59-4.89-.59a80.589,80.589,0,0,0-.04,14.08Z" fill="#485455"/>
              <path id="Trazado_126468" data-name="Trazado 126468" d="M96.57,85.86c-.08,4.48-.51,8.1-.38,11.24.1,2.44,0,6.4.24,8.5a1.86,1.86,0,0,0,1.16-1.29c.1-.43.23-11.33,0-13.32.39-5,.4-11.45.31-14.28-1.6-.44-2.84-.68-2.84-.68a31.66,31.66,0,0,1,1.51,9.83Z" fill="#424747"/>
              <path id="Trazado_126469" data-name="Trazado 126469" d="M96.91,105.24h.26c0-.09-.52-10.07-.13-14.06a44.66,44.66,0,0,0-.86-13.58l-.25.07a44.69,44.69,0,0,1,.85,13.49C96.39,95.15,96.91,105.15,96.91,105.24Z" fill="#788182"/>
              <path id="Trazado_126470" data-name="Trazado 126470" d="M94.88,77.13c.46,1.66,1.47.94,1.47,1.46s3.23,9.17,3.72,11.68,1.17,16.84,1.21,17.26.88.59,1.86.56a4.3,4.3,0,0,0,2.38-.66.83.83,0,0,0,.29-.52c.14-.88.1-14.16,0-14.78a69.437,69.437,0,0,1,.25-11.07,35.34,35.34,0,0,0-.71-12.4h-1c-2.44,0-8.38.18-9,1.16C94.52,71.06,94.43,75.46,94.88,77.13Z" fill="#485455"/>
              <path id="Trazado_126471" data-name="Trazado 126471" d="M105.13,90.34c.32,2.42.39,8.8.42,10v7.12a.83.83,0,0,0,.29-.52c.14-.88.1-14.16,0-14.78a69.44,69.44,0,0,1,.25-11.07,35.34,35.34,0,0,0-.71-12.4h-1a44.51,44.51,0,0,1,1.24,7.57C105.58,78.07,104.8,87.91,105.13,90.34Z" fill="#424747"/>
              <path id="Trazado_126472" data-name="Trazado 126472" d="M102.27,75.57a7.56,7.56,0,0,0,3.34-1l-.12-.23c-1.82.93-3.31,1.2-4.32.76a2.07,2.07,0,0,1-1.11-1.17l-.25.07a2.27,2.27,0,0,0,1.25,1.34,3.11,3.11,0,0,0,1.21.23Z" fill="#788182"/>
              <path id="Trazado_126473" data-name="Trazado 126473" d="M91.08,73.77h0A2.45,2.45,0,0,0,93,72.42l-.24-.11A2.15,2.15,0,0,1,91.1,73.5a1,1,0,0,1-.94-.68l-.23.11A1.27,1.27,0,0,0,91.08,73.77Z" fill="#788182"/>
              <path id="Trazado_126474" data-name="Trazado 126474" d="M96.29,79.27h.25l-.08-.42a17.84,17.84,0,0,1-.27-5.55h-.26a17.74,17.74,0,0,0,.28,5.66Z" fill="#788182"/>
              <path id="Trazado_126475" data-name="Trazado 126475" d="M96.14,78.52h.08v-.26a1.39,1.39,0,0,1-1.3-.7c-.37-.82-.25-3.66-.16-4.55H94.5c-.06.58-.25,3.73.19,4.68A1.57,1.57,0,0,0,96.14,78.52Z" fill="#788182"/>
              <path id="Trazado_126476" data-name="Trazado 126476" d="M90.82,69.05A9.48,9.48,0,0,0,96,71.26a13.41,13.41,0,0,0,6.78-.58c.79-.26,2.58-1.64,2.73-1.51a5.63,5.63,0,0,1,.27,1.32c0,.12-1,1.31-4,2a17.66,17.66,0,0,1-7,.37,8.28,8.28,0,0,1-4.42-2.72,8.059,8.059,0,0,1,.16-1.26Z" fill="#70524b"/>
              <rect id="Rectángulo_35070" data-name="Rectángulo 35070" width="0.46" height="2.29" transform="translate(98.662 71.342) rotate(-1.34)" fill="#485455"/>
              <path id="Trazado_126477" data-name="Trazado 126477" d="M93.27,72.83l.44-.11a5.69,5.69,0,0,1,.12-2l-.44-.1a5.68,5.68,0,0,0-.12,2.21Z" fill="#485455"/>
              <path id="Trazado_126478" data-name="Trazado 126478" d="M96.73,71.5c.21,0,.32.23.3.68s0,1.13-.18,1.2a7.06,7.06,0,0,1-2.47-.32c-.41-.26-.18-2,0-2A17.739,17.739,0,0,1,96.73,71.5Z" fill="#c4c4c4"/>
              <path id="Trazado_126479" data-name="Trazado 126479" d="M105.74,107.34c0-.06.29-5.84.18-8.19s-.28-6.18-.51-8.19a64.319,64.319,0,0,1,.24-7.92c.09-1.32.17-2.56.22-3.66a30.61,30.61,0,0,0-.49-7.49l-.12-.8H105l.13.81a30.61,30.61,0,0,1,.48,7.43c0,1.09-.13,2.34-.22,3.66a64.9,64.9,0,0,0-.24,8c.23,2,.39,5.7.51,8.18.11,2.33-.17,8.09-.18,8.15Z" fill="#788182"/>
              <path id="Trazado_126480" data-name="Trazado 126480" d="M90.84,68.48c0,.33.46,1.83,4.73,2.71A15.59,15.59,0,0,0,104,70.08a3.56,3.56,0,0,0,1.08-.59c.3-.39.49-2.25.69-4.89.13-1.82,1.61-5.45,2.68-8.16a28.739,28.739,0,0,0,1-2.86c.48-1.93-.62-3.43-2.61-4.76a26.72,26.72,0,0,0-6.69-3,7.38,7.38,0,0,0-1.57-.55,44,44,0,0,0-6.09.55c-.59.23-.69.36-1.08,2.68s-.1,7.57-.07,9.2S90.84,68.16,90.84,68.48Z" fill="#dde8f6"/>
              <path id="Trazado_126481" data-name="Trazado 126481" d="M97.37,51.23s-1.78,3.17-2.52,17.25l.68,1.57L96.41,69a85.719,85.719,0,0,1,1.71-17.46Z" fill="#6865c9"/>
              <path id="Trazado_126482" data-name="Trazado 126482" d="M104,70.08a3.56,3.56,0,0,0,1.08-.59c.3-.39.49-2.25.69-4.89.13-1.82,1.61-5.45,2.68-8.16a2.849,2.849,0,0,0-.12-.3l-1.15-1.48a12.47,12.47,0,0,0-2.94,7.41C104.11,65.24,104.65,67.76,104,70.08Z" fill="#dae2eb"/>
              <path id="Trazado_126483" data-name="Trazado 126483" d="M95.15,73.8a2,2,0,0,0,1.69,2.13,18.26,18.26,0,0,0,6.31.31,12.27,12.27,0,0,0,2.28-.65c1.48-.62,1.19-1.25,1.22-1.63a29.84,29.84,0,0,0-.59-4.21,20.87,20.87,0,0,1,.14-6.12c.13-.47,1.08-2.67,2-5,1.09-2.64,2.16-5.45,2-6a6.47,6.47,0,0,0-2.31-3.33c-1.24-1-4.85-3.29-4.85-3.29l-.7,1.53-1,2.87s-1.8,1.11-2.61,4.59c-.39,1.72-2.46,5.68-2.9,9.67a82.8,82.8,0,0,0-.68,9.13Z" fill="#c98398"/>
              <path id="Trazado_126484" data-name="Trazado 126484" d="M104.6,65.16c.16,2,.64,7.67.69,9.26a9.439,9.439,0,0,0,.14,1.17c1.48-.62,1.19-1.25,1.22-1.63a29.84,29.84,0,0,0-.59-4.21,20.87,20.87,0,0,1,.14-6.12c.13-.47,1.08-2.67,2-5-.87-2.25-1.6-4.11-1.6-4.11C105.58,58.34,104.44,63.2,104.6,65.16Z" fill="#e4eaf1"/>
              <path id="Trazado_126485" data-name="Trazado 126485" d="M106.56,66.92a.95.95,0,0,0,.07.45,2.54,2.54,0,0,0,3.18,1.9.94.94,0,0,0,.53-.54v-.15a2.705,2.705,0,0,1,.06-.58h0v-.2c.15-2.72,0-10.28.19-12.16a8.2,8.2,0,0,0-.84-4.43.76.76,0,0,0-.44-.34,2.58,2.58,0,0,0-1.76.77c-.47.57-.75,1.2-1.3,4.91a40.75,40.75,0,0,0,.31,10.37Z" fill="#b87287"/>
              <path id="Trazado_126486" data-name="Trazado 126486" d="M106.27,78a2.38,2.38,0,0,0,2.38.71.45.45,0,0,0,.23-.22c.28-.65,1.14-7.42,1.46-9.77a3.169,3.169,0,0,1,.1-.73h0a1.409,1.409,0,0,0,0-.2c0-.36-.28-.55-.65-.67a7.4,7.4,0,0,0-.92-.2h-2.32S106.1,77.45,106.27,78Z" fill="#b87287"/>
              <path id="Trazado_126487" data-name="Trazado 126487" d="M103,40.12A13.31,13.31,0,0,0,103,45c.19,1.09.7,1.83.37,2.45s-2,2.88-4.07,3-2-1.63-2.06-2.26.47-2.47.13-3.59.2-6,.2-6Z" fill="url(#linear-gradient-12)"/>
              <path id="Trazado_126488" data-name="Trazado 126488" d="M97.5,46a15.751,15.751,0,0,0-.1,2.7,4.13,4.13,0,0,0,.51,1.11v.65l-1.61,1a6.27,6.27,0,0,1-.45-3.21,4.69,4.69,0,0,1,1.73-3.12Z" fill="#fcfdfe"/>
              <path id="Trazado_126489" data-name="Trazado 126489" d="M90,72.87c.33,1.21,2,1.88,3,2.13a2.25,2.25,0,0,0,2.86-1.57c.08-1-.19-.5.09-6.05,0-.8-.66-16.58-.65-17.47,0-2.18,2.19-4.51,1.91-4.66a21.24,21.24,0,0,0-4.83.56C91.06,46.29,90.19,49,90.62,58A95.189,95.189,0,0,1,90,72.87Z" fill="#c98398"/>
              <path id="Trazado_126490" data-name="Trazado 126490" d="M97.91,45.82a1.39,1.39,0,0,0-1.79-.46,8.86,8.86,0,0,0-1.86,1.76c-1,1.44,0,5,0,5a7.49,7.49,0,0,0-.82,1.14C93.91,60,95.69,72,95.69,72s.42-13.94-.16-18.9C94.77,46.68,97.91,45.82,97.91,45.82Z" fill="#db9fb1"/>
              <path id="Trazado_126491" data-name="Trazado 126491" d="M97.51,46.3a.27.27,0,0,0,.18.12.79.79,0,0,0,.52-.06,4.25,4.25,0,0,0,1.21-.59,1.52,1.52,0,0,0,.62-1.15.44.44,0,0,0-.21-.43.39.39,0,0,0-.3,0,1.53,1.53,0,0,0-.27.17,3.25,3.25,0,0,1-.61.33c-.31.12-.65.19-1,.34a.53.53,0,0,0-.28.25.423.423,0,0,0,.07.39c.07.13-.06.27,0,.42a.4.4,0,0,0,.07.21Z" fill="#d6b3a6"/>
              <path id="Trazado_126492" data-name="Trazado 126492" d="M94.65,35.59a10.11,10.11,0,0,0-.55,3.94,2.42,2.42,0,0,1,0,1s-.05,4.58.7,5.24,4.21,0,5-.87a8.91,8.91,0,0,0,1.67-4.82,5.23,5.23,0,0,0-1.14-4C99.86,35.39,94.65,35.59,94.65,35.59Z" fill="url(#linear-gradient-13)"/>
              <path id="Trazado_126493" data-name="Trazado 126493" d="M100.27,40.75c.5-.1,1,.18.85,1s-.69,2.06-1.24,1.74-.27-1.25-.27-1.25S99.81,40.84,100.27,40.75Z" fill="#febebd"/>
              <path id="Trazado_126494" data-name="Trazado 126494" d="M95.31,37.56c.42.1,1.46.28,1.46.28v1.89l1.24.52s.54.52.5.69,0,1.23,0,1.23l.65-.21s.2-1.19,1-1.28a1.07,1.07,0,0,1,1.16,1c0,.4-.32,1-.22,1.29s1.48.05,1.74-.13a17.06,17.06,0,0,0,1.39-4.34c.21-1.28.2-3.52-2-4.19-1.66-2-4.57-1.5-5.3-1.24s-2.9,2.06-3,2.78a1.62,1.62,0,0,0,.39,1.27Z" fill="#754942"/>
              <path id="Trazado_126495" data-name="Trazado 126495" d="M108.65,78.72a.45.45,0,0,0,.23-.22c.28-.65,1.14-7.42,1.46-9.77v-.15a2.705,2.705,0,0,1,.06-.58h0a1.409,1.409,0,0,0,0-.2c.15-2.72,0-10.28.19-12.16a8.2,8.2,0,0,0-.84-4.43,16.84,16.84,0,0,1,.47,4.74c-.08,2,.18,8.61,0,10a2.57,2.57,0,0,1-.47,1.23,1.2,1.2,0,0,1-.46.38s.55.18.55.4a5,5,0,0,1-.08,1.37C109.69,69.7,109,76.27,108.65,78.72Z" fill="#a36578"/>
              <path id="Trazado_126496" data-name="Trazado 126496" d="M104.18,83.68c.49,0,.85-.88.85-.88l.39-1.46h0v1.6L104.9,84l-.51.43a.37.37,0,0,0,0,.09.42.42,0,0,0,.34.24,2.45,2.45,0,0,0,.66-.15h.63l.63-.14h.15l.22-.28a3.9,3.9,0,0,1,.43-.45,9,9,0,0,0,1-1.89c.08-.33,0-2.84.13-3.36l.08-.46s-.57-.65-1.06-.65a3,3,0,0,0-1.11.32s-.27,1-.8,1.29a6.74,6.74,0,0,0-1.3,2l-.34,1.91S103.69,83.72,104.18,83.68Z" fill="url(#linear-gradient-14)"/>
              <path id="Trazado_126497" data-name="Trazado 126497" d="M107,83.62l-.33.85h.15l.22-.28c.18-.47.44-1.16.53-1.34l.1-.31Z" fill="#d6b3a6"/>
              <path id="Trazado_126498" data-name="Trazado 126498" d="M106.23,83.87l-.47.75H106c.15-.3.37-.8.37-.8l.5-1.42Z" fill="#d6b3a6"/>
              <path id="Trazado_126499" data-name="Trazado 126499" d="M104.39,84.45a.37.37,0,0,0,0,.09l.7-.58a8.256,8.256,0,0,0,.4-1c.01-.15.1-1.68.1-1.68l-.07-.6-.14.62h0v1.6L104.9,84Z" fill="#d6b3a6"/>
              <path id="Trazado_126500" data-name="Trazado 126500" d="M103,45a.64.64,0,0,1,.75.43,4.48,4.48,0,0,1,.36,2.4,6.25,6.25,0,0,1-2.42,3.16,7.75,7.75,0,0,1-3.33,1.74l-.44-2.23v-.7a6.13,6.13,0,0,0,3.38-1.1A3.81,3.81,0,0,0,103,45Z" fill="#fcfdfe"/>
              <path id="Trazado_126501" data-name="Trazado 126501" d="M103.74,45.38A4.3,4.3,0,0,1,105,47.74a5.15,5.15,0,0,1-1,2.52c-.91,1-1.55,1.46-2.15,2.09a11.849,11.849,0,0,0-1.5,2l.58.82s-2.55,5.36-3,6.47-2.32,6.75-2.32,6.75a28.76,28.76,0,0,1,1-8.92,38.67,38.67,0,0,1,2.58-7.27c.62-1.46,2.45-2.46,3.19-3.44C104.26,46.9,103.74,45.38,103.74,45.38Z" fill="#db9fb1"/>
            </g>
            <path id="Trazado_126502" data-name="Trazado 126502" d="M97.99,49.91,97,50.97l.54,1,.95-.54-.02-.33Z" fill="#7c78f0"/>
          </g>
        </g>
      </g>
      <g id="Grupo_81578" data-name="Grupo 81578">
        <path id="Trazado_126503" data-name="Trazado 126503" d="M128.33,128.57c4.64,2.67,12.17,2.66,16.84,0s4.68-7,.05-9.72-12.17-2.66-16.83,0S123.7,125.89,128.33,128.57Z" fill="#e3e4ed"/>
        <g id="Grupo_81577" data-name="Grupo 81577">
          <g id="Grupo_81575" data-name="Grupo 81575">
            <path id="Trazado_126504" data-name="Trazado 126504" d="M127.71,122.93a1.09,1.09,0,0,0-.67.67c0,.17,0,.83,0,.83a4.29,4.29,0,0,0,1.72,1.91,4.83,4.83,0,0,0,2.62.72,4.82,4.82,0,0,1,1.68.43,1.8,1.8,0,0,0,.15.37,6.29,6.29,0,0,0,1.67.77,2.39,2.39,0,0,0,1.78.05,1.46,1.46,0,0,0,1-.93v-1.24a.823.823,0,0,0-.52-.73Z" fill="#4f5a5b"/>
            <path id="Trazado_126505" data-name="Trazado 126505" d="M139.26,117.3c-.17.09-.31.14-.36.23a1.87,1.87,0,0,0-.09.63,2.37,2.37,0,0,0,.6,1.32,3.45,3.45,0,0,0,1.2,1.07c.34.18.49.32.65.31a.7.7,0,0,1,.45.25,3.19,3.19,0,0,1,.46.76c0,.22,0,.35,0,.54a2.81,2.81,0,0,0,.93,1.43c.65.48,2.91.26,3.1-.45a3.88,3.88,0,0,0-.06-1.31,33.63,33.63,0,0,0-3.21-2.87Z" fill="#4f5a5b"/>
            <path id="Trazado_126506" data-name="Trazado 126506" d="M137.15,124.67a5.07,5.07,0,0,1,.25,2.2c-.09.37-1.23,1.16-2.94.49s-4.68-1.14-5.59-1.65a2.76,2.76,0,0,1-1.62-2.15,1.53,1.53,0,0,1,.65-1.21,6.21,6.21,0,0,1,2.5-.26h2.18Z" fill="#626b6c"/>
            <path id="Trazado_126507" data-name="Trazado 126507" d="M145.93,119.86a13.069,13.069,0,0,1,.25,2.32c0,.17-.38.65-1.53.75a1.93,1.93,0,0,1-2-.69,7.06,7.06,0,0,0-1.15-1.76,17.85,17.85,0,0,1-1.79-1.23,1.77,1.77,0,0,1-.63-1.86,1.32,1.32,0,0,1,.85-.63,2.86,2.86,0,0,1,1.46.17C141.63,117.14,145.93,119.86,145.93,119.86Z" fill="#626b6c"/>
            <path id="Trazado_126508" data-name="Trazado 126508" d="M144.32,79.85c.4.4.64.16.68.59a28.1,28.1,0,0,1,.68,6.13,50.771,50.771,0,0,1-.67,6.28,101.221,101.221,0,0,0,.36,11.93c.24,1.58,1.1,13.37.71,16.08a3.64,3.64,0,0,1-4.65-1c-.29-.53-.52-8.63-1.45-13.27s-1.58-8.66-1.84-9.76a97.414,97.414,0,0,1-.58-9.9,36.149,36.149,0,0,1,.58-5.33Z" fill="#485455"/>
            <path id="Trazado_126509" data-name="Trazado 126509" d="M142.77,120.86h-.21a60.219,60.219,0,0,0-.84-6.13c-.17-1.09-.35-2.22-.5-3.16-.38-2.61-1.26-6.6-1.78-9l-.27-1.27a32.781,32.781,0,0,1-.19-8h.21a33.45,33.45,0,0,0,.18,7.92c.07.31.17.75.28,1.27.52,2.38,1.39,6.38,1.78,9,.14,1,.32,2.07.5,3.16a60.9,60.9,0,0,1,.84,6.21Z" fill="#788182"/>
            <path id="Trazado_126510" data-name="Trazado 126510" d="M142,81.33a23.12,23.12,0,0,1,.65,6.72c-.22,2-.35,4.36-3,5.91-.23.56-1.58,12.87-1.58,14.64s-.62,15.9-.67,17c-1.76,2-4.27.31-4.68-.34a3.41,3.41,0,0,1-.49-1.83c0-.52,0-11.75-.39-16.71s-1.12-12.13-1.16-16.28,1.11-6.85,1.41-8.55S142,81.33,142,81.33Z" fill="#485455"/>
            <path id="Trazado_126511" data-name="Trazado 126511" d="M133,125.6h-.21a63.287,63.287,0,0,0,.14-9.32c-.17-1.72-.34-4.1-.53-6.62-.23-3.17-.5-6.75-.79-9.74a72.227,72.227,0,0,1-.44-9v-.37a21.07,21.07,0,0,1,1.32-6.36l.19.09a21.79,21.79,0,0,0-1.3,6.28v.36a71.892,71.892,0,0,0,.44,8.94c.29,3,.56,6.58.79,9.74.19,2.52.36,4.9.53,6.62a63.809,63.809,0,0,1-.14,9.38Z" fill="#788182"/>
            <path id="Trazado_126512" data-name="Trazado 126512" d="M136.77,95.71a9.18,9.18,0,0,1-3-.87,59.552,59.552,0,0,1-.41-6.38v-.13h.12a25.2,25.2,0,0,0,7.62-.44h.15v.15c0,.2-.77,4.86-1,5.33a16.511,16.511,0,0,1-3.31,2.34Zm-3.2-7.13c.07,2.29.23,5.88.36,6.13a10.24,10.24,0,0,0,2.89.79A16.59,16.59,0,0,0,140,93.26c.18-.35.74-3.68,1-5.11A27,27,0,0,1,133.57,88.58Z" fill="#788182"/>
            <path id="Trazado_126513" data-name="Trazado 126513" d="M145.15,92.45h-.09c-1.75-.38-1.75-.44-1.75-.54a4.439,4.439,0,0,1,.17-.84c.3-1.35.9-4.16.9-4.59v-.06h.05a3.89,3.89,0,0,0,1.16-1.06l.17-.28v.33c.08,1.21-.32,6.16-.34,6.37h0Zm-1.62-.6c.2.07.86.22,1.49.36l.22-.51c0-.31.36-4.48.35-6a4.41,4.41,0,0,1-1,.84c0,.6-.6,3.17-.9,4.57C143.62,91.44,143.56,91.72,143.53,91.85Z" fill="#788182"/>
            <path id="Trazado_126514" data-name="Trazado 126514" d="M145.25,81.78c-.21.41-.66,1.29-4.38,2.32a17.41,17.41,0,0,1-7.17.74,3.09,3.09,0,0,1-2.17-1.06s.09-.86.14-1.11a1.21,1.21,0,0,1,.16-.39s-.29.58,2.34,1.08,6.82-.85,7.75-1.2A31.754,31.754,0,0,0,145,80.52S145.36,81.57,145.25,81.78Z" fill="#754554"/>
            <path id="Trazado_126515" data-name="Trazado 126515" d="M142.27,81.83s.6,2,.6,2.07-.6.3-.6.3l-.53-2.11Z" fill="#485455"/>
            <path id="Trazado_126516" data-name="Trazado 126516" d="M133.94,83.15l.69.08-.21,2.5-.85-.14Z" fill="#485455"/>
          </g>
          <g id="Grupo_81576" data-name="Grupo 81576">
            <path id="Trazado_126517" data-name="Trazado 126517" d="M144.88,59.13A6.46,6.46,0,0,1,147.6,59c.65.15,1.83,1.13,1.92,3.42s.41,2.71-.84,7-3.08,9.09-3.24,9.95-.12,1.2-.21,1.45-3,1.72-6.74,2.14-5.8-.17-6.19-.39a1,1,0,0,1-.61-.75,36.618,36.618,0,0,1,.49-6.44l1-4.45a62.367,62.367,0,0,1,.64-6.24c.48-.71,3.61-1.9,4.62-2.91A8,8,0,0,1,141,60.2Z" fill="#dde8f6"/>
            <path id="Trazado_126518" data-name="Trazado 126518" d="M135.06,64.26a3.8,3.8,0,0,1,2,3.48c0,1.18-.32,2.33-2.3,3.25s-4,1.92-5.69,2.05S126,72.43,126.05,71a2.5,2.5,0,0,1,1.63-2.62,33.377,33.377,0,0,0,4.65-2.67C133.65,64.65,134.32,63.91,135.06,64.26Z" fill="#c7d9f0"/>
            <path id="Trazado_126519" data-name="Trazado 126519" d="M132.86,58.42A11,11,0,0,1,135.2,60c.07.08-3.6,7.63-4.29,8.76s-5.22,2.64-4.61.85a47.09,47.09,0,0,1,4.42-8.43,17.6,17.6,0,0,1,2.14-2.76Z" fill="#c7d9f0"/>
            <path id="Trazado_126520" data-name="Trazado 126520" d="M132.93,58.62l.08.71,1.06.62h.09l.59-.27a9.519,9.519,0,0,0,1.07-.91c.18-.26.27-.61.36-.68s.55-.29.7-.4.77-.45.77-.45a1,1,0,0,0,.22.15c.11.07.36-.11.35-.21s-.24-.33-.23-.36h0a1.471,1.471,0,0,0-.05-.36.33.33,0,0,0-.35-.24l-.06-.19s-.1-.27-.3-.3a4.19,4.19,0,0,0-.52,0l.26-.33h.27a.53.53,0,0,0,.47-.15.31.31,0,0,0,0-.49,2.22,2.22,0,0,0-.82-.22,2.6,2.6,0,0,0-.83.36l.65-.64s.79-.62.86-.69.37-.25.36-.53-.1-.22-.2-.22-1.4.67-1.58.73a20.081,20.081,0,0,0-2,1.75,20,20,0,0,0-1.22,3.32Z" fill="#fec7c7"/>
            <path id="Trazado_126521" data-name="Trazado 126521" d="M135,56.13c.13.26.27.33.37.54a.46.46,0,0,0,.44.31c.25,0,.78-.39.9-.43a2.89,2.89,0,0,1,.86-.3v-.07l-.62.18h-.22l-.34.07-.08-.15-.17.34a1.27,1.27,0,0,1-.43.09c-.11,0-.2-.21-.2-.21s.28-.17.28-.38a1.64,1.64,0,0,1,.07-.43h.28l.17.13.4-.08.26-.33h.27a.57.57,0,0,0,.35-.06l.12-.09h-.82s-.16.26-.28.31a1,1,0,0,1-.36,0l-.13-.08h-.31l.33-.5.08-.21-.21.13.66-.65,1-.8.13-.14h-.06l-.86.69s-.88.65-.95.86-.33.61-.36.77a1.16,1.16,0,0,1-.27.45A1,1,0,0,1,135,56.13Z" fill="#ef989a"/>
            <path id="Trazado_126522" data-name="Trazado 126522" d="M134.07,60h.09l.59-.27a9.518,9.518,0,0,0,1.07-.91c.18-.26.27-.61.36-.68s.55-.29.7-.4.77-.45.77-.45a1,1,0,0,0,.22.15c.11.07.36-.11.35-.21s-.24-.33-.23-.36h0a2.09,2.09,0,0,1-.28.27,7.121,7.121,0,0,1-.92.58,4.349,4.349,0,0,0-1,.58,6,6,0,0,1-.64.87c-.2.2-.74.34-.89.49a1.45,1.45,0,0,0-.19.34Z" fill="#fec7c7"/>
            <path id="Trazado_126523" data-name="Trazado 126523" d="M146.46,51.51a12.75,12.75,0,0,1-.7,4.4,6.86,6.86,0,0,0-.21,2.51c0,.57-1.87,1.14-3.33,1.43s-2.37.62-2.36,0a7.64,7.64,0,0,0-.29-2.48c-.29-.85-.73-.83-1.35-1s.17-3.1.17-3.1l2.25-4.18Z" fill="url(#linear-gradient-15)"/>
            <path id="Trazado_126524" data-name="Trazado 126524" d="M138.74,47.56a12.249,12.249,0,0,0-.93,3,4.93,4.93,0,0,1,.07.75c0,.08-.38.33-.36.56a2.53,2.53,0,0,0,.29.7,22.73,22.73,0,0,0-.29,2.31A2.47,2.47,0,0,0,138,56.4c.29.31,1.51-.27,1.76-.58a13.72,13.72,0,0,0,.56-3.94c-.05-.79-.39-3.47-.39-3.47Z" fill="#fec7c7"/>
            <path id="Trazado_126525" data-name="Trazado 126525" d="M127.64,67.76a7.686,7.686,0,0,0-.93.17s-.78.07-.72.49.3.49.44.49,1.13-.15,1.13-.15Z" fill="#fec7c7"/>
            <path id="Trazado_126526" data-name="Trazado 126526" d="M126,71.11l1.52.06a.346.346,0,0,1,.39.27,1.97,1.97,0,0,1,0,.35s.28-.07.38,0a.43.43,0,0,1,.15.36.64.64,0,0,1-.06.21,1,1,0,0,1,.31-.06.27.27,0,0,1,.13.32,2.94,2.94,0,0,1-.64.54,2.159,2.159,0,0,1-.52.27,1.41,1.41,0,0,1-.73-.24.63.63,0,0,0-.13-.11,2.46,2.46,0,0,1-.66-.24c-.14-.12-.16-.5-.17-.58s-.32-.16-.44-.25a.65.65,0,0,1-.17-.29,4.55,4.55,0,0,0,0-.56c0-.27-.21-.46-.24-.62s.38-.61.48-.71a8.058,8.058,0,0,1,.77-.47,2.05,2.05,0,0,0,0,.55,1.547,1.547,0,0,1,.53.2.5.5,0,0,1,.07.49c-.08.16-.25.15-.44.16a1.49,1.49,0,0,0-.5.2Z" fill="#fec7c7"/>
            <path id="Trazado_126527" data-name="Trazado 126527" d="M125.88,72.33a.71.71,0,0,0,.31.13,10,10,0,0,0,1-.33s.39-.09.54-.11.29-.06.3-.25c-.09,0-.08.15-.33.14a10.779,10.779,0,0,0-1.28.28,2.46,2.46,0,0,1-.46,0Z" fill="#ef989a"/>
            <path id="Trazado_126528" data-name="Trazado 126528" d="M128.58,72.34a2.14,2.14,0,0,0-.61.36,4.859,4.859,0,0,1-.67.41h-.49l.47-.06.88-.59.27-.21Z" fill="#ef989a"/>
            <path id="Trazado_126529" data-name="Trazado 126529" d="M126.77,71.14h-1.33a5,5,0,0,1,.4-.34,3.389,3.389,0,0,1,.63-.16s.46,0,.52-.11a.29.29,0,0,1,.18-.18v.47Z" fill="#ef989a"/>
            <path id="Trazado_126530" data-name="Trazado 126530" d="M132.41,82.57h-.21a33.1,33.1,0,0,1,2.14-6.77,18.79,18.79,0,0,0,1-3.35c.19-.81.41-1.72.74-2.76l.2.06c-.33,1-.53,1.9-.74,2.75a18.3,18.3,0,0,1-1,3.38,32.661,32.661,0,0,0-2.13,6.69Z" fill="#fff"/>
            <path id="Trazado_126531" data-name="Trazado 126531" d="M138.83,52.85l.43.18a.92.92,0,0,1,1.53-.24,3.67,3.67,0,0,1,1.2,2.35,2.22,2.22,0,0,0,1.25,1.38,3.31,3.31,0,0,0,2.39-.12,10.739,10.739,0,0,1,1.22-2.29c.66-.77,3-3.88.75-6.29a8.431,8.431,0,0,1-1.32-.89s-.48-1.42-3.16-1.41-4.37.86-4.72,1.6a1.87,1.87,0,0,0,0,1.49s.33.46.27.64-.34,1-.34,1a4.5,4.5,0,0,1,.55,1.16C138.87,51.61,138.83,52.85,138.83,52.85Z" fill="#754554"/>
            <path id="Trazado_126532" data-name="Trazado 126532" d="M139.93,52.8c.32.05.57.21.66,1a1.86,1.86,0,0,1-.42,1.39c-.16.26-.3.37-.44.21s0-.79,0-1a4.211,4.211,0,0,1,0-.79C139.71,53.37,139.64,52.74,139.93,52.8Z" fill="url(#linear-gradient-16)"/>
          </g>
        </g>
      </g>
    </g>
  </g>
</svg>
