<svg id="cf6_equipo" xmlns="http://www.w3.org/2000/svg" xmlns:xlink="http://www.w3.org/1999/xlink" width="200" height="200" viewBox="0 0 200 200">
  <defs>
    <linearGradient id="linear-gradient" x1="1558.474" y1="0.5" x2="1559.483" y2="0.5" gradientUnits="objectBoundingBox">
      <stop offset="0.05" stop-color="#feb9b8"/>
      <stop offset="0.99" stop-color="#fea5a4"/>
    </linearGradient>
    <linearGradient id="linear-gradient-2" x1="1133.021" y1="0.5" x2="1134.022" y2="0.5" xlink:href="#linear-gradient"/>
    <linearGradient id="linear-gradient-3" x1="2315.522" y1="0.507" x2="2316.544" y2="0.507" xlink:href="#linear-gradient"/>
    <linearGradient id="linear-gradient-4" x1="3059.501" y1="0.511" x2="3060.478" y2="0.511" xlink:href="#linear-gradient"/>
    <linearGradient id="linear-gradient-5" x1="1200.577" y1="0.5" x2="1201.577" y2="0.5" xlink:href="#linear-gradient"/>
    <linearGradient id="linear-gradient-6" x1="961.562" y1="0.5" x2="962.56" y2="0.5" xlink:href="#linear-gradient"/>
    <linearGradient id="linear-gradient-7" x1="2104.651" y1="0.498" x2="2105.655" y2="0.498" xlink:href="#linear-gradient"/>
    <linearGradient id="linear-gradient-8" x1="1524.43" y1="0.501" x2="1525.429" y2="0.501" xlink:href="#linear-gradient"/>
    <linearGradient id="linear-gradient-9" x1="1171.564" y1="0.495" x2="1172.564" y2="0.495" xlink:href="#linear-gradient"/>
    <linearGradient id="linear-gradient-10" x1="-705.484" y1="0.522" x2="-704.465" y2="0.522" xlink:href="#linear-gradient"/>
    <linearGradient id="linear-gradient-11" x1="-500.726" y1="0.498" x2="-499.727" y2="0.498" xlink:href="#linear-gradient"/>
    <linearGradient id="linear-gradient-12" x1="-432.046" y1="0.5" x2="-431.046" y2="0.5" xlink:href="#linear-gradient"/>
    <linearGradient id="linear-gradient-13" x1="-594.423" y1="0.494" x2="-593.378" y2="0.494" xlink:href="#linear-gradient"/>
  </defs>
  <g id="Capa_1" data-name="Capa 1">
    <rect id="Rectángulo_35159" data-name="Rectángulo 35159" width="200" height="200" fill="none"/>
    <g id="Grupo_81886" data-name="Grupo 81886">
      <path id="Trazado_128898" data-name="Trazado 128898" d="M199.32,129.16l-28.45,16.35-41.01,23.56L88.9,145.51,40.4,117.6,10.38,100.33,0,94.36,37.55,72.42,69.01,54.04l31.88,18.38,48.42,27.91,29.97,17.27Z" fill="#e1e3eb"/>
      <g id="Grupo_81852" data-name="Grupo 81852">
        <g id="Grupo_81848" data-name="Grupo 81848">
          <path id="Trazado_128899" data-name="Trazado 128899" d="M102.29,99.36l22.14-12.78,24.85,14.64L127.14,114Z" fill="#e3e4ed"/>
          <path id="Trazado_128900" data-name="Trazado 128900" d="M124.42,19.67,106.9,29.78l20.25,11.94,17.52-10.11Z" fill="#e1e3eb"/>
          <path id="Trazado_128901" data-name="Trazado 128901" d="M127.15,110.69l17.52-10.11V31.61L127.15,41.72Z" fill="#b2b6c4"/>
          <path id="Trazado_128902" data-name="Trazado 128902" d="M127.15,110.69,106.9,98.76V29.79l20.25,11.93Z" fill="#eff0f5"/>
        </g>
        <g id="Grupo_81849" data-name="Grupo 81849">
          <path id="Trazado_128903" data-name="Trazado 128903" d="M125.42,42.72,108.84,53.2l16.9,9.96V43.3Z" fill="#e3e5ef"/>
          <path id="Trazado_128904" data-name="Trazado 128904" d="M108.04,33.04V52.58l16.9,9.97V43Z" fill="#e7e8ed"/>
          <path id="Trazado_128905" data-name="Trazado 128905" d="M119.24,39.64l3.03,21.33-7.42-4.37-3.12-21.39Z" fill="#ecedf2"/>
          <path id="Trazado_128906" data-name="Trazado 128906" d="M113.73,46.55v-.52l5.21-.66.12.5v3.76Z" fill="#d9dbe6"/>
          <path id="Trazado_128907" data-name="Trazado 128907" d="M113.38,46.18V42.42l5.33,3.08v3.76Z" fill="#e7e7f0"/>
          <path id="Trazado_128908" data-name="Trazado 128908" d="M113.84,43.23v2.68l4.4,2.54V45.77Z" fill="#fff"/>
          <path id="Trazado_128909" data-name="Trazado 128909" d="M124.94,62.55l.48-.28V42.72l-.48.28Z" fill="#d9dbe6"/>
          <path id="Trazado_128910" data-name="Trazado 128910" d="M118.71,49.26l.23-.13V45.37l-.23.13Z" fill="#c4c8d8"/>
          <path id="Trazado_128911" data-name="Trazado 128911" d="M113.38,42.42l.23-.13,5.33,3.08-.23.13Z" fill="#d9dbe6"/>
          <path id="Trazado_128912" data-name="Trazado 128912" d="M113.84,45.91l.12-.07,4.28,2.47v.14Z" fill="#d9dbe6"/>
          <path id="Trazado_128913" data-name="Trazado 128913" d="M108.04,33.04l.48-.28,16.9,9.96-.48.28Z" fill="#f4f5fa"/>
          <path id="Trazado_128914" data-name="Trazado 128914" d="M125.42,42.72l-.44.19L108.22,33l.3-.24-.48.28L124.94,43Z" fill="#fcfdff"/>
        </g>
        <g id="Grupo_81850" data-name="Grupo 81850">
          <path id="Trazado_128915" data-name="Trazado 128915" d="M125.42,64.82,108.84,75.3l16.9,9.96V65.4Z" fill="#e3e5ef"/>
          <path id="Trazado_128916" data-name="Trazado 128916" d="M108.04,55.14V74.69l16.9,9.96V65.1Z" fill="#e7e8ed"/>
          <path id="Trazado_128917" data-name="Trazado 128917" d="M119.24,61.74l3.03,21.33-7.42-4.37-3.12-21.39Z" fill="#ecedf2"/>
          <path id="Trazado_128918" data-name="Trazado 128918" d="M113.73,68.65v-.51l5.21-.67.12.5v3.76Z" fill="#d9dbe6"/>
          <path id="Trazado_128919" data-name="Trazado 128919" d="M113.38,68.28V64.52l5.33,3.08v3.76Z" fill="#e7e7f0"/>
          <path id="Trazado_128920" data-name="Trazado 128920" d="M113.84,65.33v2.68l4.4,2.54V67.87Z" fill="#fff"/>
          <path id="Trazado_128921" data-name="Trazado 128921" d="M124.94,84.65l.48-.28V64.82l-.48.28Z" fill="#d9dbe6"/>
          <path id="Trazado_128922" data-name="Trazado 128922" d="M118.71,71.36l.23-.13V67.47l-.23.13Z" fill="#c4c8d8"/>
          <path id="Trazado_128923" data-name="Trazado 128923" d="M113.38,64.52l.23-.13,5.33,3.08-.23.13Z" fill="#d9dbe6"/>
          <path id="Trazado_128924" data-name="Trazado 128924" d="M113.84,68.01l.12-.07,4.28,2.48v.13Z" fill="#d9dbe6"/>
          <path id="Trazado_128925" data-name="Trazado 128925" d="M108.04,55.14l.48-.28,16.9,9.96-.48.28Z" fill="#f4f5fa"/>
          <path id="Trazado_128926" data-name="Trazado 128926" d="M125.42,64.82l-.44.2L108.22,55.1l.3-.24-.48.28,16.9,9.96Z" fill="#fcfdff"/>
        </g>
        <g id="Grupo_81851" data-name="Grupo 81851">
          <path id="Trazado_128927" data-name="Trazado 128927" d="M125.42,86.92,108.84,97.4l16.9,9.96V87.5Z" fill="#e3e5ef"/>
          <path id="Trazado_128928" data-name="Trazado 128928" d="M108.04,77.24V96.79l16.9,9.96V87.2Z" fill="#e7e8ed"/>
          <path id="Trazado_128929" data-name="Trazado 128929" d="M119.24,83.84l3.03,21.34-7.42-4.38-3.12-21.38Z" fill="#ecedf2"/>
          <path id="Trazado_128930" data-name="Trazado 128930" d="M113.73,90.76v-.52l5.21-.67.12.5v3.76Z" fill="#d9dbe6"/>
          <path id="Trazado_128931" data-name="Trazado 128931" d="M113.38,90.39V86.63l5.33,3.07v3.76Z" fill="#e7e7f0"/>
          <path id="Trazado_128932" data-name="Trazado 128932" d="M113.84,87.44v2.68l4.4,2.54V89.97Z" fill="#fff"/>
          <path id="Trazado_128933" data-name="Trazado 128933" d="M124.94,106.75l.48-.28V86.92l-.48.28Z" fill="#d9dbe6"/>
          <path id="Trazado_128934" data-name="Trazado 128934" d="M118.71,93.46l.23-.13V89.57l-.23.13Z" fill="#c4c8d8"/>
          <path id="Trazado_128935" data-name="Trazado 128935" d="M113.38,86.63l.23-.14,5.33,3.08-.23.13Z" fill="#d9dbe6"/>
          <path id="Trazado_128936" data-name="Trazado 128936" d="M113.84,90.12l.12-.07,4.28,2.47v.14Z" fill="#d9dbe6"/>
          <path id="Trazado_128937" data-name="Trazado 128937" d="M108.04,77.24l.48-.28,16.9,9.96-.48.28Z" fill="#f4f5fa"/>
          <path id="Trazado_128938" data-name="Trazado 128938" d="M125.42,86.92l-.44.2-16.76-9.91.3-.25-.48.28,16.9,9.96Z" fill="#fcfdff"/>
        </g>
      </g>
      <g id="Grupo_81857" data-name="Grupo 81857">
        <g id="Grupo_81853" data-name="Grupo 81853">
          <path id="Trazado_128939" data-name="Trazado 128939" d="M127.14,114l22.14-12.78,24.84,14.65-22.14,12.78Z" fill="#e3e4ed"/>
          <path id="Trazado_128940" data-name="Trazado 128940" d="M149.26,34.32,131.74,44.43,152,56.36l17.52-10.11Z" fill="#e1e3eb"/>
          <path id="Trazado_128941" data-name="Trazado 128941" d="M151.99,125.34l17.52-10.12V46.25L151.99,56.37Z" fill="#b2b6c4"/>
          <path id="Trazado_128942" data-name="Trazado 128942" d="M151.99,125.34l-20.24-11.93V44.43l20.24,11.94Z" fill="#eff0f5"/>
        </g>
        <g id="Grupo_81854" data-name="Grupo 81854">
          <path id="Trazado_128943" data-name="Trazado 128943" d="M150.26,57.36,133.68,67.84l16.9,9.96V57.94Z" fill="#e3e5ef"/>
          <path id="Trazado_128944" data-name="Trazado 128944" d="M132.88,47.68V67.23l16.9,9.96V57.64Z" fill="#e7e8ed"/>
          <path id="Trazado_128945" data-name="Trazado 128945" d="M144.08,54.28l3.03,21.33-7.42-4.37-3.12-21.38Z" fill="#ecedf2"/>
          <path id="Trazado_128946" data-name="Trazado 128946" d="M138.57,61.2v-.52l5.21-.67.12.5v3.76Z" fill="#d9dbe6"/>
          <path id="Trazado_128947" data-name="Trazado 128947" d="M138.22,60.83V57.06l5.33,3.08V63.9Z" fill="#e7e7f0"/>
          <path id="Trazado_128948" data-name="Trazado 128948" d="M138.69,57.88v2.68l4.39,2.53V60.41Z" fill="#fff"/>
          <path id="Trazado_128949" data-name="Trazado 128949" d="M149.78,77.19l.48-.28V57.36l-.48.28Z" fill="#d9dbe6"/>
          <path id="Trazado_128950" data-name="Trazado 128950" d="M143.55,63.9l.23-.13V60.01l-.23.13Z" fill="#c4c8d8"/>
          <path id="Trazado_128951" data-name="Trazado 128951" d="M138.22,57.06l.23-.13,5.33,3.08-.23.13Z" fill="#d9dbe6"/>
          <path id="Trazado_128952" data-name="Trazado 128952" d="M138.69,60.56l.12-.07,4.27,2.47v.13Z" fill="#d9dbe6"/>
          <path id="Trazado_128953" data-name="Trazado 128953" d="M132.88,47.68l.48-.28,16.9,9.96-.48.28Z" fill="#f4f5fa"/>
          <path id="Trazado_128954" data-name="Trazado 128954" d="M150.26,57.36l-.43.2-16.77-9.91.3-.25-.48.28,16.9,9.96Z" fill="#fcfdff"/>
        </g>
        <g id="Grupo_81855" data-name="Grupo 81855">
          <path id="Trazado_128955" data-name="Trazado 128955" d="M150.26,79.47,133.68,89.94l16.9,9.97V80.04Z" fill="#e3e5ef"/>
          <path id="Trazado_128956" data-name="Trazado 128956" d="M132.88,69.78V89.33l16.9,9.96V79.75Z" fill="#e7e8ed"/>
          <path id="Trazado_128957" data-name="Trazado 128957" d="M144.08,76.39l3.03,21.33-7.42-4.37-3.12-21.39Z" fill="#ecedf2"/>
          <path id="Trazado_128958" data-name="Trazado 128958" d="M138.57,83.3v-.52l5.21-.67.12.51v3.76Z" fill="#d9dbe6"/>
          <path id="Trazado_128959" data-name="Trazado 128959" d="M138.22,82.93V79.17l5.33,3.08v3.76Z" fill="#e7e7f0"/>
          <path id="Trazado_128960" data-name="Trazado 128960" d="M138.69,79.98v2.68l4.39,2.54V82.52Z" fill="#fff"/>
          <path id="Trazado_128961" data-name="Trazado 128961" d="M149.78,99.29l.48-.28V79.47l-.48.28Z" fill="#d9dbe6"/>
          <path id="Trazado_128962" data-name="Trazado 128962" d="M143.55,86.01l.23-.14V82.11l-.23.14Z" fill="#c4c8d8"/>
          <path id="Trazado_128963" data-name="Trazado 128963" d="M138.22,79.17l.23-.14,5.33,3.08-.23.14Z" fill="#d9dbe6"/>
          <path id="Trazado_128964" data-name="Trazado 128964" d="M138.69,82.66l.12-.07,4.27,2.47v.14Z" fill="#d9dbe6"/>
          <path id="Trazado_128965" data-name="Trazado 128965" d="M132.88,69.78l.48-.28,16.9,9.97-.48.28Z" fill="#f4f5fa"/>
          <path id="Trazado_128966" data-name="Trazado 128966" d="M150.26,79.47l-.43.19-16.77-9.91.3-.25-.48.28,16.9,9.97Z" fill="#fcfdff"/>
        </g>
        <g id="Grupo_81856" data-name="Grupo 81856">
          <path id="Trazado_128967" data-name="Trazado 128967" d="M150.26,101.57l-16.58,10.47,16.9,9.97V102.14Z" fill="#e3e5ef"/>
          <path id="Trazado_128968" data-name="Trazado 128968" d="M132.88,91.89v19.54l16.9,9.96V101.85Z" fill="#e7e8ed"/>
          <path id="Trazado_128969" data-name="Trazado 128969" d="M144.08,98.49l3.03,21.33-7.42-4.37-3.12-21.39Z" fill="#ecedf2"/>
          <path id="Trazado_128970" data-name="Trazado 128970" d="M138.57,105.4v-.52l5.21-.67.12.51v3.76Z" fill="#d9dbe6"/>
          <path id="Trazado_128971" data-name="Trazado 128971" d="M138.22,105.03v-3.76l5.33,3.08v3.76Z" fill="#e7e7f0"/>
          <path id="Trazado_128972" data-name="Trazado 128972" d="M138.69,102.08v2.68l4.39,2.54v-2.68Z" fill="#fff"/>
          <path id="Trazado_128973" data-name="Trazado 128973" d="M149.78,121.39l.48-.27V101.57l-.48.28Z" fill="#d9dbe6"/>
          <path id="Trazado_128974" data-name="Trazado 128974" d="M143.55,108.11l.23-.14v-3.76l-.23.14Z" fill="#c4c8d8"/>
          <path id="Trazado_128975" data-name="Trazado 128975" d="M138.22,101.27l.23-.13,5.33,3.07-.23.14Z" fill="#d9dbe6"/>
          <path id="Trazado_128976" data-name="Trazado 128976" d="M138.69,104.76l.12-.07,4.27,2.47v.14Z" fill="#d9dbe6"/>
          <path id="Trazado_128977" data-name="Trazado 128977" d="M132.88,91.89l.48-.28,16.9,9.96-.48.28Z" fill="#f4f5fa"/>
          <path id="Trazado_128978" data-name="Trazado 128978" d="M150.26,101.57l-.43.19-16.77-9.91.3-.24-.48.28,16.9,9.96Z" fill="#fcfdff"/>
        </g>
      </g>
      <g id="Grupo_81860" data-name="Grupo 81860">
        <g id="Grupo_81859" data-name="Grupo 81859">
          <g id="Grupo_81858" data-name="Grupo 81858">
            <path id="Trazado_128979" data-name="Trazado 128979" d="M146.43,158.22c-4.92,2.84-12.92,2.82-17.87,0s-5-7.48-.06-10.32,12.93-2.82,17.88,0S151.35,155.37,146.43,158.22Z" fill="#e3e4ed"/>
            <path id="Trazado_128980" data-name="Trazado 128980" d="M147.68,138v.46c0,1.43-.23,10.7-3,15.3h0a4.89,4.89,0,0,1-1.73,1.59,12,12,0,0,1-10.91,0,5.23,5.23,0,0,1-1.76-1.56,56.83,56.83,0,0,1-3-14.88v-.23C127.34,131.51,147.68,138,147.68,138Z" fill="#ccc"/>
            <path id="Trazado_128981" data-name="Trazado 128981" d="M147.68,138.49c0,1.43-.23,10.7-3,15.3h0a4.89,4.89,0,0,1-1.73,1.59,12,12,0,0,1-10.91,0,5.23,5.23,0,0,1-1.76-1.56,56.83,56.83,0,0,1-3-14.88v-.23l2.7,2.09s1,13.64,7,14.48S146.21,148.88,147.68,138.49Z" fill="#a8a8a8"/>
            <path id="Trazado_128982" data-name="Trazado 128982" d="M144.73,142.63a16,16,0,0,1-14.47,0c-4-2.32-4-6.06,0-8.36a16,16,0,0,1,14.47,0C148.69,136.59,148.71,140.33,144.73,142.63Z" fill="#f5f5f5"/>
            <path id="Trazado_128983" data-name="Trazado 128983" d="M143.17,135a12.64,12.64,0,0,0-11.44,0c-3.14,1.82-3.13,4.77,0,6.6a12.62,12.62,0,0,0,11.43,0C146.35,139.77,146.34,136.81,143.17,135Z" fill="#754735"/>
            <path id="Trazado_128984" data-name="Trazado 128984" d="M131.73,136.57a12.64,12.64,0,0,1,11.44,0,4.68,4.68,0,0,1,2.25,2.5c.46-1.46-.29-3-2.25-4.17a12.64,12.64,0,0,0-11.44,0c-1.93,1.11-2.66,2.66-2.21,4.1A4.6,4.6,0,0,1,131.73,136.57Z" fill="#7c7c7c"/>
            <path id="Trazado_128985" data-name="Trazado 128985" d="M140.47,137.47a6.61,6.61,0,0,0-6,0c-1.65.95-1.65,2.5,0,3.46a6.61,6.61,0,0,0,6,0C142.14,140,142.13,138.43,140.47,137.47Z" fill="#7e523b"/>
          </g>
          <path id="Trazado_128986" data-name="Trazado 128986" d="M137.81,139h.38c0-11.29-.78-48.83-10.83-57.57l-.25.29C137,90.37,137.81,127.77,137.81,139Z" fill="#669938"/>
          <path id="Trazado_128987" data-name="Trazado 128987" d="M137.44,139.76c0-3.17-.06-6.35-.19-9.52s-.33-6.34-.67-9.5a68.163,68.163,0,0,0-1.62-9.4,35,35,0,0,0-1.48-4.55,19.08,19.08,0,0,0-2.3-4.2l-.31.23a18.479,18.479,0,0,1,2.22,4.13,33.578,33.578,0,0,1,1.42,4.5A67,67,0,0,1,136,120.8c.31,3.14.49,6.3.59,9.46s.12,6.33.11,9.5Z" fill="#7fb353"/>
          <path id="Trazado_128988" data-name="Trazado 128988" d="M137.79,140c.11,0,.1-.07.1-.1v-6.16c.06-2.08.15-4.17.28-6.25.26-4.16.67-8.31,1.27-12.44a95.762,95.762,0,0,1,2.57-12.22A48.848,48.848,0,0,1,144.18,97a27.624,27.624,0,0,1,1.4-2.77,14,14,0,0,1,1.82-2.49l-.28-.26A14.57,14.57,0,0,0,145.23,94a29.824,29.824,0,0,0-1.45,2.81,49.608,49.608,0,0,0-2.14,5.91A94.161,94.161,0,0,0,139,115q-.92,6.21-1.31,12.49-.21,3.12-.3,6.27v6.17s0,.07.11.1Z" fill="#669938"/>
          <path id="Trazado_128989" data-name="Trazado 128989" d="M138.84,139.71c0-1.65,0-3.3.16-4.94s.26-3.29.49-4.93.49-3.26.82-4.88.72-3.22,1.16-4.81a55.51,55.51,0,0,1,3.45-9.27,30.09,30.09,0,0,1,2.49-4.25,15.74,15.74,0,0,1,1.57-1.89,6.61,6.61,0,0,1,1.93-1.41l-.14-.35a7,7,0,0,0-2.07,1.49,16.461,16.461,0,0,0-1.62,1.92,31.59,31.59,0,0,0-2.55,4.3A55.761,55.761,0,0,0,141,120c-.46,1.6-.85,3.22-1.2,4.85s-.62,3.26-.85,4.91-.4,3.3-.52,5-.17,3.32-.19,5Z" fill="#669938"/>
          <path id="Trazado_128990" data-name="Trazado 128990" d="M137,139.76a26.65,26.65,0,0,0-.94-6.82,29.11,29.11,0,0,0-2.57-6.37,26.9,26.9,0,0,0-4-5.57,15.65,15.65,0,0,0-2.62-2.24,7.41,7.41,0,0,0-1.56-.8,3.22,3.22,0,0,0-.88-.2,1.88,1.88,0,0,0-.93.13l.16.35a2.12,2.12,0,0,1,1.52.09,7,7,0,0,1,1.46.77,14.75,14.75,0,0,1,2.53,2.21,26,26,0,0,1,3.91,5.5,29,29,0,0,1,2.47,6.28,25.92,25.92,0,0,1,.86,6.67Z" fill="#7fb353"/>
          <path id="Trazado_128991" data-name="Trazado 128991" d="M122.12,114.56c2.64.24,4.27,2.51,2,3.47l-9.37,1.67-3.63-1.7C113.14,116.24,119,114.27,122.12,114.56Z" fill="#669938"/>
          <path id="Trazado_128992" data-name="Trazado 128992" d="M111.12,118s2.73,1,8.57-.24a8.47,8.47,0,0,1,3.88.09,2.73,2.73,0,0,1,.53.16c-.27,1-.57,3.52-6,2.82C112.48,120.14,110.28,118.76,111.12,118Z" fill="#7fb353"/>
          <path id="Trazado_128993" data-name="Trazado 128993" d="M122,114.34c2.64.24,4.26,2.51,2,3.47l-9.37,1.67L111,117.8C113.06,116,118.88,114.05,122,114.34Z" fill="#8ab854"/>
          <path id="Trazado_128994" data-name="Trazado 128994" d="M111,117.8s2.73,1,8.58-.24a8.48,8.48,0,0,1,3.88.09,3.121,3.121,0,0,1,.53.16c-.28,1-.58,3.52-6,2.82C112.39,119.92,110.2,118.54,111,117.8Z" fill="#9fcc64"/>
          <path id="Trazado_128995" data-name="Trazado 128995" d="M123.5,86.6a10.37,10.37,0,0,0,2.25,3c4,3.66,6.25.21,6.25.21s2.58.26,3-1.72a6.62,6.62,0,0,0-1.13-4.49c-2.4-4.13-7.89-7.82-10.37-6.79a1.75,1.75,0,0,0-.87.77C122.07,78.51,121.54,82.83,123.5,86.6Z" fill="#6f9e39"/>
          <path id="Trazado_128996" data-name="Trazado 128996" d="M123.65,86.42a10.64,10.64,0,0,0,2.25,3c4,3.66,6.24.21,6.24.21s2.59.26,3-1.72a6.65,6.65,0,0,0-1.14-4.5c-2.41-4.13-7.89-7.82-10.37-6.79a1.82,1.82,0,0,0-.88.77C122.22,78.33,121.69,82.65,123.65,86.42Z" fill="#7ea647"/>
          <path id="Trazado_128997" data-name="Trazado 128997" d="M125.76,103.59c.76,2,2.23,3.7,3.28,4,2.72.71,3.83-1,3.94-1.22h0a2.21,2.21,0,0,0,2-1.53c.35-1.3-.27-3.36-1.45-5-2.37-3.25-6.72-5.85-8-5S124.41,100.13,125.76,103.59Z" fill="#7fb353"/>
          <path id="Trazado_128998" data-name="Trazado 128998" d="M125.85,103.4c.76,2,2.24,3.71,3.28,4,2.73.71,3.83-1,3.94-1.22h0a2.21,2.21,0,0,0,2-1.54c.35-1.29-.27-3.36-1.45-5-2.37-3.24-6.72-5.85-8-5S124.51,100,125.85,103.4Z" fill="#8ab854"/>
          <path id="Trazado_128999" data-name="Trazado 128999" d="M150.84,105c3.61.45,5.31-.75,8.61-.67s7.62-1.13,7.62-2c0-1.38-4-2.65-6.95-2.9a18.61,18.61,0,0,0-6.59.85c-4.11,1.49-2.69,2.7-2.69,2.7h0C150.76,103.1,148.82,104.67,150.84,105Z" fill="#669938"/>
          <path id="Trazado_129000" data-name="Trazado 129000" d="M150.84,104.82c3.61.46,5.31-.74,8.61-.66s7.62-1.14,7.62-2c0-1.38-4-2.66-6.95-2.9a18.38,18.38,0,0,0-6.59.85c-4.11,1.48-2.69,2.7-2.69,2.7h0C150.76,102.92,148.82,104.48,150.84,104.82Z" fill="#7ea647"/>
          <path id="Trazado_129001" data-name="Trazado 129001" d="M138.31,140a32.9,32.9,0,0,1,.46-5.52,34.491,34.491,0,0,1,1.33-5.39,28.28,28.28,0,0,1,2.23-5.07,12.712,12.712,0,0,1,1.61-2.22,3.76,3.76,0,0,1,1-.8,1.13,1.13,0,0,1,.58-.11.77.77,0,0,1,.49.26l.28-.26a1.17,1.17,0,0,0-.72-.39,1.61,1.61,0,0,0-.79.14,4.09,4.09,0,0,0-1.17.88,12.52,12.52,0,0,0-1.7,2.28,28.551,28.551,0,0,0-2.33,5.13,36.66,36.66,0,0,0-1.41,5.45,33,33,0,0,0-.52,5.62Z" fill="#7fb353"/>
          <path id="Trazado_129002" data-name="Trazado 129002" d="M145.27,94.1c.45,1.42,2.12,2,5.57.63s8.16-3.6,6.18-5c-3-2.15-12.47,1-13.71,2.3S143.19,94.49,145.27,94.1Z" fill="#669938"/>
          <path id="Trazado_129003" data-name="Trazado 129003" d="M145.27,93.86c.45,1.42,2.12,2,5.57.63s8.16-3.6,6.18-5c-3-2.14-12.47,1-13.71,2.31S143.19,94.24,145.27,93.86Z" fill="#84b246"/>
          <path id="Trazado_129004" data-name="Trazado 129004" d="M145.92,126c3.65,2.92,7.18,3.6,8.14,3.11s1.64-3.13.51-6c-1.22-3.1-7.62-5.26-8.52-2C142.13,120.33,142.27,123.06,145.92,126Z" fill="#7fb353"/>
          <path id="Trazado_129005" data-name="Trazado 129005" d="M146.13,125.78c3.65,2.93,7.18,3.6,8.14,3.12s1.64-3.13.51-6c-1.22-3.1-7.62-5.26-8.52-2C142.34,120.12,142.47,122.85,146.13,125.78Z" fill="#99c063"/>
          <path id="Trazado_129006" data-name="Trazado 129006" d="M146.13,125.78c3.65,2.93,7.18,3.6,8.14,3.12-3.51-6.64-8-8-8-8C142.34,120.12,142.47,122.85,146.13,125.78Z" fill="#9fcc64"/>
        </g>
        <path id="Trazado_129007" data-name="Trazado 129007" d="M150.84,104.82c3.61.46,5.31-.74,8.61-.66s7.62-1.14,7.62-2c-8.33-1.74-11.87-.21-16.23.65h0C150.76,102.92,148.82,104.48,150.84,104.82Z" fill="#6f9e39"/>
        <path id="Trazado_129008" data-name="Trazado 129008" d="M145.27,93.86c.45,1.42,2.12,2,5.57.63s8.16-3.6,6.18-5C153,92.41,146.3,91.36,145.27,93.86Z" fill="#7ea647"/>
        <path id="Trazado_129009" data-name="Trazado 129009" d="M123.65,86.42a10.64,10.64,0,0,0,2.25,3c4,3.66,6.24.21,6.24.21-3.22-6.18-6.25-8.52-8.49-13a1.82,1.82,0,0,0-.88.77C122.22,78.33,121.69,82.65,123.65,86.42Z" fill="#84b246"/>
        <path id="Trazado_129010" data-name="Trazado 129010" d="M125.85,103.4c.76,2,2.24,3.71,3.28,4,2.73.71,3.83-1,3.94-1.22h0c-1.09-2.49-3-5.13-7.42-11.5C124.39,95.49,124.51,100,125.85,103.4Z" fill="#99c063"/>
        <path id="Trazado_129011" data-name="Trazado 129011" d="M146.3,120.76a9.89,9.89,0,0,1,5.62,4.55s-3.32-3.73-6-4.48C145.93,120.77,146.3,120.76,146.3,120.76Z" fill="#7fb353"/>
        <path id="Trazado_129012" data-name="Trazado 129012" d="M124.07,118.08a12.38,12.38,0,0,0-3.23-.56,19.941,19.941,0,0,0-2.51.29,14.669,14.669,0,0,1,3-.54,5.75,5.75,0,0,1,2.73.54C124.41,118.13,124.07,118.08,124.07,118.08Z" fill="#7fb353"/>
        <path id="Trazado_129013" data-name="Trazado 129013" d="M133.28,106.13a17.8,17.8,0,0,0-3.12-4.93c.5.77,2.69,4.26,2.83,5.08S133.28,106.13,133.28,106.13Z" fill="#7fb353"/>
        <path id="Trazado_129014" data-name="Trazado 129014" d="M132,89.76c-1.22-2-2.91-5-3.62-6a42.17,42.17,0,0,1,3.85,5.85C132.49,90.14,132,89.76,132,89.76Z" fill="#669938"/>
        <path id="Trazado_129015" data-name="Trazado 129015" d="M145.27,93.91c0-.38.59-1.28,2.68-1.67-1.08.39-2.38,1.18-2.53,2C145.24,94.25,145.27,93.91,145.27,93.91Z" fill="#669938"/>
        <path id="Trazado_129016" data-name="Trazado 129016" d="M150.37,103.3a27.261,27.261,0,0,1,3.89-1.21,9.76,9.76,0,0,0-3.81,1.07S149.93,103.5,150.37,103.3Z" fill="#669938"/>
      </g>
      <g id="Grupo_81872" data-name="Grupo 81872">
        <ellipse id="Elipse_5525" data-name="Elipse 5525" cx="9.81" cy="5.66" rx="9.81" ry="5.66" transform="matrix(1, -0.005, 0.005, 1, 68.372, 105.999)" fill="#e3e4ed"/>
        <ellipse id="Elipse_5526" data-name="Elipse 5526" cx="11.25" cy="6.49" rx="11.25" ry="6.49" transform="matrix(1, -0.005, 0.005, 1, 96.846, 119.585)" fill="#e3e4ed"/>
        <g id="Grupo_81861" data-name="Grupo 81861">
          <path id="Trazado_129017" data-name="Trazado 129017" d="M77.34,44.58A1.7,1.7,0,0,0,74.9,43c-1.35.45-3,2.43-1.91,6.14a6.83,6.83,0,0,1-1.18,6.33A14.31,14.31,0,0,0,75,54.16c.93-.65,1.79-1.75,2-4.15S77.34,44.58,77.34,44.58Z" fill="#e34073"/>
          <path id="Trazado_129018" data-name="Trazado 129018" d="M74.49,47a2.27,2.27,0,1,0,0-2.78,2,2,0,0,0,0,2.78Z" fill="#fff"/>
        </g>
        <g id="Grupo_81865" data-name="Grupo 81865">
          <g id="Grupo_81862" data-name="Grupo 81862">
            <path id="Trazado_129019" data-name="Trazado 129019" d="M89.93,75.39a17.589,17.589,0,0,0,2.7.3l-.39.08a19.6,19.6,0,0,0-2,0c-.11.06-.24.46.1.56s2.48.26,2.48.26l.07.18-1,.21c-.15,0-1.05,0-1,.23a.485.485,0,0,0,.56.47c.45,0,1.56-.19,1.8-.17h.1a7.8,7.8,0,0,0,1.39.16,7.15,7.15,0,0,0,1.24-.27s.54-.16.62-.37h0c.07-.33,0-2.08-.33-2.23-.19-.08-.63.07-.71,0S94,73.63,94,73.6a9,9,0,0,0-1.31-.16,5.62,5.62,0,0,0-1.41.19.21.21,0,0,0-.1.08.33.33,0,0,0,0,.27h-.93c-.1,0-.23.32,0,.45a7.711,7.711,0,0,0,1.61.13l.85.22s-2.59,0-2.72.07S89.64,75.22,89.93,75.39Z" fill="url(#linear-gradient)"/>
            <path id="Trazado_129020" data-name="Trazado 129020" d="M95.62,75.1a.62.62,0,0,1,.47-.44,29.612,29.612,0,0,1,3.46-.34c.41.08,1.12,2.53.54,2.84a19.761,19.761,0,0,1-4.1.38,5.23,5.23,0,0,1-.37-2.44Z" fill="#c7d9f0"/>
            <path id="Trazado_129021" data-name="Trazado 129021" d="M91.08,74a.57.57,0,0,0,.21.13,4.17,4.17,0,0,0,1.44.31.93.93,0,0,1,.24,0,.63.63,0,0,1,.19.17,1.54,1.54,0,0,0,.54.34l-.37-.61a.27.27,0,0,0-.07-.08.2.2,0,0,0-.15,0,5,5,0,0,1-1.45-.14.86.86,0,0,1-.36-.2.59.59,0,0,1-.1-.17h0a.33.33,0,0,0,0,.27Z" fill="#d6b3a6"/>
            <path id="Trazado_129022" data-name="Trazado 129022" d="M93.32,77.52a7.8,7.8,0,0,0,1.39.16,7.149,7.149,0,0,0,1.24-.27s.54-.16.62-.37h-.4a.9.9,0,0,1-.52-.1c-.23-.18-.22-.51-.34-.77-.14,0-.19.2-.14.33a3.351,3.351,0,0,0,.21.36.5.5,0,0,1,0,.38.16.16,0,0,1,0,.09H95.3a2.07,2.07,0,0,1-1.41.11.84.84,0,0,0-.27,0h-.17Z" fill="#d6b3a6"/>
          </g>
          <g id="Grupo_81863" data-name="Grupo 81863">
            <path id="Trazado_129023" data-name="Trazado 129023" d="M115.56,123.53c.44.56.94,1,1,1.35a3.87,3.87,0,0,1,0,1.19,2.83,2.83,0,0,1-4.19-.74,1.8,1.8,0,0,1-.14-.53l-.76-.74s-.59-.12-1.09-.25a7.1,7.1,0,0,1-1.87-1c-.86-.55-1.08-.89-1.08-1.31s.14-1,.8-.93S115.56,123.53,115.56,123.53Z" fill="#484848"/>
            <path id="Trazado_129024" data-name="Trazado 129024" d="M109.42,127c.63.23.92.58.92.84a4.79,4.79,0,0,1,0,1,2.18,2.18,0,0,1-1.86,1.13,8.43,8.43,0,0,1-2.79-.87,1.37,1.37,0,0,1-.24-.41,5.44,5.44,0,0,0-1.24-.41,2.91,2.91,0,0,1-1.23,0,6.85,6.85,0,0,1-2.75-1.19c-1-.74-.82-1-.82-1a8.2,8.2,0,0,1,0-1c0-.25.57-.48.88-.49S109.42,127,109.42,127Z" fill="#484848"/>
            <path id="Trazado_129025" data-name="Trazado 129025" d="M115.78,122.64a3.87,3.87,0,0,1,.4,2.08c0,.5-.66.82-1.74.77s-2.45-1.48-2.7-1.61a11.921,11.921,0,0,0-1.68-.85,8,8,0,0,1-2.33-1.5c-.33-.42.12-1.22,1.16-1.34a6,6,0,0,1,2.55.26c.41.2,2.73,1.11,2.73,1.11Z" fill="#626b6c"/>
            <path id="Trazado_129026" data-name="Trazado 129026" d="M105.25,124.06c-1.74-.11-5-.18-5.42.45a1.36,1.36,0,0,0,.13,1.69,6.86,6.86,0,0,0,2.73,1.4c1.3.33,2.91.47,3.44.73a7.47,7.47,0,0,0,2.48.53c.47-.05,1.24-.53,1.32-1a4.11,4.11,0,0,0-.19-1.79C109.57,125.87,105.25,124.06,105.25,124.06Z" fill="#626b6c"/>
            <path id="Trazado_129027" data-name="Trazado 129027" d="M109.6,93.2c.14,2.33.34,4.4.4,5.2.16,2.13,1.22,9.44,1.61,11.95s-.39,11.5-.16,12.05a2.05,2.05,0,0,0,1.06,1,4.71,4.71,0,0,0,1.26.37c1.35.23,2.25-.32,2.28-.87s.78-5.89,1-10.59a45.66,45.66,0,0,0-.42-8.12c0-1.42.39-9.28.42-13.08s-1.06-6.34-1.23-7.54c0,0-4.6-1.28-5.82.29C109.24,84.82,109.36,89.38,109.6,93.2Z" fill="#485455"/>
            <path id="Trazado_129028" data-name="Trazado 129028" d="M111.61,110.35c.38,2.52-.39,11.5-.16,12.05a2.05,2.05,0,0,0,1.06,1c.16-3,.23-8.56.14-10.8-.12-3-1.24-6.53-1.28-8.12a79.85,79.85,0,0,1,.54-12.11,18.451,18.451,0,0,0-2.31.85c.14,2.33.34,4.4.4,5.2C110.16,100.53,111.22,107.84,111.61,110.35Z" fill="#424747"/>
            <path id="Trazado_129029" data-name="Trazado 129029" d="M116.08,109.33a18,18,0,0,1-.1,2.75,27.12,27.12,0,0,1-.64,3.69.62.62,0,0,1-.07.19.35.35,0,0,1-.46,0,.94.94,0,0,1-.28-.42c-.74-1.78-.73-3.77-1-5.69a12.66,12.66,0,0,1-.23-3.57,2,2,0,0,1,1.2-1.73,1.28,1.28,0,0,1,1.2.27c.35.33.2.66.17,1.11a29.161,29.161,0,0,0,.21,3.4Z" fill="#525d5e"/>
            <path id="Trazado_129030" data-name="Trazado 129030" d="M111.93,122.85h.26v-1.72c0-3.29,0-10.13-.2-11.54a127.387,127.387,0,0,1-1.2-13.39h-.26a125.6,125.6,0,0,0,1.21,13.45c.23,1.39.2,8.22.19,11.5C111.93,122.27,111.92,122.78,111.93,122.85Z" fill="#626d6e"/>
            <path id="Trazado_129031" data-name="Trazado 129031" d="M112,84.26a18.74,18.74,0,0,1,1.77,7.19,5,5,0,0,1-1.16,3.86,5.93,5.93,0,0,1-1.28,1s-1.55,11.44-1.29,15.3a119.371,119.371,0,0,1-.58,15.27c-.26.55-2,1-3.29.38a2.54,2.54,0,0,1-1.59-2c-.13-.49-.62-15.09-1-18.44s-2.83-11.71-1-20.73,6.54-4.15,8.11-3.83a1.64,1.64,0,0,1,1.31,2Z" fill="#485455"/>
            <path id="Trazado_129032" data-name="Trazado 129032" d="M107.79,121.52a.58.58,0,0,1-.31.2c-.25,0-.43-.24-.53-.47a18.81,18.81,0,0,1-1.17-7.13,19,19,0,0,1,1-6c.15,0,.15-.11.26-.22.66-.63,1.62,0,1.86.71a3.8,3.8,0,0,1,.18,1.16c0,.93.09,1.86.14,2.79C109.38,115.45,109.92,119.17,107.79,121.52Z" fill="#525d5e"/>
            <path id="Trazado_129033" data-name="Trazado 129033" d="M108.24,98.5c-3.12-.56-3.21-.7-3.25-.75s-.51-3.35-.84-6V91.6h.15c2.12,0,6.31-.17,7-.5l.19-.09v.21c-.06,2.25-.14,5-.25,5.13S109,98,108.33,98.48h0Zm3-7.11a50.74,50.74,0,0,1-6.8.46c.27,2.21.69,5.44.77,5.74a27,27,0,0,0,3,.64c1-.71,2.62-1.86,2.8-2a34.123,34.123,0,0,0,.22-4.84Z" fill="#788182"/>
            <path id="Trazado_129034" data-name="Trazado 129034" d="M115.27,95v-.13a31.78,31.78,0,0,0,.25-4.72V89.3l1.52-.79.07.59c0,.41.13,5.66.13,5.89h0l-.44,1.09h-.09C116.47,96.12,115.8,95.52,115.27,95Zm1.57-5.89v-.22l-1.06.55v.71a31.8,31.8,0,0,1-.25,4.71,7.16,7.16,0,0,0,1.13.94L117,95c0-.45-.12-5.49-.16-5.87Z" fill="#788182"/>
            <path id="Trazado_129035" data-name="Trazado 129035" d="M105.47,126.67l.25-.06c-.1-.38-.84-10.49-1-13-.11-1.74-.52-4.72-1.09-8.85-.2-1.47-.43-3.1-.67-4.86-.87-6.43-.38-9.8.22-12.24l-.26-.06c-.59,2.47-1.09,5.86-.21,12.33.24,1.77.46,3.39.67,4.87.57,4.12,1,7.09,1.09,8.83C104.59,115.67,105.35,126.23,105.47,126.67Z" fill="#788182"/>
            <path id="Trazado_129036" data-name="Trazado 129036" d="M98.66,68.25a38.16,38.16,0,0,0,.8,4.47,42.49,42.49,0,0,0,1.3,5.07c.73,1.85,1.51,7.69,1.81,7.9s.21.25,1.29.26c.68,0,1.79,0,3.65-.13,4.74-.26,8.26-1.74,8.48-2.53a64.037,64.037,0,0,0-.07-7.39c-.07-1.54,2.24-7.75,2.07-10s-1.89-3.22-3.7-3.48-4.68-.66-6.59,0c0,0-2.19.46-2.47.6s-3.16,2.24-4.06,2.67S98.55,67,98.66,68.25Z" fill="#dde8f6"/>
            <path id="Trazado_129037" data-name="Trazado 129037" d="M115.86,83.75c-.73.29-1.75,1.19-7,1.89a48.93,48.93,0,0,1-6.24.22s-.46,1.47-.31,1.65,1.09.65,3.55.52A52.8,52.8,0,0,0,114,86.47c2-.47,2.53-1.16,2.53-1.21S115.86,83.75,115.86,83.75Z" fill="#70524b"/>
            <path id="Trazado_129038" data-name="Trazado 129038" d="M113.11,87.13c.3-.76-.47-2.27-.56-2.44l-.4.21a3.67,3.67,0,0,1,.54,2.07Z" fill="#485455"/>
            <path id="Trazado_129039" data-name="Trazado 129039" d="M104.09,88.52l.38-.24a3.31,3.31,0,0,1-.2-2.28l-.43-.16a3.75,3.75,0,0,0,.25,2.68Z" fill="#485455"/>
            <path id="Trazado_129040" data-name="Trazado 129040" d="M110.35,61.78c1.3.23,4.11.54,4.93.7A3.69,3.69,0,0,1,118,65.24a7.05,7.05,0,0,1-.16,3c-.22,1.08-1.6,7.82-1.6,8.64s1.7,11.52,1.3,12.85-2.21,2.49-6.39,3.26-9.48.47-9.76-1.4.12-5.65-.55-8.14S98.4,69,98.38,68s1-1.47,3.12-2.69a23.39,23.39,0,0,0,3.22-2.15Z" fill="#616a6b"/>
            <path id="Trazado_129041" data-name="Trazado 129041" d="M102.93,65.23c-.62.33-4.15,1.68-3.11,2.78.5.53.89,1.17,1.4,1.7a.93.93,0,0,0,.66.37,1.09,1.09,0,0,0,.45-.18,10.6,10.6,0,0,1,4-1.45c.8-.11,1.61-.14,2.4-.32a13.82,13.82,0,0,0,1.69-.79,10.07,10.07,0,0,1,2.62-.39,7.68,7.68,0,0,1,2.53.15,3.93,3.93,0,0,0,.83.16.87.87,0,0,0,.74-.36,1.16,1.16,0,0,0,.07-.69,6.889,6.889,0,0,0-.28-1.35,1.52,1.52,0,0,0-.29-.6,1.58,1.58,0,0,0-.82-.37c-1.35-.33-2.72-.6-4.1-.81a11.75,11.75,0,0,0-3.9.42c-.78.14-1.49.45-2.24.65A13.88,13.88,0,0,0,102.93,65.23Z" fill="#697273"/>
            <path id="Trazado_129042" data-name="Trazado 129042" d="M109.77,61.46c-.32-1.36-.72-2.06-.51-3.16s.54-3.66.11-4.8-7.92-3.62-8.57-2.41a6.6,6.6,0,0,0-.22,3.89c.16.39,1.33,5.24,1.72,5.59s1.72-.11,1.79.1.35,2.25.35,2.25,3.32-1,3.88-1.09A10.821,10.821,0,0,0,109.77,61.46Z" fill="url(#linear-gradient-2)"/>
            <path id="Trazado_129043" data-name="Trazado 129043" d="M102.35,55.76A1.86,1.86,0,0,1,104,56.84a6.08,6.08,0,0,0,1.31,2.33c.46.31,2.78-.16,3.28-.39a1.54,1.54,0,0,0,.71-.83,20.671,20.671,0,0,0,.68-4.19c0-1.82-.34-3.48-1.34-4-.63-1.29-2.33-1.57-3.78-1.6a8,8,0,0,0-4.09,1c-.52.5-.54,2.5-.52,2.88a9.176,9.176,0,0,0,.12.94,5.14,5.14,0,0,0,.17,1.32c.13.11.4.29.4.29a4.06,4.06,0,0,1,.53,1,8.333,8.333,0,0,0,.1.85l.53.11S102,55.75,102.35,55.76Z" fill="#754942"/>
            <path id="Trazado_129044" data-name="Trazado 129044" d="M107.29,61.2c1.07-.27,2-.44,2.34-.53a2.41,2.41,0,0,0,.51-.19s.8,1.23.9,1.47-2.07.71-3.18,1-2.82.58-3.16.71-.89.37-.89.37.15-1.3.15-1.48.44-.49.44-.49S106.14,61.49,107.29,61.2Z" fill="#8a9192"/>
            <path id="Trazado_129045" data-name="Trazado 129045" d="M99.46,72.72a42.492,42.492,0,0,0,1.3,5.07c.73,1.85,1.51,7.69,1.81,7.9s.21.25,1.29.26c-.36-1.86-1.57-4-1.57-4.78,0-1.16-.8-7.44-.28-9.79A5,5,0,0,0,99.46,72.72Z" fill="#dae2eb"/>
            <path id="Trazado_129046" data-name="Trazado 129046" d="M102.86,56.05a1.64,1.64,0,0,1,.49,1.24c0,.52-.06,1.24-.32,1.21s-.25-.69-.29-1-.56-1.3-.47-1.54S102.68,55.88,102.86,56.05Z" fill="#feb5b4"/>
          </g>
          <g id="Grupo_81864" data-name="Grupo 81864">
            <path id="Trazado_129047" data-name="Trazado 129047" d="M95.84,93.11a1.18,1.18,0,0,0,.6.84,3.39,3.39,0,0,0,1.81.34.64.64,0,0,0,.4-.21c.35-.48,3.68-9.13,3.85-10.72s1.22-8.74.82-11.81a6.91,6.91,0,0,0-.74-2.43,2.94,2.94,0,0,0-2.68-1.69c-1,0-1.31.77-1.31,2.08s.07,11.24-.26,11.85S95.84,92.85,95.84,93.11Z" fill="#576263"/>
            <path id="Trazado_129048" data-name="Trazado 129048" d="M95.06,97.17s.48,1.32.58,1.46a1.677,1.677,0,0,0,.57.29l.34.1.33.1h0l.55.13h.23l1,.4s.62-.11.63-.22h0c0-.11-.2-.29-.2-.29h0a1.19,1.19,0,0,0,.55-.18c.1-.11-.24-.46-.24-.46h-.48a1.8,1.8,0,0,1-.35-.67c0-.23.19-1.37.2-1.89a3.43,3.43,0,0,0-.27-1.1,3.45,3.45,0,0,1,0-1.29S96.17,93,96.14,93s-.12.74-.19.91a8.59,8.59,0,0,1-.44,1.18,11.15,11.15,0,0,0-.45,2.08Z" fill="url(#linear-gradient-3)"/>
            <path id="Trazado_129049" data-name="Trazado 129049" d="M97.66,98.13a1.05,1.05,0,0,0,.16.48c.05.08.11.15.15.23L98,99c.15.29.52.36.8.43a5.166,5.166,0,0,0,.54.11h0c0-.11-.2-.29-.2-.29h0l-.62-.14A2.7,2.7,0,0,1,98.2,99c-.1,0-.13-.1-.18-.21Z" fill="#d6b3a6"/>
            <path id="Trazado_129050" data-name="Trazado 129050" d="M97,98.59c0,.1.14.21.21.3a3,3,0,0,1,.25.37h.23L97.42,99C97.32,98.86,97.16,98.63,97,98.59Z" fill="#d6b3a6"/>
            <path id="Trazado_129051" data-name="Trazado 129051" d="M96.41,98.78l.14.24.33.1-.23-.27c-.07-.08-.21-.3-.32-.33S96.37,98.72,96.41,98.78Z" fill="#d6b3a6"/>
            <path id="Trazado_129052" data-name="Trazado 129052" d="M98.25,94.29a.64.64,0,0,0,.4-.21c.35-.48,3.68-9.13,3.85-10.72s1.22-8.74.82-11.81a6.91,6.91,0,0,0-.74-2.43A18.12,18.12,0,0,1,103,74c0,2.41-1,8.24-1,9.79S98.94,92.38,98.25,94.29Z" fill="#dae2eb"/>
            <path id="Trazado_129053" data-name="Trazado 129053" d="M99.61,67.65c1.18-.1,2.82.68,2.89,3.51s-.57,11-1.45,12.34-2.06,0-2.13-2.63.1-11.35.29-12.35S99.61,67.65,99.61,67.65Z" fill="#616a6b"/>
            <path id="Trazado_129054" data-name="Trazado 129054" d="M100.31,82.11c.51.81,1,.62.84,2.29S98.44,93.55,98,93.81A1.7,1.7,0,0,1,96.14,93c-.19-.54,2.54-11.45,2.79-12S100.31,82.11,100.31,82.11Z" fill="#616a6b"/>
          </g>
        </g>
        <g id="Grupo_81869" data-name="Grupo 81869">
          <g id="Grupo_81866" data-name="Grupo 81866">
            <path id="Trazado_129055" data-name="Trazado 129055" d="M84,54.58v2.77s1.84,9.3,2.15,11.18,3.55,9.28,3.55,9.28a2.08,2.08,0,0,0,.78,0l.2-.06c.49-.18,1.24-.71,1.28-1s-3.41-9.86-3.64-10.44-.63-5.73-1-8.07S85.16,54.51,84,54.58Z" fill="#c7d9f0"/>
            <path id="Trazado_129056" data-name="Trazado 129056" d="M90.19,77.91a8,8,0,0,0,.12,1.48,11.69,11.69,0,0,0,.58,1.86,2.54,2.54,0,0,1,0,.54,11.271,11.271,0,0,1-.44,1.2l.24.27h0a.75.75,0,0,0-.07.3.36.36,0,0,0,.06.2.24.24,0,0,0,.18.12.27.27,0,0,0,.18,0,.36.36,0,0,0,.19.36h.07a.93.93,0,0,0,.61-.22l.1-.08s0,.24.11.33a.15.15,0,0,0,.15,0c.26,0,.91-1.08,1.06-1.39a7.63,7.63,0,0,0,.16-2.08,2.36,2.36,0,0,0-.47-1.18,10.56,10.56,0,0,1-1-2.14.78.78,0,0,0-1-.34l-1,.13A1.16,1.16,0,0,1,90.19,77.91Z" fill="url(#linear-gradient-4)"/>
            <path id="Trazado_129057" data-name="Trazado 129057" d="M92,81.9a1.81,1.81,0,0,1-.13,1.1,2.6,2.6,0,0,1-.61.63,1.79,1.79,0,0,0-.27.28v.06a.27.27,0,0,0,.18,0,.36.36,0,0,0,.19.36,1.84,1.84,0,0,1,.21-.55,3.11,3.11,0,0,1,.68-.77l.13.4v.06c0,.06-.07.07-.11.1a.48.48,0,0,0-.12.16,1.48,1.48,0,0,0-.12.41l.1-.08s0,.24.11.33l.12-.28a1.67,1.67,0,0,1,.23-.44c.11-.13.26-.23.37-.35a.51.51,0,0,0,.16-.47,2,2,0,0,0-.1-.21,1.6,1.6,0,0,1,0-.69,7.191,7.191,0,0,0-.09-.91,2.425,2.425,0,0,0-.06-.66,1.15,1.15,0,0,0,0,.37c0,.4-.09.78-.09,1.18a9.416,9.416,0,0,0,.11,1c0,.1,0,.24-.1.27s-.2-.08-.26-.17a1.89,1.89,0,0,1-.34-1.08,1.81,1.81,0,0,0,0-.4.9.9,0,0,0-.11-.27l-.42-.79a1.55,1.55,0,0,0-.71-.8L91.6,81a.39.39,0,0,1,.08.21c0,.2-.19.34-.23.53a2.08,2.08,0,0,0,0,.25,1.53,1.53,0,0,1-.13.52,1.84,1.84,0,0,1-.24.51,1,1,0,0,1-.35.29h0a.75.75,0,0,0-.07.3h0a2.29,2.29,0,0,0,.77-1.12l.43-1C91.93,81.63,91.94,81.77,92,81.9Z" fill="#d6b3a6"/>
            <path id="Trazado_129058" data-name="Trazado 129058" d="M84,56.91v.44s1.84,9.3,2.15,11.18,3.55,9.28,3.55,9.28a2.08,2.08,0,0,0,.78,0l.2-.06A3.67,3.67,0,0,0,90,77c-1.1-1.06-1.32-2.7-1.91-4.1-.26-.62-.59-1.21-.8-1.85a2.65,2.65,0,0,1,0-2,2,2,0,0,0,.38-.89,1.24,1.24,0,0,1-.74-.76,3.5,3.5,0,0,1-.2-1.07l-.15-1.88c-.05-.62-.1-1.24-.11-1.86a11.341,11.341,0,0,0-.09-1.84,13.28,13.28,0,0,0-.87-2.58,1.93,1.93,0,0,0-.89-1.19A1.72,1.72,0,0,0,84,56.91Z" fill="#a3b8d4"/>
          </g>
          <g id="Grupo_81867" data-name="Grupo 81867">
            <path id="Trazado_129059" data-name="Trazado 129059" d="M77.07,99.26c.27,1.19.78,4.78.88,5.73,0,.2.21.36.48.47,1,.38,2.56.31,2.56-.33,0-.83.66-10.53.77-11.44a50.14,50.14,0,0,1,2.07-6.51,40.79,40.79,0,0,0,1.88-13.75s-6.16,1-6.74,2.34a37.362,37.362,0,0,0-.82,5.56c-.45,4.2-.89,9.4-1.08,10.65a28.84,28.84,0,0,0,0,7.28Z" fill="url(#linear-gradient-5)"/>
            <path id="Trazado_129060" data-name="Trazado 129060" d="M77.07,99.26c.27,1.19.78,4.78.88,5.73,0,.2.21.36.48.47a33.167,33.167,0,0,0-.59-3.91,17.58,17.58,0,0,1-.13-6.72c.5-2,1.08-2,1.19-3.31s.7-4.74.67-6.91A16.86,16.86,0,0,0,79,80.53l-.84.8c-.45,4.2-.89,9.4-1.08,10.65a28.84,28.84,0,0,0-.01,7.28Z" fill="#d6b3a6"/>
            <path id="Trazado_129061" data-name="Trazado 129061" d="M81.09,93.66s-.2,10.47-.46,11.34-2.16.37-2.16.37-.41-5.6-.33-7.39a15.45,15.45,0,0,1,.78-4.45,19,19,0,0,0,2.17.13Z" fill="#ffc0bf"/>
            <path id="Trazado_129062" data-name="Trazado 129062" d="M85.19,76.22a32,32,0,0,1-1.11,8.62,43.889,43.889,0,0,1-2.58,7.24c-.45.69-2.27.24-2.27-.56s1.53-5.59,1.5-7.48a11.63,11.63,0,0,1,.36-3.19S83.41,76.57,85.19,76.22Z" fill="#ffc0bf"/>
            <path id="Trazado_129063" data-name="Trazado 129063" d="M72.89,92.91c0,.69-1,4.63-1,6.16A73,73,0,0,0,73,107.56a1.14,1.14,0,0,0,.26.5c.81.88,2.65.81,2.79.5a10.5,10.5,0,0,1-.3-2.77,66.362,66.362,0,0,1,1.8-11.18A111.77,111.77,0,0,0,79,82.05s-.08-.1.57-.49S82,78,81.81,77.17c0,0-6.34-2.78-8.44-2.34s-3,5.74-2.55,8.31c.4,2.3,1.72,7.79,2,9.38a2.91,2.91,0,0,1,.07.39Z" fill="url(#linear-gradient-6)"/>
            <path id="Trazado_129064" data-name="Trazado 129064" d="M71.9,99.07a73,73,0,0,0,1.1,8.49,1.14,1.14,0,0,0,.26.5c-.15-1.66-.65-5.18-1.1-7.4a12.09,12.09,0,0,1,.84-6.3,2.3,2.3,0,0,0-.18-1.84,2.911,2.911,0,0,1,0,.39C72.93,93.6,71.86,97.54,71.9,99.07Z" fill="#d6b3a6"/>
            <path id="Trazado_129065" data-name="Trazado 129065" d="M73.27,79.39S74.07,94.06,75,95.2s2.09-.76,2.33-1.67.76-5.54,1-8.27.5-4.81.24-5.87S75.08,77.31,74,77.58,73.27,79.39,73.27,79.39Z" fill="#ffc0bf"/>
            <path id="Trazado_129066" data-name="Trazado 129066" d="M73.33,97.43c.12-.75.16-1.66.24-2.27,1.11.09,2.5-.7,2.7.84.29,2.3-.9,7.24-.88,8.85s.15,2.57-.5,2.79-1.6-.11-1.75-3.38a28.82,28.82,0,0,1,.19-6.83Z" fill="#ffc0bf"/>
            <path id="Trazado_129067" data-name="Trazado 129067" d="M85.49,73.47a25.7,25.7,0,0,1-.66,12.8c-.54,2.06-1.26,4.65-1.26,4.65a20.33,20.33,0,0,1-6.47,1.77c-2.22.15-5.78-1.15-5.9-2.08-1.14-5.2-1.32-11.43.77-15a14.37,14.37,0,0,0,1.54-7.34Z" fill="#4f5887"/>
            <path id="Trazado_129068" data-name="Trazado 129068" d="M71.44,62.69A45,45,0,0,1,72.72,69c0,1.91,0,3.66-.09,5.31h0a1.2,1.2,0,0,0,.59.78c2.39,1.58,11.22,1.51,12.26-.78.06-.14.13-.26.19-.37.11-1.74-.07-6.55,0-7.13a14.24,14.24,0,0,1,.45-2.46c.46-2,0-8.42-.73-9.16s-6.45-2.38-8.14-2a10.56,10.56,0,0,0-6.8,3.76C70.18,57.43,70.81,60,71.44,62.69Z" fill="#dde8f6"/>
            <path id="Trazado_129069" data-name="Trazado 129069" d="M80.73,53a4.51,4.51,0,0,1,.09,2,2.72,2.72,0,0,1-1.24,1.39l1.15,1,1,.83V55.59a4.86,4.86,0,0,0-.3-2,2.5,2.5,0,0,0-.75-.86Z" fill="#fcfdfe"/>
            <path id="Trazado_129070" data-name="Trazado 129070" d="M81.05,52.16s-.27,2.82-.42,3.29a1.19,1.19,0,0,1-1,1,6.09,6.09,0,0,1-3-1.39A2,2,0,0,1,76,53.25a8.91,8.91,0,0,0,.07-2.89c-.25-1.37,1.07-2.31,1.88-1.71A34.35,34.35,0,0,1,81.05,52.16Z" fill="url(#linear-gradient-7)"/>
            <path id="Trazado_129071" data-name="Trazado 129071" d="M77.08,51s-.28,1.23,1.43,2.39,2.4.84,2.48.19S77.08,51,77.08,51Z" fill="#d6b3a6"/>
            <path id="Trazado_129072" data-name="Trazado 129072" d="M76.58,46.1s.16,5.26.5,5.73,3.74,2.31,4.7,2.1,1.75-3.93,1.75-4.37a15.529,15.529,0,0,0,0-2.67,2.668,2.668,0,0,0-1.33-2.32c-.85-.32-2.6-1.19-4-.47A2.91,2.91,0,0,0,76.58,46.1Z" fill="url(#linear-gradient-8)"/>
            <path id="Trazado_129073" data-name="Trazado 129073" d="M80.68,45c-1,.44-2.23.37-2.62,2.16s-.88,2-.88,2a2.83,2.83,0,0,0,0,1.3l.19.57a2.34,2.34,0,0,1-.6-1.24c0-.65-.27-1.09-.53-1.13s-.49.79-.49.79l.22,1s-.35.16-.81-.44a5,5,0,0,1-.79-4.11c.42-2.13,1.48-3.36,3.09-3.27,1.18-.65,2.81,0,3.59.46s1.88,1.23,2,1.69a3.14,3.14,0,0,1,.22,1.07c-.43-.63-.63-1-1.17-.89a5,5,0,0,1-1.42.04Z" fill="#ff5288"/>
            <path id="Trazado_129074" data-name="Trazado 129074" d="M72.72,69c0,1.91,0,3.66-.09,5.31h0a1.2,1.2,0,0,0,.59.78c0-1.22.07-2.56.15-3.42.12-1.46.24-3.86.33-5.09a4.77,4.77,0,0,1,1.07-2.37,2,2,0,0,1-.88-.67,14.66,14.66,0,0,1-.51-2.47l-1.94,1.64A45,45,0,0,1,72.72,69Z" fill="#dae2eb"/>
            <path id="Trazado_129075" data-name="Trazado 129075" d="M75.68,52.27a11.4,11.4,0,0,0,3.9,4.15c.13.45-.79,1.93-.79,1.93A15.91,15.91,0,0,1,76,56c-1.06-1.25-1.27-1.75-1.27-2.34s.9-1.67.9-1.67l.45-.25-.14.75Z" fill="#fcfdfe"/>
            <path id="Trazado_129076" data-name="Trazado 129076" d="M76.4,49.39a1.12,1.12,0,0,0-.78-1.15c-.32,0-.83.1-.55,1.08a1.652,1.652,0,0,0,.77,1.17c.17.17.51.5.7.26s-.13-.71-.13-1A3.417,3.417,0,0,0,76.4,49.39Z" fill="#feb5b4"/>
          </g>
          <g id="Grupo_81868" data-name="Grupo 81868">
            <path id="Trazado_129077" data-name="Trazado 129077" d="M72.75,65.6c.77,1.09,2.06,3.51,3.19,4.48h0a2,2,0,0,0,.54.35.88.88,0,0,0,.48,0c1.14-.25,2.46-2.49,2.35-3.09h0c-.08-.22-.54-1.1-1.13-2.24-1-2-2.5-4.82-3-6.3-.87-2.32-2.73-2.73-3.71-2.41,0,0-.62-.09-1,.78a3,3,0,0,0-.16.57C70,59.2,71.87,64.32,72.75,65.6Z" fill="#c7d9f0"/>
            <path id="Trazado_129078" data-name="Trazado 129078" d="M75.94,70.08h0c1.92,2.5,10,5.53,10.49,5.57a.66.66,0,0,0,.5-.11,2.82,2.82,0,0,0,.54-.73c.41-.65.58-1.48.37-1.65s-7.54-5.24-8.47-5.79H79.3c-.43-.21-.51-.16-1.25.14h-.14s-1.72,1.06-2,2.1A.9.9,0,0,0,75.94,70.08Z" fill="#c7d9f0"/>
            <path id="Trazado_129079" data-name="Trazado 129079" d="M86.58,75.52s.9.44,1.28.57,2.2,1.35,2.43,1.48a3.5,3.5,0,0,0,1,.28,11.75,11.75,0,0,0,2.3.1c.22,0,.16-.16.13-.19h.42a.53.53,0,0,0,.23-.19.43.43,0,0,0,0-.35v-.06a.6.6,0,0,0,.2,0,.48.48,0,0,0,.14-.06c.19-.11.5-.34.51-.45a.36.36,0,0,0-.09-.24.45.45,0,0,0-.06-.08l.25-.08.22-.1a.38.38,0,0,0,.11-.44,7.769,7.769,0,0,0-1.79-.43,10.24,10.24,0,0,1-1.95-1.16l-.26-.19.24-.19s1.07-.22,1.36-.25a1.94,1.94,0,0,0,1-.71.21.21,0,0,0,0-.24c-.24-.34-1,.17-1.21.21a15.6,15.6,0,0,0-1.89.12,8.06,8.06,0,0,0-1.21.63,1.61,1.61,0,0,1-.88.22c-.39,0-.83-.28-1.08-.27s-.63.31-1,.87a2.34,2.34,0,0,0-.4,1.2Z" fill="url(#linear-gradient-9)"/>
            <path id="Trazado_129080" data-name="Trazado 129080" d="M91.72,75.4a10.65,10.65,0,0,0,1.88.86,3.83,3.83,0,0,0,1.22.11h.27a.45.45,0,0,0-.06-.08l.25-.08a13.567,13.567,0,0,1-1.43,0h-.21L93.46,76a9.55,9.55,0,0,0-1.77-.69S91.7,75.39,91.72,75.4Z" fill="#d6b3a6"/>
            <path id="Trazado_129081" data-name="Trazado 129081" d="M91.59,76.49h0a11.35,11.35,0,0,0,1.4.56,2.239,2.239,0,0,0,.37.1,1.77,1.77,0,0,0,.46,0h.52v-.06a.6.6,0,0,0,.2,0,.48.48,0,0,0,.14-.06h-.43a2.781,2.781,0,0,1-.5,0,3.24,3.24,0,0,1-.79-.23,11.832,11.832,0,0,0-1.16-.34h0a.55.55,0,0,0-.21.03Z" fill="#d6b3a6"/>
            <path id="Trazado_129082" data-name="Trazado 129082" d="M91,77.16a.61.61,0,0,0,.22.13,4.859,4.859,0,0,0,.63.25,6.531,6.531,0,0,0,.77.14,10,10,0,0,0,1.09.08h.43a12.729,12.729,0,0,1-1.51-.08,5.089,5.089,0,0,1-.67-.18A5.291,5.291,0,0,0,91,77.16Z" fill="#d6b3a6"/>
            <path id="Trazado_129083" data-name="Trazado 129083" d="M91.23,73.81l.64.25-.26-.19.24-.19s1.07-.22,1.36-.25a1.94,1.94,0,0,0,1-.71,3.17,3.17,0,0,1-1.63.69,4.123,4.123,0,0,0-.92.07,1.64,1.64,0,0,0-.55.19A.192.192,0,0,0,91.23,73.81Z" fill="#d6b3a6"/>
            <path id="Trazado_129084" data-name="Trazado 129084" d="M72.75,65.6c.77,1.09,2.06,3.51,3.19,4.48h0c1.92,2.5,10,5.53,10.49,5.57a.66.66,0,0,0,.5-.11,50.329,50.329,0,0,1-6.12-2.78c-1.19-.64-2.34-1.32-3.47-2.05L77,70.46a8.61,8.61,0,0,1-1-.84,9.21,9.21,0,0,1-1.25-1.51l-1-1.47a15.721,15.721,0,0,1-1.27-2.31,23.462,23.462,0,0,1-.9-2.28,19.929,19.929,0,0,1-.75-2.3,10.38,10.38,0,0,1-.34-1.9v-.69a3,3,0,0,0-.16.57C70,59.2,71.87,64.32,72.75,65.6Z" fill="#a3b8d4"/>
            <path id="Trazado_129085" data-name="Trazado 129085" d="M78.67,66.83a2.1,2.1,0,0,0-1.34.56c.12-.06.47.08.62.08h.1c.21,0,.42-.06.62-.07h.63c-.08-.22-.54-1.1-1.13-2.24C78.34,65.67,78.51,66.25,78.67,66.83Z" fill="#a3b8d4"/>
            <path id="Trazado_129086" data-name="Trazado 129086" d="M76.46,60.71c.19.43.39.86.61,1.27A13.4,13.4,0,0,0,76.46,60.71Z" fill="#a3b8d4"/>
          </g>
        </g>
        <g id="Grupo_81870" data-name="Grupo 81870">
          <path id="Trazado_129087" data-name="Trazado 129087" d="M79.44,107.65s-.39.16-.38.46,0,1.42,0,1.42-.26.16-.41.09a1.524,1.524,0,0,1-.37-.4s-.32-2.2-.46-2.65S79.44,107.65,79.44,107.65Z" fill="#8e8e8e"/>
          <path id="Trazado_129088" data-name="Trazado 129088" d="M79.46,107.54c.44.5,1.42,2.92,1.75,3.27s1.08.11,2.28.12.79.07.74-.27a10.511,10.511,0,0,0-1-1.82c-.31-.54-1.66-1.85-2-2.9a1.6,1.6,0,0,1,0-.53c-1.09,1-2.89-.31-2.89-.31a2.06,2.06,0,0,1-.17,1.29C78.42,106.9,79.14,107.18,79.46,107.54Z" fill="#febfbf"/>
          <path id="Trazado_129089" data-name="Trazado 129089" d="M78.1,104.87a23.129,23.129,0,0,1,2.37,3.47c.57,1.26,1.22,1.79,1.72,1.79.79,0,1.33-.47,1.17-.88l-.16-.41s1.94,2.21,1.63,3.53-3.79-.66-4.3-1.37a22.52,22.52,0,0,0-1-2.79c-.45-.57-1.49-.63-1.74-1.77S78.1,104.87,78.1,104.87Z" fill="#c2d2ea"/>
          <path id="Trazado_129090" data-name="Trazado 129090" d="M79.47,107.94a28.056,28.056,0,0,1,1.16,2.9c.47.66,3.53,2.38,4.2,1.51h0c-.32,1.33-3.79-.66-4.3-1.37a22.521,22.521,0,0,0-1-2.79c-.39-.49-1.23-.61-1.6-1.38a9.089,9.089,0,0,1,1.54,1.13Z" fill="#8e8e8e"/>
        </g>
        <g id="Grupo_81871" data-name="Grupo 81871">
          <path id="Trazado_129091" data-name="Trazado 129091" d="M74.25,109.66s-.57-.19-.58.11v2.16a.27.27,0,0,1-.28.06c-.15-.07-.36-.43-.36-.43s-.16-1.86-.27-2.31S74.25,109.66,74.25,109.66Z" fill="#8e8e8e"/>
          <path id="Trazado_129092" data-name="Trazado 129092" d="M74.17,111.76c.43.95.21.76.5,1.18s1.07,1.55,2.06,1.48c.74-.07.91-1.32.35-3.19-.18-.59-1-3-1-3.24h0a1.66,1.66,0,0,1-1.17.37,1.83,1.83,0,0,1-1.65-.93,12.079,12.079,0,0,0-.28,1.54C72.94,109.54,73.44,110.15,74.17,111.76Z" fill="#febfbf"/>
          <path id="Trazado_129093" data-name="Trazado 129093" d="M76.36,108.91a23,23,0,0,1,1.1,2.71c.7,2.39.61,3.41.42,4s-1.87,0-3-1.06c-1.33-1.18-.67-2.5-1.46-3.9-.25-.46-.76-.52-.65-1.86a2.09,2.09,0,0,1,.53-1.38,2.84,2.84,0,0,0-.1,1.73c.15.39.26.6.48,1.09a9.24,9.24,0,0,0,1.22,2.65c.63.68,2.56.36,2.53,0a11.29,11.29,0,0,0-.52-2.23C76.62,109.81,76.36,108.91,76.36,108.91Z" fill="#c2d2ea"/>
          <path id="Trazado_129094" data-name="Trazado 129094" d="M73.45,110.53c.79,1.4.1,2.63,1.42,3.82,1.08,1,2.68,1.56,3,1.15v.09c-.21.57-1.87,0-3-1.06-1.33-1.18-.67-2.5-1.46-3.9-.16-.3-.5-.37-.57-.83C73,110.11,73.33,110.31,73.45,110.53Z" fill="#8e8e8e"/>
        </g>
        <path id="Trazado_129095" data-name="Trazado 129095" d="M112.2,83.75c.45,3.2,1.6,5.81,1.34,8.73l-.58.14a11.44,11.44,0,0,0-.21-4.05,32.809,32.809,0,0,1-.55-4.82Z" fill="#485455"/>
        <path id="Trazado_129096" data-name="Trazado 129096" d="M81.15,75.94l.75-.16a29.6,29.6,0,0,1-.14-8.41c0-.5.08-1,.11-1.47a17.57,17.57,0,0,0-.81-6.42c-.21-.88-.46-1.89-.75-3.15l-.75.17c.29,1.27.53,2.28.75,3.16a16.86,16.86,0,0,1,.79,6.19c0,.47-.07,1-.11,1.46a30.07,30.07,0,0,0,.16,8.63Z" fill="#fff"/>
      </g>
      <g id="Grupo_81885" data-name="Grupo 81885">
        <path id="Trazado_129097" data-name="Trazado 129097" d="M42.8,116.37c4.28,2.47,11.25,2.46,15.55,0s4.33-6.51,0-9a17.211,17.211,0,0,0-15.55,0C38.49,109.83,38.52,113.9,42.8,116.37Z" fill="#e3e4ed"/>
        <g id="Grupo_81873" data-name="Grupo 81873">
          <path id="Trazado_129098" data-name="Trazado 129098" d="M56.27,108.62a6,6,0,0,1,2.11,1.65,2.06,2.06,0,0,1,0,1,4.21,4.21,0,0,1-.23.61,2.56,2.56,0,0,1-2.24.32,4.59,4.59,0,0,1-2.5-1.2c-.22-.26-.68-.88-.68-.88l-.81-.53-.87.05s-1.71-.72-1.92-.89-.19-.63-.19-.63.18-.68.2-.9,1.06-.51,1.06-.51Z" fill="#484848"/>
          <path id="Trazado_129099" data-name="Trazado 129099" d="M44.15,109.11a.78.78,0,0,0-.44.8,9.36,9.36,0,0,0,0,1.08,4.44,4.44,0,0,0,.84.93l.39.25a13,13,0,0,0,1.22,2,4.13,4.13,0,0,0,2.4,1.25,3.47,3.47,0,0,0,3-.41c.39-.34,0-1.24-.12-1.44s-1.26-1.49-1.26-1.49l-4.26-2.67Z" fill="#484848"/>
          <path id="Trazado_129100" data-name="Trazado 129100" d="M53.88,106.32a3.69,3.69,0,0,0,.83,1.06c.33.21,2.31,1.52,2.93,2.07a1.89,1.89,0,0,1,.54,1.87c-.2.25-.53.77-2.19.44a7.09,7.09,0,0,1-3.22-2.05,17.58,17.58,0,0,0-2.1-1.11c-.28-.12-1.42-.53-1.34-1.3a6.77,6.77,0,0,1,.38-1.76C49.8,105.34,53.88,106.32,53.88,106.32Z" fill="#626b6c"/>
          <path id="Trazado_129101" data-name="Trazado 129101" d="M48.21,108.26a9.79,9.79,0,0,0,1.06,2.15,20.57,20.57,0,0,1,2.06,3.1,1.23,1.23,0,0,1,0,.87c-.1.24-.72.93-2.54.55a4.65,4.65,0,0,1-3.07-1.87,17.41,17.41,0,0,1-1-2.11c-.11-.24-.78-.64-.81-1.22a3.14,3.14,0,0,1,.3-1.47c.18-.39,3.47-.49,3.47-.49Z" fill="#626b6c"/>
          <path id="Trazado_129102" data-name="Trazado 129102" d="M56.59,70.74a36.38,36.38,0,0,1,1,9.39c-.27,2.87-1.93,13-2,14.11s-1.26,12-1.53,12.57-2,.72-2.75.63-1.11-.14-1.41-.63.59-12.49.55-13.69.17-13,.06-13.75-.67-6.74.67-7.52S56.59,70.74,56.59,70.74Z" fill="#485455"/>
          <path id="Trazado_129103" data-name="Trazado 129103" d="M50.89,107.38c0-.1.33-11,.42-12.32s0-8.16,0-12.75V81.6h-.25v.71c0,4.31.08,11.51,0,12.73s-.42,12.23-.43,12.34Z" fill="#788182"/>
          <path id="Trazado_129104" data-name="Trazado 129104" d="M53.71,73.41a31.28,31.28,0,0,1,.26,6.9c-.3,1.58-1.79,1.81-1.77,2s-2.47,11.42-2.66,12.94-.86,13-1,13.54-1.79.88-2.65.84a2,2,0,0,1-1.66-.88c-.17-.36-.75-10.38-.63-11.49s.72-4.7.72-5.31S43,79.43,43.11,76.56a21.16,21.16,0,0,1,1.18-6.07C44.62,69.63,53.71,73.41,53.71,73.41Z" fill="#485455"/>
          <path id="Trazado_129105" data-name="Trazado 129105" d="M43.69,72.49a14.2,14.2,0,0,0,7.75,1.88c4.05-.3,5.17-2.13,5.38-2.55.22.15.2,1.09.24,1.29s-.27,1.53-3.75,2.48-9.69-.93-9.89-1.75a2.17,2.17,0,0,1,.27-1.35Z" fill="#70524b"/>
          <path id="Trazado_129106" data-name="Trazado 129106" d="M54.52,73.8c.13,0,.23.39.23.39a10.909,10.909,0,0,1-.12,1.11c-.05.11-.37.22-.37.22l-1.45.41-.14-.3V74.21l1.69-.49Z" fill="#c4c4c4"/>
          <path id="Trazado_129107" data-name="Trazado 129107" d="M55.91,74.84A4.59,4.59,0,0,0,55.82,73l-.38.23.19-.11-.19.1a5.05,5.05,0,0,1,0,1.53Z" fill="#485455"/>
          <path id="Trazado_129108" data-name="Trazado 129108" d="M51.68,76.53a17.67,17.67,0,0,1,.15-2.24l-.42-.13c-.06.19-.14,1.71-.17,2.35Z" fill="#485455"/>
          <path id="Trazado_129109" data-name="Trazado 129109" d="M43.67,74.67l.43-.11a5.7,5.7,0,0,1,.34-2l-.35-.28a5.48,5.48,0,0,0-.42,2.39Z" fill="#485455"/>
          <path id="Trazado_129110" data-name="Trazado 129110" d="M47.45,78.75A3.81,3.81,0,0,0,50,78a1.75,1.75,0,0,0,.72-1.41h-.25a1.45,1.45,0,0,1-.63,1.19c-.55.46-1.9,1.12-4.67.34l-.07.24A8.78,8.78,0,0,0,47.45,78.75Z" fill="#788182"/>
          <path id="Trazado_129111" data-name="Trazado 129111" d="M44.74,109.22s.07-1.22,0-4.45.46-9.23.61-10.45a101.49,101.49,0,0,0-.46-10.93,36.5,36.5,0,0,1,.31-9h-.25a36.91,36.91,0,0,0-.32,9.06,101.493,101.493,0,0,1,.47,10.88,91.2,91.2,0,0,0-.61,9.63c.06,3.21,0,5.28,0,5.29Z" fill="#788182"/>
          <path id="Trazado_129112" data-name="Trazado 129112" d="M57.16,76.39a.88.88,0,0,0,.63-.27L57.6,76a.6.6,0,0,1-.57.17c-.38-.08-.73-.52-1-1.24l-.24.08c.35,1,.82,1.34,1.16,1.41Z" fill="#788182"/>
          <path id="Trazado_129113" data-name="Trazado 129113" d="M53.31,81.38a1,1,0,0,0,.42-.54c-.6,0-.84-.47-1-1a35.1,35.1,0,0,1-.38-4.11v-.09L54,75.05v.15c0,.23.85,5.64-.59,6.41Zm.49-6-1.21.4a35.782,35.782,0,0,0,.37,4c.21.67.43.89.86.83a15.85,15.85,0,0,0-.02-5.22Z" fill="#788182"/>
        </g>
        <g id="Grupo_81882" data-name="Grupo 81882">
          <path id="Trazado_129114" data-name="Trazado 129114" d="M54.54,53.94s.56,1.27,1.25,2.7A19,19,0,0,0,58,60.54a36,36,0,0,0,3.42,2.62h.06a4.2,4.2,0,0,0,1.17.55c1.09.21,3-.17,3.08-1s-5.5-7.37-6.61-8.55-2.08-2.81-3.47-2.64Z" fill="#b87287"/>
          <path id="Trazado_129115" data-name="Trazado 129115" d="M58.17,67.49a3.81,3.81,0,0,0,1.51.86,1.07,1.07,0,0,0,.78-.09A43.86,43.86,0,0,0,65.94,64a1.06,1.06,0,0,0-.09-1.18l-.1-.14c-.25-.36-1.84-.67-3.11-.52h-.25l-.12.12-.83.82-.2.19-3.07,3S57.86,67.23,58.17,67.49Z" fill="#b87287"/>
          <path id="Trazado_129116" data-name="Trazado 129116" d="M55.79,56.64A19,19,0,0,0,58,60.54a36,36,0,0,0,3.42,2.62l-.2.19a1.35,1.35,0,0,0,.26-.15l.23-.14a3.77,3.77,0,0,0,.91-.88l.14-.19a2.19,2.19,0,0,1-.29.21l-.22.14c-.27.15-.57.27-.74.17-.37-.2-.4-.16-1.81-1.56a18.35,18.35,0,0,1-3.3-4.6A4,4,0,0,0,55.79,56.64Z" fill="#a36578"/>
          <g id="Grupo_81881" data-name="Grupo 81881">
            <g id="Grupo_81874" data-name="Grupo 81874">
              <path id="Trazado_129117" data-name="Trazado 129117" d="M45.68,101.41,31.61,93.29V82.28L45.68,90.4Z" fill="#34333d"/>
              <path id="Trazado_129118" data-name="Trazado 129118" d="M45.48,90.51,31.64,82.52V93.27l13.84,8Z" fill="#302f3a"/>
              <path id="Trazado_129119" data-name="Trazado 129119" d="M48.27,99.92l-2.59,1.49V90.4l2.59-1.5Z" fill="#32313b"/>
              <path id="Trazado_129120" data-name="Trazado 129120" d="M34.21,80.78l-2.6,1.5L45.68,90.4l2.59-1.5Z" fill="#393842"/>
            </g>
            <g id="Grupo_81878" data-name="Grupo 81878">
              <g id="Grupo_81875" data-name="Grupo 81875">
                <path id="Trazado_129121" data-name="Trazado 129121" d="M37.81,84.54l-.41-.23V82.06l.41.24Z" fill="#969696"/>
                <path id="Trazado_129122" data-name="Trazado 129122" d="M38.41,84.2l-.6.34V82.3l.6-.35Z" fill="#7b7e8a"/>
                <path id="Trazado_129123" data-name="Trazado 129123" d="M38,81.72l-.6.34.41.24.6-.35Z" fill="#c7c7c7"/>
              </g>
              <g id="Grupo_81876" data-name="Grupo 81876">
                <path id="Trazado_129124" data-name="Trazado 129124" d="M42.13,85.74l-4.32-2.5V82.3l4.32,2.49Z" fill="#8f816e"/>
                <path id="Trazado_129125" data-name="Trazado 129125" d="M42.73,85.39l-.6.35v-.95l.6-.35Z" fill="#7a6851"/>
                <path id="Trazado_129126" data-name="Trazado 129126" d="M38.41,81.95l-.6.35,4.32,2.49.6-.35Z" fill="#84745f"/>
              </g>
              <g id="Grupo_81877" data-name="Grupo 81877">
                <path id="Trazado_129127" data-name="Trazado 129127" d="M42.52,87.27l-.41-.23V84.79l.41.24Z" fill="#969696"/>
                <path id="Trazado_129128" data-name="Trazado 129128" d="M43.12,86.92l-.6.35V85.03l.6-.35Z" fill="#7b7e8a"/>
                <path id="Trazado_129129" data-name="Trazado 129129" d="M42.71,84.44l-.6.35.41.24.6-.35Z" fill="#c7c7c7"/>
              </g>
            </g>
            <g id="Grupo_81879" data-name="Grupo 81879">
              <path id="Trazado_129130" data-name="Trazado 129130" d="M34.95,83.44l1.35-.78v-.25l-1.35.78Z" fill="#7b7e8a"/>
              <path id="Trazado_129131" data-name="Trazado 129131" d="M34.35,83.09l.6.35v-.25l-.6-.34Z" fill="#969696"/>
              <path id="Trazado_129132" data-name="Trazado 129132" d="M35.7,82.06l.6.35-1.35.78-.6-.34Z" fill="#c7c7c7"/>
            </g>
            <g id="Grupo_81880" data-name="Grupo 81880">
              <path id="Trazado_129133" data-name="Trazado 129133" d="M44.6,89.01l1.35-.79v-.24l-1.35.78Z" fill="#7b7e8a"/>
              <path id="Trazado_129134" data-name="Trazado 129134" d="M43.99,88.66l.61.35v-.25l-.61-.34Z" fill="#969696"/>
              <path id="Trazado_129135" data-name="Trazado 129135" d="M45.35,87.63l.6.35-1.35.78-.61-.34Z" fill="#c7c7c7"/>
            </g>
          </g>
          <path id="Trazado_129136" data-name="Trazado 129136" d="M37.65,83.43a4.68,4.68,0,0,0,.51,1.12h0s.25.24.4.36l.09.07c.11.06.53.23.53.23h0a8.94,8.94,0,0,0,.78.51,1.27,1.27,0,0,0,.23.12h.09a.911.911,0,0,0,.21,0,.61.61,0,0,0,.41,0h.17l.31.05s.71-.66.74-1,0-1.63,0-1.63-.55-1.42-.8-1.91a12.52,12.52,0,0,1-.93-2.47L38,79.16a13.581,13.581,0,0,1,.28,2C38.23,81.46,37.54,82.94,37.65,83.43Z" fill="url(#linear-gradient-10)"/>
          <path id="Trazado_129137" data-name="Trazado 129137" d="M40.45,84.43a2.83,2.83,0,0,0,.24.25.85.85,0,0,1,.19.42.38.38,0,0,0-.06-.46s-.12-.1-.12-.16v-.07a1,1,0,0,1,.24-.25,5,5,0,0,1,.32.66.57.57,0,0,1,0,.14.93.93,0,0,1-.06.37.3.3,0,0,1-.05.2.29.29,0,0,1,0,.09.26.26,0,0,1-.05.09A2.2,2.2,0,0,0,41,86h.17a1.72,1.72,0,0,0,.07-.21,3.38,3.38,0,0,1,.31-.82h0l-.19-.26a2,2,0,0,1-.31-.8c-.11.07-.17.23-.25.32Z" fill="#d6b3a6"/>
          <path id="Trazado_129138" data-name="Trazado 129138" d="M40.38,85.9a.45.45,0,0,0-.16,0h.09a.911.911,0,0,0,.21,0h0a.22.22,0,0,0-.05-.11,5.659,5.659,0,0,0-.6-.6,1.78,1.78,0,0,0,.39.51.27.27,0,0,1,.12.2Z" fill="#d6b3a6"/>
          <path id="Trazado_129139" data-name="Trazado 129139" d="M39.13,85.12a.83.83,0,0,0,.08.12,8.94,8.94,0,0,0,.78.51l-.18-.18a6.14,6.14,0,0,1-.51-.51s-.14-.22-.21-.2S39.11,85.07,39.13,85.12Z" fill="#d6b3a6"/>
          <path id="Trazado_129140" data-name="Trazado 129140" d="M38.15,84.33a.417.417,0,0,1,.05.14.12.12,0,0,1,0,.08h0s.25.24.4.36a3.212,3.212,0,0,1-.19-.31.54.54,0,0,1-.11-.27s0-.12-.06-.12A.1.1,0,0,0,38.15,84.33Z" fill="#d6b3a6"/>
          <path id="Trazado_129141" data-name="Trazado 129141" d="M41.79,59.39a37.6,37.6,0,0,0,.88,3.69c.38,1,1.6,4.62,1.56,5.86s.14,3.61.14,3.61a3.87,3.87,0,0,0,1.64.8,16.85,16.85,0,0,0,6.36.56c3.51-.4,4.06-1,4.44-1.82s.87-6.6,1.22-8.8a60.3,60.3,0,0,0,.48-7A8.78,8.78,0,0,0,57.12,52a36.879,36.879,0,0,0-4.51-1.2,14.89,14.89,0,0,0-4.5-.42c-1.26.23-6.16,2.61-6.8,3.52C40.94,54.41,41.33,57.05,41.79,59.39Z" fill="#dde8f6"/>
          <path id="Trazado_129142" data-name="Trazado 129142" d="M47.37,50.35s-4.15,1.86-5.41,2.7A3.66,3.66,0,0,0,40.27,56c-.21,1.1,2.65,10.16,2.83,11.15A19.91,19.91,0,0,1,42.8,73a24.62,24.62,0,0,0-.75,3.48c0,.49.35,1.69,4.2,2.51s5,.55,5.31-1.27-.13-15-.66-18.38-2.16-4.68-2.16-4.68l-.81-2.83Z" fill="#c98398"/>
          <path id="Trazado_129143" data-name="Trazado 129143" d="M58.09,76.38C55.63,79.7,55,77.57,55,76.05c0-.94.14-6.07.17-11.43a77.091,77.091,0,0,0-.57-9.93c-.09-.85-3.24-3.9-3-4s4.9.3,5.29,1S59.22,54,58.5,61.22a130,130,0,0,0-.41,15.16Z" fill="#c98398"/>
          <path id="Trazado_129144" data-name="Trazado 129144" d="M52.09,50.49s1.25.17,2.39,2.07a8.79,8.79,0,0,1,.64,3.87s.91.4.91.52A102.939,102.939,0,0,1,55,74.23s.1-11-.61-15.62A32.619,32.619,0,0,0,53.67,55c-.24-.74-.57-1.7-.78-2.21C52.53,51.91,52.09,50.49,52.09,50.49Z" fill="#db9fb1"/>
          <path id="Trazado_129145" data-name="Trazado 129145" d="M42.67,63.08c.38,1,1.6,4.62,1.56,5.86s.14,3.61.14,3.61a3.87,3.87,0,0,0,1.64.8c-.1-1-.23-2-.29-3a47.679,47.679,0,0,0-.79-5.93c-.21-1.08-.67-2.07-.92-3.13-.12-.53,0-1.29-.14-1.87A1.11,1.11,0,0,0,43.7,59c-.12-.19-.72-.25-.93-.23a1.26,1.26,0,0,0-1,.62,37.6,37.6,0,0,0,.9,3.69Z" fill="#dae2eb"/>
          <path id="Trazado_129146" data-name="Trazado 129146" d="M53.17,49.05a39.269,39.269,0,0,0-.9,4.24c-.1.48-2.44.13-3.59-.63s-2-1.62-1.83-2.12a31,31,0,0,0,.93-3c.29-1.41-.05-4,.14-4.67s2.94.26,4.25,1.31S53.17,49.05,53.17,49.05Z" fill="url(#linear-gradient-11)"/>
          <path id="Trazado_129147" data-name="Trazado 129147" d="M52.07,53.89a74.06,74.06,0,0,1,1.85,17l-.59,1.6-.94-1c-.23-12.8-1-17.25-1-17.25Z" fill="#6865c9"/>
          <path id="Trazado_129148" data-name="Trazado 129148" d="M51.52,53.47l.98-.03-.35,1.35-.63.2-.84-.95Z" fill="#7c78f0"/>
          <path id="Trazado_129149" data-name="Trazado 129149" d="M46.94,50.32a6,6,0,0,0,4.63,3.15c.16.16-1.22,1.33-1.23,1.47a20.72,20.72,0,0,1-3-1.62,3.52,3.52,0,0,1-1.55-1.93c-.11-.42.77-1.49.8-1.72s.65-.3.65-.3Z" fill="#fcfdfe"/>
          <path id="Trazado_129150" data-name="Trazado 129150" d="M52.52,50.75a3.63,3.63,0,0,1,.76,1.71A15.6,15.6,0,0,1,53,54.6l-1.5-1.11a8.349,8.349,0,0,0,.74-.7,5.29,5.29,0,0,0,.4-1.53Z" fill="#fcfdfe"/>
          <path id="Trazado_129151" data-name="Trazado 129151" d="M50.12,50.73a2.77,2.77,0,0,0,1.7.69.82.82,0,0,0,.72-.18.74.74,0,0,0,.15-.48,2.58,2.58,0,0,0,0-1,2.71,2.71,0,0,0-.72-1.06,3,3,0,0,0-2-1.16c-.66,0-.69.64-.62,1.16A3.33,3.33,0,0,0,50,50.64Z" fill="#d6b3a6"/>
          <path id="Trazado_129152" data-name="Trazado 129152" d="M53,51.3c-.72,0-3.13-1.2-3.6-2.5a15.19,15.19,0,0,1-.54-3.2c-.09-.37.46-4.43,1.49-5.35s4.56-1,5.19,0a5.39,5.39,0,0,1,.67,3.32C56.09,44.53,54.52,51.38,53,51.3Z" fill="url(#linear-gradient-12)"/>
          <path id="Trazado_129153" data-name="Trazado 129153" d="M49.46,45.25l.52.16s.14-1.12.82-1.28a1.3,1.3,0,0,0,.9-.79s.43-1.71.78-1.75,1.85.58,2.41.62a5.74,5.74,0,0,0,1.33.11c.19-.09.16-.6.19-1.11a3.47,3.47,0,0,0-1.94-2.72,5.17,5.17,0,0,0-4.68-.35c-1.72.27-2.1,1.51-2.29,2.93a12.79,12.79,0,0,0,.21,4.14c.23.72-.09-1.43.66-1.59a.73.73,0,0,1,1,.71A7.963,7.963,0,0,0,49.46,45.25Z" fill="#754942"/>
          <path id="Trazado_129154" data-name="Trazado 129154" d="M59.68,68.35a1.07,1.07,0,0,0,.78-.09A43.859,43.859,0,0,0,65.94,64a1.06,1.06,0,0,0-.09-1.18,5.318,5.318,0,0,1,0,.6c0,.52-.63.88-2.09,2a22.75,22.75,0,0,1-4.08,2.93Z" fill="#a36578"/>
          <path id="Trazado_129155" data-name="Trazado 129155" d="M54.36,69.05l.2.47v.85s.35.28.5.24a1.47,1.47,0,0,0,.37-.4v-.14h.51a2.66,2.66,0,0,0,.47.11.85.85,0,0,0,.37-.12h.15c.24,0,.7.08.81,0a2.59,2.59,0,0,0,.28-.89l1.19-.29a2.13,2.13,0,0,0,.53-.51,1.44,1.44,0,0,0-.14-.84,2.53,2.53,0,0,0-1.36-.88s-.39.06-.7.14-2.3,0-2.62.13S54.36,69.05,54.36,69.05Z" fill="url(#linear-gradient-13)"/>
          <path id="Trazado_129156" data-name="Trazado 129156" d="M57,69.73a1.83,1.83,0,0,0,0,.33h.15a.41.41,0,0,1-.07-.25c0-.1,0-.21,0-.32a.34.34,0,0,1,0-.14.42.42,0,0,1,0-.15,2.16,2.16,0,0,0,.07-.51s0,.06,0,.09a.88.88,0,0,0-.07.23.52.52,0,0,1-.07.31,3.07,3.07,0,0,0-.01.41Z" fill="#d6b3a6"/>
          <path id="Trazado_129157" data-name="Trazado 129157" d="M55.82,70.05h.31v-.51a2.17,2.17,0,0,1,0-.26,2.87,2.87,0,0,1,.05-.31,1.09,1.09,0,0,0,0-.4c0,.06-.08.09-.09.14a1.608,1.608,0,0,0,0,.22,1.38,1.38,0,0,0,0,.2,2.328,2.328,0,0,1-.11.51,1.75,1.75,0,0,1-.16.41Z" fill="#d6b3a6"/>
          <path id="Trazado_129158" data-name="Trazado 129158" d="M54.56,69.52v.24a2.912,2.912,0,0,0,.39,0s.2.16.33.24a1.861,1.861,0,0,1,.2.2v-.08a1.53,1.53,0,0,0-.34-.32c-.14-.12-.15-.19-.13-.28s.2-1.48.26-1.64c0,0-.06-.08-.1,0S55,69.44,55,69.44a.89.89,0,0,1-.38.1Z" fill="#d6b3a6"/>
          <path id="Trazado_129159" data-name="Trazado 129159" d="M38.14,80.46a.51.51,0,0,0,.21,0A6.93,6.93,0,0,0,40.53,80a.82.82,0,0,0,.38-.29c.22-.47-.06-9.39,0-10s3.12-9.61,3.5-11.37a4.64,4.64,0,0,0-.14-2.27h0a2.91,2.91,0,0,0-2.13-2.16c-.49-.08-.75-.1-1,.09a2.25,2.25,0,0,0-.46.7c-.43.88-3.47,11.46-3.72,14.23S37.82,80.34,38.14,80.46Z" fill="#b87287"/>
          <path id="Trazado_129160" data-name="Trazado 129160" d="M39.31,69.57a10.84,10.84,0,0,1,.89.79c.3.57.32,6.82.33,9.67a.82.82,0,0,0,.38-.29c.22-.47-.06-9.39,0-10s3.12-9.61,3.5-11.37a4.64,4.64,0,0,0-.14-2.27c.07,1.7-.82,3.68-1.7,6.71-1.13,3.9-1.73,6.58-2.12,6.74A2.81,2.81,0,0,1,39.31,69.57Z" fill="#a36578"/>
          <path id="Trazado_129161" data-name="Trazado 129161" d="M38.14,80.46a.51.51,0,0,0,.21,0c-.68-3.68-1.14-10.87-1.14-11.38a155.991,155.991,0,0,1,4-15.14,2.25,2.25,0,0,0-.46.7c-.43.88-3.47,11.46-3.72,14.23S37.82,80.34,38.14,80.46Z" fill="#a36578"/>
          <path id="Trazado_129162" data-name="Trazado 129162" d="M46.2,50.41a4.58,4.58,0,0,0-1.15,1.08c-.22.51.62,1.73,1.21,2.4,2.49,2.85,3.34,3.84,3.34,3.84l-1.21,1S49.74,65.6,50,66.62s1.71,6.81,1.71,6.81-.13-5.92-.31-10.59a30.65,30.65,0,0,0-.85-6.94c-.57-2.18-3.78-3.84-4.54-5Z" fill="#db9fb1"/>
          <path id="Trazado_129163" data-name="Trazado 129163" d="M49.14,44.47a1,1,0,0,0-1-.85c-.87-.07-.49.71-.39,1.4s.22,1.56.71,1.54.36-1,.38-1.2S49.18,44.68,49.14,44.47Z" fill="#feb5b4"/>
        </g>
        <g id="Grupo_81884" data-name="Grupo 81884">
          <path id="Trazado_129164" data-name="Trazado 129164" d="M42.13,85.74l-.59-.34-.41-.24a.56.56,0,0,1-.24-.16,1,1,0,0,1-.12-.28.62.62,0,0,1,0-.19,5.617,5.617,0,0,1,0-.58h.09l.06.08.21.11.49.29.5.28Z" fill="#8f816e"/>
          <path id="Trazado_129165" data-name="Trazado 129165" d="M41.17,83.64H41a.54.54,0,0,0-.2.1,1.1,1.1,0,0,0-.08.14.24.24,0,0,0,0,.12l.1.06.24.14c.18.1.36.2.53.31l.49.27.6-.34L42,84l-.35-.2a.78.78,0,0,0-.37-.17Z" fill="#84745f"/>
          <g id="Grupo_81883" data-name="Grupo 81883">
            <path id="Trazado_129166" data-name="Trazado 129166" d="M42.52,87.27l-.41-.23V84.79l.41.24Z" fill="#969696"/>
            <path id="Trazado_129167" data-name="Trazado 129167" d="M43.12,86.92l-.6.35V85.03l.6-.35Z" fill="#7b7e8a"/>
            <path id="Trazado_129168" data-name="Trazado 129168" d="M42.71,84.44l-.6.35.41.24.6-.35Z" fill="#c7c7c7"/>
          </g>
        </g>
      </g>
    </g>
  </g>
</svg>
