<svg id="Capa_1" data-name="Capa 1" xmlns="http://www.w3.org/2000/svg" xmlns:xlink="http://www.w3.org/1999/xlink" width="200" height="200" viewBox="0 0 200 200">
  <defs>
    <linearGradient id="linear-gradient" x1="854.882" y1="0.5" x2="855.885" y2="0.5" gradientUnits="objectBoundingBox">
      <stop offset="0.12" stop-color="#fec7c7"/>
      <stop offset="0.97" stop-color="#ffadb7"/>
    </linearGradient>
    <linearGradient id="linear-gradient-2" x1="0.038" y1="0.536" x2="1.188" y2="0.336" gradientUnits="objectBoundingBox">
      <stop offset="0.12" stop-color="#feb9b8"/>
      <stop offset="1" stop-color="#ffdede"/>
    </linearGradient>
  </defs>
  <g id="Grupo_81669" data-name="Grupo 81669">
    <path id="Trazado_127396" data-name="Trazado 127396" d="M122.1,134.93c6.71-3.87,17.58-3.87,24.29,0s6.71,10.15,0,14-17.58,3.88-24.29,0S115.39,138.8,122.1,134.93Z" opacity="0.3"/>
    <path id="Trazado_127397" data-name="Trazado 127397" d="M154.09,89.04l2.25-.41,1.8-1.23.4-2.13-1.58-.72-3.89,2.25Z" fill="#752e34"/>
    <path id="Trazado_127398" data-name="Trazado 127398" d="M158.9,86.61l1.62.58s2.14,1.7,2.28,2.21a1.92,1.92,0,0,1-.22,1.18,15.419,15.419,0,0,0,1.6,3.27,1.73,1.73,0,0,1-.78,2.63c-1.24.63-3.43,0-4.45-1A10.46,10.46,0,0,1,157,92.8a26.109,26.109,0,0,1-1.57-3.55V87.39L158,85.8Z" fill="#fdc6b4"/>
    <path id="Trazado_127399" data-name="Trazado 127399" d="M153.56,87.13l1.87,2.12.7-1.06,1.73-1.28,1.04-.3-1.91-2.6-1.79.12-2.13,1.8Z" fill="#f6f6f6"/>
    <path id="Trazado_127400" data-name="Trazado 127400" d="M140.84,54.68l2.86.36a3.88,3.88,0,0,1,2.88,2.87c.44,2.33,3,16.22,3,16.22l8.95,11.14a3.25,3.25,0,0,0-2.95,1.06,4.88,4.88,0,0,0-1.5,2.71l-9.43-9.83-5.78-22Z" fill="#975137"/>
    <path id="Trazado_127401" data-name="Trazado 127401" d="M149.12,140.4c1.66,1.06.23,3.31,0,3.63-.78,1.74-4.95-.64-4.95-.64s-2.32-1.55-3.56-2.18a29.5,29.5,0,0,0-3.13-1c-1.58-.79-2-1.3-2-1.77v-.34l5.59.44S148.34,139.91,149.12,140.4Z" fill="#6e564f"/>
    <path id="Trazado_127402" data-name="Trazado 127402" d="M126.57,138.22l.64,3.54A18.17,18.17,0,0,1,128,145c.1,1.27-.49,2.76-3,2.85s-3-1.76-3.37-3.18a31.618,31.618,0,0,1,0-5.71l.43-1.29Z" fill="#6e564f"/>
    <path id="Trazado_127403" data-name="Trazado 127403" d="M141.89,134.54a30.732,30.732,0,0,0,2.49,2.69c.91.77,4,2.26,4.74,2.75,1.66,1.06.23,3.3,0,3.62-.78,1.75-4.95-.64-4.95-.64s-2.32-1.55-3.56-2.17a31.82,31.82,0,0,0-3.13-1c-1.58-.8-2-1.31-2-1.77v-2.3l3.1-2.12Z" fill="#372824"/>
    <path id="Trazado_127404" data-name="Trazado 127404" d="M132.62,96.25s2.91,14.8,2.58,18.27a45,45,0,0,0-.58,6c-.07,3.58.76,15.15.76,15.15s.64,1.59,3.84,1.37,3.44-1.67,3.44-1.67.2-17.12.64-21.13,1.21-5.64,1.49-11.44a81.3,81.3,0,0,0,0-9.72l-7-2.3Z" fill="#603404"/>
    <path id="Trazado_127405" data-name="Trazado 127405" d="M126.57,137.68l.64,3.53a18.371,18.371,0,0,1,.75,3.26c.1,1.27-.49,2.76-3,2.84s-3-1.75-3.37-3.17a31.62,31.62,0,0,1,0-5.71l.43-1.29Z" fill="#372824"/>
    <path id="Trazado_127406" data-name="Trazado 127406" d="M122.66,99.37c-.2,6.8.65,12.7,0,15.39a33.381,33.381,0,0,0-1.24,4.35,113.18,113.18,0,0,0-.58,18.84s0,1.26,3.13,1.46c3.39.21,3.51-1.46,3.51-1.46s.74-11.65,2.24-20.59c.42-2.5,2.17-4.4,4-18.67.88-.88,5.55-1.84,10.22-7.59V88.62l-18.58,1.46S123,98.93,122.66,99.37Z" fill="#774205"/>
    <path id="Trazado_127407" data-name="Trazado 127407" d="M130.05,52.62a7.48,7.48,0,0,1-.44,3.47l-.47,1.8.91,3.51,2.15,1.84h3.2l1.38-.23,1.92-1.79.2-1.76-.42-3.54L135,52.32,131.1,52a5.18,5.18,0,0,1-1.05.62Z" fill="#d3a495"/>
    <path id="Trazado_127408" data-name="Trazado 127408" d="M135.31,92a10.32,10.32,0,0,0,5.86-2.29l.38-3L134.22,88,134,90.21Z" fill="#1e1313"/>
    <path id="Trazado_127409" data-name="Trazado 127409" d="M130.44,60.47l3.24,1.89,2.81.13,1.35-1.7-.19-3.21h1.46l3.45,7.85s-1,21.68-1,22.16c-1.82,2.35-5.6,2.5-5.6,2.5h-3.09l-4.63-28.27.8-1.13Z" fill="#f6f6f6"/>
    <path id="Trazado_127410" data-name="Trazado 127410" d="M136.75,57.58l1.55,2.68c2.15,4.18,2.24,12.23,2.24,12.23l.14,24.64s0,1.71,1.31.94l2.54-1.44a3.16,3.16,0,0,0,1.69-2.54c0-1.68-.13-24.27-.14-25.55,0-5.24-.77-7-2-8.93A13.83,13.83,0,0,0,140.45,56Z" fill="#ab5d40"/>
    <path id="Trazado_127411" data-name="Trazado 127411" d="M136.49,62.49l4.53-1.83L139.77,58l-1.53.72-.4,2.07Z" opacity="0.3"/>
    <path id="Trazado_127412" data-name="Trazado 127412" d="M139.17,59.25l1.61,1.23-1.12-2.53-1.49-.07-.06,1.43Z" fill="#e1dedc"/>
    <path id="Trazado_127413" data-name="Trazado 127413" d="M137.09,58.24l.75,2.55,1.33-1.54-1.01-2.14Z" fill="#f6f6f6"/>
    <path id="Trazado_127414" data-name="Trazado 127414" d="M123.08,60.34l6.53-4.25.78,3s2.07,2.83,2.56,3.3c2.52,3.06,2.92,11.33,2.92,11.33l.12,25a2.07,2.07,0,0,1-1.22,1.85c-5.09,1.67-8.37,1.17-9.81.48-2.48-1.19-2.48-2.18-2.48-2.18l.69-14.25-.84-11.5Z" fill="#ab5d40"/>
    <path id="Trazado_127415" data-name="Trazado 127415" d="M139,43.59l2.08,2.47a24.78,24.78,0,0,1,.5,2.82,3.2,3.2,0,0,1-.18,1.11,3.17,3.17,0,0,1,.22,1.15c0,.61-.07.83-.13,1.93-.14,2.88-.93,5.17-1.84,5.55a3.41,3.41,0,0,1-2.44.16c-6.59-2.69-5.7-4.8-6.16-5a3,3,0,0,1-1.38-1.64l-.7-1.22L130.24,45l5-2.72Z" fill="#fdc6b4"/>
    <path id="Trazado_127416" data-name="Trazado 127416" d="M130.3,50c.63-.18,1.52,1,1.47,1.85s1.48,1.38,1.55.52a14.23,14.23,0,0,0,0-3.81A6.47,6.47,0,0,0,132,46.18s2.83,1.93,4.72,1.93a5.19,5.19,0,0,0,4.42-2c1.33-3.59-6.63-7.56-10.29-4.05-5.27,5.06-1.12,10.09-1.12,10.09S128.73,50.41,130.3,50Z" fill="#a69c95"/>
    <path id="Trazado_127417" data-name="Trazado 127417" d="M105.37,87.95l-.25,1.23,1.68,2.64,1.26,1.05.9-2.18-2.45-3.21Z" fill="#752e34"/>
    <path id="Trazado_127418" data-name="Trazado 127418" d="M103.52,89.24l-3.75.55a8.31,8.31,0,0,0-1.33.92,1,1,0,0,0-.17.9s-2.41,3-2.39,3.53,2.15,3,5.56,1.59a16.19,16.19,0,0,0,4.25-2.9,1.78,1.78,0,0,0,.48-.94c.32-.58.8-1.42.8-1.42l-1.59-2.63Z" fill="#fdc6b4"/>
    <path id="Trazado_127419" data-name="Trazado 127419" d="M106,87.82l-2.47,1.42a2.68,2.68,0,0,1,2.14,1.31,2.72,2.72,0,0,1,.51,2.34l2.5-1.28.1-1.8-1.53-2.33Z" fill="#f6f6f6"/>
    <path id="Trazado_127420" data-name="Trazado 127420" d="M123.08,60.34l-2.79,1.53a4.05,4.05,0,0,0-1.93,2.71c-.45,2-1.5,6.72-1.5,6.72l-2.46,9.75-9,6.91s1-.22,2.16,1.68a3.52,3.52,0,0,1,.53,3.23s8.43-4.5,10.42-5.66a5,5,0,0,0,2.38-2.94l3-11.18S128.41,61.86,123.08,60.34Z" fill="#975137"/>
    <path id="Trazado_127421" data-name="Trazado 127421" d="M133.85,61.23l2.64,1.26s-2.87.53-3.76-.67C132.71,61.66,133.85,61.23,133.85,61.23Z" fill="#e1dedc"/>
    <path id="Trazado_127422" data-name="Trazado 127422" d="M136.49,62.49l-4.31,1.21a13.47,13.47,0,0,1-2.42-3.39,12.25,12.25,0,0,1-.63-3.91l2.45,4.06,2.27.77Z" opacity="0.3"/>
    <path id="Trazado_127423" data-name="Trazado 127423" d="M135,62.26a7.6,7.6,0,0,1-2-1.1c-.09.07-.55.41-.41.65a5.75,5.75,0,0,0,2.27,1.49l.42-.39Z" fill="#9e0727"/>
    <g id="Grupo_81668" data-name="Grupo 81668">
      <path id="Trazado_127424" data-name="Trazado 127424" d="M137.44,63.6c2.77,4.17,2.27,25,2.27,25l-1.43,2.19-1.51-1.33C138,71,136.3,64,136.3,64l.44-1S137.43,63.38,137.44,63.6Z" fill="#9e0727"/>
      <path id="Trazado_127425" data-name="Trazado 127425" d="M138.07,62.22a5.63,5.63,0,0,0,.24-2l-1.08,1.3.2.67Z" fill="#9e0727"/>
      <path id="Trazado_127426" data-name="Trazado 127426" d="M138.07,62.23l-.63,1.37-1.14.39-1.4-.69.09-1.04,1.5.23.74-.94Z" fill="#80021a"/>
    </g>
    <path id="Trazado_127427" data-name="Trazado 127427" d="M132.21,63.38l1.64-2.15a16.53,16.53,0,0,1-2.79-2.94,12.32,12.32,0,0,1-1.21-3l-.72,1.09a9.61,9.61,0,0,0,.81,3.55,16.6,16.6,0,0,0,2.27,3.45Z" fill="#f6f6f6"/>
  </g>
  <rect id="Rectángulo_35115" data-name="Rectángulo 35115" width="200" height="200" fill="none"/>
  <g id="Grupo_81676" data-name="Grupo 81676">
    <g id="Grupo_81670" data-name="Grupo 81670">
      <path id="Trazado_127428" data-name="Trazado 127428" d="M95.68,144.79a3.38,3.38,0,0,0-1.49-.33H68.3V127.54c0-.72-1-1.32-2.28-1.32s-2.28.6-2.28,1.32v16.92H37.85a3.22,3.22,0,0,0-1.67.43l-.6-.22v1.11c0,.72,1,1.31,2.27,1.31H63.74V164c0,.73,1,1.32,2.28,1.32s2.28-.59,2.28-1.32V147.09H94.19c1.25,0,2.27-.59,2.27-1.31v-1.11Z" fill="#030202"/>
      <path id="Trazado_127429" data-name="Trazado 127429" d="M94.19,143.36H68.3V126.43c0-.72-1-1.31-2.28-1.31s-2.28.59-2.28,1.31v16.93H37.85c-1.25,0-2.27.58-2.27,1.31s1,1.31,2.27,1.31H63.74v16.93c0,.72,1,1.31,2.28,1.31s2.28-.59,2.28-1.31V146H94.19c1.25,0,2.27-.58,2.27-1.31S95.44,143.36,94.19,143.36Z" fill="#5c4741"/>
    </g>
    <g id="Grupo_81673" data-name="Grupo 81673">
      <g id="Grupo_81671" data-name="Grupo 81671">
        <path id="Trazado_127430" data-name="Trazado 127430" d="M68.38,144.52v-1H63.66v1a1.18,1.18,0,0,0,.69,1,3.71,3.71,0,0,0,3.34,0,1.18,1.18,0,0,0,.69-1Z" fill="#372824"/>
        <path id="Trazado_127431" data-name="Trazado 127431" d="M67.69,144.51a3.71,3.71,0,0,1-3.34,0,1,1,0,0,1,0-1.93,3.71,3.71,0,0,1,3.34,0,1,1,0,0,1,0,1.93Z" fill="#8b6e69"/>
      </g>
      <g id="Grupo_81672" data-name="Grupo 81672">
        <path id="Trazado_127432" data-name="Trazado 127432" d="M67.89,143.47V95.63H64.15v47.84a1,1,0,0,0,.55.77,2.92,2.92,0,0,0,2.64,0A.94.94,0,0,0,67.89,143.47Z" fill="#372824"/>
        <path id="Trazado_127433" data-name="Trazado 127433" d="M67.34,96.39a2.92,2.92,0,0,1-2.64,0,.8.8,0,0,1,0-1.52,2.86,2.86,0,0,1,2.64,0,.8.8,0,0,1,0,1.52Z" fill="#5c4741"/>
      </g>
    </g>
    <g id="Grupo_81674" data-name="Grupo 81674">
      <path id="Trazado_127434" data-name="Trazado 127434" d="M15.09,65.02v66.55l1.22.71V65.72l-.06-.36Z" fill="#6e564f"/>
      <path id="Trazado_127435" data-name="Trazado 127435" d="M16.31,65.72v66.56l95.68-55.25V10.47L18.34,63.56Z" fill="#42322d"/>
      <path id="Trazado_127436" data-name="Trazado 127436" d="M111.3,74.58,17,129.02v-.46l93.91-54.21Z" fill="#8b6e69"/>
      <path id="Trazado_127437" data-name="Trazado 127437" d="M110.91,74.35V11.98l.39-.23V74.58Z" fill="#6e564f"/>
      <path id="Trazado_127438" data-name="Trazado 127438" d="M110.91,11.98V74.35L17,128.56V66.19Z" fill="#f6f6f6"/>
      <path id="Trazado_127439" data-name="Trazado 127439" d="M15.09,65.02,110.77,9.78l1.22.69L16.31,65.72Z" fill="#8b6e69"/>
    </g>
    <g id="Grupo_81675" data-name="Grupo 81675">
      <path id="Trazado_127440" data-name="Trazado 127440" d="M99.22,72.38,29,113V69.78a.56.56,0,0,0-1.12,0v44.13h0a.2.2,0,0,0,.06.14c.06.05,0,.09,0,.13a.46.46,0,0,0,.07.07h.05a.54.54,0,0,0,.62.06l71.1-40.96a.56.56,0,0,0,.21-.76.57.57,0,0,0-.77-.21Z" fill="#ff5c51"/>
      <path id="Trazado_127441" data-name="Trazado 127441" d="M43.16,68.21l-9.94,5.74v1.89l9.94-5.74Z" fill="#ff5c51"/>
      <path id="Trazado_127442" data-name="Trazado 127442" d="M43.16,71.93l-9.94,5.74v1.89l9.94-5.73Z" fill="#ff5c51"/>
      <path id="Trazado_127443" data-name="Trazado 127443" d="M39.05,78.03l-5.83,3.36v1.9l5.83-3.37Z" fill="#ff5c51"/>
      <path id="Trazado_127444" data-name="Trazado 127444" d="M31.63,108.69a.56.56,0,0,0,.48-.26l9.08-14.85,11.74.93a.54.54,0,0,0,.58-.39l4.74-15.37,9.45,3.37a.55.55,0,0,0,.68-.25L82.74,56v6.67a.56.56,0,1,0,1.12,0V53.79h0a.57.57,0,0,0-.14-.35h0a.51.51,0,0,0-.31-.13h-.08a.29.29,0,0,0-.16,0L75.3,57.09a.56.56,0,1,0,.49,1l6.27-3L67.63,80.91,58.07,77.5a.56.56,0,0,0-.72.36l-4.78,15.5-11.63-.93a.57.57,0,0,0-.52.27l-9.27,15.14a.56.56,0,0,0,.19.77.51.51,0,0,0,.29.08Z" fill="#ff5c51"/>
      <path id="Trazado_127445" data-name="Trazado 127445" d="M101.82,57.11a8.28,8.28,0,0,0-3.76,6.5c0,2.39,1.68,3.36,3.75,2.16a8.26,8.26,0,0,0,3.76-6.49C105.57,56.88,103.89,55.91,101.82,57.11Z" fill="#ff5c51"/>
      <path id="Trazado_127446" data-name="Trazado 127446" d="M101.82,43.63a8.29,8.29,0,0,0-3.76,6.5c0,2.39,1.68,3.36,3.75,2.17a8.29,8.29,0,0,0,3.76-6.5C105.57,43.4,103.89,42.43,101.82,43.63Z" fill="#ff5c51"/>
      <path id="Trazado_127447" data-name="Trazado 127447" d="M101.81,38.82a8.29,8.29,0,0,0,3.76-6.5c0-2.4-1.68-3.37-3.75-2.17a8.29,8.29,0,0,0-3.76,6.5C98.06,39,99.74,40,101.81,38.82Z" fill="#ff5c51"/>
    </g>
  </g>
  <g id="Grupo_81680" data-name="Grupo 81680">
    <path id="Trazado_127448" data-name="Trazado 127448" d="M150.57,190.56c6.1,3.52,16,3.5,22.16,0s6.16-9.28.06-12.8-16-3.5-22.15,0S144.47,187,150.57,190.56Z" fill="#e3e4ed"/>
    <g id="Grupo_81679" data-name="Grupo 81679">
      <g id="Grupo_81677" data-name="Grupo 81677">
        <path id="Trazado_127449" data-name="Trazado 127449" d="M149.74,183.13a1.44,1.44,0,0,0-.88.88v1.09a5.61,5.61,0,0,0,2.27,2.53,6.44,6.44,0,0,0,3.45,1,6.18,6.18,0,0,1,2.21.56,2.269,2.269,0,0,0,.19.48,7.93,7.93,0,0,0,2.21,1,3.12,3.12,0,0,0,2.34.06,1.89,1.89,0,0,0,1.31-1.22,14.664,14.664,0,0,0,0-1.64,1.1,1.1,0,0,0-.68-1Z" fill="#4f5a5b"/>
        <path id="Trazado_127450" data-name="Trazado 127450" d="M165,175.72c-.24.13-.42.19-.48.31a2,2,0,0,0-.12.82,3.06,3.06,0,0,0,.79,1.74,4.44,4.44,0,0,0,1.58,1.41c.44.23.64.42.86.41a.88.88,0,0,1,.58.33,4.191,4.191,0,0,1,.61,1c.05.29,0,.46.05.71a3.75,3.75,0,0,0,1.23,1.88c.85.63,3.82.34,4.08-.59a5.25,5.25,0,0,0-.08-1.73c-.07-.39-4.23-3.77-4.23-3.77Z" fill="#4f5a5b"/>
        <path id="Trazado_127451" data-name="Trazado 127451" d="M162.17,185.43a6.75,6.75,0,0,1,.33,2.89c-.12.49-1.62,1.53-3.87.65s-6.16-1.51-7.36-2.18-2.2-1.83-2.13-2.82a2,2,0,0,1,.85-1.6,8.5,8.5,0,0,1,3.29-.35h2.87Z" fill="#626b6c"/>
        <path id="Trazado_127452" data-name="Trazado 127452" d="M173.73,179.09a17.582,17.582,0,0,1,.33,3.06c0,.23-.5.86-2,1s-2.18-.29-2.62-.91a9.32,9.32,0,0,0-1.51-2.31c-.77-.63-1.27-.68-2.37-1.62a2.35,2.35,0,0,1-.83-2.44,1.76,1.76,0,0,1,1.13-.84,3.71,3.71,0,0,1,1.91.23C168.07,175.52,173.73,179.09,173.73,179.09Z" fill="#626b6c"/>
        <path id="Trazado_127453" data-name="Trazado 127453" d="M171.62,126.42c.52.52.83.2.88.78a37.308,37.308,0,0,1,.9,8.07,66.549,66.549,0,0,1-.88,8.26,131,131,0,0,0,.47,15.71c.32,2.08,1.46,17.6.94,21.17a4.78,4.78,0,0,1-6.12-1.39c-.38-.69-.69-11.36-1.91-17.47s-2.08-11.39-2.43-12.85a129.9,129.9,0,0,1-.76-13,47.9,47.9,0,0,1,.76-7Z" fill="#485455"/>
        <path id="Trazado_127454" data-name="Trazado 127454" d="M169.57,180.41h-.28a81,81,0,0,0-1.1-8.07c-.23-1.43-.47-2.92-.65-4.16-.51-3.43-1.66-8.69-2.35-11.83-.15-.68-.27-1.25-.36-1.67a43.87,43.87,0,0,1-.25-10.5h.28a43.769,43.769,0,0,0,.24,10.42l.36,1.68c.69,3.14,1.84,8.4,2.35,11.84.18,1.24.42,2.72.65,4.16A78.577,78.577,0,0,1,169.57,180.41Z" fill="#788182"/>
        <path id="Trazado_127455" data-name="Trazado 127455" d="M168.5,128.37a31,31,0,0,1,.85,8.84c-.3,2.57-.46,5.75-4,7.78-.31.74-2.09,16.94-2.09,19.27s-.81,20.93-.88,22.37c-2.31,2.66-5.63.42-6.16-.44a4.47,4.47,0,0,1-.65-2.41c0-.69,0-15.47-.51-22s-1.48-16-1.52-21.44,1.45-9,1.85-11.26S168.5,128.37,168.5,128.37Z" fill="#485455"/>
        <path id="Trazado_127456" data-name="Trazado 127456" d="M156.76,186.65h-.28a81.16,81.16,0,0,0,.18-12.27c-.21-2.26-.44-5.4-.69-8.71-.31-4.17-.66-8.9-1-12.83a93.355,93.355,0,0,1-.58-11.79v-.49a28.49,28.49,0,0,1,1.73-8.37l.26.11a28.39,28.39,0,0,0-1.71,8.27V141a97.067,97.067,0,0,0,.58,11.76c.39,3.94.74,8.67,1.05,12.84.24,3.31.47,6.44.69,8.7a83.45,83.45,0,0,1-.23,12.35Z" fill="#788182"/>
        <path id="Trazado_127457" data-name="Trazado 127457" d="M161.67,147.3a11.89,11.89,0,0,1-4-1.16c-.26-.33-.48-6.51-.54-8.39v-.17h.16a34,34,0,0,0,10-.58h.19v.2a65.3,65.3,0,0,1-1.33,7,21.151,21.151,0,0,1-4.36,3.08Zm-4.22-9.4c.1,3,.31,7.75.48,8.08a13.39,13.39,0,0,0,3.8,1c.43-.16,3.94-2.41,4.21-3a65.847,65.847,0,0,0,1.28-6.73,34.82,34.82,0,0,1-9.77.65Z" fill="#788182"/>
        <path id="Trazado_127458" data-name="Trazado 127458" d="M172.7,143h-.11c-2.31-.5-2.31-.57-2.31-.71a5.706,5.706,0,0,1,.23-1.11c.38-1.78,1.18-5.47,1.18-6v-.08h.07a5,5,0,0,0,1.52-1.39l.23-.37v.43c.11,1.6-.41,8.11-.44,8.38v.05Zm-2.13-.8c.26.09,1.14.3,2,.48l.3-.67c0-.41.47-5.9.45-7.91a6,6,0,0,1-1.31,1.1c-.06.79-.79,4.17-1.19,6-.13.47-.21.8-.25,1.01Z" fill="#788182"/>
        <path id="Trazado_127459" data-name="Trazado 127459" d="M172.84,129c-.28.54-.88,1.7-5.77,3.06a22.77,22.77,0,0,1-9.44,1,4.06,4.06,0,0,1-2.85-1.39s.11-1.13.18-1.46a1.45,1.45,0,0,1,.21-.52s-.38.77,3.07,1.43,9-1.12,10.21-1.58a40.684,40.684,0,0,0,4.07-2.16S173,128.68,172.84,129Z" fill="#754554"/>
        <path id="Trazado_127460" data-name="Trazado 127460" d="M168.91,129s.8,2.61.8,2.73-.8.4-.8.4l-.7-2.78Z" fill="#485455"/>
        <path id="Trazado_127461" data-name="Trazado 127461" d="M157.95,130.76l.9.1-.28,3.3-1.11-.19Z" fill="#485455"/>
      </g>
      <g id="Grupo_81678" data-name="Grupo 81678">
        <path id="Trazado_127462" data-name="Trazado 127462" d="M172.35,99.13a8.43,8.43,0,0,1,3.58-.18c.86.18,2.41,1.48,2.53,4.49s.53,3.56-1.11,9.21-4.06,12-4.26,13.11-.17,1.58-.28,1.9-3.89,2.27-8.87,2.83-7.64-.24-8.15-.51a1.41,1.41,0,0,1-.81-1,48.56,48.56,0,0,1,.65-8.48c.51-2.33,1.27-5.85,1.27-5.85s.51-7.72.85-8.22c.63-.93,4.75-2.51,6.07-3.83a10.58,10.58,0,0,1,3.36-2.06Z" fill="#dde8f6"/>
        <path id="Trazado_127463" data-name="Trazado 127463" d="M159.42,105.89a5,5,0,0,1,2.69,4.58c0,1.56-.43,3.07-3,4.28s-5.31,2.52-7.5,2.7-4.09-.8-4-2.7a3.27,3.27,0,0,1,2.15-3.45,42,42,0,0,0,6.11-3.52C157.56,106.4,158.45,105.43,159.42,105.89Z" fill="#c7d9f0"/>
        <path id="Trazado_127464" data-name="Trazado 127464" d="M156.53,98.2a14.55,14.55,0,0,1,3.08,2.07c.09.11-4.75,10-5.65,11.53s-6.88,3.48-6.07,1.12a61.219,61.219,0,0,1,5.82-11.1A24,24,0,0,1,156.53,98.2Z" fill="#c7d9f0"/>
        <path id="Trazado_127465" data-name="Trazado 127465" d="M156.61,98.47l.12.93,1.39.81.12.07.78-.35a11.849,11.849,0,0,0,1.4-1.21c.24-.33.35-.79.48-.89s.72-.38.92-.53,1-.59,1-.59a1.62,1.62,0,0,0,.29.21c.15.08.47-.15.47-.28s-.32-.44-.32-.48h0a.6.6,0,0,0-.06-.47.43.43,0,0,0-.46-.31l-.08-.25s-.14-.36-.41-.41a5.425,5.425,0,0,0-.68-.06l.35-.43h.36a.67.67,0,0,0,.61-.2.42.42,0,0,0,0-.65,3,3,0,0,0-1.09-.29,3.73,3.73,0,0,0-1.09.48l.86-.85s1-.81,1.14-.9a.865.865,0,0,0,.47-.69c-.01-.37-.14-.3-.26-.3s-1.84.88-2.09,1a29.379,29.379,0,0,0-2.67,2.3,27,27,0,0,0-1.55,4.34Z" fill="#fec7c7"/>
        <path id="Trazado_127466" data-name="Trazado 127466" d="M159.37,95.19c.19.34.36.43.5.7a.59.59,0,0,0,.58.41c.32,0,1-.5,1.18-.55a3.29,3.29,0,0,1,1.14-.4c-.06-.19,0-.09,0-.09l-.81.23h-.3l-.44.09-.12-.19-.22.45a1.6,1.6,0,0,1-.56.11c-.14,0-.26-.28-.26-.28s.37-.22.37-.5a2.1,2.1,0,0,1,.09-.56h.37l.21.17.53-.11.35-.43h.36a.75.75,0,0,0,.46-.08l.15-.12h-1.08a1.44,1.44,0,0,1-.36.41,1.22,1.22,0,0,1-.48,0l-.18-.11-.4-.06.43-.66.11-.26-.27.16.86-.86,1.31-1,.18-.18H163l-1.13.91s-1.16.85-1.26,1.14-.43.79-.47,1a.67.67,0,0,1-.73.68Z" fill="#ef989a"/>
        <path id="Trazado_127467" data-name="Trazado 127467" d="M158.12,100.21l.12.07.78-.35a11.849,11.849,0,0,0,1.4-1.21c.24-.33.35-.79.48-.89s.72-.38.92-.53,1-.59,1-.59a1.62,1.62,0,0,0,.29.21c.15.08.47-.15.47-.28s-.32-.44-.32-.48h0a3.65,3.65,0,0,1-.37.36,8.929,8.929,0,0,1-1.2.76,6.16,6.16,0,0,0-1.28.77,8.61,8.61,0,0,1-.83,1.15c-.27.26-1,.45-1.18.64A1.791,1.791,0,0,0,158.12,100.21Z" fill="#fec7c7"/>
        <path id="Trazado_127468" data-name="Trazado 127468" d="M174.43,89.1a16.59,16.59,0,0,1-.93,5.79,9.66,9.66,0,0,0-.27,3.32c.06.75-2.47,1.49-4.39,1.88s-3.12.82-3.09,0a10.38,10.38,0,0,0-.4-3.28c-.37-1.11-.95-1.08-1.76-1.27s.21-4.08.21-4.08l3-5.51Z" fill="url(#linear-gradient)"/>
        <path id="Trazado_127469" data-name="Trazado 127469" d="M164.26,83.91A16.29,16.29,0,0,0,163,87.82a6,6,0,0,1,.09,1c0,.11-.5.44-.48.74a4.251,4.251,0,0,0,.39.92,28.337,28.337,0,0,0-.39,3,3.39,3.39,0,0,0,.62,2c.39.41,2-.36,2.32-.76a18.459,18.459,0,0,0,.75-5.19c-.07-1-.52-4.56-.52-4.56Z" fill="#fec7c7"/>
        <path id="Trazado_127470" data-name="Trazado 127470" d="M149.66,110.5a10.527,10.527,0,0,0-1.24.22s-1,.09-.95.65.4.64.58.65,1.5-.21,1.5-.21Z" fill="#fec7c7"/>
        <path id="Trazado_127471" data-name="Trazado 127471" d="M147.47,114.91a16.555,16.555,0,0,1,2,.08c.4.08.48.23.51.35a2.267,2.267,0,0,1,0,.46s.37-.09.5,0a.56.56,0,0,1,.19.47.8.8,0,0,1-.07.28,1.46,1.46,0,0,1,.41-.08.38.38,0,0,1,.17.42c-.06.18-.64.58-.84.71a2.7,2.7,0,0,1-.69.36,2,2,0,0,1-1-.31l-.16-.15a3.17,3.17,0,0,1-.87-.31c-.18-.16-.21-.67-.22-.77s-.42-.2-.59-.33a.8.8,0,0,1-.22-.38,5.121,5.121,0,0,0,0-.73c0-.36-.27-.62-.31-.83s.5-.79.63-.92a9.646,9.646,0,0,1,1-.62,2.531,2.531,0,0,0,0,.72,1.557,1.557,0,0,1,.69.27.61.61,0,0,1,.09.64c-.09.21-.33.19-.57.21a2.16,2.16,0,0,0-.66.26Z" fill="#fec7c7"/>
        <path id="Trazado_127472" data-name="Trazado 127472" d="M147.33,116.51a.84.84,0,0,0,.42.17,11.146,11.146,0,0,0,1.28-.43l.71-.15c.2,0,.39-.08.4-.32-.12,0-.11.19-.43.18a13.371,13.371,0,0,0-1.69.38,3.49,3.49,0,0,1-.6.06Z" fill="#ef989a"/>
        <path id="Trazado_127473" data-name="Trazado 127473" d="M150.89,116.52a3,3,0,0,0-.8.48,7.55,7.55,0,0,1-.88.54h-.65l.62-.07,1.15-.79.37-.27Z" fill="#ef989a"/>
        <path id="Trazado_127474" data-name="Trazado 127474" d="M148.5,115a13.509,13.509,0,0,1-1.45,0h-.3a5.752,5.752,0,0,1,.53-.44,4,4,0,0,1,.83-.21s.6,0,.68-.15a.46.46,0,0,1,.21-.2l.05.62Z" fill="#ef989a"/>
        <path id="Trazado_127475" data-name="Trazado 127475" d="M155.93,130h-.28a44,44,0,0,1,2.82-8.92,25,25,0,0,0,1.36-4.41c.25-1.06.54-2.26,1-3.64l.26.09c-.42,1.36-.7,2.51-1,3.62a25.129,25.129,0,0,1-1.37,4.45,42.841,42.841,0,0,0-2.79,8.81Z" fill="#fff"/>
        <path id="Trazado_127476" data-name="Trazado 127476" d="M164.38,90.86l.57.25a1.22,1.22,0,0,1,2-.32,4.82,4.82,0,0,1,1.59,3.09,2.91,2.91,0,0,0,1.64,1.82c.86.39,2.94.19,3.15-.16a14.149,14.149,0,0,1,1.6-3c.87-1,3.95-5.11,1-8.29a11.28,11.28,0,0,1-1.73-1.16s-.64-1.88-4.17-1.86-5.75,1.13-6.22,2.1a2.46,2.46,0,0,0,0,2s.44.61.37.85-.45,1.27-.45,1.27a6.289,6.289,0,0,1,.72,1.53C164.44,89.24,164.38,90.86,164.38,90.86Z" fill="#754554"/>
        <path id="Trazado_127477" data-name="Trazado 127477" d="M165.83,90.8c.42.07.75.28.87,1.26a2.42,2.42,0,0,1-.55,1.82c-.22.34-.39.49-.58.28s-.07-1-.07-1.31a5.169,5.169,0,0,1,0-1C165.54,91.56,165.44,90.73,165.83,90.8Z" fill="url(#linear-gradient-2)"/>
      </g>
    </g>
  </g>
</svg>
