<svg id="Capa_1" data-name="Capa 1" xmlns="http://www.w3.org/2000/svg" xmlns:xlink="http://www.w3.org/1999/xlink" width="200" height="200" viewBox="0 0 200 200">
  <defs>
    <linearGradient id="linear-gradient" x1="-0.002" y1="0.497" x2="0.996" y2="0.497" gradientUnits="objectBoundingBox">
      <stop offset="0" stop-color="#ffdba7"/>
      <stop offset="1" stop-color="#ffc5a4"/>
    </linearGradient>
    <linearGradient id="linear-gradient-2" x1="0" y1="0.501" x2="1.001" y2="0.501" xlink:href="#linear-gradient"/>
    <linearGradient id="linear-gradient-3" x1="-0.008" y1="0.512" x2="0.997" y2="0.512" xlink:href="#linear-gradient"/>
    <linearGradient id="linear-gradient-4" x1="-8.995" y1="196.554" x2="-7.984" y2="196.554" xlink:href="#linear-gradient"/>
    <linearGradient id="linear-gradient-5" x1="1406.755" y1="0.919" x2="1407.069" y2="0.16" gradientUnits="objectBoundingBox">
      <stop offset="0.1" stop-color="#cecece"/>
      <stop offset="0.37" stop-color="#dedede"/>
      <stop offset="0.65" stop-color="#eaeaea"/>
      <stop offset="1" stop-color="#fcfcfc"/>
    </linearGradient>
  </defs>
  <rect id="Rectángulo_35160" data-name="Rectángulo 35160" width="200" height="200" fill="none"/>
  <g id="Grupo_81938" data-name="Grupo 81938">
    <g id="Grupo_81935" data-name="Grupo 81935">
      <path id="Trazado_129169" data-name="Trazado 129169" d="M118.67,153.79,47.21,114.56,81.57,94.71l70.1,40.02Z" fill="#c6c8d3"/>
      <path id="Trazado_129170" data-name="Trazado 129170" d="M62.37,147.46l-17.23-10c-3-1.73-2.62-4.74.84-6.73l19.13-11c3.45-2,8.67-2.21,11.66-.48L94,129.19c3,1.73,2.61,4.75-.84,6.74L74,147C70.58,149,65.36,149.18,62.37,147.46Z" fill="#c6c8d3"/>
      <g id="Grupo_81887" data-name="Grupo 81887">
        <path id="Trazado_129171" data-name="Trazado 129171" d="M73.11,125.24s-1.32.36-1.43,1a8.67,8.67,0,0,0-.13,1.84c0,.38,2,1.24,3.25,1.2a3.86,3.86,0,0,0,2.59-1.23,4.24,4.24,0,0,1,.76-.71,3.53,3.53,0,0,1,1.17-.57,7.25,7.25,0,0,0,2.16-.69A10.82,10.82,0,0,0,85,123.87c.49-.73-.13-1.79-.25-2a2.8,2.8,0,0,0-1.52-.41C82.52,121.49,73.11,125.24,73.11,125.24Z" fill="#323142"/>
        <path id="Trazado_129172" data-name="Trazado 129172" d="M78,121.58a15.46,15.46,0,0,1,3.64-.58,2.87,2.87,0,0,1,1.88.45c.92.51,1.13.79,1.16,1.18s-1,1.26-1.95,1.79a18.43,18.43,0,0,1-3.38,1,4.7,4.7,0,0,0-2.22.92,3.38,3.38,0,0,1-2.7.9c-1.28-.06-2.16-.42-2.41-1.07a8.56,8.56,0,0,1,.21-3.1c.13-.53,2.09-1.26,2.37-1.33S78,121.58,78,121.58Z" fill="#ababab"/>
        <path id="Trazado_129173" data-name="Trazado 129173" d="M82.39,101.87c-.16,6.46-2.37,19.81-2.6,20.93s-4.54,1.5-6.87.42c-.3-2.07.56-11.42.49-13.3S82.39,101.87,82.39,101.87Z" fill="#424c67"/>
        <path id="Trazado_129174" data-name="Trazado 129174" d="M78.34,123.35l-.43-.07c0-.13,2.18-12.64,2.08-14.94h.44C80.53,110.67,78.43,122.84,78.34,123.35Z" fill="#4f5a7a"/>
      </g>
      <g id="Grupo_81888" data-name="Grupo 81888">
        <path id="Trazado_129175" data-name="Trazado 129175" d="M84.36,127.47a.89.89,0,1,0,.89-.89.89.89,0,0,0-.89.89Z" fill="#141326"/>
        <path id="Trazado_129176" data-name="Trazado 129176" d="M80.58,140.72a.89.89,0,1,0,.89-.89.88.88,0,0,0-.89.89Z" fill="#141326"/>
        <path id="Trazado_129177" data-name="Trazado 129177" d="M57.59,143a.89.89,0,1,0,.88-.89.88.88,0,0,0-.88.89Z" fill="#141326"/>
        <path id="Trazado_129178" data-name="Trazado 129178" d="M47.21,130.88a.89.89,0,1,0,.88-.88.88.88,0,0,0-.88.88Z" fill="#141326"/>
        <path id="Trazado_129179" data-name="Trazado 129179" d="M63.55,121.48a.89.89,0,1,0,.89-.89.89.89,0,0,0-.89.89Z" fill="#141326"/>
        <path id="Trazado_129180" data-name="Trazado 129180" d="M68,131.89l-8.89,10.44-.32.29-1.12-.32v-.69l8-10.42-18.41-.79v-.69l18.83-.05L64,120.52v-1.04l4.8,9.93,17.64-3.35v.69l-16.43,4,12.7,8.49V140l-.39.25-.5.28Z" fill="#5a5873"/>
        <path id="Trazado_129181" data-name="Trazado 129181" d="M68,130.49l-8.89,11.15-.32.29-1.12-.32,8-11.82-18.41-.08.2-.74,18.63-.71L64,119.83v-.35l1.24-.12L68.72,128l17-2.61.59.66-16.43,3.33L82.25,139l.38.25-.39.25-.5.28Z" fill="#777781"/>
        <path id="Trazado_129182" data-name="Trazado 129182" d="M59.03,141.38,68,130.12l13.75,9.35.4-.23.16-.1-.16-.11-12.62-9.87,16.5-3.35-.33-.36-17.08,2.62-3.57-8.66-.94.09.02.17,2.16,8.62L47.58,129l-.11.4,18.5.08-8,11.89.8.23Z" fill="#888"/>
      </g>
      <g id="Grupo_81889" data-name="Grupo 81889">
        <path id="Trazado_129183" data-name="Trazado 129183" d="M149.97,95.8l-.12,39.44-1.37.8.12-39.45Z" fill="#717171"/>
        <path id="Trazado_129184" data-name="Trazado 129184" d="M148.6,96.59l-.12,39.45-1.38-.8.12-39.44Z" fill="#878787"/>
        <path id="Trazado_129185" data-name="Trazado 129185" d="M149.97,95.8l-1.37.79-1.38-.79,1.37-.8Z" fill="#b8b8b8"/>
      </g>
      <g id="Grupo_81890" data-name="Grupo 81890">
        <path id="Trazado_129186" data-name="Trazado 129186" d="M120.97,151.91l27.51-15.87.01-1.59-27.52,15.88Z" fill="#717171"/>
        <path id="Trazado_129187" data-name="Trazado 129187" d="M120.97,150.33l27.52-15.88-1.38-.79-27.52,15.87Z" fill="#989898"/>
        <path id="Trazado_129188" data-name="Trazado 129188" d="M120.97,151.91v-1.58l-1.38-.8v1.59Z" fill="#b8b8b8"/>
      </g>
      <g id="Grupo_81891" data-name="Grupo 81891">
        <path id="Trazado_129189" data-name="Trazado 129189" d="M120.68,121.81l27.63-15.94v-1.02l-27.62,15.94Z" fill="#717171"/>
        <path id="Trazado_129190" data-name="Trazado 129190" d="M120.69,120.79l27.62-15.94-.89-.51L119.8,120.28Z" fill="#989898"/>
        <path id="Trazado_129191" data-name="Trazado 129191" d="M120.68,121.81l.01-1.02-.89-.51v1.02Z" fill="#dcdcdc"/>
      </g>
      <g id="Grupo_81892" data-name="Grupo 81892">
        <path id="Trazado_129192" data-name="Trazado 129192" d="M53.64,113.04,81.15,97.16l.01-1.58L56.38,109.86Z" fill="#b0b0b0"/>
        <path id="Trazado_129193" data-name="Trazado 129193" d="M56.38,109.86,81.16,95.58l-1.38-.8L52.26,110.66Z" fill="#999"/>
        <path id="Trazado_129194" data-name="Trazado 129194" d="M53.64,113.04v-1.59l-1.38-.79v1.58Z" fill="#b8b8b8"/>
      </g>
      <g id="Grupo_81893" data-name="Grupo 81893">
        <path id="Trazado_129195" data-name="Trazado 129195" d="M53.35,82.94,80.97,67l.01-1.02L53.35,81.92Z" fill="#717171"/>
        <path id="Trazado_129196" data-name="Trazado 129196" d="M53.35,81.92,80.98,65.98l-.89-.51L52.47,81.41Z" fill="#989898"/>
        <path id="Trazado_129197" data-name="Trazado 129197" d="M53.35,82.94V81.92l-.88-.51v1.01Z" fill="#dcdcdc"/>
      </g>
      <g id="Grupo_81894" data-name="Grupo 81894">
        <path id="Trazado_129198" data-name="Trazado 129198" d="M121.09,111.12l-.12,40.79-1.37.8.12-40.79Z" fill="#717171"/>
        <path id="Trazado_129199" data-name="Trazado 129199" d="M119.72,111.92l-.12,40.79-1.38-.8.12-40.79Z" fill="#878787"/>
        <path id="Trazado_129200" data-name="Trazado 129200" d="M121.09,111.12l-1.37.8-1.38-.8,1.37-.79Z" fill="#b8b8b8"/>
      </g>
      <g id="Grupo_81895" data-name="Grupo 81895">
        <path id="Trazado_129201" data-name="Trazado 129201" d="M53.76,73.59l-.12,39.45-1.37.79.12-39.44Z" fill="#717171"/>
        <path id="Trazado_129202" data-name="Trazado 129202" d="M52.39,74.39l-.12,39.44-1.38-.79.12-39.45Z" fill="#878787"/>
        <path id="Trazado_129203" data-name="Trazado 129203" d="M53.76,73.59l-1.37.8-1.38-.8,1.37-.79Z" fill="#b8b8b8"/>
      </g>
      <g id="Grupo_81896" data-name="Grupo 81896">
        <path id="Trazado_129204" data-name="Trazado 129204" d="M82.64,56.92l-.12,39.45-1.37.79.12-39.44Z" fill="#b0b0b0"/>
        <path id="Trazado_129205" data-name="Trazado 129205" d="M81.27,57.72l-.12,39.44-1.38-.79.12-39.45Z" fill="#717171"/>
        <path id="Trazado_129206" data-name="Trazado 129206" d="M82.64,56.92l-1.37.8-1.38-.8,1.37-.79Z" fill="#b8b8b8"/>
      </g>
      <g id="Grupo_81897" data-name="Grupo 81897">
        <path id="Trazado_129207" data-name="Trazado 129207" d="M93.79,127.39c.83,0,2-.08,2.39.52a2.12,2.12,0,0,1,.17,1.67A4,4,0,0,1,94,131.91c-1.65.77-1.86.85-2.16.77a1.47,1.47,0,0,0-.7.08,3.556,3.556,0,0,0-1,.75,3.86,3.86,0,0,1-2.2,1.61,4.31,4.31,0,0,1-3.32,0c-1-.3-1.45-.7-1.49-1a6.82,6.82,0,0,1,.13-1.6,1.72,1.72,0,0,1,1.47-1C85.72,131.39,93.79,127.39,93.79,127.39Z" fill="#323142"/>
        <path id="Trazado_129208" data-name="Trazado 129208" d="M95.78,127.69c0-.66-1.61-1.24-1.93-1.37s-1.45-.21-1.63-.3a6.28,6.28,0,0,0-2.39-.17l-5.37,1.84a25,25,0,0,0-.62,2.51,22.272,22.272,0,0,0-.09,2.44A4.06,4.06,0,0,0,87,133.77c1.8-.09,2.4-1.41,4.15-1.76a7.242,7.242,0,0,0,4.22-2.15A2.46,2.46,0,0,0,95.78,127.69Z" fill="#ababab"/>
        <path id="Trazado_129209" data-name="Trazado 129209" d="M86.66,106s-2.74,20.86-2.82,22,2.52,1.84,4,1.58,3-1.17,3.12-2,4.5-21.34,3.9-25.28C93.16,101.36,86.66,106,86.66,106Z" fill="#424c67"/>
      </g>
      <g id="Grupo_81903" data-name="Grupo 81903">
        <g id="Grupo_81899" data-name="Grupo 81899">
          <path id="Trazado_129210" data-name="Trazado 129210" d="M51.48,108.26a8.45,8.45,0,0,0,.27-2.21c.08-1.46.2-3.46.68-4.22S59,97.51,63.12,95.3l1.56,5.36.66-.19-1.8-6.18-.37.2c-1.07.57-10.43,5.59-11.32,7-.58.91-.7,2.93-.79,4.55a10.24,10.24,0,0,1-.21,2Z" fill="#a3a2aa"/>
          <g id="Grupo_81898" data-name="Grupo 81898">
            <path id="Trazado_129211" data-name="Trazado 129211" d="M52.85,100.2l-.21-.12c-.48-.28-.42-.78.14-1.1l11.8-6.81a2.1,2.1,0,0,1,1.9-.08l.21.12c.49.28.43.77-.13,1.1l-11.8,6.81a2.15,2.15,0,0,1-1.91.08Z" fill="#302f40"/>
            <path id="Trazado_129212" data-name="Trazado 129212" d="M67,92.68v-.93s-14.7,6.78-14.7,6.91v1a21.7,21.7,0,0,0,3-.29C55.76,99.14,67,92.68,67,92.68Z" fill="#302f40"/>
            <path id="Trazado_129213" data-name="Trazado 129213" d="M52.85,99.25l-.21-.12c-.48-.28-.42-.77.14-1.1l11.8-6.81a2.13,2.13,0,0,1,1.9-.08l.21.12c.49.28.43.78-.13,1.1l-11.8,6.82A2.15,2.15,0,0,1,52.85,99.25Z" fill="#3d3b4e"/>
            <path id="Trazado_129214" data-name="Trazado 129214" d="M53.68,99.1a2,2,0,0,0,1-.25L66.47,92a.62.62,0,0,0,.38-.47.4.4,0,0,0-.24-.33l-.21-.12a1.5,1.5,0,0,0-.74-.17,2,2,0,0,0-1,.25L52.87,98c-.24.14-.38.32-.38.47a.4.4,0,0,0,.24.33l.21.12a1.47,1.47,0,0,0,.74.17Z" fill="#4a485c"/>
          </g>
        </g>
        <g id="Grupo_81902" data-name="Grupo 81902">
          <path id="Trazado_129215" data-name="Trazado 129215" d="M88.85,111.77,70,100.87l18.14,8.3S90.23,110.66,88.85,111.77Z" fill="#1c1b2e"/>
          <g id="Grupo_81901" data-name="Grupo 81901">
            <g id="Grupo_81900" data-name="Grupo 81900">
              <path id="Trazado_129216" data-name="Trazado 129216" d="M89.71,107.74c-3.42-3.14-19.08-11.27-19.52-11.29s-19.37,10.71-19.37,10.71l18.92,10.92,17-8.55Z" fill="#2e2d3e"/>
              <path id="Trazado_129217" data-name="Trazado 129217" d="M50.82,107.16c2.49-1.53,4-2.46,6.47-3.94,3.61-2.16,7.29-4.44,10.9-6.17a6.62,6.62,0,0,1,1.56-.61c.62-.11,1,.3,1.34.74a3.69,3.69,0,0,1,.66,1.38c.34,1.36-1.75,3.23-2.09,1.88a2.808,2.808,0,0,0-.1-.31c0-.06-.14-.31-.07-.17a3.26,3.26,0,0,0-.24-.4,3.506,3.506,0,0,1-.45-.42c.01-.04.3.07.16,0s.32-.08.15,0a4,4,0,0,1-.45.15c-.14,0-.21.16.1,0l-.17.07-.38.17c-1.53.73-3.08,1.62-4.62,2.49-3.71,2.11-7.42,4.34-11.12,6.59l-2.64,1.61c-.56.35-.35-.12-.08-.76C50.14,108.51,50.82,107.16,50.82,107.16Z" fill="#2e2d3e"/>
              <path id="Trazado_129218" data-name="Trazado 129218" d="M68.5,121.26c-.6,0-19-10.94-19-10.94l1.31-3.16s21,9.6,20.82,10.69S68.5,121.26,68.5,121.26Z" fill="#2e2d3e"/>
            </g>
            <path id="Trazado_129219" data-name="Trazado 129219" d="M69.74,118.08c2.49-1.53,4-2.46,6.47-3.94,3.62-2.15,7.29-4.44,10.9-6.16a6.671,6.671,0,0,1,1.56-.62,1.43,1.43,0,0,1,1.35.74,3.89,3.89,0,0,1,.65,1.39c.35,1.36-1.75,3.23-2.09,1.87a2.808,2.808,0,0,0-.1-.31s-.14-.3-.06-.16a3,3,0,0,0-.25-.4,4.466,4.466,0,0,1-.45-.43c0-.04.3.07.16.06s.32-.09.16,0a2.184,2.184,0,0,1-.46.14c-.15.05-.21.16.1,0a.61.61,0,0,1-.17.07l-.38.18c-1.53.73-3.08,1.61-4.62,2.49-3.71,2.11-7.41,4.33-11.12,6.59-.88.53-1.76,1.06-2.63,1.6-.57.35-.35-.12-.09-.76C69.06,119.44,69.74,118.08,69.74,118.08Z" fill="#232234"/>
          </g>
        </g>
      </g>
      <g id="Grupo_81904" data-name="Grupo 81904">
        <path id="Trazado_129220" data-name="Trazado 129220" d="M63.19,109.13s.38,3,3,3.79a18.68,18.68,0,0,0,11.26-.71c3.42-1.58,12.06-5.44,13.56-5.93s3.91-2.37,3.79-3.87a4.72,4.72,0,0,0-4.13-4.58c-3.15-.42-12.17.52-12.69.49s-3.12-.76-3.12-.76Z" fill="#424c67"/>
        <path id="Trazado_129221" data-name="Trazado 129221" d="M90,129l-.43-.08c0-.15,2.76-14.81,3.22-18.13.34-2.45.92-6.52.6-7a25.688,25.688,0,0,0-2.79.75c-3.4,1-9.08,2.68-11.81,2.32-4-.51-7.67-4.23-7.83-4.38l.31-.31s3.74,3.76,7.57,4.26c2.64.34,8.27-1.32,11.63-2.31,2.37-.7,2.89-.84,3.11-.74.56.25.39,2.19-.36,7.51C92.75,114.19,90,128.86,90,129Z" fill="#4f5a7a"/>
        <path id="Trazado_129222" data-name="Trazado 129222" d="M83.29,100c.3-2.51.22-4-1.43-5s-12-.72-14.61-.23-10.59,10-10.36,11.53,3.89,4.77,8.51,6.18S83.29,100,83.29,100Z" fill="#424c67"/>
      </g>
      <g id="Grupo_81905" data-name="Grupo 81905">
        <path id="Trazado_129223" data-name="Trazado 129223" d="M117.63,116.02v-2.24l34.97-20.2v2.24Z" fill="#888993"/>
        <path id="Trazado_129224" data-name="Trazado 129224" d="M117.63,113.78,46.16,72.52v2.24l71.47,41.26Z" fill="#7b7c8a"/>
        <path id="Trazado_129225" data-name="Trazado 129225" d="M117.63,113.78,46.16,72.52l34.97-20.2L152.6,93.58Z" fill="#a5a5a5"/>
      </g>
      <path id="Trazado_129226" data-name="Trazado 129226" d="M103.33,101.44,66.38,80.1a1.28,1.28,0,0,1,0-2.21l15.26-8.81a1.27,1.27,0,0,1,1.28,0l37,21.33a1.28,1.28,0,0,1,0,2.21l-15.26,8.82a1.32,1.32,0,0,1-1.33,0Z" fill="#737a8b"/>
      <path id="Trazado_129227" data-name="Trazado 129227" d="M122.75,81.3l-6.6,2.98,13.78,10.21,6.6-2.99Z" fill="#888993"/>
      <path id="Trazado_129228" data-name="Trazado 129228" d="M89.23,64.22l-4.94,3.7,16.66,7.78L105.9,72Z" fill="#888993"/>
      <g id="Grupo_81906" data-name="Grupo 81906">
        <path id="Trazado_129229" data-name="Trazado 129229" d="M103.23,83.8H103l-.08-.06L90.61,76.62a2,2,0,0,0-1.78.07L79.65,82a1.48,1.48,0,0,0-.26.21h-.17v.39h0a.55.55,0,0,0,.31.44l12.31,7.11a2,2,0,0,0,1.78-.08l9.17-5.3a.7.7,0,0,0,.43-.58h0Z" fill="#525252"/>
        <path id="Trazado_129230" data-name="Trazado 129230" d="M91.84,89.75,79.53,82.64c-.46-.26-.4-.72.12-1l9.18-5.29a2,2,0,0,1,1.78-.08l12.31,7.11c.45.26.4.72-.13,1l-9.17,5.3a2,2,0,0,1-1.78.07Z" fill="#636363"/>
        <path id="Trazado_129231" data-name="Trazado 129231" d="M92.16,89.36l-12-6.91c-.28-.16-.25-.45.08-.64l6.94-4a1.23,1.23,0,0,1,1.12,0l12,6.9c.28.17.25.46-.08.65l-6.94,4A1.27,1.27,0,0,1,92.16,89.36Z" fill="#343339"/>
      </g>
      <g id="Grupo_81909" data-name="Grupo 81909">
        <g id="Grupo_81907" data-name="Grupo 81907">
          <path id="Trazado_129232" data-name="Trazado 129232" d="M104.9,70.8v.9l-4.29,3.2v-.89Z" fill="#c7c8c9"/>
          <path id="Trazado_129233" data-name="Trazado 129233" d="M93.13,65.31v.89l-4.3,3.21v-.9Z" fill="#c7c8c9"/>
          <path id="Trazado_129234" data-name="Trazado 129234" d="M88.83,68.51v.9l-2.69-1.26v-.9Z" fill="#cbcccd"/>
          <path id="Trazado_129235" data-name="Trazado 129235" d="M100.61,74.01v.89l-2.7-1.25v-.9Z" fill="#cbcccd"/>
          <path id="Trazado_129236" data-name="Trazado 129236" d="M100.04,71.17v.89l-9.09-4.24v-.9Z" fill="#cbcccd"/>
          <path id="Trazado_129237" data-name="Trazado 129237" d="M90.43,64.05l-4.29,3.2,2.69,1.26,2.12-1.59,9.09,4.25-2.13,1.58,2.7,1.26,4.29-3.21Z" fill="#e9eaf0"/>
        </g>
        <path id="Trazado_129238" data-name="Trazado 129238" d="M100.65,69.47l-7.76-3.61L90.8,57.29l7.76,3.61Z" fill="#dee0e9"/>
        <path id="Trazado_129239" data-name="Trazado 129239" d="M98.56,60.9,90.8,57.29l1.46,5.99,7.77,3.62Z" fill="#cbcccd"/>
        <path id="Trazado_129240" data-name="Trazado 129240" d="M101.19,69.07l-2.13-8.71-.5.54,2.09,8.57Z" fill="#c7c8c9"/>
        <g id="Grupo_81908" data-name="Grupo 81908">
          <path id="Trazado_129241" data-name="Trazado 129241" d="M110.88,43.49,78.94,28.6a.38.38,0,0,0-.4,0l-.76.55a.4.4,0,0,1,.41,0L110.12,44a.94.94,0,0,1,.53.8L110.31,70a.36.36,0,0,1-.13.3l.75-.55a.34.34,0,0,0,.14-.3l.33-25.15A1,1,0,0,0,110.88,43.49Z" fill="#babbbd"/>
          <path id="Trazado_129242" data-name="Trazado 129242" d="M110.12,44a.94.94,0,0,1,.53.8L110.31,70c0,.3-.24.44-.54.3L77.84,55.4a.94.94,0,0,1-.53-.8l.34-25.15c0-.3.24-.44.54-.3Z" fill="#e9eaf0"/>
        </g>
      </g>
      <g id="Grupo_81913" data-name="Grupo 81913">
        <g id="Grupo_81910" data-name="Grupo 81910">
          <path id="Trazado_129243" data-name="Trazado 129243" d="M135.04,89.93v.9l-5.45,2.47v-.91Z" fill="#c7c8c9"/>
          <path id="Trazado_129244" data-name="Trazado 129244" d="M125.94,83.18l-.01.91-5.45,2.46.01-.9Z" fill="#c7c8c9"/>
          <path id="Trazado_129245" data-name="Trazado 129245" d="M120.49,85.65l-.01.9-2.27-1.69v-.9Z" fill="#cbcccd"/>
          <path id="Trazado_129246" data-name="Trazado 129246" d="M130.21,89.4l-.01.9-6.83-5.06.01-.9Z" fill="#cbcccd"/>
          <path id="Trazado_129247" data-name="Trazado 129247" d="M129.59,92.39v.91l-2.28-1.69v-.9Z" fill="#cbcccd"/>
          <path id="Trazado_129248" data-name="Trazado 129248" d="M123.66,81.5l-5.45,2.46,2.28,1.69,2.89-1.31,6.83,5.06-2.9,1.31,2.28,1.68,5.45-2.46Z" fill="#e9eaf0"/>
        </g>
        <g id="Grupo_81911" data-name="Grupo 81911">
          <path id="Trazado_129249" data-name="Trazado 129249" d="M131.7,88.27l-6.1-4.56-2.63-8.87,6.11,4.55Z" fill="#dee0e9"/>
          <path id="Trazado_129250" data-name="Trazado 129250" d="M129.08,79.39l-6.11-4.55,2,6.75,6,4.2Z" fill="#cbcccd"/>
          <path id="Trazado_129251" data-name="Trazado 129251" d="M132.38,87.96h0l-2.67-9.03-.63.46,2.62,8.88Z" fill="#c7c8c9"/>
        </g>
        <g id="Grupo_81912" data-name="Grupo 81912">
          <path id="Trazado_129252" data-name="Trazado 129252" d="M139.47,63.36l-25.9-18.13a.28.28,0,0,0-.29-.06l-.94.44a.3.3,0,0,1,.29.06l25.9,18.14a1.15,1.15,0,0,1,.43.86V89.86c0,.16-.05.27-.14.31l.94-.45c.09,0,.14-.15.14-.31V64.22A1.16,1.16,0,0,0,139.47,63.36Z" fill="#babbbd"/>
          <path id="Trazado_129253" data-name="Trazado 129253" d="M138.53,63.81a1.15,1.15,0,0,1,.43.86V89.86c0,.31-.19.42-.43.25L112.61,72a1.18,1.18,0,0,1-.43-.86V45.94c0-.3.19-.42.43-.25Z" fill="#e9eaf0"/>
          <path id="Trazado_129254" data-name="Trazado 129254" d="M110.12,44,78.19,29.15c-.3-.14-.54,0-.54.3L77.34,53l33,15.39.31-23.51a.94.94,0,0,0-.53-.88Z" fill="#343339"/>
          <path id="Trazado_129255" data-name="Trazado 129255" d="M77.92,52.59l.31-22.78,31.65,14.76a.42.42,0,0,1,.19.26l-.31,22.61Z" fill="#4baeff"/>
          <path id="Trazado_129256" data-name="Trazado 129256" d="M138.53,63.81l-25.9-18.14c-.24-.17-.43-.05-.43.25V69.7l26.76,18.74V64.67A1.15,1.15,0,0,0,138.53,63.81Z" fill="#343339"/>
          <path id="Trazado_129257" data-name="Trazado 129257" d="M112.76,69.39V46.49l25.42,17.8a.62.62,0,0,1,.18.37V87.32Z" fill="#4baeff"/>
        </g>
      </g>
      <g id="Grupo_81921" data-name="Grupo 81921">
        <g id="Grupo_81917" data-name="Grupo 81917">
          <path id="Trazado_129258" data-name="Trazado 129258" d="M109.72,65.91l-9.76-4.58V42.75l9.97,4.68Z" fill="#454545"/>
          <path id="Trazado_129259" data-name="Trazado 129259" d="M80.68,52.29l-1.76-.82V32.88l1.76.82Z" fill="#454545"/>
          <path id="Trazado_129260" data-name="Trazado 129260" d="M80.68,52.29l19.28,9.04V42.75L80.68,33.7Z" fill="#fbfbfb"/>
          <path id="Trazado_129261" data-name="Trazado 129261" d="M109.93,47.43,78.92,32.88V30.39l31.04,14.56Z" fill="#cbcccd"/>
          <g id="Grupo_81914" data-name="Grupo 81914">
            <path id="Trazado_129262" data-name="Trazado 129262" d="M101.72,48.44l-1.23-.57V46.35l1.23.58Z" fill="#ccccec"/>
            <path id="Trazado_129263" data-name="Trazado 129263" d="M101.72,50.1l-1.23-.57V48.01l1.23.58Z" fill="#7272df"/>
            <path id="Trazado_129264" data-name="Trazado 129264" d="M100.49,51.33l1.23.58v1.51l-1.23-.57Z" fill="#1d1daa"/>
            <path id="Trazado_129265" data-name="Trazado 129265" d="M100.49,49.67l1.23.58v1.51l-1.23-.57Z" fill="#4242d5"/>
            <path id="Trazado_129266" data-name="Trazado 129266" d="M103.06,52.54v1.51l-1.23-.57V51.96Z" fill="#0e0e98"/>
            <path id="Trazado_129267" data-name="Trazado 129267" d="M104.41,53.17v1.51l-1.23-.57V52.59Z" fill="#050532"/>
            <path id="Trazado_129268" data-name="Trazado 129268" d="M105.75,53.8v1.51l-1.23-.57V53.22Z"/>
            <path id="Trazado_129269" data-name="Trazado 129269" d="M103.06,50.88v1.51l-1.23-.57V50.3Z" fill="#1d1daa"/>
            <path id="Trazado_129270" data-name="Trazado 129270" d="M104.41,51.51v1.51l-1.23-.57V50.93Z" fill="#00009f"/>
            <path id="Trazado_129271" data-name="Trazado 129271" d="M105.75,52.14v1.52l-1.23-.58V51.56Z" fill="#000028"/>
            <path id="Trazado_129272" data-name="Trazado 129272" d="M103.06,49.22v1.51l-1.23-.57V48.64Z" fill="#3333b2"/>
            <path id="Trazado_129273" data-name="Trazado 129273" d="M104.41,49.85v1.52l-1.23-.58V49.27Z" fill="#1d1daa"/>
            <path id="Trazado_129274" data-name="Trazado 129274" d="M105.75,50.48v1.51l-1.23-.57V49.9Z" fill="#000050"/>
            <path id="Trazado_129275" data-name="Trazado 129275" d="M103.06,47.56v1.51l-1.23-.57V46.98Z" fill="#9999d9"/>
            <path id="Trazado_129276" data-name="Trazado 129276" d="M104.41,48.19V49.7l-1.23-.57V47.61Z" fill="#1d3baa"/>
            <path id="Trazado_129277" data-name="Trazado 129277" d="M105.75,48.82v1.52l-1.23-.58V48.24Z" fill="#00009f"/>
            <path id="Trazado_129278" data-name="Trazado 129278" d="M109.19,45.27v1.05l-2.74-1.28V43.98Z" fill="#f1666a"/>
          </g>
          <g id="Grupo_81915" data-name="Grupo 81915">
            <path id="Trazado_129279" data-name="Trazado 129279" d="M105.18,59.38l-1.31-.61v1.06l1.31.62Z" fill="#facccd"/>
            <path id="Trazado_129280" data-name="Trazado 129280" d="M106.5,60l-1.32-.62v1.07l1.32.62Z" fill="#f1666a"/>
            <path id="Trazado_129281" data-name="Trazado 129281" d="M107.82,60.62,106.5,60v1.07l1.32.61Z" fill="#e70006"/>
            <path id="Trazado_129282" data-name="Trazado 129282" d="M109.13,61.24l-1.31-.62v1.06l1.31.62Z" fill="#b80003"/>
            <path id="Trazado_129283" data-name="Trazado 129283" d="M105.18,57.99l-1.31-.62v1.07l1.31.62Z" fill="#ffffbf"/>
            <path id="Trazado_129284" data-name="Trazado 129284" d="M106.5,58.61l-1.32-.62v1.07l1.32.61Z" fill="#ffe658"/>
            <path id="Trazado_129285" data-name="Trazado 129285" d="M107.82,59.23l-1.32-.62v1.06l1.32.62Z" fill="#ffbf00"/>
            <path id="Trazado_129286" data-name="Trazado 129286" d="M109.13,59.84l-1.31-.61v1.06l1.31.62Z" fill="#db8617"/>
            <path id="Trazado_129287" data-name="Trazado 129287" d="M105.18,56.6l-1.31-.62v1.07l1.31.61Z" fill="#d5ffd1"/>
            <path id="Trazado_129288" data-name="Trazado 129288" d="M106.5,57.21l-1.32-.61v1.06l1.32.62Z" fill="#73f166"/>
            <path id="Trazado_129289" data-name="Trazado 129289" d="M107.82,57.83l-1.32-.62v1.07l1.32.62Z" fill="#16e700"/>
            <path id="Trazado_129290" data-name="Trazado 129290" d="M109.13,58.45l-1.31-.62V58.9l1.31.61Z" fill="#0b7400"/>
            <path id="Trazado_129291" data-name="Trazado 129291" d="M101.98,57.59l-1.49-.7V55.05l1.49.7Z" fill="#ccccec"/>
            <path id="Trazado_129292" data-name="Trazado 129292" d="M102.54,56.71v1.84l-1.49-.7V56.01Z" fill="#3333b2"/>
          </g>
          <g id="Grupo_81916" data-name="Grupo 81916">
            <path id="Trazado_129293" data-name="Trazado 129293" d="M80.28,35.73l-.96-.45V34.09l.96.46Z" fill="#636363"/>
            <path id="Trazado_129294" data-name="Trazado 129294" d="M80.28,37.32l-.96-.45V35.68l.96.45Z" fill="#636363"/>
            <path id="Trazado_129295" data-name="Trazado 129295" d="M79.32,38.86l.96.45V40.5l-.96-.45Z" fill="#636363"/>
            <path id="Trazado_129296" data-name="Trazado 129296" d="M79.32,37.27l.96.46v1.18l-.96-.45Z" fill="#636363"/>
          </g>
        </g>
        <path id="Trazado_129297" data-name="Trazado 129297" d="M98,55.67c-1.83-.86-2.77-3.4-3.77-6.1s-2-5.46-4-6.37-2.82.81-3.83,2.58-2,3.53-3.92,2.63l.16-.35c1.61.75,2.45-.74,3.43-2.47s2.14-3.76,4.32-2.74,3.15,3.83,4.17,6.59,1.88,5.09,3.57,5.89Z" fill="#3333b2"/>
        <g id="Grupo_81918" data-name="Grupo 81918">
          <path id="Trazado_129298" data-name="Trazado 129298" d="M90.79,43.25l-.47.36-.48-.81.48-.36Z" fill="#dadada"/>
          <path id="Trazado_129299" data-name="Trazado 129299" d="M90.26,43.89l-.66-1.13.77-.6L91,43.3Zm-.17-1,.28.48.17-.13-.28-.47Z" fill="#3333b2"/>
        </g>
        <g id="Grupo_81919" data-name="Grupo 81919">
          <path id="Trazado_129300" data-name="Trazado 129300" d="M82.92,48.82l-.69-.32v-.86l.69.33Z" fill="#dadada"/>
          <path id="Trazado_129301" data-name="Trazado 129301" d="M83.11,49.12,82,48.62V47.34l1.07.51Zm-.69-.74.31.14v-.43l-.31-.15Z" fill="#3333b2"/>
        </g>
        <g id="Grupo_81920" data-name="Grupo 81920">
          <path id="Trazado_129302" data-name="Trazado 129302" d="M98.41,56.09l-.69-.33v-.85l.69.32Z" fill="#dadada"/>
          <path id="Trazado_129303" data-name="Trazado 129303" d="M98.6,56.39l-1.07-.51V54.61l1.07.5Zm-.69-.75.31.15v-.44l-.31-.14Z" fill="#3333b2"/>
        </g>
      </g>
      <g id="Grupo_81927" data-name="Grupo 81927">
        <path id="Trazado_129304" data-name="Trazado 129304" d="M137.47,85.07l-7.02-4.92V61.67l7.02,4.91Z" fill="#fbfbfb"/>
        <path id="Trazado_129305" data-name="Trazado 129305" d="M114.89,69.25l-1.77-1.24V49.53l1.77,1.23Z" fill="#454545"/>
        <path id="Trazado_129306" data-name="Trazado 129306" d="M114.54,69l15.91,11.15V61.67L114.54,50.52Z" fill="#fbfbfb"/>
        <path id="Trazado_129307" data-name="Trazado 129307" d="M137.47,66.58,113.12,49.53V47.05l24.35,17.06Z" fill="#cbcccd"/>
        <path id="Trazado_129308" data-name="Trazado 129308" d="M136.7,64.34v1.05l-2.53-1.78V62.55Z" fill="#f1666a"/>
        <g id="Grupo_81922" data-name="Grupo 81922">
          <path id="Trazado_129309" data-name="Trazado 129309" d="M128.66,64.27l-1.18-.83V61.65l1.18.83Z" fill="#e5ffdc"/>
          <path id="Trazado_129310" data-name="Trazado 129310" d="M128.66,66.23l-1.18-.82v-1.8l1.18.83Z" fill="#9bf47d"/>
          <path id="Trazado_129311" data-name="Trazado 129311" d="M127.48,67.54l1.18.82v1.8l-1.18-.83Z" fill="#4cc922"/>
          <path id="Trazado_129312" data-name="Trazado 129312" d="M127.48,65.58l1.18.82v1.79l-1.18-.82Z" fill="#72ec49"/>
          <path id="Trazado_129313" data-name="Trazado 129313" d="M129.95,69.27v1.79l-1.18-.83V68.44Z" fill="#3ab711"/>
          <path id="Trazado_129314" data-name="Trazado 129314" d="M131.24,70.17v1.79l-1.18-.82v-1.8Z" fill="#1a5108"/>
          <path id="Trazado_129315" data-name="Trazado 129315" d="M132.53,71.08v1.79l-1.18-.83V70.25Z"/>
          <path id="Trazado_129316" data-name="Trazado 129316" d="M129.95,67.31V69.1l-1.18-.83V66.48Z" fill="#4cc922"/>
          <path id="Trazado_129317" data-name="Trazado 129317" d="M131.24,68.21V70l-1.18-.82v-1.8Z" fill="#2fbe00"/>
          <path id="Trazado_129318" data-name="Trazado 129318" d="M132.53,69.11v1.8l-1.18-.83V68.29Z" fill="#124700"/>
          <path id="Trazado_129319" data-name="Trazado 129319" d="M129.95,65.34v1.8l-1.18-.83V64.52Z" fill="#60d03c"/>
          <path id="Trazado_129320" data-name="Trazado 129320" d="M131.24,66.25v1.79l-1.18-.83V65.42Z" fill="#4cc922"/>
          <path id="Trazado_129321" data-name="Trazado 129321" d="M132.53,67.15v1.79l-1.18-.82V66.33Z" fill="#1c6f00"/>
          <path id="Trazado_129322" data-name="Trazado 129322" d="M129.95,63.38v1.79l-1.18-.82v-1.8Z" fill="#baf0a9"/>
          <path id="Trazado_129323" data-name="Trazado 129323" d="M131.24,64.28v1.8l-1.18-.83V63.46Z" fill="#81c922"/>
          <path id="Trazado_129324" data-name="Trazado 129324" d="M132.53,65.19v1.79l-1.18-.82v-1.8Z" fill="#2fbe00"/>
        </g>
        <g id="Grupo_81923" data-name="Grupo 81923">
          <path id="Trazado_129325" data-name="Trazado 129325" d="M128.69,75.3l-1.26-.89v1.26l1.26.88Z" fill="#facccd"/>
          <path id="Trazado_129326" data-name="Trazado 129326" d="M129.96,76.18l-1.27-.88v1.25l1.27.89Z" fill="#f1666a"/>
          <path id="Trazado_129327" data-name="Trazado 129327" d="M131.22,77.06l-1.26-.88v1.26l1.26.88Z" fill="#e70006"/>
          <path id="Trazado_129328" data-name="Trazado 129328" d="M132.48,77.95l-1.26-.89v1.26l1.26.89Z" fill="#b80003"/>
          <path id="Trazado_129329" data-name="Trazado 129329" d="M128.69,73.65l-1.26-.89v1.26l1.26.89Z" fill="#ffffbf"/>
          <path id="Trazado_129330" data-name="Trazado 129330" d="M129.96,74.53l-1.27-.88v1.26l1.27.88Z" fill="#ffe658"/>
          <path id="Trazado_129331" data-name="Trazado 129331" d="M131.22,75.42l-1.26-.89v1.26l1.26.89Z" fill="#ffbf00"/>
          <path id="Trazado_129332" data-name="Trazado 129332" d="M132.48,76.3l-1.26-.88v1.26l1.26.88Z" fill="#db8617"/>
          <path id="Trazado_129333" data-name="Trazado 129333" d="M128.69,72l-1.26-.88v1.26l1.26.88Z" fill="#d5ffd1"/>
          <path id="Trazado_129334" data-name="Trazado 129334" d="M129.96,72.89,128.69,72v1.26l1.27.88Z" fill="#73f166"/>
          <path id="Trazado_129335" data-name="Trazado 129335" d="M131.22,73.77l-1.26-.88v1.25l1.26.89Z" fill="#16e700"/>
          <path id="Trazado_129336" data-name="Trazado 129336" d="M132.48,74.65l-1.26-.88v1.26l1.26.88Z" fill="#0b7400"/>
        </g>
        <g id="Grupo_81924" data-name="Grupo 81924">
          <path id="Trazado_129337" data-name="Trazado 129337" d="M118.09,57.6l-1.18-.82V54.99l1.18.82Z" fill="#ffccc8"/>
          <path id="Trazado_129338" data-name="Trazado 129338" d="M118.09,59.57l-1.18-.83V56.95l1.18.82Z" fill="#fd786d"/>
          <path id="Trazado_129339" data-name="Trazado 129339" d="M116.91,60.87l1.18.83v1.79l-1.18-.82Z" fill="#f52616"/>
          <path id="Trazado_129340" data-name="Trazado 129340" d="M116.91,58.91l1.18.83v1.79l-1.18-.83Z" fill="#fb483a"/>
          <path id="Trazado_129341" data-name="Trazado 129341" d="M119.38,62.6v1.79l-1.18-.82V61.78Z" fill="#e31b0b"/>
          <path id="Trazado_129342" data-name="Trazado 129342" d="M120.67,63.51V65.3l-1.18-.83V62.68Z" fill="#7d0f07"/>
          <path id="Trazado_129343" data-name="Trazado 129343" d="M121.96,64.41V66.2l-1.18-.82V63.59Z"/>
          <path id="Trazado_129344" data-name="Trazado 129344" d="M119.38,60.64v1.79l-1.18-.82v-1.8Z" fill="#f52616"/>
          <path id="Trazado_129345" data-name="Trazado 129345" d="M120.67,61.55v1.79l-1.18-.83V60.72Z" fill="#ea1100"/>
          <path id="Trazado_129346" data-name="Trazado 129346" d="M121.96,62.45v1.79l-1.18-.83V61.62Z" fill="#730800"/>
          <path id="Trazado_129347" data-name="Trazado 129347" d="M119.38,58.68v1.79l-1.18-.82v-1.8Z" fill="#f64133"/>
          <path id="Trazado_129348" data-name="Trazado 129348" d="M120.67,59.58v1.8l-1.18-.83V58.76Z" fill="#f52616"/>
          <path id="Trazado_129349" data-name="Trazado 129349" d="M121.96,60.49v1.79l-1.18-.83V59.66Z" fill="#9b0b00"/>
          <path id="Trazado_129350" data-name="Trazado 129350" d="M119.38,56.72v1.79l-1.18-.83V55.89Z" fill="#fca49d"/>
          <path id="Trazado_129351" data-name="Trazado 129351" d="M120.67,57.62v1.79l-1.18-.82V56.8Z" fill="#f5163f"/>
          <path id="Trazado_129352" data-name="Trazado 129352" d="M121.96,58.52v1.8l-1.18-.83V57.7Z" fill="#ea1100"/>
        </g>
        <g id="Grupo_81925" data-name="Grupo 81925">
          <path id="Trazado_129353" data-name="Trazado 129353" d="M118.13,68.63l-1.27-.88v1.26l1.27.88Z" fill="#facccd"/>
          <path id="Trazado_129354" data-name="Trazado 129354" d="M119.39,69.52l-1.26-.89v1.26l1.26.89Z" fill="#f1666a"/>
          <path id="Trazado_129355" data-name="Trazado 129355" d="M120.65,70.4l-1.26-.88v1.26l1.26.88Z" fill="#e70006"/>
          <path id="Trazado_129356" data-name="Trazado 129356" d="M121.91,71.28l-1.26-.88v1.26l1.26.88Z" fill="#b80003"/>
          <path id="Trazado_129357" data-name="Trazado 129357" d="M118.13,66.98l-1.27-.88v1.26l1.27.88Z" fill="#ffffbf"/>
          <path id="Trazado_129358" data-name="Trazado 129358" d="M119.39,67.87l-1.26-.89v1.26l1.26.89Z" fill="#ffe658"/>
          <path id="Trazado_129359" data-name="Trazado 129359" d="M120.65,68.75l-1.26-.88v1.26l1.26.88Z" fill="#ffbf00"/>
          <path id="Trazado_129360" data-name="Trazado 129360" d="M121.91,69.64l-1.26-.89v1.26l1.26.89Z" fill="#db8617"/>
          <path id="Trazado_129361" data-name="Trazado 129361" d="M118.13,65.34l-1.27-.89v1.26l1.27.89Z" fill="#d5ffd1"/>
          <path id="Trazado_129362" data-name="Trazado 129362" d="M119.39,66.22l-1.26-.88V66.6l1.26.88Z" fill="#73f166"/>
          <path id="Trazado_129363" data-name="Trazado 129363" d="M120.65,67.11l-1.26-.89v1.26l1.26.88Z" fill="#16e700"/>
          <path id="Trazado_129364" data-name="Trazado 129364" d="M121.91,67.99l-1.26-.88v1.25l1.26.89Z" fill="#0b7400"/>
        </g>
        <g id="Grupo_81926" data-name="Grupo 81926">
          <path id="Trazado_129365" data-name="Trazado 129365" d="M114.22,52.5l-.78-.55V50.77l.78.55Z" fill="#636363"/>
          <path id="Trazado_129366" data-name="Trazado 129366" d="M114.22,54.08l-.78-.55V52.35l.78.55Z" fill="#636363"/>
          <path id="Trazado_129367" data-name="Trazado 129367" d="M113.44,55.51l.78.55v1.18l-.78-.54Z" fill="#636363"/>
          <path id="Trazado_129368" data-name="Trazado 129368" d="M113.44,53.93l.78.55v1.18l-.78-.54Z" fill="#636363"/>
        </g>
      </g>
      <path id="Trazado_129369" data-name="Trazado 129369" d="M138.36,87.32l-25.6-17.93V68.04l25.6,17.92Z"/>
      <path id="Trazado_129370" data-name="Trazado 129370" d="M113.87,69.79l-.79-.56v-.59l.79.56Z" fill="#4589df"/>
      <path id="Trazado_129371" data-name="Trazado 129371" d="M109.76,67.44,77.92,52.59V51.26l31.86,14.85Z"/>
      <path id="Trazado_129372" data-name="Trazado 129372" d="M79.27,52.84l-.97-.45v-.58l.97.45Z" fill="#4589df"/>
      <g id="Grupo_81928" data-name="Grupo 81928">
        <path id="Trazado_129373" data-name="Trazado 129373" d="M81,82a5.35,5.35,0,0,0,1.71-.89,12.53,12.53,0,0,0,2.06-.77l.19-.27,1.52-.22c.34-.15.64-.32.73-.64a4.81,4.81,0,0,0,.14-.55s-.68-.2-.74-.19a4.07,4.07,0,0,0-.65-.09c-.36,0-2.45.08-2.67,0a6.91,6.91,0,0,0-1.65-.28,2.2,2.2,0,0,0-1.15.37,22.38,22.38,0,0,0-3,2.09C77.11,81,81,82,81,82Z" fill="url(#linear-gradient)"/>
        <path id="Trazado_129374" data-name="Trazado 129374" d="M64.06,66.24a21.359,21.359,0,0,0-3.1,0c-1.1,0-4.48.33-5.31,3.88s-.08,9.25.6,13,1.37,7.91,1,9.77-1.75,9-1.12,11.56a8.14,8.14,0,0,0,5.48,5.76c3.05,1.15,8.74,1.56,11,.58s5.45-4.06,5.53-7.11a16.91,16.91,0,0,0-.85-5.58c-.13-.55-.7-6.94-.1-8.44a37.62,37.62,0,0,0,1.67-6.29c.36-2,1.38-7.76-.65-9.64a36.8,36.8,0,0,0-5.54-3.93l-1.58-1Z" fill="#4baeff"/>
        <path id="Trazado_129375" data-name="Trazado 129375" d="M77.93,54.17a18.091,18.091,0,0,1,0,4.1c-.3,1-2.18,7-2.78,7.77s-2,.34-2.08.49-.82,3-.82,3.1a55.329,55.329,0,0,1-7.77-2.48c-.27-.35.46-1.42.73-2.32a25.729,25.729,0,0,0,.2-4.29c0-1.1,1.08-5.7,4-7.08S77.93,54.17,77.93,54.17Z" fill="url(#linear-gradient-2)"/>
        <path id="Trazado_129376" data-name="Trazado 129376" d="M70.34,64a13.16,13.16,0,0,0,2.71-3c.57-.95,1.17-1.9,1.65-1.83s.5.58.38,1.3a4.34,4.34,0,0,0-.1,1l.8.18a10.09,10.09,0,0,1,.7-2.28c.35-.53,1.2-1,1.32-1.43a17.09,17.09,0,0,1,.41-2.48,3.2,3.2,0,0,0,.42-1.07A6.56,6.56,0,0,0,70,49.55c-2.11.08-4.76,2.63-5.29,4.08a11.92,11.92,0,0,0-.31,6.21,16.9,16.9,0,0,1,1,3.38c0,.74.77.28,1.5.45S69.21,64.71,70.34,64Z" fill="#854d50"/>
        <path id="Trazado_129377" data-name="Trazado 129377" d="M73.9,60a2.81,2.81,0,0,0-.13,2.07c.3.53.6.35.77,0s0-1.22.32-1.78.46-1.07,0-1.11a1.06,1.06,0,0,0-.96.82Z" fill="url(#linear-gradient-3)"/>
        <path id="Trazado_129378" data-name="Trazado 129378" d="M91.91,83.22c-.09-.37-.41-.4-.41-1.2a6.08,6.08,0,0,1,.31-1.7,3.29,3.29,0,0,1,1.08-1.26,5.06,5.06,0,0,1,1.22.06,4,4,0,0,1,1.06-.52,1.15,1.15,0,0,1,1,.23,1.12,1.12,0,0,1,.25.76s.51.15.64.51a5.33,5.33,0,0,1,.22,1s.41.19.45.54-.07.73,0,.81a.65.65,0,0,1,0,.81,17.6,17.6,0,0,1-2,1.9c-.29.2-.78.19-1,.44S91.91,83.22,91.91,83.22Z" fill="url(#linear-gradient-4)"/>
        <path id="Trazado_129379" data-name="Trazado 129379" d="M94.52,78.88s-1.14-4.06-1.42-4-.57.79-.28,1.55,1.08,3.06,1.08,3.06Z"/>
      </g>
      <g id="Grupo_81930" data-name="Grupo 81930">
        <g id="Grupo_81929" data-name="Grupo 81929">
          <path id="Trazado_129380" data-name="Trazado 129380" d="M69.47,129h0v-7.7H66V129h0a.9.9,0,0,0,.52.71,2.73,2.73,0,0,0,2.46,0A.84.84,0,0,0,69.47,129Z" fill="#575665"/>
          <path id="Trazado_129381" data-name="Trazado 129381" d="M69,122.05a2.73,2.73,0,0,1-2.46,0c-.68-.39-.69-1,0-1.42a2.73,2.73,0,0,1,2.46,0A.765.765,0,0,1,69,122.05Z" fill="#3c3b4c"/>
          <path id="Trazado_129382" data-name="Trazado 129382" d="M69.17,121.21h0V110.65H66.3v10.56h0a.72.72,0,0,0,.42.59,2.27,2.27,0,0,0,2,0,.71.71,0,0,0,.45-.59Z" fill="#575665"/>
          <path id="Trazado_129383" data-name="Trazado 129383" d="M68.75,111.24a2.24,2.24,0,0,1-2,0c-.56-.33-.56-.85,0-1.17a2.24,2.24,0,0,1,2,0,.62.62,0,0,1,0,1.17Z" fill="#3c3b4c"/>
        </g>
        <path id="Trazado_129384" data-name="Trazado 129384" d="M68,111.55V122a1.84,1.84,0,0,0,.68-.22v-10.4a1.68,1.68,0,0,1-.68.17Z" fill="#696875"/>
        <path id="Trazado_129385" data-name="Trazado 129385" d="M68,122.47V130a2.31,2.31,0,0,0,.84-.27v-7.42A2,2,0,0,1,68,122.47Z" fill="#696875"/>
      </g>
      <g id="Grupo_81934" data-name="Grupo 81934">
        <g id="Grupo_81932" data-name="Grupo 81932">
          <path id="Trazado_129386" data-name="Trazado 129386" d="M70.75,119.39a8.72,8.72,0,0,0,.26-2.22c.09-1.46.21-3.46.69-4.21.58-.91,6.57-4.33,10.68-6.54l1.56,5.37.67-.2-1.8-6.17-.38.2c-1.06.56-10.43,5.58-11.31,7-.58.9-.7,2.92-.79,4.54a10.141,10.141,0,0,1-.21,2Z" fill="#a3a2aa"/>
          <g id="Grupo_81931" data-name="Grupo 81931">
            <path id="Trazado_129387" data-name="Trazado 129387" d="M72.12,111.32l-.21-.12c-.49-.28-.42-.77.14-1.1l11.8-6.81a2.13,2.13,0,0,1,1.9-.08l.21.12c.49.28.42.78-.14,1.1L74,111.24a2.1,2.1,0,0,1-1.88.08Z" fill="#302f40"/>
            <path id="Trazado_129388" data-name="Trazado 129388" d="M86.29,103.81v-.93s-14.71,6.78-14.71,6.9v1a21.83,21.83,0,0,0,3-.29C75,110.26,86.29,103.81,86.29,103.81Z" fill="#302f40"/>
            <path id="Trazado_129389" data-name="Trazado 129389" d="M72.12,110.38l-.21-.12c-.49-.28-.42-.78.14-1.1l11.8-6.81a2.1,2.1,0,0,1,1.9-.08l.21.12c.49.28.42.77-.14,1.1L74,110.3a2.13,2.13,0,0,1-1.88.08Z" fill="#3d3b4e"/>
            <path id="Trazado_129390" data-name="Trazado 129390" d="M73,110.22a2.1,2.1,0,0,0,1-.24l11.8-6.81a.67.67,0,0,0,.38-.48c0-.15-.14-.26-.25-.33l-.21-.12a1.56,1.56,0,0,0-.74-.16,2.1,2.1,0,0,0-1,.24l-11.8,6.82a.62.62,0,0,0-.37.47.43.43,0,0,0,.24.33l.21.12a1.56,1.56,0,0,0,.74.16Z" fill="#4a485c"/>
          </g>
        </g>
        <g id="Grupo_81933" data-name="Grupo 81933">
          <path id="Trazado_129391" data-name="Trazado 129391" d="M47.86,81.21c.53,1.49,1.06,3,1.51,4.56a17,17,0,0,1,.4,3.46c.24,4.13.59,11.36.77,15.53,0,.8.07,1.59.11,2.39-.21.43-1.31,3.08-1.42,3.09-.41.06-.69-.24-.71-.76-.12-3-.26-5.94-.39-8.91-.1-2.1-.37-7.25-.49-9.34,0-.74-.08-1.49-.14-2.22l-.06-.71c0-.21-.09-.18,0,.08a1.44,1.44,0,0,1-.05-.24,45.38,45.38,0,0,0-1.64-5.06,2.22,2.22,0,0,1,.76-2c.59-.53,1.14-.43,1.33.1Z" fill="#2e2d3e"/>
          <path id="Trazado_129392" data-name="Trazado 129392" d="M66.59,91.83c-.82-1-19-11-19-11s1.08,8.78,1.13,11.4-.22,17.25,0,17.84,19,11,19,11L68,108.44Z" fill="#2e2d3e"/>
          <path id="Trazado_129393" data-name="Trazado 129393" d="M66.78,92.13c.53,1.5,1.06,3,1.51,4.56a61.049,61.049,0,0,1,.57,6.52c.24,4.13.42,8.31.61,12.48,0,.79.06,1.59.1,2.38-.21.44-1.3,3.08-1.42,3.1-.41,0-.69-.25-.71-.76q-.18-4.47-.39-8.91c-.1-2.1-.2-4.2-.32-6.29,0-.74-.25-4.54-.31-5.28v-.7c0-.23-.1-.18,0,.08a2,2,0,0,1,0-.24A45.55,45.55,0,0,0,64.69,94a2.26,2.26,0,0,1,.76-2c.59-.53,1.15-.43,1.33.1Z" fill="#232234"/>
        </g>
      </g>
      <path id="Trazado_129394" data-name="Trazado 129394" d="M77.77,74.87a8.29,8.29,0,0,0-3.86,6c-.45,3.18.33,4.13,1,5.08s7.74,7.46,9.77,8.09a2.82,2.82,0,0,0,3.71-1.53c.45-1.1-.26-4.2-.93-5.23s-5.2-5.64-5.87-7.06c-.36-.77-1.7-4.46-2.44-5.2A1,1,0,0,0,77.77,74.87Z" fill="#75c8ff"/>
      <path id="Trazado_129395" data-name="Trazado 129395" d="M94.86,84a3.17,3.17,0,0,0-2.59-.5c-.41.21-3.12,1.92-3.33,2.05s-2.87,1.52-3.1,2.2-.59,6.21.56,6.5,2.62-1,3.67-1.82,4.81-4.62,5.43-5.21S95.68,84.51,94.86,84Z" fill="#75c8ff"/>
    </g>
    <g id="Grupo_81937" data-name="Grupo 81937">
      <g id="Grupo_81936" data-name="Grupo 81936">
        <path id="Trazado_129396" data-name="Trazado 129396" d="M103.66,91.38l-.08.05h0Z" fill="#a0a1a5"/>
        <path id="Trazado_129397" data-name="Trazado 129397" d="M103.26,91.72l-.09.11Z" fill="#929296"/>
        <path id="Trazado_129398" data-name="Trazado 129398" d="M102.85,92.31v0Z" fill="#838487"/>
        <path id="Trazado_129399" data-name="Trazado 129399" d="M102.58,93.49h0v.06a.65.65,0,0,0,.08.27,1.72,1.72,0,0,0,.31.39,3.12,3.12,0,0,0,.37.3,2.32,2.32,0,0,0,.39.18l.21.07.22.06h1.57a.93.93,0,0,0,.29-.05h.56l.37-.17h0l1.79-1a1.37,1.37,0,0,0,.74-1h0v-.4a2.3,2.3,0,0,0-.47-1.31,2,2,0,0,0-.53-.48l-.16-.09a4.17,4.17,0,0,0-1.35-.45h-.81l-.28.12a.39.39,0,0,0-.11.06h-.07l-.67.39h0l-.11.06h0l-1,.58h0l-.24.17-.1.08h0l-.08.08h0l-.16.19a.44.44,0,0,0-.08.11h0v.14h0v.14l-.06.17a2.19,2.19,0,0,0-.62,1.33Zm3.26-3.36Z" fill="url(#linear-gradient-5)"/>
      </g>
      <path id="Trazado_129400" data-name="Trazado 129400" d="M106,91.14h.05c.2-.12.94-.53,1.11-.61a1.48,1.48,0,0,1,1.23-.14l.11.06-.08-.06-.16-.09a1.7,1.7,0,0,0-1.13.17c-.18.09-1,.54-1.13.64Z" fill="#cecece"/>
      <path id="Trazado_129401" data-name="Trazado 129401" d="M104.85,90.67c.05,0,.34-.12,1.25.55a3.6,3.6,0,0,1,1.64,2.35h0l.25-.14c.74-.41,1.29-.71,1.48-1.1V92.2c-.13.45-.71.77-1.52,1.22l-.19.1a3.63,3.63,0,0,0-1.64-2.34h-.05c-.62-.45-.94-.54-1.1-.53h0l-.11.06Z" fill="#cecece"/>
    </g>
  </g>
</svg>
