<svg id="cf6_equipo_copia" data-name="cf6_equipo copia" xmlns="http://www.w3.org/2000/svg" xmlns:xlink="http://www.w3.org/1999/xlink" width="200" height="200" viewBox="0 0 200 200">
  <defs>
    <linearGradient id="linear-gradient" x1="698.665" y1="-108.734" x2="699.505" y2="-108.734" gradientUnits="objectBoundingBox">
      <stop offset="0.05" stop-color="#feb9b8"/>
      <stop offset="0.99" stop-color="#fea5a4"/>
    </linearGradient>
    <linearGradient id="linear-gradient-2" x1="6367.544" y1="-419.264" x2="6368.211" y2="-419.264" xlink:href="#linear-gradient"/>
    <linearGradient id="linear-gradient-3" x1="603.924" y1="-87.725" x2="604.832" y2="-87.725" xlink:href="#linear-gradient"/>
  </defs>
  <g id="Capa_1" data-name="Capa 1">
    <rect id="Rectángulo_35153" data-name="Rectángulo 35153" width="200" height="200" fill="none"/>
    <g id="Grupo_81808" data-name="Grupo 81808">
      <g id="Grupo_81804" data-name="Grupo 81804">
        <g id="Grupo_81779" data-name="Grupo 81779">
          <path id="Trazado_128449" data-name="Trazado 128449" d="M80.96,156.32l60.68-33.3-29.18-16.86L52.95,140.14Z" fill="#c6c8d3"/>
          <g id="Grupo_81768" data-name="Grupo 81768">
            <path id="Trazado_128450" data-name="Trazado 128450" d="M54.39,91.53l.1,49.05,1.17.67L55.55,92.2Z" fill="#878787"/>
            <path id="Trazado_128451" data-name="Trazado 128451" d="M55.55,92.2l.11,49.05,1.17-.67-.11-49.05Z" fill="#717171"/>
            <path id="Trazado_128452" data-name="Trazado 128452" d="M54.39,91.53l1.16.67,1.17-.67-1.16-.68Z" fill="#b8b8b8"/>
          </g>
          <g id="Grupo_81769" data-name="Grupo 81769">
            <path id="Trazado_128453" data-name="Trazado 128453" d="M79.02,154.73,55.66,141.25l-.01-1.34,23.36,13.47Z" fill="#878787"/>
            <path id="Trazado_128454" data-name="Trazado 128454" d="M79.01,153.38,55.65,139.91l1.17-.68,23.36,13.48Z" fill="#989898"/>
            <path id="Trazado_128455" data-name="Trazado 128455" d="M79.02,154.73l-.01-1.35,1.17-.67.01,1.35Z" fill="#b8b8b8"/>
          </g>
          <g id="Grupo_81770" data-name="Grupo 81770">
            <path id="Trazado_128456" data-name="Trazado 128456" d="M79.26,122.77,55.8,109.24v-.86l23.45,13.53Z" fill="#878787"/>
            <path id="Trazado_128457" data-name="Trazado 128457" d="M79.25,121.91,55.8,108.38l.75-.44,23.46,13.53Z" fill="#989898"/>
            <path id="Trazado_128458" data-name="Trazado 128458" d="M79.26,122.77l-.01-.86.76-.44v.87Z" fill="#dcdcdc"/>
          </g>
          <g id="Grupo_81771" data-name="Grupo 81771">
            <path id="Trazado_128459" data-name="Trazado 128459" d="M136.42,89.77,112.97,76.24v-.86l23.45,13.53Z" fill="#989898"/>
            <path id="Trazado_128460" data-name="Trazado 128460" d="M136.42,88.91,112.97,75.38l.75-.44,23.45,13.53Z" fill="#bdbdbd"/>
            <path id="Trazado_128461" data-name="Trazado 128461" d="M136.42,89.77v-.86l.75-.44v.87Z" fill="#dcdcdc"/>
          </g>
          <g id="Grupo_81772" data-name="Grupo 81772">
            <path id="Trazado_128462" data-name="Trazado 128462" d="M78.91,113.7l.11,41.03,1.16.68-.1-41.03Z" fill="#878787"/>
            <path id="Trazado_128463" data-name="Trazado 128463" d="M80.08,114.38l.1,41.03,1.17-.68-.1-41.03Z" fill="#717171"/>
            <path id="Trazado_128464" data-name="Trazado 128464" d="M78.91,113.7l1.17.68,1.17-.68-1.17-.68Z" fill="#b8b8b8"/>
          </g>
          <g id="Grupo_81773" data-name="Grupo 81773">
            <path id="Trazado_128465" data-name="Trazado 128465" d="M111.55,67.69l.11,39.88,1.16.68-.1-39.89Z" fill="#878787"/>
            <path id="Trazado_128466" data-name="Trazado 128466" d="M112.72,68.36l.1,39.89,1.17-.68-.1-39.88Z" fill="#717171"/>
            <path id="Trazado_128467" data-name="Trazado 128467" d="M111.55,67.69l1.17.67,1.17-.67-1.17-.68Z" fill="#b8b8b8"/>
          </g>
          <g id="Grupo_81774" data-name="Grupo 81774">
            <path id="Trazado_128468" data-name="Trazado 128468" d="M136.18,121.73l-23.36-13.48-.01-1.35,23.37,13.48Z" fill="#878787"/>
            <path id="Trazado_128469" data-name="Trazado 128469" d="M136.18,120.38,112.81,106.9l1.17-.67,23.36,13.48Z" fill="#999"/>
            <path id="Trazado_128470" data-name="Trazado 128470" d="M136.18,121.73v-1.35l1.16-.67.01,1.34Z" fill="#b8b8b8"/>
          </g>
          <g id="Grupo_81775" data-name="Grupo 81775">
            <path id="Trazado_128471" data-name="Trazado 128471" d="M136.07,81.84l.11,39.89,1.16.67-.1-39.88Z" fill="#878787"/>
            <path id="Trazado_128472" data-name="Trazado 128472" d="M137.24,82.52l.1,39.88,1.17-.67-.1-39.89Z" fill="#717171"/>
            <path id="Trazado_128473" data-name="Trazado 128473" d="M136.07,81.84l1.17.68,1.17-.68-1.16-.68Z" fill="#b8b8b8"/>
          </g>
          <g id="Grupo_81778" data-name="Grupo 81778">
            <path id="Trazado_128474" data-name="Trazado 128474" d="M81.85,117.86l.56-1.4L55.55,92.2v1.91Z" fill="#888993"/>
            <path id="Trazado_128475" data-name="Trazado 128475" d="M55.55,94.11V92.2l-3.39-1.96v1.91Z" fill="#888993"/>
            <path id="Trazado_128476" data-name="Trazado 128476" d="M82.41,116.46l60.67-35.03-.56,1.4L81.85,117.86Z" fill="#7b7c8a"/>
            <path id="Trazado_128477" data-name="Trazado 128477" d="M82.41,116.46l60.67-35.03L116.23,57.17,55.55,92.2Z" fill="#999"/>
            <path id="Trazado_128478" data-name="Trazado 128478" d="M55.55,92.2l60.68-35.03-3.4-1.96L52.16,90.24Z" fill="#a5a5a5"/>
            <g id="Grupo_81776" data-name="Grupo 81776">
              <path id="Trazado_128479" data-name="Trazado 128479" d="M74.68,79.59l-1.43-.83c-.34-.19-.33-.5,0-.7l2.32-1.33a1.3,1.3,0,0,1,1.21,0l1.43.82h0l.29.31c.18.19.12.43-.15.59l-2.12,1.22a1.39,1.39,0,0,1-1,.09l-.54-.17Z" fill="#bcbcc2"/>
              <path id="Trazado_128480" data-name="Trazado 128480" d="M78.6,78.09v-.62L73,77.8v.63l1,.52,3-.09Z" fill="#bcbcc2"/>
              <path id="Trazado_128481" data-name="Trazado 128481" d="M74.68,79l-1.43-.82a.37.37,0,0,1,0-.7l2.32-1.34a1.36,1.36,0,0,1,1.21,0l1.43.82h0l.29.32c.18.19.12.43-.15.58L76.23,79a1.35,1.35,0,0,1-1,.09Z" fill="#c6c7cd"/>
              <path id="Trazado_128482" data-name="Trazado 128482" d="M75.62,79a1.15,1.15,0,0,0,.57-.14l2.11-1.22q.2-.1.21-.24a.25.25,0,0,0-.07-.21l-.29-.3-1.41-.82a1.1,1.1,0,0,0-.56-.13,1.12,1.12,0,0,0-.57.13L73.3,77.43a.34.34,0,0,0-.22.28c0,.1.08.19.21.27l1.42.82.53.16a1.21,1.21,0,0,0,.38.06Z" fill="#e0e6ec"/>
            </g>
            <path id="Trazado_128483" data-name="Trazado 128483" d="M79.05,77.15a.63.63,0,0,1-.52.89,1.07,1.07,0,0,1-1.15-.57.63.63,0,0,1,.52-.89A1.07,1.07,0,0,1,79.05,77.15Z" fill="#7a81a8"/>
            <path id="Trazado_128484" data-name="Trazado 128484" d="M79.07,77a.63.63,0,0,1-.51.89,1.08,1.08,0,0,1-1.16-.57.64.64,0,0,1,.52-.89,1.07,1.07,0,0,1,1.15.57Z" fill="#a4a9c4"/>
            <path id="Trazado_128485" data-name="Trazado 128485" d="M89.36,112.45l44.15-25.49L109.63,65.38,65.47,90.88Z" fill="#fff"/>
            <g id="Grupo_81777" data-name="Grupo 81777">
              <path id="Trazado_128486" data-name="Trazado 128486" d="M100.22,75,107,42.12l10.27-2.44,6.06,34.67a7.81,7.81,0,0,1-4.36,8.4l-1.8.85a11.31,11.31,0,0,1-9,.28l-4-1.61A6.44,6.44,0,0,1,100.22,75Z" fill="#ffcc31" opacity="0.44"/>
              <path id="Trazado_128487" data-name="Trazado 128487" d="M82.47,85.28,78.24,60,87,54.08,104.09,80a6.88,6.88,0,0,1-1.33,9l-3,2.54a9.76,9.76,0,0,1-9.14,1.86L89.27,93a9.78,9.78,0,0,1-6.8-7.72Z" fill="#ffcc31" opacity="0.44"/>
            </g>
            <path id="Trazado_128488" data-name="Trazado 128488" d="M97.35,107.83l-2.08-1.88,26.57-15.34,2.08,1.88Z" fill="#686868"/>
            <path id="Trazado_128489" data-name="Trazado 128489" d="M99.05,106.6l26.57-15.34-1.38,3.43L97.67,110.03Z" fill="#4e4f58"/>
          </g>
          <path id="Trazado_128490" data-name="Trazado 128490" d="M99.05,106.6l-.88-.8,26.56-15.33.89.79Z" fill="#797979"/>
          <path id="Trazado_128491" data-name="Trazado 128491" d="M99.05,106.6l-.88-.8-.82,2.03-.56,1.4.88.8Z" fill="#5a5a61"/>
        </g>
        <g id="Grupo_81783" data-name="Grupo 81783">
          <path id="Trazado_128492" data-name="Trazado 128492" d="M51.29,152.72a13.48,13.48,0,0,1-12.23,0c-3.39-2-3.4-5.12,0-7.06a13.55,13.55,0,0,1,12.23,0C54.64,147.62,54.66,150.78,51.29,152.72Z" fill="#d9d9d9"/>
          <path id="Trazado_128493" data-name="Trazado 128493" d="M49.88,151.5a10.4,10.4,0,0,1-9.41,0c-2.61-1.51-2.62-3.94,0-5.43a10.4,10.4,0,0,1,9.41,0C52.45,147.58,52.47,150,49.88,151.5Z" fill="#26272b"/>
          <path id="Trazado_128494" data-name="Trazado 128494" d="M52.55,135.56l-.82-1.39.17-.1.83,1.39Z" fill="#26272b"/>
          <path id="Trazado_128495" data-name="Trazado 128495" d="M37.71,134.83l-.2-.03,1.01-5.48.21.04Z" fill="#26272b"/>
          <path id="Trazado_128496" data-name="Trazado 128496" d="M38,138.97l-.2-.03,1.95-10.46.2.04Z" fill="#26272b"/>
          <path id="Trazado_128497" data-name="Trazado 128497" d="M38.51,143.81l-.21-.03,2.97-15.94.21.04Z" fill="#26272b"/>
          <path id="Trazado_128498" data-name="Trazado 128498" d="M39.6,146.25l-.2-.04,3.5-18.75.2.03Z" fill="#26272b"/>
          <path id="Trazado_128499" data-name="Trazado 128499" d="M41.84,144.91l-.2-.03,3.28-17.59.2.03Z" fill="#26272b"/>
          <path id="Trazado_128500" data-name="Trazado 128500" d="M43.74,146.42l-.21-.04,3.5-18.75.2.03Z" fill="#26272b"/>
          <path id="Trazado_128501" data-name="Trazado 128501" d="M46.44,144.09l-.21-.04,2.97-15.93.21.03Z" fill="#26272b"/>
          <path id="Trazado_128502" data-name="Trazado 128502" d="M48.37,145.23l-.2-.03,2.97-15.94.2.03Z" fill="#26272b"/>
          <path id="Trazado_128503" data-name="Trazado 128503" d="M49.71,146.78l-.2-.04,2.97-15.93.2.03Z" fill="#26272b"/>
          <path id="Trazado_128504" data-name="Trazado 128504" d="M40.8,144.73l-2.96-4.57.35-.22,2.95,4.57Z" fill="#26272b"/>
          <path id="Trazado_128505" data-name="Trazado 128505" d="M42.87,143.61l-5.31-8.21.17-.11,5.32,8.21Z" fill="#26272b"/>
          <path id="Trazado_128506" data-name="Trazado 128506" d="M45.89,144.09l-8.42-12.68.17-.11,8.42,12.67Z" fill="#26272b"/>
          <path id="Trazado_128507" data-name="Trazado 128507" d="M49.22,144.92,38.77,129.19l.18-.11L49.39,144.8Z" fill="#26272b"/>
          <rect id="Rectángulo_35154" data-name="Rectángulo 35154" width="0.2" height="19.64" transform="translate(41.053 128.074) rotate(-33.32)" fill="#26272b"/>
          <path id="Trazado_128508" data-name="Trazado 128508" d="M52.24,139.53l-8.03-12.1.17-.11,8.03,12.09Z" fill="#26272b"/>
          <path id="Trazado_128509" data-name="Trazado 128509" d="M52.55,135.57l-5.32-8.01.17-.11,5.32,8.01Z" fill="#26272b"/>
          <path id="Trazado_128510" data-name="Trazado 128510" d="M50,150a10.59,10.59,0,0,1-9.59,0c-2.66-1.53-2.67-4,0-5.54a10.62,10.62,0,0,1,9.59,0C52.6,146,52.61,148.47,50,150Z" fill="#42434b"/>
          <g id="Grupo_81780" data-name="Grupo 81780">
            <path id="Trazado_128511" data-name="Trazado 128511" d="M48.99,141.21l-4.84,1.25v1.94l2.7,1.21,3.31-3.03Z" fill="#fcfbfa"/>
            <path id="Trazado_128512" data-name="Trazado 128512" d="M44.73,143.58l-.8,2.76,1.31,1.28,2.49-1.15Z" fill="#e3e5ef"/>
            <path id="Trazado_128513" data-name="Trazado 128513" d="M51,144.46l-1.17-1.81-1.26,1.12Z" fill="#e3e5ef"/>
            <path id="Trazado_128514" data-name="Trazado 128514" d="M49.6,142.87l-1.42,4.75-2.35.21.37-3.39Z" fill="#acb1d0"/>
            <path id="Trazado_128515" data-name="Trazado 128515" d="M47.28,143.5l1.33,4.25,2.86-.98L49,143.19Z" fill="#fcfbfa"/>
            <path id="Trazado_128516" data-name="Trazado 128516" d="M49.72,147.25l-3.79-1.65-.58-1.71,3.38-.62,2.68,1.4Z" fill="#f8f4fc"/>
            <path id="Trazado_128517" data-name="Trazado 128517" d="M44.05,145.91l-.58-1.45.58-1.05-.65-1.67h2.65Z" fill="#f8f4fc"/>
            <path id="Trazado_128518" data-name="Trazado 128518" d="M44.33,142.25l.71-1.04,1.73.22,1.51-.82.29.71-1.93,1.06Z" fill="#f8f4fc"/>
          </g>
          <g id="Grupo_81781" data-name="Grupo 81781">
            <path id="Trazado_128519" data-name="Trazado 128519" d="M45.24,143.08l-5.26,1.36v2.12l2.94,1.31,3.6-3.3Z" fill="#fcfbfa"/>
            <path id="Trazado_128520" data-name="Trazado 128520" d="M40.61,145.66l-.87,3,1.43,1.4,2.71-1.25Z" fill="#e3e5ef"/>
            <path id="Trazado_128521" data-name="Trazado 128521" d="M47.43,146.61l-1.27-1.96-1.37,1.22Z" fill="#e3e5ef"/>
            <path id="Trazado_128522" data-name="Trazado 128522" d="M45.91,144.88l-1.55,5.18-2.55.22.4-3.68Z" fill="#acb1d0"/>
            <path id="Trazado_128523" data-name="Trazado 128523" d="M43.38,145.57l1.46,4.63,3.11-1.07-2.69-3.89Z" fill="#fcfbfa"/>
            <path id="Trazado_128524" data-name="Trazado 128524" d="M46.04,149.66l-4.12-1.8L41.29,146l3.67-.67,2.92,1.51Z" fill="#f8f4fc"/>
            <path id="Trazado_128525" data-name="Trazado 128525" d="M39.87,148.2l-.63-1.59.63-1.13-.71-1.82h2.89Z" fill="#f8f4fc"/>
            <path id="Trazado_128526" data-name="Trazado 128526" d="M40.17,144.22l.78-1.14,1.88.24,1.64-.9.32.78-2.1,1.15Z" fill="#f8f4fc"/>
          </g>
          <g id="Grupo_81782" data-name="Grupo 81782">
            <path id="Trazado_128527" data-name="Trazado 128527" d="M51.65,149.43l-.2-.02L52.8,132.1l.21.02Z" fill="#26272b"/>
            <path id="Trazado_128528" data-name="Trazado 128528" d="M38.63,149.16l-1.34-17.04.21-.02,1.33,17.04Z" fill="#26272b"/>
            <path id="Trazado_128529" data-name="Trazado 128529" d="M37.98,138.58l-.17-.11,2.1-3.41.17.11Z" fill="#26272b"/>
            <path id="Trazado_128530" data-name="Trazado 128530" d="M38.39,142.36l-.17-.1,3.93-6.38.17.1Z" fill="#26272b"/>
            <path id="Trazado_128531" data-name="Trazado 128531" d="M38.59,146.54l-.17-.11,6.29-10.22.17.11Z" fill="#26272b"/>
            <path id="Trazado_128532" data-name="Trazado 128532" d="M39.28,149.68l-.18-.11,8.39-13.62.17.11Z" fill="#26272b"/>
            <path id="Trazado_128533" data-name="Trazado 128533" d="M41.38,151.01l-.18-.1,10.19-16.55.18.11Z" fill="#26272b"/>
            <path id="Trazado_128534" data-name="Trazado 128534" d="M43.64,151.31l-.17-.11,8.99-14.61.18.11Z" fill="#26272b"/>
            <path id="Trazado_128535" data-name="Trazado 128535" d="M45.73,152.15l-.17-.11,6.5-10.56.17.11Z" fill="#26272b"/>
            <path id="Trazado_128536" data-name="Trazado 128536" d="M47.82,151.42l-.18-.1,4.16-6.76.18.11Z" fill="#26272b"/>
            <path id="Trazado_128537" data-name="Trazado 128537" d="M49.82,150.84l-.17-.1,1.98-3.22.17.1Z" fill="#26272b"/>
            <path id="Trazado_128538" data-name="Trazado 128538" d="M52.32,138.86l-2.6-3.4.16-.12,2.6,3.39Z" fill="#26272b"/>
            <path id="Trazado_128539" data-name="Trazado 128539" d="M52.04,142.26l-5.13-6.04.15-.13,5.13,6.04Z" fill="#26272b"/>
            <path id="Trazado_128540" data-name="Trazado 128540" d="M51.73,145.31l-7.62-8.97.16-.13,7.62,8.97Z" fill="#26272b"/>
            <path id="Trazado_128541" data-name="Trazado 128541" d="M51.37,148.92,39.61,135.01l.15-.13,11.77,13.91Z" fill="#26272b"/>
            <path id="Trazado_128542" data-name="Trazado 128542" d="M49.64,150.58,37.62,136l.15-.14L49.8,150.45Z" fill="#26272b"/>
            <path id="Trazado_128543" data-name="Trazado 128543" d="M47.31,151.16l-9.37-11.04.15-.13,9.38,11.04Z" fill="#26272b"/>
            <path id="Trazado_128544" data-name="Trazado 128544" d="M41.57,151.13l-3.02-3.57.15-.13,3.03,3.56Z" fill="#26272b"/>
            <rect id="Rectángulo_35155" data-name="Rectángulo 35155" width="0.2" height="9.93" transform="matrix(0.753, -0.658, 0.658, 0.753, 38.349, 144.283)" fill="#26272b"/>
          </g>
          <path id="Trazado_128545" data-name="Trazado 128545" d="M45.21,136.57a11.56,11.56,0,0,1-5.68-1.36,4.17,4.17,0,0,1-2.44-3.45,4.11,4.11,0,0,1,2.41-3.42,12.49,12.49,0,0,1,11.28,0,4.18,4.18,0,0,1,2.45,3.46,4.12,4.12,0,0,1-2.41,3.41h0a11.41,11.41,0,0,1-5.61,1.36Zm-.1-9a10.88,10.88,0,0,0-5.31,1.26,3.05,3.05,0,0,0,0,5.81,11.77,11.77,0,0,0,10.67,0h0a3.53,3.53,0,0,0,2.1-2.88,3.62,3.62,0,0,0-2.13-2.93,11.07,11.07,0,0,0-5.33-1.22Z" fill="#41424a"/>
        </g>
        <g id="Grupo_81784" data-name="Grupo 81784">
          <path id="Trazado_128546" data-name="Trazado 128546" d="M92,94a.63.63,0,0,1-.51.89,1.09,1.09,0,0,1-1.16-.57.64.64,0,0,1,.52-.89A1.06,1.06,0,0,1,92,94Z" fill="#7a81a8"/>
          <path id="Trazado_128547" data-name="Trazado 128547" d="M92,93.89a.64.64,0,0,1-.52.89,1.06,1.06,0,0,1-1.15-.57.63.63,0,0,1,.51-.89,1.09,1.09,0,0,1,1.16.57Z" fill="#a4a9c4"/>
          <path id="Trazado_128548" data-name="Trazado 128548" d="M90.43,96.67l.09-.51,16.69-9.64-.09.52Z" fill="#e0a654"/>
          <path id="Trazado_128549" data-name="Trazado 128549" d="M90.43,96.67l-1.3-1.18.08-.51,1.31,1.18Z" fill="#e08354"/>
          <path id="Trazado_128550" data-name="Trazado 128550" d="M90.52,96.16l-1.31-1.18,16.69-9.64,1.31,1.18Z" fill="#ffba54"/>
        </g>
        <path id="Trazado_128551" data-name="Trazado 128551" d="M93.12,82.11a.63.63,0,0,1-.51.89,1.08,1.08,0,0,1-1.16-.56.64.64,0,0,1,.52-.89,1.07,1.07,0,0,1,1.15.56Z" fill="#7a81a8"/>
        <path id="Trazado_128552" data-name="Trazado 128552" d="M93.15,82a.64.64,0,0,1-.52.9,1.07,1.07,0,0,1-1.15-.57.63.63,0,0,1,.51-.89,1.08,1.08,0,0,1,1.16.56Z" fill="#a4a9c4"/>
        <g id="Grupo_81785" data-name="Grupo 81785">
          <path id="Trazado_128553" data-name="Trazado 128553" d="M74.58,76h2.18v1.72h0a.53.53,0,0,1-.32.46,1.71,1.71,0,0,1-1.54,0,.54.54,0,0,1-.32-.44h0Z" fill="#bcbcc2"/>
          <path id="Trazado_128554" data-name="Trazado 128554" d="M76.45,75.51a1.73,1.73,0,0,0-1.55,0c-.42.25-.43.65,0,.89a1.67,1.67,0,0,0,1.54,0C76.87,76.15,76.87,75.75,76.45,75.51Z" fill="#e0e6ec"/>
          <path id="Trazado_128555" data-name="Trazado 128555" d="M76.85,76.63c-.09-.24-.22-.25-.31,0a1.61,1.61,0,0,0,0,.87c.09.25.22.25.31,0a1.64,1.64,0,0,0,0-.87Z" fill="#5a5a61"/>
        </g>
        <path id="Trazado_128556" data-name="Trazado 128556" d="M91.92,94.14l-1.24-.11L91.7,82.12,78.14,77.69H76.69V76.44h1.65l14.69,4.8Z" fill="#5a5a61"/>
        <path id="Trazado_128557" data-name="Trazado 128557" d="M92.1,93.64a.63.63,0,0,1-.52.89A1.07,1.07,0,0,1,90.43,94a.63.63,0,0,1,.52-.89A1.07,1.07,0,0,1,92.1,93.64Z" fill="#7a81a8"/>
        <path id="Trazado_128558" data-name="Trazado 128558" d="M92.13,93.52a.64.64,0,0,1-.52.9,1.09,1.09,0,0,1-1.16-.57A.64.64,0,0,1,91,93a1.09,1.09,0,0,1,1.13.52Z" fill="#cccccf"/>
        <path id="Trazado_128559" data-name="Trazado 128559" d="M93.31,81.46a.64.64,0,0,1-.52.89,1.07,1.07,0,0,1-1.15-.56.63.63,0,0,1,.51-.89,1.09,1.09,0,0,1,1.16.56Z" fill="#7a81a8"/>
        <path id="Trazado_128560" data-name="Trazado 128560" d="M93.33,81.34a.63.63,0,0,1-.52.9,1.08,1.08,0,0,1-1.15-.57.63.63,0,0,1,.52-.89,1.07,1.07,0,0,1,1.15.56Z" fill="#cccccf"/>
        <path id="Trazado_128561" data-name="Trazado 128561" d="M79.18,76.56a.63.63,0,0,1-.51.89,1.09,1.09,0,0,1-1.16-.56A.64.64,0,0,1,78,76a1.07,1.07,0,0,1,1.18.56Z" fill="#7a81a8"/>
        <path id="Trazado_128562" data-name="Trazado 128562" d="M79.21,76.44a.64.64,0,0,1-.52.89,1.07,1.07,0,0,1-1.15-.56.63.63,0,0,1,.51-.89,1.08,1.08,0,0,1,1.16.56Z" fill="#cccccf"/>
        <g id="Grupo_81794" data-name="Grupo 81794">
          <g id="Grupo_81790" data-name="Grupo 81790">
            <g id="Grupo_81786" data-name="Grupo 81786">
              <path id="Trazado_128563" data-name="Trazado 128563" d="M98.22,64.63l-1.43-.82a.37.37,0,0,1,0-.7l2.31-1.34a1.36,1.36,0,0,1,1.21,0l1.43.82h0l.29.32c.18.19.12.43-.15.58l-2.11,1.22a1.37,1.37,0,0,1-1,.09l-.54-.17Z" fill="#bcbcc2"/>
              <path id="Trazado_128564" data-name="Trazado 128564" d="M102.14,63.13v-.62l-5.6.32v1.79l.83-.48,3-.09Z" fill="#bcbcc2"/>
              <path id="Trazado_128565" data-name="Trazado 128565" d="M98.22,64l-1.43-.83c-.33-.19-.33-.5,0-.7l2.31-1.33a1.32,1.32,0,0,1,1.21,0l1.43.83h0l.29.31c.18.19.12.43-.15.59l-2.11,1.22a1.42,1.42,0,0,1-1,.09Z" fill="#c6c7cd"/>
              <path id="Trazado_128566" data-name="Trazado 128566" d="M99.17,64.06a1.19,1.19,0,0,0,.56-.13l2.12-1.22a.41.41,0,0,0,.21-.25.27.27,0,0,0-.08-.21l-.28-.3-1.42-.82a1.22,1.22,0,0,0-.56-.13,1.12,1.12,0,0,0-.57.14l-2.31,1.33a.35.35,0,0,0-.21.28.32.32,0,0,0,.21.27l1.41.82.54.17a1.13,1.13,0,0,0,.38,0Z" fill="#e0e6ec"/>
            </g>
            <g id="Grupo_81787" data-name="Grupo 81787">
              <path id="Trazado_128567" data-name="Trazado 128567" d="M100.36,43.57c0,.49-.34.68-.77.44a1.72,1.72,0,0,1-.77-1.33c0-.49.35-.69.77-.44a1.68,1.68,0,0,1,.77,1.33Z" fill="#f1f1f2"/>
              <path id="Trazado_128568" data-name="Trazado 128568" d="M100.2,43.67c0,.49-.35.69-.77.44a1.68,1.68,0,0,1-.77-1.33c0-.49.34-.68.77-.44a1.72,1.72,0,0,1,.77,1.33Z" fill="#9b9ea1"/>
            </g>
            <g id="Grupo_81789" data-name="Grupo 81789">
              <g id="Grupo_81788" data-name="Grupo 81788">
                <path id="Trazado_128569" data-name="Trazado 128569" d="M99,62.92l.93-.54c.31-.18.27-.51-.09-.72h0a1.4,1.4,0,0,0-1.24,0l-.93.54c-.32.18-.28.5.08.71h0A1.39,1.39,0,0,0,99,62.92Z" fill="#a4a9c4"/>
                <path id="Trazado_128570" data-name="Trazado 128570" d="M99,62.76l.93-.54c.31-.18.27-.5-.09-.72h0a1.4,1.4,0,0,0-1.24,0l-.93.54c-.32.18-.28.51.08.72h0a1.42,1.42,0,0,0,1.25,0Z" fill="#eff1fd"/>
              </g>
              <path id="Trazado_128571" data-name="Trazado 128571" d="M98,62.45h0a.52.52,0,0,0,.65-.09h0l.41-18.46.28-.1-.47,18.12L99,62a.5.5,0,0,0,.64-.15h0l.36-18.1a.51.51,0,0,0-.55-.47l-1.18.13Z" fill="#bcbcc2"/>
            </g>
          </g>
          <rect id="Rectángulo_35156" data-name="Rectángulo 35156" width="12.49" height="1.01" transform="matrix(0.868, -0.496, 0.496, 0.868, 98.527, 42.847)" fill="#bcbcc2"/>
          <g id="Grupo_81791" data-name="Grupo 81791">
            <path id="Trazado_128572" data-name="Trazado 128572" d="M109.83,37.8c0,.49-.34.69-.77.44a1.7,1.7,0,0,1-.77-1.33c0-.49.35-.68.77-.44a1.69,1.69,0,0,1,.77,1.33Z" fill="#f1f1f2"/>
            <path id="Trazado_128573" data-name="Trazado 128573" d="M109.67,37.91c0,.49-.34.68-.77.44a1.69,1.69,0,0,1-.77-1.33c0-.49.34-.69.77-.44a1.68,1.68,0,0,1,.77,1.33Z" fill="#c8ccd0"/>
          </g>
          <g id="Grupo_81792" data-name="Grupo 81792">
            <path id="Trazado_128574" data-name="Trazado 128574" d="M109.92,37.49a5.81,5.81,0,0,0-.78.3,4.66,4.66,0,0,0-.74.42l-.31.22c-.14.11-.32.26-.45.38a4.07,4.07,0,0,0-.55.62,3.89,3.89,0,0,0-.41.65l-.16.33a3.591,3.591,0,0,0-.14.43,3.821,3.821,0,0,0-.17.86,5.129,5.129,0,0,0,0,1c0,.36.49.69,1.37.92a5.57,5.57,0,0,1,1.94-4.86c-1.07-.27-.87-.84.43-1.25l.23-.07Z" fill="#ddd"/>
            <path id="Trazado_128575" data-name="Trazado 128575" d="M114.56,37.28c-.26-.07-.43-.1-.6-.13l-.51-.06a5.57,5.57,0,0,1,.8.13c1.06.27.87.83-.44,1.25a9.24,9.24,0,0,1-4.29.26,5.57,5.57,0,0,0-1.94,4.86,18.44,18.44,0,0,0,8.54-.52c1.51-.48,2.27-1.06,2.23-1.57a4.61,4.61,0,0,0-.17-.9,3.388,3.388,0,0,0-.15-.45,1.022,1.022,0,0,0-.17-.37c-.06-.11-.15-.27-.22-.38a3.85,3.85,0,0,0-.48-.62,4.54,4.54,0,0,0-.54-.51,5.89,5.89,0,0,0-.58-.39l-.34-.18-.49-.22a6,6,0,0,0-.65-.2Z" fill="#ddd"/>
            <path id="Trazado_128576" data-name="Trazado 128576" d="M109,35.15a9.434,9.434,0,0,1-.07,1.2h0V38a1.93,1.93,0,0,0,0,.24c0,.19.22.37.69.49V35.58C109.14,35.47,109,35.32,109,35.15Z" fill="#ccc"/>
            <path id="Trazado_128577" data-name="Trazado 128577" d="M114.93,37.65c-.11-.53-.24-1.08-.24-1.08h0a1.663,1.663,0,0,0-.09-.37c-.07-.32-.09-.39-.14-.59a1.459,1.459,0,0,0,0-.2,1.865,1.865,0,0,0-.1-.39.9.9,0,0,0-.1-.38c.06.23-.27.5-1,.72a7.89,7.89,0,0,1-3.7.22c0,1.28,0,3.06,0,3.15a9.24,9.24,0,0,0,4.29-.26C114.6,38.22,115,37.91,114.93,37.65Z" fill="#ccc"/>
            <path id="Trazado_128578" data-name="Trazado 128578" d="M110.45,33.8a2.34,2.34,0,0,0-.53.22,2.08,2.08,0,0,0-.37.24,2.129,2.129,0,0,0-.32.36,2.1,2.1,0,0,0-.25.45c-.08.2.1.39.57.51.23-.8.58-1.28,1.94-1.72-1.36.44-1.71.92-1.94,1.72a7.89,7.89,0,0,0,3.7-.22c.77-.25,1.09-.55.93-.79l-.15-.2-.09-.1a1.5,1.5,0,0,0-.31-.28,2.12,2.12,0,0,0-.4-.21,2,2,0,0,0-.43-.13,4.88,4.88,0,0,0-2.35.15Z" fill="#ddd"/>
          </g>
          <g id="Grupo_81793" data-name="Grupo 81793">
            <path id="Trazado_128579" data-name="Trazado 128579" d="M99.83,43.9c0,.49-.35.69-.77.44A1.68,1.68,0,0,1,98.29,43c0-.49.34-.68.77-.44a1.72,1.72,0,0,1,.77,1.34Z" fill="#f1f1f2"/>
            <path id="Trazado_128580" data-name="Trazado 128580" d="M99.67,44c0,.49-.35.68-.78.44a1.72,1.72,0,0,1-.77-1.33c0-.49.35-.69.77-.44A1.69,1.69,0,0,1,99.67,44Z" fill="#c8ccd0"/>
          </g>
        </g>
        <g id="Grupo_81803" data-name="Grupo 81803">
          <g id="Grupo_81799" data-name="Grupo 81799">
            <g id="Grupo_81795" data-name="Grupo 81795">
              <path id="Trazado_128581" data-name="Trazado 128581" d="M67.09,82.61l-1.43-.83c-.33-.19-.33-.5,0-.7L68,79.75a1.32,1.32,0,0,1,1.21,0l1.43.83h0l.29.31c.18.19.12.43-.15.59L68.67,82.7a1.37,1.37,0,0,1-1,.08l-.54-.16Z" fill="#bcbcc2"/>
              <path id="Trazado_128582" data-name="Trazado 128582" d="M71.01,81.11v-.62l-5.6.32v1.78l.83-.48,3-.08Z" fill="#bcbcc2"/>
              <path id="Trazado_128583" data-name="Trazado 128583" d="M67.09,82l-1.43-.82c-.33-.2-.33-.51,0-.7L68,79.12a1.36,1.36,0,0,1,1.21,0l1.43.82h0l.29.31c.18.2.12.44-.15.59l-2.11,1.22a1.37,1.37,0,0,1-1,.09Z" fill="#c6c7cd"/>
              <path id="Trazado_128584" data-name="Trazado 128584" d="M68,82a1.12,1.12,0,0,0,.57-.14l2.12-1.22a.41.41,0,0,0,.21-.25.24.24,0,0,0-.08-.2l-.28-.31-1.42-.81a1.21,1.21,0,0,0-1.13,0L65.68,80.4a.294.294,0,0,0-.01.56l1.42.82.53.16A1.21,1.21,0,0,0,68,82Z" fill="#e0e6ec"/>
            </g>
            <g id="Grupo_81796" data-name="Grupo 81796">
              <path id="Trazado_128585" data-name="Trazado 128585" d="M69.23,61.54c0,.49-.34.69-.77.44a1.69,1.69,0,0,1-.77-1.33c0-.49.34-.69.77-.44a1.69,1.69,0,0,1,.77,1.33Z" fill="#f1f1f2"/>
              <path id="Trazado_128586" data-name="Trazado 128586" d="M69.07,61.65c0,.49-.35.68-.77.44a1.71,1.71,0,0,1-.77-1.33c0-.49.34-.69.77-.44a1.7,1.7,0,0,1,.77,1.33Z" fill="#9b9ea1"/>
            </g>
            <g id="Grupo_81798" data-name="Grupo 81798">
              <g id="Grupo_81797" data-name="Grupo 81797">
                <path id="Trazado_128587" data-name="Trazado 128587" d="M67.84,80.89l.93-.54c.31-.18.27-.5-.09-.71h0a1.39,1.39,0,0,0-1.25-.06l-.93.54c-.31.18-.27.51.09.72h0A1.42,1.42,0,0,0,67.84,80.89Z" fill="#a4a9c4"/>
                <path id="Trazado_128588" data-name="Trazado 128588" d="M67.84,80.73l.93-.53c.31-.19.27-.51-.09-.72h0a1.38,1.38,0,0,0-1.25,0L66.5,80c-.31.19-.27.51.09.72h0a1.38,1.38,0,0,0,1.25.01Z" fill="#eff1fd"/>
              </g>
              <path id="Trazado_128589" data-name="Trazado 128589" d="M66.85,80.42h.05a.51.51,0,0,0,.65-.1h0L68,61.87l.28-.11L67.8,79.89h.1a.5.5,0,0,0,.64-.16h0l.37-18.05a.5.5,0,0,0-.55-.47l-1.18.12Z" fill="#bcbcc2"/>
            </g>
          </g>
          <rect id="Rectángulo_35157" data-name="Rectángulo 35157" width="12.49" height="1.01" transform="matrix(0.868, -0.496, 0.496, 0.868, 67.393, 60.818)" fill="#bcbcc2"/>
          <g id="Grupo_81800" data-name="Grupo 81800">
            <path id="Trazado_128590" data-name="Trazado 128590" d="M78.7,55.78c0,.48-.34.68-.77.44a1.73,1.73,0,0,1-.77-1.33c0-.49.35-.69.77-.44a1.68,1.68,0,0,1,.77,1.33Z" fill="#f1f1f2"/>
            <path id="Trazado_128591" data-name="Trazado 128591" d="M78.54,55.88c0,.49-.35.69-.77.44A1.68,1.68,0,0,1,77,55c0-.49.34-.68.77-.44a1.72,1.72,0,0,1,.77,1.32Z" fill="#c8ccd0"/>
          </g>
          <g id="Grupo_81801" data-name="Grupo 81801">
            <path id="Trazado_128592" data-name="Trazado 128592" d="M79.28,55.17a6.269,6.269,0,0,0-.58.61,6.74,6.74,0,0,0-.5.68,3.721,3.721,0,0,0-.19.34c-.08.15-.18.37-.25.53a4.35,4.35,0,0,0-.24.79,4.7,4.7,0,0,0-.1.76,2.28,2.28,0,0,0,0,.37,3.27,3.27,0,0,0,0,.45,4.15,4.15,0,0,0,.21.85,4.55,4.55,0,0,0,.41.88c.18.32.72.43,1.62.26a5.58,5.58,0,0,1-.27-5.22c-1.08.2-1.14-.39-.12-1.32l.18-.16Z" fill="#ddd"/>
            <path id="Trazado_128593" data-name="Trazado 128593" d="M83.41,53.05a6.119,6.119,0,0,0-.6.14c-.19.05-.41.13-.49.16a5.07,5.07,0,0,1,.78-.23c1.09-.19,1.14.4.13,1.32a9.07,9.07,0,0,1-3.8,2,5.58,5.58,0,0,0,.27,5.22,18.21,18.21,0,0,0,7.54-4c1.18-1.07,1.63-1.92,1.37-2.36-.15-.23-.36-.53-.53-.75a2.579,2.579,0,0,0-.32-.34l-.3-.27-.36-.25a4.45,4.45,0,0,0-1.41-.6A4.841,4.841,0,0,0,85,53h-.91A3.941,3.941,0,0,0,83.41,53.05Z" fill="#ddd"/>
            <path id="Trazado_128594" data-name="Trazado 128594" d="M77.43,53.45c.1.26.2.52.44,1.12h0l.3.72.34.81a2,2,0,0,0,.1.21c.07.18.35.25.82.16,0-.08-.79-1.69-1.28-2.87C77.74,53.67,77.49,53.61,77.43,53.45Z" fill="#ccc"/>
            <path id="Trazado_128595" data-name="Trazado 128595" d="M83.9,53.23l-.67-.88h0l-.23-.3-.38-.48a1,1,0,0,1-.12-.16l-.26-.31L82,50.8c.15.18,0,.56-.57,1.05a7.88,7.88,0,0,1-3.27,1.75c.49,1.18,1.25,2.79,1.28,2.87a9.07,9.07,0,0,0,3.8-2C83.84,53.88,84.06,53.45,83.9,53.23Z" fill="#ccc"/>
            <path id="Trazado_128596" data-name="Trazado 128596" d="M78.23,51.6a2.84,2.84,0,0,0-.4.43,2,2,0,0,0-.23.37,2.211,2.211,0,0,0-.15.46,3.271,3.271,0,0,0,0,.51c0,.22.25.31.73.23a2.388,2.388,0,0,1,1-2.37c-1,1-1.16,1.55-1,2.37a7.88,7.88,0,0,0,3.27-1.75c.59-.54.76-1,.51-1.1l-.22-.12-.12-.06a2,2,0,0,0-.39-.12,1.67,1.67,0,0,0-.46,0,2.41,2.41,0,0,0-.44.07,4.87,4.87,0,0,0-2.1,1.08Z" fill="#ddd"/>
          </g>
          <g id="Grupo_81802" data-name="Grupo 81802">
            <path id="Trazado_128597" data-name="Trazado 128597" d="M68.7,61.88c0,.49-.35.68-.77.44A1.7,1.7,0,0,1,67.15,61c0-.49.35-.69.78-.44a1.7,1.7,0,0,1,.77,1.32Z" fill="#f1f1f2"/>
            <path id="Trazado_128598" data-name="Trazado 128598" d="M68.53,62c0,.49-.34.69-.77.44A1.7,1.7,0,0,1,67,61.09c0-.49.35-.68.77-.44A1.69,1.69,0,0,1,68.53,62Z" fill="#c8ccd0"/>
          </g>
        </g>
      </g>
      <g id="Grupo_81805" data-name="Grupo 81805">
        <ellipse id="Elipse_5521" data-name="Elipse 5521" cx="12.29" cy="7.1" rx="12.29" ry="7.1" transform="matrix(1, -0.005, 0.005, 1, 106.419, 140.513)" fill="#c6c8d3"/>
        <ellipse id="Elipse_5522" data-name="Elipse 5522" cx="12.29" cy="7.1" rx="12.29" ry="7.1" transform="matrix(1, -0.005, 0.005, 1, 113.499, 136.964)" fill="#c6c8d3"/>
        <path id="Trazado_128599" data-name="Trazado 128599" d="M131.6,143.67s.91.35,1.05.82a8.86,8.86,0,0,1,.33,1.76,2.56,2.56,0,0,1-2.51,1.25,6.9,6.9,0,0,1-2.9-1.28,2.44,2.44,0,0,1-.18-.56s-.93-.27-1.31-.33a37,37,0,0,1-5-1.27c-.76-.39-1.07-.42-1.18-1.1s0-.86,0-.86a2.27,2.27,0,0,1,1.46-.75C122.31,141.28,131.6,143.67,131.6,143.67Z" fill="#323142"/>
        <path id="Trazado_128600" data-name="Trazado 128600" d="M131.69,141.75a6.6,6.6,0,0,1,.61,2.14c0,.77.07.86-.07,1.19a2.82,2.82,0,0,1-3.21.72c-1.62-.67-4-1.89-4.62-2.05s-3.76-.38-3.88-.91a5.35,5.35,0,0,1-.07-1.39,4.27,4.27,0,0,1,.1-.77l2.69-.44Z" fill="#ababab"/>
        <path id="Trazado_128601" data-name="Trazado 128601" d="M134.35,101.57a7.25,7.25,0,0,1,.94,4.42,21.18,21.18,0,0,1-.91,6.11,51.22,51.22,0,0,0-1.11,11.9,43.64,43.64,0,0,1-.24,11c-.63,4.28-1,8.13-1,9s-2.35,1.6-4.54.29a5.21,5.21,0,0,1-2.55-3s.28-32,.76-33.95,2.86-4.7,2.86-4.7Z" fill="#424c67"/>
        <path id="Trazado_128602" data-name="Trazado 128602" d="M127.22,144.51h-.32c0-.1.41-10.43,0-15-.31-3.66.16-12.54.36-16.34,0-.84.08-1.51.07-1.58h.14l.18-.06a10.609,10.609,0,0,1-.07,1.67c-.2,3.79-.67,12.66-.36,16.29C127.64,134.06,127.23,144.41,127.22,144.51Z" fill="#4f5a7a"/>
        <path id="Trazado_128603" data-name="Trazado 128603" d="M124.53,147.75c.45.15.68.22.86.56a10.128,10.128,0,0,1,.44,1.55,2.23,2.23,0,0,1-1.67,1.62c-1.43.38-3.77-.33-3.82-.65a1.79,1.79,0,0,0-.18-.55s-1.41-.36-1.9-.05-2.72-.12-3.58-.42a4.68,4.68,0,0,1-2.57-1.85,2.93,2.93,0,0,1-.1-1.74c0-.1.55-.8.93-.59S124.53,147.75,124.53,147.75Z" fill="#323142"/>
        <path id="Trazado_128604" data-name="Trazado 128604" d="M124.74,146.43a22.258,22.258,0,0,1,.48,2.42c0,.45-.83,1.17-1.8,1.26s-3.1-.73-4.51-.61a11.23,11.23,0,0,1-4-.39c-1-.31-2.73-1.4-2.69-2.16a2.84,2.84,0,0,1,.75-1.83,7.52,7.52,0,0,1,2.45-.53,21.709,21.709,0,0,0,3.58-.58C119.5,143.84,124.74,146.43,124.74,146.43Z" fill="#ababab"/>
        <path id="Trazado_128605" data-name="Trazado 128605" d="M131.67,102.06c.2.1.52,2.47.52,5.17a10.17,10.17,0,0,1-2.39,6.21,22.189,22.189,0,0,0-1.8,5.16c-.64,2.52-.76,6.78-1.27,8.72s.31,2.13,0,6.21c-.36,4.7-1.29,9.76-1.61,13.75-.07.92-4.07,1.44-5.2.6a2.92,2.92,0,0,1-1.42-2.42c0-.69.34-13.57.29-16.53s-1.61-17.75-.77-23S131.67,102.06,131.67,102.06Z" fill="#424c67"/>
        <path id="Trazado_128606" data-name="Trazado 128606" d="M134.66,111.19l-1.3-.65v-.12a26.34,26.34,0,0,0,.13-6v-.09l.07-.06a3.18,3.18,0,0,0,.94-1.25l.31.11a3.49,3.49,0,0,1-1,1.33,26.11,26.11,0,0,1-.12,5.94l1.08.55Z" fill="#4f5a7a"/>
        <path id="Trazado_128607" data-name="Trazado 128607" d="M120.44,147.78h-.33c.33-6,.38-11.29.41-14.8,0-1.75,0-3,.07-3.74.11-2.14-.52-10.33-.81-13.38-.16-1.77-.15-3.89-.14-6v-3.31H120v3.32c0,2,0,4.16.14,5.92.28,3.06.92,11.27.8,13.42,0,.72,0,2-.06,3.73C120.82,136.48,120.77,141.79,120.44,147.78Z" fill="#4f5a7a"/>
        <path id="Trazado_128608" data-name="Trazado 128608" d="M127,114.93a8.37,8.37,0,0,1-3.15-.55.53.53,0,0,1-.26-.33c0-.21-.2-.93-.39-1.75a28.1,28.1,0,0,1-.78-3.83c0-.22.28-.24.9-.29a19.72,19.72,0,0,0,7.27-2l.1-.05.08.07a13.14,13.14,0,0,1-.19,4.44,13.64,13.64,0,0,1-3.19,4.26,1.61,1.61,0,0,1-.39.03Zm-4.26-6.36c0,.4.5,2.42.78,3.65.2.87.36,1.56.4,1.78l.1.1a8.77,8.77,0,0,0,3.29.49,14.6,14.6,0,0,0,3-4,16.06,16.06,0,0,0,.26-4,20.11,20.11,0,0,1-7.18,1.93Z" fill="#4f5a7a"/>
        <path id="Trazado_128609" data-name="Trazado 128609" d="M118.26,104s2.42,3,11.35.26c3-1.16,4.93-3.62,4.86-4.12l.33,2.13s-.57,2.29-6.24,4.42c-4.62,1.42-10,1.5-10.63-1C118.11,105,118.26,104,118.26,104Z" fill="#a76478"/>
        <path id="Trazado_128610" data-name="Trazado 128610" d="M131.13,102.46s.28,0,.4.52a12.521,12.521,0,0,1,.43,2.31,3.5,3.5,0,0,1-.08.44,2.77,2.77,0,0,0,.77-.3c.1-.13.11-.29,0-1a10.7,10.7,0,0,0-.51-2c-.13-.31-.29-.29-.29-.29Z" fill="#424c67"/>
        <path id="Trazado_128611" data-name="Trazado 128611" d="M120.84,105a1.52,1.52,0,0,0-.38.69c0,.32.07,1.67.07,1.76s.21.42.17.48-.8-.08-.83-.23a2.85,2.85,0,0,0-.14-.94,3.49,3.49,0,0,1,0-1.53,1.38,1.38,0,0,1,.34-.45Z" fill="#424c67"/>
      </g>
      <g id="Grupo_81807" data-name="Grupo 81807">
        <path id="Trazado_128612" data-name="Trazado 128612" d="M112.51,87.62c.4.7.69,1.17.69,1.17s3.88,12.51,4.55,15.24c.49,2,3.34,2.28,3.79,2.32A17.06,17.06,0,0,0,132,104c2.44-1.35,3.35-2.13,3.35-3.84-.3-2.07-2.59-6.28-2.84-7.81s-1-9.74-1.27-13.09-.81-4.73-1.75-5.54a2.92,2.92,0,0,0-2.78-.55,11.45,11.45,0,0,1-2.87.25c-1.33,0-1,.22-2.12.72L117.28,76s-3.71,3.06-5,3.88a6.49,6.49,0,0,0-2,1.85C109.68,82.42,111.46,85.79,112.51,87.62Z" fill="#4baeff"/>
        <path id="Trazado_128613" data-name="Trazado 128613" d="M109.52,68.45c.31,1,1.28,2.41,1.59,3.19a16.26,16.26,0,0,0,2.11,3.15l.07.07.07.08a1.28,1.28,0,0,0,.44.34,3.39,3.39,0,0,0,1.55-.19,10.73,10.73,0,0,1,1.1,1.56,4.489,4.489,0,0,1,.57-.15c.63-.14,1.63-.29,3-.54,1.83-.35,3.94-1.44,4-1.9s-.71-.49-1.25-.67-.91-.69-1.36-1.33a10.2,10.2,0,0,1-1-3.74s-9.26-5-10.62-3.81S109.21,67.43,109.52,68.45Z" fill="url(#linear-gradient)"/>
        <path id="Trazado_128614" data-name="Trazado 128614" d="M112.33,70.14l-.8.21a4.3,4.3,0,0,0-.9-1.37,2.55,2.55,0,0,0-.93-.42s-.28.18-.45-.06a4.66,4.66,0,0,1-.82-2.09,6.16,6.16,0,0,1,2.69-5.34c2.46-1.48,4.22-1.51,5.9-.55,2-.47,3.55,2.21,4,4.36a9.64,9.64,0,0,1,.11,4.42,5.65,5.65,0,0,0-.18,1.75,8.82,8.82,0,0,0-1.87.4c-.54.25-.8.73-1.23.88a1.71,1.71,0,0,1-1.64-1A5.5,5.5,0,0,0,114,69.22a2.45,2.45,0,0,0-1.62-.16C112.16,69.13,112.22,69.93,112.33,70.14Z" fill="#754942"/>
        <path id="Trazado_128615" data-name="Trazado 128615" d="M112.16,69s.4-.62,1,.55a3.2,3.2,0,0,1,.62,2.35c-.15.51-.75-.48-.84-.82s-.73-1.69-.73-1.7S112.16,69,112.16,69Z" fill="url(#linear-gradient-2)"/>
        <path id="Trazado_128616" data-name="Trazado 128616" d="M114.53,74.74l-1.17.2a1.28,1.28,0,0,0,.44.34,3.39,3.39,0,0,0,1.55-.19,10.731,10.731,0,0,1,1.1,1.56,4.491,4.491,0,0,1,.57-.15l-.15-.18a9.152,9.152,0,0,1-.57-.9c-.14-.22-.4-.83-.66-.92h-.14A8.381,8.381,0,0,0,114.53,74.74Z" fill="#d4b49f"/>
        <path id="Trazado_128617" data-name="Trazado 128617" d="M113.22,74.79l.07.07A.12.12,0,0,0,113.22,74.79Z" fill="#d4b49f"/>
        <g id="Grupo_81806" data-name="Grupo 81806">
          <path id="Trazado_128618" data-name="Trazado 128618" d="M95.78,86.19a12.3,12.3,0,0,0,.78,1.39h0a3.24,3.24,0,0,0,.38.49l.25.18h0l.17.12h0a2.93,2.93,0,0,1,.77.88c.49.8,2.07,4.4,2.91,5.46s2.78,3,3.63,2.92,4.16-2.77,5.33-3.91a39.628,39.628,0,0,0,3.08-3.55h0l-.06-.07h0c-.13-.15-.43-.51-.8-1h0a35.887,35.887,0,0,0-3.07-3.47,27,27,0,0,0-3.4,4.18c-.24.41-.45.74-.63,1-.55.77-.84,1-.89,1a14.389,14.389,0,0,1-1.56-1.65,9.9,9.9,0,0,1-1.8-2.73,3.7,3.7,0,0,1,.07-1,11.11,11.11,0,0,0,.25-2,3.74,3.74,0,0,0-.81-1.56,3.41,3.41,0,0,0-1.18-.08v-.06l-.2-.25s-.19-.06-.42-.11a1.22,1.22,0,0,0-.6,0,.94.94,0,0,0-.45.4l-.07.12a.33.33,0,0,0-.23-.06h-.08c-.2,0-.41.58-.45.68s-.14.65-.2.93v.15l-.1.09a1.769,1.769,0,0,0-.27.37,1.34,1.34,0,0,0-.15.41.51.51,0,0,0-.13.12C95.52,85.88,95.74,86,95.78,86.19Z" fill="url(#linear-gradient-3)"/>
          <path id="Trazado_128619" data-name="Trazado 128619" d="M96.56,87.58a3.24,3.24,0,0,0,.38.49l.25.18-.09-.08A7.548,7.548,0,0,1,96.56,87.58Z" fill="#d4b49f"/>
          <path id="Trazado_128620" data-name="Trazado 128620" d="M98.58,82.37a.51.51,0,0,0,.06.21,2.312,2.312,0,0,1,.2.24,1.17,1.17,0,0,1,.1.26,2.27,2.27,0,0,0,.87,1l.2.15a1.36,1.36,0,0,0-.24-.35,2.72,2.72,0,0,1-.51-.89.56.56,0,0,1-.05-.25L99,82.48S98.81,82.42,98.58,82.37Z" fill="#d4b49f"/>
          <path id="Trazado_128621" data-name="Trazado 128621" d="M97.3,83.29c0,.16.12.63.39.43h0a.17.17,0,0,0,0-.07,2.09,2.09,0,0,1-.18-.85h0l-.07.12a.33.33,0,0,0-.23-.06C97.25,83,97.27,83.13,97.3,83.29Z" fill="#d4b49f"/>
          <path id="Trazado_128622" data-name="Trazado 128622" d="M96.48,84.59l-.1.09a.19.19,0,0,0,.05.09s.12.06.16,0l-.09-.34C96.49,84.54,96.48,84.59,96.48,84.59Z" fill="#d4b49f"/>
          <path id="Trazado_128623" data-name="Trazado 128623" d="M95.83,85.58a.42.42,0,0,0,.1.17H96c0-.23.06-.45.08-.68a1.34,1.34,0,0,0-.15.41.51.51,0,0,0-.1.1Z" fill="#d4b49f"/>
        </g>
        <path id="Trazado_128624" data-name="Trazado 128624" d="M110.21,81.87c.7-.62,1.53-1.52,3.11-1,1.22.41,4,3.37,3.15,5.69s-9.26,10.22-9.26,10.22A11.37,11.37,0,0,1,104,94.41c-1.86-1.84.27-2.37.26-2.43s4.72-7.89,5-8.47a14.119,14.119,0,0,1,.95-1.64Z" fill="#75c8ff"/>
        <path id="Trazado_128625" data-name="Trazado 128625" d="M101.36,88c-.39-.38-2.47.4-3,1.22s0,1.28,0,1.28,2.77,6.6,5.68,7.5c1.37.31,2.85-.9,3.18-1.17s-2.11-5.1-2.34-5.2S101.36,88,101.36,88Z" fill="#75c8ff"/>
        <path id="Trazado_128626" data-name="Trazado 128626" d="M99.48,83.7c0-.08-.16-3.14-.27-3.35a.46.46,0,0,0-.67,0,14.559,14.559,0,0,0,.14,2.63Z" fill="#1f1f24"/>
      </g>
    </g>
  </g>
</svg>
