<svg xmlns="http://www.w3.org/2000/svg" width="393.978" height="361.458" viewBox="0 0 393.978 361.458">
  <g id="Grupo_83006" data-name="Grupo 83006" transform="translate(-603 -3559)">
    <g id="Image_Place_Holder" data-name="Image Place Holder" transform="translate(603 3653.765)">
      <rect id="Image_Place_Holder-2" data-name="Image Place Holder" width="393.978" height="266.693" rx="10" fill="#d2edea"/>
    </g>
    <g id="cf6_roles_scrum_copia" data-name="cf6_roles scrum copia" transform="translate(649.344 3559)">
      <g id="Capa_1" data-name="Capa 1">
        <rect id="Rectángulo_35336" data-name="Rectángulo 35336" width="303" height="302" transform="translate(-0.344)" fill="none"/>
        <g id="Grupo_82102" data-name="Grupo 82102" transform="translate(58.277 32.926)">
          <path id="Trazado_131710" data-name="Trazado 131710" d="M219.361,155.683H163.393c-.137-3.051-.289-5.676-.454-7.436-.8-8.37-3.175-10.446-3.189-10.46a76.075,76.075,0,0,1-3.3-9.827c-.11-.6-.179-1.21-.261-1.814,2.13.234,3.615-.481,4.192-2.57a1.373,1.373,0,0,0,0-.481c.619-2.749.577-7.491,1.663-15.119s0-14.954-2.556-15.518a31.3,31.3,0,0,0-6.006-2.034L150.886,87l-.783.4a7.34,7.34,0,0,1-.522-1.1,7.175,7.175,0,0,1-.33-1.663c1.127.137,1.759-1.072,1.251-1.182s2.172-7.587,3.766-9.291,1.8-7.133-1.374-9.621a3.34,3.34,0,0,0-3.436-.55c-3.917-3.175-8.343-1.072-8.439-.646-4.522.7-4.934,6.872-4.934,6.872l.357-.22a5.111,5.111,0,0,1-.206.852c-1.278,6.268,1.278,12.453,4.275,13.36h.3a1.891,1.891,0,0,1-.082.687,7.821,7.821,0,0,1-.289,1.374,6.144,6.144,0,0,1-1.21,1.7l-.564-.481-3.161,2.859c-1.072.082-1.965.124-2.529.11h0c-1.5-.509-3.725,2.1-5.759,6.075a4,4,0,0,0-1.141-1.374,2.529,2.529,0,0,0-1.374-.948h-.082l.22-.11a25.208,25.208,0,0,0,3.807-3.367c.454-.838,4.508-5.855,3.725-5.883s-4.316,3.931-4.439,3.848a11.5,11.5,0,0,0-2.914-1.993c-.8-.22-3.23,3.725-4.22,5.374l-2.213-1.1a22.717,22.717,0,0,1-2.034-2.68h.151c.165-.1.4-.371.564-.467s.316,0,.467-.151a3.773,3.773,0,0,1,.509-.536c.179-.11.495-.192.632-.261.591-.289.371-.673.55-.783a3.175,3.175,0,0,0,.77-.495.728.728,0,0,0,.151-.275,12.6,12.6,0,0,1,2.941,1.374s3.409-13.937-1.938-21.551S109.2,61.7,109.2,62.275C101.1,64.5,105.886,84.5,105.886,84.5a4.936,4.936,0,0,1,.591-.151c-.11.344-.192.564-.192.564-.962,1.622-4.769,3.546-4.769,3.546-2.1.247-7.395.3-9.236,1.787-3.532,1.869-2.405,6.982-.124,12.727-1.842-1.924-4.123-4.233-5.635-5.8a22.389,22.389,0,0,0-2.749-2.364h0c-.632-1.045-4.123-2.433-6.322-3.2l-1.787-1.649-.151.426c-.11-1.2-.344-3.89-.55-6.322h0a9.03,9.03,0,0,0,2.625-.137c.811-.316,1.21-6.35,1.457-6.336s.893-.357.907-.852c0-.715-.907-4.989-.756-5.5a10.13,10.13,0,0,0-.082-5.663h0c-1.471-5.25-6.364-5.415-7.986-5.69a10.515,10.515,0,0,0-10.446,7.01,11.408,11.408,0,0,0-.385,4.989,5.131,5.131,0,0,0,.179,1,15.353,15.353,0,0,0,3.5,7.175h-.1l-.234,5.58a8.574,8.574,0,0,1-.137,1.1l-1.965,2.611h0l-4.577,2.089c-.866.357-1.732.728-2.515,1.127a7.147,7.147,0,0,0-2.1,1.265A5.5,5.5,0,0,0,50.372,96.9a4.783,4.783,0,0,0-.728,2.048,11.532,11.532,0,0,0,.22,2.57,1.951,1.951,0,0,0,0,.275c1.031,6.006,4.618,17.579,4.618,17.579a11.366,11.366,0,0,0,2.983.385l.893,1.8c.976,2.969-2.873,15.408-.921,16.493h-.082l-.646,2.3h0l-.357.948c-.344.893-.728,1.924-1.127,3.024l-.55,1.567c-.88,2.529-1.759,5.278-2.323,7.587a161.21,161.21,0,0,0-1.8,16.535c0,.564-.1,1.127-.137,1.7-.179,2.282-.357,4.591-.522,6.872l-.124,1.663c-.33,4.371-.6,8.329-.838,11-.137,1.677-.247,2.859-.33,3.326s-.151.852-.261,1.374c-.481,2.515-1.306,6.721-2.172,11.532-.1.536-.206,1.072-.3,1.622l-.577,3.34c-.192,1.127-.371,2.268-.564,3.395l-.124.907c-.137.935-.275,1.952-.4,3.024-.069.577-.137,1.182-.206,1.787-.165,1.567-.316,3.216-.467,4.879-.715,8.247-1.127,16.768-1.127,16.768l.536.082c-.371,2.13-.935,6.02,0,6.336.577.179,3.862,3.079,6.185,3.422a5.7,5.7,0,0,0,5.5-2.35c.357-.907-1.374-4.4-2.117-5.9l1.5.234s6.941-38.279,8.041-44.3c.454-2.543,2.749-11.642,5.333-21.3a3.451,3.451,0,0,0,0,.371c.11.866.22,1.649.33,2.405v19.93a59.1,59.1,0,0,0-1.443,11.49c.11,7.683-.289,23.366-.289,23.366a6.309,6.309,0,0,0,1.732.825v.11a12.261,12.261,0,0,0-.426,2.13,7.683,7.683,0,0,0,.426,2.68v4.233h5.979V245.71h2.048v-1.031a13.283,13.283,0,0,1,1.828.192c2.749.371,3.794,1.965,10.858,1.938,2.062,0,5.7-.124,5.7-.962,0-3.656-6.776-2.364-8.934-4.343a39.13,39.13,0,0,0-6.226-4.742c.467-.3.77-.536.77-.536s2.117-38.65,2.556-42.718c.206-1.91,1.374-12.1,2.282-23.187h15.27a90.177,90.177,0,0,0,4.714,9l1.374-1.374c1.608,2.749,3.148,5.223,4.343,7.12l-.591.44A125.678,125.678,0,0,0,101.5,195.79c-1.814,2.46-2.3,4.343-3.45,4.962a1.072,1.072,0,0,0-.55.728h0a11.423,11.423,0,0,0-1.374,3.024c-.22.756-.454,1.91-.728,3a3.864,3.864,0,0,0-.069.6h0s-.783,5.4.77,8.329c.247.467,2.172,3.354,3.367,3.422s2.9-3.326,3.216-4.838a8.7,8.7,0,0,0-.357-3.78h0c-.137-1.856-.591-5.347-.728-6.419a106.063,106.063,0,0,0,9.278-5.718,33.908,33.908,0,0,0-1.526,4.467c-.852,3.464-2.282,22.074-2.914,24.479h-.261a6.391,6.391,0,0,1-.536,2.268,4.22,4.22,0,0,0-1.2,3.134h0a1.181,1.181,0,0,0,0,.22,4.881,4.881,0,0,0,.344.866,2.061,2.061,0,0,0,.124.247c.3.8.632,1.732.783,2.185a29.37,29.37,0,0,1,.742,4.261h.618s-.811-5.5,2.089-3.821c1.649,1.031,3.958,4.756,5.347,5.086s6.144.261,6.336-.412-2.433-2.666-4-3.752c-5.017-6.171-5.5-9.071-5.5-9.071h-.1c1.828-7.271,9.621-25.469,10.432-27.242s4.453-9.979,4.714-10.817a4.122,4.122,0,0,0,.179-.907,9.237,9.237,0,0,0,.852-2.419c.179-.838,1.374-6.226,2.488-12.576.6-.165.976-.289.976-.289s.206-1.457.467-3.766c1.045,7.669,2.062,14.184,2.062,14.184l1.746.1a.275.275,0,0,1,0,.11c.33,2.941.742,6.295.921,7.422.33,2.062,2.515,22.885,2.089,30.774,0,0-.371,3.106-5.237,9.937-1.581,1.251-4.123,3.7-3.958,4.233s5.25.454,6.694,0,3.629-4.536,5.292-5.731c2.941-1.924,2.474,3.89,2.474,3.89h.646a30.979,30.979,0,0,1,.495-4.536c.124-.495.412-1.5.673-2.364a2.5,2.5,0,0,0,.11-.261,4.509,4.509,0,0,0,.3-.935v-.234h0a4.467,4.467,0,0,0-1.484-3.216,7.531,7.531,0,0,1-.646-2.034c.852-5.333,4.261-20.754,4.439-24.081a40.093,40.093,0,0,0-1.567-12.37h.206l2.831-.165h-.179l3.835-.3a51.764,51.764,0,0,0,.852,7.931c1.374,7.972,6.322,25.977,8.687,34.251a2.668,2.668,0,0,1,0,.275,29.735,29.735,0,0,1-.137,3.148,2.349,2.349,0,0,0,0,.509h0s0,4.453,1.842,6.666c.289.357,2.749,2.749,3.835,2.584s1.649-3.285,1.677-4.618-2.034-6.254-2.034-6.254h0l-.179-.55a5.5,5.5,0,0,0-.247-.687c-.316-.88-.564-1.471-.591-1.526a4.123,4.123,0,0,1-.234-1.251c0-8.247-.1-28.96-.577-31.86a37.262,37.262,0,0,0-3.024-9.388l1.168-.1s-.1-6.625-.289-14.4h41.99v76.722H211.8V163.27h7.532ZM126.9,127.589c.495,2.337,2.364,5.5,5.017,9.1l-.316.893a12.479,12.479,0,0,0-.728,1.512,24.61,24.61,0,0,0-.907,2.749c-1.113-2.144-2.392-4.123-3.656-6.116-2.653-4.027-5.264-7.642-6.144-11a10.083,10.083,0,0,1-.179-1,2.608,2.608,0,0,1,0-.344v-2.24a4.563,4.563,0,0,0,2.405.907,2.749,2.749,0,0,0,2.46-.495,25.482,25.482,0,0,0,2.048,6.034Zm-5.14-16.768V110.7a2.312,2.312,0,0,1,.151-.55v.124A1.563,1.563,0,0,1,121.761,110.821Zm-26.829,8.81h.275c.454,3.106.852,5.8,1.058,7.243.715,4.989-2.941,17.263-1.567,27.049a9.159,9.159,0,0,0,.289,1.718H90.973a.935.935,0,0,0,.179-.66.893.893,0,0,0,.893,0h0a.907.907,0,0,0,.44-.852h0a1.017,1.017,0,0,0-.11-.385v-.11a31.763,31.763,0,0,0-2.172-5.168,40.878,40.878,0,0,0-4.728-3.9l-.564-.99c-.069-1.2-.137-2.268-.192-3.189v-.1h0s-.454-10.638,0-14.913c.344-3.862.385-7.037.522-9.621a12.369,12.369,0,0,0,2.447-.88c3.642,2.721,6.694,4.783,7.243,4.756Z" transform="translate(-42.4 -10.507)" fill="#7397cd"/>
          <g id="Grupo_82101" data-name="Grupo 82101" transform="translate(117.581)">
            <path id="Trazado_131711" data-name="Trazado 131711" d="M134.584,80.881c.715,14.734-1.374,49.233-1.374,49.233l19.627,1.539s-4.893-46.9-4-56.353,2.433-16.15-2.749-18.555S133.856,66.146,134.584,80.881Z" transform="translate(-125.977 -11.794)" fill="#95a1a9"/>
            <path id="Trazado_131712" data-name="Trazado 131712" d="M152,37.324s.4-4.206,4.123-4.123c8.728.179,12.37,5.209,12.645,10.35.3,6.735-4.783,12.6-6.034,21.07-.509,3.477,2.584,6.02,2.268,6.158-1.045.44-17.181,2.556-8.522-20.108C157.951,47.082,152,37.324,152,37.324Z" transform="translate(-118.941 -20.494)" fill="#a13820"/>
            <path id="Trazado_131713" data-name="Trazado 131713" d="M156.4,55c3.01,1.814,2.447,6.79-.99,11.422s-19.641,21.222-21.5,21.3-6.1-2.144-5.429-4.742,10.652-18.9,14.129-22.252S152.488,52.652,156.4,55Z" transform="translate(-127.772 -12.566)" fill="#ffa37b"/>
            <path id="Trazado_131714" data-name="Trazado 131714" d="M154.154,190.45a12.178,12.178,0,0,0,2.158,5.25c.852,1.471.825,4,.137,4.728-1.883,2.007-4.22,1.471-6.542,3.134s-5.608,7.326-7.614,7.944-6.68.728-7.037-.22,4.3-4.838,4.3-4.838c6.735-9.47,7.257-13.745,7.257-13.745S154.154,190.079,154.154,190.45Z" transform="translate(-125.219 38.376)" fill="#ffa37b"/>
            <path id="Trazado_131715" data-name="Trazado 131715" d="M152.18,149.377c5.5,5.4,6.707,19.476,6.4,24.891S151.878,208.08,152.167,210s-7.216.454-7.161-.646c.577-10.9-2.447-39.736-2.886-42.608s-1.965-15.861-1.979-17.139C140.058,143.041,149.019,146.3,152.18,149.377Z" transform="translate(-123.382 21.667)" fill="#ffa37b"/>
            <path id="Trazado_131716" data-name="Trazado 131716" d="M165.435,38.29s-.99,15.806,0,16.617c3.038,2.543,12.04,4.879,14.1,9.305,2.515,5.36-10.844,22.307-13.209,38.98-1.141,8.082,5.855,19.572,7.051,27.379s-23.338,17.277-24.245,17.277-11.477-7.188-12.975-9.731,3.34-25.744,3.34-30.843-1.292-15.38-2.075-16.287-4.013-3.917-4.013-7.216c0-4.811,7.188-11.587,7.491-13.236s-.316-4.027.509-5.085c1.663-2.1,10.212-6.446,10.363-7.5s-.151-14.555-.151-14.555Z" transform="translate(-125.902 -18.588)" fill="#ffbc92"/>
            <path id="Trazado_131717" data-name="Trazado 131717" d="M139.882,205.555s-1.374,1.264-1.072,1.608,2.447.165,2.983-.137a57.85,57.85,0,0,0,12.37-10.46,7.628,7.628,0,0,0,1.374-3.766,6.061,6.061,0,0,1,2.034,4.838,6.212,6.212,0,0,1-.728,1.9,51.212,51.212,0,0,1-5.773,3.931c-2.309,1.663-5.319,7.326-7.326,7.944s-8.92.962-9.278,0C134.123,210.668,137.7,207.287,139.882,205.555Z" transform="translate(-125.515 39.269)" fill="#592210"/>
            <path id="Trazado_131718" data-name="Trazado 131718" d="M164.786,102.572c3.477.44,7.656,19.38,8.137,32.506.66,17.7,2.749,33.179,1.91,34.265s-10.844,2.983-12.37,2.392-12.837-44.093-13.47-46.567S149.708,100.675,164.786,102.572Z" transform="translate(-120.113 5.439)" fill="#ffbc92"/>
            <path id="Trazado_131719" data-name="Trazado 131719" d="M153.048,196s-1.2,3.986-1.539,5.319a43.139,43.139,0,0,0-.674,6.281h-.866s.66-8.054-3.409-5.388C145.254,203.106,153.048,196,153.048,196Z" transform="translate(-121.033 40.468)" fill="#592210"/>
            <path id="Trazado_131720" data-name="Trazado 131720" d="M157.339,102.546c3.326,1.113,4.123,20.617,1.649,33.468-2.337,12.26-3.917,29.056-4.962,29.949s-10.2,2.158-11.655,1.264-7.01-51.212-7.161-53.769S142.921,97.735,157.339,102.546Z" transform="translate(-125.229 5.081)" fill="#ffa37b"/>
            <path id="Trazado_131721" data-name="Trazado 131721" d="M163.686,147.857c-4.948.962-6.213,4.412-3.766,18.94,1.842,11,8.742,35.956,12.013,47.419,1.045,3.642.673,6.089,1.017,6.089,1.374,0,5.622-.11,6.034-3.367.1-.715-1.512-3.12-1.526-5.085,0-11.353-.11-40.079-.783-44.106C175.891,163.031,171.6,146.331,163.686,147.857Z" transform="translate(-116.429 22.403)" fill="#ffbc92"/>
            <path id="Trazado_131722" data-name="Trazado 131722" d="M136.855,97s-1.952,5.223-1.636,18.143,10.927,110.245,10.927,110.245a25.511,25.511,0,0,0,7.188.151,11.7,11.7,0,0,0,4.536-1.663s3.271-29.8,3.01-36.162c-.44-11-5.127-18.624-4.921-19.559s5.415-37.55,5.415-37.55L150.05,97.742Z" transform="translate(-125.238 3.396)" fill="#4dd0e1"/>
            <path id="Trazado_131723" data-name="Trazado 131723" d="M143.05,98.855s.838,6.872,1.374,11.216,17.236,62.551,18.322,65.7,13.126,56.9,13.511,57.521,7.367,0,8.6-.687-1.017-40.7-2.02-47.46a42.924,42.924,0,0,0-4.769-13.263s-2.35-36.506-3.34-46.622c-2.117-21.373-8.123-30.238-8.123-30.238Z" transform="translate(-122.292 2.655)" fill="#71d9e7"/>
            <path id="Trazado_131724" data-name="Trazado 131724" d="M146.74,48.273v1.374l9.181,4.646a6.116,6.116,0,0,0,4.962.261l.33-.124s-.577-3.477-.852-6.721a33.937,33.937,0,0,1,.192-7.01Z" transform="translate(-120.911 -17.685)" fill="#ffa37b"/>
            <path id="Trazado_131725" data-name="Trazado 131725" d="M175.643,198.43s2.859,6.872,2.818,8.659-.907,6.185-2.309,6.391-4.921-3.079-5.319-3.574c-2.474-3.065-2.543-9.223-2.543-9.223Z" transform="translate(-112.841 41.378)" fill="#592210"/>
            <path id="Trazado_131726" data-name="Trazado 131726" d="M174.191,195.62a40.972,40.972,0,0,1,2.749,9.291c.11.948-.577,4.8-1.924,4.838-3.78.1-6.872-6.446-6.735-8.728s.22-4.769.22-4.769Z" transform="translate(-112.846 40.325)" fill="#ffbc92"/>
            <path id="Trazado_131727" data-name="Trazado 131727" d="M170.334,109.8c-2.268-5.718-4.123-10.913-3.793-13.909.728-5.525,6.226-16.329,6.226-16.329l4.962-24.094-10.253,2.213-20.754-2.048-9.14,13.209s-4.22,4.852-4.33,8.247,2.419,5.36,3.89,7.01,2.556,12.989,2.3,18.459a63.223,63.223,0,0,1-1.856,9.992C149.071,114.544,160.4,114.517,170.334,109.8Z" transform="translate(-125.963 -12.155)" fill="#0274a0"/>
            <path id="Trazado_131728" data-name="Trazado 131728" d="M138.86,64.723V58.511l9.058-4.811Z" transform="translate(-123.861 -12.817)" fill="#121212"/>
            <path id="Trazado_131729" data-name="Trazado 131729" d="M165.052,98.534c.22-3.257,9.937-25.427,9.937-25.427l2.543-17.772-7.395-2.515-9.25,17.016s-3.519,17.593-7.793,18.486-15.325,2.46-15.683,4.879,19.449,12.6,21.428,15.476a31.917,31.917,0,0,1,2.2,4.824,39.858,39.858,0,0,0,7.711-2.749C166.6,105.64,164.887,101.173,165.052,98.534Z" transform="translate(-124.406 -13.147)" fill="#0b3360"/>
            <path id="Trazado_131730" data-name="Trazado 131730" d="M166.365,42.6c-1.952,9.044-11.284,14.707-15.9,13.745s-8.975-9.621-7.876-18.981S150.394,23.5,157.225,25,168.3,33.574,166.365,42.6Z" transform="translate(-122.53 -23.671)" fill="#ffbc92"/>
            <path id="Trazado_131731" data-name="Trazado 131731" d="M148.293,31.164c.852,2.611,3.3,4.288,8.824,5.044,3.958.536,6.226,6.185,6.061,8.357a38.835,38.835,0,0,1-1.237,4.811,14.1,14.1,0,0,0,1.9-18.679c-7.078-10.913-16.755-5.5-16.878-4.659a23.034,23.034,0,0,0,1.333,5.127Z" transform="translate(-120.828 -23.955)" fill="#a13820"/>
            <path id="Trazado_131732" data-name="Trazado 131732" d="M152.4,28.677s-.192,3.821-3.491,4.412a18.033,18.033,0,0,0-6.584,3.134s-.137-9.1,6.364-10.666S152.4,28.677,152.4,28.677Z" transform="translate(-122.562 -23.476)" fill="#a13820"/>
            <path id="Trazado_131733" data-name="Trazado 131733" d="M128.02,78.347c.509,3.574,8.494,8.247,14.679,9.882s25.18,4.646,25.18,4.646l1.553-5.676s-31.186-12.26-32.9-12.81S127.126,72.189,128.02,78.347Z" transform="translate(-127.948 -5.302)" fill="#ffa37b"/>
            <path id="Trazado_131734" data-name="Trazado 131734" d="M154.416,53.94s-1.1,17.332-.344,32.094,1.21,49.6,1.21,49.6l18.775-6.776s-4.866-46.951-4.027-56.38,2.433-16.15-2.749-18.541S154.416,53.94,154.416,53.94Z" transform="translate(-118.264 -13.126)" fill="#95a1a9"/>
            <path id="Trazado_131735" data-name="Trazado 131735" d="M171.07,55.6c3.477.44,4.976,5.209,3.711,10.831s-14.047,33.234-15.724,34.059-6.432.509-6.872-2.13,6.762-27.489,8.6-31.915S166.521,55.035,171.07,55.6Z" transform="translate(-118.879 -12.119)" fill="#ffbc92"/>
            <path id="Trazado_131736" data-name="Trazado 131736" d="M163.972,48.37c.825.11,1.471,2.323,2.584,2.474s3.271,1.306,3.12,1.718,1.649,1.374,1.374,2.5-11,23.16-27.159,22.307c-9.113-.495-5.168-13.566-.687-21.4,3.519-6.13,7.051-7.491,7.051-7.491s-1.374,5.237,1.979,6.171C158.914,56.521,163.972,48.37,163.972,48.37Z" transform="translate(-124.041 -14.813)" fill="#ff8511"/>
            <path id="Trazado_131737" data-name="Trazado 131737" d="M162.285,58.643s2.639-5.2,7.972-4.123c2.749.564,5.841,3.175,4.536,9.965s-5.938,14.624-5.938,14.624L155.33,72.168S158.6,63.371,162.285,58.643Z" transform="translate(-117.694 -12.565)" fill="#0274a0"/>
            <path id="Trazado_131738" data-name="Trazado 131738" d="M158.568,99.47c-3.409-.33-8.247-7.7-10.02-13.5s-5.5-23.737-5.5-23.737l5.319-1.746s12.989,29.056,13.593,30.678S164.45,100.019,158.568,99.47Z" transform="translate(-122.292 -10.275)" fill="#ffbc92"/>
            <path id="Trazado_131739" data-name="Trazado 131739" d="M148.662,65.813a4.481,4.481,0,0,1,1.127-4.275,7.175,7.175,0,0,0,1.292-5.677,31.724,31.724,0,0,0-.674-4.041c-.632-.687-.962.4-1.127.192s-.811-.99-1.374-.261-.673.454-1,.385-.866.495-.921.921-.591.289-.852.728a2.652,2.652,0,0,0-.192,1.622A5.25,5.25,0,0,1,144,59.45c-1,1.594-2.474,4.247-.371,6.46S148.662,65.813,148.662,65.813Z" transform="translate(-122.476 -13.66)" fill="#ffbc92"/>
            <g id="Grupo_82098" data-name="Grupo 82098" transform="translate(18.121 29.025)">
              <path id="Trazado_131740" data-name="Trazado 131740" d="M147.7,46.677l.66-1.278a.591.591,0,0,1,.8-.261h0a.591.591,0,0,1,.247.8l-.646,1.278a.577.577,0,0,1-.8.261h0a.591.591,0,0,1-.261-.8Z" transform="translate(-138.697 -45.073)" fill="#86a3a1"/>
              <path id="Trazado_131741" data-name="Trazado 131741" d="M141.308,66.011h0c-.509-.247.22-2.749.467-3.312l7.876-16.191a1.045,1.045,0,0,1,1.374-.481h0a1.058,1.058,0,0,1,.481,1.374l-7.807,16.2C143.4,64.114,141.83,66.272,141.308,66.011Z" transform="translate(-141.132 -44.752)" fill="#415b60"/>
              <rect id="Rectángulo_35337" data-name="Rectángulo 35337" width="2.254" height="1.058" transform="translate(7.945 2.633) rotate(24.5)" fill="#86a3a1"/>
              <path id="Trazado_131742" data-name="Trazado 131742" d="M145.893,53.049h0a.33.33,0,0,1-.165-.44l2.543-5.429a.33.33,0,0,1,.44-.151h0a.316.316,0,0,1,.165.44l-2.543,5.415a.33.33,0,0,1-.44.165Z" transform="translate(-139.422 -44.353)" fill="#c1d9d7"/>
            </g>
            <path id="Trazado_131743" data-name="Trazado 131743" d="M146.675,65.484a23.05,23.05,0,0,0,2.254-4.4c.1-.275.426-.646.522-.921s.1-.687.192-.907.261-.344.33-.536,0-.7.069-.948a5.266,5.266,0,0,1,.426-.783c.357-.756-.192-.962-.1-1.21a4.728,4.728,0,0,0,.33-1.141,11.284,11.284,0,0,0-2.075-3.89c-.4-.344-2.2-2.831-2.488-2.749s-.811,1.21,0,2.749a12.275,12.275,0,0,1,1.374,3.024,14.9,14.9,0,0,0-2.886-1.581c-.522-.179-.825.33-.88.783s.893,1.512.893,1.512-1.086.275-1.141.509c-.165.8.811,1.5,1.045,1.828s-1.072.124-1.113.481c-.137,1.374,2.9,2.529,2.2,3.67C145.328,61.553,145.039,64.494,146.675,65.484Z" transform="translate(-122.151 -14.952)" fill="#ffbc92"/>
            <g id="Grupo_82100" data-name="Grupo 82100" transform="translate(19.328 16.417)">
              <rect id="Rectángulo_35338" data-name="Rectángulo 35338" width="6.432" height="3.862" rx="0.42" transform="translate(0.907 0.385)" fill="#dde4e7"/>
              <rect id="Rectángulo_35339" data-name="Rectángulo 35339" width="6.487" height="3.862" rx="0.43" transform="translate(10.075 0.192)" fill="#dde4e7"/>
              <path id="Trazado_131744" data-name="Trazado 131744" d="M142.986,39.63l5.814-3.065-1.017-.385h-4.22l-.77.7s-.124,1.828-.124,1.924a7.01,7.01,0,0,0,.316.825Z" transform="translate(-141.763 -35.795)" fill="#fff"/>
              <path id="Trazado_131745" data-name="Trazado 131745" d="M149.6,39.5l5.828-3.065L154.4,36.05h-4.22l-.77.715s-.11,1.828-.11,1.91a7.531,7.531,0,0,0,.3.825Z" transform="translate(-139.28 -35.844)" fill="#fff"/>
              <g id="Grupo_82099" data-name="Grupo 82099">
                <path id="Trazado_131746" data-name="Trazado 131746" d="M149.808,37.253a1.649,1.649,0,0,0-2.268,0v.44a1.677,1.677,0,0,1,2.268,0Z" transform="translate(-139.939 -35.562)" fill="#10383e"/>
                <rect id="Rectángulo_35340" data-name="Rectángulo 35340" width="0.935" height="0.605" transform="translate(0 1.704)" fill="#10383e"/>
                <rect id="Rectángulo_35341" data-name="Rectángulo 35341" width="1.677" height="0.605" transform="translate(16.631 1.539)" fill="#10383e"/>
                <path id="Trazado_131747" data-name="Trazado 131747" d="M154.509,35.9H150.7a1.526,1.526,0,0,0-1.512,1.526v1.21a1.526,1.526,0,0,0,1.512,1.526h3.807a1.526,1.526,0,0,0,1.526-1.526V37.412a1.526,1.526,0,0,0-1.526-1.512Zm1.2,2.639a1.374,1.374,0,0,1-1.374,1.278h-3.436a1.374,1.374,0,0,1-1.374-1.278V37.522a1.374,1.374,0,0,1,1.374-1.278h3.436a1.374,1.374,0,0,1,1.374,1.278Z" transform="translate(-139.321 -35.9)" fill="#10383e"/>
                <path id="Trazado_131748" data-name="Trazado 131748" d="M147.883,36.05h-3.807a1.526,1.526,0,0,0-1.526,1.526V38.73a1.526,1.526,0,0,0,1.526,1.526h3.807a1.526,1.526,0,0,0,1.526-1.526v-1.2A1.526,1.526,0,0,0,147.883,36.05Zm1.2,2.68a1.374,1.374,0,0,1-1.374,1.278h-3.45a1.374,1.374,0,0,1-1.374-1.278v-1a1.374,1.374,0,0,1,1.374-1.292h3.45a1.374,1.374,0,0,1,1.374,1.292Z" transform="translate(-141.808 -35.844)" fill="#10383e"/>
              </g>
              <path id="Trazado_131749" data-name="Trazado 131749" d="M159.628,36.771l-4.288,1.141v-.577l4.288-1.155Z" transform="translate(-137.018 -35.795)" fill="#10383e"/>
            </g>
          </g>
        </g>
      </g>
    </g>
  </g>
</svg>
