<svg id="Capa_1" data-name="Capa 1" xmlns="http://www.w3.org/2000/svg" xmlns:xlink="http://www.w3.org/1999/xlink" width="400" height="400" viewBox="0 0 400 400">
  <defs>
    <clipPath id="clip-path">
      <rect id="Rect치ngulo_35723" data-name="Rect치ngulo 35723" width="400" height="400" rx="18.98" fill="none"/>
    </clipPath>
  </defs>
  <rect id="Rect치ngulo_35722" data-name="Rect치ngulo 35722" width="400" height="400" rx="18.98" fill="#ffecb1"/>
  <g id="Grupo_82636" data-name="Grupo 82636" clip-path="url(#clip-path)">
    <g id="Grupo_82635" data-name="Grupo 82635" transform="translate(38.904 169.222)">
      <path id="Trazado_133926" data-name="Trazado 133926" d="M397.857,324.9a4.775,4.775,0,0,1-3.99-1.617c-1.133-1.627.339-3.37,1.656-4.3,1.569-1.085,3.545-.765,5.3-1.346a13.685,13.685,0,0,0,8.165-8.2A25.24,25.24,0,0,0,410.341,297c-.358-2.847-3.128-9.346-6.886-5.889-3.138,2.906.455,7.981,2.441,10.46,2.344,2.906,5.627,5.53,9.559,5.356,4.3-.184,7.748-3.148,10.4-6.324.785-.969,4.668-7.545,6-6.944,1.143.5-.213,4.1-.436,4.843a25.531,25.531,0,0,1-3.768,7.351c-2.741,3.68-7.148,6.867-11.864,7.186-5.414.358-10.121-1.937-13.9-5.724-3.622-3.661-7.041-8.862-6.78-14.228A10.78,10.78,0,0,1,405.412,283c5.182-.058,9.346,3.874,11.041,8.533,3.632,9.908.571,23.9-8.32,30.024a18.305,18.305,0,0,1-10.276,3.341Z" transform="translate(-51.289 -178.13)" fill="#ea8879"/>
      <path id="Trazado_133927" data-name="Trazado 133927" d="M263,396.1c29.889,35.622,29.346,81.191,23.448,114.944-.232.969-.63,4.174-.63,4.174l18.228,1.743a21.579,21.579,0,0,1,.436-4.252c4.339-34.7,18.877-70.063,21.191-104.368C319.552,408.158,269.063,396.226,263,396.1Z" transform="translate(-47.183 -181.69)" fill="#e0665a"/>
      <path id="Trazado_133928" data-name="Trazado 133928" d="M114.16,398.28c29.869,35.632,29.356,81.2,23.448,114.983-.223.969-.63,4.174-.63,4.174l18.228,1.743a21.171,21.171,0,0,1,.446-4.252c4.339-34.712,18.867-70.063,21.191-104.368C170.751,410.348,120.252,398.416,114.16,398.28Z" transform="translate(-42.498 -181.759)" fill="#e0665a"/>
      <path id="Trazado_133929" data-name="Trazado 133929" d="M109.881,248.147c6.683-3.109,13.559-6.334,18.6-11.7s7.913-13.472,5.094-20.281a18.867,18.867,0,0,0-6.78-8.01c-9.123-6.4-21.143-6.5-32.271-5.811s-20.833,2.518-29.356-.891C55,197.377,69.1,220.1,75.672,228.224c4.387,5.414,8.843,10.906,14.528,14.925S103.072,249.619,109.881,248.147Z" transform="translate(-40.843 -175.548)" fill="#e0665a"/>
      <path id="Trazado_133930" data-name="Trazado 133930" d="M292.545,238.681c-22.973-8.2-72.523-17.569-94.14-19.913-16.271-1.763-32.833-2.615-48.91.426s-31.777,10.315-42.547,22.634c-8.116,9.3-12.8,20.571-15.041,32.63-10.77,11.283-27.061,10.964-37.772,24.775-7.38,9.511-23.419,11.506,10.208,55.429-17.821,14.431-2.625,22.5,7.08,22.47s20.533,8.668,23.632,13.9C156.72,495.059,346.628,458.342,363.6,441s26.528-29.646,29.637-57.588C396.594,353.1,407.906,279.882,292.545,238.681Z" transform="translate(-40.282 -176.058)" fill="#ea8879"/>
      <path id="Trazado_133931" data-name="Trazado 133931" d="M61.5,292.393c-6.78,1.114-10.925,6.237-14.838,11.855s-7.525,11.622-6.218,18.4a13.559,13.559,0,0,0,3.167,6.906,14.827,14.827,0,0,0,6.3,3.545c8.242,2.693,17.123,2.47,25.782,2.218,4.407-.136,9.249-.436,12.4-3.516a13.559,13.559,0,0,0,3.37-6.9c1.86-8.475-3.748-15.584-9.6-22S70.03,291.037,61.5,292.393Z" transform="translate(-40.169 -178.419)" fill="#fcc0bb"/>
      <g id="Grupo_82633" data-name="Grupo 82633" transform="translate(44.105 76.226)">
        <path id="Trazado_133932" data-name="Trazado 133932" d="M174.8,265.986a7.99,7.99,0,0,0-3.729,2.722A12.891,12.891,0,0,0,169.046,274c-.581,2.838-.852,6.044.862,8.368,1.424,1.937,3.874,2.76,6.237,3.2,3.08.571,6.7.465,8.717-1.937,1.414-1.646,1.676-3.961,1.743-6.121a14.974,14.974,0,0,0-1.172-7.3A8.988,8.988,0,0,0,174.8,265.986Z" transform="translate(-88.316 -253.807)" fill="#fff"/>
        <path id="Trazado_133933" data-name="Trazado 133933" d="M179.153,272.938a3.128,3.128,0,0,0-1.84,1.153,4.843,4.843,0,0,0-.707,2.228,7.361,7.361,0,0,0,.136,3.283,4.116,4.116,0,0,0,5.743,2.363,5.908,5.908,0,0,0,1.734-5.937,4.533,4.533,0,0,0-5.065-3.09Z" transform="translate(-88.564 -254.038)"/>
        <path id="Trazado_133934" data-name="Trazado 133934" d="M93.545,253.982a10.16,10.16,0,0,0-4.726,3.429,16.465,16.465,0,0,0-2.547,6.693c-.736,3.574-1.085,7.632,1.094,10.576,1.792,2.431,4.9,3.487,7.874,4.039,3.874.726,8.475.581,11.041-2.421,1.782-2.073,2.111-5,2.2-7.748.107-3.148,0-6.421-1.472-9.22a11.351,11.351,0,0,0-13.462-5.346Z" transform="translate(-85.707 -253.426)" fill="#ea8879"/>
        <path id="Trazado_133935" data-name="Trazado 133935" d="M94.358,256.616a8.078,8.078,0,0,0-3.739,2.722,13.016,13.016,0,0,0-2.015,5.288c-.581,2.838-.862,6.044.862,8.368,1.424,1.937,3.874,2.76,6.237,3.2,3.07.571,6.7.465,8.717-1.937,1.4-1.647,1.676-3.961,1.743-6.121a15.09,15.09,0,0,0-1.172-7.3A8.988,8.988,0,0,0,94.358,256.616Z" transform="translate(-85.784 -253.512)" fill="#fff"/>
        <path id="Trazado_133936" data-name="Trazado 133936" d="M98.683,263.618a3.109,3.109,0,0,0-1.831,1.153A4.688,4.688,0,0,0,96.146,267a7.215,7.215,0,0,0,.136,3.283,4.116,4.116,0,0,0,5.743,2.363,5.927,5.927,0,0,0,1.734-5.937,4.552,4.552,0,0,0-5.075-3.09Z" transform="translate(-86.032 -253.745)"/>
      </g>
      <path id="Trazado_133937" data-name="Trazado 133937" d="M83.32,323.307c-.969-5.269-3.932-9.9-6.867-14.363a9.763,9.763,0,0,0-2.76-3.128c-1.182-.755-4.213-1.937-3.874,0s3.68,14.344,7.99,20.291c.833,1.153,2,2.383,3.4,2.208a2.77,2.77,0,0,0,2.131-1.937A6.334,6.334,0,0,0,83.32,323.307Z" transform="translate(-41.101 -178.815)" fill="#e0665a"/>
      <path id="Trazado_133938" data-name="Trazado 133938" d="M58.55,308.716c.31-1.153.571-2.518-.213-3.419a2.489,2.489,0,0,0-2.751-.475,6.78,6.78,0,0,0-2.334,1.811,31.536,31.536,0,0,0-5.956,8.291c-1.414,3.109-4.4,9.191-1.114,9.985s6.654-3,8.562-6.073S57.581,312.213,58.55,308.716Z" transform="translate(-40.311 -178.81)" fill="#e0665a"/>
      <g id="Grupo_82634" data-name="Grupo 82634" transform="translate(199.382 58.061)">
        <path id="Trazado_133939" data-name="Trazado 133939" d="M303.972,308.023c3.777,2.1,8.31,4.242,12.726,4.184,2.237,0,2.305-1.937,1.55-4.01a12.155,12.155,0,0,0-3.419-5.182c-2.712-1.937-5.579-4.145-8.92-4.891-3.157-.63-6.586.717-6.78,3.467-.194,2.538,2.16,4.891,4.843,6.431C305.193,308.7,301.27,306.483,303.972,308.023Z" transform="translate(-247.701 -236.663)" fill="#fcad9a"/>
        <path id="Trazado_133940" data-name="Trazado 133940" d="M372.5,363.553c3.777,2.111,8.31,4.242,12.726,4.184,2.237,0,2.305-1.937,1.54-4.01a12.165,12.165,0,0,0-3.409-5.172c-2.712-1.937-5.579-4.155-8.92-4.9-3.157-.63-6.586.726-6.78,3.477-.194,2.538,2.16,4.843,4.843,6.421C373.723,364.231,369.8,362.013,372.5,363.553Z" transform="translate(-249.858 -238.411)" fill="#fcad9a"/>
        <path id="Trazado_133941" data-name="Trazado 133941" d="M306.152,287.311a7.012,7.012,0,0,0-1.424-3.6,13.114,13.114,0,0,0-3.119-3.041,15.06,15.06,0,0,0-2.828-1.6,8.62,8.62,0,0,0-3.07-.61,8.718,8.718,0,0,0-3.235.358c-.9.387-1.366,1.133-.794,2.605.969,2.605,10.082,8.891,13.007,8.31a2.121,2.121,0,0,0,1.462-2.421C306.074,286.052,306.21,288.377,306.152,287.311Z" transform="translate(-247.459 -236.048)" fill="#fcad9a"/>
        <path id="Trazado_133942" data-name="Trazado 133942" d="M292.515,292.494c-.6-1.579-2.363-2.5-3.99-3.148a9.1,9.1,0,0,0-4.513-.668,4.988,4.988,0,0,0-2.518,2.073,4.165,4.165,0,0,0-.668,3.671,3.187,3.187,0,0,0,.794,1.317,3.137,3.137,0,0,0,1.046.6,18.565,18.565,0,0,0,5.017,1.123,5.724,5.724,0,0,0,2.644-.523,3.632,3.632,0,0,0,2.189-4.445C291.914,290.925,293.193,294.3,292.515,292.494Z" transform="translate(-247.12 -236.369)" fill="#fcad9a"/>
        <path id="Trazado_133943" data-name="Trazado 133943" d="M366.573,288.893a4.31,4.31,0,0,0-1.84-1.637,13.966,13.966,0,0,0-7.177-1.656,5.53,5.53,0,0,0-2.964,1.734,3.322,3.322,0,0,0-.969,3.622,4.155,4.155,0,0,0,2.5,2.354c.969.4,2.121.407,3.138.755a7.216,7.216,0,0,0,6-.387A3.593,3.593,0,0,0,366.573,288.893Z" transform="translate(-249.411 -236.273)" fill="#fcad9a"/>
        <path id="Trazado_133944" data-name="Trazado 133944" d="M295.807,266.18c1.753-.92,1.7-3.177.232-4.843a9.152,9.152,0,0,0-2.838-2.15c-3.5-1.685-7.516-2.228-11.322-2.722-2.654-.4-5.714.107-7.022.969s-.91,2.179,2.906,3.613c4.61,1.443,9.143,4.145,13.792,5.249a6.005,6.005,0,0,0,4.232-.107C297.56,265.26,294.664,266.771,295.807,266.18Z" transform="translate(-246.916 -235.352)" fill="#fcad9a"/>
        <path id="Trazado_133945" data-name="Trazado 133945" d="M255.3,269.62a51.14,51.14,0,0,0,12.436,3.874c2.218.426,2.838-.8,2.6-2.46a9.53,9.53,0,0,0-2.547-4.843c-2.324-2.354-6.082-3.555-9.685-4.242a18.235,18.235,0,0,0-4.4-.291,4.629,4.629,0,0,0-3.264,1.54c-.852,1.172-.358,2.741.707,3.874a15,15,0,0,0,4.184,2.576C259.279,271.3,254.523,269.272,255.3,269.62Z" transform="translate(-246.155 -235.519)" fill="#fcad9a"/>
        <path id="Trazado_133946" data-name="Trazado 133946" d="M329.831,341.464a39.886,39.886,0,0,0,8.891,4.843c1.627.659,2.286-.194,2.344-1.492a7.312,7.312,0,0,0-1.22-4.087c-1.414-2.14-4.1-3.622-6.78-4.678a13.946,13.946,0,0,0-3.312-.872,3.584,3.584,0,0,0-2.712.678,2.363,2.363,0,0,0,0,3.041,11.477,11.477,0,0,0,2.8,2.586C332.611,343.334,329.289,341.087,329.831,341.464Z" transform="translate(-248.563 -237.833)" fill="#fcad9a"/>
        <path id="Trazado_133947" data-name="Trazado 133947" d="M330.93,271.393a29.211,29.211,0,0,0,11.119,4.513c1.937.281,2.286-.969,1.937-2.47a11.729,11.729,0,0,0-2.479-4.533,19.7,19.7,0,0,0-11.845-5.356,3.293,3.293,0,0,0-2.906.881c-.794.969-.455,2.557.475,3.874a12.959,12.959,0,0,0,3.671,3.138C334.465,273.669,329.535,270.522,330.93,271.393Z" transform="translate(-248.557 -235.578)" fill="#fcad9a"/>
        <path id="Trazado_133948" data-name="Trazado 133948" d="M259.87,234.893c-4.107-.387-8.717-.513-12.387,1.734-1.4.872-2.14,1.937-.571,2.673,4.048,1.84,9.2,2.015,13.511,2.964s9.182,3.041,13.482,2.76c3.448-.165,2.353-2.615,1.1-4.426a9.869,9.869,0,0,0-2.7-2.392c-3.69-2.354-8.174-2.906-12.436-3.312Z" transform="translate(-246.03 -234.67)" fill="#fcad9a"/>
        <path id="Trazado_133949" data-name="Trazado 133949" d="M304.775,317.152c-3.167-.62-8.281-1.559-11.341-.1a4.746,4.746,0,0,0-1.937,2.528c-.32,1.143,0,2.247,2.082,2.518,6.131.891,13.385,4.426,19.516,3.874,3.8-.232,1.8-3.535-.155-5.375-2.111-2.082-5.385-2.983-8.194-3.477C302.354,316.677,305.54,317.287,304.775,317.152Z" transform="translate(-247.458 -237.239)" fill="#fcad9a"/>
        <path id="Trazado_133950" data-name="Trazado 133950" d="M334.1,282.2c-2.2-.843-6.15-2.751-8.552-2.034-.969.291-4.116,3.525-.969,5.056,4.426,2.131,10.412,6.78,15.554,6.373,3.1-.358,1.337-3.651-.058-5.492a13.7,13.7,0,0,0-5.966-3.874C332.314,281.511,336.372,283.051,334.1,282.2Z" transform="translate(-248.46 -236.097)" fill="#fcad9a"/>
        <path id="Trazado_133951" data-name="Trazado 133951" d="M350.972,337.343c3.777,2.111,8.31,4.242,12.726,4.184,2.237,0,2.305-1.937,1.54-4.01a12.077,12.077,0,0,0-3.409-5.172c-2.712-1.937-5.579-4.155-8.92-4.9-3.157-.63-6.586.726-6.78,3.477-.194,2.538,2.16,4.843,4.843,6.421C352.193,338.021,348.27,335.8,350.972,337.343Z" transform="translate(-249.181 -237.586)" fill="#fcad9a"/>
        <path id="Trazado_133952" data-name="Trazado 133952" d="M353.152,316.641a7.042,7.042,0,0,0-1.424-3.613,13.113,13.113,0,0,0-3.119-3.041,15.961,15.961,0,0,0-2.838-1.6,8.31,8.31,0,0,0-3.061-.6,8.717,8.717,0,0,0-3.235.349c-.9.387-1.366,1.143-.794,2.605.969,2.605,10.082,8.891,13.007,8.32a2.131,2.131,0,0,0,1.462-2.421C353.074,315.373,353.21,317.678,353.152,316.641Z" transform="translate(-248.939 -236.971)" fill="#fcad9a"/>
        <path id="Trazado_133953" data-name="Trazado 133953" d="M339.515,321.874c-.6-1.588-2.363-2.508-3.99-3.148a8.987,8.987,0,0,0-4.513-.668,4.91,4.91,0,0,0-2.518,2.063,4.184,4.184,0,0,0-.668,3.68,3.08,3.08,0,0,0,.794,1.307,3.235,3.235,0,0,0,1.046.61,19.237,19.237,0,0,0,5.017,1.123,5.976,5.976,0,0,0,2.644-.523,3.642,3.642,0,0,0,2.189-4.446Z" transform="translate(-248.6 -237.293)" fill="#fcad9a"/>
        <path id="Trazado_133954" data-name="Trazado 133954" d="M359.573,356.893a4.368,4.368,0,0,0-1.84-1.637,13.966,13.966,0,0,0-7.177-1.656,5.5,5.5,0,0,0-2.964,1.734,3.322,3.322,0,0,0-.968,3.622,4.155,4.155,0,0,0,2.5,2.354c.969.4,2.111.407,3.138.755a7.215,7.215,0,0,0,6-.387,3.593,3.593,0,0,0,1.308-4.785C359.147,356.108,360.542,358.471,359.573,356.893Z" transform="translate(-249.191 -238.414)" fill="#fcad9a"/>
        <path id="Trazado_133955" data-name="Trazado 133955" d="M280.3,306.493a4.271,4.271,0,0,0-1.831-1.637A13.889,13.889,0,0,0,271.3,303.2a5.521,5.521,0,0,0-2.973,1.734,3.312,3.312,0,0,0-.969,3.622,4.136,4.136,0,0,0,2.5,2.354c.969.4,2.111.407,3.138.755a7.215,7.215,0,0,0,6-.387,3.6,3.6,0,0,0,1.278-4.785Z" transform="translate(-246.695 -236.827)" fill="#fcad9a"/>
        <path id="Trazado_133956" data-name="Trazado 133956" d="M383.351,339.744a29.318,29.318,0,0,0,11.138,4.542c1.937.281,2.286-.969,1.937-2.47a11.728,11.728,0,0,0-2.479-4.533,19.564,19.564,0,0,0-11.845-5.356,3.322,3.322,0,0,0-2.906.881c-.794.969-.446,2.557.475,3.874a13.231,13.231,0,0,0,3.68,3.06Z" transform="translate(-250.208 -237.73)" fill="#fcad9a"/>
        <path id="Trazado_133957" data-name="Trazado 133957" d="M381.1,311.519c-2.2-.843-6.15-2.751-8.552-2.034-.969.291-4.116,3.525-.969,5.056,4.426,2.131,10.412,6.78,15.554,6.383,3.1-.368,1.337-3.661-.058-5.5a13.869,13.869,0,0,0-5.966-3.874C379.314,310.831,383.372,312.381,381.1,311.519Z" transform="translate(-249.939 -237.02)" fill="#fcad9a"/>
        <path id="Trazado_133958" data-name="Trazado 133958" d="M270.635,285.733a2.673,2.673,0,0,0-1.114-2.237c-2.634-2.3-8.717-3.738-12.087-3.012-3.148.591-3.777,4.717-.339,4.475,3.8-.252,6.431,3.235,10.266,3.1,1.5-.048,3.138-.891,3.283-2.324C270.712,284.852,270.489,287.167,270.635,285.733Z" transform="translate(-246.306 -236.106)" fill="#fcad9a"/>
        <path id="Trazado_133959" data-name="Trazado 133959" d="M320.071,258.238a4.145,4.145,0,0,0-1.889-2.518,29.743,29.743,0,0,0-15.574-4.92c-2,0-3.09,1.133-3.119,2.247s1.017,2.237,3.322,2.46c5.007.562,8.717,4.639,13.782,5.007,1.879.136,3.68-.736,3.477-2.276C319.945,257.308,320.323,259.778,320.071,258.238Z" transform="translate(-247.713 -235.178)" fill="#fcad9a"/>
      </g>
      <path id="Trazado_133960" data-name="Trazado 133960" d="M105.417,358.707a99.969,99.969,0,0,0,12.281,2.257,32.017,32.017,0,0,0,3.206.262c1.056.048,2.179.145,3.177.145,2.034,0,4.087.058,6.14,0a84.518,84.518,0,0,0,12.387-.9,44.708,44.708,0,0,0,11.826-3.448,29.619,29.619,0,0,0,2.692-1.414,23.512,23.512,0,0,0,2.538-1.617,32.706,32.706,0,0,0,4.416-3.738,33.811,33.811,0,0,0,6.228-8.562,35.671,35.671,0,0,0,3.157-8.629,29.307,29.307,0,0,0,0-13.172c-.2-.755-.378-1.424-.591-1.985a14.744,14.744,0,0,0-.659-1.385c-.4-.726-.726-1.065-.969-.969s-.4.533-.446,1.327v3.37a38.091,38.091,0,0,1-1.831,11.622,35.09,35.09,0,0,1-3.322,7.225,30.712,30.712,0,0,1-5.656,6.944,27.974,27.974,0,0,1-3.758,2.906,19,19,0,0,1-2.1,1.24c-.7.416-1.482.736-2.247,1.094a40.463,40.463,0,0,1-10.228,2.693,84.571,84.571,0,0,1-11.448.649c-1.937,0-3.961,0-5.985-.1-1.036,0-1.937-.1-2.906-.145a28.42,28.42,0,0,1-2.906-.242c-7.613-.823-15.293-3.361-23.245-4.61-1.937-.378-3.961-.533-5.908-.775-.969-.068-1.937-.107-2.906-.155a28.78,28.78,0,0,0-2.906-.068,55.476,55.476,0,0,0-5.588.252l-2.7.262a11.769,11.769,0,0,0-1.308.174l-1.288.223a94.668,94.668,0,0,0-9.492,2.063l-2.373.746c1.278,1.763,2.644,3.584,4.107,5.5,2.731-.61,5.646-1.375,8.785-1.772a61.985,61.985,0,0,1,20.455.291C97.794,356.867,101.494,357.8,105.417,358.707Z" transform="translate(-40.815 -179.154)" fill="#d3433c"/>
      <path id="Trazado_133961" data-name="Trazado 133961" d="M219.639,238.265c-7.37.31-14.944.581-21.889-1.879s-13.2-8.349-13.821-15.7a18.877,18.877,0,0,1,2.373-10.228c5.182-9.869,15.816-15.5,26.034-19.923s19.68-7.312,25.685-14.247c7.177-8.271,5.046,18.4,2.906,28.61-1.414,6.828-2.906,13.753-6.082,19.932S226.36,236.454,219.639,238.265Z" transform="translate(-44.693 -174.722)" fill="#ea8879"/>
      <path id="Trazado_133962" data-name="Trazado 133962" d="M194.99,229.512a14.8,14.8,0,0,1,1.734-10.412c2.993-5.492,8.194-9.462,13.763-12.368s11.477-4.92,17.114-7.584c.969-.455,2.121-.969,3.07-.436,1.182.639,1.2,2.286,1.036,3.613q-.6,4.93-1.569,9.792c-1.191,5.956-2.906,11.952-6.247,17s-8.717,9.056-14.8,9.54S196.492,235.4,194.99,229.512Z" transform="translate(-45.033 -175.47)" fill="#e0665a"/>
      <path id="Trazado_133963" data-name="Trazado 133963" d="M162.22,402.7c29.889,35.632,29.356,81.2,23.448,114.954-.223.969-.63,4.174-.63,4.174l18.228,1.734a21.054,21.054,0,0,1,.446-4.242c4.339-34.712,18.867-70.063,21.182-104.378C218.811,414.768,168.312,402.826,162.22,402.7Z" transform="translate(-44.01 -181.898)" fill="#ea8879"/>
      <path id="Trazado_133964" data-name="Trazado 133964" d="M311,400.339c29.879,35.632,29.346,81.2,23.448,114.954-.232.969-.639,4.174-.639,4.174l18.237,1.734a21.451,21.451,0,0,1,.436-4.242c4.339-34.712,27.506-87.574,29.831-121.879C376.249,394.9,317.121,400.465,311,400.339Z" transform="translate(-48.693 -181.658)" fill="#ea8879"/>
    </g>
  </g>
  <g id="Grupo_82637" data-name="Grupo 82637" transform="translate(45.115 25.737)">
    <path id="Trazado_133965" data-name="Trazado 133965" d="M46.61,79.7v-.01h0v.01Z" transform="translate(-46.582 -28.245)" fill="none"/>
    <path id="Trazado_133966" data-name="Trazado 133966" d="M46.61,78.149a40.833,40.833,0,0,0,4.659,18.693A41.346,41.346,0,0,0,64.353,111.2,72.775,72.775,0,0,0,82.2,120a133.764,133.764,0,0,0,19.506,5.036,271.267,271.267,0,0,0,40.329,4.087c6.78.232,13.559.349,20.339.31s13.492-.291,20.2-.891l1.763-.155.5,1.637,9.54,30.741,6.363-14.828,9.046-20.872.5-1.182,1.327-.3c7.477-1.724,14.935-3.487,22.276-5.54s14.528-4.378,20.978-7.748a36.9,36.9,0,0,0,8.659-6.044,25.24,25.24,0,0,0,5.753-8.291C271.917,89.714,272.45,82.4,272.2,75.4a40.233,40.233,0,0,0-1.792-10.218,32.707,32.707,0,0,0-4.639-9.191c-4.077-5.627-10.044-9.927-16.659-13.085A97.6,97.6,0,0,0,227.8,36a205.33,205.33,0,0,0-22.557-3.429c-15.216-1.53-30.6-2.015-45.976-2.111a456.058,456.058,0,0,0-46.044,1.617q-5.714.552-11.4,1.385c-3.777.542-7.545,1.191-11.274,2.015A88.968,88.968,0,0,0,69.06,42.74c-6.693,3.4-12.726,8.184-16.63,14.45a40.136,40.136,0,0,0-5.811,20.92h0Z" transform="translate(-46.582 -26.695)" fill="#fff"/>
    <path id="Trazado_133967" data-name="Trazado 133967" d="M277.5,75.045A45.754,45.754,0,0,0,275.442,63.6a38.228,38.228,0,0,0-5.385-10.567,41.3,41.3,0,0,0-8.446-8.494,56.949,56.949,0,0,0-10.266-6.082,103.166,103.166,0,0,0-22.489-7.1,211.312,211.312,0,0,0-23.148-3.293c-15.5-1.385-30.993-1.588-46.489-1.453a436.81,436.81,0,0,0-46.363,2.547,181.65,181.65,0,0,0-22.867,4.029,91.041,91.041,0,0,0-21.695,8.087c-6.78,3.69-12.852,8.833-16.639,15.38a40.642,40.642,0,0,0-5.046,21.375h0a40.136,40.136,0,0,1,5.811-20.92c3.874-6.266,9.937-11.051,16.63-14.45A88.969,88.969,0,0,1,90.57,35.384c3.729-.823,7.5-1.472,11.274-2.015s7.593-1.017,11.4-1.385c15.274-1.453,30.663-1.676,46.044-1.617s30.76.581,45.976,2.111a205.328,205.328,0,0,1,22.557,3.429,97.6,97.6,0,0,1,21.307,6.906c6.615,3.157,12.591,7.458,16.659,13.085a32.707,32.707,0,0,1,4.639,9.191,40.234,40.234,0,0,1,1.792,10.218c.261,7.022-.271,14.315-2.906,20.562a25.24,25.24,0,0,1-5.753,8.291A36.9,36.9,0,0,1,254.9,110.2c-6.441,3.37-13.685,5.666-20.978,7.748s-14.77,3.816-22.276,5.54l-1.327.3-.5,1.182-9.046,20.872-6.383,14.8-9.55-30.809-.5-1.637-1.763.155c-6.712.6-13.433.9-20.2.891s-13.559-.077-20.339-.31a271.258,271.258,0,0,1-40.329-4.087,133.763,133.763,0,0,1-19.506-5.036,72.775,72.775,0,0,1-17.85-8.8A41.346,41.346,0,0,1,51.268,96.72a40.833,40.833,0,0,1-4.659-18.692h0a41.172,41.172,0,0,0,3.874,19,42.353,42.353,0,0,0,12.969,15.128,74.334,74.334,0,0,0,17.985,9.559,136,136,0,0,0,19.7,5.7,274.268,274.268,0,0,0,40.678,5.007c6.78.387,13.656.581,20.494.659,6.247.1,12.533-.077,18.789-.494l10.538,35.671,1.86,6.305,2.7-6.063,9.259-20.785,8.717-19.613c7.08-1.617,14.17-3.283,21.22-5.24,7.467-2.111,14.983-4.436,22.1-8.116a41.2,41.2,0,0,0,9.908-6.944,30.461,30.461,0,0,0,6.886-9.985,42.334,42.334,0,0,0,2.857-11.37l.271-2.906.136-2.838C277.592,78.88,277.631,76.972,277.5,75.045Z" transform="translate(-46.581 -26.573)" fill="#131313"/>
  </g>
  <g id="Grupo" transform="translate(67.245 38.954)">
    <path id="Trazado_135646" data-name="Trazado 135646" d="M1.714-9.524a.729.729,0,0,0,.374-.108.491.491,0,0,0,.234-.262.367.367,0,0,0-.1-.343,1.36,1.36,0,0,0-.63-.35,1.239,1.239,0,0,0-.564.182.437.437,0,0,0-.19.269.388.388,0,0,0,.073.282.961.961,0,0,0,.234.242.777.777,0,0,0,.3.134A.307.307,0,0,0,1.714-9.524ZM.615-.6q.4.336.615.148a1.277,1.277,0,0,0,.33-.713,6.893,6.893,0,0,0,.125-1.257q.015-.733.022-1.5t.029-1.452A5.29,5.29,0,0,1,1.86-6.458a1.822,1.822,0,0,0-.029-.35.567.567,0,0,0-.1-.242.444.444,0,0,0-.234-.141,1.561,1.561,0,0,0-.425-.047.131.131,0,0,0-.088.04.542.542,0,0,0-.088.235,5.867,5.867,0,0,0-.088.605q-.044.41-.081,1.15T.652-3.352Q.615-2.236.615-.6ZM10.459-.63Q10.4-.864,10.305-1.3T10.1-2.271Q9.99-2.8,9.888-3.376T9.7-4.5q-.088-.549-.139-1.011a7.108,7.108,0,0,1-.051-.754q0-.132.029-.454T9.624-7.4l.11-.659a2.624,2.624,0,0,1,.1-.425A.551.551,0,0,1,9.983-8.5a2.011,2.011,0,0,0,.234-.015q.125-.015.234-.022t.154-.007a3.262,3.262,0,0,1,1.333.278,6.227,6.227,0,0,1,1.2.7,11.075,11.075,0,0,1,1.113.952q.542.527,1.091,1.025a11.758,11.758,0,0,0,1.121.9,4.433,4.433,0,0,0,1.216.608q0-.073.007-.227t.007-.33q0-.176.007-.33t.007-.227a13.621,13.621,0,0,0-.117-1.8q-.117-.879-.264-1.758t-.264-1.765a13.9,13.9,0,0,1-.117-1.824q.1,0,.256.007a1.809,1.809,0,0,1,.315.044.969.969,0,0,1,.293.117.392.392,0,0,1,.176.242,15.766,15.766,0,0,0,.264,2.117q.205,1.062.425,2.124t.388,2.124a13.4,13.4,0,0,1,.168,2.1q0,.19-.007.41a1.913,1.913,0,0,1-.059.417A.782.782,0,0,1,19-2.3a.446.446,0,0,1-.352.132,2.938,2.938,0,0,1-1.406-.344,7.227,7.227,0,0,1-1.252-.857A14.188,14.188,0,0,1,14.8-4.5a14.188,14.188,0,0,0-1.187-1.128,7.416,7.416,0,0,0-1.26-.864,2.9,2.9,0,0,0-1.4-.352,10.251,10.251,0,0,0,.117,1.575q.117.754.256,1.5t.256,1.487a9.581,9.581,0,0,1,.117,1.5.389.389,0,0,1-.2.381.925.925,0,0,1-.432.1,1.687,1.687,0,0,1-.359-.037Q10.547-.366,10.459-.63Zm9.39-2.344a3.5,3.5,0,0,1,.425-1.692,4.446,4.446,0,0,1,1.121-1.348A5.5,5.5,0,0,1,22.961-6.9a5.055,5.055,0,0,1,1.765-.322,1.349,1.349,0,0,1,.886.322,2.835,2.835,0,0,1,.652.784,4.143,4.143,0,0,1,.4.974,3.479,3.479,0,0,1,.139.894,3.434,3.434,0,0,1-.4,1.589A5,5,0,0,1,25.386-1.3a5.315,5.315,0,0,1-1.421.959,3.738,3.738,0,0,1-1.582.366A2.635,2.635,0,0,1,21.2-.212a2.1,2.1,0,0,1-.776-.645,2.747,2.747,0,0,1-.432-.952A4.727,4.727,0,0,1,19.849-2.974Zm1.245.146a2.988,2.988,0,0,0,.066.667,1.177,1.177,0,0,0,.234.491,1.075,1.075,0,0,0,.447.315,1.884,1.884,0,0,0,.688.11,2.219,2.219,0,0,0,1.084-.3,3.953,3.953,0,0,0,.974-.762,3.967,3.967,0,0,0,.7-1.018,2.523,2.523,0,0,0,.264-1.084,3.305,3.305,0,0,0-.044-.513,2.085,2.085,0,0,0-.146-.513,1.075,1.075,0,0,0-.293-.4.722.722,0,0,0-.483-.161,1.462,1.462,0,0,0-.623.176,5.277,5.277,0,0,0-.747.454,7.432,7.432,0,0,0-.762.63q-.374.352-.681.7a4.162,4.162,0,0,0-.491.674A1.149,1.149,0,0,0,21.094-2.827Zm8.291.6a.478.478,0,0,1,.271.073.4.4,0,0,1,.154.183.932.932,0,0,1,.059.249,2.589,2.589,0,0,1,.015.271,4.736,4.736,0,0,1-.066.725,7.11,7.11,0,0,1-.2.872,7.15,7.15,0,0,1-.33.9,3.871,3.871,0,0,1-.461.791,2.359,2.359,0,0,1-.593.557,1.311,1.311,0,0,1-.725.212,6.093,6.093,0,0,1,.066-.791q.066-.483.19-1.025t.3-1.077a8.32,8.32,0,0,1,.381-.967,3.115,3.115,0,0,1,.439-.7A.664.664,0,0,1,29.385-2.227ZM41.309,7.793a3.43,3.43,0,0,0,1.465-.3,3.2,3.2,0,0,0,1.091-.82,3.781,3.781,0,0,0,.688-1.187A4.029,4.029,0,0,0,44.795,4.1q0-.366-.037-.967t-.11-1.3q-.073-.7-.212-1.436a12.2,12.2,0,0,0-.344-1.384,5.135,5.135,0,0,0-.505-1.143,1.823,1.823,0,0,0-.7-.7q-.381.293-.747.535a4.382,4.382,0,0,1-.762.4,5.163,5.163,0,0,1-.82.256,4.146,4.146,0,0,1-.908.1,4.293,4.293,0,0,1-1.077-.117,1.718,1.718,0,0,1-.747-.4,1.677,1.677,0,0,1-.447-.732,3.779,3.779,0,0,1-.146-1.143,2.064,2.064,0,0,1,.234-.945,3.585,3.585,0,0,1,.623-.864,5.679,5.679,0,0,1,.879-.74,7.533,7.533,0,0,1,1.011-.586,5.721,5.721,0,0,1,1.025-.381,3.615,3.615,0,0,1,.9-.132q.381,0,.63.022a1.086,1.086,0,0,1,.425.117.818.818,0,0,1,.3.293,2.668,2.668,0,0,1,.242.535q.337,1.143.776,2.461t.835,2.71q.4,1.392.667,2.805A14.5,14.5,0,0,1,46.055,4.1a5.291,5.291,0,0,1-.33,1.985,3.842,3.842,0,0,1-.864,1.333,3.78,3.78,0,0,1-1.216.8,5.212,5.212,0,0,1-1.37.359,7.227,7.227,0,0,1-1.333.037,5.965,5.965,0,0,1-1.113-.168,2.445,2.445,0,0,1-.71-.286Q38.877,8,39,7.888a1.381,1.381,0,0,1,.667-.154A10.356,10.356,0,0,1,41.309,7.793Zm.205-14.136a5.5,5.5,0,0,0-1.75.652,3.347,3.347,0,0,0-1,.894,1.873,1.873,0,0,0-.359.952,1.367,1.367,0,0,0,.176.813,1.26,1.26,0,0,0,.593.505,1.249,1.249,0,0,0,.886.015,2.929,2.929,0,0,0,1.062-.667A6.154,6.154,0,0,0,42.261-4.7q0-.249.007-.542a2.051,2.051,0,0,0-.051-.535.834.834,0,0,0-.22-.4A.657.657,0,0,0,41.514-6.343Zm4.5.19a2.589,2.589,0,0,1,.015-.271.932.932,0,0,1,.059-.249.428.428,0,0,1,.139-.183.437.437,0,0,1,.271-.073q.146,0,.33.227a4,4,0,0,1,.374.571q.19.344.374.754t.322.754q.139.344.227.593a1.952,1.952,0,0,0,.1.264q.19-.513.425-1.113A5.926,5.926,0,0,1,49.226-6a3.413,3.413,0,0,1,.82-.872,1.906,1.906,0,0,1,1.165-.352,2.009,2.009,0,0,1,.667.11,1.665,1.665,0,0,1,.557.322,1.645,1.645,0,0,1,.388.505,1.487,1.487,0,0,1,.146.674.468.468,0,0,1-.256.454,1.247,1.247,0,0,1-.579.132h-.146l-.63-.63a.06.06,0,0,1-.044-.015.162.162,0,0,1-.051-.007.162.162,0,0,0-.051-.007,1.079,1.079,0,0,0-.8.286,1.838,1.838,0,0,0-.432.7,3.473,3.473,0,0,0-.183.879q-.037.461-.037.842a3.092,3.092,0,0,0,.059.593q.059.3.132.586t.132.586a3.244,3.244,0,0,1,.059.623q0,.615-.659.615a1.126,1.126,0,0,1-.762-.388,5.775,5.775,0,0,1-.784-.989,12.438,12.438,0,0,1-.74-1.326q-.352-.725-.615-1.414t-.417-1.245A3.468,3.468,0,0,1,46.011-6.152ZM59.795-1.89q-.557.381-.959.681a6.383,6.383,0,0,1-.784.505,3.327,3.327,0,0,1-.813.308,4.681,4.681,0,0,1-1.062.1,2.6,2.6,0,0,1-2.021-.725A3.117,3.117,0,0,1,53.5-3.179a4.88,4.88,0,0,1,.146-1.157,6.06,6.06,0,0,1,.432-1.194,7,7,0,0,1,.681-1.128,5.3,5.3,0,0,1,.894-.945,4.382,4.382,0,0,1,1.062-.652A3,3,0,0,1,57.905-8.5a3.471,3.471,0,0,1,1.655.52,2.671,2.671,0,0,1,.908,1.069,5.123,5.123,0,0,1,.425,1.45q.117.8.183,1.648t.168,1.7A5.376,5.376,0,0,0,61.67-.542a2.546,2.546,0,0,1-.359.681.259.259,0,0,1-.374.066,1.791,1.791,0,0,1-.476-.645Q60.19-.952,59.795-1.89Zm-5.054-1.26a1.932,1.932,0,0,0,.315,1.223,1.375,1.375,0,0,0,1.121.388,3.161,3.161,0,0,0,1.15-.212,3.034,3.034,0,0,0,.959-.586,2.848,2.848,0,0,0,.659-.9,2.71,2.71,0,0,0,.249-1.172q0-.264.015-.74a5.093,5.093,0,0,0-.059-.945,2.253,2.253,0,0,0-.278-.813.67.67,0,0,0-.615-.344,2.676,2.676,0,0,0-1.406.388,4.058,4.058,0,0,0-1.113.989A4.814,4.814,0,0,0,55-4.548,4.086,4.086,0,0,0,54.741-3.149ZM62.3-4.409A3.453,3.453,0,0,1,62.571-5.7,4.6,4.6,0,0,1,63.3-6.921a4.246,4.246,0,0,1,1.047-.916A2.347,2.347,0,0,1,65.6-8.2a2.04,2.04,0,0,1,.674.117,2,2,0,0,1,.608.337,1.762,1.762,0,0,1,.439.527,1.409,1.409,0,0,1,.168.688,1.79,1.79,0,0,1-.476-.059,4.183,4.183,0,0,1-.417-.139q-.205-.081-.4-.139a1.516,1.516,0,0,0-.432-.059,1.507,1.507,0,0,0-.974.3,2.159,2.159,0,0,0-.593.754,3.428,3.428,0,0,0-.3.974,6.382,6.382,0,0,0-.081.974q0,.073.007.278t.015.432q.007.227.015.432a2.086,2.086,0,0,0,.022.278,2.608,2.608,0,0,0,.315.542,1.109,1.109,0,0,0,.33.286,1.02,1.02,0,0,0,.381.117,4.609,4.609,0,0,0,.483.022,1.747,1.747,0,0,0,.667-.117,3.257,3.257,0,0,0,.535-.278,3.723,3.723,0,0,0,.469-.359,4.744,4.744,0,0,1,.461-.366,2.467,2.467,0,0,1,.527-.278,1.806,1.806,0,0,1,.652-.11,3.015,3.015,0,0,1-.256,1.274,2.759,2.759,0,0,1-.718.952,3.266,3.266,0,0,1-1.084.608A4.171,4.171,0,0,1,65.273,0a1.857,1.857,0,0,1-1.238-.469,4.278,4.278,0,0,1-.937-1.15A6.11,6.11,0,0,1,62.5-3.062,5.263,5.263,0,0,1,62.3-4.409Zm7.822-1.084q0-.088.007-.286t.015-.417q.007-.22.015-.425t.007-.293a1.253,1.253,0,0,1,.417-.381,2.889,2.889,0,0,1,.52-.234,10.045,10.045,0,0,0,.249,1.685q.205.894.439,1.794t.417,1.78A8.071,8.071,0,0,1,72.393-.63a.589.589,0,0,1-.674.659.859.859,0,0,1-.688-.337,2.579,2.579,0,0,1-.447-.857,7.768,7.768,0,0,1-.271-1.157,12.592,12.592,0,0,1-.139-1.252q-.037-.615-.044-1.128T70.122-5.493Zm.205-5.493a1.1,1.1,0,0,1,.469.381.71.71,0,0,1,.168.476q-.022.212-.33.293A2.021,2.021,0,0,1,69.609-10a1.461,1.461,0,0,1,.154-.688A.579.579,0,0,1,70.327-10.986Zm8.936,9.1q-.557.381-.959.681A6.383,6.383,0,0,1,77.52-.7a3.327,3.327,0,0,1-.813.308,4.681,4.681,0,0,1-1.062.1,2.6,2.6,0,0,1-2.021-.725,3.117,3.117,0,0,1-.659-2.161,4.88,4.88,0,0,1,.146-1.157,6.06,6.06,0,0,1,.432-1.194,7,7,0,0,1,.681-1.128,5.3,5.3,0,0,1,.894-.945,4.382,4.382,0,0,1,1.062-.652A3,3,0,0,1,77.373-8.5a3.471,3.471,0,0,1,1.655.52,2.671,2.671,0,0,1,.908,1.069,5.123,5.123,0,0,1,.425,1.45q.117.8.183,1.648t.168,1.7a5.376,5.376,0,0,0,.425,1.567,2.546,2.546,0,0,1-.359.681.259.259,0,0,1-.374.066,1.791,1.791,0,0,1-.476-.645Q79.658-.952,79.263-1.89Zm-5.054-1.26a1.932,1.932,0,0,0,.315,1.223,1.375,1.375,0,0,0,1.121.388,3.161,3.161,0,0,0,1.15-.212,3.034,3.034,0,0,0,.959-.586,2.848,2.848,0,0,0,.659-.9,2.71,2.71,0,0,0,.249-1.172q0-.264.015-.74a5.093,5.093,0,0,0-.059-.945,2.253,2.253,0,0,0-.278-.813.67.67,0,0,0-.615-.344,2.676,2.676,0,0,0-1.406.388,4.058,4.058,0,0,0-1.113.989,4.814,4.814,0,0,0-.732,1.326A4.086,4.086,0,0,0,74.209-3.149ZM84.873-.659q.234-.161.564-.417t.667-.549a7.509,7.509,0,0,0,.63-.615,3.452,3.452,0,0,0,.461-.623,1.161,1.161,0,0,0,.168-.564.516.516,0,0,0-.264-.439q-.469,0-1.025.037T84.961-3.8a7.006,7.006,0,0,1-1.077-.1,2.8,2.8,0,0,1-.93-.322,1.712,1.712,0,0,1-.652-.667,2.249,2.249,0,0,1-.242-1.106,3.309,3.309,0,0,1,.3-1.428,3.911,3.911,0,0,1,.8-1.128,5.951,5.951,0,0,1,1.121-.864,9.763,9.763,0,0,1,1.252-.637,1.87,1.87,0,0,1,.7.366,3.151,3.151,0,0,1,.557.586.865.865,0,0,1-.4.5,3.745,3.745,0,0,1-.688.308l-.813.278a3.073,3.073,0,0,0-.769.388,2.054,2.054,0,0,0-.579.63,1.952,1.952,0,0,0-.234,1.018.9.9,0,0,0,.234.688,1.258,1.258,0,0,0,.615.3,3.438,3.438,0,0,0,.864.059q.483-.022.989-.066T87-5.046a2.646,2.646,0,0,1,.864.117,1.273,1.273,0,0,1,.608.4,1.274,1.274,0,0,1,.227.82,1.638,1.638,0,0,1-.154.6,5.825,5.825,0,0,1-.41.784,6.937,6.937,0,0,1-.6.828,6.9,6.9,0,0,1-.718.74,4.5,4.5,0,0,1-.747.542,1.422,1.422,0,0,1-.7.212.392.392,0,0,1-.4-.22A1.1,1.1,0,0,1,84.873-.659Zm5.537-.615a.686.686,0,0,1,.374.117.523.523,0,0,1,.234.286.425.425,0,0,1-.1.374,1.339,1.339,0,0,1-.63.381,1.172,1.172,0,0,1-.564-.2.479.479,0,0,1-.19-.293.452.452,0,0,1,.073-.308,1.011,1.011,0,0,1,.234-.264.749.749,0,0,1,.3-.146A.286.286,0,0,1,90.41-1.274ZM89.312-11q.4-.366.615-.161a1.444,1.444,0,0,1,.33.776,8.16,8.16,0,0,1,.125,1.37q.015.8.022,1.633T90.432-5.8a6.257,6.257,0,0,0,.125,1.187,2.157,2.157,0,0,1-.029.381.648.648,0,0,1-.1.264.44.44,0,0,1-.234.154,1.439,1.439,0,0,1-.425.051.127.127,0,0,1-.088-.044.622.622,0,0,1-.088-.256q-.044-.212-.088-.659t-.081-1.252Q89.385-6.782,89.348-8T89.312-11Zm13.652,2.827a3,3,0,0,1-1.143-.527,6.656,6.656,0,0,1-1.091-1,10.569,10.569,0,0,1-.981-1.3,11.81,11.81,0,0,1-.8-1.45,9.417,9.417,0,0,1-.527-1.421,4.674,4.674,0,0,1-.19-1.23q0-.073.007-.176a1.286,1.286,0,0,1,.029-.2.3.3,0,0,1,.1-.161.274.274,0,0,1,.19-.066.872.872,0,0,1,.63.256,2.621,2.621,0,0,1,.483.681,7.575,7.575,0,0,1,.41.967q.19.542.388,1.1t.417,1.1a5.955,5.955,0,0,0,.491.967,2.478,2.478,0,0,0,.623.681,1.332,1.332,0,0,0,.806.256.314.314,0,0,0,.081-.015.314.314,0,0,1,.081-.015,3.571,3.571,0,0,0,.74-.974,12.067,12.067,0,0,0,.608-1.311q.278-.7.542-1.45t.549-1.392a8.029,8.029,0,0,1,.6-1.128,1.781,1.781,0,0,1,.725-.674l.63.645q.117.117.037.476a7.268,7.268,0,0,1-.278.894q-.2.535-.491,1.187t-.615,1.355q-.322.7-.645,1.4t-.579,1.311q-.256.615-.417,1.1a2.587,2.587,0,0,0-.161.762,5.663,5.663,0,0,0,.256,1.7q.256.82.549,1.633t.542,1.626a5.646,5.646,0,0,1,.249,1.663v.3a1.129,1.129,0,0,1-.051.344.444.444,0,0,1-.19.249.5.5,0,0,1-.4.015,9.57,9.57,0,0,1-.952-1.794,17.752,17.752,0,0,1-.7-2.087,16.076,16.076,0,0,1-.432-2.19A13.643,13.643,0,0,1,102.964-8.174Zm4.688,5.2a3.5,3.5,0,0,1,.425-1.692A4.446,4.446,0,0,1,109.2-6.013a5.5,5.5,0,0,1,1.567-.886,5.055,5.055,0,0,1,1.765-.322,1.349,1.349,0,0,1,.886.322,2.835,2.835,0,0,1,.652.784,4.143,4.143,0,0,1,.4.974,3.479,3.479,0,0,1,.139.894,3.434,3.434,0,0,1-.4,1.589A5,5,0,0,1,113.188-1.3a5.315,5.315,0,0,1-1.421.959,3.738,3.738,0,0,1-1.582.366A2.635,2.635,0,0,1,109-.212a2.1,2.1,0,0,1-.776-.645,2.747,2.747,0,0,1-.432-.952A4.727,4.727,0,0,1,107.651-2.974Zm1.245.146a2.988,2.988,0,0,0,.066.667,1.177,1.177,0,0,0,.234.491,1.075,1.075,0,0,0,.447.315,1.884,1.884,0,0,0,.688.11,2.219,2.219,0,0,0,1.084-.3,3.953,3.953,0,0,0,.974-.762,3.967,3.967,0,0,0,.7-1.018,2.523,2.523,0,0,0,.264-1.084,3.305,3.305,0,0,0-.044-.513,2.085,2.085,0,0,0-.146-.513,1.075,1.075,0,0,0-.293-.4.722.722,0,0,0-.483-.161,1.462,1.462,0,0,0-.623.176,5.277,5.277,0,0,0-.747.454,7.432,7.432,0,0,0-.762.63q-.374.352-.681.7a4.162,4.162,0,0,0-.491.674A1.149,1.149,0,0,0,108.9-2.827Zm13.037-1.245a6.738,6.738,0,0,1,.19-1.582,4.421,4.421,0,0,1,.608-1.421A3.3,3.3,0,0,1,123.816-8.1a3.119,3.119,0,0,1,1.619-.4,2.168,2.168,0,0,1,.952.2,2.1,2.1,0,0,1,.688.52,2.146,2.146,0,0,1,.417.754,2.921,2.921,0,0,1,.139.9,3.262,3.262,0,0,1-.344,1.45,4.166,4.166,0,0,1-.923,1.238,3.886,3.886,0,0,1-1.326.806,2.844,2.844,0,0,1-1.523.125.941.941,0,0,0,.286.681,1.783,1.783,0,0,0,.652.388,3.308,3.308,0,0,0,.791.168q.41.037.732.037a3.211,3.211,0,0,0,.63-.059q.293-.059.586-.132t.593-.132a3.324,3.324,0,0,1,.637-.059,2.386,2.386,0,0,1,.264.015.852.852,0,0,1,.249.066.435.435,0,0,1,.19.161.478.478,0,0,1,.073.271.592.592,0,0,1-.205.461,1.841,1.841,0,0,1-.52.315,3.22,3.22,0,0,1-.7.2q-.381.066-.74.1t-.659.044q-.3.007-.447.007a4.483,4.483,0,0,1-1.685-.3,3.555,3.555,0,0,1-1.26-.835A3.587,3.587,0,0,1,122.2-2.4,4.933,4.933,0,0,1,121.934-4.072Zm1.553-.952a1.521,1.521,0,0,0,.139.747q.139.234.681.234a2.087,2.087,0,0,0,.747-.139,2.338,2.338,0,0,0,.667-.388,1.893,1.893,0,0,0,.476-.586,1.56,1.56,0,0,0,.176-.732,2.941,2.941,0,0,0-.037-.454,1.2,1.2,0,0,0-.154-.432,1,1,0,0,0-.3-.322.831.831,0,0,0-.476-.125,1.626,1.626,0,0,0-.8.2,1.991,1.991,0,0,0-.608.513,2.335,2.335,0,0,0-.381.7A2.423,2.423,0,0,0,123.486-5.024ZM132.92-.659q.234-.161.564-.417t.667-.549a7.509,7.509,0,0,0,.63-.615,3.452,3.452,0,0,0,.461-.623,1.161,1.161,0,0,0,.168-.564.516.516,0,0,0-.264-.439q-.469,0-1.025.037t-1.113.029a7.006,7.006,0,0,1-1.077-.1,2.8,2.8,0,0,1-.93-.322,1.712,1.712,0,0,1-.652-.667,2.249,2.249,0,0,1-.242-1.106,3.309,3.309,0,0,1,.3-1.428,3.911,3.911,0,0,1,.8-1.128,5.951,5.951,0,0,1,1.121-.864,9.763,9.763,0,0,1,1.252-.637,1.87,1.87,0,0,1,.7.366,3.151,3.151,0,0,1,.557.586.865.865,0,0,1-.4.5,3.745,3.745,0,0,1-.688.308l-.813.278a3.073,3.073,0,0,0-.769.388,2.054,2.054,0,0,0-.579.63,1.952,1.952,0,0,0-.234,1.018.9.9,0,0,0,.234.688,1.258,1.258,0,0,0,.615.3,3.438,3.438,0,0,0,.864.059q.483-.022.989-.066t.989-.051a2.646,2.646,0,0,1,.864.117,1.273,1.273,0,0,1,.608.4,1.274,1.274,0,0,1,.227.82,1.638,1.638,0,0,1-.154.6,5.825,5.825,0,0,1-.41.784,6.937,6.937,0,0,1-.6.828,6.9,6.9,0,0,1-.718.74,4.5,4.5,0,0,1-.747.542,1.422,1.422,0,0,1-.7.212.392.392,0,0,1-.4-.22A1.1,1.1,0,0,1,132.92-.659Zm4.087-6.724a.163.163,0,0,1,.015-.073.241.241,0,0,1,.015-.073,2.488,2.488,0,0,1,.176-.19q.117-.117.146-.117H140.3a4.644,4.644,0,0,0-.044-.513q-.044-.352-.081-.776a7.537,7.537,0,0,1-.022-.886,3.333,3.333,0,0,1,.125-.835,1.417,1.417,0,0,1,.352-.615.921.921,0,0,1,.681-.242,11.01,11.01,0,0,0,.205,2.373,3.9,3.9,0,0,0,.549,1.377,1.6,1.6,0,0,0,.784.63,2.456,2.456,0,0,0,.9.125,4.275,4.275,0,0,0,.9-.139,6.068,6.068,0,0,1,.784-.161.915.915,0,0,1,.549.066q.205.11.205.52a.585.585,0,0,1-.139.439,1.1,1.1,0,0,1-.535.205l-.388.051q-.271.037-.608.066t-.718.066q-.381.037-.718.066t-.615.037q-.278.007-.41.007,0,.073-.015.249t-.015.234a3.892,3.892,0,0,0,.205,1.252q.205.608.447,1.208t.447,1.2a3.827,3.827,0,0,1,.205,1.245,1.39,1.39,0,0,1-.022.242.548.548,0,0,1-.088.22.417.417,0,0,1-.19.146A.508.508,0,0,1,142.69,0a1.281,1.281,0,0,1-.828-.63,3.882,3.882,0,0,1-.4-1.15,10.448,10.448,0,0,1-.176-1.414q-.044-.747-.139-1.4a4.271,4.271,0,0,0-.3-1.113.92.92,0,0,0-.659-.564l-2.827-.645q-.059,0-.176-.125a.954.954,0,0,1-.146-.183.163.163,0,0,1-.015-.073A.2.2,0,0,1,137.007-7.383Zm16.04,5.493q-.557.381-.959.681A6.383,6.383,0,0,1,151.3-.7a3.327,3.327,0,0,1-.813.308,4.681,4.681,0,0,1-1.062.1,2.6,2.6,0,0,1-2.021-.725,3.117,3.117,0,0,1-.659-2.161,4.88,4.88,0,0,1,.146-1.157,6.06,6.06,0,0,1,.432-1.194,7,7,0,0,1,.681-1.128A5.3,5.3,0,0,1,148.9-7.6a4.382,4.382,0,0,1,1.062-.652,3,3,0,0,1,1.194-.242,3.471,3.471,0,0,1,1.655.52,2.671,2.671,0,0,1,.908,1.069,5.123,5.123,0,0,1,.425,1.45q.117.8.183,1.648t.168,1.7a5.376,5.376,0,0,0,.425,1.567,2.546,2.546,0,0,1-.359.681.259.259,0,0,1-.374.066,1.791,1.791,0,0,1-.476-.645Q153.442-.952,153.047-1.89Zm-5.054-1.26a1.932,1.932,0,0,0,.315,1.223,1.375,1.375,0,0,0,1.121.388,3.161,3.161,0,0,0,1.15-.212,3.034,3.034,0,0,0,.959-.586,2.848,2.848,0,0,0,.659-.9,2.71,2.71,0,0,0,.249-1.172q0-.264.015-.74a5.093,5.093,0,0,0-.059-.945,2.253,2.253,0,0,0-.278-.813.67.67,0,0,0-.615-.344,2.676,2.676,0,0,0-1.406.388,4.058,4.058,0,0,0-1.113.989,4.814,4.814,0,0,0-.732,1.326A4.086,4.086,0,0,0,147.993-3.149Zm7.852-3a2.589,2.589,0,0,1,.015-.271.932.932,0,0,1,.059-.249.428.428,0,0,1,.139-.183.437.437,0,0,1,.271-.073q.146,0,.33.227a4,4,0,0,1,.374.571q.19.344.374.754t.322.754q.139.344.227.593a1.952,1.952,0,0,0,.1.264q.19-.513.425-1.113A5.926,5.926,0,0,1,159.06-6a3.413,3.413,0,0,1,.82-.872,1.906,1.906,0,0,1,1.165-.352,2.009,2.009,0,0,1,.667.11,1.665,1.665,0,0,1,.557.322,1.645,1.645,0,0,1,.388.505,1.487,1.487,0,0,1,.146.674.468.468,0,0,1-.256.454,1.247,1.247,0,0,1-.579.132h-.146l-.63-.63a.06.06,0,0,1-.044-.015.162.162,0,0,1-.051-.007.162.162,0,0,0-.051-.007,1.079,1.079,0,0,0-.8.286,1.838,1.838,0,0,0-.432.7,3.473,3.473,0,0,0-.183.879q-.037.461-.037.842a3.092,3.092,0,0,0,.059.593q.059.3.132.586t.132.586a3.244,3.244,0,0,1,.059.623q0,.615-.659.615a1.126,1.126,0,0,1-.762-.388,5.775,5.775,0,0,1-.784-.989,12.438,12.438,0,0,1-.74-1.326q-.352-.725-.615-1.414T156-5.332A3.468,3.468,0,0,1,155.845-6.152Zm8.1.659q0-.088.007-.286t.015-.417q.007-.22.015-.425t.007-.293a1.253,1.253,0,0,1,.417-.381,2.889,2.889,0,0,1,.52-.234,10.045,10.045,0,0,0,.249,1.685q.205.894.439,1.794t.417,1.78a8.071,8.071,0,0,1,.183,1.641.589.589,0,0,1-.674.659.859.859,0,0,1-.688-.337,2.579,2.579,0,0,1-.447-.857,7.768,7.768,0,0,1-.271-1.157A12.592,12.592,0,0,1,164-3.574q-.037-.615-.044-1.128T163.945-5.493Zm2.109-5.347-1.6,2.344a.383.383,0,0,1-.344.176.387.387,0,0,1-.264-.168.65.65,0,0,1-.1-.352.67.67,0,0,1,.139-.417.741.741,0,0,0,.1-.125q.051-.081.066-.11.146-.234.337-.527t.4-.549a4.766,4.766,0,0,1,.41-.454,1.2,1.2,0,0,1,.374-.264.3.3,0,0,1,.3.029A.652.652,0,0,1,166.055-10.84Zm7.031,8.95q-.557.381-.959.681a6.383,6.383,0,0,1-.784.505,3.327,3.327,0,0,1-.813.308,4.681,4.681,0,0,1-1.062.1,2.6,2.6,0,0,1-2.021-.725,3.117,3.117,0,0,1-.659-2.161,4.88,4.88,0,0,1,.146-1.157,6.06,6.06,0,0,1,.432-1.194,7,7,0,0,1,.681-1.128,5.3,5.3,0,0,1,.894-.945A4.382,4.382,0,0,1,170-8.254,3,3,0,0,1,171.2-8.5a3.471,3.471,0,0,1,1.655.52,2.671,2.671,0,0,1,.908,1.069,5.123,5.123,0,0,1,.425,1.45q.117.8.183,1.648t.168,1.7a5.376,5.376,0,0,0,.425,1.567,2.546,2.546,0,0,1-.359.681.259.259,0,0,1-.374.066,1.791,1.791,0,0,1-.476-.645Q173.481-.952,173.086-1.89Zm-5.054-1.26a1.932,1.932,0,0,0,.315,1.223,1.375,1.375,0,0,0,1.121.388,3.161,3.161,0,0,0,1.15-.212,3.034,3.034,0,0,0,.959-.586,2.848,2.848,0,0,0,.659-.9,2.71,2.71,0,0,0,.249-1.172q0-.264.015-.74a5.093,5.093,0,0,0-.059-.945,2.253,2.253,0,0,0-.278-.813.67.67,0,0,0-.615-.344,2.676,2.676,0,0,0-1.406.388,4.058,4.058,0,0,0-1.113.989,4.814,4.814,0,0,0-.732,1.326A4.086,4.086,0,0,0,168.032-3.149Z" transform="translate(0 21)" fill="#12263f"/>
    <path id="Trazado_135647" data-name="Trazado 135647" d="M0-4.409A3.453,3.453,0,0,1,.271-5.7,4.6,4.6,0,0,1,1-6.921a4.246,4.246,0,0,1,1.047-.916A2.347,2.347,0,0,1,3.3-8.2a2.04,2.04,0,0,1,.674.117,2,2,0,0,1,.608.337,1.762,1.762,0,0,1,.439.527,1.409,1.409,0,0,1,.168.688,1.79,1.79,0,0,1-.476-.059,4.183,4.183,0,0,1-.417-.139q-.205-.081-.4-.139a1.516,1.516,0,0,0-.432-.059,1.507,1.507,0,0,0-.974.3,2.159,2.159,0,0,0-.593.754,3.428,3.428,0,0,0-.3.974,6.382,6.382,0,0,0-.081.974q0,.073.007.278t.015.432q.007.227.015.432a2.086,2.086,0,0,0,.022.278,2.608,2.608,0,0,0,.315.542,1.109,1.109,0,0,0,.33.286,1.02,1.02,0,0,0,.381.117,4.609,4.609,0,0,0,.483.022,1.747,1.747,0,0,0,.667-.117,3.257,3.257,0,0,0,.535-.278,3.723,3.723,0,0,0,.469-.359,4.744,4.744,0,0,1,.461-.366,2.467,2.467,0,0,1,.527-.278,1.806,1.806,0,0,1,.652-.11A3.015,3.015,0,0,1,6.13-1.772a2.759,2.759,0,0,1-.718.952,3.266,3.266,0,0,1-1.084.608A4.171,4.171,0,0,1,2.974,0,1.857,1.857,0,0,1,1.736-.469,4.278,4.278,0,0,1,.8-1.619,6.11,6.11,0,0,1,.205-3.062,5.263,5.263,0,0,1,0-4.409ZM7.207-2.974a3.5,3.5,0,0,1,.425-1.692A4.446,4.446,0,0,1,8.752-6.013,5.5,5.5,0,0,1,10.32-6.9a5.055,5.055,0,0,1,1.765-.322,1.349,1.349,0,0,1,.886.322,2.835,2.835,0,0,1,.652.784,4.143,4.143,0,0,1,.4.974,3.479,3.479,0,0,1,.139.894,3.434,3.434,0,0,1-.4,1.589A5,5,0,0,1,12.744-1.3a5.315,5.315,0,0,1-1.421.959A3.738,3.738,0,0,1,9.741.029,2.635,2.635,0,0,1,8.555-.212a2.1,2.1,0,0,1-.776-.645,2.747,2.747,0,0,1-.432-.952A4.727,4.727,0,0,1,7.207-2.974Zm1.245.146a2.988,2.988,0,0,0,.066.667,1.177,1.177,0,0,0,.234.491,1.075,1.075,0,0,0,.447.315,1.884,1.884,0,0,0,.688.11,2.219,2.219,0,0,0,1.084-.3,3.953,3.953,0,0,0,.974-.762,3.967,3.967,0,0,0,.7-1.018,2.523,2.523,0,0,0,.264-1.084,3.305,3.305,0,0,0-.044-.513,2.085,2.085,0,0,0-.146-.513,1.075,1.075,0,0,0-.293-.4.722.722,0,0,0-.483-.161,1.462,1.462,0,0,0-.623.176,5.277,5.277,0,0,0-.747.454,7.432,7.432,0,0,0-.762.63q-.374.352-.681.7a4.162,4.162,0,0,0-.491.674A1.149,1.149,0,0,0,8.452-2.827Zm5.962-3.325a1.1,1.1,0,0,1,.125-.571q.125-.205.535-.205.044,0,.168.007l.154.007q.1.454.212.989t.256,1.077q.146.542.33,1.069a4.759,4.759,0,0,0,.447.952,1.649,1.649,0,0,0,.381-.659,5.3,5.3,0,0,0,.176-.769q.059-.388.11-.747a1.556,1.556,0,0,1,.212-.615A.92.92,0,0,1,18-5.991a1.62,1.62,0,0,1,.872,0,1.848,1.848,0,0,1,.981.227,2.447,2.447,0,0,1,.637.571q.271.344.527.732a2.92,2.92,0,0,0,.652.7l.22-.476a5.367,5.367,0,0,1,.33-.6q.2-.315.425-.63a5.088,5.088,0,0,1,.476-.571,2.884,2.884,0,0,1,.513-.425.953.953,0,0,1,.513-.168,1.554,1.554,0,0,1,1.04.374,3.37,3.37,0,0,1,.754.938,6.13,6.13,0,0,1,.52,1.26,12.935,12.935,0,0,1,.322,1.34q.117.645.168,1.179T27-.776a.437.437,0,0,1-.088.293.544.544,0,0,1-.22.154,1.062,1.062,0,0,1-.286.066q-.154.015-.286.015a.777.777,0,0,1-.088-.007q-.059-.007-.132-.022l-.161-.044L24.785-4.7q0-.044-.117-.168a.786.786,0,0,0-.176-.154.163.163,0,0,1-.073-.015.1.1,0,0,1-.044-.007.065.065,0,0,0-.029-.007.844.844,0,0,0-.579.249,2.943,2.943,0,0,0-.505.63,6.89,6.89,0,0,0-.439.85q-.205.469-.366.93t-.286.85q-.125.388-.2.593a.849.849,0,0,1-.234.051q-.176.022-.234.022a.747.747,0,0,1-.63-.286,2.362,2.362,0,0,1-.359-.71,7.384,7.384,0,0,1-.234-.93,7.384,7.384,0,0,0-.234-.93,2.1,2.1,0,0,0-.381-.71.843.843,0,0,0-.681-.286q-.161,0-.308.322a4.549,4.549,0,0,0-.264.813q-.117.491-.22,1.055t-.168,1.055q-.066.491-.1.828L17.9-.322a.359.359,0,0,1-.117.1l-.183.11a.829.829,0,0,1-.19.088A.539.539,0,0,1,17.271,0a1.13,1.13,0,0,1-.791-.374,3.91,3.91,0,0,1-.7-.967,9.887,9.887,0,0,1-.571-1.311q-.256-.718-.432-1.406T14.509-5.3A5.466,5.466,0,0,1,14.414-6.152ZM27.6-5.405a2.952,2.952,0,0,1,.659-2.109A2.68,2.68,0,0,1,30.278-8.2a6.749,6.749,0,0,1,1.15.1,3.773,3.773,0,0,1,1.091.359,2.2,2.2,0,0,1,.813.71,2.013,2.013,0,0,1,.315,1.172A3.308,3.308,0,0,1,33.3-4.373a6.3,6.3,0,0,1-.864,1.3A9.593,9.593,0,0,1,31.3-1.941q-.623.52-1.165.989a.875.875,0,0,0-.051.242q-.022.183-.022.242a1.925,1.925,0,0,0,.286.974q.286.491.623,1a10.69,10.69,0,0,1,.615,1.047,2.439,2.439,0,0,1,.278,1.128q0,.352-.146.417a1.808,1.808,0,0,1-.615.066,1.37,1.37,0,0,1-.579-.549,7.733,7.733,0,0,1-.571-1.062q-.286-.63-.557-1.414t-.513-1.6q-.242-.813-.454-1.611t-.374-1.472q-.161-.674-.286-1.165T27.6-5.405Zm1.245.132q0,.22.029.637A5.293,5.293,0,0,0,29-3.809a2.279,2.279,0,0,0,.286.71.594.594,0,0,0,.527.3,1.644,1.644,0,0,0,.916-.308,3.424,3.424,0,0,0,.82-.776,4.608,4.608,0,0,0,.586-1,2.519,2.519,0,0,0,.227-.974.88.88,0,0,0-.176-.579,1.243,1.243,0,0,0-.447-.337,1.921,1.921,0,0,0-.579-.161,4.964,4.964,0,0,0-.586-.037,1.735,1.735,0,0,0-1.282.447A1.693,1.693,0,0,0,28.843-5.273Zm5.669-.879a2.589,2.589,0,0,1,.015-.271.932.932,0,0,1,.059-.249.428.428,0,0,1,.139-.183A.437.437,0,0,1,35-6.929q.146,0,.33.227a4,4,0,0,1,.374.571q.19.344.374.754t.322.754q.139.344.227.593a1.952,1.952,0,0,0,.1.264q.19-.513.425-1.113A5.926,5.926,0,0,1,37.727-6a3.413,3.413,0,0,1,.82-.872,1.906,1.906,0,0,1,1.165-.352,2.009,2.009,0,0,1,.667.11,1.665,1.665,0,0,1,.557.322,1.645,1.645,0,0,1,.388.505,1.487,1.487,0,0,1,.146.674.468.468,0,0,1-.256.454,1.247,1.247,0,0,1-.579.132h-.146l-.63-.63a.06.06,0,0,1-.044-.015.162.162,0,0,1-.051-.007.162.162,0,0,0-.051-.007,1.079,1.079,0,0,0-.8.286,1.838,1.838,0,0,0-.432.7,3.473,3.473,0,0,0-.183.879q-.037.461-.037.842a3.092,3.092,0,0,0,.059.593q.059.3.132.586t.132.586a3.244,3.244,0,0,1,.059.623q0,.615-.659.615a1.126,1.126,0,0,1-.762-.388,5.775,5.775,0,0,1-.784-.989,12.438,12.438,0,0,1-.74-1.326q-.352-.725-.615-1.414t-.417-1.245A3.468,3.468,0,0,1,34.512-6.152ZM42-2.974a3.5,3.5,0,0,1,.425-1.692,4.446,4.446,0,0,1,1.121-1.348A5.5,5.5,0,0,1,45.11-6.9a5.055,5.055,0,0,1,1.765-.322,1.349,1.349,0,0,1,.886.322,2.835,2.835,0,0,1,.652.784,4.143,4.143,0,0,1,.4.974,3.479,3.479,0,0,1,.139.894,3.434,3.434,0,0,1-.4,1.589A5,5,0,0,1,47.534-1.3a5.315,5.315,0,0,1-1.421.959,3.738,3.738,0,0,1-1.582.366,2.635,2.635,0,0,1-1.187-.242,2.1,2.1,0,0,1-.776-.645,2.747,2.747,0,0,1-.432-.952A4.727,4.727,0,0,1,42-2.974Zm1.245.146a2.988,2.988,0,0,0,.066.667,1.177,1.177,0,0,0,.234.491,1.075,1.075,0,0,0,.447.315,1.884,1.884,0,0,0,.688.11,2.219,2.219,0,0,0,1.084-.3,3.953,3.953,0,0,0,.974-.762,3.967,3.967,0,0,0,.7-1.018A2.523,2.523,0,0,0,47.7-4.409a3.305,3.305,0,0,0-.044-.513,2.085,2.085,0,0,0-.146-.513,1.075,1.075,0,0,0-.293-.4.722.722,0,0,0-.483-.161,1.462,1.462,0,0,0-.623.176,5.277,5.277,0,0,0-.747.454,7.432,7.432,0,0,0-.762.63q-.374.352-.681.7a4.162,4.162,0,0,0-.491.674A1.149,1.149,0,0,0,43.242-2.827ZM49.2-6.152a1.1,1.1,0,0,1,.125-.571q.125-.205.535-.205.044,0,.168.007l.154.007q.1.454.212.989t.256,1.077q.146.542.33,1.069a4.759,4.759,0,0,0,.447.952,1.649,1.649,0,0,0,.381-.659,5.3,5.3,0,0,0,.176-.769q.059-.388.11-.747a1.556,1.556,0,0,1,.212-.615.92.92,0,0,1,.476-.374,1.62,1.62,0,0,1,.872,0,1.848,1.848,0,0,1,.981.227,2.447,2.447,0,0,1,.637.571q.271.344.527.732a2.92,2.92,0,0,0,.652.7l.22-.476a5.367,5.367,0,0,1,.33-.6q.2-.315.425-.63a5.088,5.088,0,0,1,.476-.571,2.884,2.884,0,0,1,.513-.425.953.953,0,0,1,.513-.168,1.554,1.554,0,0,1,1.04.374,3.37,3.37,0,0,1,.754.938,6.13,6.13,0,0,1,.52,1.26,12.934,12.934,0,0,1,.322,1.34q.117.645.168,1.179t.051.769a.437.437,0,0,1-.088.293.544.544,0,0,1-.22.154,1.062,1.062,0,0,1-.286.066q-.154.015-.286.015a.777.777,0,0,1-.088-.007q-.059-.007-.132-.022l-.161-.044L59.575-4.7q0-.044-.117-.168a.786.786,0,0,0-.176-.154.163.163,0,0,1-.073-.015.1.1,0,0,1-.044-.007.065.065,0,0,0-.029-.007.844.844,0,0,0-.579.249,2.943,2.943,0,0,0-.505.63,6.89,6.89,0,0,0-.439.85q-.205.469-.366.93t-.286.85q-.125.388-.2.593a.849.849,0,0,1-.234.051q-.176.022-.234.022a.747.747,0,0,1-.63-.286,2.362,2.362,0,0,1-.359-.71,7.384,7.384,0,0,1-.234-.93,7.384,7.384,0,0,0-.234-.93,2.1,2.1,0,0,0-.381-.71.843.843,0,0,0-.681-.286q-.161,0-.308.322A4.549,4.549,0,0,0,53.2-3.6q-.117.491-.22,1.055t-.168,1.055q-.066.491-.1.828l-.029.337a.359.359,0,0,1-.117.1l-.183.11a.829.829,0,0,1-.19.088A.539.539,0,0,1,52.061,0a1.13,1.13,0,0,1-.791-.374,3.91,3.91,0,0,1-.7-.967A9.887,9.887,0,0,1,50-2.651q-.256-.718-.432-1.406T49.3-5.3A5.466,5.466,0,0,1,49.2-6.152Zm13.184,2.08a6.738,6.738,0,0,1,.19-1.582,4.421,4.421,0,0,1,.608-1.421A3.3,3.3,0,0,1,64.27-8.1a3.119,3.119,0,0,1,1.619-.4,2.168,2.168,0,0,1,.952.2,2.1,2.1,0,0,1,.688.52,2.146,2.146,0,0,1,.417.754,2.921,2.921,0,0,1,.139.9,3.262,3.262,0,0,1-.344,1.45,4.166,4.166,0,0,1-.923,1.238,3.886,3.886,0,0,1-1.326.806A2.844,2.844,0,0,1,63.97-2.5a.941.941,0,0,0,.286.681,1.783,1.783,0,0,0,.652.388,3.308,3.308,0,0,0,.791.168q.41.037.732.037a3.211,3.211,0,0,0,.63-.059q.293-.059.586-.132t.593-.132a3.324,3.324,0,0,1,.637-.059,2.386,2.386,0,0,1,.264.015.852.852,0,0,1,.249.066.435.435,0,0,1,.19.161.478.478,0,0,1,.073.271.592.592,0,0,1-.205.461,1.841,1.841,0,0,1-.52.315,3.22,3.22,0,0,1-.7.2q-.381.066-.74.1t-.659.044q-.3.007-.447.007a4.483,4.483,0,0,1-1.685-.3,3.555,3.555,0,0,1-1.26-.835A3.587,3.587,0,0,1,62.659-2.4,4.933,4.933,0,0,1,62.388-4.072Zm1.553-.952a1.521,1.521,0,0,0,.139.747q.139.234.681.234a2.087,2.087,0,0,0,.747-.139,2.338,2.338,0,0,0,.667-.388,1.893,1.893,0,0,0,.476-.586,1.56,1.56,0,0,0,.176-.732,2.941,2.941,0,0,0-.037-.454,1.2,1.2,0,0,0-.154-.432,1,1,0,0,0-.3-.322.831.831,0,0,0-.476-.125,1.626,1.626,0,0,0-.8.2,1.991,1.991,0,0,0-.608.513,2.335,2.335,0,0,0-.381.7A2.423,2.423,0,0,0,63.94-5.024Zm6.3-2.358a.163.163,0,0,1,.015-.073.241.241,0,0,1,.015-.073,2.488,2.488,0,0,1,.176-.19q.117-.117.146-.117h2.944a4.644,4.644,0,0,0-.044-.513q-.044-.352-.081-.776a7.537,7.537,0,0,1-.022-.886,3.333,3.333,0,0,1,.125-.835,1.417,1.417,0,0,1,.352-.615.921.921,0,0,1,.681-.242,11.01,11.01,0,0,0,.205,2.373A3.9,3.9,0,0,0,75.3-7.954a1.6,1.6,0,0,0,.784.63,2.456,2.456,0,0,0,.9.125,4.275,4.275,0,0,0,.9-.139,6.068,6.068,0,0,1,.784-.161.915.915,0,0,1,.549.066q.205.11.205.52a.585.585,0,0,1-.139.439,1.1,1.1,0,0,1-.535.205l-.388.051q-.271.037-.608.066t-.718.066q-.381.037-.718.066t-.615.037q-.278.007-.41.007,0,.073-.015.249t-.015.234a3.892,3.892,0,0,0,.205,1.252q.205.608.447,1.208t.447,1.2a3.827,3.827,0,0,1,.205,1.245,1.39,1.39,0,0,1-.022.242.548.548,0,0,1-.088.22.417.417,0,0,1-.19.146A.508.508,0,0,1,75.923,0,1.281,1.281,0,0,1,75.1-.63a3.882,3.882,0,0,1-.4-1.15,10.448,10.448,0,0,1-.176-1.414q-.044-.747-.139-1.4a4.271,4.271,0,0,0-.3-1.113.92.92,0,0,0-.659-.564l-2.827-.645q-.059,0-.176-.125a.954.954,0,0,1-.146-.183.163.163,0,0,1-.015-.073A.2.2,0,0,1,70.239-7.383ZM80.6-5.493q0-.088.007-.286t.015-.417q.007-.22.015-.425t.007-.293a1.253,1.253,0,0,1,.417-.381,2.889,2.889,0,0,1,.52-.234,10.045,10.045,0,0,0,.249,1.685q.205.894.439,1.794t.417,1.78A8.071,8.071,0,0,1,82.866-.63a.589.589,0,0,1-.674.659A.859.859,0,0,1,81.5-.308a2.579,2.579,0,0,1-.447-.857,7.768,7.768,0,0,1-.271-1.157,12.592,12.592,0,0,1-.139-1.252Q80.61-4.189,80.6-4.7T80.6-5.493Zm.205-5.493a1.1,1.1,0,0,1,.469.381.71.71,0,0,1,.168.476q-.022.212-.33.293A2.021,2.021,0,0,1,80.083-10a1.461,1.461,0,0,1,.154-.688A.579.579,0,0,1,80.8-10.986Zm2.314,9.258a2.724,2.724,0,0,1,.425-1.509,4.627,4.627,0,0,1,1.055-1.15,7.175,7.175,0,0,1,1.362-.835q.732-.344,1.362-.571t1.055-.366q.425-.139.425-.227a9.652,9.652,0,0,0-.051-1q-.051-.491-.11-.989t-.11-.989a9.369,9.369,0,0,1-.051-.974v-.952q.6-.22.857.044t.081.908q.059.322.161,1.011T89.8-7.778q.125.864.264,1.816t.264,1.824q.125.872.212,1.553t.132,1.018a2.737,2.737,0,0,1,.029.286q.015.212.022.454t.015.447q.007.205.007.293a4.175,4.175,0,0,1-.754-.044.313.313,0,0,1-.249-.176,1.1,1.1,0,0,1-.051-.381,2.347,2.347,0,0,0-.146-.688,8.8,8.8,0,0,1-1.025.7,5.7,5.7,0,0,1-.967.447,4.962,4.962,0,0,1-.974.234,7.877,7.877,0,0,1-1.047.066,4.907,4.907,0,0,1-.9-.081,2.262,2.262,0,0,1-.769-.286A1.559,1.559,0,0,1,83.32-.85,1.722,1.722,0,0,1,83.115-1.729Zm1.274-.308a.65.65,0,0,0,.1.381.92.92,0,0,0,.264.249,1,1,0,0,0,.344.139,1.827,1.827,0,0,0,.359.037,3.51,3.51,0,0,0,1.106-.2,4.157,4.157,0,0,0,1.1-.557,3.237,3.237,0,0,0,.835-.857,1.925,1.925,0,0,0,.33-1.084.94.94,0,0,0-.161-.63.826.826,0,0,0-.615-.176,3.346,3.346,0,0,0-1.091.22,5.936,5.936,0,0,0-1.2.586,3.95,3.95,0,0,0-.974.857A1.623,1.623,0,0,0,84.39-2.036Zm7.222-.937a3.5,3.5,0,0,1,.425-1.692,4.446,4.446,0,0,1,1.121-1.348A5.5,5.5,0,0,1,94.724-6.9a5.055,5.055,0,0,1,1.765-.322,1.349,1.349,0,0,1,.886.322,2.835,2.835,0,0,1,.652.784,4.143,4.143,0,0,1,.4.974,3.479,3.479,0,0,1,.139.894,3.434,3.434,0,0,1-.4,1.589A5,5,0,0,1,97.148-1.3a5.315,5.315,0,0,1-1.421.959,3.738,3.738,0,0,1-1.582.366,2.635,2.635,0,0,1-1.187-.242,2.1,2.1,0,0,1-.776-.645,2.747,2.747,0,0,1-.432-.952A4.727,4.727,0,0,1,91.611-2.974Zm1.245.146a2.988,2.988,0,0,0,.066.667,1.177,1.177,0,0,0,.234.491,1.075,1.075,0,0,0,.447.315,1.884,1.884,0,0,0,.688.11,2.219,2.219,0,0,0,1.084-.3,3.953,3.953,0,0,0,.974-.762,3.967,3.967,0,0,0,.7-1.018,2.523,2.523,0,0,0,.264-1.084,3.305,3.305,0,0,0-.044-.513,2.085,2.085,0,0,0-.146-.513,1.075,1.075,0,0,0-.293-.4.722.722,0,0,0-.483-.161,1.462,1.462,0,0,0-.623.176,5.277,5.277,0,0,0-.747.454,7.432,7.432,0,0,0-.762.63q-.374.352-.681.7a4.162,4.162,0,0,0-.491.674A1.149,1.149,0,0,0,92.856-2.827Zm8.291.6a.478.478,0,0,1,.271.073.4.4,0,0,1,.154.183.932.932,0,0,1,.059.249,2.589,2.589,0,0,1,.015.271,4.736,4.736,0,0,1-.066.725,7.11,7.11,0,0,1-.2.872,7.15,7.15,0,0,1-.33.9,3.871,3.871,0,0,1-.461.791A2.359,2.359,0,0,1,100,2.4a1.311,1.311,0,0,1-.725.212,6.093,6.093,0,0,1,.066-.791q.066-.483.19-1.025t.3-1.077a8.32,8.32,0,0,1,.381-.967,3.115,3.115,0,0,1,.439-.7A.664.664,0,0,1,101.147-2.227Zm7.822-3.926a1.1,1.1,0,0,1,.125-.571q.125-.205.535-.205.044,0,.168.007l.154.007q.1.454.212.989t.256,1.077q.146.542.33,1.069a4.759,4.759,0,0,0,.447.952,1.649,1.649,0,0,0,.381-.659,5.3,5.3,0,0,0,.176-.769q.059-.388.11-.747a1.556,1.556,0,0,1,.212-.615.92.92,0,0,1,.476-.374,1.62,1.62,0,0,1,.872,0,1.848,1.848,0,0,1,.981.227,2.447,2.447,0,0,1,.637.571q.271.344.527.732a2.92,2.92,0,0,0,.652.7l.22-.476a5.367,5.367,0,0,1,.33-.6q.2-.315.425-.63a5.088,5.088,0,0,1,.476-.571,2.884,2.884,0,0,1,.513-.425.953.953,0,0,1,.513-.168,1.554,1.554,0,0,1,1.04.374,3.37,3.37,0,0,1,.754.938,6.13,6.13,0,0,1,.52,1.26,12.934,12.934,0,0,1,.322,1.34q.117.645.168,1.179t.051.769a.437.437,0,0,1-.088.293.544.544,0,0,1-.22.154,1.062,1.062,0,0,1-.286.066q-.154.015-.286.015a.777.777,0,0,1-.088-.007q-.059-.007-.132-.022l-.161-.044-.952-4.38q0-.044-.117-.168a.786.786,0,0,0-.176-.154.163.163,0,0,1-.073-.015.1.1,0,0,1-.044-.007.065.065,0,0,0-.029-.007.844.844,0,0,0-.579.249,2.943,2.943,0,0,0-.505.63,6.89,6.89,0,0,0-.439.85q-.205.469-.366.93t-.286.85q-.125.388-.2.593a.849.849,0,0,1-.234.051q-.176.022-.234.022a.747.747,0,0,1-.63-.286,2.362,2.362,0,0,1-.359-.71,7.384,7.384,0,0,1-.234-.93,7.384,7.384,0,0,0-.234-.93,2.1,2.1,0,0,0-.381-.71.843.843,0,0,0-.681-.286q-.161,0-.308.322a4.549,4.549,0,0,0-.264.813q-.117.491-.22,1.055t-.168,1.055q-.066.491-.1.828l-.029.337a.359.359,0,0,1-.117.1l-.183.11a.829.829,0,0,1-.19.088.539.539,0,0,1-.139.029,1.13,1.13,0,0,1-.791-.374,3.91,3.91,0,0,1-.7-.967,9.887,9.887,0,0,1-.571-1.311q-.256-.718-.432-1.406T109.065-5.3A5.466,5.466,0,0,1,108.97-6.152Zm13.8.659q0-.088.007-.286t.015-.417q.007-.22.015-.425t.007-.293a1.253,1.253,0,0,1,.417-.381,2.889,2.889,0,0,1,.52-.234A10.045,10.045,0,0,0,124-5.845q.205.894.439,1.794t.417,1.78a8.071,8.071,0,0,1,.183,1.641.589.589,0,0,1-.674.659.859.859,0,0,1-.688-.337,2.579,2.579,0,0,1-.447-.857,7.768,7.768,0,0,1-.271-1.157,12.592,12.592,0,0,1-.139-1.252q-.037-.615-.044-1.128T122.769-5.493Zm.205-5.493a1.1,1.1,0,0,1,.469.381.71.71,0,0,1,.168.476q-.022.212-.33.293A2.021,2.021,0,0,1,122.256-10a1.461,1.461,0,0,1,.154-.688A.579.579,0,0,1,122.974-10.986Zm2.637,6.914a6.738,6.738,0,0,1,.19-1.582,4.421,4.421,0,0,1,.608-1.421A3.3,3.3,0,0,1,127.493-8.1a3.119,3.119,0,0,1,1.619-.4,2.168,2.168,0,0,1,.952.2,2.1,2.1,0,0,1,.688.52,2.146,2.146,0,0,1,.417.754,2.921,2.921,0,0,1,.139.9,3.262,3.262,0,0,1-.344,1.45,4.166,4.166,0,0,1-.923,1.238,3.886,3.886,0,0,1-1.326.806,2.844,2.844,0,0,1-1.523.125.941.941,0,0,0,.286.681,1.783,1.783,0,0,0,.652.388,3.308,3.308,0,0,0,.791.168q.41.037.732.037a3.211,3.211,0,0,0,.63-.059q.293-.059.586-.132t.593-.132a3.324,3.324,0,0,1,.637-.059,2.386,2.386,0,0,1,.264.015.852.852,0,0,1,.249.066.435.435,0,0,1,.19.161.478.478,0,0,1,.073.271.592.592,0,0,1-.205.461,1.841,1.841,0,0,1-.52.315,3.22,3.22,0,0,1-.7.2q-.381.066-.74.1t-.659.044q-.3.007-.447.007a4.483,4.483,0,0,1-1.685-.3,3.555,3.555,0,0,1-1.26-.835,3.587,3.587,0,0,1-.784-1.289A4.933,4.933,0,0,1,125.61-4.072Zm1.553-.952a1.521,1.521,0,0,0,.139.747q.139.234.681.234a2.087,2.087,0,0,0,.747-.139,2.338,2.338,0,0,0,.667-.388,1.893,1.893,0,0,0,.476-.586,1.56,1.56,0,0,0,.176-.732,2.941,2.941,0,0,0-.037-.454,1.2,1.2,0,0,0-.154-.432,1,1,0,0,0-.3-.322.831.831,0,0,0-.476-.125,1.626,1.626,0,0,0-.8.2,1.991,1.991,0,0,0-.608.513,2.335,2.335,0,0,0-.381.7A2.423,2.423,0,0,0,127.163-5.024Zm6.621.088a.7.7,0,0,1,.19-.549.918.918,0,0,1,.615-.168h.146q.044.234.1.542a4.077,4.077,0,0,0,.176.63,3.494,3.494,0,0,0,.278.593,1.353,1.353,0,0,0,.4.432,2.307,2.307,0,0,1,.256-.989,3.514,3.514,0,0,1,.6-.85,3.74,3.74,0,0,1,.791-.63,2.792,2.792,0,0,1,.857-.344h.322a2.2,2.2,0,0,1,1.2.315,2.706,2.706,0,0,1,.828.82,4.03,4.03,0,0,1,.505,1.15,10.762,10.762,0,0,1,.271,1.311,12.151,12.151,0,0,1,.117,1.289q.022.623.022,1.062h-1.069q-.088-.879-.22-1.685-.044-.322-.117-.681t-.161-.674q-.088-.315-.19-.586a2.14,2.14,0,0,0-.234-.461q-.059-.059-.154-.161t-.2-.205q-.1-.1-.19-.176a.393.393,0,0,0-.1-.073.779.779,0,0,0-.762.168,2.61,2.61,0,0,0-.571.769,5.089,5.089,0,0,0-.4,1.1q-.154.615-.256,1.179t-.146.981q-.044.417-.059.505a.741.741,0,0,1-.688.154,1.376,1.376,0,0,1-.608-.461,3.723,3.723,0,0,1-.513-.879q-.227-.527-.417-1.121t-.344-1.194Q133.9-4.424,133.784-4.937Zm8.159-2.446a.163.163,0,0,1,.015-.073.241.241,0,0,1,.015-.073,2.488,2.488,0,0,1,.176-.19q.117-.117.146-.117h2.944a4.644,4.644,0,0,0-.044-.513q-.044-.352-.081-.776a7.537,7.537,0,0,1-.022-.886,3.333,3.333,0,0,1,.125-.835,1.417,1.417,0,0,1,.352-.615.921.921,0,0,1,.681-.242,11.01,11.01,0,0,0,.205,2.373A3.9,3.9,0,0,0,147-7.954a1.6,1.6,0,0,0,.784.63,2.456,2.456,0,0,0,.9.125,4.275,4.275,0,0,0,.9-.139,6.068,6.068,0,0,1,.784-.161.915.915,0,0,1,.549.066q.205.11.205.52a.585.585,0,0,1-.139.439,1.1,1.1,0,0,1-.535.205l-.388.051q-.271.037-.608.066t-.718.066q-.381.037-.718.066t-.615.037q-.278.007-.41.007,0,.073-.015.249t-.015.234a3.892,3.892,0,0,0,.205,1.252q.205.608.447,1.208t.447,1.2a3.827,3.827,0,0,1,.205,1.245,1.39,1.39,0,0,1-.022.242.548.548,0,0,1-.088.22.417.417,0,0,1-.19.146A.508.508,0,0,1,147.627,0a1.281,1.281,0,0,1-.828-.63,3.882,3.882,0,0,1-.4-1.15,10.448,10.448,0,0,1-.176-1.414q-.044-.747-.139-1.4a4.271,4.271,0,0,0-.3-1.113.92.92,0,0,0-.659-.564l-2.827-.645q-.059,0-.176-.125a.954.954,0,0,1-.146-.183.163.163,0,0,1-.015-.073A.2.2,0,0,1,141.943-7.383Zm9.741,1.23a2.589,2.589,0,0,1,.015-.271.932.932,0,0,1,.059-.249.428.428,0,0,1,.139-.183.437.437,0,0,1,.271-.073q.146,0,.33.227a4,4,0,0,1,.374.571q.19.344.374.754t.322.754q.139.344.227.593a1.952,1.952,0,0,0,.1.264q.19-.513.425-1.113A5.926,5.926,0,0,1,154.9-6a3.413,3.413,0,0,1,.82-.872,1.906,1.906,0,0,1,1.165-.352,2.009,2.009,0,0,1,.667.11,1.665,1.665,0,0,1,.557.322,1.645,1.645,0,0,1,.388.505,1.487,1.487,0,0,1,.146.674.468.468,0,0,1-.256.454,1.247,1.247,0,0,1-.579.132h-.146l-.63-.63a.06.06,0,0,1-.044-.015.162.162,0,0,1-.051-.007.162.162,0,0,0-.051-.007,1.079,1.079,0,0,0-.8.286,1.838,1.838,0,0,0-.432.7,3.473,3.473,0,0,0-.183.879q-.037.461-.037.842a3.092,3.092,0,0,0,.059.593q.059.3.132.586t.132.586a3.244,3.244,0,0,1,.059.623q0,.615-.659.615a1.126,1.126,0,0,1-.762-.388,5.775,5.775,0,0,1-.784-.989,12.438,12.438,0,0,1-.74-1.326q-.352-.725-.615-1.414t-.417-1.245A3.468,3.468,0,0,1,151.685-6.152ZM165.469-1.89q-.557.381-.959.681a6.383,6.383,0,0,1-.784.505,3.327,3.327,0,0,1-.813.308,4.681,4.681,0,0,1-1.062.1,2.6,2.6,0,0,1-2.021-.725,3.117,3.117,0,0,1-.659-2.161,4.88,4.88,0,0,1,.146-1.157,6.06,6.06,0,0,1,.432-1.194,7,7,0,0,1,.681-1.128,5.3,5.3,0,0,1,.894-.945,4.382,4.382,0,0,1,1.062-.652,3,3,0,0,1,1.194-.242,3.471,3.471,0,0,1,1.655.52,2.671,2.671,0,0,1,.908,1.069,5.123,5.123,0,0,1,.425,1.45q.117.8.183,1.648t.168,1.7a5.376,5.376,0,0,0,.425,1.567,2.546,2.546,0,0,1-.359.681.259.259,0,0,1-.374.066,1.791,1.791,0,0,1-.476-.645Q165.864-.952,165.469-1.89Zm-5.054-1.26a1.932,1.932,0,0,0,.315,1.223,1.375,1.375,0,0,0,1.121.388A3.161,3.161,0,0,0,163-1.75a3.034,3.034,0,0,0,.959-.586,2.848,2.848,0,0,0,.659-.9,2.71,2.71,0,0,0,.249-1.172q0-.264.015-.74a5.093,5.093,0,0,0-.059-.945,2.253,2.253,0,0,0-.278-.813.67.67,0,0,0-.615-.344,2.676,2.676,0,0,0-1.406.388,4.058,4.058,0,0,0-1.113.989,4.814,4.814,0,0,0-.732,1.326A4.086,4.086,0,0,0,160.415-3.149Zm10.664,2.49q.234-.161.564-.417t.667-.549a7.509,7.509,0,0,0,.63-.615,3.452,3.452,0,0,0,.461-.623,1.161,1.161,0,0,0,.168-.564.516.516,0,0,0-.264-.439q-.469,0-1.025.037t-1.113.029a7.006,7.006,0,0,1-1.077-.1,2.8,2.8,0,0,1-.93-.322,1.712,1.712,0,0,1-.652-.667,2.249,2.249,0,0,1-.242-1.106,3.309,3.309,0,0,1,.3-1.428,3.911,3.911,0,0,1,.8-1.128,5.951,5.951,0,0,1,1.121-.864,9.763,9.763,0,0,1,1.252-.637,1.87,1.87,0,0,1,.7.366A3.151,3.151,0,0,1,173-9.1a.865.865,0,0,1-.4.5,3.745,3.745,0,0,1-.688.308l-.813.278a3.073,3.073,0,0,0-.769.388,2.054,2.054,0,0,0-.579.63,1.952,1.952,0,0,0-.234,1.018.9.9,0,0,0,.234.688,1.258,1.258,0,0,0,.615.3,3.438,3.438,0,0,0,.864.059q.483-.022.989-.066t.989-.051a2.646,2.646,0,0,1,.864.117,1.273,1.273,0,0,1,.608.4,1.274,1.274,0,0,1,.227.82,1.638,1.638,0,0,1-.154.6,5.825,5.825,0,0,1-.41.784,6.937,6.937,0,0,1-.6.828,6.9,6.9,0,0,1-.718.74,4.5,4.5,0,0,1-.747.542,1.422,1.422,0,0,1-.7.212.392.392,0,0,1-.4-.22A1.1,1.1,0,0,1,171.079-.659Z" transform="translate(0.203 39.596)" fill="#12263f"/>
    <path id="Trazado_135648" data-name="Trazado 135648" d="M5.522-1.9a1.806,1.806,0,0,0-.6.1q-.293.1-.586.234t-.593.234a1.958,1.958,0,0,1-.637.1,3,3,0,0,1-1.157-.212,2.489,2.489,0,0,1-.872-.593,2.693,2.693,0,0,1-.557-.9,3.169,3.169,0,0,1-.2-1.135A2.739,2.739,0,0,1,.63-5.427a2.536,2.536,0,0,1,.813-.886,3.31,3.31,0,0,1,1.15-.476,6.229,6.229,0,0,1,1.318-.139,2.312,2.312,0,0,1,1.348.491A4.745,4.745,0,0,1,6.335-5.244,8.807,8.807,0,0,1,7.163-3.6a14.746,14.746,0,0,1,.579,1.868A15.662,15.662,0,0,1,8.071.117a11.906,11.906,0,0,1,.088,1.589,4.836,4.836,0,0,1-.125,1.106q-.11.41-.33.366a.831.831,0,0,1-.593-.344,2.214,2.214,0,0,1-.308-.71,4.5,4.5,0,0,1-.132-.93Q6.65.688,6.636.183T6.584-.784a3.179,3.179,0,0,0-.139-.762.7.7,0,0,0-.322-.417A.68.68,0,0,0,5.522-1.9ZM1.567-3.926a1.105,1.105,0,0,0,.125.5,1.741,1.741,0,0,0,.33.454,1.891,1.891,0,0,0,.454.337,1.056,1.056,0,0,0,.5.132,2.525,2.525,0,0,0,.645-.11,3.533,3.533,0,0,0,.776-.322,2.852,2.852,0,0,0,.659-.5.893.893,0,0,0,.278-.637,5.547,5.547,0,0,0-.059-.864,1.608,1.608,0,0,0-.205-.6.854.854,0,0,0-.425-.344,2.03,2.03,0,0,0-.732-.11,2.046,2.046,0,0,0-.776.168,2.8,2.8,0,0,0-.754.461,2.886,2.886,0,0,0-.579.667A1.429,1.429,0,0,0,1.567-3.926Zm6.8-2.051q0-.088.007-.315t.007-.476q0-.249.007-.461t.007-.3a2.591,2.591,0,0,1,.242-.344.8.8,0,0,1,.293-.234.524.524,0,0,1,.337-.022.725.725,0,0,1,.374.293v.308q-.015.073-.059.344t-.1.593q-.059.322-.11.593a2.571,2.571,0,0,0-.051.344,5.17,5.17,0,0,0,.059.7q.059.417.168.872a8.059,8.059,0,0,0,.278.908,4.071,4.071,0,0,0,.4.813,2.591,2.591,0,0,0,.52.593,1.019,1.019,0,0,0,.667.234,1.416,1.416,0,0,0,.828-.249,2.378,2.378,0,0,0,.623-.645,3.793,3.793,0,0,0,.432-.894,8.248,8.248,0,0,0,.271-1,9.244,9.244,0,0,0,.146-.974q.044-.469.044-.82A4.147,4.147,0,0,0,13.7-6.79q-.051-.315-.125-.623t-.125-.608a3.606,3.606,0,0,1-.051-.608.423.423,0,0,1,.2-.4.86.86,0,0,1,.447-.117.689.689,0,0,1,.5.183,1.282,1.282,0,0,1,.3.461,2.4,2.4,0,0,1,.146.637,7,7,0,0,1,.037.71q0,.352-.015.667T15-5.977a9.869,9.869,0,0,1-.073,1.128,8.682,8.682,0,0,1-.256,1.3,10.677,10.677,0,0,1-.454,1.311,5.159,5.159,0,0,1-.659,1.15,3.268,3.268,0,0,1-.894.813,2.14,2.14,0,0,1-1.135.308,2.119,2.119,0,0,1-1.157-.315,2.8,2.8,0,0,1-.842-.835A5.409,5.409,0,0,1,8.95-2.3a8.818,8.818,0,0,1-.359-1.318A12.387,12.387,0,0,1,8.416-4.9Q8.364-5.522,8.364-5.977Zm7.529,1.9a6.738,6.738,0,0,1,.19-1.582,4.421,4.421,0,0,1,.608-1.421A3.3,3.3,0,0,1,17.776-8.1a3.119,3.119,0,0,1,1.619-.4,2.168,2.168,0,0,1,.952.2,2.1,2.1,0,0,1,.688.52,2.146,2.146,0,0,1,.417.754,2.921,2.921,0,0,1,.139.9,3.262,3.262,0,0,1-.344,1.45,4.166,4.166,0,0,1-.923,1.238A3.886,3.886,0,0,1,19-2.629a2.844,2.844,0,0,1-1.523.125.941.941,0,0,0,.286.681,1.783,1.783,0,0,0,.652.388,3.308,3.308,0,0,0,.791.168q.41.037.732.037a3.211,3.211,0,0,0,.63-.059q.293-.059.586-.132t.593-.132a3.324,3.324,0,0,1,.637-.059,2.386,2.386,0,0,1,.264.015.852.852,0,0,1,.249.066.435.435,0,0,1,.19.161.478.478,0,0,1,.073.271.592.592,0,0,1-.205.461,1.841,1.841,0,0,1-.52.315,3.22,3.22,0,0,1-.7.2q-.381.066-.74.1t-.659.044q-.3.007-.447.007a4.483,4.483,0,0,1-1.685-.3,3.555,3.555,0,0,1-1.26-.835A3.587,3.587,0,0,1,16.165-2.4,4.933,4.933,0,0,1,15.894-4.072Zm1.553-.952a1.521,1.521,0,0,0,.139.747q.139.234.681.234a2.087,2.087,0,0,0,.747-.139,2.338,2.338,0,0,0,.667-.388,1.893,1.893,0,0,0,.476-.586,1.56,1.56,0,0,0,.176-.732,2.941,2.941,0,0,0-.037-.454,1.2,1.2,0,0,0-.154-.432,1,1,0,0,0-.3-.322.831.831,0,0,0-.476-.125,1.626,1.626,0,0,0-.8.2,1.991,1.991,0,0,0-.608.513,2.335,2.335,0,0,0-.381.7A2.423,2.423,0,0,0,17.446-5.024ZM30.5-7.383a.163.163,0,0,1,.015-.073.241.241,0,0,1,.015-.073,2.488,2.488,0,0,1,.176-.19q.117-.117.146-.117h2.944a4.644,4.644,0,0,0-.044-.513q-.044-.352-.081-.776a7.537,7.537,0,0,1-.022-.886,3.333,3.333,0,0,1,.125-.835,1.417,1.417,0,0,1,.352-.615A.921.921,0,0,1,34.8-11.7a11.01,11.01,0,0,0,.205,2.373,3.9,3.9,0,0,0,.549,1.377,1.6,1.6,0,0,0,.784.63,2.456,2.456,0,0,0,.9.125,4.275,4.275,0,0,0,.9-.139,6.068,6.068,0,0,1,.784-.161.915.915,0,0,1,.549.066q.205.11.205.52a.585.585,0,0,1-.139.439,1.1,1.1,0,0,1-.535.205l-.388.051q-.271.037-.608.066t-.718.066q-.381.037-.718.066t-.615.037q-.278.007-.41.007,0,.073-.015.249t-.015.234a3.892,3.892,0,0,0,.205,1.252q.205.608.447,1.208t.447,1.2a3.827,3.827,0,0,1,.205,1.245,1.39,1.39,0,0,1-.022.242.548.548,0,0,1-.088.22.417.417,0,0,1-.19.146A.508.508,0,0,1,36.182,0a1.281,1.281,0,0,1-.828-.63,3.882,3.882,0,0,1-.4-1.15,10.448,10.448,0,0,1-.176-1.414q-.044-.747-.139-1.4a4.271,4.271,0,0,0-.3-1.113.92.92,0,0,0-.659-.564L30.85-6.914q-.059,0-.176-.125a.954.954,0,0,1-.146-.183.163.163,0,0,1-.015-.073A.2.2,0,0,1,30.5-7.383Zm9.741,1.406q0-.088.007-.315t.007-.476q0-.249.007-.461t.007-.3a2.591,2.591,0,0,1,.242-.344.8.8,0,0,1,.293-.234.524.524,0,0,1,.337-.022.725.725,0,0,1,.374.293v.308q-.015.073-.059.344t-.1.593q-.059.322-.11.593a2.571,2.571,0,0,0-.051.344,5.17,5.17,0,0,0,.059.7q.059.417.168.872a8.059,8.059,0,0,0,.278.908,4.071,4.071,0,0,0,.4.813,2.591,2.591,0,0,0,.52.593,1.019,1.019,0,0,0,.667.234,1.416,1.416,0,0,0,.828-.249,2.378,2.378,0,0,0,.623-.645,3.793,3.793,0,0,0,.432-.894,8.248,8.248,0,0,0,.271-1,9.244,9.244,0,0,0,.146-.974q.044-.469.044-.82a4.147,4.147,0,0,0-.051-.667q-.051-.315-.125-.623T45.33-8.02a3.606,3.606,0,0,1-.051-.608.423.423,0,0,1,.2-.4.86.86,0,0,1,.447-.117.689.689,0,0,1,.5.183,1.282,1.282,0,0,1,.3.461,2.4,2.4,0,0,1,.146.637,7,7,0,0,1,.037.71q0,.352-.015.667t-.015.505A9.869,9.869,0,0,1,46.8-4.849a8.682,8.682,0,0,1-.256,1.3,10.677,10.677,0,0,1-.454,1.311,5.159,5.159,0,0,1-.659,1.15,3.268,3.268,0,0,1-.894.813A2.14,2.14,0,0,1,43.4.029a2.119,2.119,0,0,1-1.157-.315,2.8,2.8,0,0,1-.842-.835A5.409,5.409,0,0,1,40.825-2.3a8.818,8.818,0,0,1-.359-1.318A12.387,12.387,0,0,1,40.291-4.9Q40.239-5.522,40.239-5.977ZM45.132-12,43.55-9.653a.389.389,0,0,1-.352.176.392.392,0,0,1-.271-.168.65.65,0,0,1-.1-.352.634.634,0,0,1,.154-.417.741.741,0,0,0,.1-.125q.051-.081.066-.11.146-.234.337-.527t.4-.549a5.511,5.511,0,0,1,.4-.454,1.1,1.1,0,0,1,.374-.264.3.3,0,0,1,.3.029A.679.679,0,0,1,45.132-12ZM57.334-.659q.234-.161.564-.417t.667-.549a7.509,7.509,0,0,0,.63-.615,3.452,3.452,0,0,0,.461-.623,1.161,1.161,0,0,0,.168-.564.516.516,0,0,0-.264-.439q-.469,0-1.025.037T57.422-3.8a7.006,7.006,0,0,1-1.077-.1,2.8,2.8,0,0,1-.93-.322,1.712,1.712,0,0,1-.652-.667,2.249,2.249,0,0,1-.242-1.106,3.309,3.309,0,0,1,.3-1.428,3.911,3.911,0,0,1,.8-1.128,5.951,5.951,0,0,1,1.121-.864,9.763,9.763,0,0,1,1.252-.637,1.87,1.87,0,0,1,.7.366,3.151,3.151,0,0,1,.557.586.865.865,0,0,1-.4.5,3.745,3.745,0,0,1-.688.308l-.813.278a3.073,3.073,0,0,0-.769.388,2.054,2.054,0,0,0-.579.63,1.952,1.952,0,0,0-.234,1.018A.9.9,0,0,0,56-5.288a1.258,1.258,0,0,0,.615.3,3.438,3.438,0,0,0,.864.059q.483-.022.989-.066t.989-.051a2.646,2.646,0,0,1,.864.117,1.273,1.273,0,0,1,.608.4,1.274,1.274,0,0,1,.227.82,1.638,1.638,0,0,1-.154.6,5.825,5.825,0,0,1-.41.784,6.937,6.937,0,0,1-.6.828,6.9,6.9,0,0,1-.718.74,4.5,4.5,0,0,1-.747.542,1.422,1.422,0,0,1-.7.212.392.392,0,0,1-.4-.22A1.1,1.1,0,0,1,57.334-.659Zm4.409-2.314a3.5,3.5,0,0,1,.425-1.692,4.446,4.446,0,0,1,1.121-1.348A5.5,5.5,0,0,1,64.856-6.9a5.055,5.055,0,0,1,1.765-.322,1.349,1.349,0,0,1,.886.322,2.835,2.835,0,0,1,.652.784,4.143,4.143,0,0,1,.4.974,3.479,3.479,0,0,1,.139.894,3.434,3.434,0,0,1-.4,1.589A5,5,0,0,1,67.28-1.3a5.315,5.315,0,0,1-1.421.959,3.738,3.738,0,0,1-1.582.366,2.635,2.635,0,0,1-1.187-.242,2.1,2.1,0,0,1-.776-.645,2.747,2.747,0,0,1-.432-.952A4.727,4.727,0,0,1,61.743-2.974Zm1.245.146a2.988,2.988,0,0,0,.066.667,1.177,1.177,0,0,0,.234.491,1.075,1.075,0,0,0,.447.315,1.884,1.884,0,0,0,.688.11,2.219,2.219,0,0,0,1.084-.3,3.953,3.953,0,0,0,.974-.762,3.967,3.967,0,0,0,.7-1.018,2.523,2.523,0,0,0,.264-1.084,3.305,3.305,0,0,0-.044-.513,2.085,2.085,0,0,0-.146-.513,1.075,1.075,0,0,0-.293-.4.722.722,0,0,0-.483-.161,1.462,1.462,0,0,0-.623.176,5.277,5.277,0,0,0-.747.454,7.432,7.432,0,0,0-.762.63q-.374.352-.681.7a4.162,4.162,0,0,0-.491.674A1.149,1.149,0,0,0,62.988-2.827ZM66.5-10.84,64.922-8.5a.389.389,0,0,1-.352.176.392.392,0,0,1-.271-.168.65.65,0,0,1-.1-.352.634.634,0,0,1,.154-.417.741.741,0,0,0,.1-.125q.051-.081.066-.11.146-.234.337-.527t.4-.549a5.511,5.511,0,0,1,.4-.454,1.1,1.1,0,0,1,.374-.264.3.3,0,0,1,.3.029A.679.679,0,0,1,66.5-10.84Zm3.12,2.549a5.744,5.744,0,0,0-.059-.828,3.061,3.061,0,0,1-.029-.718.774.774,0,0,1,.227-.505,1.05,1.05,0,0,1,.725-.19A5.108,5.108,0,0,1,70.8-9.507q.154.688.3,1.582t.278,1.941q.132,1.047.242,2.1t.19,2.073q.081,1.018.125,1.853-.483.322-.776.044a2.094,2.094,0,0,1-.483-.945,9.808,9.808,0,0,1-.293-1.626q-.1-.959-.2-1.992t-.227-2.036A14.333,14.333,0,0,0,69.624-8.291ZM72.7-2.974a3.5,3.5,0,0,1,.425-1.692,4.446,4.446,0,0,1,1.121-1.348A5.5,5.5,0,0,1,75.813-6.9a5.055,5.055,0,0,1,1.765-.322,1.349,1.349,0,0,1,.886.322,2.835,2.835,0,0,1,.652.784,4.143,4.143,0,0,1,.4.974,3.479,3.479,0,0,1,.139.894,3.434,3.434,0,0,1-.4,1.589A5,5,0,0,1,78.237-1.3a5.315,5.315,0,0,1-1.421.959,3.738,3.738,0,0,1-1.582.366,2.635,2.635,0,0,1-1.187-.242,2.1,2.1,0,0,1-.776-.645,2.747,2.747,0,0,1-.432-.952A4.727,4.727,0,0,1,72.7-2.974Zm1.245.146a2.988,2.988,0,0,0,.066.667,1.177,1.177,0,0,0,.234.491,1.075,1.075,0,0,0,.447.315,1.884,1.884,0,0,0,.688.11,2.219,2.219,0,0,0,1.084-.3,3.953,3.953,0,0,0,.974-.762,3.967,3.967,0,0,0,.7-1.018A2.523,2.523,0,0,0,78.4-4.409a3.305,3.305,0,0,0-.044-.513,2.085,2.085,0,0,0-.146-.513,1.075,1.075,0,0,0-.293-.4.722.722,0,0,0-.483-.161,1.462,1.462,0,0,0-.623.176,5.277,5.277,0,0,0-.747.454,7.432,7.432,0,0,0-.762.63q-.374.352-.681.7a4.162,4.162,0,0,0-.491.674A1.149,1.149,0,0,0,73.945-2.827ZM86.982-4.072a6.738,6.738,0,0,1,.19-1.582,4.421,4.421,0,0,1,.608-1.421A3.3,3.3,0,0,1,88.865-8.1a3.119,3.119,0,0,1,1.619-.4,2.168,2.168,0,0,1,.952.2,2.1,2.1,0,0,1,.688.52,2.146,2.146,0,0,1,.417.754,2.921,2.921,0,0,1,.139.9,3.262,3.262,0,0,1-.344,1.45,4.166,4.166,0,0,1-.923,1.238,3.886,3.886,0,0,1-1.326.806,2.844,2.844,0,0,1-1.523.125.941.941,0,0,0,.286.681,1.783,1.783,0,0,0,.652.388,3.308,3.308,0,0,0,.791.168q.41.037.732.037a3.211,3.211,0,0,0,.63-.059q.293-.059.586-.132t.593-.132a3.324,3.324,0,0,1,.637-.059,2.386,2.386,0,0,1,.264.015.852.852,0,0,1,.249.066.435.435,0,0,1,.19.161.478.478,0,0,1,.073.271.592.592,0,0,1-.205.461,1.841,1.841,0,0,1-.52.315,3.22,3.22,0,0,1-.7.2q-.381.066-.74.1t-.659.044q-.3.007-.447.007a4.483,4.483,0,0,1-1.685-.3,3.555,3.555,0,0,1-1.26-.835A3.587,3.587,0,0,1,87.253-2.4,4.933,4.933,0,0,1,86.982-4.072Zm1.553-.952a1.521,1.521,0,0,0,.139.747q.139.234.681.234a2.087,2.087,0,0,0,.747-.139,2.338,2.338,0,0,0,.667-.388,1.893,1.893,0,0,0,.476-.586,1.56,1.56,0,0,0,.176-.732,2.941,2.941,0,0,0-.037-.454,1.2,1.2,0,0,0-.154-.432,1,1,0,0,0-.3-.322.831.831,0,0,0-.476-.125,1.626,1.626,0,0,0-.8.2,1.991,1.991,0,0,0-.608.513,2.335,2.335,0,0,0-.381.7A2.423,2.423,0,0,0,88.535-5.024ZM97.969-.659q.234-.161.564-.417t.667-.549a7.509,7.509,0,0,0,.63-.615,3.452,3.452,0,0,0,.461-.623,1.161,1.161,0,0,0,.168-.564.516.516,0,0,0-.264-.439q-.469,0-1.025.037T98.057-3.8a7.006,7.006,0,0,1-1.077-.1,2.8,2.8,0,0,1-.93-.322,1.712,1.712,0,0,1-.652-.667,2.249,2.249,0,0,1-.242-1.106,3.309,3.309,0,0,1,.3-1.428,3.911,3.911,0,0,1,.8-1.128,5.951,5.951,0,0,1,1.121-.864,9.763,9.763,0,0,1,1.252-.637,1.87,1.87,0,0,1,.7.366,3.151,3.151,0,0,1,.557.586.865.865,0,0,1-.4.5,3.745,3.745,0,0,1-.688.308l-.813.278a3.073,3.073,0,0,0-.769.388,2.054,2.054,0,0,0-.579.63A1.952,1.952,0,0,0,96.4-5.977a.9.9,0,0,0,.234.688,1.258,1.258,0,0,0,.615.3,3.438,3.438,0,0,0,.864.059Q98.6-4.951,99.1-5t.989-.051a2.646,2.646,0,0,1,.864.117,1.273,1.273,0,0,1,.608.4,1.274,1.274,0,0,1,.227.82,1.638,1.638,0,0,1-.154.6,5.825,5.825,0,0,1-.41.784,6.937,6.937,0,0,1-.6.828,6.9,6.9,0,0,1-.718.74,4.5,4.5,0,0,1-.747.542,1.422,1.422,0,0,1-.7.212.392.392,0,0,1-.4-.22A1.1,1.1,0,0,1,97.969-.659Zm4.087-6.724a.163.163,0,0,1,.015-.073.241.241,0,0,1,.015-.073,2.488,2.488,0,0,1,.176-.19q.117-.117.146-.117h2.944a4.644,4.644,0,0,0-.044-.513q-.044-.352-.081-.776a7.537,7.537,0,0,1-.022-.886,3.333,3.333,0,0,1,.125-.835,1.417,1.417,0,0,1,.352-.615.921.921,0,0,1,.681-.242,11.01,11.01,0,0,0,.205,2.373,3.9,3.9,0,0,0,.549,1.377,1.6,1.6,0,0,0,.784.63,2.456,2.456,0,0,0,.9.125,4.275,4.275,0,0,0,.9-.139,6.068,6.068,0,0,1,.784-.161.915.915,0,0,1,.549.066q.205.11.205.52a.585.585,0,0,1-.139.439,1.1,1.1,0,0,1-.535.205l-.388.051q-.271.037-.608.066t-.718.066q-.381.037-.718.066t-.615.037q-.278.007-.41.007,0,.073-.015.249t-.015.234a3.892,3.892,0,0,0,.205,1.252q.205.608.447,1.208t.447,1.2a3.827,3.827,0,0,1,.205,1.245,1.39,1.39,0,0,1-.022.242.548.548,0,0,1-.088.22.417.417,0,0,1-.19.146A.508.508,0,0,1,107.739,0a1.281,1.281,0,0,1-.828-.63,3.882,3.882,0,0,1-.4-1.15,10.448,10.448,0,0,1-.176-1.414q-.044-.747-.139-1.4a4.271,4.271,0,0,0-.3-1.113.92.92,0,0,0-.659-.564l-2.827-.645q-.059,0-.176-.125a.954.954,0,0,1-.146-.183.163.163,0,0,1-.015-.073A.2.2,0,0,1,102.056-7.383ZM118.1-1.89q-.557.381-.959.681a6.383,6.383,0,0,1-.784.505,3.327,3.327,0,0,1-.813.308,4.681,4.681,0,0,1-1.062.1,2.6,2.6,0,0,1-2.021-.725,3.117,3.117,0,0,1-.659-2.161,4.88,4.88,0,0,1,.146-1.157,6.06,6.06,0,0,1,.432-1.194,7,7,0,0,1,.681-1.128,5.3,5.3,0,0,1,.894-.945,4.382,4.382,0,0,1,1.062-.652,3,3,0,0,1,1.194-.242,3.471,3.471,0,0,1,1.655.52,2.671,2.671,0,0,1,.908,1.069,5.123,5.123,0,0,1,.425,1.45q.117.8.183,1.648t.168,1.7a5.376,5.376,0,0,0,.425,1.567,2.546,2.546,0,0,1-.359.681.259.259,0,0,1-.374.066,1.791,1.791,0,0,1-.476-.645Q118.491-.952,118.1-1.89Zm-5.054-1.26a1.932,1.932,0,0,0,.315,1.223,1.375,1.375,0,0,0,1.121.388,3.161,3.161,0,0,0,1.15-.212,3.034,3.034,0,0,0,.959-.586,2.848,2.848,0,0,0,.659-.9,2.71,2.71,0,0,0,.249-1.172q0-.264.015-.74a5.093,5.093,0,0,0-.059-.945,2.253,2.253,0,0,0-.278-.813.67.67,0,0,0-.615-.344,2.676,2.676,0,0,0-1.406.388,4.058,4.058,0,0,0-1.113.989,4.814,4.814,0,0,0-.732,1.326A4.086,4.086,0,0,0,113.042-3.149Zm7.852-3a2.589,2.589,0,0,1,.015-.271.932.932,0,0,1,.059-.249.428.428,0,0,1,.139-.183.437.437,0,0,1,.271-.073q.146,0,.33.227a4,4,0,0,1,.374.571q.19.344.374.754t.322.754q.139.344.227.593a1.952,1.952,0,0,0,.1.264q.19-.513.425-1.113A5.926,5.926,0,0,1,124.109-6a3.413,3.413,0,0,1,.82-.872,1.906,1.906,0,0,1,1.165-.352,2.009,2.009,0,0,1,.667.11,1.665,1.665,0,0,1,.557.322,1.645,1.645,0,0,1,.388.505,1.487,1.487,0,0,1,.146.674.468.468,0,0,1-.256.454,1.247,1.247,0,0,1-.579.132h-.146l-.63-.63a.06.06,0,0,1-.044-.015.162.162,0,0,1-.051-.007.162.162,0,0,0-.051-.007,1.079,1.079,0,0,0-.8.286,1.838,1.838,0,0,0-.432.7,3.473,3.473,0,0,0-.183.879q-.037.461-.037.842a3.092,3.092,0,0,0,.059.593q.059.3.132.586t.132.586a3.244,3.244,0,0,1,.059.623q0,.615-.659.615a1.126,1.126,0,0,1-.762-.388,5.775,5.775,0,0,1-.784-.989,12.438,12.438,0,0,1-.74-1.326q-.352-.725-.615-1.414t-.417-1.245A3.468,3.468,0,0,1,120.894-6.152Zm8.1.659q0-.088.007-.286t.015-.417q.007-.22.015-.425t.007-.293a1.253,1.253,0,0,1,.417-.381,2.889,2.889,0,0,1,.52-.234,10.045,10.045,0,0,0,.249,1.685q.205.894.439,1.794t.417,1.78a8.071,8.071,0,0,1,.183,1.641.589.589,0,0,1-.674.659.859.859,0,0,1-.688-.337,2.579,2.579,0,0,1-.447-.857,7.768,7.768,0,0,1-.271-1.157,12.592,12.592,0,0,1-.139-1.252Q129.009-4.189,129-4.7T128.994-5.493ZM131.1-10.84l-1.6,2.344a.383.383,0,0,1-.344.176.387.387,0,0,1-.264-.168.65.65,0,0,1-.1-.352.67.67,0,0,1,.139-.417.741.741,0,0,0,.1-.125q.051-.081.066-.11.146-.234.337-.527t.4-.549a4.766,4.766,0,0,1,.41-.454,1.2,1.2,0,0,1,.374-.264.3.3,0,0,1,.3.029A.652.652,0,0,1,131.1-10.84Zm7.031,8.95q-.557.381-.959.681a6.383,6.383,0,0,1-.784.505,3.327,3.327,0,0,1-.813.308,4.681,4.681,0,0,1-1.062.1,2.6,2.6,0,0,1-2.021-.725,3.117,3.117,0,0,1-.659-2.161,4.88,4.88,0,0,1,.146-1.157,6.06,6.06,0,0,1,.432-1.194,7,7,0,0,1,.681-1.128,5.3,5.3,0,0,1,.894-.945,4.382,4.382,0,0,1,1.062-.652,3,3,0,0,1,1.194-.242,3.471,3.471,0,0,1,1.655.52,2.671,2.671,0,0,1,.908,1.069,5.123,5.123,0,0,1,.425,1.45q.117.8.183,1.648t.168,1.7a5.376,5.376,0,0,0,.425,1.567,2.546,2.546,0,0,1-.359.681.259.259,0,0,1-.374.066,1.791,1.791,0,0,1-.476-.645Q138.53-.952,138.135-1.89Zm-5.054-1.26a1.932,1.932,0,0,0,.315,1.223,1.375,1.375,0,0,0,1.121.388,3.161,3.161,0,0,0,1.15-.212,3.034,3.034,0,0,0,.959-.586,2.848,2.848,0,0,0,.659-.9,2.71,2.71,0,0,0,.249-1.172q0-.264.015-.74a5.093,5.093,0,0,0-.059-.945,2.253,2.253,0,0,0-.278-.813.67.67,0,0,0-.615-.344,2.676,2.676,0,0,0-1.406.388,4.058,4.058,0,0,0-1.113.989,4.814,4.814,0,0,0-.732,1.326A4.086,4.086,0,0,0,133.081-3.149Zm10.664,2.49q.234-.161.564-.417t.667-.549a7.509,7.509,0,0,0,.63-.615,3.452,3.452,0,0,0,.461-.623,1.161,1.161,0,0,0,.168-.564.516.516,0,0,0-.264-.439q-.469,0-1.025.037t-1.113.029a7.006,7.006,0,0,1-1.077-.1,2.8,2.8,0,0,1-.93-.322,1.712,1.712,0,0,1-.652-.667,2.249,2.249,0,0,1-.242-1.106,3.309,3.309,0,0,1,.3-1.428,3.911,3.911,0,0,1,.8-1.128,5.951,5.951,0,0,1,1.121-.864,9.763,9.763,0,0,1,1.252-.637,1.87,1.87,0,0,1,.7.366,3.151,3.151,0,0,1,.557.586.865.865,0,0,1-.4.5,3.745,3.745,0,0,1-.688.308l-.813.278a3.073,3.073,0,0,0-.769.388,2.054,2.054,0,0,0-.579.63,1.952,1.952,0,0,0-.234,1.018.9.9,0,0,0,.234.688,1.258,1.258,0,0,0,.615.3,3.438,3.438,0,0,0,.864.059q.483-.022.989-.066t.989-.051a2.646,2.646,0,0,1,.864.117,1.273,1.273,0,0,1,.608.4,1.274,1.274,0,0,1,.227.82,1.638,1.638,0,0,1-.154.6,5.825,5.825,0,0,1-.41.784,6.937,6.937,0,0,1-.6.828,6.9,6.9,0,0,1-.718.74,4.5,4.5,0,0,1-.747.542,1.422,1.422,0,0,1-.7.212.392.392,0,0,1-.4-.22A1.1,1.1,0,0,1,143.745-.659Z" transform="translate(14.324 58.191)" fill="#12263f"/>
    <path id="Trazado_135649" data-name="Trazado 135649" d="M.908-5.493q0-.088.007-.286T.93-6.2q.007-.22.015-.425t.007-.293a1.253,1.253,0,0,1,.417-.381,2.889,2.889,0,0,1,.52-.234,10.045,10.045,0,0,0,.249,1.685q.205.894.439,1.794T3-2.271A8.071,8.071,0,0,1,3.179-.63.589.589,0,0,1,2.5.029a.859.859,0,0,1-.688-.337,2.579,2.579,0,0,1-.447-.857A7.768,7.768,0,0,1,1.1-2.322,12.591,12.591,0,0,1,.959-3.574Q.923-4.189.916-4.7T.908-5.493Zm.205-5.493a1.1,1.1,0,0,1,.469.381.71.71,0,0,1,.168.476q-.022.212-.33.293A2.021,2.021,0,0,1,.4-10a1.461,1.461,0,0,1,.154-.688A.579.579,0,0,1,1.113-10.986ZM3.75-4.937a.7.7,0,0,1,.19-.549.918.918,0,0,1,.615-.168H4.7q.044.234.1.542a4.077,4.077,0,0,0,.176.63,3.494,3.494,0,0,0,.278.593,1.353,1.353,0,0,0,.4.432,2.307,2.307,0,0,1,.256-.989,3.514,3.514,0,0,1,.6-.85,3.74,3.74,0,0,1,.791-.63,2.792,2.792,0,0,1,.857-.344h.322a2.2,2.2,0,0,1,1.2.315,2.706,2.706,0,0,1,.828.82,4.03,4.03,0,0,1,.505,1.15,10.762,10.762,0,0,1,.271,1.311A12.151,12.151,0,0,1,11.4-1.384q.022.623.022,1.062H10.356q-.088-.879-.22-1.685-.044-.322-.117-.681t-.161-.674q-.088-.315-.19-.586a2.14,2.14,0,0,0-.234-.461q-.059-.059-.154-.161t-.2-.205q-.1-.1-.19-.176a.393.393,0,0,0-.1-.073.779.779,0,0,0-.762.168,2.61,2.61,0,0,0-.571.769,5.089,5.089,0,0,0-.4,1.1Q6.9-2.373,6.8-1.809T6.65-.828q-.044.417-.059.505A.741.741,0,0,1,5.9-.168,1.376,1.376,0,0,1,5.3-.63a3.723,3.723,0,0,1-.513-.879q-.227-.527-.417-1.121T4.021-3.823Q3.867-4.424,3.75-4.937Zm8.394-2.7q.1-.352.242-.322t.344.337a7.844,7.844,0,0,1,.461.82q.256.513.549,1.106t.637,1.208A11.206,11.206,0,0,0,15.1-3.354a4.445,4.445,0,0,0,.791.85,1.729,1.729,0,0,0,.857.4l1.172-6.064q.029-.249.227-.286A2.129,2.129,0,0,1,18.53-8.5q.659,0,.659.615,0,.322-.059,1.025T18.94-5.31q-.132.842-.322,1.729a12.605,12.605,0,0,1-.454,1.619,4.744,4.744,0,0,1-.608,1.2.956.956,0,0,1-.754.469,2.077,2.077,0,0,1-1.187-.4A5.194,5.194,0,0,1,14.509-1.75a9.624,9.624,0,0,1-.952-1.458,14.528,14.528,0,0,1-.747-1.619,11.84,11.84,0,0,1-.491-1.56A5.63,5.63,0,0,1,12.144-7.632Zm7.925,4.658a3.5,3.5,0,0,1,.425-1.692,4.446,4.446,0,0,1,1.121-1.348A5.5,5.5,0,0,1,23.181-6.9a5.055,5.055,0,0,1,1.765-.322,1.349,1.349,0,0,1,.886.322,2.835,2.835,0,0,1,.652.784,4.143,4.143,0,0,1,.4.974,3.479,3.479,0,0,1,.139.894,3.434,3.434,0,0,1-.4,1.589A5,5,0,0,1,25.605-1.3a5.315,5.315,0,0,1-1.421.959A3.738,3.738,0,0,1,22.6.029a2.635,2.635,0,0,1-1.187-.242,2.1,2.1,0,0,1-.776-.645,2.747,2.747,0,0,1-.432-.952A4.727,4.727,0,0,1,20.068-2.974Zm1.245.146a2.988,2.988,0,0,0,.066.667,1.177,1.177,0,0,0,.234.491,1.075,1.075,0,0,0,.447.315,1.884,1.884,0,0,0,.688.11,2.219,2.219,0,0,0,1.084-.3,3.953,3.953,0,0,0,.974-.762,3.967,3.967,0,0,0,.7-1.018,2.523,2.523,0,0,0,.264-1.084,3.305,3.305,0,0,0-.044-.513,2.085,2.085,0,0,0-.146-.513,1.075,1.075,0,0,0-.293-.4.722.722,0,0,0-.483-.161,1.462,1.462,0,0,0-.623.176,5.277,5.277,0,0,0-.747.454,7.432,7.432,0,0,0-.762.63q-.374.352-.681.7a4.162,4.162,0,0,0-.491.674A1.149,1.149,0,0,0,21.313-2.827Zm6.636-5.464a5.744,5.744,0,0,0-.059-.828,3.061,3.061,0,0,1-.029-.718.774.774,0,0,1,.227-.505,1.05,1.05,0,0,1,.725-.19,5.108,5.108,0,0,1,.315,1.025q.154.688.3,1.582t.278,1.941q.132,1.047.242,2.1t.19,2.073q.081,1.018.125,1.853-.483.322-.776.044A2.094,2.094,0,0,1,29-.857a9.808,9.808,0,0,1-.293-1.626q-.1-.959-.2-1.992t-.227-2.036A14.333,14.333,0,0,0,27.949-8.291Zm3.076,2.314q0-.088.007-.315t.007-.476q0-.249.007-.461t.007-.3a2.591,2.591,0,0,1,.242-.344.8.8,0,0,1,.293-.234.524.524,0,0,1,.337-.022.725.725,0,0,1,.374.293v.308q-.015.073-.059.344t-.1.593q-.059.322-.11.593a2.571,2.571,0,0,0-.051.344,5.17,5.17,0,0,0,.059.7q.059.417.168.872a8.059,8.059,0,0,0,.278.908,4.071,4.071,0,0,0,.4.813,2.591,2.591,0,0,0,.52.593,1.019,1.019,0,0,0,.667.234,1.416,1.416,0,0,0,.828-.249,2.378,2.378,0,0,0,.623-.645,3.793,3.793,0,0,0,.432-.894,8.248,8.248,0,0,0,.271-1,9.244,9.244,0,0,0,.146-.974q.044-.469.044-.82a4.147,4.147,0,0,0-.051-.667q-.051-.315-.125-.623t-.125-.608a3.606,3.606,0,0,1-.051-.608.423.423,0,0,1,.2-.4.86.86,0,0,1,.447-.117.689.689,0,0,1,.5.183,1.282,1.282,0,0,1,.3.461,2.4,2.4,0,0,1,.146.637,7,7,0,0,1,.037.71q0,.352-.015.667t-.015.505a9.869,9.869,0,0,1-.073,1.128,8.682,8.682,0,0,1-.256,1.3,10.677,10.677,0,0,1-.454,1.311,5.159,5.159,0,0,1-.659,1.15,3.268,3.268,0,0,1-.894.813,2.14,2.14,0,0,1-1.135.308,2.119,2.119,0,0,1-1.157-.315,2.8,2.8,0,0,1-.842-.835A5.409,5.409,0,0,1,31.611-2.3a8.818,8.818,0,0,1-.359-1.318A12.387,12.387,0,0,1,31.077-4.9Q31.025-5.522,31.025-5.977Zm7.236,1.567A3.453,3.453,0,0,1,38.533-5.7a4.6,4.6,0,0,1,.725-1.223,4.246,4.246,0,0,1,1.047-.916A2.347,2.347,0,0,1,41.558-8.2a2.04,2.04,0,0,1,.674.117,2,2,0,0,1,.608.337,1.762,1.762,0,0,1,.439.527,1.409,1.409,0,0,1,.168.688,1.79,1.79,0,0,1-.476-.059,4.183,4.183,0,0,1-.417-.139q-.205-.081-.4-.139a1.516,1.516,0,0,0-.432-.059,1.507,1.507,0,0,0-.974.3,2.159,2.159,0,0,0-.593.754,3.428,3.428,0,0,0-.3.974,6.382,6.382,0,0,0-.081.974q0,.073.007.278t.015.432q.007.227.015.432a2.086,2.086,0,0,0,.022.278,2.608,2.608,0,0,0,.315.542,1.109,1.109,0,0,0,.33.286,1.02,1.02,0,0,0,.381.117,4.609,4.609,0,0,0,.483.022A1.747,1.747,0,0,0,42-1.655a3.257,3.257,0,0,0,.535-.278,3.723,3.723,0,0,0,.469-.359,4.744,4.744,0,0,1,.461-.366A2.467,2.467,0,0,1,44-2.937a1.806,1.806,0,0,1,.652-.11,3.015,3.015,0,0,1-.256,1.274,2.759,2.759,0,0,1-.718.952,3.266,3.266,0,0,1-1.084.608A4.171,4.171,0,0,1,41.235,0,1.857,1.857,0,0,1,40-.469a4.278,4.278,0,0,1-.937-1.15,6.11,6.11,0,0,1-.593-1.443A5.263,5.263,0,0,1,38.262-4.409Zm7.207-1.743a2.589,2.589,0,0,1,.015-.271.932.932,0,0,1,.059-.249.428.428,0,0,1,.139-.183.437.437,0,0,1,.271-.073q.146,0,.33.227a4,4,0,0,1,.374.571q.19.344.374.754t.322.754q.139.344.227.593a1.952,1.952,0,0,0,.1.264q.19-.513.425-1.113A5.926,5.926,0,0,1,48.684-6a3.413,3.413,0,0,1,.82-.872,1.906,1.906,0,0,1,1.165-.352,2.009,2.009,0,0,1,.667.11,1.665,1.665,0,0,1,.557.322,1.645,1.645,0,0,1,.388.505,1.487,1.487,0,0,1,.146.674.468.468,0,0,1-.256.454,1.247,1.247,0,0,1-.579.132h-.146l-.63-.63a.06.06,0,0,1-.044-.015.162.162,0,0,1-.051-.007.162.162,0,0,0-.051-.007,1.079,1.079,0,0,0-.8.286,1.838,1.838,0,0,0-.432.7,3.473,3.473,0,0,0-.183.879q-.037.461-.037.842a3.092,3.092,0,0,0,.059.593q.059.3.132.586t.132.586a3.244,3.244,0,0,1,.059.623q0,.615-.659.615a1.126,1.126,0,0,1-.762-.388,5.775,5.775,0,0,1-.784-.989,12.438,12.438,0,0,1-.74-1.326Q46.3-3.4,46.04-4.087t-.417-1.245A3.468,3.468,0,0,1,45.469-6.152ZM59.253-1.89q-.557.381-.959.681A6.383,6.383,0,0,1,57.51-.7,3.327,3.327,0,0,1,56.7-.4a4.681,4.681,0,0,1-1.062.1,2.6,2.6,0,0,1-2.021-.725,3.117,3.117,0,0,1-.659-2.161A4.88,4.88,0,0,1,53.1-4.336a6.06,6.06,0,0,1,.432-1.194,7,7,0,0,1,.681-1.128,5.3,5.3,0,0,1,.894-.945,4.382,4.382,0,0,1,1.062-.652A3,3,0,0,1,57.363-8.5a3.471,3.471,0,0,1,1.655.52,2.671,2.671,0,0,1,.908,1.069,5.123,5.123,0,0,1,.425,1.45q.117.8.183,1.648t.168,1.7a5.376,5.376,0,0,0,.425,1.567,2.546,2.546,0,0,1-.359.681A.259.259,0,0,1,60.4.205a1.791,1.791,0,0,1-.476-.645Q59.648-.952,59.253-1.89ZM54.2-3.149a1.932,1.932,0,0,0,.315,1.223,1.375,1.375,0,0,0,1.121.388,3.161,3.161,0,0,0,1.15-.212,3.034,3.034,0,0,0,.959-.586,2.848,2.848,0,0,0,.659-.9,2.71,2.71,0,0,0,.249-1.172q0-.264.015-.74a5.093,5.093,0,0,0-.059-.945,2.253,2.253,0,0,0-.278-.813.67.67,0,0,0-.615-.344,2.676,2.676,0,0,0-1.406.388,4.058,4.058,0,0,0-1.113.989,4.814,4.814,0,0,0-.732,1.326A4.086,4.086,0,0,0,54.2-3.149Zm7.529,1.421a2.724,2.724,0,0,1,.425-1.509,4.627,4.627,0,0,1,1.055-1.15,7.175,7.175,0,0,1,1.362-.835q.732-.344,1.362-.571t1.055-.366q.425-.139.425-.227a9.652,9.652,0,0,0-.051-1q-.051-.491-.11-.989t-.11-.989a9.369,9.369,0,0,1-.051-.974v-.952q.6-.22.857.044t.081.908q.059.322.161,1.011t.227,1.553q.125.864.264,1.816t.264,1.824q.125.872.212,1.553t.132,1.018a2.737,2.737,0,0,1,.029.286q.015.212.022.454t.015.447q.007.205.007.293a4.175,4.175,0,0,1-.754-.044.313.313,0,0,1-.249-.176,1.1,1.1,0,0,1-.051-.381,2.347,2.347,0,0,0-.146-.688,8.8,8.8,0,0,1-1.025.7,5.7,5.7,0,0,1-.967.447,4.962,4.962,0,0,1-.974.234,7.877,7.877,0,0,1-1.047.066,4.907,4.907,0,0,1-.9-.081,2.262,2.262,0,0,1-.769-.286,1.559,1.559,0,0,1-.542-.557A1.722,1.722,0,0,1,61.729-1.729ZM63-2.036a.65.65,0,0,0,.1.381.92.92,0,0,0,.264.249,1,1,0,0,0,.344.139,1.827,1.827,0,0,0,.359.037,3.51,3.51,0,0,0,1.106-.2,4.157,4.157,0,0,0,1.1-.557,3.237,3.237,0,0,0,.835-.857,1.925,1.925,0,0,0,.33-1.084.94.94,0,0,0-.161-.63.826.826,0,0,0-.615-.176,3.346,3.346,0,0,0-1.091.22,5.936,5.936,0,0,0-1.2.586,3.95,3.95,0,0,0-.974.857A1.623,1.623,0,0,0,63-2.036Zm7.222-.937a3.5,3.5,0,0,1,.425-1.692A4.446,4.446,0,0,1,71.77-6.013,5.5,5.5,0,0,1,73.337-6.9,5.055,5.055,0,0,1,75.1-7.222a1.349,1.349,0,0,1,.886.322,2.835,2.835,0,0,1,.652.784,4.143,4.143,0,0,1,.4.974,3.479,3.479,0,0,1,.139.894,3.434,3.434,0,0,1-.4,1.589A5,5,0,0,1,75.762-1.3a5.315,5.315,0,0,1-1.421.959,3.738,3.738,0,0,1-1.582.366,2.635,2.635,0,0,1-1.187-.242A2.1,2.1,0,0,1,70.8-.857a2.747,2.747,0,0,1-.432-.952A4.727,4.727,0,0,1,70.225-2.974Zm1.245.146a2.988,2.988,0,0,0,.066.667,1.177,1.177,0,0,0,.234.491,1.075,1.075,0,0,0,.447.315,1.884,1.884,0,0,0,.688.11,2.219,2.219,0,0,0,1.084-.3,3.953,3.953,0,0,0,.974-.762,3.967,3.967,0,0,0,.7-1.018,2.523,2.523,0,0,0,.264-1.084,3.305,3.305,0,0,0-.044-.513,2.085,2.085,0,0,0-.146-.513,1.075,1.075,0,0,0-.293-.4.722.722,0,0,0-.483-.161,1.462,1.462,0,0,0-.623.176,5.277,5.277,0,0,0-.747.454,7.432,7.432,0,0,0-.762.63q-.374.352-.681.7a4.162,4.162,0,0,0-.491.674A1.149,1.149,0,0,0,71.47-2.827ZM79.5-1.187q.659,0,.659.688a1.031,1.031,0,0,1-.41.564.7.7,0,0,1-.461.1A.682.682,0,0,1,78.9-.044a.62.62,0,0,1-.183-.4.608.608,0,0,1,.161-.432A1.1,1.1,0,0,1,79.5-1.187Z" transform="translate(48.969 76.787)" fill="#12263f"/>
  </g>
</svg>
