<svg xmlns="http://www.w3.org/2000/svg" width="393.978" height="361.458" viewBox="0 0 393.978 361.458">
  <g id="Grupo_83007" data-name="Grupo 83007" transform="translate(-1020 -3559)">
    <g id="Image_Place_Holder" data-name="Image Place Holder" transform="translate(1020 3653.765)">
      <rect id="Image_Place_Holder-2" data-name="Image Place Holder" width="393.978" height="266.693" rx="10" fill="#d2edea"/>
    </g>
    <g id="cf6_roles_scrum_copia_2" data-name="cf6_roles scrum copia 2" transform="translate(1065.62 3559)">
      <g id="Capa_1" data-name="Capa 1">
        <rect id="Rectángulo_35319" data-name="Rectángulo 35319" width="302" height="302" transform="translate(0.38)" fill="none"/>
        <g id="Grupo_82097" data-name="Grupo 82097" transform="translate(24.925 29.957)">
          <g id="Grupo_82081" data-name="Grupo 82081" transform="translate(84.558 2.897)">
            <path id="Trazado_131576" data-name="Trazado 131576" d="M117.166,96.345,84.33,132.259l4.33-73.107,26.884-7.972Z" transform="translate(-77.905 -13.689)" fill="#596e7a"/>
            <path id="Trazado_131577" data-name="Trazado 131577" d="M113.462,52.518s-3.106-2.282-9.924-3.024-10.295.426-10.295.426l-.893-11L94.92,28.19l15.751,2.749,2.749,11.642Z" transform="translate(-74.902 -22.298)" fill="#631707"/>
            <g id="Grupo_82078" data-name="Grupo 82078" transform="translate(16.678 193.241)">
              <path id="Trazado_131578" data-name="Trazado 131578" d="M94.169,164.528a12.068,12.068,0,0,1-1.842,4.783,4.123,4.123,0,0,0,.124,3.752c1.594,1.484,3.422.935,5.333,2.13s4.824,5.5,6.432,5.883,5.319.234,5.5-.536-3.656-3.6-3.656-3.6c-5.814-7.133-6.46-10.844-6.46-10.844S94.2,164.24,94.169,164.528Z" transform="translate(-91.736 -164.498)" fill="#ffa37b"/>
              <path id="Trazado_131579" data-name="Trazado 131579" d="M106.164,176.085s1.113.935.935,1.223-1.924.261-2.364,0a45.989,45.989,0,0,1-10.253-7.518,5.883,5.883,0,0,1-1.278-2.9,4.756,4.756,0,0,0-1.374,3.917,5.5,5.5,0,0,0,.673,1.471,43.836,43.836,0,0,0,4.769,2.749c1.911,1.2,4.577,5.5,6.2,5.9s7.106.3,7.34-.467S107.978,177.336,106.164,176.085Z" transform="translate(-91.787 -163.602)" fill="#592210"/>
              <path id="Trazado_131580" data-name="Trazado 131580" d="M91.79,169.47s1.155,3.093,1.5,4.123a34.237,34.237,0,0,1,.866,4.934h.7s-.935-6.323,2.419-4.426C98.319,174.638,91.79,169.47,91.79,169.47Z" transform="translate(-91.79 -162.636)" fill="#592210"/>
            </g>
            <path id="Trazado_131581" data-name="Trazado 131581" d="M107.525,131.963c-5.5,2.818-9.621,13.195-10.638,17.359s-2.928,27.654-3.477,29.111,5.4,1.484,5.608.632c2.089-8.4,11.078-29.523,12.081-31.612s5.154-11.545,5.5-12.521C118.164,129.984,110.632,130.355,107.525,131.963Z" transform="translate(-74.519 16.158)" fill="#ffa37b"/>
            <g id="Grupo_82079" data-name="Grupo 82079" transform="translate(57.005 97.417)">
              <path id="Trazado_131582" data-name="Trazado 131582" d="M127.015,103.19a17.982,17.982,0,0,1,0,2.831,12.979,12.979,0,0,1-.783,1.8,2.144,2.144,0,0,0,0,1.581c.4.316.921-.4,1.113-.838a11.778,11.778,0,0,0,.825-2.1,12.371,12.371,0,0,0,.454-2.749C128.513,103.163,127.015,103.19,127.015,103.19Z" transform="translate(-119.276 -91.631)" fill="#ffa37b"/>
              <path id="Trazado_131583" data-name="Trazado 131583" d="M127.6,102.68a16.766,16.766,0,0,1-.728,2.529c-.289.454-.646.509-1.182.893s-.948.893-.838,1.374.838,0,1.237-.137a4.371,4.371,0,0,0,1.649-1.374,10.747,10.747,0,0,0,1.168-2.364C128.937,103.12,127.6,102.68,127.6,102.68Z" transform="translate(-119.742 -91.822)" fill="#ffa37b"/>
              <path id="Trazado_131584" data-name="Trazado 131584" d="M127.606,102.45a14.092,14.092,0,0,1-.976,1.979c-.3.344-.618.33-1.127.564s-.907.6-.893,1.017.687.179,1.058,0a3.725,3.725,0,0,0,1.581-.935,9.415,9.415,0,0,0,1.374-1.787C128.665,102.972,127.606,102.45,127.606,102.45Z" transform="translate(-119.827 -91.908)" fill="#ffa37b"/>
              <path id="Trazado_131585" data-name="Trazado 131585" d="M124.223,110.366c.206.247.893-.151,1.374-.7a4.123,4.123,0,0,0,.371-2.666c-.151-.673,0-1.718.44-1.814a4.33,4.33,0,0,1,2.6,1.278,9.277,9.277,0,0,1,1.237,2.749,9.457,9.457,0,0,1-.66,2.5,4.453,4.453,0,0,0-.385,1.814.7.7,0,0,0,.6.6c.247.069.371-.921.893-1.677a21.83,21.83,0,0,0,1.374-2.886c0-.165-.412-3.01-.591-3.848s-2.941-4.343-2.9-4.687-2.749-6.254-2.749-6.254l-4.7,1.2a29.3,29.3,0,0,1,2.6,4.866,13.565,13.565,0,0,1-.357,2.57,9.5,9.5,0,0,0,.715,3.972C124.47,108.607,123.92,109.968,124.223,110.366Z" transform="translate(-121.13 -94.78)" fill="#ffbc92"/>
            </g>
            <path id="Trazado_131586" data-name="Trazado 131586" d="M91.488,164.23a10.1,10.1,0,0,1-.371,4.467c-.756,1.622-3.546,5.017-4.879,4.632s-2.749-4.123-2.928-4.728c-1-3.7,1.264-9.621,1.264-9.621Z" transform="translate(-78.383 26.677)" fill="#a13820"/>
            <path id="Trazado_131587" data-name="Trazado 131587" d="M109.747,52.293c2.886-.371,6.144,8.247,7.175,17.758,1.787,16.493,4.783,21.634-.247,22.761-4.563,1.031-5.58-5.676-9-19.531C104.991,62.437,103.8,53.077,109.747,52.293Z" transform="translate(-69.992 -13.277)" fill="#ffa37b"/>
            <path id="Trazado_131588" data-name="Trazado 131588" d="M81.328,49.917c1.471-2.2,8.522-2.254,11.174-2.556a67.457,67.457,0,0,1,10.336.756,68.722,68.722,0,0,1,9.979,2.873c2.378,1.2,8.989,3.656,9.621,6.226.962,3.9-13.676,21.909-8.769,34.6,1.622,4.22,11.174,15.339,11.216,19.861,0,5.5-16.232,13.291-16.232,13.291l-1,.275-1.017.275s-17.992,1.374-20.7-3.409c-2.227-3.931,2.254-23.517,1.691-28.864C86.207,79.179,79.088,53.243,81.328,49.917Z" transform="translate(-79.191 -15.12)" fill="#ffbc92"/>
            <path id="Trazado_131589" data-name="Trazado 131589" d="M117.669,95.927c2.282,3.519,2.749,10.13,2.35,18.789-.467,11.807-4.481,29.331-4.824,31.021-1.594,7.752-9.14,8.013-10.748,2.075-.44-1.649-4.343-34.87-4.206-38.636s0-10.666,2.405-15.023C104.419,90.9,114.247,90.69,117.669,95.927Z" transform="translate(-71.949 1.531)" fill="#ffa37b"/>
            <path id="Trazado_131590" data-name="Trazado 131590" d="M94.879,46.935c1.113-1.856,2.378-9.415,2.378-9.415l4.8.838,4.8.852s-1.374,7.532-.99,9.621,3.794,5.841,3.794,5.841L99.5,52.886,89.34,51.1S93.752,48.8,94.879,46.935Z" transform="translate(-76.029 -18.805)" fill="#ffbc92"/>
            <path id="Trazado_131591" data-name="Trazado 131591" d="M113.14,76.952c2.5-.893,7.381,2.048,10.707,9.855,3.821,8.989,9.525,21.785,7.395,22.8-1,.481-2.309-.316-3.257-2.227-1.979-4.013-7.285-9.7-11.078-14.83C111.037,84.649,108.37,78.67,113.14,76.952Z" transform="translate(-68.038 -4.097)" fill="#ffbc92"/>
            <path id="Trazado_131592" data-name="Trazado 131592" d="M93.37,46.722l1.374-4.3c.316-1.374.591-2.818.783-3.793h0l4.6-.536.426.069,4.8.852s-1.374,7.532-.99,9.621,3.78,5.828,3.78,5.828-6.3-2.749-7.45-3.45S93.37,46.722,93.37,46.722Z" transform="translate(-74.52 -18.591)" fill="#ffa37b"/>
            <path id="Trazado_131593" data-name="Trazado 131593" d="M112.255,39c-1.374,7.532-8.879,12.494-12.727,11.82s-7.669-7.766-7.092-15.463,6.034-11.71,11.724-10.707S113.589,31.455,112.255,39Z" transform="translate(-74.892 -23.68)" fill="#ffbc92"/>
            <path id="Trazado_131594" data-name="Trazado 131594" d="M97.075,30.015c.783,2.13,2.859,3.45,7.45,3.9,3.3.33,5.347,4.921,5.264,6.735,0,.687,2.378,13.47,2.378,13.47s3.945-16.15-2.254-24.974-14.019-4-14.1-3.326a19.244,19.244,0,0,0,1.264,4.192Z" transform="translate(-73.606 -23.903)" fill="#a13820"/>
            <path id="Trazado_131595" data-name="Trazado 131595" d="M100.474,27.85s0,3.216-2.749,3.752c-5.154,1.031-4.288,19.49-4.288,19.49s-5.5-23.132,3.862-25.7C102.646,23.919,100.474,27.85,100.474,27.85Z" transform="translate(-75.096 -23.47)" fill="#a13820"/>
            <path id="Trazado_131596" data-name="Trazado 131596" d="M92.007,158.288s-.742,8.247-1.1,9.058-2.639,3.78-3.848,3.285c-3.409-1.374-3.587-8.425-2.584-10.418.591-1.155,1.141-2.405,1.594-3.189A12.864,12.864,0,0,1,88.324,154Z" transform="translate(-78.051 24.812)" fill="#ffbc92"/>
            <path id="Trazado_131597" data-name="Trazado 131597" d="M111.125,128.83c3.189,2.886,3.354,5.608-1.374,13.483s-18.94,27.778-19.861,27.118-4.6-3.574-2.749-5.855c1.264-1.553,1.484-4.522,3.189-9.085,2.941-7.848,6.872-17.73,7.834-19.352C99.634,132.583,106.012,124.226,111.125,128.83Z" transform="translate(-77.046 14.878)" fill="#ffbc92"/>
            <path id="Trazado_131598" data-name="Trazado 131598" d="M84.332,100.508c-.921,4.123,1.017,10.432,4.385,18.418,4.591,10.9,14.5,25.881,15.421,27.352,4.206,6.707,11.367,4.288,10.776-1.828-.151-1.691-8.247-34.169-9.621-37.66s-3.766-9.979-7.587-13.222C94.957,91.148,85.679,94.46,84.332,100.508Z" transform="translate(-77.99 1.884)" fill="#ffbc92"/>
            <g id="Grupo_82080" data-name="Grupo 82080" transform="translate(3.085 33.505)">
              <path id="Trazado_131599" data-name="Trazado 131599" d="M116.4,52.266V70.381s-4.22,12.466-2.611,18.624,8.384,13.154,12.274,21.689,0,36.451,0,36.451-10.377,3.326-13.635,0-8.247-2.227-10.157-.852-6.487,5.938-6.487,5.938-9.429-15.119-11.422-29.358c-1.663-11.353,2.584-25.5,1.8-31.324S81.9,62.464,81.9,62.464s4.879.495,10.212.756c1.608.082-3.134-14.954-1.581-14.94,3.807,0,5.085,16.329,14.583,14.184,7.051-1.581,6.872-12.37,6.872-12.37Z" transform="translate(-81.9 -48.28)" fill="#002957"/>
              <path id="Trazado_131600" data-name="Trazado 131600" d="M87.563,69.18c2.089-1.374,15.119,2.941,20.2,1.91,4.123-.825,5.828-4.687,6.377-6.24-.838,2.653-3.78,12.645-2.392,17.95,1.608,6.144,8.384,13.154,12.274,21.689s0,36.451,0,36.451-10.377,3.326-13.635,0a1.745,1.745,0,0,1-.179-.151l-5.9-17.442s9.621,2.749,9.415-5.5S105.39,90.841,103.012,86,85.488,70.554,87.563,69.18Z" transform="translate(-79.852 -42.075)" fill="#001e3e"/>
            </g>
            <path id="Trazado_131601" data-name="Trazado 131601" d="M92.749,47.36a91.881,91.881,0,0,1,3.436,12.013c.866,4.921-7.917,44.862-9.388,53.15s-.935,21.167-.935,21.167l-4.948-4.811s3.464-21.538,3.381-33.358-4.852-40.78-3.945-44.532S92.749,47.36,92.749,47.36Z" transform="translate(-79.438 -15.12)" fill="#95a1a9"/>
            <path id="Trazado_131602" data-name="Trazado 131602" d="M104.77,50s2.337,18.486,2.062,23.16,2.749,23.682,2.749,23.682,4.934-37.908,4.481-40.34C113.333,53.079,104.77,50,104.77,50Z" transform="translate(-70.251 -14.131)" fill="#95a1a9"/>
            <path id="Trazado_131603" data-name="Trazado 131603" d="M83,48.637c2.5-.921,5.91,4.714,7.408,11.5,2.611,11.793,5.5,14.885,1.223,16.851-3.945,1.787-5.264-2.928-9.14-12.37C79.469,57.2,77.82,50.547,83,48.637Z" transform="translate(-79.656 -14.679)" fill="#ffa37b"/>
            <path id="Trazado_131604" data-name="Trazado 131604" d="M85.366,75.248c-1.636-2.034,2.529-8.1,10.4-13.14,9.071-5.814,21.991-14.336,23.283-12.466,1.842,2.556-8.742,10.528-16.3,18.005S88.747,79.426,85.366,75.248Z" transform="translate(-77.649 -14.364)" fill="#ffa37b"/>
            <path id="Trazado_131605" data-name="Trazado 131605" d="M105.36,54.791a4.275,4.275,0,0,0,1.265-4,6.872,6.872,0,0,1,1.855-5.2,29.085,29.085,0,0,1,2.6-2.886c.852-.234.564.8.811.715s1.141-.371,1.223.495.316.715.6.825.44.825.275,1.2.316.536.316,1.017a2.625,2.625,0,0,1-.673,1.374,4.934,4.934,0,0,0-1.306,3.711c0,1.787-.192,4.646-3,5.347S105.36,54.791,105.36,54.791Z" transform="translate(-70.03 -16.874)" fill="#ffa37b"/>
          </g>
          <g id="Grupo_82082" data-name="Grupo 82082" transform="translate(124.653)">
            <path id="Trazado_131606" data-name="Trazado 131606" d="M142.94,27.409s1.374-5.828,7.2-5.608c4.962.192,8.92,4.824,7.106,11.862-2.02,7.807-.646,14.322.1,14.2s.536,1.9-1.127,2.254-6.749.261-7.2-5.223a16.741,16.741,0,0,0-3.244-8.81Z" transform="translate(-96.053 -21.796)" fill="#7c3311"/>
            <path id="Trazado_131607" data-name="Trazado 131607" d="M148.824,166.71a2.3,2.3,0,0,1,1.374,1.938c0,1.058.151,7.711.151,7.711a9.992,9.992,0,0,0-3.093,1.965c-1.374,1.237-2.625,3.917-4.481,4.687a9.621,9.621,0,0,1-5.924.591c-.852-.357-.55-2.24.66-4.123l4.027-6.474Z" transform="translate(-98.514 32.468)" fill="#a13820"/>
            <path id="Trazado_131608" data-name="Trazado 131608" d="M142.023,166.07a27.08,27.08,0,0,1-.673,3.945,48.753,48.753,0,0,1-2.611,7.9c-.866,1.691-.715,2.928,1.952,2.144s6.872-7.6,7.7-10.487c.357-1.292-.426-2.666-.591-3.5C147.356,164.09,142.023,166.07,142.023,166.07Z" transform="translate(-97.803 31.899)" fill="#ffbc92"/>
            <path id="Trazado_131609" data-name="Trazado 131609" d="M168.2,173.477a10.529,10.529,0,0,1,1.7,4.123c.11,1.787-.66,6.1-1.924,6.4s-4.123-2.3-4.563-2.749c-2.5-2.749-3.3-9.016-3.3-9.016Z" transform="translate(-89.62 34.539)" fill="#a13820"/>
            <path id="Trazado_131610" data-name="Trazado 131610" d="M165.517,167.87s3.092,7.532,3.189,8.467-.467,4.591-1.7,4.728c-3.436.412-6.762-5.677-6.872-7.9s-.179-4.646-.179-4.646Z" transform="translate(-89.684 32.903)" fill="#ffbc92"/>
            <path id="Trazado_131611" data-name="Trazado 131611" d="M144.026,49.693c-2.35-1.636-9.126,4.453-14.336,12.37-9.058,13.662-14.006,16.782-10.116,20.053,3.532,2.969,7.463-2.447,16.755-13.044C143.545,60.743,148.851,53.074,144.026,49.693Z" transform="translate(-105.304 -11.449)" fill="#121212"/>
            <path id="Trazado_131612" data-name="Trazado 131612" d="M134.649,89.82c-1.374,3.491-2.364,6.749-1.9,8.549,1.374,5.278,16.92,9.745,16.92,9.745H150.7V91.03C144.71,91.03,140.641,89.82,134.649,89.82Z" transform="translate(-99.912 3.677)" fill="#002957"/>
            <path id="Trazado_131613" data-name="Trazado 131613" d="M133.686,94.828c-1.993,3.629-1.91,10.157-.921,18.651,1.374,11.587,5.154,30.046,5.622,31.695,2.158,7.5,9.621,7.188,10.68,1.223.316-1.649,2.831-34.939,2.433-38.65a40.3,40.3,0,0,0-5.113-14.6C144.338,90.086,136.641,89.413,133.686,94.828Z" transform="translate(-100.118 4.043)" fill="#002957"/>
            <path id="Trazado_131614" data-name="Trazado 131614" d="M170.426,53.307c-1.058-2.392-6.556-3.45-9.071-4.206A66.441,66.441,0,0,0,151.17,48.07s-12.04,1.21-14.638,1.113c-1.1,0-1.91,3.931-2.337,5.058-2.392,6.35-5.223,13.745.742,18.9,1.374,1.182,2.556,14.583,2.556,20.8a33.221,33.221,0,0,1-2.378,11.518c5.993,0,10.061,1.21,16.054,1.21h18.005a102.639,102.639,0,0,1-4.33-12.727C161.355,74.831,172.089,56.922,170.426,53.307Z" transform="translate(-100.38 -11.957)" fill="#ffbc92"/>
            <path id="Trazado_131615" data-name="Trazado 131615" d="M149.357,140.245c-.3-11.518-3.491-13.745-7.614-13.745-6.584,0-5.5,12.3-5.374,16.04s5.044,33.289,6.419,38.017h5.773C149.261,172.544,149.659,149.673,149.357,140.245Z" transform="translate(-98.567 17.412)" fill="#002957"/>
            <path id="Trazado_131616" data-name="Trazado 131616" d="M138.389,48.74c4,0,6.322,2.556,4.563,9.223s-8.618,14.5-8.618,14.5L124.15,63.928S134.61,48.767,138.389,48.74Z" transform="translate(-103.089 -11.706)" fill="#32c6b6"/>
            <path id="Trazado_131617" data-name="Trazado 131617" d="M154.053,47.851c-.77-2.007-.687-9.621-.687-9.621h-9.621s.082,7.56-.687,9.621-4.687,4.934-4.687,4.934h20.369S154.822,49.858,154.053,47.851Z" transform="translate(-97.764 -15.642)" fill="#ffbc92"/>
            <path id="Trazado_131618" data-name="Trazado 131618" d="M170.415,53.307c-1.058-2.392-7.834-4.481-10.35-5.237a15.792,15.792,0,0,1-13.552,5.5c-2.818-.289-5.5-4.494-5.5-4.494-1.471,0-3.395.124-4.453.082s-1.91,3.931-2.337,5.058c-2.392,6.35-5.223,13.745.742,18.9,1.374,1.182,2.556,14.583,2.556,20.8a33.221,33.221,0,0,1-2.378,11.518c5.993,0,10.061,1.21,16.054,1.21h18.005a102.644,102.644,0,0,1-4.329-12.727C161.343,74.831,172.078,56.922,170.415,53.307Z" transform="translate(-100.368 -11.957)" fill="#36dccb"/>
            <path id="Trazado_131619" data-name="Trazado 131619" d="M169.617,183c0-4.027-3.793-35.736-4.756-39.653s-2.749-18.349-11.93-15.449c-3.931,1.237-4.742,4.123-1.773,15.944,2.419,9.621,9.621,32.272,12.782,40.34A22.39,22.39,0,0,0,169.617,183Z" transform="translate(-93.646 17.791)" fill="#001e3e"/>
            <path id="Trazado_131620" data-name="Trazado 131620" d="M145.78,90.7v17.084h1.031s17.511-3.257,18.871-8.535c.467-1.8-.564-5.058-1.9-8.549Z" transform="translate(-94.99 4.006)" fill="#002957"/>
            <path id="Trazado_131621" data-name="Trazado 131621" d="M164.252,94.908c2.2,3.5,2.515,10.034,2.034,18.583a301.947,301.947,0,0,1-3.849,30.568c-1.677,7.628-10.515,7.724-12,1.842-.412-1.622-3.766-34.458-3.587-38.182s.192-10.515,2.611-14.789C151.264,89.727,160.954,89.727,164.252,94.908Z" transform="translate(-94.591 4.017)" fill="#002957"/>
            <path id="Trazado_131622" data-name="Trazado 131622" d="M153.4,42.019V38.28h-9.621s.082,7.56-.687,9.621-4.687,4.934-4.687,4.934Z" transform="translate(-97.753 -15.623)" fill="#ffa37b"/>
            <path id="Trazado_131623" data-name="Trazado 131623" d="M156.285,37.458c.11,7.56-6.3,13.745-10.143,13.813s-8.92-6.048-9.745-13.662,3.684-12.466,9.388-12.549S156.189,29.912,156.285,37.458Z" transform="translate(-98.54 -20.573)" fill="#ffbc92"/>
            <path id="Trazado_131624" data-name="Trazado 131624" d="M141.976,31.4c1.168,1.924,3.78,2.474,8.247,2.062,3.257-.289,4.123,3.038,4.357,4.811a28.478,28.478,0,0,1-.275,3.574s4.824-6.46-1.883-14.693c-4.659-5.731-11.367-1.91-12.508-.687C139.516,26.95,141.427,30.483,141.976,31.4Z" transform="translate(-97.206 -20.938)" fill="#a13820"/>
            <path id="Trazado_131625" data-name="Trazado 131625" d="M144.833,28.621c-.082,1.141-1.113,4.123-3.807,4.522a5.044,5.044,0,0,0-4.123,5.14s-4.783-9.223,2.447-12.37C143.9,23.866,144.93,27.632,144.833,28.621Z" transform="translate(-98.895 -20.478)" fill="#a13820"/>
            <path id="Trazado_131626" data-name="Trazado 131626" d="M158.046,70.958c-4.852,1.924-9.552-.976-13.456-.687-8.247.618-11-4.027-12.246-5.841s-.069-7.669,0-8c-1.374,4.866-1.746,9.814,2.6,13.566,1.374,1.182,2.556,14.583,2.556,20.8a33.22,33.22,0,0,1-2.378,11.518,84.267,84.267,0,0,1,10.061.838s-.536-4.522-1.058-6.872a25.483,25.483,0,0,1,1.965-12.92c1.965-3.835,13.538-6.24,14.652-7.381C163.956,72.786,165.976,67.838,158.046,70.958Z" transform="translate(-100.369 -8.827)" fill="#32c6b6"/>
            <path id="Trazado_131627" data-name="Trazado 131627" d="M153.391,144.455c-.632-4.123-1.567-22.912-2.818-33.124-.921-7.532-2.749-8.384-3.711-8.247v.082c-.165,3.684,2.749,34.279,3.464,39.763a49.481,49.481,0,0,0,1.787,10.13c2.419,9.621,9.621,32.272,12.782,40.34a25.981,25.981,0,0,0,2.749-.261l1.292-.412S161.4,166.611,157.2,153.938C156.126,150.543,153.927,147.588,153.391,144.455Z" transform="translate(-94.587 8.638)" fill="#001e3e"/>
            <path id="Trazado_131628" data-name="Trazado 131628" d="M135.923,100.981c-.316-4.728,5.663-8.934,8.37-10.4-3.793-.234-9.415-.756-9.415-.756-3.725,5.5-3.079,15.531-2.089,24.025,1.374,11.435,5.044,29.51,5.594,31.612a43.886,43.886,0,0,0-.44,10.8c.1,3.656,5.072,33.331,6.35,38.059l-3.752-46.828S136.349,107.5,135.923,100.981Z" transform="translate(-100.141 3.677)" fill="#001e3e"/>
            <path id="Trazado_131629" data-name="Trazado 131629" d="M124.227,81.646c-2.419.976-6.35-3.2-8.013-10.116-1.9-7.986-4.838-19.339-2.653-20.108,2.983-1.058,6.268,8.425,10.24,15.463S129.257,79.626,124.227,81.646Z" transform="translate(-107.344 -10.732)" fill="#ffa37b"/>
            <path id="Trazado_131630" data-name="Trazado 131630" d="M169.513,76.084c2.515.536,3.3,7.257.687,15.339-3.024,9.319-7.133,22.734-9.346,22.142-3.01-.811-.247-12.549.577-22.211S164.317,74.956,169.513,76.084Z" transform="translate(-89.859 -1.513)" fill="#ffbc92"/>
            <path id="Trazado_131631" data-name="Trazado 131631" d="M156.273,50.881c3.024-1.182,8.247,7.037,11.284,16.8,5.25,16.975,9.511,21.538,4.316,24.108-4.7,2.323-7.147-4.467-13.621-18.17C153.195,62.894,150.02,53.327,156.273,50.881Z" transform="translate(-92.357 -10.947)" fill="#2c2c2c"/>
            <path id="Trazado_131632" data-name="Trazado 131632" d="M118.191,61.059a9.951,9.951,0,0,1,.88-3.367,10.226,10.226,0,0,0,1.787-5.36,11.971,11.971,0,0,1,.866-4.756c.22-.454-.742-.632-1.374,0s-.88,4-1.374,4.055-1.883-9.044-2.556-9.126c-1.017-.137.124,6.13-.261,6.24-.825.261-1.622-6.254-2.46-6.254-1.086,0,.632,6.776.234,6.872s-2.749-5.5-3.477-5.292,2.089,5.773,1.581,5.993-2.666-2.845-3.148-2.364,2.117,3.6,2.447,4.206,2.062,5.9,2.749,6.144,1.581,2.749,1.581,2.749Z" transform="translate(-108.827 -14.046)" fill="#ffa37b"/>
            <path id="Trazado_131633" data-name="Trazado 131633" d="M124.23,80.546c-2.419.976-5.883-1.155-8.4-9.9a94.632,94.632,0,0,1-3.051-15.229c-.151-1.2,5.085-1.773,5.924-.1,2.172,4.371,3.45,6.2,5.855,11C128.367,73.907,129.261,78.525,124.23,80.546Z" transform="translate(-107.348 -9.631)" fill="#121212"/>
            <path id="Trazado_131634" data-name="Trazado 131634" d="M169.559,76.083c2.515.536,3.615,7.147,1,15.229-2.185,6.749-4.247,13.47-5.415,16.342-.522,1.292-5.828-.509-5.786-1.182.11-2.749.77-5.374,1.594-15.037S164.363,74.956,169.559,76.083Z" transform="translate(-89.905 -1.513)" fill="#2c2c2c"/>
            <path id="Trazado_131635" data-name="Trazado 131635" d="M152.307,53.077c1.663-3.642,6.281-5.168,10.583.22s5.841,16.81,5.841,16.81l-12.92,3.079S148.9,60.486,152.307,53.077Z" transform="translate(-92.899 -11.315)" fill="#36dccb"/>
            <path id="Trazado_131636" data-name="Trazado 131636" d="M161.109,99.78s-1.567,1.251-1.773,1.5a17.444,17.444,0,0,1-2.337,3,14.9,14.9,0,0,1-1.374.646c-.137.137-.1,1.746,1.237,1.251s2.433-1.649,2.859-1.594.481,3.079.247,3.711-2.364,4.577-2.447,4.769-.234.8-.082.948a2.068,2.068,0,0,0,1.374-.275c.137-.179.357.371.591.33s1.086-.33,1.086-.33a3.9,3.9,0,0,0,1.374-.316,16.958,16.958,0,0,0,1.952-1.7,27.957,27.957,0,0,0,2.268-4.591c.124-.921-.77-6.872-.77-6.872Z" transform="translate(-91.323 7.406)" fill="#ffbc92"/>
          </g>
          <g id="Grupo_82087" data-name="Grupo 82087" transform="translate(129.704 8.633)">
            <path id="Trazado_131637" data-name="Trazado 131637" d="M180.665,65.66c.082,5-4.027,6.57-8.961,6.336s-29.839-6.652-30.788-7.931-.124-8.453,2.034-9.223,24.177,1.457,28.2,2.35S180.555,59.791,180.665,65.66Z" transform="translate(-102.008 -18.114)" fill="#ffbc92"/>
            <path id="Trazado_131638" data-name="Trazado 131638" d="M176.713,61.565c-1.086-1.567-4.275-4.948-11.93-5.828-5.1-.591-14.9-1.457-14.9-1.457a17.717,17.717,0,0,0-2.405,7.862A16.2,16.2,0,0,0,149,70.636s20.4,2.323,24.273.728C174.432,70.815,179.723,65.908,176.713,61.565Z" transform="translate(-99.431 -18.265)" fill="#acd0ff"/>
            <path id="Trazado_131639" data-name="Trazado 131639" d="M156.465,64.84c-1.526,5.223-12.054,1.141-17.1-1.113S119.63,52.332,119.63,52.332L122.1,48.69a118.8,118.8,0,0,1,29.138,6.68C152.7,55.988,158.019,59.521,156.465,64.84Z" transform="translate(-109.833 -20.358)" fill="#ffbc92"/>
            <path id="Trazado_131640" data-name="Trazado 131640" d="M197.53,185.483s-3.464,6.377-2.914,7.752a6.68,6.68,0,0,0,6.474,2.749c2.749-.412,6.584-3.807,7.257-4.027,1.553-.509-.289-9.016-.289-9.016Z" transform="translate(-81.776 29.912)" fill="#121212"/>
            <path id="Trazado_131641" data-name="Trazado 131641" d="M177.087,39.8s4.426,13.964,5.429,14.432c3.134,1.374,12.906.728,15.641,3.958,3.326,3.931-3.271,30.417-2.969,37.5s6.652,19.036,7.711,25.812-20.232,15.023-21.015,15.023-7.656-6.391-8.961-8.6.385-16.081-.77-20.369-7.257-20.438-7.724-21.373a30.8,30.8,0,0,1-2.886-13.264c-.124-1.457-.825-3.752-.371-4.824.907-2.13,7.972-6.542,7.862-7.463s-2.378-13.456-2.378-13.456Z" transform="translate(-94.334 -23.687)" fill="#ffbc92"/>
            <path id="Trazado_131642" data-name="Trazado 131642" d="M182.679,50.3,172.288,61.048,169.2,56.76s-6.666-.357-7.161,1a56.352,56.352,0,0,0-1.374,15.614c.206,1.512,2.323,6.474,4.412,12,1.223,3.244,2.323,7.656,4.357,13.167,1.746,4.728,2.749,14.94,2.749,14.94s4.8.179,12.219-.192c8.59-.44,17.263-1.773,17.648-2.089,1.663-1.374-4.8-16.493-4.879-17.978s3.945-32.052,3.244-35.324a6.872,6.872,0,0,0-5.718-5.5C191.833,51.771,182.679,50.3,182.679,50.3Z" transform="translate(-94.497 -19.755)" fill="#c6dfff"/>
            <path id="Trazado_131643" data-name="Trazado 131643" d="M186.891,51.59s9.291,2.282,2.955,10.652c-2.749,3.615-5.333,16.988-8.247,18.789-10.212,6.4,1.663,23.984,3.024,25.908A8.81,8.81,0,0,1,186,111.5l11.106-1.278c3.436.673-6.391-17.676-6.061-21.455s3.6-28.864,2.9-31.42a7.6,7.6,0,0,0-7.051-5.759Z" transform="translate(-88.167 -19.272)" fill="#acd0ff"/>
            <path id="Trazado_131644" data-name="Trazado 131644" d="M165.83,51.273l11.326-7.9,2.309,7.34-3.23,3.395Z" transform="translate(-92.533 -22.35)" fill="#ffa37b"/>
            <g id="Grupo_82083" data-name="Grupo 82083" transform="translate(63.992)">
              <path id="Trazado_131645" data-name="Trazado 131645" d="M160.35,33.942c2.515-3.642,11.3-8.439,17.291-3.312S183,42.3,181.365,46.642a15.875,15.875,0,0,1-6.144,7.958c-.687.509-7.312,3.271-8.8,3.106-1.017-.11-3.3-6.872-3.574-6.721a1.292,1.292,0,0,1-1.292-.7c-.234-.8-.481-5.938-.8-6.4S157.381,38.12,160.35,33.942Z" transform="translate(-159.058 -27.959)" fill="#ffbc92"/>
              <path id="Trazado_131646" data-name="Trazado 131646" d="M159.06,37.592s4.591-4.123,12.48.344c1.7.962.275,7.023.742,7.422s4.288-5.168,4.233-4.508c-.454,6.749,2.405,9.759,2.983,9.621,1.773-.289,5.154-10.418.838-17.03s-12.191-5.58-13.951-4.769S159.129,31.16,159.06,37.592Z" transform="translate(-159.06 -28.077)" fill="#a13820"/>
              <path id="Trazado_131647" data-name="Trazado 131647" d="M169.771,39.632c-.165,2.144.165,4.921,1.374,5s2.227-1.608,2.392-3.752-.66-3.958-1.814-4.041S169.922,37.474,169.771,39.632Z" transform="translate(-155.064 -24.797)" fill="#ffbc92"/>
            </g>
            <g id="Grupo_82084" data-name="Grupo 82084" transform="translate(66.424 204.816)">
              <rect id="Rectángulo_35320" data-name="Rectángulo 35320" width="8.315" height="1.553" transform="translate(29.881 12.586) rotate(180)" fill="#121212"/>
              <path id="Trazado_131648" data-name="Trazado 131648" d="M190.395,177.185a14.321,14.321,0,0,1,1.924,5.841c.137,1.636-.838,5.085-1.911,5.085a81.974,81.974,0,0,0-10.143.564c-3.244.44-4.453,2.309-12.741,2.282-2.419,0-6.694-.151-6.694-1.141,0-4.288,7.958-2.749,10.473-5.085,6.391-5.883,10.638-7.312,10.638-7.312S190.175,176.883,190.395,177.185Z" transform="translate(-160.83 -177.093)" fill="#121212"/>
            </g>
            <path id="Trazado_131649" data-name="Trazado 131649" d="M183.643,95.092s11.064,11,11.573,15.889-4.123,20.273-5.8,32.41-2.68,14.6-2.268,17.469,3.67,14.473,3.56,22.211c-.124,9.03.344,27.489.344,27.489s-2.405,1.9-8.618,1.869a13.552,13.552,0,0,1-7.45-2.859s-2.5-45.357-3.01-50.113c-.33-3.079-2.845-24.355-3.615-41.7-.247-5.58,1.031-21.538,1.031-23.847Z" transform="translate(-91.598 -3.425)" fill="#121212"/>
            <path id="Trazado_131650" data-name="Trazado 131650" d="M168.92,56.573l.247,3.079,5.484-5.622Z" transform="translate(-91.376 -18.359)" fill="#acd0ff"/>
            <path id="Trazado_131651" data-name="Trazado 131651" d="M169.987,59.037l-2.02-3.367-1.237,1.649Z" transform="translate(-92.196 -17.745)" fill="#acd0ff"/>
            <path id="Trazado_131652" data-name="Trazado 131652" d="M197.894,94.21a164.357,164.357,0,0,1,6.185,18.088c1.759,7.257,3.862,44.794,4.481,48.312s2.845,14.322,4.549,24.988,2.749,32.08,2.749,32.08l-13.662,2.13-9.415-51.968c-1.292-7.065-14.83-57.109-14.83-57.109L176.26,94.609Z" transform="translate(-88.628 -3.313)" fill="#2c2c2c"/>
            <path id="Trazado_131653" data-name="Trazado 131653" d="M194.845,124.874c1.141,4.811,4.481,37.454,4.756,39.3s8.714,51.886,9.113,54.209l4.494-.7s-1.017-21.414-2.749-32.08-3.917-21.455-4.549-24.988-2.749-41.055-4.481-48.312a164.356,164.356,0,0,0-6.171-18.088l-11.958.357S193.7,120.036,194.845,124.874Z" transform="translate(-85.992 -3.313)" fill="#121212"/>
            <path id="Trazado_131654" data-name="Trazado 131654" d="M200.929,94.319s-21.015.344-22.266.385-9.525-.783-9.525-.783L169,97.232s8.013.673,11.848.673,20.878-.893,20.878-.893Z" transform="translate(-91.346 -3.422)" fill="#411417"/>
            <rect id="Rectángulo_35321" data-name="Rectángulo 35321" width="5.347" height="3.835" rx="0.6" transform="translate(89.653 94.897) rotate(180)" fill="#822816"/>
            <path id="Trazado_131655" data-name="Trazado 131655" d="M171.746,56.3l-4.976.041,1.4,3.711,2.5-.082Z" transform="translate(-92.181 -17.509)" fill="#121212"/>
            <path id="Trazado_131656" data-name="Trazado 131656" d="M168.4,59a37.673,37.673,0,0,0-1.814,18.4c1.5,10.6,1.374,34.623,1.374,34.623l2.749,4.879,3.354-5.677s-2.254-26.211-3.5-33.935.344-18.308.344-18.308Z" transform="translate(-92.408 -16.501)" fill="#121212"/>
            <path id="Trazado_131657" data-name="Trazado 131657" d="M181.483,51.2l-3.175-2.488-9.388,9.855,2.859,3.519Z" transform="translate(-91.376 -20.351)" fill="#d7f0ff"/>
            <path id="Trazado_131658" data-name="Trazado 131658" d="M168.484,56.247l-1.842,3.78-1.292-3.148L167,54.13Z" transform="translate(-92.713 -18.321)" fill="#d7f0ff"/>
            <path id="Trazado_131659" data-name="Trazado 131659" d="M181.866,54.617c2.818-4.22,7.065-3.257,11-.344s23.366,24.74,23.448,26.335-4.769,7.133-6.968,6.57-21.826-17.222-24.575-20.232S178.581,59.579,181.866,54.617Z" transform="translate(-87.031 -19.207)" fill="#ffbc92"/>
            <path id="Trazado_131660" data-name="Trazado 131660" d="M180.31,58.709c0,1.938.756,6.432,3.7,8.645,4.123,3.134,14.514,12.15,14.514,12.15a17.868,17.868,0,0,0,6.487-5.154,16.356,16.356,0,0,0,3.574-7.986s-15.861-13.209-19.916-14.5a6.872,6.872,0,0,0-8.357,6.845Z" transform="translate(-87.112 -19.231)" fill="#c6dfff"/>
            <path id="Trazado_131661" data-name="Trazado 131661" d="M212.879,71.843c4.481,3.23-2.983,11.9-6.872,15.971s-15.243,16.164-15.243,16.164l-4.6-3.945a107.8,107.8,0,0,1,15.9-26.445C203.093,72.42,208.316,68.558,212.879,71.843Z" transform="translate(-84.921 -12.173)" fill="#ffbc92"/>
            <g id="Grupo_82085" data-name="Grupo 82085" transform="translate(94.132 84.602)">
              <path id="Trazado_131662" data-name="Trazado 131662" d="M185.284,103h0a1.072,1.072,0,0,1-.385-1.457l2.282-3.986a1.072,1.072,0,0,1,1.457-.4h0a1.072,1.072,0,0,1,.385,1.457l-2.282,3.972a1.045,1.045,0,0,1-1.457.412Z" transform="translate(-179.578 -86.863)" fill="#ffbc92"/>
              <path id="Trazado_131663" data-name="Trazado 131663" d="M183.946,102.389h0a1.072,1.072,0,0,1-.4-1.457l2.282-3.972a1.058,1.058,0,0,1,1.471-.4h0a1.072,1.072,0,0,1,.4,1.457L185.417,102a1.072,1.072,0,0,1-1.471.385Z" transform="translate(-180.083 -87.091)" fill="#ffbc92"/>
              <path id="Trazado_131664" data-name="Trazado 131664" d="M182.686,101.728h0a1.072,1.072,0,0,1-.4-1.457l2.282-3.972a1.045,1.045,0,0,1,1.457-.4h0a1.058,1.058,0,0,1,.385,1.457l-2.268,3.986A1.1,1.1,0,0,1,182.686,101.728Z" transform="translate(-180.554 -87.338)" fill="#ffbc92"/>
              <path id="Trazado_131665" data-name="Trazado 131665" d="M181.526,100.969h0a1.072,1.072,0,0,1-.4-1.457l2.282-3.972a1.058,1.058,0,0,1,1.471-.4h0a1.072,1.072,0,0,1,.4,1.457L183,100.584A1.1,1.1,0,0,1,181.526,100.969Z" transform="translate(-180.989 -87.623)" fill="#ffbc92"/>
              <path id="Trazado_131666" data-name="Trazado 131666" d="M190.759,89.63a73.421,73.421,0,0,0-7.01,5.677A45.565,45.565,0,0,0,181,101.959s2.543-.55,3.587.261,3.56,3.161,3.56,3.161a32.465,32.465,0,0,0,4.577-5.622,22.76,22.76,0,0,0,1.581-4.4Z" transform="translate(-180.985 -89.63)" fill="#ffbc92"/>
            </g>
            <g id="Grupo_82086" data-name="Grupo 82086" transform="translate(0 13.825)">
              <path id="Trazado_131667" data-name="Trazado 131667" d="M124.278,56.834s-4.494,1.182-6.2-1.278-1-6.075-1.072-6.941c-.234-3.532-3.876-6.226-4.385-8.247s.728-2.639,1.155-1.979c2.378,3.766,5,5.319,5.855,7.106a67.708,67.708,0,0,0,5.759,7.463Z" transform="translate(-112.502 -38.136)" fill="#ffbc92"/>
              <path id="Trazado_131668" data-name="Trazado 131668" d="M120.625,54.354a10.322,10.322,0,0,1-4.563-2.158c-1.292-1.471-.838-4.027-1.759-5.4s.11-1.374.4-1.374,1.374,1.732,2.02,2.419S121.449,50.341,120.625,54.354Z" transform="translate(-111.969 -35.408)" fill="#ffbc92"/>
            </g>
          </g>
          <g id="Grupo_82094" data-name="Grupo 82094" transform="translate(0 28.553)">
            <g id="Grupo_82092" data-name="Grupo 82092" transform="translate(19.807)">
              <g id="Grupo_82088" data-name="Grupo 82088" transform="translate(4.468 107.098)">
                <path id="Trazado_131669" data-name="Trazado 131669" d="M81.247,175.809a16.1,16.1,0,0,0-2.1,6.446c-.151,1.8.921,5.608,2.089,5.608a86.229,86.229,0,0,1,11,.632c3.519.481,4.838,2.543,13.868,2.515,2.639,0,7.422-.179,7.285-1.264s-8.659-3.051-11.408-5.622c-6.955-6.487-11.587-8.054-11.587-8.054S81.494,175.465,81.247,175.809Z" transform="translate(-19.569 -99.815)" fill="#121212"/>
                <rect id="Rectángulo_35322" data-name="Rectángulo 35322" width="9.058" height="1.718" transform="translate(61.32 88.048)" fill="#121212"/>
                <path id="Trazado_131670" data-name="Trazado 131670" d="M65.559,125.067s33.977,11.119,35.379,12.7,11,61.576,11,61.576-2.378,2.213-8.508,2.68a32.426,32.426,0,0,1-8.247,0s-9.346-38.485-9.044-43.584-1.663-12.727-1.663-12.727-39.488-1.952-42.2-4.288C26.84,128.1,43.828,120.49,43.828,120.49l21.991,1.553Z" transform="translate(-35.796 -120.49)" fill="#001e3e"/>
              </g>
              <path id="Trazado_131671" data-name="Trazado 131671" d="M61.638,93.828c2.268,5.031,6.474,4.591,11,2.227S97.993,78.076,98.322,74.791c.165-1.718-2.474-6.529-4.893-6.35S71.438,79.3,68.043,81.938,58.972,87.917,61.638,93.828Z" transform="translate(-21.909 -32.884)" fill="#acd0ff"/>
              <path id="Trazado_131672" data-name="Trazado 131672" d="M62.817,62.21S58.35,76.546,56.825,77.893c-2.9,2.543-10.034,3.367-13.03,6.872-3.642,4.261-1.141,27.022-1.5,34.719s-6.377,22.706-9.429,29.51S49.361,165.9,50.159,166.133s11.614-4.206,13.621-6.158S67.724,139.1,69,134.438s6.872-20.617,7.353-21.661a33.289,33.289,0,0,0,3.216-14.432c.137-1.581.921-4.123.426-5.25-.976-2.337-8.645-7.161-8.522-8.164s2.666-14.638,2.666-14.638Z" transform="translate(-32.545 -35.215)" fill="#ffbc92"/>
              <g id="Grupo_82089" data-name="Grupo 82089" transform="translate(43.978 189.592)">
                <rect id="Rectángulo_35323" data-name="Rectángulo 35323" width="9.058" height="1.773" transform="translate(1.758 12.564)" fill="#121212"/>
                <path id="Trazado_131673" data-name="Trazado 131673" d="M66.656,180.62a17.112,17.112,0,0,0-2.1,6.652c-.137,1.869.921,5.8,2.1,5.8a83.648,83.648,0,0,1,11,.646c3.532.495,4.852,2.625,13.882,2.6,2.625,0,7.422-.179,7.271-1.306s-8.659-3.147-11.408-5.8c-6.872-6.707-11.573-8.329-11.573-8.329S66.9,180.263,66.656,180.62Z" transform="translate(-64.541 -180.509)" fill="#121212"/>
              </g>
              <path id="Trazado_131674" data-name="Trazado 131674" d="M56.351,73.62,68.432,86.512l2.611-5.8s5.154-1.869,7.2-.66,2.474,13.456,2.433,15.119-2.928,10.734-5.223,16.741c-1.374,3.519-2.57,8.247-4.824,14.308A162.793,162.793,0,0,0,66.343,143.3a24.067,24.067,0,0,1-13.621-.66c-8.906-2.928-18.4-4.412-18.72-4.852-1.374-1.91,5.072-13.428,5.979-20.974.206-1.622.687-30.348,1.484-33.908a7.408,7.408,0,0,1,6.2-6.02,53.672,53.672,0,0,0,8.687-3.271Z" transform="translate(-32.071 -30.943)" fill="#c6dfff"/>
              <path id="Trazado_131675" data-name="Trazado 131675" d="M62.7,99.213C54.841,76.37,49.192,76.562,49.192,76.562l-1.141-.632-.357.082a7.408,7.408,0,0,0-6.24,5.965c-.8,3.56-1.278,32.286-1.484,33.908-.907,7.546-7.326,19.064-5.979,20.974.289.4,7.944,1.636,15.944,4l14.679,1.883a16.7,16.7,0,0,0,1.718-.371,162.788,162.788,0,0,1,4.288-17.085c1.251-3.326,5.415-15.737,6.226-18.308,0,0-3.12,5.388-6.446,4.673C67.637,111.061,67.06,111.762,62.7,99.213Z" transform="translate(-32.073 -30.078)" fill="#acd0ff"/>
              <path id="Trazado_131676" data-name="Trazado 131676" d="M34.255,120.14s-2.392,7.793-1.512,14.253,2.474,13.745,17.566,15.119,24.493,2.213,24.96,2.268-1.155,12.975-.536,21.991,1.663,32.9,1.663,32.9a40.134,40.134,0,0,0,9.25,1.058c5.993.124,7.944-1.993,7.944-1.993s4.123-56.518,2.749-61.2c-2.447-7.931-27.737-14.4-28.685-15.806-.783-1.168-.591-6.515-.591-6.515Z" transform="translate(-32.544 -13.523)" fill="#002957"/>
              <path id="Trazado_131677" data-name="Trazado 131677" d="M45.6,76.433c-5.5.591-6.57,5.5-5.5,11.092S50.616,117.6,52.169,118.491s11.793,2.213,12.288-.357-7.793-26.115-9.4-30.513S52.087,75.732,45.6,76.433Z" transform="translate(-29.855 -29.907)" fill="#c6dfff"/>
              <path id="Trazado_131678" data-name="Trazado 131678" d="M56.508,64.848,66.294,73.8l-.88,5.072-11.257-1L51.23,74.538,55.175,64.01Z" transform="translate(-25.548 -34.541)" fill="#ffa37b"/>
              <path id="Trazado_131679" data-name="Trazado 131679" d="M67.448,51.636c-4.3-2.529-15.435-3.244-18.9,4.921s.371,14.61,4.123,18.28A17.937,17.937,0,0,0,62.72,80.074c.935.206,8.906-.151,10.322-1.031.962-.6,0-8.618.261-8.645a1.457,1.457,0,0,0,.948-1.374c-.151-.935-2.433-6.336-2.35-6.982S72.382,54.55,67.448,51.636Z" transform="translate(-27.059 -39.816)" fill="#ffbc92"/>
              <path id="Trazado_131680" data-name="Trazado 131680" d="M70.443,54.9s-6.611-2.062-12.37,6.364c-1.223,1.814,3.175,7.367,2.914,8s-6.872-3.257-6.446-2.6c3.766,6.721,2.392,11.2,1.759,11.394-1.91.564-10.253-8.247-9.2-17.112a13.5,13.5,0,0,1,11.6-11.642C60.932,49.279,67.241,48.358,70.443,54.9Z" transform="translate(-27.127 -40.069)" fill="#a13820"/>
              <path id="Trazado_131681" data-name="Trazado 131681" d="M56.4,63.143c1.21,2.13,2.254,5.154,1.127,5.786s-3.024-.564-4.233-2.749S52,61.8,53.127,61.15,55.175,61.04,56.4,63.143Z" transform="translate(-25.136 -35.708)" fill="#ffbc92"/>
              <path id="Trazado_131682" data-name="Trazado 131682" d="M59.851,80.57l-.11,3.285L56.91,80.872Z" transform="translate(-23.421 -28.34)" fill="#acd0ff"/>
              <path id="Trazado_131683" data-name="Trazado 131683" d="M83.238,81.487c3.629,4.8,11.862-2.007,16.177-6.309S114.2,56.83,114.2,56.83l-3.684-4.22s-21.7,16.37-22.995,17.524S79.555,76.608,83.238,81.487Z" transform="translate(-13.973 -38.81)" fill="#ffbc92"/>
              <path id="Trazado_131684" data-name="Trazado 131684" d="M58.97,83.825l1.168-3.175.811,1.732Z" transform="translate(-22.65 -28.31)" fill="#acd0ff"/>
              <path id="Trazado_131685" data-name="Trazado 131685" d="M34.063,120.14l-1,3.45,33.8,2.392-.055-3.766Z" transform="translate(-32.352 -13.523)" fill="#411417"/>
              <path id="Trazado_131686" data-name="Trazado 131686" d="M57.038,125.508H56.02A2.048,2.048,0,0,1,54,123.474h0a2.048,2.048,0,0,1,2.034-2.034h1.017a2.034,2.034,0,0,1,2.02,2.034h0A2.034,2.034,0,0,1,57.038,125.508Z" transform="translate(-24.511 -13.036)" fill="#822816"/>
              <path id="Trazado_131687" data-name="Trazado 131687" d="M49.11,74.584l2.914-2.914L62.772,83.9l-2.3,3.45Z" transform="translate(-26.342 -31.673)" fill="#e9e1d5"/>
              <ellipse id="Elipse_6589" data-name="Elipse 6589" cx="8.027" cy="6.831" rx="8.027" ry="6.831" transform="translate(18.906 78.028)" fill="#e9e1d5"/>
              <path id="Trazado_131688" data-name="Trazado 131688" d="M62.957,106.182c0,3.78-3.6,6.872-8.041,6.872s-8.027-3.065-8.027-6.872,3.6-6.872,8.027-6.872S62.957,102.416,62.957,106.182Z" transform="translate(-27.173 -21.323)" fill="#c6dfff"/>
              <path id="Trazado_131689" data-name="Trazado 131689" d="M62.957,106.872c0,3.766-3.6,6.872-8.041,6.872s-8.027-3.065-8.027-6.872S50.491,100,54.917,100,62.957,103.079,62.957,106.872Z" transform="translate(-27.173 -21.064)" fill="#e9e1d5"/>
              <path id="Trazado_131690" data-name="Trazado 131690" d="M59.82,81.852l1.746-4.412,1.512,2.46L61,85.027Z" transform="translate(-22.332 -29.512)" fill="#e9e1d5"/>
              <g id="Grupo_82090" data-name="Grupo 82090" transform="translate(71.23 73.138)">
                <path id="Trazado_131691" data-name="Trazado 131691" d="M90.016,97.154l.564-1.1a.522.522,0,0,1,.687-.22h0a.522.522,0,0,1,.22.687l-.564,1.1a.522.522,0,0,1-.687.22h0a.509.509,0,0,1-.22-.687Z" transform="translate(-82.276 -95.782)" fill="#86a3a1"/>
                <path id="Trazado_131692" data-name="Trazado 131692" d="M84.521,113.785h0c-.44-.22.192-2.419.4-2.859L91.7,97.017a.893.893,0,0,1,1.2-.412h0a.907.907,0,0,1,.412,1.2l-6.776,13.91C86.322,112.15,84.961,114.005,84.521,113.785Z" transform="translate(-84.369 -95.507)" fill="#415b60"/>
                <rect id="Rectángulo_35324" data-name="Rectángulo 35324" width="1.938" height="0.907" transform="translate(6.822 2.265) rotate(24.5)" fill="#86a3a1"/>
                <path id="Trazado_131693" data-name="Trazado 131693" d="M88.465,102.641h0a.289.289,0,0,1-.137-.385L90.513,97.6a.275.275,0,0,1,.385-.137h0a.289.289,0,0,1,.137.371l-2.2,4.673a.275.275,0,0,1-.371.137Z" transform="translate(-82.897 -95.166)" fill="#c1d9d7"/>
              </g>
              <path id="Trazado_131694" data-name="Trazado 131694" d="M48.441,106.756c-.852,5.951,11.6,6.652,17.689,6.694s26.032-1.608,26.032-1.608l-2.749-5.5s-30.582-4.783-32.3-4.866S49.307,100.694,48.441,106.756Z" transform="translate(-26.608 -20.536)" fill="#ffbc92"/>
              <g id="Grupo_82091" data-name="Grupo 82091" transform="translate(62.215 83.196)">
                <path id="Trazado_131695" data-name="Trazado 131695" d="M90.474,108.908h0a1,1,0,0,0-.976-1.031l-4.343-.137a1.031,1.031,0,0,0-1.045.99h0a1.031,1.031,0,0,0,.99,1.045l4.33.137A1.031,1.031,0,0,0,90.474,108.908Z" transform="translate(-75.451 -101.363)" fill="#ffbc92"/>
                <path id="Trazado_131696" data-name="Trazado 131696" d="M90.654,107.529h0a1.031,1.031,0,0,0-.99-1.045l-4.33-.124a1,1,0,0,0-1.045.976h0a1,1,0,0,0,.976,1.031l4.343.137a1.017,1.017,0,0,0,1.045-.976Z" transform="translate(-75.384 -101.88)" fill="#ffbc92"/>
                <path id="Trazado_131697" data-name="Trazado 131697" d="M90.734,106.182h0a1.017,1.017,0,0,0-.976-1.045L85.415,105a1,1,0,0,0-1.045.976h0a1.031,1.031,0,0,0,.99,1.045l4.33.124a1.017,1.017,0,0,0,1.045-.962Z" transform="translate(-75.354 -102.389)" fill="#ffbc92"/>
                <path id="Trazado_131698" data-name="Trazado 131698" d="M90.734,104.869h0a1.017,1.017,0,0,0-.976-1.045l-4.343-.124a1,1,0,0,0-1.045.99h0a1.031,1.031,0,0,0,.99,1.045l4.33.124a1.017,1.017,0,0,0,1.045-.99Z" transform="translate(-75.354 -102.876)" fill="#ffbc92"/>
                <path id="Trazado_131699" data-name="Trazado 131699" d="M77.81,105.945a70.759,70.759,0,0,1,8.041-2.845,44.6,44.6,0,0,1,6.735,1.072s-1.7,1.773-1.567,3.024.783,4.439.783,4.439a30.884,30.884,0,0,1-6.872.88,22.321,22.321,0,0,1-4.33-.907Z" transform="translate(-77.81 -103.1)" fill="#ffbc92"/>
              </g>
              <path id="Trazado_131700" data-name="Trazado 131700" d="M102,57.854s1.993-1.374,1.608-5.044a8.632,8.632,0,0,1,2.337-6.556,38.17,38.17,0,0,1,3.271-3.642c1.086-.289.715,1.017,1.031.921s1.443-.481,1.539.619.385.893.756,1.031.564,1.045.344,1.512.412.673.4,1.278a3.134,3.134,0,0,1-.852,1.759,6.268,6.268,0,0,0-1.636,4.687c0,2.254-.234,5.855-3.78,6.749S102,57.854,102,57.854Z" transform="translate(-6.537 -42.57)" fill="#ffbc92"/>
              <path id="Trazado_131701" data-name="Trazado 131701" d="M79.651,71.554c0,.522,1.457,5.5,3.422,7.367a6.24,6.24,0,0,0,4.687,1.993,20.455,20.455,0,0,1,1.512-2.144c.948-1.031,2.873-.962,2.749-1.856s-3.409-1.691-5.292-4.123-1.374-4.577-1.773-4.824-1.814,1.374-2.57,1.732S79.555,69.52,79.651,71.554Z" transform="translate(-14.907 -33.069)" fill="#c6dfff"/>
            </g>
            <g id="Grupo_82093" data-name="Grupo 82093" transform="translate(0 55.134)">
              <rect id="Rectángulo_35325" data-name="Rectángulo 35325" width="8.151" height="57.92" transform="translate(38.946 140.177) rotate(180)" fill="#95a1a9"/>
              <rect id="Rectángulo_35326" data-name="Rectángulo 35326" width="4.508" height="16.122" transform="translate(15.47 82.849) rotate(180)" fill="#95a1a9"/>
              <rect id="Rectángulo_35327" data-name="Rectángulo 35327" width="53.673" height="11.683" rx="1.4" transform="translate(64.635 87.879) rotate(180)" fill="#2c2c2c"/>
              <rect id="Rectángulo_35328" data-name="Rectángulo 35328" width="8.453" height="71.788" rx="1.19" transform="translate(16.771 71.298) rotate(173.3)" fill="#2c2c2c"/>
              <path id="Trazado_131702" data-name="Trazado 131702" d="M22.708,84.463h0a1.374,1.374,0,0,1,1.526,1.2l7.45,63.349a1.374,1.374,0,0,1-1.2,1.512h0a1.374,1.374,0,0,1-1.526-1.2l-7.45-63.349A1.374,1.374,0,0,1,22.708,84.463Z" transform="translate(-16.873 -82.02)" fill="#404048"/>
              <path id="Trazado_131703" data-name="Trazado 131703" d="M55.29,190.862a4.742,4.742,0,1,0,4.742-4.742,4.742,4.742,0,0,0-4.742,4.742Z" transform="translate(-4.221 -43.95)" fill="#2c2c2c"/>
              <path id="Trazado_131704" data-name="Trazado 131704" d="M24,190.862a4.742,4.742,0,1,0,4.742-4.742A4.742,4.742,0,0,0,24,190.862Z" transform="translate(-15.938 -43.95)" fill="#2c2c2c"/>
              <path id="Trazado_131705" data-name="Trazado 131705" d="M22.91,188.656H79.524a3.986,3.986,0,0,0-4-3.986H26.9a3.986,3.986,0,0,0-3.986,3.986Z" transform="translate(-16.346 -44.493)" fill="#95a1a9"/>
              <rect id="Rectángulo_35329" data-name="Rectángulo 35329" width="2.048" height="52.862" transform="translate(34.149 140.177) rotate(180)" fill="#95a1a9"/>
            </g>
          </g>
          <g id="Grupo_82095" data-name="Grupo 82095" transform="translate(48.32 121.178)">
            <rect id="Rectángulo_35330" data-name="Rectángulo 35330" width="115.276" height="7.573" transform="translate(9.113 115.578) rotate(-90)" fill="#74848e"/>
            <rect id="Rectángulo_35331" data-name="Rectángulo 35331" width="115.276" height="7.573" transform="translate(170.68 115.592) rotate(-90)" fill="#74848e"/>
            <rect id="Rectángulo_35332" data-name="Rectángulo 35332" width="166.818" height="16.397" transform="translate(10.171 2.117)" fill="#74848e"/>
            <path id="Trazado_131706" data-name="Trazado 131706" d="M228.923,120.617l-169,1.622V116.81l169,.055Z" transform="translate(-50.807 -107.395)" fill="#b8b8bd"/>
            <rect id="Rectángulo_35333" data-name="Rectángulo 35333" width="187.806" height="9.525" fill="#95a1a9"/>
          </g>
          <g id="Grupo_82096" data-name="Grupo 82096" transform="translate(84.028 85.552)">
            <path id="Trazado_131707" data-name="Trazado 131707" d="M91.57,117.123h44.01l4.948-33.083h-44Z" transform="translate(-74.664 -84.04)" fill="#8d8d8d"/>
            <rect id="Rectángulo_35334" data-name="Rectángulo 35334" width="16.92" height="2.543" transform="translate(0 33.083)" fill="#8d8d8d"/>
            <path id="Trazado_131708" data-name="Trazado 131708" d="M96.532,84.04l39.007,33.083H91.57Z" transform="translate(-74.664 -84.04)" fill="#767676" opacity="0.5"/>
            <rect id="Rectángulo_35335" data-name="Rectángulo 35335" width="43.955" height="2.543" transform="translate(60.875 35.626) rotate(180)" fill="#767676"/>
            <path id="Trazado_131709" data-name="Trazado 131709" d="M109.061,97.2a3.12,3.12,0,1,0,3.807-2.928,3.422,3.422,0,0,0-3.807,2.928Z" transform="translate(-68.116 -80.216)" fill="#acd0ff"/>
          </g>
        </g>
      </g>
    </g>
  </g>
</svg>
