<svg xmlns="http://www.w3.org/2000/svg" xmlns:xlink="http://www.w3.org/1999/xlink" width="1001" height="500" viewBox="0 0 1001 500">
  <defs>
    <linearGradient id="linear-gradient" y1="0.5" x2="1" y2="0.5" gradientUnits="objectBoundingBox">
      <stop offset="0.08" stop-color="#276871" stop-opacity="0"/>
      <stop offset="0.42" stop-color="#276871"/>
    </linearGradient>
    <linearGradient id="linear-gradient-2" x1="0.492" y1="0.912" x2="0.515" y2="0.065" gradientUnits="objectBoundingBox">
      <stop offset="0" stop-color="#2daea0"/>
      <stop offset="0.9" stop-color="#33b2a5"/>
      <stop offset="0.98" stop-color="#6de0d4"/>
    </linearGradient>
    <linearGradient id="linear-gradient-4" x1="0.493" y1="0.913" x2="0.515" y2="0.065" xlink:href="#linear-gradient-2"/>
    <linearGradient id="linear-gradient-5" x1="0" y1="0.5" x2="1" y2="0.5" xlink:href="#linear-gradient"/>
    <linearGradient id="linear-gradient-6" x1="0.494" y1="0.912" x2="0.517" y2="0.065" xlink:href="#linear-gradient-2"/>
    <linearGradient id="linear-gradient-8" x1="0.491" y1="0.912" x2="0.515" y2="0.065" xlink:href="#linear-gradient-2"/>
    <linearGradient id="linear-gradient-10" x1="0.492" y1="0.912" x2="0.515" y2="0.065" xlink:href="#linear-gradient-2"/>
  </defs>
  <g id="Grupo_83122" data-name="Grupo 83122" transform="translate(-334 -3955)">
    <g id="Grupo_78284" data-name="Grupo 78284" transform="translate(-377 -2570)">
      <g id="Capa_1" data-name="Capa 1" transform="translate(711 6524.17)">
        <rect id="Rectángulo_35703" data-name="Rectángulo 35703" width="500" height="500" transform="translate(0 0.83)" fill="none"/>
        <g id="Grupo_82600" data-name="Grupo 82600">
          <g id="Grupo_82595" data-name="Grupo 82595">
            <path id="Trazado_133878" data-name="Trazado 133878" d="M183.11,24.86h51.45V60.41H196.74a13.63,13.63,0,0,1-13.63-13.63Z" transform="translate(251.47 -166.2) rotate(90)" fill="#276871"/>
            <rect id="Rectángulo_35704" data-name="Rectángulo 35704" width="214.22" height="37.58" rx="6.72" transform="translate(17.67 31.64)" fill="#3a8e9b"/>
            <rect id="Rectángulo_35705" data-name="Rectángulo 35705" width="214.22" height="37.58" rx="6.72" transform="translate(18.52 30.78)" fill="#c0ebe7"/>
            <rect id="Rectángulo_35706" data-name="Rectángulo 35706" width="24.71" height="37.58" transform="translate(205.22 30.78)" fill="url(#linear-gradient)"/>
            <path id="Trazado_133879" data-name="Trazado 133879" d="M247.29,78.61V28.56a11.65,11.65,0,0,0-11.65-11.65h-34A10.07,10.07,0,0,1,211.78,27V78.66h-10.9l27.93,27.93,27.93-27.93Z" fill="url(#linear-gradient-2)"/>
            <path id="Trazado_135786" data-name="Trazado 135786" d="M5.88-4.685h-2.1V0H1.143V-12.8H5.9a5.375,5.375,0,0,1,3.5,1.011,3.488,3.488,0,0,1,1.23,2.856,3.937,3.937,0,0,1-.567,2.184A3.866,3.866,0,0,1,8.341-5.353L11.109-.123V0H8.279ZM3.779-6.82H5.906a2.178,2.178,0,0,0,1.538-.505,1.806,1.806,0,0,0,.545-1.393,1.933,1.933,0,0,0-.514-1.424A2.137,2.137,0,0,0,5.9-10.661H3.779Zm13.061,7a4.668,4.668,0,0,1-3.406-1.283A4.561,4.561,0,0,1,12.12-4.526v-.246a5.745,5.745,0,0,1,.554-2.562,4.064,4.064,0,0,1,1.569-1.74,4.4,4.4,0,0,1,2.316-.611,3.947,3.947,0,0,1,3.072,1.23,5,5,0,0,1,1.121,3.489v1.037H14.7a2.36,2.36,0,0,0,.743,1.494,2.245,2.245,0,0,0,1.569.563A2.742,2.742,0,0,0,19.3-2.936l1.248,1.4A3.813,3.813,0,0,1,19-.277,5.075,5.075,0,0,1,16.84.176Zm-.29-7.813a1.587,1.587,0,0,0-1.226.512,2.651,2.651,0,0,0-.6,1.466h3.533v-.2A1.891,1.891,0,0,0,17.8-7.174,1.638,1.638,0,0,0,16.55-7.638ZM21.8-4.843a5.684,5.684,0,0,1,1-3.542,3.261,3.261,0,0,1,2.738-1.3,2.92,2.92,0,0,1,2.435,1.169l.167-.993h2.232V3.656H27.817V-.817a2.928,2.928,0,0,1-2.3.993,3.237,3.237,0,0,1-2.707-1.318A5.963,5.963,0,0,1,21.8-4.843Zm2.54.18a3.729,3.729,0,0,0,.479,2.077,1.533,1.533,0,0,0,1.349.713,1.708,1.708,0,0,0,1.652-.933V-6.74a1.694,1.694,0,0,0-1.635-.9,1.552,1.552,0,0,0-1.362.713A4.118,4.118,0,0,0,24.337-4.662Zm13.72,3.7a3.185,3.185,0,0,1-2.6,1.143A3,3,0,0,1,33.122-.7,3.752,3.752,0,0,1,32.3-3.278V-9.51h2.54v6.151q0,1.487,1.354,1.487a1.834,1.834,0,0,0,1.775-.9V-9.51h2.549V0H38.127ZM46.811.176A4.668,4.668,0,0,1,43.4-1.107a4.561,4.561,0,0,1-1.314-3.419v-.246a5.745,5.745,0,0,1,.554-2.562,4.064,4.064,0,0,1,1.569-1.74,4.4,4.4,0,0,1,2.316-.611A3.947,3.947,0,0,1,49.6-8.455a5,5,0,0,1,1.121,3.489v1.037H44.666a2.36,2.36,0,0,0,.743,1.494,2.245,2.245,0,0,0,1.569.563,2.742,2.742,0,0,0,2.294-1.063l1.248,1.4A3.813,3.813,0,0,1,48.973-.277,5.075,5.075,0,0,1,46.811.176Zm-.29-7.813a1.587,1.587,0,0,0-1.226.512,2.651,2.651,0,0,0-.6,1.466h3.533v-.2a1.891,1.891,0,0,0-.457-1.311A1.638,1.638,0,0,0,46.521-7.638Zm10.986.51a6.9,6.9,0,0,0-.914-.07,1.86,1.86,0,0,0-1.89.976V0h-2.54V-9.51h2.4l.07,1.134a2.354,2.354,0,0,1,2.118-1.31,2.662,2.662,0,0,1,.791.114ZM61.409,0H58.86V-9.51h2.549Zm-2.7-11.971a1.251,1.251,0,0,1,.382-.94,1.436,1.436,0,0,1,1.042-.369,1.44,1.44,0,0,1,1.037.369,1.244,1.244,0,0,1,.387.94,1.247,1.247,0,0,1-.391.949,1.443,1.443,0,0,1-1.033.369,1.443,1.443,0,0,1-1.033-.369A1.247,1.247,0,0,1,58.711-11.971ZM65.883-9.51l.079,1.063A3.342,3.342,0,0,1,68.7-9.686a2.536,2.536,0,0,1,2.522,1.45,3.265,3.265,0,0,1,2.856-1.45,2.836,2.836,0,0,1,2.3.9,4.141,4.141,0,0,1,.756,2.711V0H74.584V-6.078a1.818,1.818,0,0,0-.316-1.185,1.4,1.4,0,0,0-1.116-.374,1.585,1.585,0,0,0-1.582,1.092L71.578,0h-2.54V-6.07a1.8,1.8,0,0,0-.325-1.2,1.414,1.414,0,0,0-1.107-.37,1.645,1.645,0,0,0-1.564.9V0H63.5V-9.51ZM81.765,0H79.216V-9.51h2.549Zm-2.7-11.971a1.251,1.251,0,0,1,.382-.94,1.436,1.436,0,0,1,1.042-.369,1.44,1.44,0,0,1,1.037.369,1.244,1.244,0,0,1,.387.94,1.247,1.247,0,0,1-.391.949,1.443,1.443,0,0,1-1.033.369,1.443,1.443,0,0,1-1.033-.369A1.247,1.247,0,0,1,79.066-11.971ZM88.233.176a4.668,4.668,0,0,1-3.406-1.283,4.561,4.561,0,0,1-1.314-3.419v-.246a5.745,5.745,0,0,1,.554-2.562,4.064,4.064,0,0,1,1.569-1.74,4.4,4.4,0,0,1,2.316-.611,3.947,3.947,0,0,1,3.072,1.23,5,5,0,0,1,1.121,3.489v1.037H86.089a2.36,2.36,0,0,0,.743,1.494,2.245,2.245,0,0,0,1.569.563,2.742,2.742,0,0,0,2.294-1.063l1.248,1.4A3.813,3.813,0,0,1,90.4-.277,5.075,5.075,0,0,1,88.233.176Zm-.29-7.813a1.587,1.587,0,0,0-1.226.512,2.651,2.651,0,0,0-.6,1.466h3.533v-.2a1.891,1.891,0,0,0-.457-1.311A1.638,1.638,0,0,0,87.943-7.638Zm7.98-1.872L96-8.411a3.32,3.32,0,0,1,2.733-1.274,2.759,2.759,0,0,1,2.25.888,4.142,4.142,0,0,1,.756,2.654V0H99.2V-6.1a1.654,1.654,0,0,0-.352-1.176,1.572,1.572,0,0,0-1.169-.366,1.747,1.747,0,0,0-1.608.916V0h-2.54V-9.51Zm10.784-2.338V-9.51h1.626v1.863h-1.626V-2.9a1.133,1.133,0,0,0,.2.756,1.015,1.015,0,0,0,.773.229,4.051,4.051,0,0,0,.747-.062V-.053a5.229,5.229,0,0,1-1.538.229,2.425,2.425,0,0,1-2.725-2.7V-7.646h-1.389V-9.51h1.389v-2.338Zm2.2,7a5.64,5.64,0,0,1,.545-2.522,3.989,3.989,0,0,1,1.569-1.714,4.577,4.577,0,0,1,2.377-.606,4.33,4.33,0,0,1,3.142,1.178,4.727,4.727,0,0,1,1.358,3.2l.018.65A4.97,4.97,0,0,1,116.7-1.147,4.247,4.247,0,0,1,113.419.176a4.268,4.268,0,0,1-3.283-1.318,5.058,5.058,0,0,1-1.226-3.586Zm2.54.18a3.555,3.555,0,0,0,.51,2.073,1.682,1.682,0,0,0,1.459.717,1.686,1.686,0,0,0,1.441-.709,3.89,3.89,0,0,0,.519-2.267,3.519,3.519,0,0,0-.519-2.06,1.686,1.686,0,0,0-1.459-.731,1.658,1.658,0,0,0-1.441.726A3.955,3.955,0,0,0,111.45-4.662Zm13.184,2.035a.818.818,0,0,0-.461-.734,5.241,5.241,0,0,0-1.481-.479Q119.3-4.553,119.3-6.724a2.613,2.613,0,0,1,1.05-2.114,4.237,4.237,0,0,1,2.747-.848,4.56,4.56,0,0,1,2.9.853,2.687,2.687,0,0,1,1.085,2.215h-2.54a1.229,1.229,0,0,0-.352-.9,1.488,1.488,0,0,0-1.1-.356,1.52,1.52,0,0,0-.993.29.916.916,0,0,0-.352.738.783.783,0,0,0,.4.681,4.114,4.114,0,0,0,1.349.448,11.019,11.019,0,0,1,1.6.426A2.628,2.628,0,0,1,127.1-2.733a2.481,2.481,0,0,1-1.116,2.1,4.815,4.815,0,0,1-2.883.8,5.029,5.029,0,0,1-2.123-.426,3.561,3.561,0,0,1-1.455-1.169,2.716,2.716,0,0,1-.527-1.6h2.408a1.326,1.326,0,0,0,.5,1.037,1.987,1.987,0,0,0,1.248.36,1.839,1.839,0,0,0,1.1-.277A.861.861,0,0,0,124.633-2.628Z" transform="translate(44.98 56.35)" fill="#012739"/>
          </g>
          <g id="Grupo_82596" data-name="Grupo 82596">
            <path id="Trazado_133880" data-name="Trazado 133880" d="M235.46,120.35h51.45V155.9H249.09a13.63,13.63,0,0,1-13.63-13.63V120.35Z" transform="translate(399.31 -123.06) rotate(90)" fill="#276871"/>
            <rect id="Rectángulo_35707" data-name="Rectángulo 35707" width="214.22" height="37.58" rx="6.72" transform="translate(70.02 127.12)" fill="#3a8e9b"/>
            <rect id="Rectángulo_35708" data-name="Rectángulo 35708" width="214.22" height="37.58" rx="6.72" transform="translate(70.87 126.27)" fill="#6de0d4"/>
            <rect id="Rectángulo_35709" data-name="Rectángulo 35709" width="24.71" height="37.58" transform="translate(257.57 126.27)" fill="url(#linear-gradient)"/>
            <path id="Trazado_133881" data-name="Trazado 133881" d="M299.64,174.09V124.05A11.65,11.65,0,0,0,288,112.39H254a10.07,10.07,0,0,1,10.07,10.07v51.66h-10.9L281.19,202l27.93-27.93Z" fill="url(#linear-gradient-4)"/>
            <path id="Trazado_135787" data-name="Trazado 135787" d="M1.143,0V-12.8H5.08a5.98,5.98,0,0,1,3.019.76,5.3,5.3,0,0,1,2.079,2.162,6.669,6.669,0,0,1,.747,3.186V-6.1a6.688,6.688,0,0,1-.734,3.173A5.256,5.256,0,0,1,8.121-.773,6.025,6.025,0,0,1,5.106,0ZM3.779-10.661v8.543H5.054A2.863,2.863,0,0,0,7.418-3.129a4.567,4.567,0,0,0,.835-2.892V-6.7a4.64,4.64,0,0,0-.809-2.958A2.854,2.854,0,0,0,5.08-10.661ZM15.354,0H12.806V-9.51h2.549Zm-2.7-11.971a1.251,1.251,0,0,1,.382-.94,1.436,1.436,0,0,1,1.042-.369,1.44,1.44,0,0,1,1.037.369,1.244,1.244,0,0,1,.387.94,1.247,1.247,0,0,1-.391.949,1.443,1.443,0,0,1-1.033.369,1.443,1.443,0,0,1-1.033-.369A1.247,1.247,0,0,1,12.656-11.971ZM22.6-2.628a.818.818,0,0,0-.461-.734,5.241,5.241,0,0,0-1.481-.479q-3.393-.712-3.393-2.883a2.613,2.613,0,0,1,1.05-2.114,4.237,4.237,0,0,1,2.747-.848,4.56,4.56,0,0,1,2.9.853A2.687,2.687,0,0,1,25.04-6.618H22.5a1.229,1.229,0,0,0-.352-.9,1.488,1.488,0,0,0-1.1-.356,1.52,1.52,0,0,0-.993.29.916.916,0,0,0-.352.738.783.783,0,0,0,.4.681,4.114,4.114,0,0,0,1.349.448,11.019,11.019,0,0,1,1.6.426,2.628,2.628,0,0,1,2.013,2.558,2.481,2.481,0,0,1-1.116,2.1,4.815,4.815,0,0,1-2.883.8A5.029,5.029,0,0,1,18.945-.25,3.561,3.561,0,0,1,17.49-1.419a2.716,2.716,0,0,1-.527-1.6h2.408a1.326,1.326,0,0,0,.5,1.037,1.987,1.987,0,0,0,1.248.36,1.839,1.839,0,0,0,1.1-.277A.861.861,0,0,0,22.6-2.628Zm8.481,2.8a4.668,4.668,0,0,1-3.406-1.283,4.561,4.561,0,0,1-1.314-3.419v-.246a5.745,5.745,0,0,1,.554-2.562,4.064,4.064,0,0,1,1.569-1.74A4.4,4.4,0,0,1,30.8-9.686a3.947,3.947,0,0,1,3.072,1.23,5,5,0,0,1,1.121,3.489v1.037H28.934a2.36,2.36,0,0,0,.743,1.494,2.245,2.245,0,0,0,1.569.563,2.742,2.742,0,0,0,2.294-1.063l1.248,1.4A3.813,3.813,0,0,1,33.24-.277,5.075,5.075,0,0,1,31.078.176Zm-.29-7.813a1.587,1.587,0,0,0-1.226.512,2.651,2.651,0,0,0-.6,1.466h3.533v-.2a1.891,1.891,0,0,0-.457-1.311A1.638,1.638,0,0,0,30.788-7.638Zm7.98-1.872.079,1.1a3.32,3.32,0,0,1,2.733-1.274,2.759,2.759,0,0,1,2.25.888,4.142,4.142,0,0,1,.756,2.654V0h-2.54V-6.1A1.654,1.654,0,0,0,41.7-7.272a1.572,1.572,0,0,0-1.169-.366,1.747,1.747,0,0,0-1.608.916V0h-2.54V-9.51Zm5.045-3.876a2.46,2.46,0,0,1-.58,1.666,1.8,1.8,0,0,1-1.415.672,2.146,2.146,0,0,1-.593-.075,3.981,3.981,0,0,1-.716-.321,3.864,3.864,0,0,0-.659-.3,1.611,1.611,0,0,0-.439-.057.7.7,0,0,0-.523.22.854.854,0,0,0-.215.624L37.2-11.048a2.5,2.5,0,0,1,.576-1.661,1.776,1.776,0,0,1,1.411-.686,1.816,1.816,0,0,1,.5.066,5.468,5.468,0,0,1,.76.321,4.941,4.941,0,0,0,.729.308,1.665,1.665,0,0,0,.422.053.741.741,0,0,0,.532-.215.819.819,0,0,0,.224-.62Zm2.3,8.543a5.64,5.64,0,0,1,.545-2.522A3.989,3.989,0,0,1,48.23-9.079a4.577,4.577,0,0,1,2.377-.606A4.33,4.33,0,0,1,53.75-8.508a4.727,4.727,0,0,1,1.358,3.2l.018.65A4.97,4.97,0,0,1,53.9-1.147,4.247,4.247,0,0,1,50.625.176a4.268,4.268,0,0,1-3.283-1.318,5.058,5.058,0,0,1-1.226-3.586Zm2.54.18a3.555,3.555,0,0,0,.51,2.073,1.682,1.682,0,0,0,1.459.717,1.686,1.686,0,0,0,1.441-.709,3.89,3.89,0,0,0,.519-2.267,3.519,3.519,0,0,0-.519-2.06,1.686,1.686,0,0,0-1.459-.731,1.658,1.658,0,0,0-1.441.726A3.955,3.955,0,0,0,48.656-4.662Z" transform="translate(98.55 151.54)" fill="#012739"/>
          </g>
          <g id="Grupo_82597" data-name="Grupo 82597">
            <path id="Trazado_133882" data-name="Trazado 133882" d="M287.81,215.83h51.45v35.55H301.44a13.63,13.63,0,0,1-13.63-13.63Z" transform="translate(547.14 -79.93) rotate(90)" fill="#276871"/>
            <rect id="Rectángulo_35710" data-name="Rectángulo 35710" width="214.22" height="37.58" rx="6.72" transform="translate(122.37 222.61)" fill="#3a8e9b"/>
            <rect id="Rectángulo_35711" data-name="Rectángulo 35711" width="214.22" height="37.58" rx="6.72" transform="translate(123.22 221.75)" fill="#6ec7df"/>
            <rect id="Rectángulo_35712" data-name="Rectángulo 35712" width="24.71" height="37.58" transform="translate(309.93 221.75)" fill="url(#linear-gradient-5)"/>
            <path id="Trazado_133883" data-name="Trazado 133883" d="M352,269.57V219.53a11.66,11.66,0,0,0-11.66-11.65h-34a10.06,10.06,0,0,1,10.07,10.06v51.65h-10.9l27.93,27.93,27.93-27.93Z" fill="url(#linear-gradient-6)"/>
            <path id="Trazado_135788" data-name="Trazado 135788" d="M3.946,0H1.31V-12.8H3.946ZM8.6-9.51l.079,1.063a3.342,3.342,0,0,1,2.733-1.239,2.536,2.536,0,0,1,2.522,1.45A3.265,3.265,0,0,1,16.8-9.686a2.836,2.836,0,0,1,2.3.9,4.141,4.141,0,0,1,.756,2.711V0H17.306V-6.078a1.818,1.818,0,0,0-.316-1.185,1.4,1.4,0,0,0-1.116-.374,1.585,1.585,0,0,0-1.582,1.092L14.3,0H11.76V-6.07a1.8,1.8,0,0,0-.325-1.2,1.414,1.414,0,0,0-1.107-.37,1.645,1.645,0,0,0-1.564.9V0H6.223V-9.51ZM30.366-4.667a5.7,5.7,0,0,1-1,3.52A3.2,3.2,0,0,1,26.675.176a2.963,2.963,0,0,1-2.329-1V3.656h-2.54V-9.51h2.355l.088.932a2.985,2.985,0,0,1,2.408-1.107,3.22,3.22,0,0,1,2.733,1.3A5.858,5.858,0,0,1,30.366-4.8Zm-2.54-.194a3.763,3.763,0,0,0-.47-2.054,1.53,1.53,0,0,0-1.367-.723,1.662,1.662,0,0,0-1.644.917v3.906a1.691,1.691,0,0,0,1.661.943Q27.826-1.872,27.826-4.861ZM34.62,0H32.071V-13.5H34.62Zm6.469.176a4.668,4.668,0,0,1-3.406-1.283,4.561,4.561,0,0,1-1.314-3.419v-.246a5.745,5.745,0,0,1,.554-2.562,4.064,4.064,0,0,1,1.569-1.74,4.4,4.4,0,0,1,2.316-.611,3.947,3.947,0,0,1,3.072,1.23A5,5,0,0,1,45-4.966v1.037H38.944a2.36,2.36,0,0,0,.743,1.494,2.245,2.245,0,0,0,1.569.563A2.742,2.742,0,0,0,43.55-2.936l1.248,1.4A3.813,3.813,0,0,1,43.251-.277,5.075,5.075,0,0,1,41.089.176ZM40.8-7.638a1.587,1.587,0,0,0-1.226.512,2.651,2.651,0,0,0-.6,1.466H42.5v-.2a1.891,1.891,0,0,0-.457-1.311A1.638,1.638,0,0,0,40.8-7.638ZM48.823-9.51,48.9-8.446a3.342,3.342,0,0,1,2.733-1.239,2.536,2.536,0,0,1,2.522,1.45,3.265,3.265,0,0,1,2.856-1.45,2.836,2.836,0,0,1,2.3.9,4.141,4.141,0,0,1,.756,2.711V0H57.524V-6.078a1.818,1.818,0,0,0-.316-1.185,1.4,1.4,0,0,0-1.116-.374A1.585,1.585,0,0,0,54.51-6.545L54.519,0h-2.54V-6.07a1.8,1.8,0,0,0-.325-1.2,1.414,1.414,0,0,0-1.107-.37,1.645,1.645,0,0,0-1.564.9V0h-2.54V-9.51ZM66.4.176A4.668,4.668,0,0,1,63-1.107a4.561,4.561,0,0,1-1.314-3.419v-.246a5.745,5.745,0,0,1,.554-2.562A4.064,4.064,0,0,1,63.8-9.075a4.4,4.4,0,0,1,2.316-.611,3.947,3.947,0,0,1,3.072,1.23,5,5,0,0,1,1.121,3.489v1.037H64.257A2.36,2.36,0,0,0,65-2.435a2.245,2.245,0,0,0,1.569.563,2.742,2.742,0,0,0,2.294-1.063l1.248,1.4A3.813,3.813,0,0,1,68.563-.277,5.075,5.075,0,0,1,66.4.176Zm-.29-7.813a1.587,1.587,0,0,0-1.226.512,2.651,2.651,0,0,0-.6,1.466h3.533v-.2a1.891,1.891,0,0,0-.457-1.311A1.638,1.638,0,0,0,66.111-7.638Zm7.98-1.872.079,1.1A3.32,3.32,0,0,1,76.9-9.686a2.759,2.759,0,0,1,2.25.888,4.142,4.142,0,0,1,.756,2.654V0H77.37V-6.1a1.654,1.654,0,0,0-.352-1.176,1.572,1.572,0,0,0-1.169-.366,1.747,1.747,0,0,0-1.608.916V0H71.7V-9.51Zm10.784-2.338V-9.51H86.5v1.863H84.876V-2.9a1.133,1.133,0,0,0,.2.756,1.015,1.015,0,0,0,.773.229,4.051,4.051,0,0,0,.747-.062V-.053a5.229,5.229,0,0,1-1.538.229,2.425,2.425,0,0,1-2.725-2.7V-7.646H80.947V-9.51h1.389v-2.338ZM93.428,0a2.821,2.821,0,0,1-.255-.853,3.073,3.073,0,0,1-2.4,1.028,3.376,3.376,0,0,1-2.316-.809,2.6,2.6,0,0,1-.918-2.039,2.687,2.687,0,0,1,1.121-2.32A5.529,5.529,0,0,1,91.9-5.81h1.169v-.545a1.567,1.567,0,0,0-.338-1.055,1.331,1.331,0,0,0-1.068-.4,1.513,1.513,0,0,0-1.006.308,1.045,1.045,0,0,0-.365.844H87.75a2.551,2.551,0,0,1,.51-1.529,3.37,3.37,0,0,1,1.441-1.1,5.253,5.253,0,0,1,2.092-.4,4.15,4.15,0,0,1,2.791.883,3.09,3.09,0,0,1,1.033,2.483V-2.2a4.546,4.546,0,0,0,.378,2.048V0Zm-2.1-1.767a2.188,2.188,0,0,0,1.037-.25,1.645,1.645,0,0,0,.7-.672V-4.324h-.949q-1.907,0-2.03,1.318l-.009.149a1.017,1.017,0,0,0,.334.782A1.3,1.3,0,0,0,91.327-1.767Zm10.2-.105a1.666,1.666,0,0,0,1.143-.387,1.355,1.355,0,0,0,.457-1.028H105.5a3.258,3.258,0,0,1-.527,1.771,3.48,3.48,0,0,1-1.419,1.248,4.442,4.442,0,0,1-1.991.444,4.129,4.129,0,0,1-3.217-1.3A5.13,5.13,0,0,1,97.172-4.7v-.167a5.071,5.071,0,0,1,1.169-3.507,4.08,4.08,0,0,1,3.208-1.31A4,4,0,0,1,104.41-8.67a3.594,3.594,0,0,1,1.094,2.7h-2.382a1.745,1.745,0,0,0-.457-1.206,1.524,1.524,0,0,0-1.16-.464,1.53,1.53,0,0,0-1.34.647,3.749,3.749,0,0,0-.453,2.1v.264a3.8,3.8,0,0,0,.448,2.113A1.549,1.549,0,0,0,101.522-1.872ZM109.635,0h-2.549V-9.51h2.549Zm-2.7-11.971a1.251,1.251,0,0,1,.382-.94,1.436,1.436,0,0,1,1.042-.369,1.44,1.44,0,0,1,1.037.369,1.244,1.244,0,0,1,.387.94,1.247,1.247,0,0,1-.391.949,1.443,1.443,0,0,1-1.033.369,1.443,1.443,0,0,1-1.033-.369A1.247,1.247,0,0,1,106.937-11.971Zm4.395,7.128a5.64,5.64,0,0,1,.545-2.522,3.989,3.989,0,0,1,1.569-1.714,4.577,4.577,0,0,1,2.377-.606,4.33,4.33,0,0,1,3.142,1.178,4.727,4.727,0,0,1,1.358,3.2l.018.65a4.97,4.97,0,0,1-1.222,3.511A4.247,4.247,0,0,1,115.84.176a4.268,4.268,0,0,1-3.283-1.318,5.058,5.058,0,0,1-1.226-3.586Zm2.54.18a3.555,3.555,0,0,0,.51,2.073,1.682,1.682,0,0,0,1.459.717,1.686,1.686,0,0,0,1.441-.709,3.89,3.89,0,0,0,.519-2.267,3.519,3.519,0,0,0-.519-2.06,1.686,1.686,0,0,0-1.459-.731,1.658,1.658,0,0,0-1.441.726A3.955,3.955,0,0,0,113.871-4.662Zm2.452-8.838h2.769l-2.435,2.725h-2.065Zm7.919,3.99.079,1.1a3.32,3.32,0,0,1,2.733-1.274,2.759,2.759,0,0,1,2.25.888,4.142,4.142,0,0,1,.756,2.654V0h-2.54V-6.1a1.654,1.654,0,0,0-.352-1.176A1.572,1.572,0,0,0,126-7.638a1.747,1.747,0,0,0-1.608.916V0h-2.54V-9.51Z" transform="translate(158.14 248.53)" fill="#012739"/>
          </g>
          <g id="Grupo_82598" data-name="Grupo 82598">
            <path id="Trazado_133884" data-name="Trazado 133884" d="M340.16,311.32h51.45v35.55H353.79a13.63,13.63,0,0,1-13.63-13.63Z" transform="translate(694.98 -36.8) rotate(90)" fill="#276871"/>
            <rect id="Rectángulo_35713" data-name="Rectángulo 35713" width="214.22" height="37.58" rx="6.72" transform="translate(174.72 318.09)" fill="#3a8e9b"/>
            <rect id="Rectángulo_35714" data-name="Rectángulo 35714" width="214.22" height="37.58" rx="6.72" transform="translate(175.57 317.24)" fill="#35afea"/>
            <rect id="Rectángulo_35715" data-name="Rectángulo 35715" width="24.71" height="37.58" transform="translate(362.28 317.24)" fill="url(#linear-gradient-5)"/>
            <path id="Trazado_133885" data-name="Trazado 133885" d="M404.34,365.06V315a11.66,11.66,0,0,0-11.66-11.66h-34a10.07,10.07,0,0,1,10.07,10.07v51.66H358L385.89,393l27.93-27.93Z" fill="url(#linear-gradient-8)"/>
            <path id="Trazado_135789" data-name="Trazado 135789" d="M5.871-3.173l2.9-9.624h2.936L7.251,0H4.5L.062-12.8H2.988ZM16.374.176a4.668,4.668,0,0,1-3.406-1.283,4.561,4.561,0,0,1-1.314-3.419v-.246a5.745,5.745,0,0,1,.554-2.562,4.064,4.064,0,0,1,1.569-1.74,4.4,4.4,0,0,1,2.316-.611,3.947,3.947,0,0,1,3.072,1.23,5,5,0,0,1,1.121,3.489v1.037H14.23a2.36,2.36,0,0,0,.743,1.494,2.245,2.245,0,0,0,1.569.563,2.742,2.742,0,0,0,2.294-1.063l1.248,1.4A3.813,3.813,0,0,1,18.536-.277,5.075,5.075,0,0,1,16.374.176Zm-.29-7.813a1.587,1.587,0,0,0-1.226.512,2.651,2.651,0,0,0-.6,1.466h3.533v-.2a1.891,1.891,0,0,0-.457-1.311A1.638,1.638,0,0,0,16.084-7.638Zm10.986.51a6.9,6.9,0,0,0-.914-.07,1.86,1.86,0,0,0-1.89.976V0h-2.54V-9.51h2.4l.07,1.134a2.354,2.354,0,0,1,2.118-1.31,2.662,2.662,0,0,1,.791.114ZM30.973,0H28.424V-9.51h2.549Zm-2.7-11.971a1.251,1.251,0,0,1,.382-.94A1.436,1.436,0,0,1,29.7-13.28a1.44,1.44,0,0,1,1.037.369,1.244,1.244,0,0,1,.387.94,1.247,1.247,0,0,1-.391.949,1.443,1.443,0,0,1-1.033.369,1.443,1.443,0,0,1-1.033-.369A1.247,1.247,0,0,1,28.275-11.971ZM33.68,0V-7.646H32.265V-9.51H33.68v-.439a3.566,3.566,0,0,1,1.1-2.764,4.438,4.438,0,0,1,3.063-.971,10.16,10.16,0,0,1,2.883.519l-.369,2.1a11.248,11.248,0,0,0-1.336-.33A6.564,6.564,0,0,0,38-11.47q-1.775,0-1.775,1.573v.387H38.1v1.863H36.229V0Zm8.235,0H39.367V-9.51h2.549Zm6.056-1.872a1.666,1.666,0,0,0,1.143-.387,1.355,1.355,0,0,0,.457-1.028h2.382a3.258,3.258,0,0,1-.527,1.771A3.48,3.48,0,0,1,50.006-.268a4.442,4.442,0,0,1-1.991.444,4.129,4.129,0,0,1-3.217-1.3A5.13,5.13,0,0,1,43.62-4.7v-.167a5.071,5.071,0,0,1,1.169-3.507A4.08,4.08,0,0,1,48-9.686,4,4,0,0,1,50.858-8.67a3.594,3.594,0,0,1,1.094,2.7H49.571a1.745,1.745,0,0,0-.457-1.206,1.524,1.524,0,0,0-1.16-.464,1.53,1.53,0,0,0-1.34.647,3.749,3.749,0,0,0-.453,2.1v.264a3.8,3.8,0,0,0,.448,2.113A1.549,1.549,0,0,0,47.971-1.872ZM58.913,0a2.821,2.821,0,0,1-.255-.853,3.073,3.073,0,0,1-2.4,1.028,3.376,3.376,0,0,1-2.316-.809,2.6,2.6,0,0,1-.918-2.039,2.687,2.687,0,0,1,1.121-2.32,5.529,5.529,0,0,1,3.239-.817h1.169v-.545a1.567,1.567,0,0,0-.338-1.055,1.331,1.331,0,0,0-1.068-.4A1.513,1.513,0,0,0,56.14-7.5a1.045,1.045,0,0,0-.365.844h-2.54a2.551,2.551,0,0,1,.51-1.529,3.37,3.37,0,0,1,1.441-1.1,5.253,5.253,0,0,1,2.092-.4,4.15,4.15,0,0,1,2.791.883A3.09,3.09,0,0,1,61.1-6.319V-2.2A4.546,4.546,0,0,0,61.48-.149V0Zm-2.1-1.767a2.188,2.188,0,0,0,1.037-.25,1.645,1.645,0,0,0,.7-.672V-4.324H57.6q-1.907,0-2.03,1.318l-.009.149a1.017,1.017,0,0,0,.334.782A1.3,1.3,0,0,0,56.813-1.767Zm10.2-.105a1.666,1.666,0,0,0,1.143-.387,1.355,1.355,0,0,0,.457-1.028H70.99a3.258,3.258,0,0,1-.527,1.771A3.48,3.48,0,0,1,69.043-.268a4.442,4.442,0,0,1-1.991.444,4.129,4.129,0,0,1-3.217-1.3A5.13,5.13,0,0,1,62.658-4.7v-.167a5.071,5.071,0,0,1,1.169-3.507,4.08,4.08,0,0,1,3.208-1.31A4,4,0,0,1,69.9-8.67a3.594,3.594,0,0,1,1.094,2.7H68.608a1.745,1.745,0,0,0-.457-1.206,1.524,1.524,0,0,0-1.16-.464,1.53,1.53,0,0,0-1.34.647,3.749,3.749,0,0,0-.453,2.1v.264a3.8,3.8,0,0,0,.448,2.113A1.549,1.549,0,0,0,67.008-1.872ZM75.12,0H72.572V-9.51H75.12Zm-2.7-11.971a1.251,1.251,0,0,1,.382-.94,1.436,1.436,0,0,1,1.042-.369,1.44,1.44,0,0,1,1.037.369,1.244,1.244,0,0,1,.387.94,1.247,1.247,0,0,1-.391.949,1.443,1.443,0,0,1-1.033.369,1.443,1.443,0,0,1-1.033-.369A1.247,1.247,0,0,1,72.422-11.971Zm4.395,7.128a5.64,5.64,0,0,1,.545-2.522,3.989,3.989,0,0,1,1.569-1.714,4.577,4.577,0,0,1,2.377-.606A4.33,4.33,0,0,1,84.45-8.508a4.727,4.727,0,0,1,1.358,3.2l.018.65A4.97,4.97,0,0,1,84.6-1.147,4.247,4.247,0,0,1,81.326.176a4.268,4.268,0,0,1-3.283-1.318,5.058,5.058,0,0,1-1.226-3.586Zm2.54.18a3.555,3.555,0,0,0,.51,2.073,1.682,1.682,0,0,0,1.459.717,1.686,1.686,0,0,0,1.441-.709,3.89,3.89,0,0,0,.519-2.267,3.519,3.519,0,0,0-.519-2.06,1.686,1.686,0,0,0-1.459-.731,1.658,1.658,0,0,0-1.441.726A3.955,3.955,0,0,0,79.357-4.662ZM81.809-13.5h2.769l-2.435,2.725H80.077Zm7.919,3.99.079,1.1A3.32,3.32,0,0,1,92.54-9.686a2.759,2.759,0,0,1,2.25.888,4.142,4.142,0,0,1,.756,2.654V0h-2.54V-6.1a1.654,1.654,0,0,0-.352-1.176,1.572,1.572,0,0,0-1.169-.366,1.747,1.747,0,0,0-1.608.916V0h-2.54V-9.51Z" transform="translate(210.26 342.38)" fill="#012739"/>
          </g>
          <g id="Grupo_82599" data-name="Grupo 82599">
            <path id="Trazado_133886" data-name="Trazado 133886" d="M392.51,406.8H444v35.55H406.14a13.63,13.63,0,0,1-13.63-13.63Z" transform="translate(842.81 6.33) rotate(90)" fill="#276871"/>
            <rect id="Rectángulo_35716" data-name="Rectángulo 35716" width="214.22" height="37.58" rx="6.72" transform="translate(227.07 413.58)" fill="#3a8e9b"/>
            <rect id="Rectángulo_35717" data-name="Rectángulo 35717" width="214.22" height="37.58" rx="6.72" transform="translate(227.92 412.72)" fill="#039be5"/>
            <rect id="Rectángulo_35718" data-name="Rectángulo 35718" width="24.71" height="37.58" transform="translate(414.63 412.72)" fill="url(#linear-gradient-5)"/>
            <path id="Trazado_133887" data-name="Trazado 133887" d="M456.69,460.54V410.5a11.65,11.65,0,0,0-11.66-11.65H411.12a10.06,10.06,0,0,1,10.06,10.06v51.65h-10.9l27.93,27.93,27.93-27.93Z" fill="url(#linear-gradient-10)"/>
            <path id="Trazado_135790" data-name="Trazado 135790" d="M4.588-12.8,7.875-3.516l3.27-9.281h3.463V0H11.962V-3.5l.264-6.038L8.771,0H6.961L3.516-9.527,3.779-3.5V0H1.143V-12.8ZM22.254,0A2.821,2.821,0,0,1,22-.853,3.073,3.073,0,0,1,19.6.176a3.376,3.376,0,0,1-2.316-.809,2.6,2.6,0,0,1-.918-2.039,2.687,2.687,0,0,1,1.121-2.32,5.529,5.529,0,0,1,3.239-.817h1.169v-.545a1.567,1.567,0,0,0-.338-1.055,1.331,1.331,0,0,0-1.068-.4,1.513,1.513,0,0,0-1.006.308,1.045,1.045,0,0,0-.365.844h-2.54a2.551,2.551,0,0,1,.51-1.529,3.37,3.37,0,0,1,1.441-1.1,5.253,5.253,0,0,1,2.092-.4A4.15,4.15,0,0,1,23.41-8.8a3.09,3.09,0,0,1,1.033,2.483V-2.2A4.546,4.546,0,0,0,24.82-.149V0Zm-2.1-1.767a2.188,2.188,0,0,0,1.037-.25,1.645,1.645,0,0,0,.7-.672V-4.324h-.949q-1.907,0-2.03,1.318l-.009.149a1.017,1.017,0,0,0,.334.782A1.3,1.3,0,0,0,20.153-1.767ZM28.731-9.51l.079,1.1a3.32,3.32,0,0,1,2.733-1.274,2.759,2.759,0,0,1,2.25.888,4.142,4.142,0,0,1,.756,2.654V0H32.01V-6.1a1.654,1.654,0,0,0-.352-1.176,1.572,1.572,0,0,0-1.169-.366,1.747,1.747,0,0,0-1.608.916V0h-2.54V-9.51Zm10.784-2.338V-9.51h1.626v1.863H39.516V-2.9a1.133,1.133,0,0,0,.2.756,1.015,1.015,0,0,0,.773.229,4.051,4.051,0,0,0,.747-.062V-.053A5.229,5.229,0,0,1,39.7.176a2.425,2.425,0,0,1-2.725-2.7V-7.646H35.587V-9.51h1.389v-2.338ZM46.934.176a4.668,4.668,0,0,1-3.406-1.283,4.561,4.561,0,0,1-1.314-3.419v-.246a5.745,5.745,0,0,1,.554-2.562,4.064,4.064,0,0,1,1.569-1.74,4.4,4.4,0,0,1,2.316-.611,3.947,3.947,0,0,1,3.072,1.23,5,5,0,0,1,1.121,3.489v1.037H44.789a2.36,2.36,0,0,0,.743,1.494,2.245,2.245,0,0,0,1.569.563,2.742,2.742,0,0,0,2.294-1.063l1.248,1.4A3.813,3.813,0,0,1,49.1-.277,5.075,5.075,0,0,1,46.934.176Zm-.29-7.813a1.587,1.587,0,0,0-1.226.512,2.651,2.651,0,0,0-.6,1.466h3.533v-.2a1.891,1.891,0,0,0-.457-1.311A1.638,1.638,0,0,0,46.644-7.638Zm7.98-1.872.079,1.1a3.32,3.32,0,0,1,2.733-1.274,2.759,2.759,0,0,1,2.25.888,4.142,4.142,0,0,1,.756,2.654V0H57.9V-6.1a1.654,1.654,0,0,0-.352-1.176,1.572,1.572,0,0,0-1.169-.366,1.747,1.747,0,0,0-1.608.916V0h-2.54V-9.51ZM65.048,0H62.5V-9.51h2.549Zm-2.7-11.971a1.251,1.251,0,0,1,.382-.94,1.436,1.436,0,0,1,1.042-.369,1.44,1.44,0,0,1,1.037.369,1.244,1.244,0,0,1,.387.94,1.247,1.247,0,0,1-.391.949,1.443,1.443,0,0,1-1.033.369,1.443,1.443,0,0,1-1.033-.369A1.247,1.247,0,0,1,62.35-11.971ZM69.521-9.51,69.6-8.446a3.342,3.342,0,0,1,2.733-1.239,2.536,2.536,0,0,1,2.522,1.45,3.265,3.265,0,0,1,2.856-1.45,2.836,2.836,0,0,1,2.3.9,4.141,4.141,0,0,1,.756,2.711V0H78.223V-6.078a1.818,1.818,0,0,0-.316-1.185,1.4,1.4,0,0,0-1.116-.374,1.585,1.585,0,0,0-1.582,1.092L75.217,0h-2.54V-6.07a1.8,1.8,0,0,0-.325-1.2,1.414,1.414,0,0,0-1.107-.37,1.645,1.645,0,0,0-1.564.9V0H67.14V-9.51ZM85.4,0H82.854V-9.51H85.4Zm-2.7-11.971a1.251,1.251,0,0,1,.382-.94,1.436,1.436,0,0,1,1.042-.369,1.44,1.44,0,0,1,1.037.369,1.244,1.244,0,0,1,.387.94,1.247,1.247,0,0,1-.391.949,1.443,1.443,0,0,1-1.033.369,1.443,1.443,0,0,1-1.033-.369A1.247,1.247,0,0,1,82.705-11.971ZM91.872.176a4.668,4.668,0,0,1-3.406-1.283,4.561,4.561,0,0,1-1.314-3.419v-.246a5.745,5.745,0,0,1,.554-2.562,4.064,4.064,0,0,1,1.569-1.74,4.4,4.4,0,0,1,2.316-.611,3.947,3.947,0,0,1,3.072,1.23,5,5,0,0,1,1.121,3.489v1.037H89.728a2.36,2.36,0,0,0,.743,1.494,2.245,2.245,0,0,0,1.569.563,2.742,2.742,0,0,0,2.294-1.063l1.248,1.4A3.813,3.813,0,0,1,94.034-.277,5.075,5.075,0,0,1,91.872.176Zm-.29-7.813a1.587,1.587,0,0,0-1.226.512,2.651,2.651,0,0,0-.6,1.466h3.533v-.2a1.891,1.891,0,0,0-.457-1.311A1.638,1.638,0,0,0,91.582-7.638Zm7.98-1.872.079,1.1a3.32,3.32,0,0,1,2.733-1.274,2.759,2.759,0,0,1,2.25.888,4.142,4.142,0,0,1,.756,2.654V0h-2.54V-6.1a1.654,1.654,0,0,0-.352-1.176,1.572,1.572,0,0,0-1.169-.366,1.747,1.747,0,0,0-1.608.916V0h-2.54V-9.51Zm10.784-2.338V-9.51h1.626v1.863h-1.626V-2.9a1.133,1.133,0,0,0,.2.756,1.015,1.015,0,0,0,.773.229,4.051,4.051,0,0,0,.747-.062V-.053a5.229,5.229,0,0,1-1.538.229,2.425,2.425,0,0,1-2.725-2.7V-7.646h-1.389V-9.51h1.389v-2.338Zm2.2,7a5.64,5.64,0,0,1,.545-2.522,3.989,3.989,0,0,1,1.569-1.714,4.577,4.577,0,0,1,2.377-.606,4.33,4.33,0,0,1,3.142,1.178,4.727,4.727,0,0,1,1.358,3.2l.018.65a4.97,4.97,0,0,1-1.222,3.511A4.247,4.247,0,0,1,117.057.176a4.268,4.268,0,0,1-3.283-1.318,5.058,5.058,0,0,1-1.226-3.586Zm2.54.18a3.555,3.555,0,0,0,.51,2.073,1.682,1.682,0,0,0,1.459.717,1.686,1.686,0,0,0,1.441-.709,3.89,3.89,0,0,0,.519-2.267,3.519,3.519,0,0,0-.519-2.06,1.686,1.686,0,0,0-1.459-.731,1.658,1.658,0,0,0-1.441.726A3.955,3.955,0,0,0,115.089-4.662Z" transform="translate(262.62 437.98)" fill="#012739"/>
          </g>
        </g>
      </g>
    </g>
    <g id="Capa_1-2" data-name="Capa 1" transform="translate(835 3954.17)">
      <rect id="Rectángulo_35647" data-name="Rectángulo 35647" width="500" height="500" transform="translate(0 0.83)" fill="none"/>
      <g id="Grupo_82558" data-name="Grupo 82558">
        <path id="Trazado_133799" data-name="Trazado 133799" d="M230,254.86v-.37a22.787,22.787,0,0,0,2.85-1.55,23.661,23.661,0,0,0,3-2.42l-.21-.81a20.119,20.119,0,0,0-.88-2.69c-.18-.43-.39-.85-.6-1.27a8.29,8.29,0,0,0-.68-1.24l-.43-.71a21.379,21.379,0,0,0-3.81.4,20.373,20.373,0,0,0-3.11.91l-.26-.26a22,22,0,0,0,.91-3.11,21.38,21.38,0,0,0,.4-3.81l-.71-.43a8.814,8.814,0,0,0-1.24-.68c-.42-.21-.84-.42-1.28-.6a20,20,0,0,0-2.68-.88l-.81-.21a23,23,0,0,0-2.42,3,21.458,21.458,0,0,0-1.55,2.85h-.37a20.452,20.452,0,0,0-1.56-2.85,22.882,22.882,0,0,0-2.41-3l-.81.21a19.532,19.532,0,0,0-2.68.88c-.43.18-.86.39-1.29.6a9.4,9.4,0,0,0-1.24.68l-.71.43a23.391,23.391,0,0,0,.41,3.81,19.619,19.619,0,0,0,.92,3.11c-.09.09-.19.17-.27.26a20,20,0,0,0-3.11-.91,21.477,21.477,0,0,0-3.81-.4l-.44.71a10.577,10.577,0,0,0-.68,1.24c-.19.42-.41.84-.59,1.27a20.119,20.119,0,0,0-.88,2.69l-.2.81a22.89,22.89,0,0,0,3,2.42,21.463,21.463,0,0,0,2.85,1.55v.37a20.452,20.452,0,0,0-2.85,1.56,21.917,21.917,0,0,0-3,2.4l.2.81a19.661,19.661,0,0,0,.88,2.69c.18.43.4.85.59,1.28a11.45,11.45,0,0,0,.68,1.24l.44.71a22.454,22.454,0,0,0,3.81-.4,20.063,20.063,0,0,0,3.11-.92l.27.27a19,19,0,0,0-.92,3.11,23.512,23.512,0,0,0-.41,3.81l.71.44a12.389,12.389,0,0,0,1.24.67c.43.2.86.42,1.29.6a19.532,19.532,0,0,0,2.68.88l.81.2a22.8,22.8,0,0,0,2.41-3,21.648,21.648,0,0,0,1.56-2.85h.37a19.28,19.28,0,0,0,4,5.83l.81-.2a20,20,0,0,0,2.68-.88c.44-.18.86-.4,1.28-.6a11.381,11.381,0,0,0,1.24-.67l.71-.44a21.481,21.481,0,0,0-.4-3.81,21.212,21.212,0,0,0-.91-3.11l.26-.27a20.389,20.389,0,0,0,3.11.92,22.338,22.338,0,0,0,3.81.4l.43-.71a8.811,8.811,0,0,0,.68-1.24c.21-.43.42-.85.6-1.28a19.66,19.66,0,0,0,.88-2.69l.21-.81a22.617,22.617,0,0,0-3-2.4,21.652,21.652,0,0,0-2.88-1.54Zm-13.7,6.37a6.53,6.53,0,1,1,.04,0Z" fill="#ff934d"/>
        <path id="Trazado_133800" data-name="Trazado 133800" d="M197.54,264.79H153.29v43.58h12.29" fill="none" stroke="#ff7936" stroke-miterlimit="10" stroke-width="1" stroke-dasharray="4"/>
        <g id="Grupo_82557" data-name="Grupo 82557">
          <rect id="Rectángulo_35648" data-name="Rectángulo 35648" width="24.33" height="4.35" transform="translate(166.63 331.7)" fill="#93b3d8"/>
          <rect id="Rectángulo_35649" data-name="Rectángulo 35649" width="37.4" height="4.35" transform="translate(166.63 339.74)" fill="#93b3d8"/>
          <rect id="Rectángulo_35650" data-name="Rectángulo 35650" width="12.74" height="4.35" transform="translate(166.63 347.78)" fill="#93b3d8"/>
          <rect id="Rectángulo_35651" data-name="Rectángulo 35651" width="12.74" height="4.35" transform="translate(184.57 347.78)" fill="#ff934d"/>
          <rect id="Rectángulo_35652" data-name="Rectángulo 35652" width="18.29" height="4.35" transform="translate(201.86 347.78)" fill="#ff934d"/>
          <rect id="Rectángulo_35653" data-name="Rectángulo 35653" width="11.11" height="4.35" transform="translate(209.05 339.74)" fill="#ff934d"/>
          <rect id="Rectángulo_35654" data-name="Rectángulo 35654" width="24.33" height="4.35" transform="translate(195.83 331.7)" fill="#ff934d"/>
        </g>
        <rect id="Rectángulo_35655" data-name="Rectángulo 35655" width="0.81" height="48.46" transform="translate(228.25 303.54)" fill="#fff"/>
      </g>
      <g id="Grupo_82562" data-name="Grupo 82562">
        <g id="Grupo_82561" data-name="Grupo 82561">
          <rect id="Rectángulo_35656" data-name="Rectángulo 35656" width="71.98" height="141.46" transform="translate(364.19 65.86)" fill="#024e73"/>
          <rect id="Rectángulo_35657" data-name="Rectángulo 35657" width="54.05" height="5.74" transform="translate(372.39 95.94)" fill="#fff"/>
          <rect id="Rectángulo_35658" data-name="Rectángulo 35658" width="35.77" height="5.74" transform="translate(372.39 108.65)" fill="#fff"/>
          <rect id="Rectángulo_35659" data-name="Rectángulo 35659" width="12.96" height="5.74" transform="translate(413.47 108.65)" fill="#ff934d"/>
          <rect id="Rectángulo_35660" data-name="Rectángulo 35660" width="33.49" height="5.74" transform="translate(392.94 121.37)" fill="#ff934d"/>
          <rect id="Rectángulo_35661" data-name="Rectángulo 35661" width="15.69" height="5.74" transform="translate(372.39 121.37)" fill="#fff"/>
          <rect id="Rectángulo_35662" data-name="Rectángulo 35662" width="28.57" height="5.74" transform="translate(372.39 134.08)" fill="#fff"/>
          <rect id="Rectángulo_35663" data-name="Rectángulo 35663" width="21.08" height="5.74" transform="translate(405.36 134.08)" fill="#ff934d"/>
          <rect id="Rectángulo_35664" data-name="Rectángulo 35664" width="38.36" height="5.74" transform="translate(388.08 146.79)" fill="#ff934d"/>
          <rect id="Rectángulo_35665" data-name="Rectángulo 35665" width="11.6" height="5.74" transform="translate(372.39 146.79)" fill="#fff"/>
          <rect id="Rectángulo_35666" data-name="Rectángulo 35666" width="23.19" height="5.74" transform="translate(372.39 159.5)" fill="#fff"/>
          <rect id="Rectángulo_35667" data-name="Rectángulo 35667" width="27.02" height="5.74" transform="translate(399.41 159.5)" fill="#ff934d"/>
          <g id="Grupo_82559" data-name="Grupo 82559">
            <path id="Trazado_133801" data-name="Trazado 133801" d="M424.84,193.37V195l-5.92,2.25v-1.56l4.14-1.5-4.14-1.52v-1.54Z" fill="#ff934d"/>
            <path id="Trazado_133802" data-name="Trazado 133802" d="M408,191.12v1.54l-4.14,1.52,4.14,1.5v1.56L402.11,195v-1.62Z" fill="#ff934d"/>
            <path id="Trazado_133803" data-name="Trazado 133803" d="M415,186.77h1.86l-4.4,12.54h-1.85Z" fill="#ff934d"/>
          </g>
          <g id="Grupo_82560" data-name="Grupo 82560">
            <path id="Trazado_133804" data-name="Trazado 133804" d="M397.68,83v2.1L389.93,88V86l5.42-2-5.42-2V80Z" fill="#ff934d"/>
            <path id="Trazado_133805" data-name="Trazado 133805" d="M383.42,80v2L378,84l5.42,2v2l-7.75-2.94V83Z" fill="#ff934d"/>
          </g>
        </g>
        <path id="Trazado_135785" data-name="Trazado 135785" d="M7.481-10.248v3.631H4.29v-3.631H.834V0H4.29V-3.777H7.481V0h3.455V-10.248ZM14.83,0h3.455V-7.569h3v-2.679H11.829v2.679h3ZM34.477,0l-.029-10.248h-2.84l-3.25,5.461L25.02-10.248H22.18V0h3.148V-4.509L27.552-.922h1.523L31.3-4.67,31.33,0Zm1.669,0h8.081V-2.679H39.6v-7.569H36.146Z" transform="translate(364.66 54.33)" fill="#7395cb"/>
      </g>
      <g id="Grupo_82570" data-name="Grupo 82570">
        <g id="Grupo_82563" data-name="Grupo 82563">
          <path id="Trazado_133806" data-name="Trazado 133806" d="M62.29,154.24a12.16,12.16,0,0,0-3.45-2.38h-.07A12.3,12.3,0,0,0,53,150.75a12,12,0,0,0-4.06.93l-.25.11a12.25,12.25,0,1,0,16.75,7.76,11.23,11.23,0,0,0-.57-1.56,11.93,11.93,0,0,0-2.58-3.75Zm-5.13,16.5A8.49,8.49,0,0,1,46.3,158.82h0a8.48,8.48,0,0,1,3.91-3.56,8.873,8.873,0,0,1,1-.36h.1a8.42,8.42,0,0,1,5.07.1h0A8.71,8.71,0,0,1,60,157.3a8.5,8.5,0,0,1-2.87,13.44Z" fill="#646482"/>
          <path id="Trazado_133807" data-name="Trazado 133807" d="M58.84,151.86a12.161,12.161,0,0,1,3.45,2.38,11.93,11.93,0,0,1,2.6,3.75,11.231,11.231,0,0,1,.57,1.56L62,161.09a8.49,8.49,0,0,0-5.58-6.17h0l2.38-3.09" fill="#ff934d"/>
          <line id="Línea_344" data-name="Línea 344" x1="2.43" y2="3.06" transform="translate(56.41 151.86)" fill="#ff934d"/>
          <path id="Trazado_133808" data-name="Trazado 133808" d="M56.41,154.92h0a8.42,8.42,0,0,0-5.07-.1h-.1L49,151.68a12,12,0,0,1,4.06-.93,12.3,12.3,0,0,1,5.75,1.08" fill="#c63b5e"/>
        </g>
        <g id="Grupo_82564" data-name="Grupo 82564">
          <line id="Línea_345" data-name="Línea 345" y2="2" transform="translate(54.68 175.22)" fill="none" stroke="#ff7936" stroke-miterlimit="10" stroke-width="1"/>
          <line id="Línea_346" data-name="Línea 346" y2="11.69" transform="translate(54.68 180.56)" fill="none" stroke="#ff7936" stroke-miterlimit="10" stroke-width="1" stroke-dasharray="3.34 3.34"/>
          <path id="Trazado_133809" data-name="Trazado 133809" d="M54.68,193.92v2h2" fill="none" stroke="#ff7936" stroke-miterlimit="10" stroke-width="1"/>
          <line id="Línea_347" data-name="Línea 347" x2="24.67" transform="translate(61.16 195.92)" fill="none" stroke="#ff7936" stroke-miterlimit="10" stroke-width="1" stroke-dasharray="4.48 4.48"/>
          <path id="Trazado_133810" data-name="Trazado 133810" d="M88.07,195.92h2v-2" fill="none" stroke="#ff7936" stroke-miterlimit="10" stroke-width="1"/>
          <line id="Línea_348" data-name="Línea 348" y1="11.92" transform="translate(90.07 178.6)" fill="none" stroke="#ff7936" stroke-miterlimit="10" stroke-width="1" stroke-dasharray="3.41 3.41"/>
          <line id="Línea_349" data-name="Línea 349" y1="2" transform="translate(90.07 174.9)" fill="none" stroke="#ff7936" stroke-miterlimit="10" stroke-width="1"/>
        </g>
        <g id="Grupo_82569" data-name="Grupo 82569">
          <rect id="Rectángulo_35668" data-name="Rectángulo 35668" width="103.84" height="123.8" transform="translate(77.16 50.08)" fill="#024e73"/>
          <rect id="Rectángulo_35669" data-name="Rectángulo 35669" width="103.84" height="15.71" transform="translate(77.16 44.05)" fill="#02749e"/>
          <g id="Grupo_82565" data-name="Grupo 82565">
            <path id="Trazado_133811" data-name="Trazado 133811" d="M169,165.36v1l-3.74,1.42v-1l2.62-.95-2.62-1v-1Z" fill="#ff934d"/>
            <path id="Trazado_133812" data-name="Trazado 133812" d="M158.36,163.94v1l-2.61,1,2.61.95v1l-3.73-1.42v-1Z" fill="#ff934d"/>
            <text id="_" data-name="/" transform="translate(160.28 168.27)" fill="#ff934d" font-size="8.41" font-family="Montserrat-Bold, Montserrat" font-weight="700"><tspan x="0" y="0">/</tspan></text>
          </g>
          <g id="Grupo_82566" data-name="Grupo 82566">
            <path id="Trazado_133813" data-name="Trazado 133813" d="M101.76,69.78v1.27l-4.65,1.77V71.6l3.25-1.19-3.25-1.19V68Z" fill="#ff934d"/>
            <path id="Trazado_133814" data-name="Trazado 133814" d="M93.2,68v1.21L89.94,70.4l3.26,1.2v1.22l-4.66-1.77V69.78Z" fill="#ff934d"/>
          </g>
          <g id="Grupo_82568" data-name="Grupo 82568">
            <g id="Grupo_82567" data-name="Grupo 82567">
              <rect id="Rectángulo_35670" data-name="Rectángulo 35670" width="30.52" height="5.59" transform="translate(95.11 80.37)" fill="#00a5c0"/>
              <rect id="Rectángulo_35671" data-name="Rectángulo 35671" width="15.26" height="5.59" transform="translate(129.93 80.37)" fill="#ff934d"/>
              <rect id="Rectángulo_35672" data-name="Rectángulo 35672" width="21.02" height="5.59" transform="translate(148.71 80.37)" fill="#fff"/>
              <rect id="Rectángulo_35673" data-name="Rectángulo 35673" width="14.25" height="5.59" transform="translate(95.11 90.35)" fill="#00a5c0"/>
              <rect id="Rectángulo_35674" data-name="Rectángulo 35674" width="24.33" height="5.59" transform="translate(113.23 90.35)" fill="#ff934d"/>
              <rect id="Rectángulo_35675" data-name="Rectángulo 35675" width="28.2" height="5.59" transform="translate(141.53 90.35)" fill="#fff"/>
              <rect id="Rectángulo_35676" data-name="Rectángulo 35676" width="18.75" height="5.59" transform="translate(95.11 100.33)" fill="#00a5c0"/>
              <rect id="Rectángulo_35677" data-name="Rectángulo 35677" width="35.27" height="5.59" transform="translate(116.91 100.33)" fill="#ff934d"/>
              <rect id="Rectángulo_35678" data-name="Rectángulo 35678" width="13.76" height="5.59" transform="translate(155.97 100.33)" fill="#fff"/>
              <rect id="Rectángulo_35679" data-name="Rectángulo 35679" width="23.65" height="5.59" transform="translate(95.11 110.31)" fill="#00a5c0"/>
              <rect id="Rectángulo_35680" data-name="Rectángulo 35680" width="22.95" height="5.59" transform="translate(122.24 110.31)" fill="#ff934d"/>
              <rect id="Rectángulo_35681" data-name="Rectángulo 35681" width="21.02" height="5.59" transform="translate(148.71 110.31)" fill="#fff"/>
              <rect id="Rectángulo_35682" data-name="Rectángulo 35682" width="10.37" height="5.59" transform="translate(95.11 120.29)" fill="#00a5c0"/>
              <rect id="Rectángulo_35683" data-name="Rectángulo 35683" width="20.54" height="5.59" transform="translate(108.97 120.29)" fill="#ff934d"/>
              <rect id="Rectángulo_35684" data-name="Rectángulo 35684" width="37.02" height="5.59" transform="translate(132.71 120.29)" fill="#fff"/>
              <rect id="Rectángulo_35685" data-name="Rectángulo 35685" width="29.65" height="5.59" transform="translate(95.11 130.27)" fill="#00a5c0"/>
              <rect id="Rectángulo_35686" data-name="Rectángulo 35686" width="9.12" height="5.59" transform="translate(128.44 130.27)" fill="#ff934d"/>
              <rect id="Rectángulo_35687" data-name="Rectángulo 35687" width="28.2" height="5.59" transform="translate(141.53 130.27)" fill="#fff"/>
              <rect id="Rectángulo_35688" data-name="Rectángulo 35688" width="38.61" height="5.59" transform="translate(95.11 140.25)" fill="#00a5c0"/>
              <rect id="Rectángulo_35689" data-name="Rectángulo 35689" width="15.8" height="5.59" transform="translate(136.97 140.25)" fill="#ff934d"/>
              <rect id="Rectángulo_35690" data-name="Rectángulo 35690" width="13.76" height="5.59" transform="translate(155.97 140.25)" fill="#fff"/>
              <rect id="Rectángulo_35691" data-name="Rectángulo 35691" width="11.82" height="5.59" transform="translate(95.11 150.23)" fill="#00a5c0"/>
              <rect id="Rectángulo_35692" data-name="Rectángulo 35692" width="14.39" height="5.59" transform="translate(110.37 150.23)" fill="#ff934d"/>
              <rect id="Rectángulo_35693" data-name="Rectángulo 35693" width="41.28" height="5.59" transform="translate(128.44 150.23)" fill="#fff"/>
            </g>
            <rect id="Rectángulo_35694" data-name="Rectángulo 35694" width="1.14" height="75.45" transform="translate(173.81 80.37)" fill="#fff"/>
            <circle id="Elipse_6619" data-name="Elipse 6619" cx="2.79" cy="2.79" r="2.79" transform="translate(82.72 80.38)" fill="#fff"/>
            <circle id="Elipse_6620" data-name="Elipse 6620" cx="2.79" cy="2.79" r="2.79" transform="translate(82.72 90.36)" fill="#fff"/>
            <circle id="Elipse_6621" data-name="Elipse 6621" cx="2.79" cy="2.79" r="2.79" transform="translate(82.72 100.33)" fill="#fff"/>
            <circle id="Elipse_6622" data-name="Elipse 6622" cx="2.79" cy="2.79" r="2.79" transform="translate(82.72 110.31)" fill="#fff"/>
            <circle id="Elipse_6623" data-name="Elipse 6623" cx="2.79" cy="2.79" r="2.79" transform="translate(82.72 120.29)" fill="#fff"/>
            <circle id="Elipse_6624" data-name="Elipse 6624" cx="2.79" cy="2.79" r="2.79" transform="translate(82.72 130.27)" fill="#fff"/>
            <circle id="Elipse_6625" data-name="Elipse 6625" cx="2.79" cy="2.79" r="2.79" transform="translate(82.72 140.25)" fill="#fff"/>
            <circle id="Elipse_6626" data-name="Elipse 6626" cx="2.79" cy="2.79" r="2.79" transform="translate(82.72 150.23)" fill="#fff"/>
          </g>
          <path id="Trazado_133815" data-name="Trazado 133815" d="M176.37,52.77a2.85,2.85,0,1,1-2.85-2.85,2.85,2.85,0,0,1,2.85,2.85Z" fill="#c63b5e"/>
        </g>
        <path id="Trazado_133816" data-name="Trazado 133816" d="M169.32,52.72a2.87,2.87,0,1,1-.837-2.036A2.87,2.87,0,0,1,169.32,52.72Z" fill="#fff"/>
      </g>
      <g id="Grupo_82593" data-name="Grupo 82593">
        <g id="Grupo_82576" data-name="Grupo 82576">
          <path id="Trazado_133817" data-name="Trazado 133817" d="M355.26,273.18c-1.19,26-26.7,45.84-45.81,47.05-25.25,1.58-43.3-21.19-45.81-47.05-2.18-22.4,5.78-22.07,11.7-31.41,7.18-11.31,20.56-17.56,34.11-17.56C334.75,224.21,356.85,238.26,355.26,273.18Z" fill="#c63b5e"/>
          <rect id="Rectángulo_35695" data-name="Rectángulo 35695" width="35.51" height="44.45" transform="translate(291.7 317.8)" fill="#e4a79c"/>
          <g id="Grupo_82571" data-name="Grupo 82571">
            <path id="Trazado_133818" data-name="Trazado 133818" d="M349.33,291.87c6.34-9.61,14.4-10,17.76,1.34s-7.74,20.72-16.78,17.27S349.33,291.87,349.33,291.87Z" fill="#e4a79c"/>
            <path id="Trazado_133819" data-name="Trazado 133819" d="M356.81,292.13c4.24-.78,6.42,11.86-2.89,12.28l1.92-4.41-1.8-3.67Z" fill="#de818a"/>
            <path id="Trazado_133820" data-name="Trazado 133820" d="M352.53,306.14c5.42-5.78,1.51-9.81,1.51-9.81s5.16-10.59,7.23-2.48" fill="none" stroke="#d07f80" stroke-miterlimit="10" stroke-width="0.5"/>
          </g>
          <g id="Grupo_82572" data-name="Grupo 82572">
            <path id="Trazado_133821" data-name="Trazado 133821" d="M269.27,291.87c-6.34-9.61-14.39-10-17.76,1.34s7.74,20.72,16.78,17.27S269.27,291.87,269.27,291.87Z" fill="#e4a79c"/>
            <path id="Trazado_133822" data-name="Trazado 133822" d="M261.79,292.13c-4.24-.78-6.42,11.86,2.89,12.28L262.76,300l1.8-3.67Z" fill="#de818a"/>
            <path id="Trazado_133823" data-name="Trazado 133823" d="M266.07,306.14c-5.42-5.78-1.51-9.81-1.51-9.81s-5.16-10.59-7.23-2.48" fill="none" stroke="#d07f80" stroke-miterlimit="10" stroke-width="0.5"/>
          </g>
          <path id="Trazado_133824" data-name="Trazado 133824" d="M327.2,318.79v16.53C314.44,352.61,291.7,347,291.7,347l.39-28.2Z" fill="#d07f80"/>
          <path id="Trazado_133825" data-name="Trazado 133825" d="M297,245.39h24.91a25.92,25.92,0,0,1,25.92,25.92v28a38.38,38.38,0,0,1-38.38,38.38h0a38.38,38.38,0,0,1-38.38-38.38v-28A25.92,25.92,0,0,1,297,245.39Z" fill="#e4a79c"/>
          <path id="Trazado_133826" data-name="Trazado 133826" d="M315.35,304.37a5.91,5.91,0,1,1-11.81,0" fill="none" stroke="#c63b5e" stroke-miterlimit="10" stroke-width="1"/>
          <path id="Trazado_133827" data-name="Trazado 133827" d="M275.12,247.1s-6.72-11.14,1.7-21C276.82,226.14,282.87,237.34,275.12,247.1Z" fill="#c63b5e"/>
          <path id="Trazado_133828" data-name="Trazado 133828" d="M278.54,244.46s-9.36,9-20.82,3C257.72,247.48,267.29,239.09,278.54,244.46Z" fill="#c63b5e"/>
          <path id="Trazado_133829" data-name="Trazado 133829" d="M294.21,290.6c0,3.17-1.35,5.74-3,5.74s-3-2.57-3-5.74,1.35-5.75,3-5.75S294.21,287.42,294.21,290.6Z" fill="#33334f"/>
          <circle id="Elipse_6627" data-name="Elipse 6627" cx="15.43" cy="15.43" r="15.43" transform="matrix(0.262, -0.965, 0.965, 0.262, 270.692, 301.016)" fill="none" stroke="#fff" stroke-miterlimit="10" stroke-width="4"/>
          <path id="Trazado_133830" data-name="Trazado 133830" d="M330.73,290.6c0,3.17-1.35,5.74-3,5.74s-3-2.57-3-5.74,1.35-5.75,3-5.75S330.73,287.42,330.73,290.6Z" fill="#33334f"/>
          <circle id="Elipse_6628" data-name="Elipse 6628" cx="15.43" cy="15.43" r="15.43" transform="matrix(0.267, -0.964, 0.964, 0.267, 310.276, 300.904)" fill="none" stroke="#fff" stroke-miterlimit="10" stroke-width="4"/>
          <path id="Trazado_133831" data-name="Trazado 133831" d="M275.83,256.34s24.38-12.85,40.58-3.54,18,28.56,34,23.58c0,0,12.15-5.35-1.21-24s-22.51-22.28-39.91-18.23S280.58,241.37,275.83,256.34Z" fill="#c63b5e"/>
          <path id="Trazado_133832" data-name="Trazado 133832" d="M274.89,256.15s8.05-10.67,19.32-13.49,23.72,11,23.72,11S289.07,249.58,274.89,256.15Z" fill="#a42c4f"/>
          <path id="Trazado_133833" data-name="Trazado 133833" d="M271.13,269.58s2.71,19.8,0,31.89C271.13,301.47,267.16,270.76,271.13,269.58Z" fill="#c63b5e"/>
          <path id="Trazado_133834" data-name="Trazado 133834" d="M347.55,269.58s-2.72,19.8,0,31.89C347.55,301.47,351.52,270.76,347.55,269.58Z" fill="#c63b5e"/>
          <path id="Trazado_133835" data-name="Trazado 133835" d="M298.07,268c-4.19-2-11.64-4.2-18.54.71a1.61,1.61,0,0,0,.68,2.89,51.29,51.29,0,0,0,9,.75,38,38,0,0,0,8.57-1.34,1.61,1.61,0,0,0,.29-3.01Z" fill="#c63b5e"/>
          <path id="Trazado_133836" data-name="Trazado 133836" d="M338.51,268c-4.19-2-11.64-4.2-18.54.71a1.62,1.62,0,0,0,.69,2.89,51.167,51.167,0,0,0,9,.75,37.91,37.91,0,0,0,8.57-1.34,1.61,1.61,0,0,0,.28-3.01Z" fill="#c63b5e"/>
          <g id="Grupo_82573" data-name="Grupo 82573">
            <path id="Trazado_133837" data-name="Trazado 133837" d="M322.43,318.23a13.13,13.13,0,0,1-1.51,2.2c-2.05,2.47-5.54,4.84-11.51,4.95H309c-5.6-.11-9-2.22-11.12-4.54a12.41,12.41,0,0,1-1.86-2.63,13,13,0,0,1-1.25-3.41l29,.06a11.752,11.752,0,0,1-1.34,3.37Z" fill="#d33c5e"/>
            <path id="Trazado_133838" data-name="Trazado 133838" d="M322.43,318.23a13.13,13.13,0,0,1-1.51,2.2,27.22,27.22,0,0,0-23.09.39,12.411,12.411,0,0,1-1.86-2.63,13,13,0,0,1-1.25-3.41l29,.06A11.75,11.75,0,0,1,322.43,318.23Z" fill="#33334f"/>
          </g>
          <path id="Trazado_133839" data-name="Trazado 133839" d="M432.63,472.67l-259.8.27s4.85-10.14,11.82-23.57l1.59-3.05c9.53-18.17,22.35-41.13,32.35-53.58,11.52-14.33,38.75-24.55,57.24-30.14,10.77-3.25,18.57-4.92,18.57-4.92h29.85s7,1.5,16.91,4.43c18.47,5.46,46.09,16.66,58.9,30.63a68.571,68.571,0,0,1,7.94,10.9C423.76,429.83,432.63,472.67,432.63,472.67Z" fill="#ffa726"/>
          <path id="Trazado_133840" data-name="Trazado 133840" d="M432.63,472.67l-259.8.27s4.85-10.14,11.82-23.57c129.65,38.11,198-24.35,213.56-41.26a13.78,13.78,0,0,1,9.73-4.47H408C423.76,429.83,432.63,472.67,432.63,472.67Z" fill="#e57608" opacity="0.5"/>
          <line id="Línea_350" data-name="Línea 350" x2="8.15" transform="translate(305.37 292.79)" fill="none" stroke="#fff" stroke-miterlimit="10" stroke-width="4"/>
          <path id="Trazado_133841" data-name="Trazado 133841" d="M341.16,362.11c-32.16,35.38-65.33.5-65.33.5,10.77-3.26,18.58-4.94,18.58-4.94h29.84S331.26,359.18,341.16,362.11Z" fill="#e4a79c"/>
          <g id="Grupo_82574" data-name="Grupo 82574">
            <line id="Línea_351" data-name="Línea 351" y2="40.35" transform="translate(238.44 432.64)" fill="none" stroke="#e78000" stroke-miterlimit="10" stroke-width="3"/>
            <line id="Línea_352" data-name="Línea 352" x1="10.83" y1="13.82" transform="translate(227.61 444.54)" fill="none" stroke="#e78000" stroke-miterlimit="10" stroke-width="3"/>
          </g>
          <g id="Grupo_82575" data-name="Grupo 82575">
            <line id="Línea_353" data-name="Línea 353" y2="40.35" transform="translate(379.72 432.64)" fill="none" stroke="#e78000" stroke-miterlimit="10" stroke-width="3"/>
            <line id="Línea_354" data-name="Línea 354" y1="12.27" x2="9.62" transform="translate(379.72 446.09)" fill="none" stroke="#e78000" stroke-miterlimit="10" stroke-width="3"/>
          </g>
          <path id="Trazado_133842" data-name="Trazado 133842" d="M274.29,378s39.87,27.24,66.87-1.32" fill="none" stroke="#e78000" stroke-miterlimit="10" stroke-width="3"/>
          <path id="Trazado_133843" data-name="Trazado 133843" d="M274.9,239.65c9-37.63,98.65-33.49,82,39.78-5,21.95-41.55-49.89-73.11-32.27a6.2,6.2,0,0,1-7.27-.87h0C274.67,244.6,274.33,242.07,274.9,239.65Z" fill="#c63b5e"/>
        </g>
        <g id="Grupo_82578" data-name="Grupo 82578">
          <g id="Grupo_82577" data-name="Grupo 82577">
            <path id="Trazado_133844" data-name="Trazado 133844" d="M324.17,472.69H149.42a7.32,7.32,0,0,1-7.31-7.32v-.08L115,388.78a9,9,0,0,1,8.47-12h113a9,9,0,0,1,8.48,6l29.2,82.49.05.14h49.43C328.13,465.42,328.63,472.21,324.17,472.69Z" fill="#2daea0"/>
            <ellipse id="Elipse_6629" data-name="Elipse 6629" cx="13.1" cy="15.91" rx="13.1" ry="15.91" transform="matrix(0.946, -0.325, 0.325, 0.946, 164.457, 416.478)" fill="#fff"/>
            <path id="Trazado_133845" data-name="Trazado 133845" d="M323.59,465.42H274.16l-.05-.14-29.2-82.5a9,9,0,0,0-8.48-6h-3.78s8.44.55,10.55,8.1,31,87.68,31,87.68l2.13.16h47.79C328.63,472.3,328.15,465.42,323.59,465.42Z" fill="#2f7289"/>
          </g>
          <path id="Trazado_133846" data-name="Trazado 133846" d="M324.17,472.69H149.42A7.28,7.28,0,0,1,143.7,470c102.85,8.83,92.73-93.2,92.73-93.2a9,9,0,0,1,8.48,6l29.2,82.49.05.14h48.65C323.33,467.83,323.8,470.26,324.17,472.69Z" fill="#2a8593" opacity="0.4"/>
        </g>
        <g id="Grupo_82587" data-name="Grupo 82587">
          <g id="Grupo_82582" data-name="Grupo 82582">
            <g id="Grupo_82580" data-name="Grupo 82580">
              <g id="Grupo_82579" data-name="Grupo 82579">
                <path id="Trazado_133847" data-name="Trazado 133847" d="M117.26,422.2v2.56c-4.63.53-5.77,4.45-5.77,9.21v1.58c0,4.76,1.14,8.68,5.77,9.21v2.55H28.75a6.58,6.58,0,0,1-6.58-6.58V428.79a6.59,6.59,0,0,1,6.58-6.59Z" fill="#2f7289"/>
                <path id="Trazado_133848" data-name="Trazado 133848" d="M115.88,442.13a1.92,1.92,0,0,1-1.8,2.63l-84.58.06V424.7l84.58.06a1.93,1.93,0,0,1,1.27.48,1.87,1.87,0,0,1,.53,2.15c-.7,1.67-.68,4-.68,6.58v1.58C115.2,438.13,115.18,440.46,115.88,442.13Z" fill="#fff"/>
                <path id="Trazado_133849" data-name="Trazado 133849" d="M115.35,425.24c-1.63.09-76.37,3.95-81.49,11.22a7.27,7.27,0,0,1-4.36,3.29V424.7l84.58.06a1.93,1.93,0,0,1,1.27.48Z" fill="#80c7d8" opacity="0.4"/>
              </g>
              <path id="Trazado_133850" data-name="Trazado 133850" d="M27.52,422.21h6.34v25.1H27.52A5.34,5.34,0,0,1,22.17,442V427.55a5.34,5.34,0,0,1,5.35-5.34Z" fill="#2f7289"/>
              <path id="Trazado_133851" data-name="Trazado 133851" d="M115.88,442.13a1.92,1.92,0,0,1-1.8,2.63H97.19c13.42-1.53,12.58-12.55,12.58-12.55.15-.53-10.6-7-10.41-7.47h14.72a1.93,1.93,0,0,1,1.27.48,1.87,1.87,0,0,1,.53,2.15c-.7,1.67-.68,4-.68,6.58v1.58C115.2,438.13,115.18,440.46,115.88,442.13Z" fill="#80c7d8" opacity="0.4"/>
            </g>
            <g id="Grupo_82581" data-name="Grupo 82581">
              <rect id="Rectángulo_35696" data-name="Rectángulo 35696" width="81.2" height="1.81" transform="translate(34 433.29)" fill="#80c7d8" opacity="0.4"/>
              <rect id="Rectángulo_35697" data-name="Rectángulo 35697" width="81.2" height="1.81" transform="translate(34 429.21)" fill="#80c7d8" opacity="0.4"/>
              <rect id="Rectángulo_35698" data-name="Rectángulo 35698" width="81.2" height="1.81" transform="translate(34 438.49)" fill="#80c7d8" opacity="0.4"/>
            </g>
            <path id="Trazado_133852" data-name="Trazado 133852" d="M89.05,441.06l-4.32-4.3-4.32,4.3V429.21h8.64Z" fill="#d33c5e"/>
          </g>
          <g id="Grupo_82586" data-name="Grupo 82586">
            <g id="Grupo_82584" data-name="Grupo 82584">
              <g id="Grupo_82583" data-name="Grupo 82583">
                <path id="Trazado_133853" data-name="Trazado 133853" d="M126.72,447.22v2.56c-4.62.53-5.76,4.45-5.76,9.21v1.58c0,4.76,1.14,8.68,5.76,9.21v2.54H38.21a6.57,6.57,0,0,1-6.57-6.57V453.81a6.59,6.59,0,0,1,6.57-6.59Z" fill="#d33c5e"/>
                <path id="Trazado_133854" data-name="Trazado 133854" d="M125.35,467.15a1.92,1.92,0,0,1-1.8,2.63L39,469.84V449.72l84.59.06a2,2,0,0,1,1.27.48,1.85,1.85,0,0,1,.53,2.14c-.71,1.68-.68,4-.68,6.59v1.58C124.67,463.15,124.64,465.48,125.35,467.15Z" fill="#fff"/>
                <path id="Trazado_133855" data-name="Trazado 133855" d="M124.82,450.26c-1.63.09-76.37,3.95-81.5,11.22a7.243,7.243,0,0,1-4.36,3.29v-15l84.59.06a2,2,0,0,1,1.27.43Z" fill="#80c7d8" opacity="0.4"/>
              </g>
              <path id="Trazado_133856" data-name="Trazado 133856" d="M37,447.23h6.34v25.1H37A5.34,5.34,0,0,1,31.64,467V452.57A5.34,5.34,0,0,1,37,447.23Z" fill="#d33c5e"/>
              <path id="Trazado_133857" data-name="Trazado 133857" d="M125.35,467.15a1.92,1.92,0,0,1-1.8,2.63H106.66c13.42-1.53,12.58-12.55,12.58-12.55.15-.53-10.6-7-10.42-7.47h14.73a2,2,0,0,1,1.27.48,1.85,1.85,0,0,1,.53,2.14c-.71,1.68-.68,4-.68,6.59v1.58C124.67,463.15,124.64,465.48,125.35,467.15Z" fill="#80c7d8" opacity="0.4"/>
            </g>
            <g id="Grupo_82585" data-name="Grupo 82585">
              <rect id="Rectángulo_35699" data-name="Rectángulo 35699" width="81.2" height="1.81" transform="translate(43.47 458.31)" fill="#80c7d8" opacity="0.4"/>
              <rect id="Rectángulo_35700" data-name="Rectángulo 35700" width="81.2" height="1.81" transform="translate(43.47 454.23)" fill="#80c7d8" opacity="0.4"/>
              <rect id="Rectángulo_35701" data-name="Rectángulo 35701" width="81.2" height="1.81" transform="translate(43.47 463.51)" fill="#80c7d8" opacity="0.4"/>
            </g>
            <path id="Trazado_133858" data-name="Trazado 133858" d="M115.79,467.66l-4.57-4.55-4.56,4.55V455.13h9.13Z" fill="#d33c5e"/>
          </g>
        </g>
        <g id="Grupo_82588" data-name="Grupo 82588">
          <path id="Trazado_133859" data-name="Trazado 133859" d="M485.33,483.23v1.84a10.15,10.15,0,0,1-10.16,10.15H25.47a10.17,10.17,0,0,1-9.84-7.59h0a10.22,10.22,0,0,1-.32-2.54v-1.84A10.15,10.15,0,0,1,25.47,473.1h449.7A10.15,10.15,0,0,1,485.33,483.23Z" fill="#4480bf"/>
          <path id="Trazado_133860" data-name="Trazado 133860" d="M485.33,483.23v1.84a10.15,10.15,0,0,1-10.16,10.15H25.47a10.17,10.17,0,0,1-9.84-7.59h0c-.22-1.63-.32-2.54-.32-2.54,291.42,10.15,459.86-12,459.86-12A10.15,10.15,0,0,1,485.33,483.23Z" fill="#1565b2" opacity="0.5"/>
        </g>
        <g id="Grupo_82592" data-name="Grupo 82592">
          <g id="Grupo_82589" data-name="Grupo 82589">
            <path id="Trazado_133861" data-name="Trazado 133861" d="M410.57,441.14a21.16,21.16,0,0,1-13.11-3.09c-14.6-9-17.65-34.51-17.86-36.42.13.59,1.57,3.7,16.74,13.91,1.27.85,2.42,1.72,3.48,2.59h.05C413.09,429.12,410.57,441.14,410.57,441.14Z" fill="#008067"/>
            <path id="Trazado_133862" data-name="Trazado 133862" d="M379.59,401.52s13.63,33.45,28.75,37" fill="none" stroke="#006d51" stroke-miterlimit="10" stroke-width="1"/>
            <path id="Trazado_133863" data-name="Trazado 133863" d="M410.57,441.14a21.16,21.16,0,0,1-13.11-3.09c2.9-6.87,2.36-19.92,2.36-19.92h.05C413.09,429.12,410.57,441.14,410.57,441.14Z" fill="#006d51" opacity="0.5"/>
          </g>
          <g id="Grupo_82590" data-name="Grupo 82590">
            <path id="Trazado_133864" data-name="Trazado 133864" d="M449.32,403.49c-.06.36-.26,1.59-.67,3.41h0c-2.15,9.64-9.93,35.59-30.84,33a16.87,16.87,0,0,1,.35-5.55c1-4.9,4.36-12.2,14.48-18.31C447.65,407,449.17,404.05,449.32,403.49Z" fill="#008067"/>
            <path id="Trazado_133865" data-name="Trazado 133865" d="M448.65,405.55S437.92,433.36,419.3,439" fill="none" stroke="#006d51" stroke-miterlimit="10" stroke-width="1"/>
            <path id="Trazado_133866" data-name="Trazado 133866" d="M448.65,406.9h0c-2.15,9.64-9.93,35.59-30.84,33a16.87,16.87,0,0,1,.35-5.55h0C435.58,435.28,448.65,406.9,448.65,406.9Z" fill="#006d51" opacity="0.5"/>
          </g>
          <g id="Grupo_82591" data-name="Grupo 82591">
            <path id="Trazado_133867" data-name="Trazado 133867" d="M416.69,440.83c-.52.9-8.16-2.27-11.6-11.46h0c-2.07-5.51-2.62-13.2.8-23.46,9-27,5.27-32.06,5.16-32.2a32.88,32.88,0,0,1,13,13.37h0C429.6,397.51,431.76,414.62,416.69,440.83Z" fill="#008c79"/>
            <path id="Trazado_133868" data-name="Trazado 133868" d="M411.05,373.71s11.69,14.75,7.24,42.82-1.6,24.3-1.6,24.3" fill="none" stroke="#008067" stroke-miterlimit="10" stroke-width="1"/>
            <path id="Trazado_133869" data-name="Trazado 133869" d="M416.69,440.83c-.52.9-8.16-2.27-11.6-11.46,19.26,5.47,19-42.29,19-42.29C429.6,397.51,431.76,414.62,416.69,440.83Z" fill="#008067" opacity="0.5"/>
          </g>
          <path id="Trazado_133870" data-name="Trazado 133870" d="M379.59,401.52v.09a.623.623,0,0,1,0-.09Z" fill="#008067"/>
          <path id="Trazado_133871" data-name="Trazado 133871" d="M431.49,440.43V462a11.41,11.41,0,0,1-11.42,11.41H409.93a11.421,11.421,0,0,1-9.751-5.472v0a11.35,11.35,0,0,1-1.67-5.94V440.43Z" fill="#ff934d"/>
          <rect id="Rectángulo_35702" data-name="Rectángulo 35702" width="37.05" height="2.8" rx="1.06" transform="translate(396.48 437.63)" fill="#ff934d"/>
          <path id="Trazado_133872" data-name="Trazado 133872" d="M431.49,440.43V462a11.41,11.41,0,0,1-11.42,11.41H409.93a11.421,11.421,0,0,1-9.751-5.472c24.151,7.582,29.4-10.178,28.461-17.218S419,440.43,419,440.43Z" fill="#e78000"/>
        </g>
      </g>
      <path id="Trazado_133873" data-name="Trazado 133873" d="M192.4,55.62h70.87V83.17h90.65" fill="none" stroke="#ff7936" stroke-miterlimit="10" stroke-width="1" stroke-dasharray="4"/>
      <path id="Trazado_133874" data-name="Trazado 133874" d="M355.34,163.94H220.16v51.04" fill="none" stroke="#ff7936" stroke-miterlimit="10" stroke-width="1" stroke-dasharray="4"/>
      <g id="Grupo_82594" data-name="Grupo 82594">
        <path id="Trazado_133875" data-name="Trazado 133875" d="M364.62,422.11v3.34l-12.21,4.64v-3.21l8.54-3.1-8.54-3.13v-3.18Z" fill="#0b3360"/>
        <path id="Trazado_133876" data-name="Trazado 133876" d="M329.9,417.47v3.18l-8.54,3.13,8.54,3.1v3.21l-12.21-4.64v-3.34Z" fill="#0b3360"/>
        <path id="Trazado_133877" data-name="Trazado 133877" d="M344.34,408.48h3.82l-9.07,25.88h-3.82Z" fill="#0b3360"/>
      </g>
    </g>
  </g>
</svg>
