<svg xmlns="http://www.w3.org/2000/svg" width="393.978" height="361.458" viewBox="0 0 393.978 361.458">
  <g id="Grupo_83005" data-name="Grupo 83005" transform="translate(-186 -3559)">
    <g id="Image_Place_Holder" data-name="Image Place Holder" transform="translate(186 3653.765)">
      <rect id="Image_Place_Holder-2" data-name="Image Place Holder" width="393.978" height="266.693" rx="10" fill="#d2edea"/>
    </g>
    <g id="cf6_roles_scrum" data-name="cf6_roles scrum" transform="translate(231 3559)">
      <g id="Capa_1" data-name="Capa 1">
        <rect id="Rectángulo_35365" data-name="Rectángulo 35365" width="303" height="303" fill="none"/>
        <g id="Grupo_82131" data-name="Grupo 82131" transform="translate(39.54 42.114)">
          <g id="Grupo_82119" data-name="Grupo 82119" transform="translate(175.301 54.29)">
            <rect id="Rectángulo_35366" data-name="Rectángulo 35366" width="8.181" height="58.19" transform="translate(27.008 101.152)" fill="#95a1a9"/>
            <rect id="Rectángulo_35367" data-name="Rectángulo 35367" width="4.531" height="16.197" transform="translate(56.014 85.561)" fill="#95a1a9"/>
            <rect id="Rectángulo_35368" data-name="Rectángulo 35368" width="10.867" height="86.947" rx="1.5" transform="translate(62.516 0) rotate(6.72)" fill="#121212"/>
            <path id="Trazado_131838" data-name="Trazado 131838" d="M206.925,72.37h0a1.543,1.543,0,0,0-1.556,1.487l-9.09,77.265a1.556,1.556,0,0,0,1.171,1.818h0a1.543,1.543,0,0,0,1.556-1.487l9.09-77.265a1.543,1.543,0,0,0-1.171-1.818Z" transform="translate(-140.802 -69.101)" fill="#2c2c2c"/>
            <path id="Trazado_131839" data-name="Trazado 131839" d="M169.361,191.905a4.752,4.752,0,1,1-1.392-3.374A4.765,4.765,0,0,1,169.361,191.905Z" transform="translate(-154.541 -25.801)" fill="#2c2c2c"/>
            <path id="Trazado_131840" data-name="Trazado 131840" d="M200.711,191.905a4.752,4.752,0,1,1-1.392-3.374,4.765,4.765,0,0,1,1.392,3.374Z" transform="translate(-142.714 -25.801)" fill="#2c2c2c"/>
            <path id="Trazado_131841" data-name="Trazado 131841" d="M159.779,185.69h53.163a1.859,1.859,0,0,1,1.859,1.859V189.7H157.92v-2.2a1.859,1.859,0,0,1,1.859-1.8Z" transform="translate(-155.262 -26.348)" fill="#95a1a9"/>
            <rect id="Rectángulo_35369" data-name="Rectángulo 35369" width="2.052" height="53.121" transform="translate(31.815 106.22)" fill="#95a1a9"/>
            <rect id="Rectángulo_35370" data-name="Rectángulo 35370" width="2.603" height="17.051" transform="translate(12.189 76.609)" fill="#95a1a9"/>
            <rect id="Rectángulo_35371" data-name="Rectángulo 35371" width="2.603" height="17.051" transform="translate(44.913 76.609)" fill="#95a1a9"/>
            <rect id="Rectángulo_35372" data-name="Rectángulo 35372" width="47.86" height="9.09" rx="1.26" transform="translate(4.958 71.857)" fill="#121212"/>
            <rect id="Rectángulo_35373" data-name="Rectángulo 35373" width="62.776" height="17.161" rx="1.86" transform="translate(0 92.007)" fill="#121212"/>
          </g>
          <g id="Grupo_82123" data-name="Grupo 82123" transform="translate(76.063 0.019)">
            <g id="Grupo_82120" data-name="Grupo 82120" transform="translate(4.276 79.825)">
              <path id="Trazado_131842" data-name="Trazado 131842" d="M89.3,97.912h0a1.074,1.074,0,0,1,.413-1.377l3.994-2.176a1.06,1.06,0,0,1,1.377.427h0a1.088,1.088,0,0,1-.427,1.377l-3.98,2.176A1.088,1.088,0,0,1,89.3,97.912Z" transform="translate(-86.229 -86.398)" fill="#ffa37b"/>
              <path id="Trazado_131843" data-name="Trazado 131843" d="M88.479,96.72h0a1.06,1.06,0,0,1,.413-1.377l3.98-2.176a1.074,1.074,0,0,1,1.46.427h0a1.061,1.061,0,0,1-.413,1.377l-3.994,2.149A1.088,1.088,0,0,1,88.479,96.72Z" transform="translate(-86.539 -86.858)" fill="#ffa37b"/>
              <path id="Trazado_131844" data-name="Trazado 131844" d="M87.751,95.5h0a1.047,1.047,0,0,1,.413-1.377l3.98-2.19a1.1,1.1,0,0,1,1.46.427h0a1.061,1.061,0,0,1-.413,1.377L89.2,95.914a1.061,1.061,0,0,1-1.446-.413Z" transform="translate(-86.816 -87.32)" fill="#ffa37b"/>
              <path id="Trazado_131845" data-name="Trazado 131845" d="M87.15,94.261h0a1.047,1.047,0,0,1,.427-1.377l3.98-2.19a1.1,1.1,0,0,1,1.46.427h0A1.047,1.047,0,0,1,92.59,92.5l-3.98,2.176a1.074,1.074,0,0,1-1.46-.413Z" transform="translate(-87.041 -87.788)" fill="#ffa37b"/>
              <path id="Trazado_131846" data-name="Trazado 131846" d="M101.838,88.55a74.026,74.026,0,0,0-8.883,1.157,45.451,45.451,0,0,0-5.785,4.132s2.465.84,2.934,2.066,1.377,4.517,1.377,4.517A32.283,32.283,0,0,0,98.367,98a22.353,22.353,0,0,0,3.608-2.892Z" transform="translate(-86.993 -88.55)" fill="#ffa37b"/>
            </g>
            <path id="Trazado_131847" data-name="Trazado 131847" d="M97.083,98.559l5.358-3.126L99.273,87.5,92.8,89.3Z" transform="translate(-80.592 -9.121)" fill="#d7f0ff"/>
            <path id="Trazado_131848" data-name="Trazado 131848" d="M146.132,64.024c4.366,3.113,3.1,7.658-.234,11.748S121.2,97.258,119.5,97.258s-7.355-5.275-6.638-7.616,16.183-20.659,19.5-23.414S140.967,60.388,146.132,64.024Z" transform="translate(-73.049 -18.603)" fill="#121212"/>
            <path id="Trazado_131849" data-name="Trazado 131849" d="M146.046,43.3s4.38,14.833,5.44,15.343a34.707,34.707,0,0,1,10.66,8.264c3.429,4.2,2.272,24.86,2.438,32.338s6.2,17.6,9.007,24.281-16.94,20.508-17.739,20.659-9.462-4.614-11.363-6.542-5.013-19.957-6.143-24.515-6.156-20.177-6.625-21.169A32.53,32.53,0,0,1,128.968,77.9c-.1-1.529-.785-3.967-.289-5.1,1.005-2.231,8.553-6.735,8.456-7.7S134.9,50.847,134.9,50.847Z" transform="translate(-67.123 -25.797)" fill="#ffbc92"/>
            <path id="Trazado_131850" data-name="Trazado 131850" d="M151.537,54.44l-11.2,11.128-3.168-4.655s-7.8,5.509-8.456,7.7-.179,6.335-.165,7.933a70.655,70.655,0,0,0,3.608,14.475c1.226,3.429,2.3,8.112,4.325,13.979,1.749,5.027,4.366,17.9,4.366,17.9s4.958-1.019,12.4-3.278c8.691-2.617,18.538-5.068,18.855-5.509,1.377-1.8-5.688-15.976-5.757-17.56s-1.625-29.088-2.3-32.559-3.319-5.151-5.881-6.68A40.3,40.3,0,0,0,151.537,54.44Z" transform="translate(-67.173 -21.594)" fill="#c6dfff"/>
            <path id="Trazado_131851" data-name="Trazado 131851" d="M152.143,55.86a19.86,19.86,0,0,0-5.509,7.947c-3.967,12.258,9.641,25.149,2.479,29.074-11.528,6.267-8.842,9.489-8.787,11.982a117.7,117.7,0,0,1-.677,12.624l27.672-3.3c3.7-.179-4.958-15.274-5.192-19.282-.992-17.106-1.928-29.611-2.493-32.38C158.809,58.807,152.143,55.86,152.143,55.86Z" transform="translate(-62.918 -21.058)" fill="#acd0ff"/>
            <path id="Trazado_131852" data-name="Trazado 131852" d="M133.8,55.188l12.12-8.1,2.286,7.8L144.722,58.4Z" transform="translate(-65.124 -24.367)" fill="#ffa37b"/>
            <path id="Trazado_131853" data-name="Trazado 131853" d="M129.857,35.717c3.044-3.553,12.781-7.658,18.524-1.625s4.366,12.836,2.19,17.216a16.844,16.844,0,0,1-7.313,7.7c-.771.454-8.029,2.644-9.641,2.314-1.047-.22-2.755-7.506-3.016-7.437a1.377,1.377,0,0,1-1.24-.854c-.179-.854.124-6.28-.152-6.817S126.372,39.794,129.857,35.717Z" transform="translate(-67.296 -30.43)" fill="#ffbc92"/>
            <path id="Trazado_131854" data-name="Trazado 131854" d="M128.16,39.418s5.261-3.87,13.07,1.694c1.68,1.184-.468,7.4,0,7.878s5.068-4.972,4.944-4.283c-1.212,7.038,1.46,10.509,2.08,10.481,1.9-.11,6.528-10.385,2.755-17.781s-12.2-7.176-14.131-6.514S128.931,32.71,128.16,39.418Z" transform="translate(-67.252 -30.591)" fill="#a13820"/>
            <path id="Trazado_131855" data-name="Trazado 131855" d="M139.062,42.457c-.4,2.245-.358,5.192.854,5.4s2.52-1.377,2.92-3.691-.262-4.228-1.474-4.435S139.461,40.212,139.062,42.457Z" transform="translate(-63.224 -27.157)" fill="#ffbc92"/>
            <g id="Grupo_82121" data-name="Grupo 82121" transform="translate(61.305 213.055)">
              <rect id="Rectángulo_35374" data-name="Rectángulo 35374" width="8.773" height="1.639" transform="translate(31.377 13.147) rotate(180)" fill="#121212"/>
              <path id="Trazado_131856" data-name="Trazado 131856" d="M159.646,185.388a15.013,15.013,0,0,1,2.038,6.156c.138,1.722-.9,5.371-2.025,5.371a85.394,85.394,0,0,0-10.7.592c-3.416.468-4.7,2.424-13.456,2.41-2.548,0-7.189-.165-7.052-1.212s8.388-2.92,11.018-5.371c6.735-6.211,11.225-7.713,11.225-7.713S159.412,185.058,159.646,185.388Z" transform="translate(-128.448 -185.285)" fill="#070505"/>
            </g>
            <path id="Trazado_131857" data-name="Trazado 131857" d="M163.614,106.239s.565,3.553,1.1,8.635-4.38,21.389-6.129,34.211-2.755,15.412-2.383,18.428,4.242,15.3,3.76,23.414-2.066,29.529-2.066,29.529a22.986,22.986,0,0,1-6.625,1.5c-4.2.4-7.107-3.223-7.107-3.223s-3.388-47.654-3.925-52.681c-.344-3.25-3-25.714-3.815-44.073-.262-5.881.4-19.5.4-21.94C136.771,98.4,163.614,106.239,163.614,106.239Z" transform="translate(-64.156 -4.475)" fill="#121212"/>
            <g id="Grupo_82122" data-name="Grupo 82122" transform="translate(89.042 213.693)">
              <path id="Trazado_131858" data-name="Trazado 131858" d="M165.043,197.3l8.635-1.529-.3-1.667-8.635,1.529Z" transform="translate(-142.493 -182.597)" fill="#121212"/>
              <path id="Trazado_131859" data-name="Trazado 131859" d="M177.1,185.778a15.907,15.907,0,0,1,3.126,5.908c.454,1.722.1,5.606-1.019,5.812a82.206,82.206,0,0,0-10.426,2.465c-3.292,1.06-6.019,4.834-12.809,4.779-2.562,0-7.547,0-7.382-1.019.427-2.631,7.947-3.4,10.123-6.363,5.509-7.479,9.641-9.792,9.641-9.792S176.811,185.475,177.1,185.778Z" transform="translate(-148.587 -185.748)" fill="#121212"/>
            </g>
            <path id="Trazado_131860" data-name="Trazado 131860" d="M168.42,98.45s3.76,7.231,4.407,13.511c.523,5.1.138,14.6-.1,27.545s.964,24.791,1.749,27.738,6.28,15.233,6.735,23.414,1.611,28.923,1.611,28.923a26.168,26.168,0,0,1-7.424,2.92,10.247,10.247,0,0,1-6.79-.606s-10.4-46.827-12.822-51.29c-3.87-7.107-7.052-30.507-11.018-46.263-1.584-6.349-7.382-21.306-7.382-21.306Z" transform="translate(-63.77 -4.99)" fill="#2c2c2c"/>
            <path id="Trazado_131861" data-name="Trazado 131861" d="M136.91,60.852l.207,3.264,5.909-5.826Z" transform="translate(-63.951 -20.141)" fill="#acd0ff"/>
            <path id="Trazado_131862" data-name="Trazado 131862" d="M137.992,63.5l-2.066-3.595-1.336,1.722Z" transform="translate(-64.826 -19.53)" fill="#acd0ff"/>
            <path id="Trazado_131863" data-name="Trazado 131863" d="M139.14,61.068l-4.27-.138.606,4.049,2.3.151Z" transform="translate(-64.72 -19.145)" fill="#2c2c2c"/>
            <path id="Trazado_131864" data-name="Trazado 131864" d="M138.042,64.06a114.311,114.311,0,0,0-.427,19.282c.813,8.264,2.975,34.143,2.975,34.143l-3.058,6.129-3.14-5.84s-.179-25.507-.152-34.583a166.655,166.655,0,0,1,1.474-19.351Z" transform="translate(-64.959 -18.048)" fill="#2c2c2c"/>
            <path id="Trazado_131865" data-name="Trazado 131865" d="M149.083,54.44s-7.258,11.5-9.944,19.86a165.359,165.359,0,0,0-4.27,16.39l5.509,49.4a165.654,165.654,0,0,0,20.081-1.5,74.456,74.456,0,0,0,15.715-4.008,111.188,111.188,0,0,0-2.6-12.4c-2.424-9.131-6.17-20.563-6.845-25.08-1.129-8.03-2.135-31.856-5.592-36.374S149.083,54.44,149.083,54.44Z" transform="translate(-64.72 -21.594)" fill="#2c2c2c"/>
            <path id="Trazado_131866" data-name="Trazado 131866" d="M135.76,59.61a133.99,133.99,0,0,0-.634,17.147,87.681,87.681,0,0,0,2.465,13.236l5.385,48.2-7.217-2.755S128.419,81.633,128.1,75.3s-.331-8.553.647-9.641S135.76,59.61,135.76,59.61Z" transform="translate(-67.346 -19.643)" fill="#121212"/>
            <path id="Trazado_131867" data-name="Trazado 131867" d="M157.078,58.429c4.986.565,3.746,26.32,1.543,36.222S140.4,138.6,140.4,138.6s-6.473-45.877-5.385-48.2c.854-1.818,3.636-8.085,5.385-12.671C143.98,68.249,150.894,57.727,157.078,58.429Z" transform="translate(-64.713 -20.102)" fill="#121212"/>
            <path id="Trazado_131868" data-name="Trazado 131868" d="M136.469,60.532l-2.025,3.939-1.295-3.347,1.8-2.865Z" transform="translate(-65.369 -20.153)" fill="#d7f0ff"/>
            <path id="Trazado_131869" data-name="Trazado 131869" d="M154.48,58.211c5.151.482,6.267,5.11,5.426,10.4s-10.261,33.055-11.693,33.895-10.082-.661-10.6-3.085,5.619-27.711,7.024-31.939S148.434,57.633,154.48,58.211Z" transform="translate(-63.699 -20.187)" fill="#2c2c2c"/>
            <path id="Trazado_131870" data-name="Trazado 131870" d="M99.353,96.421a20.2,20.2,0,0,1-4.008,1.763c-.248.083-.592.344-.84.427s-.62,0-.813.11a2.479,2.479,0,0,1-.5.262,4.276,4.276,0,0,1-.84,0c-.22,0-.537.262-.716.331-.689.275-.854-.207-1.074-.138a4.877,4.877,0,0,1-1.019.234,10.274,10.274,0,0,1-3.333-2.038c-.289-.372-2.4-2.107-2.272-2.355s1.116-.647,2.369.138a11.83,11.83,0,0,0,2.617,1.377,11.927,11.927,0,0,1-1.253-2.644c-.138-.468.344-.716.744-.744s1.295.881,1.295.881.289-.95.51-.992c.716-.11,1.281.8,1.556,1.033s.165-.95.482-.978c1.2,0,2.093,2.755,3.154,2.149C95.951,95.016,98.513,94.906,99.353,96.421Z" transform="translate(-83.936 -7.038)" fill="#ffa37b"/>
            <path id="Trazado_131871" data-name="Trazado 131871" d="M133.752,111.912s-.22,4.242-2.755,5.055-5.509-.813-6.239-.992c-3.113-.785-6.418,1.653-8.346,1.515s-2.08-1.377-1.377-1.543c3.884-1.033,5.936-2.892,7.713-3.126a62.2,62.2,0,0,0,7.988-2.961Z" transform="translate(-72.348 -0.686)" fill="#ffbc92"/>
            <path id="Trazado_131872" data-name="Trazado 131872" d="M130.548,116.232l3.168-4.862-6.638-4.71-3.168,4.862Z" transform="translate(-68.855 -1.893)" fill="#d7f0ff"/>
            <path id="Trazado_131873" data-name="Trazado 131873" d="M150.325,55.436l-3.292-2.686L136.91,62.942l2.947,3.787Z" transform="translate(-63.951 -22.232)" fill="#d7f0ff"/>
            <path id="Trazado_131874" data-name="Trazado 131874" d="M132.051,81.273c-1.749-5.509-12.988-1.556-18.29.909S93.35,92.057,93.35,92.057l4.559,9.641a218.517,218.517,0,0,0,28.813-10.371C128.236,90.693,133.814,86.878,132.051,81.273Z" transform="translate(-80.385 -12.521)" fill="#121212"/>
            <path id="Trazado_131875" data-name="Trazado 131875" d="M152.518,85.324c4.807,2.975-2.589,15.3-6.1,19.929S132.2,123.764,132.2,123.764l-8.264-5.771s8.057-15.15,17.092-28.468C141.927,88.134,147.629,82.308,152.518,85.324Z" transform="translate(-68.844 -10.265)" fill="#2c2c2c"/>
          </g>
          <g id="Grupo_82128" data-name="Grupo 82128">
            <g id="Grupo_82124" data-name="Grupo 82124" transform="translate(59.128 108.753)">
              <path id="Trazado_131876" data-name="Trazado 131876" d="M71.64,111.248s0,3.925,2.452,4.834,5.509-.4,6.308-.523c3.14-.51,6.28,1.942,8.264,1.942s2.162-1.116,1.474-1.377c-3.8-1.212-5.716-3.044-7.465-3.388a62.735,62.735,0,0,1-7.782-3.2Z" transform="translate(-71.64 -109.54)" fill="#ffbc92"/>
              <path id="Trazado_131877" data-name="Trazado 131877" d="M72,112.78a8.939,8.939,0,0,0,2.865,3.319c1.57.771,3.7-.124,5.11.358s1.143-.358,1.06-.592a16.871,16.871,0,0,0-2.548-1.171C77.7,114.323,75.264,111.307,72,112.78Z" transform="translate(-71.504 -108.469)" fill="#ffbc92"/>
            </g>
            <path id="Trazado_131878" data-name="Trazado 131878" d="M62.487,86.551c4.765-2.934,10.04,7.4,12.4,12.561s7.492,20.907,7.492,20.907l-5.509,2.755a153.469,153.469,0,0,1-16.9-25.452C59.237,95.889,57.584,89.526,62.487,86.551Z" transform="translate(-17.242 -9.655)" fill="#acd0ff"/>
            <path id="Trazado_131879" data-name="Trazado 131879" d="M77.229,107.02l2.369,4.972-7.341,3.87-2.837-4.876Z" transform="translate(-13.349 -1.738)" fill="#d7f0ff"/>
            <path id="Trazado_131880" data-name="Trazado 131880" d="M58.474,62.461c-5.358.152-6.886,4.628-6.335,9.889s8.594,31.595,10.013,32.531,9.049-.289,9.765-2.631-2.755-25.783-3.911-30.038S64.755,62.282,58.474,62.461Z" transform="translate(-19.909 -18.551)" fill="#acd0ff"/>
            <path id="Trazado_131881" data-name="Trazado 131881" d="M55.762,43.84s-4.132,14.916-5.11,15.453a34.941,34.941,0,0,0-10.481,8.539c-3.333,4.283-1.777,24.915-1.777,32.38s-5.84,17.739-8.5,24.474,17.367,20.136,18.18,20.329,9.365-4.82,11.225-6.8,4.586-20.149,5.619-24.708,5.757-20.3,6.2-21.238a32.1,32.1,0,0,0,2.465-14.186c.069-1.543.716-3.994.179-5.1-1.047-2.217-8.691-6.556-8.608-7.534s1.928-14.3,1.928-14.3Z" transform="translate(-28.352 -25.574)" fill="#ffbc92"/>
            <path id="Trazado_131882" data-name="Trazado 131882" d="M50.252,55.06,61.7,66l3.058-4.724s7.919,5.4,8.608,7.534.317,6.322.344,7.919A71.068,71.068,0,0,1,70.4,91.269c-1.143,3.471-2.121,8.167-4.022,14.076-1.625,5.055-3.98,18.042-3.98,18.042s-4.972-.923-12.533-3.016c-8.746-2.438-18.634-4.669-18.965-5.1-1.377-1.777,5.358-16.1,5.385-17.684s.992-29.116,1.6-32.586,3.209-5.234,5.743-6.886a41.318,41.318,0,0,1,6.625-3.058Z" transform="translate(-27.952 -21.341)" fill="#c6dfff"/>
            <path id="Trazado_131883" data-name="Trazado 131883" d="M41.675,58.21s9.2,0,10.77,4.5c4.228,12.175,2.823,14.957,10.109,18.731,11.652,6.019,1.143,22.284,1.143,24.791a77.389,77.389,0,0,1-.854,10.8L31.58,114.582c-3.7-.1,4.628-15.384,4.779-19.392.62-17.12,1.074-29.68,1.8-32.435a9.5,9.5,0,0,1,3.512-4.545Z" transform="translate(-27.983 -20.153)" fill="#acd0ff"/>
            <path id="Trazado_131884" data-name="Trazado 131884" d="M60.192,55.5,47.907,47.66,45.8,55.5l3.553,3.443Z" transform="translate(-22.261 -24.133)" fill="#ffa37b"/>
            <path id="Trazado_131885" data-name="Trazado 131885" d="M66.446,35.943c-3.126-3.485-12.933-7.382-18.552-1.226S43.762,47.636,46.076,51.96a16.789,16.789,0,0,0,7.465,7.547c.785.441,8.085,2.465,9.641,2.107,1.047-.234,2.562-7.561,2.851-7.506a1.377,1.377,0,0,0,1.267-.9c.152-.868-.262-6.28,0-6.817S70.013,39.937,66.446,35.943Z" transform="translate(-22.936 -30.238)" fill="#ffbc92"/>
            <path id="Trazado_131886" data-name="Trazado 131886" d="M68.744,39.781S63.4,36.035,55.715,41.751c-1.653,1.226.62,7.4.193,7.878s-5.165-4.862-5.027-4.132c1.377,7.01-1.24,10.536-1.859,10.509-1.9,0-9.214-10.564-5.509-18.042s13.952-7.8,15.894-7.176S73.1,31.159,68.744,39.781Z" transform="translate(-23.513 -30.578)" fill="#a13820"/>
            <path id="Trazado_131887" data-name="Trazado 131887" d="M51.882,42.934c.441,2.231.468,5.179-.744,5.413s-2.548-1.377-2.989-3.622.165-4.228,1.377-4.462S51.427,40.7,51.882,42.934Z" transform="translate(-21.429 -26.941)" fill="#ffbc92"/>
            <g id="Grupo_82125" data-name="Grupo 82125" transform="translate(13.156 213.946)">
              <rect id="Rectángulo_35375" data-name="Rectángulo 35375" width="8.773" height="1.639" transform="translate(1.706 11.613)" fill="#121212"/>
              <path id="Trazado_131888" data-name="Trazado 131888" d="M40.312,186.031a15.287,15.287,0,0,0-2.038,6.156c-.138,1.735.9,5.371,2.025,5.371a82.943,82.943,0,0,1,10.7.606c3.429.455,4.71,2.424,13.456,2.4,2.548,0,7.189-.165,7.052-1.2s-8.388-2.92-11.018-5.371c-6.735-6.212-11.225-7.713-11.225-7.713S40.546,185.673,40.312,186.031Z" transform="translate(-38.261 -185.918)" fill="#070505"/>
            </g>
            <path id="Trazado_131889" data-name="Trazado 131889" d="M35.013,106.853s-.565,3.553-1.1,8.649,4.393,21.389,6.129,34.2,2.755,15.412,2.383,18.442-4.242,15.288-3.746,23.414S40.8,221.029,40.8,221.029a22.408,22.408,0,0,0,6.611,1.5c4.132.413,7.12-3.209,7.12-3.209s3.374-47.667,3.911-52.694c.344-3.25,3-25.7,3.815-44,.262-5.895-.4-19.5-.4-21.94C61.856,99.03,35.013,106.853,35.013,106.853Z" transform="translate(-26.761 -4.216)" fill="#121212"/>
            <g id="Grupo_82126" data-name="Grupo 82126" transform="translate(1.843 216.064)">
              <path id="Trazado_131890" data-name="Trazado 131890" d="M39.729,198.355,30.97,197.8l.11-1.694,8.746.551Z" transform="translate(-29.698 -184.19)" fill="#121212"/>
              <path id="Trazado_131891" data-name="Trazado 131891" d="M32.53,187.517a16.073,16.073,0,0,0-2.438,6.2c-.248,1.763.537,5.592,1.667,5.661a81.844,81.844,0,0,1,10.646,1.281c3.374.689,4.531,2.755,13.263,3.319,2.548.151,7.189.275,7.12-.8s-8.181-3.54-10.688-6.225c-6.308-6.886-10.688-8.649-10.688-8.649S32.737,187.186,32.53,187.517Z" transform="translate(-30.047 -187.456)" fill="#121212"/>
            </g>
            <path id="Trazado_131892" data-name="Trazado 131892" d="M31.534,99.07s-2.906,7.616-2.823,13.938c.069,5.11,1.543,14.516,3.278,27.325S33.9,165.124,33.462,168.1s-4.476,15.852-3.994,24.006,2.755,28.289,2.755,28.289a12.864,12.864,0,0,0,6.749,2.644,10.371,10.371,0,0,0,6.694-1.377s4.9-47.736,6.79-52.433c3.03-7.506,3.484-31.113,5.578-47.213.84-6.5,4.807-20.755,4.807-20.755Z" transform="translate(-28.709 -4.738)" fill="#2c2c2c"/>
            <path id="Trazado_131893" data-name="Trazado 131893" d="M54.99,61.254l-.124,3.278-6.046-5.7Z" transform="translate(-21.121 -19.919)" fill="#acd0ff"/>
            <path id="Trazado_131894" data-name="Trazado 131894" d="M53.21,63.97l1.969-3.65,1.391,1.694Z" transform="translate(-19.465 -19.357)" fill="#acd0ff"/>
            <path id="Trazado_131895" data-name="Trazado 131895" d="M52.26,61.55l4.27-.22-.523,4.049-2.286.207Z" transform="translate(-19.823 -18.976)" fill="#2c2c2c"/>
            <path id="Trazado_131896" data-name="Trazado 131896" d="M43.45,56.1l3.237-2.755,10.33,9.971-2.865,3.843Z" transform="translate(-23.147 -21.986)" fill="#d7f0ff"/>
            <path id="Trazado_131897" data-name="Trazado 131897" d="M54.64,60.95l2.121,3.911,1.226-3.388L56.114,58.65Z" transform="translate(-18.926 -19.987)" fill="#d7f0ff"/>
            <path id="Trazado_131898" data-name="Trazado 131898" d="M30.907,98.94s9.062.606,18.042.95l14.406.592v3.567s-9.214.207-18.69-.372-14.7-1.377-14.7-1.377Z" transform="translate(-28.233 -4.787)" fill="#411417"/>
            <rect id="Rectángulo_35376" data-name="Rectángulo 35376" width="4.173" height="4.132" rx="0.37" transform="translate(30.894 95.613)" fill="#822816"/>
            <path id="Trazado_131899" data-name="Trazado 131899" d="M53.429,64.461a115.359,115.359,0,0,1,.8,19.282c-.634,8.264-1.2,34.115-1.2,34.115l3.182,6.06,3.016-5.895S57.85,92.6,57.6,83.592A166.554,166.554,0,0,0,55.716,64.31Z" transform="translate(-19.533 -17.852)" fill="#2c2c2c"/>
            <g id="Grupo_82127" data-name="Grupo 82127" transform="translate(73.162 79.554)">
              <path id="Trazado_131900" data-name="Trazado 131900" d="M91.049,98.086h0a1.019,1.019,0,0,0-.275-1.377l-3.54-2.424a1,1,0,0,0-1.377.275h0a.992.992,0,0,0,.262,1.377l3.54,2.424a.992.992,0,0,0,1.391-.275Z" transform="translate(-80.375 -86.159)" fill="#ffa37b"/>
              <path id="Trazado_131901" data-name="Trazado 131901" d="M91.924,97.029h0a.992.992,0,0,0-.262-1.377l-3.54-2.438a1.019,1.019,0,0,0-1.377.262h0a1,1,0,0,0,.262,1.377l3.553,2.424a1,1,0,0,0,1.363-.248Z" transform="translate(-80.038 -86.562)" fill="#ffa37b"/>
              <path id="Trazado_131902" data-name="Trazado 131902" d="M92.714,95.961h0a1,1,0,0,0-.262-1.377l-3.54-2.438a1,1,0,0,0-1.377.262h0a1,1,0,0,0,.262,1.377l3.553,2.424A1,1,0,0,0,92.714,95.961Z" transform="translate(-79.74 -86.967)" fill="#ffa37b"/>
              <path id="Trazado_131903" data-name="Trazado 131903" d="M93.376,94.846h0a1.019,1.019,0,0,0-.275-1.377l-3.526-2.424a1,1,0,0,0-1.377.275h0a.992.992,0,0,0,.262,1.377l3.526,2.479a.992.992,0,0,0,1.391-.331Z" transform="translate(-79.493 -87.381)" fill="#ffa37b"/>
              <path id="Trazado_131904" data-name="Trazado 131904" d="M82.491,88.34a69.763,69.763,0,0,1,8.264,1.914,43.619,43.619,0,0,1,5,4.5s-2.369.565-2.92,1.68-1.722,4.132-1.722,4.132a30.15,30.15,0,0,1-6.156-2.906,21.816,21.816,0,0,1-3.126-3.071Z" transform="translate(-81.83 -88.34)" fill="#ffa37b"/>
            </g>
            <path id="Trazado_131905" data-name="Trazado 131905" d="M39,60.7c-4.256,3.278-2.755,7.768.675,11.734S65.2,92.959,66.892,92.876s7.162-5.509,6.349-7.864S55.874,65.73,52.431,62.975,43.974,56.874,39,60.7Z" transform="translate(-25.806 -19.864)" fill="#c6dfff"/>
            <path id="Trazado_131906" data-name="Trazado 131906" d="M56.331,79.192C53.48,84.274,64.071,89.935,69.567,92.1s22.16,7.919,22.16,7.919l2.755-6.886S81.99,85.5,67.487,78.063C63.934,76.286,59.237,74.028,56.331,79.192Z" transform="translate(-18.468 -13.438)" fill="#c6dfff"/>
            <rect id="Rectángulo_35377" data-name="Rectángulo 35377" width="5.881" height="8.911" transform="matrix(0.9, 0.436, -0.436, 0.9, 72.309, 77.114)" fill="#d7f0ff"/>
          </g>
          <g id="Grupo_82129" data-name="Grupo 82129" transform="translate(34.447 116.713)">
            <rect id="Rectángulo_35378" data-name="Rectángulo 35378" width="115.829" height="7.603" transform="translate(9.159 116.132) rotate(-90)" fill="#74848e"/>
            <rect id="Rectángulo_35379" data-name="Rectángulo 35379" width="115.829" height="7.603" transform="translate(98.64 116.132) rotate(-90)" fill="#74848e"/>
            <rect id="Rectángulo_35380" data-name="Rectángulo 35380" width="94.743" height="106.325" transform="translate(10.233 2.438)" fill="#74848e"/>
            <path id="Trazado_131907" data-name="Trazado 131907" d="M157.316,127.55,60.37,129.423V123.17l96.946.069Z" transform="translate(-51.211 -112.358)" fill="#b8b8bd"/>
            <rect id="Rectángulo_35381" data-name="Rectángulo 35381" width="115.829" height="10.949" fill="#95a1a9"/>
          </g>
          <g id="Grupo_82130" data-name="Grupo 82130" transform="translate(43.744 195.524)">
            <rect id="Rectángulo_35382" data-name="Rectángulo 35382" width="47.943" height="34.005" rx="1.4" transform="translate(0.978 5.933)" fill="#32312e"/>
            <path id="Trazado_131908" data-name="Trazado 131908" d="M73.312,175.911a1.956,1.956,0,0,0-1.184.317,2.534,2.534,0,0,1-1.143.262H69.607c-.482,0-.331.7-.331.7h4.531a.84.84,0,0,0-.5-1.281Z" transform="translate(-57.156 -171.273)" fill="#32312e"/>
            <path id="Trazado_131909" data-name="Trazado 131909" d="M108.358,177.34H62.481a2.025,2.025,0,0,0-2.011,2.011v4.889a9.875,9.875,0,0,0,9.861,9.861h30.176a9.875,9.875,0,0,0,9.861-9.861v-4.889a2.025,2.025,0,0,0-2.011-2.011Z" transform="translate(-60.47 -170.733)" fill="#1f1e1b"/>
            <path id="Trazado_131910" data-name="Trazado 131910" d="M108.358,176.85H62.481a2.011,2.011,0,0,0-2.011,2.011v4.889a9.875,9.875,0,0,0,9.861,9.834h30.176a9.875,9.875,0,0,0,9.861-9.861v-4.889a2.011,2.011,0,0,0-2.011-1.983Z" transform="translate(-60.47 -170.917)" fill="#4b4a47"/>
            <path id="Trazado_131911" data-name="Trazado 131911" d="M73.67,174h-1.8a.386.386,0,0,0,0,.758h1.8a.386.386,0,0,0,0-.757Z" transform="translate(-56.289 -171.993)" fill="#32312e"/>
            <path id="Trazado_131912" data-name="Trazado 131912" d="M72.233,173.77a.523.523,0,0,0-.523.523v3a.523.523,0,1,0,1.047,0v-3A.523.523,0,0,0,72.233,173.77Z" transform="translate(-56.229 -172.079)" fill="#ffb121"/>
            <path id="Trazado_131913" data-name="Trazado 131913" d="M72.481,173.81a.441.441,0,0,1,0,.193v3a.537.537,0,0,1-.537.523.468.468,0,0,1-.234,0,.523.523,0,0,0,1.005-.193v-3A.5.5,0,0,0,72.481,173.81Z" transform="translate(-56.229 -172.064)" fill="#ff8a1e"/>
            <path id="Trazado_131914" data-name="Trazado 131914" d="M88.875,176.5H87.5a2.479,2.479,0,0,1-1.129-.262,1.969,1.969,0,0,0-1.2-.317.84.84,0,0,0-.51,1.295h4.531S89.315,176.5,88.875,176.5Z" transform="translate(-51.399 -171.269)" fill="#32312e"/>
            <path id="Trazado_131915" data-name="Trazado 131915" d="M86.046,174h-1.79a.386.386,0,1,0,0,.758h1.79a.386.386,0,1,0,0-.758Z" transform="translate(-51.669 -171.995)" fill="#32312e"/>
            <path id="Trazado_131916" data-name="Trazado 131916" d="M85.263,173.77a.523.523,0,0,0-.523.523v3a.523.523,0,0,0,.523.523.537.537,0,0,0,.537-.523v-3A.537.537,0,0,0,85.263,173.77Z" transform="translate(-51.314 -172.079)" fill="#ffb121"/>
            <path id="Trazado_131917" data-name="Trazado 131917" d="M85,176.986v-2.934a.44.44,0,0,1,0-.193.51.51,0,0,0-.289.455v3a.523.523,0,0,0,.523.523.551.551,0,0,0,.5-.331.509.509,0,0,1-.248,0,.523.523,0,0,1-.482-.523Z" transform="translate(-51.325 -172.046)" fill="#ff8a1e"/>
            <path id="Trazado_131918" data-name="Trazado 131918" d="M88.828,173.049a61.675,61.675,0,0,0-15.77,0,.8.8,0,0,0-.716.9l.165,1.212a.813.813,0,0,0,.909.689,58.588,58.588,0,0,1,15.054,0,.813.813,0,0,0,.909-.689l.165-1.212a.8.8,0,0,0-.716-.9Z" transform="translate(-55.993 -172.543)" fill="#32312e"/>
            <path id="Trazado_131919" data-name="Trazado 131919" d="M76.53,192.626A1.873,1.873,0,0,0,78.4,194.5h1.914a1.873,1.873,0,0,0,1.873-1.873V186.18H76.53Z" transform="translate(-54.411 -167.398)" fill="#ff8a1e"/>
            <path id="Trazado_131920" data-name="Trazado 131920" d="M77.21,191.627a1.061,1.061,0,0,0,1.06,1.06h1.5a1.061,1.061,0,0,0,1.06-1.061V187.11H77.21Z" transform="translate(-54.154 -167.047)" fill="#ffb121"/>
            <rect id="Rectángulo_35383" data-name="Rectángulo 35383" width="7.382" height="2.989" rx="0.49" transform="translate(21.182 17.846)" fill="#32312e"/>
          </g>
        </g>
      </g>
    </g>
  </g>
</svg>
