<svg id="Capa_1" data-name="Capa 1" xmlns="http://www.w3.org/2000/svg" width="120" height="120" viewBox="0 0 120 120">
  <rect id="Rectángulo_35315" data-name="Rectángulo 35315" width="120" height="120" fill="none"/>
  <circle id="Elipse_5530" data-name="Elipse 5530" cx="50" cy="50" r="50" transform="translate(10 10)" fill="#93b3d8"/>
  <g id="Grupo_82057" data-name="Grupo 82057">
    <path id="Trazado_130100" data-name="Trazado 130100" d="M60.64,7.13a3.07,3.07,0,0,1,1.67,3.21c-.06,1.4,0,2.81,0,4.21A2.36,2.36,0,0,1,61,16.78a2.16,2.16,0,0,1-2.29-.22,2.43,2.43,0,0,1-1-2.12c0-1.57,0-3.15,0-4.73a2.82,2.82,0,0,1,1.65-2.58Z" fill="#fed160"/>
    <path id="Trazado_130101" data-name="Trazado 130101" d="M51.17,66.68A9.69,9.69,0,0,0,47,59.36a21.26,21.26,0,0,1-8-11.82A21.32,21.32,0,0,1,43,28.3a20.82,20.82,0,0,1,12.3-7.74A21.54,21.54,0,0,1,79.05,30.91a21.85,21.85,0,0,1-1.94,24.76,31.32,31.32,0,0,1-4.82,4.53,8.58,8.58,0,0,0-3.23,6.48Q60.12,66.82,51.17,66.68Zm4.64-12.27.17.11,11.25-12.8H62.92c-.63,0-.92-.12-.72-.83.27-1,.46-2,.68-3.08l1.32-6.27-.2-.07L52.81,44.23h4.21c.76,0,.95.15.77,1-.71,3.01-1.33,6.1-1.98,9.18Z" fill="#fed05c"/>
    <path id="Trazado_130102" data-name="Trazado 130102" d="M74.93,85.19C79.5,86.1,84.07,87,88.64,88a8.24,8.24,0,0,1,6.87,6.78c1.51,6.73,3.13,13.44,4.72,20.19a.88.88,0,0,1-.29.11H72.87c.1-.41.17-.82.31-1.22,2.29-6.5,4.4-13.07,6.56-19.62.25-.76.11-1.1-.6-1.42-1-.46-2-1-3-1.57-.17-.09-.44-.13-.44-.38s.27-.29.45-.38c2.19-1,2.19-1,.54-2.83-.09-.11-.23-.19-.29-.31C76,86.53,75.11,86.11,74.93,85.19Z" fill="#344a5e"/>
    <path id="Trazado_130103" data-name="Trazado 130103" d="M46.93,115H19.77c.59-2.65,1.15-5.23,1.72-7.81,1-4.27,1.94-8.53,2.88-12.81a7.66,7.66,0,0,1,5.95-6.26c4.81-1.11,9.68-2,14.52-2.91,0,.45-.31.69-.58.95A31.119,31.119,0,0,0,41.93,89c-.51.62-.48,1,.39,1.19a4.85,4.85,0,0,1,1.07.42c.19.08.45.12.48.35s-.25.31-.42.4c-1,.49-1.93,1-2.92,1.45-.58.26-.74.53-.52,1.18,1.46,4.34,2.87,8.69,4.3,13Q45.63,111,46.93,115Z" fill="#344a5e"/>
    <path id="Trazado_130104" data-name="Trazado 130104" d="M74.93,85.19c.18.92,1.07,1.34,1.49,2.1.06.12.2.2.29.31,1.65,1.82,1.65,1.84-.54,2.83-.18.09-.45.12-.45.38s.27.29.44.38c1,.54,2,1.11,3,1.57.71.32.85.66.6,1.42-2.16,6.55-4.27,13.12-6.56,19.62-.14.4-.21.81-.31,1.22H68c-.06-.11-.12-.12-.2,0a7.6,7.6,0,0,0-2.38-.11c-.76,0-.9-.35-.77-1,.17-.87.25-1.76.37-2.65q1.59-9,3.17-18.08c.5-2.72,1-5.43,1.35-8.18.19-1.4,0-2.85.55-4.2,1.19,1.31,2,3,3.6,3.89a5.06,5.06,0,0,0,1.24.5Z" fill="#415a6b"/>
    <path id="Trazado_130105" data-name="Trazado 130105" d="M46.93,115q-1.3-4-2.62-8c-1.43-4.35-2.84-8.7-4.3-13-.22-.65-.06-.92.52-1.18,1-.44,1.95-1,2.92-1.45.17-.09.45-.13.42-.4s-.29-.27-.48-.35a4.85,4.85,0,0,0-1.07-.42c-.87-.17-.9-.57-.39-1.19a31.12,31.12,0,0,1,2.33-2.82c.27-.26.6-.5.58-.95a6.36,6.36,0,0,0,3.58-2.9,4.14,4.14,0,0,1,1.2-1.43,97.352,97.352,0,0,0,1.77,12.61c.67,3.86,1.32,7.73,2,11.59.43,2.41.73,4.84,1.33,7.22L55,115Z" fill="#415a6b"/>
    <path id="Trazado_130106" data-name="Trazado 130106" d="M55,115c-.09-.88-.19-1.77-.28-2.66a.56.56,0,0,0,.22-.45q.93-8.24,1.88-16.46a1.35,1.35,0,0,0-.49-1.19c-.88-.86-1.72-1.75-2.58-2.62,1.88-1.88,3.77-3.75,5.62-5.66.48-.5.77-.5,1.25,0,1.85,1.91,3.75,3.78,5.62,5.66-.81.83-1.58,1.69-2.44,2.47a1.81,1.81,0,0,0-.58,1.77c.36,2.93.66,5.85,1,8.78.26,2.18.53,4.37.8,6.55-.12.89-.2,1.78-.37,2.65-.13.69,0,1.07.77,1A1.83,1.83,0,0,1,65,115Z" fill="#f2705a"/>
    <path id="Trazado_130107" data-name="Trazado 130107" d="M66.25,91.63c-1.87-1.88-3.77-3.75-5.62-5.66-.48-.5-.77-.5-1.25,0-1.85,1.91-3.74,3.78-5.62,5.66-.95.43-1.32,1.58-2.37,1.91a97.351,97.351,0,0,1-1.77-12.61.1.1,0,0,0,.09-.06c.39-.47.32-1.43.89-1.5.41-.05.91.66,1.38,1,2.39,1.79,5.15,2.93,7.64,4.54.37.24.66.07,1-.11,2.17-1.25,4.35-2.5,6.51-3.78a6.43,6.43,0,0,0,1.6-1.16c.67-.77,1-.61,1.25.27l.15.6c-.53,1.35-.36,2.8-.55,4.2-.35,2.75-.85,5.46-1.35,8.18C67.32,92.93,67.05,91.93,66.25,91.63Z" fill="#f1f0f0"/>
    <path id="Trazado_130108" data-name="Trazado 130108" d="M51.17,66.68q8.94.13,17.89,0c1,.12,1.68.5,1.7,1.6s-.52,1.4-1.92,1.61H51c-.66-.23-1.31-.46-1.51-1.25C49.26,67.67,49.85,67,51.17,66.68Z" fill="#354b5e"/>
    <path id="Trazado_130109" data-name="Trazado 130109" d="M50.93,75.22a1.44,1.44,0,0,1-1.45-1.48c-.07-1,.64-1.45,1.51-1.69H68.82a2.38,2.38,0,0,1,1.46.47,1.48,1.48,0,0,1,.38,1.72,1.55,1.55,0,0,1-1.78,1Z" fill="#354b5e"/>
    <path id="Trazado_130110" data-name="Trazado 130110" d="M50.93,75.22H68.88c-.3,1.49-.89,2.77-2.56,3.09a12.08,12.08,0,0,1-2.09.06H54.94C52.32,78.39,51.56,77.79,50.93,75.22Z" fill="#425a6b"/>
    <path id="Trazado_130111" data-name="Trazado 130111" d="M37.2,16.6a2.16,2.16,0,0,1,1.58.8c1.17,1.16,2.35,2.31,3.5,3.5s1.13,2.29.2,3.26a2.19,2.19,0,0,1-3.27-.05c-1.25-1.18-2.45-2.41-3.64-3.64A2.25,2.25,0,0,1,37.2,16.6Z" fill="#fed15e"/>
    <path id="Trazado_130112" data-name="Trazado 130112" d="M85.12,18.92a2.07,2.07,0,0,1-.73,1.61c-1.18,1.21-2.35,2.41-3.58,3.57a2.18,2.18,0,0,1-3.26.07,2.15,2.15,0,0,1,.17-3.26c1.22-1.26,2.47-2.49,3.73-3.71a2,2,0,0,1,2.33-.42,2.11,2.11,0,0,1,1.34,2.14Z" fill="#fed15e"/>
    <path id="Trazado_130113" data-name="Trazado 130113" d="M34.89,64.82a2,2,0,0,1,.68-1.54c1.21-1.22,2.41-2.45,3.65-3.64a2.21,2.21,0,0,1,3.27-.09,2.18,2.18,0,0,1-.11,3.21C41.19,64,40,65.22,38.73,66.4a2.12,2.12,0,0,1-2.59.51,2.15,2.15,0,0,1-1.25-2.09Z" fill="#fed15e"/>
    <path id="Trazado_130114" data-name="Trazado 130114" d="M85.12,64.82a1.89,1.89,0,0,1-1.06,1.9,2.38,2.38,0,0,1-2.75-.32c-1.32-1.21-2.59-2.47-3.79-3.79a2.12,2.12,0,0,1,.06-3.11,2.15,2.15,0,0,1,3.1,0c1.3,1.23,2.54,2.51,3.8,3.78a1.94,1.94,0,0,1,.64,1.54Z" fill="#fed15e"/>
    <path id="Trazado_130115" data-name="Trazado 130115" d="M90,39.55h2.52a2.15,2.15,0,0,1,2.31,2.08A2.34,2.34,0,0,1,92.56,44c-1.79.06-3.58.07-5.37,0a2.211,2.211,0,0,1,.14-4.42C88.21,39.53,89.09,39.55,90,39.55Z" fill="#fed15d"/>
    <path id="Trazado_130116" data-name="Trazado 130116" d="M30.09,44.22H27.56A2.27,2.27,0,0,1,25.21,42a2.36,2.36,0,0,1,2.41-2.26h5.06A2.09,2.09,0,0,1,35,42a2.15,2.15,0,0,1-2.25,2.26C31.85,44.25,31,44.22,30.09,44.22Z" fill="#fed15d"/>
    <path id="Trazado_130117" data-name="Trazado 130117" d="M68.82,72.06H51V69.94H68.83Z" fill="#435b6c"/>
    <path id="Trazado_130118" data-name="Trazado 130118" d="M55.78,78.37h8.45c-1.62,2.17-3.43,2.92-5.56,2.3a5.57,5.57,0,0,1-2.89-2.3Z" fill="#374d60"/>
    <path id="Trazado_130119" data-name="Trazado 130119" d="M67.81,115c.08-.1.14-.09.2,0h-.1Z" fill="#344a5e"/>
    <path id="Trazado_130120" data-name="Trazado 130120" d="M55.81,54.41c.65-3.08,1.27-6.17,2-9.24.18-.8,0-1-.77-1H52.83L64,31.47l.18.08-1.32,6.27c-.22,1-.41,2.06-.68,3.08-.2.71.09.84.72.83h4.31L56,54.52Z" fill="#fefdfb"/>
    <path id="Trazado_130121" data-name="Trazado 130121" d="M66.25,91.63c.8.3,1.07,1.3,2,1.49q-1.59,9-3.17,18.08c-.27-2.18-.54-4.37-.8-6.55-.34-2.93-.64-5.85-1-8.78a1.81,1.81,0,0,1,.58-1.77C64.67,93.32,65.44,92.46,66.25,91.63Z" fill="#ccd3dc"/>
    <path id="Trazado_130122" data-name="Trazado 130122" d="M51.39,93.54c1-.33,1.42-1.48,2.37-1.91.86.87,1.7,1.76,2.58,2.62a1.35,1.35,0,0,1,.49,1.19q-1,8.24-1.88,16.46a.56.56,0,0,1-.22.45c-.6-2.38-.9-4.81-1.33-7.22C52.71,101.27,52.06,97.4,51.39,93.54Z" fill="#ccd3dc"/>
  </g>
</svg>
