<svg id="Capa_1" data-name="Capa 1" xmlns="http://www.w3.org/2000/svg" width="120" height="120" viewBox="0 0 120 120">
  <rect id="Rectángulo_35314" data-name="Rectángulo 35314" width="120" height="120" fill="none"/>
  <circle id="Elipse_5529" data-name="Elipse 5529" cx="50" cy="50" r="50" transform="translate(10 10)" fill="#93b3d8"/>
  <g id="Grupo_82056" data-name="Grupo 82056">
    <path id="Trazado_130069" data-name="Trazado 130069" d="M33.88,98.44c.08,1.15.41,2.26.49,3.42a13.86,13.86,0,0,1-3.21,10,.56.56,0,0,1-.44.24,10.87,10.87,0,0,0-11.24-7.62,10.58,10.58,0,0,0-9.68,7.64,12.37,12.37,0,0,1-3.39-6.57A4.46,4.46,0,0,0,6,103.89v-2.11a27.23,27.23,0,0,1,1.48-5,13.67,13.67,0,0,1,10.41-7.87c5.92-1,10.66,1.18,14.18,6a2.06,2.06,0,0,0,.3.29C32.87,96.31,33.38,97.38,33.88,98.44Zm-9.08-1a4.64,4.64,0,0,0-4.45-4.57,4.51,4.51,0,1,0,4.45,4.57Z" fill="#89d5f6"/>
    <path id="Trazado_130070" data-name="Trazado 130070" d="M9.8,112.14a10.58,10.58,0,0,1,9.68-7.64,10.87,10.87,0,0,1,11.24,7.62,4.45,4.45,0,0,1-1.84,2.06,13.18,13.18,0,0,1-5.14,2.43,1.26,1.26,0,0,0-.84.38H17.62c-.15-.24-.42-.26-.65-.31a14,14,0,0,1-4.51-2,6.54,6.54,0,0,1-2.66-2.54Z" fill="#f0f1f1"/>
    <path id="Trazado_130071" data-name="Trazado 130071" d="M49.5,112.14a10.58,10.58,0,0,1,9.68-7.64,10.87,10.87,0,0,1,11.24,7.62,4.5,4.5,0,0,1-1.84,2.06,13.18,13.18,0,0,1-5.14,2.43,1.26,1.26,0,0,0-.84.38H57.32c-.15-.24-.42-.26-.65-.31a14,14,0,0,1-4.51-2,6.48,6.48,0,0,1-2.66-2.54Z" fill="#f0f1f1"/>
    <path id="Trazado_130072" data-name="Trazado 130072" d="M89.41,112.14a10.57,10.57,0,0,1,9.67-7.64,10.87,10.87,0,0,1,11.24,7.62,4.45,4.45,0,0,1-1.84,2.06,13.18,13.18,0,0,1-5.14,2.43,1.26,1.26,0,0,0-.84.38H97.22c-.15-.24-.42-.26-.65-.31a13.91,13.91,0,0,1-4.5-2,6.42,6.42,0,0,1-2.66-2.54Z" fill="#f0f1f1"/>
    <path id="Trazado_130073" data-name="Trazado 130073" d="M53.37,35.67a18.16,18.16,0,0,1-2-5.39c0-.2-.16-.26-.31-.36-2.08-1.38-2.66-5.61-1-7.47a35.489,35.489,0,0,0,1.06,4.39c0-1.09,0-1.9,0-2.7a2.71,2.71,0,0,1,.3-1.64,3.6,3.6,0,0,0,.46-3.11,6.62,6.62,0,0,1-.1-1.78c0-2.19.51-2.64,2.67-2.69,3.38-.08,6.75.41,10.13.05,2.1-.22,2.93.51,2.87,2.65a8.28,8.28,0,0,0,.74,3.78,11.1,11.1,0,0,1,.6,2.19c.27,1.25,0,2.54.32,3.8.35-1.56.45-3.15.93-4.67a1.27,1.27,0,0,1,.72,1.1,7.8,7.8,0,0,1-.83,5.4c-.19.32-.52.79-.79.8-1,0-1,.8-1.16,1.44-.39,1.19-.83,2.38-1.24,3.57a11.57,11.57,0,0,0-1.65,2c-2,2.33-5.53,3.7-8.76,1.58a20.57,20.57,0,0,1-2.96-2.94Z" fill="#fccf5c"/>
    <path id="Trazado_130074" data-name="Trazado 130074" d="M29.85,84.17a12.82,12.82,0,0,1-3.7-9.36A13.67,13.67,0,0,1,34,62.06a14,14,0,0,1,16.2,2.55c.17.17.36.33.55.49l2,2.88a15,15,0,0,1,1.55,8,12.8,12.8,0,0,1-3.59,8.07,11.82,11.82,0,0,0-4.2-5.54,11,11,0,0,0-16.66,5.66Zm10.4-19.35a4.52,4.52,0,1,0,4.57,4.57A4.62,4.62,0,0,0,40.25,64.82Z" fill="#fdcf5d"/>
    <path id="Trazado_130075" data-name="Trazado 130075" d="M69.64,64.61c.51,0,.78-.44,1.12-.71,4.46-3.55,9.41-4.38,14.62-2.18A14.13,14.13,0,0,1,91.1,83.31c-.22.3-.38.69-.81.78A10.94,10.94,0,0,0,76.87,77a10.61,10.61,0,0,0-7.48,7.1,12.71,12.71,0,0,1-3.6-8,14.89,14.89,0,0,1,1.9-8.68,12.69,12.69,0,0,0,1.95-2.81Zm10.21.21a4.52,4.52,0,1,0,4.51,4.42A4.64,4.64,0,0,0,79.85,64.82Z" fill="#67c5b8"/>
    <path id="Trazado_130076" data-name="Trazado 130076" d="M110.36,112.15a11,11,0,0,0-20.7-.77c-.09.23-.19.45-.34.8A13.55,13.55,0,0,1,86.07,106a16.12,16.12,0,0,1,.24-7.5l1.51-3.19A14.83,14.83,0,0,1,96.75,89,14.16,14.16,0,0,1,114,102.28a14,14,0,0,1-2.82,9.06C110.94,111.65,110.76,112,110.36,112.15Zm-15-14.66A4.63,4.63,0,0,0,99.93,102a4.68,4.68,0,0,0,4.46-4.59,4.51,4.51,0,1,0-9,.12Z" fill="#fdcf5d"/>
    <path id="Trazado_130077" data-name="Trazado 130077" d="M29.85,84.17a11,11,0,0,1,16.74-5.62,11.82,11.82,0,0,1,4.2,5.54,1.14,1.14,0,0,1-.51,1,16.21,16.21,0,0,1-4.11,2.79,27.67,27.67,0,0,1-4,1.24,28.06,28.06,0,0,0-3.78.07c-1.11-.38-2.23-.73-3.33-1.14a15.21,15.21,0,0,1-4.65-3,1.17,1.17,0,0,1-.56-.88Z" fill="#f0f1f1"/>
    <path id="Trazado_130078" data-name="Trazado 130078" d="M69.39,84.09A10.61,10.61,0,0,1,76.87,77a10.94,10.94,0,0,1,13.42,7.1c-.1,1-.93,1.46-1.59,2a13.53,13.53,0,0,1-6.46,2.84.54.54,0,0,0-.42.27A28.06,28.06,0,0,0,78,89.1a23.82,23.82,0,0,1-5.16-1.95,8.74,8.74,0,0,1-3.45-3.06Z" fill="#f0f1f1"/>
    <path id="Trazado_130079" data-name="Trazado 130079" d="M72.09,40.53c2.35,1.53,4.86,2.79,7.32,4.12a4,4,0,0,1,2.11,2.84c.61,2.95,1.19,5.91,1.78,8.87.08.43.26.86-.54.86H70.23a34.91,34.91,0,0,0,1.91-11.33,29.2,29.2,0,0,0-.38-4.27C71.69,41.21,71.45,40.7,72.09,40.53Z" fill="#354a5e"/>
    <path id="Trazado_130080" data-name="Trazado 130080" d="M53.79,57.22c-1.25.45-2.54.14-3.82.17a4.4,4.4,0,0,1-2.56-.22A3.82,3.82,0,0,0,47,55.55c-.9-2.42-1.72-4.86-2.45-7.34a.93.93,0,0,1,.61-1.31c.64-.29,1.26-.62,1.89-.93s.8-.62.11-1-.61-.91-.38-1.6c.35-1.08,1.26-1.85,1.45-3a7.13,7.13,0,0,0,2.46-2A6.56,6.56,0,0,1,53,36.39c-1,3.53-.27,6.88-.09,10.24C53.08,50.17,53.32,53.7,53.79,57.22Z" fill="#425b6b"/>
    <path id="Trazado_130081" data-name="Trazado 130081" d="M70.06,22.72c-.48,1.52-.58,3.11-.93,4.67-.3-1.26,0-2.55-.32-3.8a11.1,11.1,0,0,0-.6-2.19,8.28,8.28,0,0,1-.74-3.78c.06-2.14-.77-2.87-2.87-2.65-3.38.36-6.75-.13-10.13-.05-2.16.05-2.63.5-2.67,2.69a6.62,6.62,0,0,0,.1,1.78,3.6,3.6,0,0,1-.46,3.11,2.71,2.71,0,0,0-.3,1.64v2.7a35.489,35.489,0,0,1-1.06-4.39c-.54-2.87-.57-5.73,1.1-8.25a11,11,0,0,1,9.31-5.32c3.72,0,6.25,2.25,8,5.39a13.71,13.71,0,0,1,1.57,8.45Z" fill="#384d60"/>
    <path id="Trazado_130082" data-name="Trazado 130082" d="M48.25,40.36c-.19,1.14-1.1,1.91-1.45,3-.23.69-.33,1.18.38,1.6s.47.74-.11,1-1.25.64-1.89.93a.93.93,0,0,0-.61,1.31c.73,2.48,1.55,4.92,2.45,7.34a3.82,3.82,0,0,1,.39,1.62H37.49c-.66,0-.76-.21-.64-.78.63-3,1.22-6.06,1.85-9.08a3.75,3.75,0,0,1,1.91-2.63c2.29-1.31,4.54-2.69,6.81-4C47.67,40.55,47.88,40.25,48.25,40.36Z" fill="#354a5e"/>
    <path id="Trazado_130083" data-name="Trazado 130083" d="M72.09,40.53c-.64.17-.4.68-.33,1a29.2,29.2,0,0,1,.38,4.27,34.91,34.91,0,0,1-1.91,11.33H66.66a13.182,13.182,0,0,1,.08-1.78c.22-2.93.45-5.86.67-8.78.22-3.45,1-6.89.06-10.35a1.35,1.35,0,0,1,1.26.75C69.67,38.38,71.11,39.23,72.09,40.53Z" fill="#425b6b"/>
    <path id="Trazado_130084" data-name="Trazado 130084" d="M69.64,64.61a12.69,12.69,0,0,1-2,2.75c-2.21-2.17-4.42-4.32-6.61-6.51-.42-.42-.66-.43-1.08,0-2.38,2.39-4.78,4.76-7.17,7.13l-2-2.88,7.82-7.87h3.82Q66,60.91,69.64,64.61Z" fill="#384d60"/>
    <path id="Trazado_130085" data-name="Trazado 130085" d="M78,89.1a28.06,28.06,0,0,1,3.78.07l6,6.1-1.51,3.19c-2-2-4-3.9-5.89-5.89-.46-.47-.69-.43-1.13,0-1.87,2-3.79,3.86-5.7,5.78l-1.5-3.16Z" fill="#384d60"/>
    <path id="Trazado_130086" data-name="Trazado 130086" d="M38.35,89.17a28.06,28.06,0,0,1,3.78-.07l5.95,6.11-1.5,3.16c-1.83-1.84-3.68-3.66-5.47-5.55-.59-.62-.91-.76-1.58,0-1.83,1.94-3.76,3.78-5.65,5.66-.5-1.06-1-2.13-1.51-3.2Z" fill="#384d60"/>
    <path id="Trazado_130087" data-name="Trazado 130087" d="M53.79,57.22c-.47-3.52-.71-7-.87-10.59,1.16-.13,1.74-1.13,2.62-1.7.31-.19.49-.59.91-.63a10.17,10.17,0,0,0,2.74,3.4l-3.1,9.48Z" fill="#ccd3dd"/>
    <path id="Trazado_130088" data-name="Trazado 130088" d="M56.09,57.18q1.56-4.74,3.1-9.48h2.73c.07.31.12.62.2.93l2.17,8.56-1.87.06H58.6Z" fill="#ee5641"/>
    <path id="Trazado_130089" data-name="Trazado 130089" d="M64.29,57.18l-2.17-8.56c-.08-.31-.13-.62-.2-.93a6.24,6.24,0,0,0,2.44-2.95,7.061,7.061,0,0,0,.76.69c.72.47,1.25,1.33,2.29,1.2-.22,2.92-.45,5.85-.67,8.78,0,.59-.06,1.18-.08,1.78Z" fill="#ccd3dd"/>
    <path id="Trazado_130090" data-name="Trazado 130090" d="M53.37,35.67a20.57,20.57,0,0,0,3,2.92c3.23,2.12,6.71.75,8.76-1.58a11.571,11.571,0,0,1,1.65-2l.12,1c-.08.15-.24.32-.22.46.17,1.33-.6,2.16-1.49,3-.74.65-1.42,1.36-2.18,2s-1.17,1.3-2,1.59a5.71,5.71,0,0,1-1.93.17c-1.41-1.31-2.8-2.65-4.24-3.92a3.83,3.83,0,0,1-1.47-3.64Z" fill="#f4b54e"/>
    <path id="Trazado_130091" data-name="Trazado 130091" d="M61,43.06a6.371,6.371,0,0,0,2-1.59c.63-.54,1.44-1.33,2.18-2a3.313,3.313,0,0,0,1.49-3c0-.14.14-.31.22-.46l.41.2h.18c1,3.46.16,6.9-.06,10.35-1,.13-1.57-.73-2.29-1.2a7.06,7.06,0,0,1-.76-.69C63.42,43.77,62,43.7,61,43.06Z" fill="#f1f1ef"/>
    <path id="Trazado_130092" data-name="Trazado 130092" d="M61,43.06c1.09.64,2.47.71,3.41,1.68a6.24,6.24,0,0,1-2.44,2.95H59.19a10.17,10.17,0,0,1-2.74-3.4A7.66,7.66,0,0,1,59,43.23a5.71,5.71,0,0,0,2-.17Z" fill="#f1715b"/>
    <path id="Trazado_130093" data-name="Trazado 130093" d="M67.49,36.29h-.2l.14-.12Z" fill="#425b6b"/>
    <path id="Trazado_130094" data-name="Trazado 130094" d="M46.58,98.37l1.5-3.16c.22-.28.44-.55.65-.83a14.11,14.11,0,0,1,15.1-5.2,14.7,14.7,0,0,1,8.26,6l1.5,3.16a14.83,14.83,0,0,1-.37,9.71,13.47,13.47,0,0,1-2.54,4.09c-2-4.8-5.39-7.69-10.57-7.71s-8.71,2.7-10.59,7.7a11.88,11.88,0,0,1-2.54-4,14.75,14.75,0,0,1-.4-9.76Zm18-.87a4.43,4.43,0,1,1-.04,0Z" fill="#f1715b"/>
    <path id="Trazado_130095" data-name="Trazado 130095" d="M24.8,97.49a4.51,4.51,0,1,1-4.45-4.57,4.64,4.64,0,0,1,4.45,4.57Z" fill="#f0f1f1"/>
    <path id="Trazado_130096" data-name="Trazado 130096" d="M40.25,64.82a4.52,4.52,0,1,1-4.45,4.56A4.63,4.63,0,0,1,40.25,64.82Z" fill="#f1f1ef"/>
    <path id="Trazado_130097" data-name="Trazado 130097" d="M79.85,64.82a4.52,4.52,0,1,1-4.5,4.55,4.62,4.62,0,0,1,4.5-4.55Z" fill="#f0f1f1"/>
    <path id="Trazado_130098" data-name="Trazado 130098" d="M95.38,97.49a4.51,4.51,0,1,1,9-.12A4.68,4.68,0,0,1,99.93,102a4.63,4.63,0,0,1-4.55-4.51Z" fill="#f1f1ef"/>
    <path id="Trazado_130099" data-name="Trazado 130099" d="M64.54,97.5a4.48,4.48,0,1,1-1.255-3.2,4.46,4.46,0,0,1,1.255,3.2Z" fill="#f1f1ef"/>
  </g>
</svg>
