<svg id="Capa_1" data-name="Capa 1" xmlns="http://www.w3.org/2000/svg" width="200" height="200.022" viewBox="0 0 200 200.022">
  <rect id="Rectángulo_35811" data-name="Rectángulo 35811" width="200" height="200" fill="none"/>
  <g id="Grupo_83107" data-name="Grupo 83107">
    <path id="Trazado_135740" data-name="Trazado 135740" d="M50.12,30a18,18,0,0,0-.28,2.18,10.84,10.84,0,0,0,1.37,5.72c.58,1.13,1.32,2.31,1.9,3.72a8.14,8.14,0,0,1,.49,4.78A8.55,8.55,0,0,1,51,51a7.87,7.87,0,0,1-5.31,2A8.155,8.155,0,0,1,37.9,41.8a15.91,15.91,0,0,1,2.22-3.56,14.18,14.18,0,0,0,1.8-2.86A6.34,6.34,0,0,0,42.5,33a4.52,4.52,0,0,0-.49-2.1,1.8,1.8,0,0,1,.3.49A3.87,3.87,0,0,1,42.67,33a6.41,6.41,0,0,1-.52,2.56,14.61,14.61,0,0,1-1.78,3A15.4,15.4,0,0,0,38.24,42a7.77,7.77,0,0,0,7.45,10.63,7.53,7.53,0,0,0,5-1.91,8.29,8.29,0,0,0,2.48-4.4,7.73,7.73,0,0,0-.43-4.57c-.54-1.37-1.27-2.56-1.83-3.71a10.69,10.69,0,0,1-1.27-5.87,8.24,8.24,0,0,1,.27-1.62,1.78,1.78,0,0,1,.21-.55Z" fill="#e1e1e1"/>
    <path id="Trazado_135741" data-name="Trazado 135741" d="M47.07,30.77s-.07.55-.22,1.55a41.732,41.732,0,0,0-.43,4.23,34.74,34.74,0,0,0,.28,6.26,1.4,1.4,0,0,0,.34.7.71.71,0,0,0,.64.23c.45-.1.7-.79.61-1.33a2.7,2.7,0,0,0-2.57-2.25,2.67,2.67,0,0,0-2.62,2.17,1.16,1.16,0,0,0,.69,1.32A1,1,0,0,0,45,43a5.23,5.23,0,0,0,.28-1.64c0-.56.06-1.1.07-1.63a23.126,23.126,0,0,0-.12-2.92,28.93,28.93,0,0,0-.71-4.19c-.24-1-.4-1.51-.37-1.52a1.56,1.56,0,0,1,.17.38c.09.24.22.61.36,1.1a24.431,24.431,0,0,1,.86,4.19,26.859,26.859,0,0,1,.17,3c0,.54,0,1.09-.05,1.65a5.22,5.22,0,0,1-.29,1.78,1.79,1.79,0,0,1-.64.78,1.25,1.25,0,0,1-1.07.15,1.59,1.59,0,0,1-1-1.77,3.06,3.06,0,0,1,6,.06,1.92,1.92,0,0,1-.13,1.06,1.18,1.18,0,0,1-.81.75,1.11,1.11,0,0,1-1-.36,1.81,1.81,0,0,1-.44-.9,32.67,32.67,0,0,1-.19-6.36,33.509,33.509,0,0,1,.57-4.24c.1-.5.19-.88.26-1.14A1.49,1.49,0,0,1,47.07,30.77Z" fill="#e1e1e1"/>
    <g id="Grupo_83106" data-name="Grupo 83106">
      <path id="Trazado_135742" data-name="Trazado 135742" d="M40.75,22.05,3.89,34.43H87.17L52.56,22.05Z" fill="#1a2e35"/>
      <path id="Trazado_135743" data-name="Trazado 135743" d="M46.88,0c0,8.62,0,6.45-.06,12.15,0,2.8,0,5.07-.07,6.7v1.83a3.15,3.15,0,0,1-.05.63,3.91,3.91,0,0,1,0-.63V18.85c0-1.63,0-3.9-.07-6.7,0-5.7,0-3.53-.07-12.15" fill="#1a2e35"/>
      <path id="Trazado_135744" data-name="Trazado 135744" d="M40.75,22.05l2.28-10.23h7.6l1.93,10.23Z" fill="#1a2e35"/>
    </g>
  </g>
  <g id="Grupo_83121" data-name="Grupo 83121">
    <g id="Grupo_83109" data-name="Grupo 83109">
      <g id="Grupo_83108" data-name="Grupo 83108">
        <path id="Trazado_135745" data-name="Trazado 135745" d="M136.52,102.6l-7.28-2.69-27.85-.82-6.47,1.76.85,15.75,14.62,9.32,14.17-.28,8.92-8.12,1.97-8.05Z" fill="#a26760"/>
        <path id="Trazado_135746" data-name="Trazado 135746" d="M53.91,126.73a95,95,0,0,1,5.83-10.42,24.09,24.09,0,0,1,15-10.56L98.1,99.42s1.59,15.76,17.66,15.76,16.4-14.6,16.4-14.6l29.42,10.76c.93.36,7.2,2.53,14.5,18.18,6.95,14.9,10,22.53,10,22.53l-27.75,7.46-1.85,25.63.59,14.31-84.55-.19L73,182.91l-.39-27-1.77,3.34-26.4-10.59a211.142,211.142,0,0,1,9.47-21.93Z" fill="#32c4b4"/>
      </g>
      <path id="Trazado_135747" data-name="Trazado 135747" d="M72.21,141.87c-.12,0,0,9.06.17,20.23s.49,20.23.62,20.23,0-9.06-.17-20.24S72.33,141.87,72.21,141.87Z" fill="#1a2e35"/>
    </g>
    <g id="Grupo_83110" data-name="Grupo 83110" opacity="0.3">
      <path id="Trazado_135748" data-name="Trazado 135748" d="M154.58,144.51c-1.32-1.44-3.35-1.93-5.27-2.32-21.75-4.46-44.19-2.58-66.23.18-2.73.34-5.75.92-7.4,3.13-1.19,1.59-.43,3.71-.54,5.7-.58,10.21.76,21.09,2.78,31.13L153,181.12c2.57-7.78,3.2-21,3.24-29.94C156.24,148.83,156.16,146.24,154.58,144.51Z"/>
    </g>
    <path id="Trazado_135749" data-name="Trazado 135749" d="M159.47,132.72a2.79,2.79,0,0,1,0,.38v1.1c0,1,0,2.34-.07,4.05-.09,3.42-.27,8.13-.55,13.34s-.63,9.92-.9,13.32c-.14,1.67-.26,3-.35,4a8.809,8.809,0,0,1-.11,1.1,2,2,0,0,1-.06.38,2.391,2.391,0,0,1,0-.39,7.886,7.886,0,0,1,.06-1.1c.06-1,.14-2.36.24-4,.21-3.44.49-8.13.8-13.32s.51-9.91.65-13.33c.07-1.67.13-3,.17-4l.06-1.1A1.472,1.472,0,0,1,159.47,132.72Z" fill="#1a2e35"/>
    <g id="Grupo_83113" data-name="Grupo 83113">
      <path id="Trazado_135750" data-name="Trazado 135750" d="M85.89,66.42a12.79,12.79,0,0,0-1.83,7.19c0,2.47,1.7,7.5,6.1,7.75C89,88.44,93.52,93.68,101.07,93.69s16.19-12.94,23.19-15.78l20.3-5.37c1.78-.41,2.52-2.58,2.48-4.41s-.5-3.74.15-5.45c.88-2.35,3.6-3.6,4.53-5.94,1.06-2.65-.58-5.59-2.46-7.74s-4.19-4.18-4.78-7c-.55-2.56.43-5.46-.85-7.75-1.58-2.81-5.71-3.17-7.63-5.76-.92-1.26-1.21-2.9-2.13-4.17-1.57-2.15-4.58-2.72-7.23-2.43s-5.19,1.25-7.85,1.44c-3.65.27-7.41-.91-10.91.15-3.86,1.16-6.21,4.59-8.72,7.9L95.9,35.26A14.869,14.869,0,0,1,93.72,37a25.271,25.271,0,0,0-4.13,2.65A6.45,6.45,0,0,0,90,49a6.91,6.91,0,0,0-4.64,6.78s-.36,3.36,1.78,4.86A4.64,4.64,0,0,0,85.89,66.42Z" fill="#1a2e35"/>
      <g id="Grupo_83112" data-name="Grupo 83112">
        <g id="Grupo_83111" data-name="Grupo 83111">
          <path id="Trazado_135751" data-name="Trazado 135751" d="M99.5,73.3a93.2,93.2,0,0,1-4.09-15.7,32.86,32.86,0,0,1,1.28-16c.29-.77,2.73-5.93,3.55-5.85.58.06-.92,4.87-.63,5.38,2.82,4.84,3.59,10.66,3.14,16.24a73.9,73.9,0,0,1-3.25,16" fill="#1a2e35"/>
          <path id="Trazado_135752" data-name="Trazado 135752" d="M114.17,113.72c-8.39-.17-14.48-13.94-14.48-13.94l-.55-47.14c-.44-13.58,7.09-25.15,20.67-25.21l1.26.06a24.28,24.28,0,0,1,23,23.59c.32,11.77.52,24.77.11,31.06-.86,13-14,14.33-14,14.33s-.07,3-.11,6.84c-.09,8.59-12.51,10.71-15.88,10.41Z" fill="#a26760"/>
          <path id="Trazado_135753" data-name="Trazado 135753" d="M130,96.47a31.51,31.51,0,0,1-16.68-5.92s3.62,9.68,16.67,9.21Z" fill="#7b4b45"/>
          <path id="Trazado_135754" data-name="Trazado 135754" d="M137.25,62.23A1.85,1.85,0,0,1,135.36,64a1.78,1.78,0,0,1-1.82-1.78,1.85,1.85,0,0,1,1.89-1.78,1.78,1.78,0,0,1,1.82,1.79Z" fill="#1a2e35"/>
          <path id="Trazado_135755" data-name="Trazado 135755" d="M140.8,56.33c-.25.23-1.6-.88-3.6-1s-3.52.82-3.72.57.16-.54.82-1a5,5,0,0,1,3-.75,4.83,4.83,0,0,1,2.84,1.09C140.73,55.78,140.92,56.23,140.8,56.33Z" fill="#1a2e35"/>
          <path id="Trazado_135756" data-name="Trazado 135756" d="M119.37,61.75a1.85,1.85,0,0,1-1.89,1.78,1.78,1.78,0,0,1-1.83-1.78A1.87,1.87,0,0,1,117.54,60a1.78,1.78,0,0,1,1.83,1.75Z" fill="#1a2e35"/>
          <path id="Trazado_135757" data-name="Trazado 135757" d="M121.16,56.09c-.24.23-1.59-.89-3.59-1s-3.52.82-3.72.57.15-.54.82-1a5.1,5.1,0,0,1,3-.76,4.9,4.9,0,0,1,2.85,1.1C121.1,55.54,121.28,56,121.16,56.09Z" fill="#1a2e35"/>
          <path id="Trazado_135758" data-name="Trazado 135758" d="M127.51,71.84a13.74,13.74,0,0,1,3.28-.41c.52,0,1-.1,1.11-.44a2.59,2.59,0,0,0-.26-1.54c-.41-1.26-.85-2.58-1.3-4-1.8-5.64-3.08-10.28-2.85-10.35s1.88,4.45,3.68,10.1l1.23,4a3,3,0,0,1,.16,2,1.3,1.3,0,0,1-.88.7,3.46,3.46,0,0,1-.87.07,12.34,12.34,0,0,1-3.3-.13Z" fill="#1a2e35"/>
          <path id="Trazado_135759" data-name="Trazado 135759" d="M121.55,72.91c.33,0,.22,2.17,2,3.81s4.1,1.53,4.1,1.83c0,.14-.53.39-1.51.37a5.4,5.4,0,0,1-3.43-1.41,4.73,4.73,0,0,1-1.53-3.18C121.14,73.41,121.41,72.89,121.55,72.91Z" fill="#1a2e35"/>
          <path id="Trazado_135760" data-name="Trazado 135760" d="M121.49,48c-.23.53-2.21.17-4.57.33s-4.29.69-4.58.19c-.13-.24.23-.74,1-1.22a8,8,0,0,1,7-.4C121.18,47.27,121.59,47.72,121.49,48Z" fill="#1a2e35"/>
          <path id="Trazado_135761" data-name="Trazado 135761" d="M140.33,49.64c-.38.44-1.73-.11-3.39-.22s-3.07.14-3.37-.35c-.13-.24.12-.68.75-1.08a4.71,4.71,0,0,1,2.79-.6,4.8,4.8,0,0,1,2.66,1.06C140.33,49,140.49,49.43,140.33,49.64Z" fill="#1a2e35"/>
          <path id="Trazado_135762" data-name="Trazado 135762" d="M99.51,62.33c-.22-.11-8.8-3.12-9,5.79s8.79,7.26,8.81,7S99.51,62.33,99.51,62.33Z" fill="#a26760"/>
          <path id="Trazado_135763" data-name="Trazado 135763" d="M96.68,71.69a2.132,2.132,0,0,1-.42.22,1.48,1.48,0,0,1-1.16,0c-.93-.36-1.69-1.88-1.7-3.48a5.13,5.13,0,0,1,.48-2.22,1.8,1.8,0,0,1,1.19-1.16.79.79,0,0,1,.91.44c.11.25,0,.43.1.45s.2-.15.13-.52a1,1,0,0,0-.34-.56,1.15,1.15,0,0,0-.85-.25A2.16,2.16,0,0,0,93.37,66a5.21,5.21,0,0,0-.59,2.47c0,1.8.9,3.5,2.18,3.9a1.62,1.62,0,0,0,1.42-.21C96.66,71.91,96.71,71.71,96.68,71.69Z" fill="#7b4b45"/>
          <path id="Trazado_135764" data-name="Trazado 135764" d="M138.29,36.24c1.45-.78-2.82-5.5-6.34-7.16-5.33-2.5-13.49-4.1-18.45-2.76-6,1.61-11,4.51-14,9.88a35.08,35.08,0,0,0-4.17,17.85,10.62,10.62,0,0,0,1.19,5.46c1.22,2,3.59,3.26,3.45,6a3.74,3.74,0,0,0,.89,2.73c1.61,1.76,3.63.15,4.57-1.47,2-3.47,2.27-7.63,2.5-11.63a26.19,26.19,0,0,0-.46-8.48c-.42-1.49-1.1-2.91-1.43-4.42a5.31,5.31,0,0,1,.69-4.44,5,5,0,0,1,.73-.72,9.29,9.29,0,0,1,9.24-1.64c5,1.84,13.54,4.6,15.8,2.93,3.25-2.41,4-4,4-4Z" fill="#1a2e35"/>
        </g>
        <path id="Trazado_135765" data-name="Trazado 135765" d="M114,25.12a19.59,19.59,0,0,1,15,1,10.21,10.21,0,0,1,5.3,6c.71,2.65-.46,5.88-3,6.89l-.18.1c-3.82,1.23-6.28.69-10.06-.67-3.17-1.14-6-3.15-9.17-4.28a18.08,18.08,0,0,0-10.6-.44A29.53,29.53,0,0,1,114,25.12Z" fill="#1a2e35"/>
      </g>
      <path id="Trazado_135766" data-name="Trazado 135766" d="M97,33.93c.08.07.8-.79,2.25-1.79a12.53,12.53,0,0,1,2.7-1.45,8.29,8.29,0,0,1,3.63-.6,12.11,12.11,0,0,1,6.21,2.56c1.38,1.09,2,2,2.1,1.94s-.09-.27-.39-.68a9.34,9.34,0,0,0-1.44-1.59,11.52,11.52,0,0,0-6.44-2.83,8.45,8.45,0,0,0-3.87.69A11.54,11.54,0,0,0,99,31.8a6.81,6.81,0,0,0-2,2.13Z" fill="#375a64"/>
      <path id="Trazado_135767" data-name="Trazado 135767" d="M124.19,24.3a23.469,23.469,0,0,0,2.36.89,19.41,19.41,0,0,1,9.15,7.54,22.676,22.676,0,0,0,1.3,2.14,7,7,0,0,0-1-2.36,16.88,16.88,0,0,0-9.36-7.71,7,7,0,0,0-2.45-.5Z" fill="#375a64"/>
    </g>
    <path id="Trazado_135768" data-name="Trazado 135768" d="M87.21,56.52a7.555,7.555,0,0,0,.87.29,6.1,6.1,0,0,0,2.44.17A10.1,10.1,0,0,0,94,55.83c1.24-.64,2.51-1.52,3.91-2.34a11.92,11.92,0,0,1,4.29-1.62,5.54,5.54,0,0,1,3.66.68,4.26,4.26,0,0,1,1.75,1.84,2.46,2.46,0,0,1,.24.66.72.72,0,0,1,0,.24,4.263,4.263,0,0,0-.38-.85,4.37,4.37,0,0,0-1.75-1.69,5.43,5.43,0,0,0-3.51-.59,12,12,0,0,0-4.17,1.61c-1.39.81-2.68,1.69-3.94,2.32a9.82,9.82,0,0,1-3.57,1.12,5.89,5.89,0,0,1-2.5-.28,3.26,3.26,0,0,1-.63-.28A.57.57,0,0,1,87.21,56.52Z" fill="#375a64"/>
    <path id="Trazado_135769" data-name="Trazado 135769" d="M87.77,60.49a9.67,9.67,0,0,0,3,.18,14,14,0,0,0,3.13-.74c1.16-.4,2.4-.94,3.74-1.42a13.23,13.23,0,0,1,3.93-.87,7.38,7.38,0,0,1,3.24.62,5.18,5.18,0,0,1,1.79,1.34,3.16,3.16,0,0,1,.34.51c.07.12.1.19.09.19s-.17-.23-.53-.61a5.25,5.25,0,0,0-1.78-1.22,7.31,7.31,0,0,0-3.14-.53,13.48,13.48,0,0,0-3.83.87c-1.33.48-2.58,1-3.76,1.4a13.569,13.569,0,0,1-3.21.69,7.36,7.36,0,0,1-2.2-.14,4.141,4.141,0,0,1-.58-.18C87.83,60.53,87.76,60.5,87.77,60.49Z" fill="#375a64"/>
    <path id="Trazado_135770" data-name="Trazado 135770" d="M148.31,52.46a1.559,1.559,0,0,1-.3.78,4.45,4.45,0,0,1-1.39,1.45,4.65,4.65,0,0,1-1.89.7,3,3,0,0,1-.83,0,8,8,0,0,0,2.54-.93A7.72,7.72,0,0,0,148.31,52.46Z" fill="#375a64"/>
    <path id="Trazado_135771" data-name="Trazado 135771" d="M150.45,57.14a3,3,0,0,1-.44,1.15,6.33,6.33,0,0,1-4.88,3.12,2.74,2.74,0,0,1-1.23-.09,7.581,7.581,0,0,0,1.2-.13,7,7,0,0,0,2.67-1,7.12,7.12,0,0,0,2-2,8.848,8.848,0,0,1,.68-1.05Z" fill="#375a64"/>
    <g id="Grupo_83114" data-name="Grupo 83114">
      <path id="Trazado_135772" data-name="Trazado 135772" d="M183.67,152.74,195,175.49a16.49,16.49,0,0,1,1.72,8.19h0a16.57,16.57,0,0,1-16.55,15.77l-32.49-1.88-1.42-14.82,24.72-6-9.58-18.11Z" fill="#a26760"/>
      <path id="Trazado_135773" data-name="Trazado 135773" d="M171,176.79c0,.1,1.12-.09,2.91-.08a22.7,22.7,0,0,1,6.86,1.21,21,21,0,0,1,6.13,3.26,24.857,24.857,0,0,1,2.15,2c.08,0-.11-.26-.41-.68a11.431,11.431,0,0,0-1.48-1.59,18.55,18.55,0,0,0-6.21-3.48,19.53,19.53,0,0,0-7-1.07,13.13,13.13,0,0,0-2.15.25C171.24,176.67,171,176.75,171,176.79Z" fill="#7b4b45"/>
    </g>
    <g id="Grupo_83115" data-name="Grupo 83115">
      <path id="Trazado_135774" data-name="Trazado 135774" d="M44.88,148.83s-6.1,17-13.76,36a7.13,7.13,0,0,0-.37,1.19c-1.15,5.12,2.75,13.76,8,13.76l44-.43V185l-25.37-5.56,9.79-21.65Z" fill="#a26760"/>
      <path id="Trazado_135775" data-name="Trazado 135775" d="M37.66,183.35c.06.08.93-.61,2.46-1.48a23.21,23.21,0,0,1,6.38-2.5,23.48,23.48,0,0,1,6.84-.5c1.76.14,2.84.38,2.86.29s-.25-.13-.73-.27a13.7,13.7,0,0,0-2.09-.41,20.4,20.4,0,0,0-13.47,3.05,14.84,14.84,0,0,0-1.71,1.27C37.83,183.13,37.63,183.33,37.66,183.35Z" fill="#7b4b45"/>
    </g>
    <g id="Grupo_83118" data-name="Grupo 83118">
      <g id="Grupo_83116" data-name="Grupo 83116">
        <path id="Trazado_135776" data-name="Trazado 135776" d="M152.62,181.88h-6.36S131.9,176.7,129,177.19c-2.65.45-12.39,6.92-14.29,8.19a1.27,1.27,0,0,0-.46.59h0a2.07,2.07,0,0,0,1.16,2.65l.2.09-.09.29a3.19,3.19,0,0,0-.14,1.16,1.4,1.4,0,0,0,2.6.6l-.36.66a1.63,1.63,0,0,0-.21.87v.59a1.58,1.58,0,0,0,1.09,1.43h0a1.6,1.6,0,0,0,1.67-.44c1.24-1.36,3.91-4.08,5.71-4.38a42.883,42.883,0,0,1,5.89-.29,2,2,0,0,1,1.85,1.27h0c-1.07.08-8.53,4-11.17,5.36a2.84,2.84,0,0,0-1.53,2.12c-.1.83.32,1.7,2,1.31a70.828,70.828,0,0,0,9.82-3.72s3.26-.93,5.36.56c3,2.1,4.33,2.86,6.88,2a21.89,21.89,0,0,0,4.42-2.06l5-.5S159.1,183.7,152.62,181.88Z" fill="#a26760"/>
        <path id="Trazado_135777" data-name="Trazado 135777" d="M133.66,184.31a25.759,25.759,0,0,0-2.69-.38,14,14,0,0,0-11.6,4.95c-1.09,1.29-1.55,2.24-1.6,2.21a3.359,3.359,0,0,1,.32-.66,12.282,12.282,0,0,1,1.13-1.67,13.51,13.51,0,0,1,11.76-5,12.321,12.321,0,0,1,2,.34,2.69,2.69,0,0,1,.68.21Z" fill="#7b4b45"/>
        <path id="Trazado_135778" data-name="Trazado 135778" d="M132.14,180.82a12.111,12.111,0,0,0-2.8-.49,12.35,12.35,0,0,0-6.53,1.85,26.3,26.3,0,0,0-5.26,4.45l-1.44,1.53a4.379,4.379,0,0,1-.55.55,3.72,3.72,0,0,1,.47-.62c.32-.38.78-.93,1.38-1.59a24.239,24.239,0,0,1,5.26-4.55,12,12,0,0,1,6.68-1.81,8.44,8.44,0,0,1,2.08.38,5.174,5.174,0,0,1,.54.21C132.09,180.78,132.15,180.81,132.14,180.82Z" fill="#7b4b45"/>
      </g>
      <g id="Grupo_83117" data-name="Grupo 83117">
        <path id="Trazado_135779" data-name="Trazado 135779" d="M73.43,182.33h6.36s14.35-5.18,17.31-4.69c2.65.45,12.38,6.91,14.29,8.19a1.27,1.27,0,0,1,.46.59h0a2.08,2.08,0,0,1-1.16,2.65l-.2.09.09.29a3.39,3.39,0,0,1,.14,1.16,1.4,1.4,0,0,1-2.6.6l.36.66a1.63,1.63,0,0,1,.21.87v.59a1.59,1.59,0,0,1-1.1,1.43h0a1.61,1.61,0,0,1-1.67-.44c-1.23-1.36-3.9-4.08-5.7-4.38a43,43,0,0,0-5.89-.29,2,2,0,0,0-1.85,1.27h0c1.07.08,8.53,4,11.16,5.36a2.83,2.83,0,0,1,1.54,2.12c.1.83-.32,1.7-2,1.31A72.448,72.448,0,0,1,93.37,196s-3.26-.93-5.37.56c-3,2.09-4.32,2.86-6.87,2a21.89,21.89,0,0,1-4.42-2.06l-5-.5S66.94,184.15,73.43,182.33Z" fill="#a26760"/>
        <path id="Trazado_135780" data-name="Trazado 135780" d="M92.38,184.76a26.866,26.866,0,0,1,2.7-.38,14,14,0,0,1,11.6,5c1.08,1.29,1.55,2.24,1.6,2.21a3.571,3.571,0,0,0-.32-.67,13,13,0,0,0-1.13-1.66,13.51,13.51,0,0,0-11.76-5,12.688,12.688,0,0,0-2,.34,3.13,3.13,0,0,0-.69.16Z" fill="#7b4b45"/>
        <path id="Trazado_135781" data-name="Trazado 135781" d="M93.9,181.27a12.45,12.45,0,0,1,2.81-.49,12.28,12.28,0,0,1,6.53,1.85,26.59,26.59,0,0,1,5.26,4.45l1.44,1.53a5.515,5.515,0,0,0,.55.55,4,4,0,0,0-.47-.62c-.32-.38-.79-.93-1.38-1.59a24.49,24.49,0,0,0-5.26-4.55,12,12,0,0,0-6.68-1.81,8.44,8.44,0,0,0-2.08.38,4.4,4.4,0,0,0-.54.21A.6.6,0,0,0,93.9,181.27Z" fill="#7b4b45"/>
      </g>
    </g>
    <g id="Grupo_83120" data-name="Grupo 83120">
      <g id="Grupo_83119" data-name="Grupo 83119">
        <path id="Trazado_135782" data-name="Trazado 135782" d="M83.5,199.84h73a3.87,3.87,0,0,0,3.87-3.7l2.19-50.25a3.87,3.87,0,0,0-3.87-4H81.46a3.89,3.89,0,0,0-3.88,4l2,50.25a3.88,3.88,0,0,0,3.92,3.7Z" fill="#4480bf"/>
        <path id="Trazado_135783" data-name="Trazado 135783" d="M83.5,199.84h-.18a2.429,2.429,0,0,1-.53-.05,3.77,3.77,0,0,1-1.87-.89,4,4,0,0,1-1.35-3q-.09-2-.21-4.62c-.29-7-.72-17-1.25-29.46-.13-3.11-.27-6.37-.41-9.76-.07-1.7-.14-3.43-.22-5.2v-1.34a4.21,4.21,0,0,1,.31-1.35,4,4,0,0,1,1.9-2,3.77,3.77,0,0,1,1.36-.41h77.34a4.49,4.49,0,0,1,1.8.27,4.07,4.07,0,0,1,2.42,2.62,4.8,4.8,0,0,1,.15,1.8l-.08,1.74q-.08,1.76-.15,3.48-.3,6.94-.6,13.65c-.39,9-.77,17.58-1.14,25.81,0,1-.09,2.05-.13,3.06l-.07,1.52a5.41,5.41,0,0,1-.2,1.53A3.772,3.772,0,0,1,157,200a14.612,14.612,0,0,1-1.48,0H123.8l-29.48-.06h0l29.48-.05h33.16a4,4,0,0,0,1.34-.43,3.76,3.76,0,0,0,1.76-2.17,4.93,4.93,0,0,0,.18-1.45,11.122,11.122,0,0,1,.07-1.52c0-1,.09-2,.13-3.07.36-8.22.73-16.85,1.12-25.8q.28-6.72.59-13.65l.15-3.48.08-1.75a4.48,4.48,0,0,0-.14-1.68,3.73,3.73,0,0,0-2.21-2.39,4.24,4.24,0,0,0-1.67-.25H81.05a3.78,3.78,0,0,0-3,2.24,3.93,3.93,0,0,0-.3,1.26v1.31q.1,2.66.21,5.19c.14,3.4.26,6.66.39,9.77.48,12.43.87,22.5,1.14,29.46.07,1.74.12,3.29.17,4.63A3.88,3.88,0,0,0,82.79,200,4.719,4.719,0,0,0,83.5,199.84Z" fill="#1a2e35"/>
      </g>
      <path id="Trazado_135784" data-name="Trazado 135784" d="M116.09,171.73a4,4,0,1,0,4-4A4,4,0,0,0,116.09,171.73Z" fill="#fff"/>
    </g>
  </g>
</svg>
