<svg xmlns="http://www.w3.org/2000/svg" xmlns:xlink="http://www.w3.org/1999/xlink" width="1030" height="571.361" viewBox="0 0 1030 571.361">
  <defs>
    <linearGradient id="linear-gradient" x1="11.245" y1="-5.338" x2="10.166" y2="-4.114" gradientUnits="objectBoundingBox">
      <stop offset="0" stop-color="#f8ea43"/>
      <stop offset="0.08" stop-color="#f8eb49"/>
      <stop offset="0.37" stop-color="#f9ec59"/>
      <stop offset="0.6" stop-color="#f9ed5e"/>
      <stop offset="0.72" stop-color="#efe34b"/>
      <stop offset="0.83" stop-color="#e9dc3f"/>
    </linearGradient>
    <linearGradient id="linear-gradient-2" x1="11.422" y1="-5.386" x2="10.343" y2="-4.163" xlink:href="#linear-gradient"/>
    <linearGradient id="linear-gradient-3" x1="11.515" y1="-5.435" x2="10.436" y2="-4.211" xlink:href="#linear-gradient"/>
    <linearGradient id="linear-gradient-4" x1="11.58" y1="-5.384" x2="10.501" y2="-4.16" xlink:href="#linear-gradient"/>
    <linearGradient id="linear-gradient-5" x1="-5.321" y1="2.724" x2="-6.424" y2="3.979" gradientUnits="objectBoundingBox">
      <stop offset="0" stop-color="#68c3ef"/>
      <stop offset="0.02" stop-color="#6bc4ef"/>
      <stop offset="0.24" stop-color="#85cff2"/>
      <stop offset="0.44" stop-color="#95d5f4"/>
      <stop offset="0.6" stop-color="#9ad7f5"/>
      <stop offset="0.62" stop-color="#94d5f4"/>
      <stop offset="0.75" stop-color="#74c8f0"/>
      <stop offset="0.82" stop-color="#68c3ef"/>
    </linearGradient>
    <linearGradient id="linear-gradient-6" x1="-5.411" y1="2.631" x2="-6.514" y2="3.885" xlink:href="#linear-gradient-5"/>
    <linearGradient id="linear-gradient-7" x1="9.592" y1="-4.718" x2="8.691" y2="-3.653" xlink:href="#linear-gradient"/>
    <linearGradient id="linear-gradient-8" x1="-5.404" y1="2.723" x2="-6.507" y2="3.977" xlink:href="#linear-gradient-5"/>
    <linearGradient id="linear-gradient-9" x1="11.493" y1="-5.723" x2="10.413" y2="-4.5" xlink:href="#linear-gradient"/>
    <linearGradient id="linear-gradient-10" x1="11.218" y1="-5.972" x2="10.139" y2="-4.748" xlink:href="#linear-gradient"/>
    <linearGradient id="linear-gradient-11" x1="11.405" y1="-5.962" x2="10.326" y2="-4.738" xlink:href="#linear-gradient"/>
    <linearGradient id="linear-gradient-12" x1="-5.45" y1="2.793" x2="-6.553" y2="4.046" xlink:href="#linear-gradient-5"/>
    <linearGradient id="linear-gradient-13" x1="-5.325" y1="2.67" x2="-6.427" y2="3.924" xlink:href="#linear-gradient-5"/>
    <linearGradient id="linear-gradient-14" x1="1.324" y1="-0.254" x2="0.201" y2="1.013" gradientUnits="objectBoundingBox">
      <stop offset="0" stop-color="#e6a339"/>
      <stop offset="0.6" stop-color="#e5a138"/>
      <stop offset="0.82" stop-color="#de972c"/>
    </linearGradient>
    <linearGradient id="linear-gradient-15" x1="1.328" y1="-0.253" x2="0.205" y2="1.014" xlink:href="#linear-gradient-14"/>
    <linearGradient id="linear-gradient-16" x1="-11.783" y1="5.512" x2="-12.843" y2="6.743" gradientUnits="objectBoundingBox">
      <stop offset="0" stop-color="#4480c0"/>
      <stop offset="0.23" stop-color="#5e8cc7"/>
      <stop offset="0.44" stop-color="#6e93cb"/>
      <stop offset="0.6" stop-color="#7396cc"/>
      <stop offset="0.61" stop-color="#7095cb"/>
      <stop offset="0.75" stop-color="#5086c3"/>
      <stop offset="0.82" stop-color="#4480c0"/>
    </linearGradient>
    <linearGradient id="linear-gradient-17" x1="9.687" y1="-5.277" x2="8.599" y2="-4.043" gradientUnits="objectBoundingBox">
      <stop offset="0" stop-color="#36dbca"/>
      <stop offset="0.06" stop-color="#3edccc"/>
      <stop offset="0.26" stop-color="#58dfd1"/>
      <stop offset="0.45" stop-color="#68e0d4"/>
      <stop offset="0.6" stop-color="#6de1d5"/>
      <stop offset="0.64" stop-color="#62e0d3"/>
      <stop offset="0.76" stop-color="#42dccc"/>
      <stop offset="0.83" stop-color="#36dbca"/>
    </linearGradient>
    <linearGradient id="linear-gradient-18" x1="9.777" y1="-5.078" x2="8.688" y2="-3.844" xlink:href="#linear-gradient-17"/>
    <linearGradient id="linear-gradient-19" x1="9.921" y1="-4.847" x2="8.833" y2="-3.614" xlink:href="#linear-gradient-17"/>
    <linearGradient id="linear-gradient-20" x1="9.858" y1="-4.712" x2="8.77" y2="-3.479" xlink:href="#linear-gradient-17"/>
    <linearGradient id="linear-gradient-21" x1="11.591" y1="-5.223" x2="10.514" y2="-4.001" gradientUnits="objectBoundingBox">
      <stop offset="0" stop-color="#9ad3ea"/>
      <stop offset="0.08" stop-color="#a0d8ee"/>
      <stop offset="0.37" stop-color="#b0e4f9"/>
      <stop offset="0.6" stop-color="#b5e8fd"/>
      <stop offset="0.72" stop-color="#a1d7ed"/>
      <stop offset="0.82" stop-color="#95cce3"/>
    </linearGradient>
    <linearGradient id="linear-gradient-22" x1="11.491" y1="-5.408" x2="10.414" y2="-4.187" xlink:href="#linear-gradient-21"/>
    <linearGradient id="linear-gradient-23" x1="11.738" y1="-5.955" x2="10.661" y2="-4.732" xlink:href="#linear-gradient-21"/>
    <linearGradient id="linear-gradient-24" x1="11.849" y1="-5.19" x2="10.771" y2="-3.968" xlink:href="#linear-gradient-21"/>
    <linearGradient id="linear-gradient-25" x1="11.226" y1="-5.708" x2="10.146" y2="-4.485" xlink:href="#linear-gradient"/>
    <linearGradient id="linear-gradient-26" x1="11.481" y1="-5.526" x2="10.403" y2="-4.304" xlink:href="#linear-gradient-21"/>
    <linearGradient id="linear-gradient-27" x1="11.593" y1="-5.278" x2="10.516" y2="-4.056" xlink:href="#linear-gradient-21"/>
  </defs>
  <g id="Grupo_83011" data-name="Grupo 83011" transform="translate(-285 -7572.738)">
    <g id="Capa_1" data-name="Capa 1" transform="translate(206.93 7530.128)">
      <rect id="Rectángulo_35581" data-name="Rectángulo 35581" width="1030" height="571.361" transform="translate(78.07 42.61)" fill="#276871"/>
      <path id="Trazado_135689" data-name="Trazado 135689" d="M9.333-5.873H3.989v3.637h6.271V0H1.206V-13.508h9.036v2.254H3.989v3.219H9.333Zm5.223-4.166V.547a3.591,3.591,0,0,1-.881,2.584,3.35,3.35,0,0,1-2.542.923A5.452,5.452,0,0,1,9.806,3.9V1.772a5.033,5.033,0,0,0,.844.083q1.215,0,1.215-1.29v-10.6Zm-2.9-2.6a1.32,1.32,0,0,1,.4-.993,1.516,1.516,0,0,1,1.1-.39,1.516,1.516,0,0,1,1.1.39,1.32,1.32,0,0,1,.4.993,1.316,1.316,0,0,1-.413,1,1.523,1.523,0,0,1-1.09.39,1.523,1.523,0,0,1-1.09-.39A1.316,1.316,0,0,1,11.652-12.636ZM21.273.186a4.928,4.928,0,0,1-3.595-1.354,4.815,4.815,0,0,1-1.387-3.609v-.26a6.064,6.064,0,0,1,.584-2.7,4.289,4.289,0,0,1,1.656-1.837,4.648,4.648,0,0,1,2.445-.645,4.166,4.166,0,0,1,3.242,1.3A5.278,5.278,0,0,1,25.4-5.242v1.095H19.009a2.491,2.491,0,0,0,.784,1.577,2.37,2.37,0,0,0,1.656.594A2.894,2.894,0,0,0,23.871-3.1l1.317,1.475A4.025,4.025,0,0,1,23.555-.292,5.357,5.357,0,0,1,21.273.186Zm-.306-8.248a1.675,1.675,0,0,0-1.294.54,2.8,2.8,0,0,0-.635,1.547h3.729v-.214a2,2,0,0,0-.482-1.384A1.729,1.729,0,0,0,20.967-8.062Zm8.47-1.976.083,1.123a3.528,3.528,0,0,1,2.885-1.308,2.677,2.677,0,0,1,2.663,1.531,3.447,3.447,0,0,1,3.015-1.531,2.994,2.994,0,0,1,2.431.951,4.371,4.371,0,0,1,.8,2.862V0h-2.69V-6.416a1.919,1.919,0,0,0-.334-1.251,1.478,1.478,0,0,0-1.178-.4,1.674,1.674,0,0,0-1.67,1.153L35.449,0H32.768V-6.407a1.9,1.9,0,0,0-.343-1.265,1.493,1.493,0,0,0-1.169-.391,1.737,1.737,0,0,0-1.651.948V0H26.923V-10.038ZM52.408-4.926a6.02,6.02,0,0,1-1.053,3.716,3.376,3.376,0,0,1-2.844,1.4A3.127,3.127,0,0,1,46.053-.872V3.859H43.372v-13.9h2.486l.093.983a3.151,3.151,0,0,1,2.542-1.169,3.4,3.4,0,0,1,2.885,1.373,6.183,6.183,0,0,1,1.03,3.785Zm-2.681-.2a3.972,3.972,0,0,0-.5-2.168,1.615,1.615,0,0,0-1.443-.763,1.755,1.755,0,0,0-1.735.968v4.122a1.785,1.785,0,0,0,1.753,1Q49.727-1.976,49.727-5.131ZM56.9,0h-2.69V-14.25H56.9Zm1.791-5.112a5.953,5.953,0,0,1,.575-2.663A4.211,4.211,0,0,1,60.92-9.583a4.831,4.831,0,0,1,2.51-.64A4.571,4.571,0,0,1,66.746-8.98,4.989,4.989,0,0,1,68.179-5.6l.019.687a5.247,5.247,0,0,1-1.29,3.706,4.482,4.482,0,0,1-3.46,1.4,4.5,4.5,0,0,1-3.465-1.392,5.339,5.339,0,0,1-1.294-3.785Zm2.681.19a3.752,3.752,0,0,0,.538,2.188,1.775,1.775,0,0,0,1.54.757,1.779,1.779,0,0,0,1.521-.748,4.106,4.106,0,0,0,.547-2.393,3.715,3.715,0,0,0-.547-2.174,1.779,1.779,0,0,0-1.54-.771,1.75,1.75,0,0,0-1.521.767A4.175,4.175,0,0,0,61.37-4.921Zm12.793-.172a6.049,6.049,0,0,1,1.053-3.739A3.417,3.417,0,0,1,78.1-10.224a3.074,3.074,0,0,1,2.421,1.095V-14.25h2.69V0H80.787l-.13-1.067A3.155,3.155,0,0,1,78.078.186a3.407,3.407,0,0,1-2.844-1.4A6.244,6.244,0,0,1,74.163-5.093Zm2.681.191a3.984,3.984,0,0,0,.492,2.171,1.6,1.6,0,0,0,1.429.755,1.793,1.793,0,0,0,1.753-1.053v-3.98a1.768,1.768,0,0,0-1.735-1.053Q76.844-8.062,76.844-4.9ZM89.907.186a4.928,4.928,0,0,1-3.595-1.354,4.815,4.815,0,0,1-1.387-3.609v-.26a6.064,6.064,0,0,1,.584-2.7,4.289,4.289,0,0,1,1.656-1.837,4.648,4.648,0,0,1,2.445-.645,4.166,4.166,0,0,1,3.242,1.3,5.278,5.278,0,0,1,1.183,3.683v1.095H87.643a2.491,2.491,0,0,0,.784,1.577,2.37,2.37,0,0,0,1.656.594A2.894,2.894,0,0,0,92.5-3.1l1.317,1.475A4.025,4.025,0,0,1,92.189-.292,5.357,5.357,0,0,1,89.907.186ZM89.6-8.062a1.675,1.675,0,0,0-1.294.54,2.8,2.8,0,0,0-.635,1.547H91.4v-.214a2,2,0,0,0-.482-1.384A1.729,1.729,0,0,0,89.6-8.062Zm13.9-4.444v2.468h1.716v1.967H103.5v5.01a1.2,1.2,0,0,0,.213.8,1.072,1.072,0,0,0,.816.241,4.276,4.276,0,0,0,.789-.065V-.056a5.52,5.52,0,0,1-1.624.241,2.56,2.56,0,0,1-2.876-2.848V-8.071H99.351v-1.967h1.466v-2.468ZM112.525,0a2.977,2.977,0,0,1-.269-.9A3.244,3.244,0,0,1,109.723.186a3.564,3.564,0,0,1-2.445-.854,2.745,2.745,0,0,1-.969-2.152,2.837,2.837,0,0,1,1.183-2.449,5.837,5.837,0,0,1,3.419-.863h1.234v-.575a1.654,1.654,0,0,0-.357-1.113,1.405,1.405,0,0,0-1.127-.417,1.6,1.6,0,0,0-1.062.325,1.1,1.1,0,0,0-.385.891h-2.681a2.693,2.693,0,0,1,.538-1.614A3.557,3.557,0,0,1,108.591-9.8a5.545,5.545,0,0,1,2.208-.422,4.381,4.381,0,0,1,2.946.932,3.262,3.262,0,0,1,1.09,2.621v4.351a4.8,4.8,0,0,0,.4,2.162V0Zm-2.217-1.865a2.309,2.309,0,0,0,1.095-.264,1.737,1.737,0,0,0,.742-.71V-4.564h-1q-2.013,0-2.143,1.392l-.009.158a1.073,1.073,0,0,0,.353.826A1.369,1.369,0,0,0,110.308-1.865ZM125.94-4.926a6.078,6.078,0,0,1-1.03,3.762,3.411,3.411,0,0,1-2.876,1.35,3.134,3.134,0,0,1-2.607-1.252L119.307,0h-2.412V-14.25h2.681v5.112a3.054,3.054,0,0,1,2.44-1.085,3.439,3.439,0,0,1,2.881,1.35,6.087,6.087,0,0,1,1.044,3.8Zm-2.681-.2a4.015,4.015,0,0,0-.482-2.229,1.63,1.63,0,0,0-1.438-.7,1.768,1.768,0,0,0-1.763,1.052v3.974a1.792,1.792,0,0,0,1.781,1.061,1.656,1.656,0,0,0,1.707-1.284A6.644,6.644,0,0,0,123.259-5.131ZM130.421,0h-2.69V-14.25h2.69Zm6.828.186a4.928,4.928,0,0,1-3.595-1.354,4.815,4.815,0,0,1-1.387-3.609v-.26a6.064,6.064,0,0,1,.584-2.7,4.289,4.289,0,0,1,1.656-1.837,4.648,4.648,0,0,1,2.445-.645,4.166,4.166,0,0,1,3.242,1.3,5.278,5.278,0,0,1,1.183,3.683v1.095h-6.392a2.491,2.491,0,0,0,.784,1.577,2.37,2.37,0,0,0,1.656.594A2.894,2.894,0,0,0,139.847-3.1l1.317,1.475a4.025,4.025,0,0,1-1.633,1.331A5.357,5.357,0,0,1,137.249.186Zm-.306-8.248a1.675,1.675,0,0,0-1.294.54,2.8,2.8,0,0,0-.635,1.547h3.729v-.214a2,2,0,0,0-.482-1.384A1.729,1.729,0,0,0,136.943-8.062Zm11.6.538a7.284,7.284,0,0,0-.965-.074,1.964,1.964,0,0,0-1.995,1.03V0H142.9V-10.038h2.533l.074,1.2a2.484,2.484,0,0,1,2.236-1.382,2.809,2.809,0,0,1,.835.121Zm.158,2.412a5.953,5.953,0,0,1,.575-2.663,4.211,4.211,0,0,1,1.656-1.809,4.831,4.831,0,0,1,2.51-.64,4.571,4.571,0,0,1,3.317,1.243A4.989,4.989,0,0,1,158.188-5.6l.019.687a5.247,5.247,0,0,1-1.29,3.706,4.482,4.482,0,0,1-3.46,1.4,4.5,4.5,0,0,1-3.465-1.392A5.339,5.339,0,0,1,148.7-4.991Zm2.681.19a3.752,3.752,0,0,0,.538,2.188,1.775,1.775,0,0,0,1.54.757,1.779,1.779,0,0,0,1.521-.748,4.106,4.106,0,0,0,.547-2.393,3.715,3.715,0,0,0-.547-2.174,1.779,1.779,0,0,0-1.54-.771,1.75,1.75,0,0,0-1.521.767A4.175,4.175,0,0,0,151.379-4.921Zm12.793-.172a6.049,6.049,0,0,1,1.053-3.739,3.417,3.417,0,0,1,2.881-1.392,3.074,3.074,0,0,1,2.421,1.095V-14.25h2.69V0H170.8l-.13-1.067A3.155,3.155,0,0,1,168.087.186a3.407,3.407,0,0,1-2.844-1.4A6.244,6.244,0,0,1,164.172-5.093Zm2.681.191a3.984,3.984,0,0,0,.492,2.171,1.6,1.6,0,0,0,1.429.755,1.793,1.793,0,0,0,1.753-1.053v-3.98a1.768,1.768,0,0,0-1.735-1.053Q166.853-8.062,166.853-4.9ZM179.916.186a4.928,4.928,0,0,1-3.595-1.354,4.815,4.815,0,0,1-1.387-3.609v-.26a6.064,6.064,0,0,1,.584-2.7,4.289,4.289,0,0,1,1.656-1.837,4.648,4.648,0,0,1,2.445-.645,4.166,4.166,0,0,1,3.242,1.3,5.278,5.278,0,0,1,1.183,3.683v1.095h-6.392a2.491,2.491,0,0,0,.784,1.577,2.37,2.37,0,0,0,1.656.594A2.894,2.894,0,0,0,182.514-3.1l1.317,1.475A4.025,4.025,0,0,1,182.2-.292,5.357,5.357,0,0,1,179.916.186Zm-.306-8.248a1.675,1.675,0,0,0-1.294.54,2.8,2.8,0,0,0-.635,1.547h3.729v-.214a2,2,0,0,0-.482-1.384A1.729,1.729,0,0,0,179.61-8.062Zm13.9-4.444v2.468h1.716v1.967h-1.716v5.01a1.2,1.2,0,0,0,.213.8,1.072,1.072,0,0,0,.816.241,4.276,4.276,0,0,0,.789-.065V-.056A5.519,5.519,0,0,1,193.7.186a2.56,2.56,0,0,1-2.876-2.848V-8.071H189.36v-1.967h1.466v-2.468ZM202.534,0a2.977,2.977,0,0,1-.269-.9A3.244,3.244,0,0,1,199.732.186a3.564,3.564,0,0,1-2.445-.854,2.745,2.745,0,0,1-.969-2.152A2.837,2.837,0,0,1,197.5-5.27a5.837,5.837,0,0,1,3.419-.863h1.234v-.575a1.654,1.654,0,0,0-.357-1.113,1.405,1.405,0,0,0-1.127-.417,1.6,1.6,0,0,0-1.062.325,1.1,1.1,0,0,0-.385.891h-2.681a2.693,2.693,0,0,1,.538-1.614A3.557,3.557,0,0,1,198.6-9.8a5.545,5.545,0,0,1,2.208-.422,4.381,4.381,0,0,1,2.946.932,3.262,3.262,0,0,1,1.09,2.621v4.351a4.8,4.8,0,0,0,.4,2.162V0Zm-2.217-1.865a2.309,2.309,0,0,0,1.095-.264,1.737,1.737,0,0,0,.742-.71V-4.564h-1q-2.013,0-2.143,1.392L199-3.015a1.073,1.073,0,0,0,.353.826A1.369,1.369,0,0,0,200.317-1.865Zm12.228-5.659a7.284,7.284,0,0,0-.965-.074,1.964,1.964,0,0,0-1.995,1.03V0H206.9V-10.038h2.533l.074,1.2a2.484,2.484,0,0,1,2.236-1.382,2.809,2.809,0,0,1,.835.121ZM218.088.186a4.928,4.928,0,0,1-3.595-1.354,4.815,4.815,0,0,1-1.387-3.609v-.26a6.064,6.064,0,0,1,.584-2.7,4.289,4.289,0,0,1,1.656-1.837,4.648,4.648,0,0,1,2.445-.645,4.166,4.166,0,0,1,3.242,1.3,5.278,5.278,0,0,1,1.183,3.683v1.095h-6.392a2.491,2.491,0,0,0,.784,1.577,2.37,2.37,0,0,0,1.656.594A2.894,2.894,0,0,0,220.685-3.1L222-1.624A4.025,4.025,0,0,1,220.37-.292,5.357,5.357,0,0,1,218.088.186Zm-.306-8.248a1.675,1.675,0,0,0-1.294.54,2.8,2.8,0,0,0-.635,1.547h3.729v-.214a2,2,0,0,0-.482-1.384A1.729,1.729,0,0,0,217.782-8.062ZM229.555,0a2.977,2.977,0,0,1-.269-.9A3.244,3.244,0,0,1,226.753.186a3.564,3.564,0,0,1-2.445-.854,2.745,2.745,0,0,1-.969-2.152,2.837,2.837,0,0,1,1.183-2.449,5.837,5.837,0,0,1,3.419-.863h1.234v-.575a1.654,1.654,0,0,0-.357-1.113,1.405,1.405,0,0,0-1.127-.417,1.6,1.6,0,0,0-1.062.325,1.1,1.1,0,0,0-.385.891h-2.681a2.693,2.693,0,0,1,.538-1.614A3.557,3.557,0,0,1,225.621-9.8a5.545,5.545,0,0,1,2.208-.422,4.381,4.381,0,0,1,2.946.932,3.262,3.262,0,0,1,1.09,2.621v4.351a4.8,4.8,0,0,0,.4,2.162V0Zm-2.217-1.865a2.309,2.309,0,0,0,1.095-.264,1.737,1.737,0,0,0,.742-.71V-4.564h-1q-2.013,0-2.143,1.392l-.009.158a1.073,1.073,0,0,0,.353.826A1.369,1.369,0,0,0,227.337-1.865Zm12.023-.909a.864.864,0,0,0-.487-.775,5.533,5.533,0,0,0-1.563-.506q-3.581-.751-3.581-3.043a2.758,2.758,0,0,1,1.109-2.231,4.472,4.472,0,0,1,2.9-.9,4.813,4.813,0,0,1,3.057.9,2.836,2.836,0,0,1,1.146,2.338h-2.681a1.3,1.3,0,0,0-.371-.951,1.57,1.57,0,0,0-1.16-.376,1.6,1.6,0,0,0-1.048.306.966.966,0,0,0-.371.779.826.826,0,0,0,.422.719,4.343,4.343,0,0,0,1.424.473,11.632,11.632,0,0,1,1.688.45,2.774,2.774,0,0,1,2.125,2.7,2.618,2.618,0,0,1-1.178,2.222,5.083,5.083,0,0,1-3.043.849,5.309,5.309,0,0,1-2.24-.45A3.759,3.759,0,0,1,233.971-1.5a2.867,2.867,0,0,1-.557-1.693h2.542a1.4,1.4,0,0,0,.529,1.095,2.1,2.1,0,0,0,1.317.38,1.941,1.941,0,0,0,1.164-.292A.909.909,0,0,0,239.361-2.774Zm8.646-2.319a6.049,6.049,0,0,1,1.053-3.739,3.417,3.417,0,0,1,2.881-1.392,3.074,3.074,0,0,1,2.421,1.095V-14.25h2.69V0h-2.421l-.13-1.067A3.155,3.155,0,0,1,251.922.186a3.407,3.407,0,0,1-2.844-1.4A6.244,6.244,0,0,1,248.007-5.093Zm2.681.191a3.984,3.984,0,0,0,.492,2.171,1.6,1.6,0,0,0,1.429.755,1.793,1.793,0,0,0,1.753-1.053v-3.98a1.768,1.768,0,0,0-1.735-1.053Q250.688-8.062,250.688-4.9ZM263.751.186a4.928,4.928,0,0,1-3.595-1.354,4.815,4.815,0,0,1-1.387-3.609v-.26a6.064,6.064,0,0,1,.584-2.7,4.289,4.289,0,0,1,1.656-1.837,4.648,4.648,0,0,1,2.445-.645,4.166,4.166,0,0,1,3.242,1.3,5.278,5.278,0,0,1,1.183,3.683v1.095h-6.392a2.491,2.491,0,0,0,.784,1.577,2.37,2.37,0,0,0,1.656.594A2.894,2.894,0,0,0,266.348-3.1l1.317,1.475a4.025,4.025,0,0,1-1.633,1.331A5.357,5.357,0,0,1,263.751.186Zm-.306-8.248a1.675,1.675,0,0,0-1.294.54,2.8,2.8,0,0,0-.635,1.547h3.729v-.214a2,2,0,0,0-.482-1.384A1.729,1.729,0,0,0,263.445-8.062Zm17.868,4.518a1.428,1.428,0,0,0-.557-1.211,7.3,7.3,0,0,0-2-.891,14.206,14.206,0,0,1-2.292-.923,3.744,3.744,0,0,1-2.3-3.349,3.262,3.262,0,0,1,.617-1.953,4.024,4.024,0,0,1,1.772-1.341,6.67,6.67,0,0,1,2.593-.482,6.071,6.071,0,0,1,2.579.524,4.107,4.107,0,0,1,1.758,1.48,3.872,3.872,0,0,1,.626,2.171h-2.783a1.821,1.821,0,0,0-.584-1.443,2.4,2.4,0,0,0-1.642-.515,2.567,2.567,0,0,0-1.586.431,1.361,1.361,0,0,0-.566,1.136,1.3,1.3,0,0,0,.663,1.1,7.494,7.494,0,0,0,1.953.835A8.438,8.438,0,0,1,283.02-6.2a3.529,3.529,0,0,1,1.085,2.635,3.251,3.251,0,0,1-1.327,2.751,5.808,5.808,0,0,1-3.572,1,6.9,6.9,0,0,1-2.839-.571,4.492,4.492,0,0,1-1.953-1.563,4,4,0,0,1-.673-2.3h2.792q0,2.236,2.672,2.236a2.6,2.6,0,0,0,1.549-.4A1.313,1.313,0,0,0,281.313-3.544Zm8.674,1.568a1.759,1.759,0,0,0,1.206-.408,1.43,1.43,0,0,0,.482-1.085h2.514a3.439,3.439,0,0,1-.557,1.869,3.673,3.673,0,0,1-1.5,1.317,4.689,4.689,0,0,1-2.1.469,4.358,4.358,0,0,1-3.4-1.368,5.415,5.415,0,0,1-1.243-3.781V-5.14a5.353,5.353,0,0,1,1.234-3.7,4.307,4.307,0,0,1,3.386-1.382,4.222,4.222,0,0,1,3.02,1.072A3.794,3.794,0,0,1,294.19-6.3h-2.514a1.842,1.842,0,0,0-.482-1.273,1.608,1.608,0,0,0-1.225-.49,1.615,1.615,0,0,0-1.415.683,3.958,3.958,0,0,0-.478,2.216v.279a4.008,4.008,0,0,0,.473,2.23A1.635,1.635,0,0,0,289.987-1.976Zm11.374-5.548A7.284,7.284,0,0,0,300.4-7.6a1.964,1.964,0,0,0-1.995,1.03V0h-2.681V-10.038h2.533l.074,1.2a2.484,2.484,0,0,1,2.236-1.382,2.809,2.809,0,0,1,.835.121Zm7.3,6.5A3.362,3.362,0,0,1,305.916.186a3.171,3.171,0,0,1-2.463-.928,3.96,3.96,0,0,1-.867-2.718v-6.578h2.681v6.492q0,1.57,1.429,1.57a1.936,1.936,0,0,0,1.874-.947v-7.115h2.69V0h-2.523Zm7.134-9.018.083,1.123a3.528,3.528,0,0,1,2.885-1.308,2.677,2.677,0,0,1,2.663,1.531,3.447,3.447,0,0,1,3.015-1.531,2.994,2.994,0,0,1,2.431.951,4.371,4.371,0,0,1,.8,2.862V0h-2.69V-6.416a1.919,1.919,0,0,0-.334-1.251,1.478,1.478,0,0,0-1.178-.4,1.674,1.674,0,0,0-1.67,1.153L321.808,0h-2.681V-6.407a1.9,1.9,0,0,0-.343-1.265,1.493,1.493,0,0,0-1.169-.391,1.737,1.737,0,0,0-1.651.948V0h-2.681V-10.038Z" transform="translate(398.035 74.871)" fill="#fff"/>
      <g id="Grupo" transform="translate(118.625 111.678)">
        <path id="Trazado_135692" data-name="Trazado 135692" d="M3.569-4.258V0H1.079V-12.086H5.794a5.455,5.455,0,0,1,2.395.5,3.67,3.67,0,0,1,1.59,1.415,3.946,3.946,0,0,1,.556,2.088,3.47,3.47,0,0,1-1.216,2.8A5.065,5.065,0,0,1,5.752-4.258Zm0-2.017H5.794A2.187,2.187,0,0,0,7.3-6.74a1.691,1.691,0,0,0,.519-1.328A1.994,1.994,0,0,0,7.3-9.5a1.953,1.953,0,0,0-1.444-.564H3.569Z" transform="translate(0 16)" fill="#fff"/>
        <path id="Trazado_135691" data-name="Trazado 135691" d="M5.968-6.732A6.517,6.517,0,0,0,5.1-6.8a1.757,1.757,0,0,0-1.785.921V0H.921V-8.981H3.188l.066,1.071a2.223,2.223,0,0,1,2-1.237A2.514,2.514,0,0,1,6-9.04Z" transform="translate(11.348 16)" fill="#fff"/>
        <path id="Trazado_135690" data-name="Trazado 135690" d="M.548-4.574a5.327,5.327,0,0,1,.515-2.382A3.768,3.768,0,0,1,2.544-8.575,4.323,4.323,0,0,1,4.79-9.147,4.09,4.09,0,0,1,7.757-8.035,4.464,4.464,0,0,1,9.04-5.014l.017.614A4.694,4.694,0,0,1,7.9-1.083,4.011,4.011,0,0,1,4.806.166a4.031,4.031,0,0,1-3.1-1.245A4.777,4.777,0,0,1,.548-4.466Zm2.4.17a3.357,3.357,0,0,0,.481,1.958,1.588,1.588,0,0,0,1.378.678,1.592,1.592,0,0,0,1.361-.669,3.674,3.674,0,0,0,.49-2.141,3.324,3.324,0,0,0-.49-1.945,1.592,1.592,0,0,0-1.378-.69,1.566,1.566,0,0,0-1.361.686A3.735,3.735,0,0,0,2.947-4.4Zm7.213-.154A5.413,5.413,0,0,1,11.1-7.9,3.057,3.057,0,0,1,13.68-9.147a2.751,2.751,0,0,1,2.167.979V-12.75h2.407V0H16.087l-.116-.955A2.823,2.823,0,0,1,13.663.166a3.049,3.049,0,0,1-2.544-1.249A5.587,5.587,0,0,1,10.16-4.557Zm2.4.171A3.565,3.565,0,0,0,13-2.444a1.432,1.432,0,0,0,1.278.675,1.6,1.6,0,0,0,1.569-.942V-6.271a1.582,1.582,0,0,0-1.552-.942Q12.559-7.213,12.559-4.386ZM25.492-.913A3.008,3.008,0,0,1,23.035.166a2.837,2.837,0,0,1-2.2-.83A3.543,3.543,0,0,1,20.055-3.1V-8.981h2.4v5.809q0,1.4,1.278,1.4a1.732,1.732,0,0,0,1.677-.848V-8.981h2.407V0H25.558Zm7.869-.855a1.573,1.573,0,0,0,1.079-.365,1.28,1.28,0,0,0,.432-.971h2.25a3.077,3.077,0,0,1-.5,1.673A3.286,3.286,0,0,1,35.282-.253,4.2,4.2,0,0,1,33.4.166a3.9,3.9,0,0,1-3.038-1.224,4.845,4.845,0,0,1-1.112-3.383V-4.6a4.79,4.79,0,0,1,1.1-3.312,3.854,3.854,0,0,1,3.03-1.237,3.778,3.778,0,0,1,2.7.959,3.4,3.4,0,0,1,1.033,2.552h-2.25a1.648,1.648,0,0,0-.432-1.139,1.439,1.439,0,0,0-1.1-.438,1.445,1.445,0,0,0-1.266.611,3.541,3.541,0,0,0-.427,1.983v.249a3.586,3.586,0,0,0,.423,2A1.463,1.463,0,0,0,33.361-1.768Zm8-9.421v2.208H42.9v1.76H41.363v4.482a1.07,1.07,0,0,0,.191.714.959.959,0,0,0,.73.216,3.826,3.826,0,0,0,.706-.058V-.05a4.939,4.939,0,0,1-1.453.216,2.29,2.29,0,0,1-2.573-2.548V-7.222H37.652v-1.76h1.312v-2.208ZM48.626,0V-12.086h4.233a5.559,5.559,0,0,1,3.337.843,2.881,2.881,0,0,1,1.137,2.469,2.731,2.731,0,0,1-.457,1.565,2.637,2.637,0,0,1-1.27.992,2.551,2.551,0,0,1,1.465.938,2.773,2.773,0,0,1,.535,1.727A3.19,3.19,0,0,1,56.5-.913,5.007,5.007,0,0,1,53.324,0Zm2.49-5.263V-2H53.25a2.059,2.059,0,0,0,1.374-.419,1.437,1.437,0,0,0,.494-1.158A1.518,1.518,0,0,0,53.4-5.263Zm0-1.76h1.843q1.884-.033,1.884-1.5a1.388,1.388,0,0,0-.477-1.183,2.51,2.51,0,0,0-1.507-.361H51.116ZM64.522,0a2.664,2.664,0,0,1-.241-.805,2.9,2.9,0,0,1-2.266.971A3.189,3.189,0,0,1,59.828-.6a2.456,2.456,0,0,1-.867-1.926,2.538,2.538,0,0,1,1.058-2.191,5.222,5.222,0,0,1,3.059-.772h1.1V-6a1.48,1.48,0,0,0-.32-1,1.257,1.257,0,0,0-1.009-.374,1.429,1.429,0,0,0-.95.291.987.987,0,0,0-.344.8h-2.4a2.41,2.41,0,0,1,.481-1.444A3.182,3.182,0,0,1,61-8.77a4.961,4.961,0,0,1,1.976-.378,3.92,3.92,0,0,1,2.635.834,2.918,2.918,0,0,1,.975,2.345v3.893a4.294,4.294,0,0,0,.357,1.934V0ZM62.538-1.668a2.066,2.066,0,0,0,.979-.237,1.554,1.554,0,0,0,.664-.635V-4.084h-.9q-1.8,0-1.917,1.245l-.008.141a.96.96,0,0,0,.315.739A1.225,1.225,0,0,0,62.538-1.668Zm9.629-.1a1.573,1.573,0,0,0,1.079-.365,1.28,1.28,0,0,0,.432-.971h2.25a3.077,3.077,0,0,1-.5,1.673A3.286,3.286,0,0,1,74.089-.253a4.2,4.2,0,0,1-1.88.419A3.9,3.9,0,0,1,69.17-1.058a4.845,4.845,0,0,1-1.112-3.383V-4.6a4.79,4.79,0,0,1,1.1-3.312,3.854,3.854,0,0,1,3.03-1.237,3.778,3.778,0,0,1,2.7.959,3.4,3.4,0,0,1,1.033,2.552h-2.25a1.648,1.648,0,0,0-.432-1.139,1.439,1.439,0,0,0-1.1-.438,1.445,1.445,0,0,0-1.266.611,3.541,3.541,0,0,0-.427,1.983v.249a3.586,3.586,0,0,0,.423,2A1.463,1.463,0,0,0,72.167-1.768ZM80.559-3.6l-.863.863V0H77.3V-12.75h2.4v7.064l.465-.6,2.3-2.7h2.88L82.095-5.238,85.623,0H82.867ZM88.91,0H86.5V-12.75H88.91Zm1.6-4.574a5.326,5.326,0,0,1,.515-2.382,3.768,3.768,0,0,1,1.482-1.619,4.323,4.323,0,0,1,2.245-.573,4.09,4.09,0,0,1,2.968,1.112A4.464,4.464,0,0,1,99-5.014l.017.614a4.694,4.694,0,0,1-1.154,3.316A4.011,4.011,0,0,1,94.77.166a4.031,4.031,0,0,1-3.1-1.245,4.777,4.777,0,0,1-1.158-3.387Zm2.4.17a3.357,3.357,0,0,0,.481,1.958,1.588,1.588,0,0,0,1.378.678,1.592,1.592,0,0,0,1.361-.669,3.674,3.674,0,0,0,.49-2.141,3.324,3.324,0,0,0-.49-1.945,1.592,1.592,0,0,0-1.378-.69,1.566,1.566,0,0,0-1.361.686A3.736,3.736,0,0,0,92.911-4.4Zm7.238-.154a5.264,5.264,0,0,1,.984-3.329,3.187,3.187,0,0,1,2.652-1.262,2.8,2.8,0,0,1,2.3,1.013l.1-.847h2.175V-.3a3.839,3.839,0,0,1-.535,2.05,3.439,3.439,0,0,1-1.507,1.328,5.3,5.3,0,0,1-2.274.457,4.925,4.925,0,0,1-1.926-.394A3.418,3.418,0,0,1,100.7,2.125L101.759.664a2.81,2.81,0,0,0,2.175,1,2.057,2.057,0,0,0,1.486-.51,1.915,1.915,0,0,0,.531-1.448V-.772a2.775,2.775,0,0,1-2.183.938A3.179,3.179,0,0,1,101.149-1.1a5.262,5.262,0,0,1-1-3.358Zm2.4.171a3.3,3.3,0,0,0,.49,1.922,1.557,1.557,0,0,0,1.345.7,1.665,1.665,0,0,0,1.569-.826V-6.388a1.661,1.661,0,0,0-1.552-.826,1.566,1.566,0,0,0-1.357.709A3.715,3.715,0,0,0,102.548-4.386Z" transform="translate(17.458 16)" fill="#fff"/>
        <path id="Trazado_135693" data-name="Trazado 135693" d="M3.569-4.258V0H1.079V-12.086H5.794a5.455,5.455,0,0,1,2.395.5,3.67,3.67,0,0,1,1.59,1.415,3.946,3.946,0,0,1,.556,2.088,3.47,3.47,0,0,1-1.216,2.8A5.065,5.065,0,0,1,5.752-4.258Zm0-2.017H5.794A2.187,2.187,0,0,0,7.3-6.74a1.691,1.691,0,0,0,.519-1.328A1.994,1.994,0,0,0,7.3-9.5a1.953,1.953,0,0,0-1.444-.564H3.569ZM14.418,0H12.011V-8.981h2.407ZM11.87-11.306a1.181,1.181,0,0,1,.361-.888,1.356,1.356,0,0,1,.984-.349,1.36,1.36,0,0,1,.979.349,1.175,1.175,0,0,1,.365.888,1.178,1.178,0,0,1-.369.9,1.363,1.363,0,0,1-.975.349,1.363,1.363,0,0,1-.975-.349A1.178,1.178,0,0,1,11.87-11.306ZM18.926,0H16.519V-12.75h2.407Zm7.18,0a2.664,2.664,0,0,1-.241-.805A2.9,2.9,0,0,1,23.6.166,3.189,3.189,0,0,1,21.412-.6a2.456,2.456,0,0,1-.867-1.926A2.538,2.538,0,0,1,21.6-4.715a5.222,5.222,0,0,1,3.059-.772h1.1V-6a1.48,1.48,0,0,0-.32-1,1.257,1.257,0,0,0-1.009-.374,1.429,1.429,0,0,0-.95.291.987.987,0,0,0-.344.8h-2.4a2.41,2.41,0,0,1,.481-1.444A3.182,3.182,0,0,1,22.586-8.77a4.961,4.961,0,0,1,1.976-.378,3.92,3.92,0,0,1,2.635.834,2.918,2.918,0,0,1,.975,2.345v3.893A4.294,4.294,0,0,0,28.53-.141V0ZM24.122-1.668a2.066,2.066,0,0,0,.979-.237,1.554,1.554,0,0,0,.664-.635V-4.084h-.9q-1.8,0-1.917,1.245l-.008.141a.96.96,0,0,0,.315.739A1.225,1.225,0,0,0,24.122-1.668Zm9.753-2.889A5.413,5.413,0,0,1,34.818-7.9,3.057,3.057,0,0,1,37.4-9.147a2.751,2.751,0,0,1,2.167.979V-12.75h2.407V0H39.8l-.116-.955A2.823,2.823,0,0,1,37.378.166a3.049,3.049,0,0,1-2.544-1.249A5.587,5.587,0,0,1,33.875-4.557Zm2.4.171a3.565,3.565,0,0,0,.44,1.943,1.432,1.432,0,0,0,1.278.675,1.6,1.6,0,0,0,1.569-.942V-6.271a1.582,1.582,0,0,0-1.552-.942Q36.274-7.213,36.274-4.386ZM47.962.166a4.409,4.409,0,0,1-3.217-1.212A4.308,4.308,0,0,1,43.5-4.275v-.232a5.426,5.426,0,0,1,.523-2.42,3.838,3.838,0,0,1,1.482-1.644A4.159,4.159,0,0,1,47.7-9.147a3.727,3.727,0,0,1,2.9,1.162,4.722,4.722,0,0,1,1.058,3.3v.979H45.937a2.229,2.229,0,0,0,.7,1.411,2.12,2.12,0,0,0,1.482.531,2.589,2.589,0,0,0,2.167-1l1.179,1.32A3.6,3.6,0,0,1,50-.261,4.793,4.793,0,0,1,47.962.166Zm-.274-7.379a1.5,1.5,0,0,0-1.158.484,2.5,2.5,0,0,0-.569,1.384H49.3v-.192a1.786,1.786,0,0,0-.432-1.238A1.547,1.547,0,0,0,47.688-7.213ZM65.335-4.408a5.387,5.387,0,0,1-.942,3.324A3.021,3.021,0,0,1,61.849.166a2.8,2.8,0,0,1-2.2-.946V3.453h-2.4V-8.981h2.225l.083.88a2.819,2.819,0,0,1,2.274-1.046,3.041,3.041,0,0,1,2.582,1.229,5.532,5.532,0,0,1,.921,3.387Zm-2.4-.183a3.554,3.554,0,0,0-.444-1.94A1.445,1.445,0,0,0,61.2-7.213a1.57,1.57,0,0,0-1.552.866v3.689a1.6,1.6,0,0,0,1.569.891Q62.937-1.768,62.937-4.591Z" transform="translate(0.86 37.113)" fill="#fff"/>
        <path id="Trazado_135694" data-name="Trazado 135694" d="M5.968-6.732A6.517,6.517,0,0,0,5.1-6.8a1.757,1.757,0,0,0-1.785.921V0H.921V-8.981H3.188l.066,1.071a2.223,2.223,0,0,1,2-1.237A2.514,2.514,0,0,1,6-9.04Z" transform="translate(69.068 37.113)" fill="#fff"/>
        <path id="Trazado_135695" data-name="Trazado 135695" d="M.548-4.574a5.327,5.327,0,0,1,.515-2.382A3.768,3.768,0,0,1,2.544-8.575,4.323,4.323,0,0,1,4.79-9.147,4.09,4.09,0,0,1,7.757-8.035,4.464,4.464,0,0,1,9.04-5.014l.017.614A4.694,4.694,0,0,1,7.9-1.083,4.011,4.011,0,0,1,4.806.166a4.031,4.031,0,0,1-3.1-1.245A4.777,4.777,0,0,1,.548-4.466Zm2.4.17a3.357,3.357,0,0,0,.481,1.958,1.588,1.588,0,0,0,1.378.678,1.592,1.592,0,0,0,1.361-.669,3.674,3.674,0,0,0,.49-2.141,3.324,3.324,0,0,0-.49-1.945,1.592,1.592,0,0,0-1.378-.69,1.566,1.566,0,0,0-1.361.686A3.735,3.735,0,0,0,2.947-4.4Zm7.213-.154A5.413,5.413,0,0,1,11.1-7.9,3.057,3.057,0,0,1,13.68-9.147a2.751,2.751,0,0,1,2.167.979V-12.75h2.407V0H16.087l-.116-.955A2.823,2.823,0,0,1,13.663.166a3.049,3.049,0,0,1-2.544-1.249A5.587,5.587,0,0,1,10.16-4.557Zm2.4.171A3.565,3.565,0,0,0,13-2.444a1.432,1.432,0,0,0,1.278.675,1.6,1.6,0,0,0,1.569-.942V-6.271a1.582,1.582,0,0,0-1.552-.942Q12.559-7.213,12.559-4.386ZM25.492-.913A3.008,3.008,0,0,1,23.035.166a2.837,2.837,0,0,1-2.2-.83A3.543,3.543,0,0,1,20.055-3.1V-8.981h2.4v5.809q0,1.4,1.278,1.4a1.732,1.732,0,0,0,1.677-.848V-8.981h2.407V0H25.558Zm7.869-.855a1.573,1.573,0,0,0,1.079-.365,1.28,1.28,0,0,0,.432-.971h2.25a3.077,3.077,0,0,1-.5,1.673A3.286,3.286,0,0,1,35.282-.253,4.2,4.2,0,0,1,33.4.166a3.9,3.9,0,0,1-3.038-1.224,4.845,4.845,0,0,1-1.112-3.383V-4.6a4.79,4.79,0,0,1,1.1-3.312,3.854,3.854,0,0,1,3.03-1.237,3.778,3.778,0,0,1,2.7.959,3.4,3.4,0,0,1,1.033,2.552h-2.25a1.648,1.648,0,0,0-.432-1.139,1.439,1.439,0,0,0-1.1-.438,1.445,1.445,0,0,0-1.266.611,3.541,3.541,0,0,0-.427,1.983v.249a3.586,3.586,0,0,0,.423,2A1.463,1.463,0,0,0,33.361-1.768Z" transform="translate(75.177 37.113)" fill="#fff"/>
        <path id="Trazado_135696" data-name="Trazado 135696" d="M3.57-10.531v2.078H5.016V-6.8H3.57v4.219a1.007,1.007,0,0,0,.18.672.9.9,0,0,0,.688.2A3.6,3.6,0,0,0,5.1-1.758V-.047a4.648,4.648,0,0,1-1.367.2,2.156,2.156,0,0,1-2.422-2.4V-6.8H.078V-8.453H1.313v-2.078Z" transform="translate(114.061 36.113)" fill="#fff"/>
        <path id="Trazado_135697" data-name="Trazado 135697" d="M.516-4.3A5.013,5.013,0,0,1,1-6.547,3.546,3.546,0,0,1,2.395-8.07a4.069,4.069,0,0,1,2.113-.539A3.849,3.849,0,0,1,7.3-7.562,4.2,4.2,0,0,1,8.508-4.719l.016.578A4.418,4.418,0,0,1,7.438-1.02,3.775,3.775,0,0,1,4.523.156,3.793,3.793,0,0,1,1.605-1.016,4.5,4.5,0,0,1,.516-4.2Zm2.258.16A3.16,3.16,0,0,0,3.227-2.3a1.5,1.5,0,0,0,1.3.638A1.5,1.5,0,0,0,5.8-2.294a3.457,3.457,0,0,0,.461-2.015A3.128,3.128,0,0,0,5.8-6.14a1.5,1.5,0,0,0-1.3-.649,1.474,1.474,0,0,0-1.281.646A3.516,3.516,0,0,0,2.773-4.144Z" transform="translate(119.75 36.113)" fill="#fff"/>
      </g>
      <g id="Grupo-2" data-name="Grupo" transform="translate(293.28 111.678)">
        <path id="Trazado_135698" data-name="Trazado 135698" d="M7.346-3.171a1.278,1.278,0,0,0-.5-1.083,6.533,6.533,0,0,0-1.793-.8A12.71,12.71,0,0,1,3-5.877a3.35,3.35,0,0,1-2.059-3A2.919,2.919,0,0,1,1.5-10.621a3.6,3.6,0,0,1,1.585-1.2,5.967,5.967,0,0,1,2.32-.432,5.432,5.432,0,0,1,2.308.469,3.674,3.674,0,0,1,1.573,1.324,3.464,3.464,0,0,1,.56,1.942H7.354a1.63,1.63,0,0,0-.523-1.291,2.15,2.15,0,0,0-1.469-.461,2.3,2.3,0,0,0-1.419.386,1.217,1.217,0,0,0-.506,1.017,1.166,1.166,0,0,0,.594.988,6.705,6.705,0,0,0,1.747.747,7.55,7.55,0,0,1,3.1,1.585,3.157,3.157,0,0,1,.971,2.357A2.909,2.909,0,0,1,8.658-.726a5.2,5.2,0,0,1-3.2.892,6.171,6.171,0,0,1-2.54-.51,4.019,4.019,0,0,1-1.747-1.4A3.582,3.582,0,0,1,.573-3.8h2.5q0,2,2.391,2a2.326,2.326,0,0,0,1.386-.361A1.175,1.175,0,0,0,7.346-3.171ZM19.457-4.408a5.387,5.387,0,0,1-.942,3.324A3.021,3.021,0,0,1,15.971.166a2.8,2.8,0,0,1-2.2-.946V3.453h-2.4V-8.981H13.6l.083.88a2.819,2.819,0,0,1,2.274-1.046,3.041,3.041,0,0,1,2.582,1.229,5.532,5.532,0,0,1,.921,3.387Zm-2.4-.183a3.554,3.554,0,0,0-.444-1.94,1.445,1.445,0,0,0-1.291-.683,1.57,1.57,0,0,0-1.552.866v3.689a1.6,1.6,0,0,0,1.569.891Q17.058-1.768,17.058-4.591ZM25.99-6.732a6.517,6.517,0,0,0-.863-.066,1.757,1.757,0,0,0-1.785.921V0h-2.4V-8.981h2.266l.066,1.071a2.223,2.223,0,0,1,2-1.237,2.514,2.514,0,0,1,.747.108ZM29.675,0H27.268V-8.981h2.407ZM27.127-11.306a1.181,1.181,0,0,1,.361-.888,1.356,1.356,0,0,1,.984-.349,1.36,1.36,0,0,1,.979.349,1.175,1.175,0,0,1,.365.888,1.178,1.178,0,0,1-.369.9,1.363,1.363,0,0,1-.975.349,1.363,1.363,0,0,1-.975-.349A1.178,1.178,0,0,1,27.127-11.306Zm6.732,2.324.075,1.038a3.136,3.136,0,0,1,2.582-1.2,2.606,2.606,0,0,1,2.125.838A3.912,3.912,0,0,1,39.354-5.8V0h-2.4V-5.757a1.562,1.562,0,0,0-.332-1.111,1.484,1.484,0,0,0-1.1-.345A1.65,1.65,0,0,0,34-6.348V0H31.6V-8.981Zm10.185-2.208v2.208H45.58v1.76H44.044v4.482a1.07,1.07,0,0,0,.191.714.959.959,0,0,0,.73.216,3.826,3.826,0,0,0,.706-.058V-.05a4.939,4.939,0,0,1-1.453.216,2.29,2.29,0,0,1-2.573-2.548V-7.222H40.333v-1.76h1.312v-2.208ZM51.307,0V-12.086h4.233a5.559,5.559,0,0,1,3.337.843,2.881,2.881,0,0,1,1.137,2.469,2.731,2.731,0,0,1-.457,1.565,2.637,2.637,0,0,1-1.27.992,2.551,2.551,0,0,1,1.465.938,2.773,2.773,0,0,1,.535,1.727,3.19,3.19,0,0,1-1.112,2.64A5.007,5.007,0,0,1,56.005,0ZM53.8-5.263V-2h2.133A2.059,2.059,0,0,0,57.3-2.42,1.437,1.437,0,0,0,57.8-3.578,1.518,1.518,0,0,0,56.08-5.263Zm0-1.76H55.64q1.884-.033,1.884-1.5a1.388,1.388,0,0,0-.477-1.183,2.51,2.51,0,0,0-1.507-.361H53.8ZM67.2,0a2.664,2.664,0,0,1-.241-.805A2.9,2.9,0,0,1,64.7.166,3.189,3.189,0,0,1,62.509-.6a2.456,2.456,0,0,1-.867-1.926A2.538,2.538,0,0,1,62.7-4.715a5.222,5.222,0,0,1,3.059-.772h1.1V-6a1.48,1.48,0,0,0-.32-1,1.257,1.257,0,0,0-1.009-.374,1.429,1.429,0,0,0-.95.291.987.987,0,0,0-.344.8h-2.4a2.41,2.41,0,0,1,.481-1.444A3.182,3.182,0,0,1,63.684-8.77a4.961,4.961,0,0,1,1.976-.378,3.92,3.92,0,0,1,2.635.834,2.918,2.918,0,0,1,.975,2.345v3.893a4.294,4.294,0,0,0,.357,1.934V0ZM65.219-1.668a2.066,2.066,0,0,0,.979-.237,1.554,1.554,0,0,0,.664-.635V-4.084h-.9q-1.8,0-1.917,1.245l-.008.141a.96.96,0,0,0,.315.739A1.225,1.225,0,0,0,65.219-1.668Zm9.629-.1a1.573,1.573,0,0,0,1.079-.365,1.28,1.28,0,0,0,.432-.971h2.25a3.077,3.077,0,0,1-.5,1.673A3.286,3.286,0,0,1,76.77-.253a4.2,4.2,0,0,1-1.88.419,3.9,3.9,0,0,1-3.038-1.224,4.845,4.845,0,0,1-1.112-3.383V-4.6a4.79,4.79,0,0,1,1.1-3.312,3.854,3.854,0,0,1,3.03-1.237,3.778,3.778,0,0,1,2.7.959,3.4,3.4,0,0,1,1.033,2.552h-2.25a1.648,1.648,0,0,0-.432-1.139,1.439,1.439,0,0,0-1.1-.438,1.445,1.445,0,0,0-1.266.611,3.541,3.541,0,0,0-.427,1.983v.249a3.586,3.586,0,0,0,.423,2A1.463,1.463,0,0,0,74.848-1.768ZM83.24-3.6l-.863.863V0h-2.4V-12.75h2.4v7.064l.465-.6,2.3-2.7h2.88L84.776-5.238,88.3,0H85.548ZM91.591,0H89.184V-12.75h2.407Zm1.6-4.574a5.326,5.326,0,0,1,.515-2.382,3.768,3.768,0,0,1,1.482-1.619,4.323,4.323,0,0,1,2.245-.573A4.09,4.09,0,0,1,100.4-8.035a4.464,4.464,0,0,1,1.282,3.021l.017.614a4.694,4.694,0,0,1-1.154,3.316,4.011,4.011,0,0,1-3.1,1.249,4.031,4.031,0,0,1-3.1-1.245,4.777,4.777,0,0,1-1.158-3.387Zm2.4.17a3.357,3.357,0,0,0,.481,1.958,1.588,1.588,0,0,0,1.378.678,1.592,1.592,0,0,0,1.361-.669,3.674,3.674,0,0,0,.49-2.141,3.324,3.324,0,0,0-.49-1.945,1.592,1.592,0,0,0-1.378-.69,1.566,1.566,0,0,0-1.361.686A3.736,3.736,0,0,0,95.592-4.4Zm7.238-.154a5.264,5.264,0,0,1,.984-3.329,3.187,3.187,0,0,1,2.652-1.262,2.8,2.8,0,0,1,2.3,1.013l.1-.847h2.175V-.3a3.839,3.839,0,0,1-.535,2.05A3.439,3.439,0,0,1,109,3.08a5.3,5.3,0,0,1-2.274.457,4.925,4.925,0,0,1-1.926-.394,3.418,3.418,0,0,1-1.419-1.017L104.44.664a2.81,2.81,0,0,0,2.175,1,2.057,2.057,0,0,0,1.486-.51,1.915,1.915,0,0,0,.531-1.448V-.772a2.775,2.775,0,0,1-2.183.938A3.179,3.179,0,0,1,103.83-1.1a5.262,5.262,0,0,1-1-3.358Zm2.4.171a3.3,3.3,0,0,0,.49,1.922,1.557,1.557,0,0,0,1.345.7,1.665,1.665,0,0,0,1.569-.826V-6.388a1.661,1.661,0,0,0-1.552-.826,1.566,1.566,0,0,0-1.357.709A3.715,3.715,0,0,0,105.229-4.386Z" transform="translate(0 16)" fill="#fff"/>
        <path id="Trazado_135699" data-name="Trazado 135699" d="M3.569-4.258V0H1.079V-12.086H5.794a5.455,5.455,0,0,1,2.395.5,3.67,3.67,0,0,1,1.59,1.415,3.946,3.946,0,0,1,.556,2.088,3.47,3.47,0,0,1-1.216,2.8A5.065,5.065,0,0,1,5.752-4.258Zm0-2.017H5.794A2.187,2.187,0,0,0,7.3-6.74a1.691,1.691,0,0,0,.519-1.328A1.994,1.994,0,0,0,7.3-9.5a1.953,1.953,0,0,0-1.444-.564H3.569ZM14.418,0H12.011V-8.981h2.407ZM11.87-11.306a1.181,1.181,0,0,1,.361-.888,1.356,1.356,0,0,1,.984-.349,1.36,1.36,0,0,1,.979.349,1.175,1.175,0,0,1,.365.888,1.178,1.178,0,0,1-.369.9,1.363,1.363,0,0,1-.975.349,1.363,1.363,0,0,1-.975-.349A1.178,1.178,0,0,1,11.87-11.306ZM18.926,0H16.519V-12.75h2.407Zm7.18,0a2.664,2.664,0,0,1-.241-.805A2.9,2.9,0,0,1,23.6.166,3.189,3.189,0,0,1,21.412-.6a2.456,2.456,0,0,1-.867-1.926A2.538,2.538,0,0,1,21.6-4.715a5.222,5.222,0,0,1,3.059-.772h1.1V-6a1.48,1.48,0,0,0-.32-1,1.257,1.257,0,0,0-1.009-.374,1.429,1.429,0,0,0-.95.291.987.987,0,0,0-.344.8h-2.4a2.41,2.41,0,0,1,.481-1.444A3.182,3.182,0,0,1,22.586-8.77a4.961,4.961,0,0,1,1.976-.378,3.92,3.92,0,0,1,2.635.834,2.918,2.918,0,0,1,.975,2.345v3.893A4.294,4.294,0,0,0,28.53-.141V0ZM24.122-1.668a2.066,2.066,0,0,0,.979-.237,1.554,1.554,0,0,0,.664-.635V-4.084h-.9q-1.8,0-1.917,1.245l-.008.141a.96.96,0,0,0,.315.739A1.225,1.225,0,0,0,24.122-1.668Zm9.753-2.889A5.413,5.413,0,0,1,34.818-7.9,3.057,3.057,0,0,1,37.4-9.147a2.751,2.751,0,0,1,2.167.979V-12.75h2.407V0H39.8l-.116-.955A2.823,2.823,0,0,1,37.378.166a3.049,3.049,0,0,1-2.544-1.249A5.587,5.587,0,0,1,33.875-4.557Zm2.4.171a3.565,3.565,0,0,0,.44,1.943,1.432,1.432,0,0,0,1.278.675,1.6,1.6,0,0,0,1.569-.942V-6.271a1.582,1.582,0,0,0-1.552-.942Q36.274-7.213,36.274-4.386ZM47.962.166a4.409,4.409,0,0,1-3.217-1.212A4.308,4.308,0,0,1,43.5-4.275v-.232a5.426,5.426,0,0,1,.523-2.42,3.838,3.838,0,0,1,1.482-1.644A4.159,4.159,0,0,1,47.7-9.147a3.727,3.727,0,0,1,2.9,1.162,4.722,4.722,0,0,1,1.058,3.3v.979H45.937a2.229,2.229,0,0,0,.7,1.411,2.12,2.12,0,0,0,1.482.531,2.589,2.589,0,0,0,2.167-1l1.179,1.32A3.6,3.6,0,0,1,50-.261,4.793,4.793,0,0,1,47.962.166Zm-.274-7.379a1.5,1.5,0,0,0-1.158.484,2.5,2.5,0,0,0-.569,1.384H49.3v-.192a1.786,1.786,0,0,0-.432-1.238A1.547,1.547,0,0,0,47.688-7.213ZM55.549,0H53.142V-12.75h2.407ZM68.183-3.171a1.278,1.278,0,0,0-.5-1.083,6.533,6.533,0,0,0-1.793-.8,12.71,12.71,0,0,1-2.05-.826,3.35,3.35,0,0,1-2.059-3,2.919,2.919,0,0,1,.552-1.747,3.6,3.6,0,0,1,1.585-1.2,5.967,5.967,0,0,1,2.32-.432,5.432,5.432,0,0,1,2.308.469,3.674,3.674,0,0,1,1.573,1.324,3.464,3.464,0,0,1,.56,1.942h-2.49a1.63,1.63,0,0,0-.523-1.291,2.15,2.15,0,0,0-1.469-.461,2.3,2.3,0,0,0-1.419.386,1.217,1.217,0,0,0-.506,1.017,1.166,1.166,0,0,0,.594.988,6.705,6.705,0,0,0,1.747.747,7.55,7.55,0,0,1,3.1,1.585,3.157,3.157,0,0,1,.971,2.357A2.909,2.909,0,0,1,69.494-.726a5.2,5.2,0,0,1-3.2.892,6.171,6.171,0,0,1-2.54-.51,4.019,4.019,0,0,1-1.747-1.4,3.582,3.582,0,0,1-.6-2.059h2.5q0,2,2.391,2a2.326,2.326,0,0,0,1.386-.361A1.175,1.175,0,0,0,68.183-3.171ZM80.293-4.408a5.387,5.387,0,0,1-.942,3.324A3.021,3.021,0,0,1,76.807.166a2.8,2.8,0,0,1-2.2-.946V3.453h-2.4V-8.981h2.225l.083.88a2.819,2.819,0,0,1,2.274-1.046,3.041,3.041,0,0,1,2.582,1.229,5.532,5.532,0,0,1,.921,3.387Zm-2.4-.183a3.554,3.554,0,0,0-.444-1.94,1.445,1.445,0,0,0-1.291-.683,1.57,1.57,0,0,0-1.552.866v3.689a1.6,1.6,0,0,0,1.569.891Q77.895-1.768,77.895-4.591Zm8.932-2.141a6.517,6.517,0,0,0-.863-.066,1.757,1.757,0,0,0-1.785.921V0h-2.4V-8.981h2.266l.066,1.071a2.223,2.223,0,0,1,2-1.237,2.514,2.514,0,0,1,.747.108ZM90.512,0H88.1V-8.981h2.407ZM87.963-11.306a1.181,1.181,0,0,1,.361-.888,1.356,1.356,0,0,1,.984-.349,1.36,1.36,0,0,1,.979.349,1.175,1.175,0,0,1,.365.888,1.178,1.178,0,0,1-.369.9,1.363,1.363,0,0,1-.975.349,1.363,1.363,0,0,1-.975-.349A1.178,1.178,0,0,1,87.963-11.306ZM94.7-8.981l.075,1.038a3.136,3.136,0,0,1,2.582-1.2,2.606,2.606,0,0,1,2.125.838A3.912,3.912,0,0,1,100.19-5.8V0h-2.4V-5.757a1.562,1.562,0,0,0-.332-1.111,1.484,1.484,0,0,0-1.1-.345,1.65,1.65,0,0,0-1.519.865V0h-2.4V-8.981Zm10.185-2.208v2.208h1.536v1.76H104.88v4.482a1.07,1.07,0,0,0,.191.714.959.959,0,0,0,.73.216,3.826,3.826,0,0,0,.706-.058V-.05a4.939,4.939,0,0,1-1.453.216,2.29,2.29,0,0,1-2.573-2.548V-7.222H101.17v-1.76h1.312v-2.208Z" transform="translate(2.659 37.113)" fill="#fff"/>
      </g>
      <path id="Trazado_135700" data-name="Trazado 135700" d="M8.351-5.254H3.569V-2H9.181V0h-8.1V-12.086H9.164v2.017H3.569v2.88H8.351Zm4.341-3.727.075,1.038a3.136,3.136,0,0,1,2.582-1.2,2.606,2.606,0,0,1,2.125.838A3.912,3.912,0,0,1,18.187-5.8V0h-2.4V-5.757a1.562,1.562,0,0,0-.332-1.111,1.484,1.484,0,0,0-1.1-.345,1.65,1.65,0,0,0-1.519.865V0h-2.4V-8.981ZM32.323-4.408a5.387,5.387,0,0,1-.942,3.324A3.021,3.021,0,0,1,28.837.166a2.8,2.8,0,0,1-2.2-.946V3.453h-2.4V-8.981h2.225l.083.88A2.819,2.819,0,0,1,28.82-9.147,3.041,3.041,0,0,1,31.4-7.919a5.532,5.532,0,0,1,.921,3.387Zm-2.4-.183a3.554,3.554,0,0,0-.444-1.94,1.445,1.445,0,0,0-1.291-.683,1.57,1.57,0,0,0-1.552.866v3.689a1.6,1.6,0,0,0,1.569.891Q29.924-1.768,29.924-4.591Zm8.932-2.141a6.517,6.517,0,0,0-.863-.066,1.757,1.757,0,0,0-1.785.921V0h-2.4V-8.981h2.266l.066,1.071a2.223,2.223,0,0,1,2-1.237,2.514,2.514,0,0,1,.747.108ZM39-4.574a5.327,5.327,0,0,1,.515-2.382,3.767,3.767,0,0,1,1.482-1.619,4.323,4.323,0,0,1,2.245-.573,4.09,4.09,0,0,1,2.968,1.112,4.464,4.464,0,0,1,1.282,3.021l.017.614a4.694,4.694,0,0,1-1.154,3.316,4.011,4.011,0,0,1-3.1,1.249,4.031,4.031,0,0,1-3.1-1.245A4.777,4.777,0,0,1,39-4.466Zm2.4.17a3.357,3.357,0,0,0,.481,1.958,1.588,1.588,0,0,0,1.378.678,1.592,1.592,0,0,0,1.361-.669,3.674,3.674,0,0,0,.49-2.141,3.324,3.324,0,0,0-.49-1.945,1.592,1.592,0,0,0-1.378-.69,1.566,1.566,0,0,0-1.361.686A3.735,3.735,0,0,0,41.4-4.4Zm7.238-.154a5.264,5.264,0,0,1,.984-3.329A3.187,3.187,0,0,1,52.27-9.147a2.8,2.8,0,0,1,2.3,1.013l.1-.847h2.175V-.3a3.839,3.839,0,0,1-.535,2.05A3.439,3.439,0,0,1,54.8,3.08a5.3,5.3,0,0,1-2.274.457A4.925,4.925,0,0,1,50.6,3.142a3.418,3.418,0,0,1-1.419-1.017L50.245.664a2.81,2.81,0,0,0,2.175,1,2.057,2.057,0,0,0,1.486-.51,1.915,1.915,0,0,0,.531-1.448V-.772a2.775,2.775,0,0,1-2.183.938A3.179,3.179,0,0,1,49.635-1.1a5.262,5.262,0,0,1-1-3.358Zm2.4.171a3.3,3.3,0,0,0,.49,1.922,1.557,1.557,0,0,0,1.345.7,1.665,1.665,0,0,0,1.569-.826V-6.388a1.661,1.661,0,0,0-1.552-.826,1.566,1.566,0,0,0-1.357.709A3.714,3.714,0,0,0,51.034-4.386Zm12.7-2.345A6.517,6.517,0,0,0,62.87-6.8a1.757,1.757,0,0,0-1.785.921V0h-2.4V-8.981h2.266l.066,1.071a2.223,2.223,0,0,1,2-1.237,2.514,2.514,0,0,1,.747.108Zm4.96,6.9a4.409,4.409,0,0,1-3.217-1.212,4.308,4.308,0,0,1-1.241-3.229v-.232a5.426,5.426,0,0,1,.523-2.42,3.838,3.838,0,0,1,1.482-1.644,4.159,4.159,0,0,1,2.187-.577,3.727,3.727,0,0,1,2.9,1.162,4.722,4.722,0,0,1,1.058,3.3v.979H66.668a2.229,2.229,0,0,0,.7,1.411,2.12,2.12,0,0,0,1.482.531,2.589,2.589,0,0,0,2.167-1L72.2-1.453A3.6,3.6,0,0,1,70.736-.261,4.793,4.793,0,0,1,68.694.166ZM68.42-7.213a1.5,1.5,0,0,0-1.158.484,2.5,2.5,0,0,0-.569,1.384H70.03v-.192A1.786,1.786,0,0,0,69.6-6.776,1.547,1.547,0,0,0,68.42-7.213ZM78.613-2.482a.773.773,0,0,0-.436-.693,4.95,4.95,0,0,0-1.4-.452q-3.2-.672-3.2-2.723a2.468,2.468,0,0,1,.992-2,4,4,0,0,1,2.594-.8,4.307,4.307,0,0,1,2.735.805A2.538,2.538,0,0,1,80.921-6.25h-2.4A1.161,1.161,0,0,0,78.19-7.1a1.405,1.405,0,0,0-1.038-.336,1.436,1.436,0,0,0-.938.274.865.865,0,0,0-.332.7.739.739,0,0,0,.378.643,3.885,3.885,0,0,0,1.274.423,10.407,10.407,0,0,1,1.511.4,2.482,2.482,0,0,1,1.9,2.416A2.343,2.343,0,0,1,79.891-.594a4.548,4.548,0,0,1-2.723.76,4.75,4.75,0,0,1-2-.4,3.363,3.363,0,0,1-1.374-1.1,2.565,2.565,0,0,1-.5-1.515h2.274a1.252,1.252,0,0,0,.473.979,1.877,1.877,0,0,0,1.179.34A1.737,1.737,0,0,0,78.26-1.8.814.814,0,0,0,78.613-2.482Zm3.5-2.092a5.326,5.326,0,0,1,.515-2.382,3.768,3.768,0,0,1,1.482-1.619,4.323,4.323,0,0,1,2.245-.573,4.09,4.09,0,0,1,2.968,1.112,4.464,4.464,0,0,1,1.282,3.021l.017.614A4.694,4.694,0,0,1,89.47-1.083a4.011,4.011,0,0,1-3.1,1.249,4.031,4.031,0,0,1-3.1-1.245,4.777,4.777,0,0,1-1.158-3.387Zm2.4.17A3.357,3.357,0,0,0,85-2.446a1.588,1.588,0,0,0,1.378.678,1.592,1.592,0,0,0,1.361-.669,3.674,3.674,0,0,0,.49-2.141,3.324,3.324,0,0,0-.49-1.945,1.592,1.592,0,0,0-1.378-.69A1.566,1.566,0,0,0,85-6.528,3.736,3.736,0,0,0,84.515-4.4Z" transform="translate(453.36 127.678)" fill="#fff"/>
      <g id="Grupo-3" data-name="Grupo" transform="translate(597.087 111.678)">
        <path id="Trazado_135701" data-name="Trazado 135701" d="M5.227-4.164H3.359V0H1.016V-11.375H5.242a4.778,4.778,0,0,1,3.109.9A3.1,3.1,0,0,1,9.445-7.937,3.5,3.5,0,0,1,8.941-6,3.437,3.437,0,0,1,7.414-4.758L9.875-.109V0H7.359Zm-1.867-1.9H5.25a1.936,1.936,0,0,0,1.367-.449A1.606,1.606,0,0,0,7.1-7.75a1.719,1.719,0,0,0-.457-1.266,1.9,1.9,0,0,0-1.4-.461H3.359Z" transform="translate(3.548 15)" fill="#fff"/>
        <path id="Trazado_135702" data-name="Trazado 135702" d="M5.055.166A4.409,4.409,0,0,1,1.839-1.046,4.308,4.308,0,0,1,.6-4.275v-.232a5.426,5.426,0,0,1,.523-2.42A3.838,3.838,0,0,1,2.6-8.571,4.159,4.159,0,0,1,4.79-9.147a3.727,3.727,0,0,1,2.9,1.162,4.722,4.722,0,0,1,1.058,3.3v.979H3.03a2.229,2.229,0,0,0,.7,1.411,2.12,2.12,0,0,0,1.482.531,2.589,2.589,0,0,0,2.167-1l1.179,1.32A3.6,3.6,0,0,1,7.1-.261,4.793,4.793,0,0,1,5.055.166ZM4.781-7.213a1.5,1.5,0,0,0-1.158.484,2.5,2.5,0,0,0-.569,1.384H6.392v-.192A1.786,1.786,0,0,0,5.96-6.776,1.547,1.547,0,0,0,4.781-7.213Z" transform="translate(14.779 16)" fill="#fff"/>
        <path id="Trazado_135703" data-name="Trazado 135703" d="M4.283-2.93,5.952-8.981H8.458L5.429,0H3.138L.108-8.981H2.615ZM12.044,0H9.637V-8.981h2.407ZM9.5-11.306a1.181,1.181,0,0,1,.361-.888,1.356,1.356,0,0,1,.984-.349,1.36,1.36,0,0,1,.979.349,1.175,1.175,0,0,1,.365.888,1.178,1.178,0,0,1-.369.9,1.363,1.363,0,0,1-.975.349,1.363,1.363,0,0,1-.975-.349A1.178,1.178,0,0,1,9.5-11.306Zm9.388,8.824a.773.773,0,0,0-.436-.693,4.95,4.95,0,0,0-1.4-.452q-3.2-.672-3.2-2.723a2.468,2.468,0,0,1,.992-2,4,4,0,0,1,2.594-.8,4.307,4.307,0,0,1,2.735.805A2.538,2.538,0,0,1,21.192-6.25h-2.4a1.161,1.161,0,0,0-.332-.851,1.405,1.405,0,0,0-1.038-.336,1.436,1.436,0,0,0-.938.274.865.865,0,0,0-.332.7.739.739,0,0,0,.378.643,3.885,3.885,0,0,0,1.274.423,10.407,10.407,0,0,1,1.511.4,2.482,2.482,0,0,1,1.9,2.416A2.343,2.343,0,0,1,20.163-.594a4.548,4.548,0,0,1-2.723.76,4.75,4.75,0,0,1-2-.4,3.363,3.363,0,0,1-1.374-1.1,2.565,2.565,0,0,1-.5-1.515h2.274a1.252,1.252,0,0,0,.473.979,1.877,1.877,0,0,0,1.179.34A1.737,1.737,0,0,0,18.531-1.8.814.814,0,0,0,18.884-2.482ZM25.292,0H22.885V-8.981h2.407ZM22.744-11.306a1.181,1.181,0,0,1,.361-.888,1.356,1.356,0,0,1,.984-.349,1.36,1.36,0,0,1,.979.349,1.175,1.175,0,0,1,.365.888,1.178,1.178,0,0,1-.369.9,1.363,1.363,0,0,1-.975.349,1.363,1.363,0,0,1-.975-.349A1.178,1.178,0,0,1,22.744-11.306Zm4.15,6.732a5.327,5.327,0,0,1,.515-2.382,3.768,3.768,0,0,1,1.482-1.619,4.323,4.323,0,0,1,2.245-.573A4.09,4.09,0,0,1,34.1-8.035a4.464,4.464,0,0,1,1.282,3.021L35.4-4.4a4.694,4.694,0,0,1-1.154,3.316,4.011,4.011,0,0,1-3.1,1.249,4.031,4.031,0,0,1-3.1-1.245,4.777,4.777,0,0,1-1.158-3.387Zm2.4.17a3.357,3.357,0,0,0,.481,1.958,1.588,1.588,0,0,0,1.378.678,1.592,1.592,0,0,0,1.361-.669A3.674,3.674,0,0,0,33-4.578a3.324,3.324,0,0,0-.49-1.945,1.592,1.592,0,0,0-1.378-.69,1.566,1.566,0,0,0-1.361.686A3.735,3.735,0,0,0,29.293-4.4Zm2.316-8.347h2.615l-2.3,2.573H29.974Zm7.479,3.769.075,1.038a3.136,3.136,0,0,1,2.582-1.2,2.606,2.606,0,0,1,2.125.838A3.912,3.912,0,0,1,44.583-5.8V0h-2.4V-5.757a1.562,1.562,0,0,0-.332-1.111,1.484,1.484,0,0,0-1.1-.345,1.65,1.65,0,0,0-1.519.865V0h-2.4V-8.981Z" transform="translate(24.173 16)" fill="#fff"/>
        <path id="Trazado_135704" data-name="Trazado 135704" d="M9.006-4.408a5.387,5.387,0,0,1-.942,3.324A3.021,3.021,0,0,1,5.52.166,2.8,2.8,0,0,1,3.32-.78V3.453H.921V-8.981H3.146l.083.88A2.819,2.819,0,0,1,5.5-9.147,3.041,3.041,0,0,1,8.085-7.919a5.532,5.532,0,0,1,.921,3.387Zm-2.4-.183a3.554,3.554,0,0,0-.444-1.94,1.445,1.445,0,0,0-1.291-.683,1.57,1.57,0,0,0-1.552.866v3.689a1.6,1.6,0,0,0,1.569.891Q6.607-1.768,6.607-4.591Zm3.511.017a5.327,5.327,0,0,1,.515-2.382,3.768,3.768,0,0,1,1.482-1.619,4.323,4.323,0,0,1,2.245-.573,4.09,4.09,0,0,1,2.968,1.112A4.464,4.464,0,0,1,18.61-5.014l.017.614a4.694,4.694,0,0,1-1.154,3.316,4.011,4.011,0,0,1-3.1,1.249,4.031,4.031,0,0,1-3.1-1.245,4.777,4.777,0,0,1-1.158-3.387Zm2.4.17A3.357,3.357,0,0,0,13-2.446a1.588,1.588,0,0,0,1.378.678,1.592,1.592,0,0,0,1.361-.669,3.674,3.674,0,0,0,.49-2.141,3.324,3.324,0,0,0-.49-1.945,1.592,1.592,0,0,0-1.378-.69A1.566,1.566,0,0,0,13-6.528,3.735,3.735,0,0,0,12.518-4.4ZM25.151-6.732a6.517,6.517,0,0,0-.863-.066,1.757,1.757,0,0,0-1.785.921V0H20.1V-8.981h2.266l.066,1.071a2.223,2.223,0,0,1,2-1.237,2.514,2.514,0,0,1,.747.108ZM38.624-4.408a5.387,5.387,0,0,1-.942,3.324A3.021,3.021,0,0,1,35.137.166a2.8,2.8,0,0,1-2.2-.946V3.453h-2.4V-8.981h2.225l.083.88a2.819,2.819,0,0,1,2.274-1.046A3.041,3.041,0,0,1,37.7-7.919a5.532,5.532,0,0,1,.921,3.387Zm-2.4-.183a3.554,3.554,0,0,0-.444-1.94,1.445,1.445,0,0,0-1.291-.683,1.57,1.57,0,0,0-1.552.866v3.689a1.6,1.6,0,0,0,1.569.891Q36.225-1.768,36.225-4.591ZM45.314,0a2.664,2.664,0,0,1-.241-.805,2.9,2.9,0,0,1-2.266.971A3.189,3.189,0,0,1,40.62-.6a2.456,2.456,0,0,1-.867-1.926,2.538,2.538,0,0,1,1.058-2.191,5.222,5.222,0,0,1,3.059-.772h1.1V-6a1.48,1.48,0,0,0-.32-1,1.257,1.257,0,0,0-1.009-.374,1.429,1.429,0,0,0-.95.291.987.987,0,0,0-.344.8h-2.4a2.41,2.41,0,0,1,.481-1.444A3.182,3.182,0,0,1,41.794-8.77a4.961,4.961,0,0,1,1.976-.378,3.92,3.92,0,0,1,2.635.834,2.918,2.918,0,0,1,.975,2.345v3.893a4.294,4.294,0,0,0,.357,1.934V0ZM43.33-1.668a2.066,2.066,0,0,0,.979-.237,1.554,1.554,0,0,0,.664-.635V-4.084h-.9q-1.8,0-1.917,1.245l-.008.141a.96.96,0,0,0,.315.739A1.225,1.225,0,0,0,43.33-1.668Z" transform="translate(0 37.113)" fill="#fff"/>
        <path id="Trazado_135705" data-name="Trazado 135705" d="M5.968-6.732A6.517,6.517,0,0,0,5.1-6.8a1.757,1.757,0,0,0-1.785.921V0H.921V-8.981H3.188l.066,1.071a2.223,2.223,0,0,1,2-1.237A2.514,2.514,0,0,1,6-9.04Z" transform="translate(49.988 37.113)" fill="#fff"/>
        <path id="Trazado_135706" data-name="Trazado 135706" d="M5.055.166A4.409,4.409,0,0,1,1.839-1.046,4.308,4.308,0,0,1,.6-4.275v-.232a5.426,5.426,0,0,1,.523-2.42A3.838,3.838,0,0,1,2.6-8.571,4.159,4.159,0,0,1,4.79-9.147a3.727,3.727,0,0,1,2.9,1.162,4.722,4.722,0,0,1,1.058,3.3v.979H3.03a2.229,2.229,0,0,0,.7,1.411,2.12,2.12,0,0,0,1.482.531,2.589,2.589,0,0,0,2.167-1l1.179,1.32A3.6,3.6,0,0,1,7.1-.261,4.793,4.793,0,0,1,5.055.166ZM4.781-7.213a1.5,1.5,0,0,0-1.158.484,2.5,2.5,0,0,0-.569,1.384H6.392v-.192A1.786,1.786,0,0,0,5.96-6.776,1.547,1.547,0,0,0,4.781-7.213ZM14.975-2.482a.773.773,0,0,0-.436-.693,4.95,4.95,0,0,0-1.4-.452q-3.2-.672-3.2-2.723a2.468,2.468,0,0,1,.992-2,4,4,0,0,1,2.594-.8,4.307,4.307,0,0,1,2.735.805A2.538,2.538,0,0,1,17.282-6.25h-2.4a1.161,1.161,0,0,0-.332-.851,1.405,1.405,0,0,0-1.038-.336,1.436,1.436,0,0,0-.938.274.865.865,0,0,0-.332.7.739.739,0,0,0,.378.643A3.885,3.885,0,0,0,13.9-5.4a10.407,10.407,0,0,1,1.511.4,2.482,2.482,0,0,1,1.9,2.416A2.343,2.343,0,0,1,16.253-.594a4.548,4.548,0,0,1-2.723.76,4.75,4.75,0,0,1-2-.4,3.363,3.363,0,0,1-1.374-1.1,2.565,2.565,0,0,1-.5-1.515h2.274a1.252,1.252,0,0,0,.473.979,1.877,1.877,0,0,0,1.179.34A1.737,1.737,0,0,0,14.622-1.8.814.814,0,0,0,14.975-2.482Z" transform="translate(56.244 37.113)" fill="#fff"/>
      </g>
      <path id="Trazado_135707" data-name="Trazado 135707" d="M8.351-5.254H3.569V-2H9.181V0h-8.1V-12.086H9.164v2.017H3.569v2.88H8.351Zm4.341-3.727.075,1.038a3.136,3.136,0,0,1,2.582-1.2,2.606,2.606,0,0,1,2.125.838A3.912,3.912,0,0,1,18.187-5.8V0h-2.4V-5.757a1.562,1.562,0,0,0-.332-1.111,1.484,1.484,0,0,0-1.1-.345,1.65,1.65,0,0,0-1.519.865V0h-2.4V-8.981ZM32.323-4.408a5.387,5.387,0,0,1-.942,3.324A3.021,3.021,0,0,1,28.837.166a2.8,2.8,0,0,1-2.2-.946V3.453h-2.4V-8.981h2.225l.083.88A2.819,2.819,0,0,1,28.82-9.147,3.041,3.041,0,0,1,31.4-7.919a5.532,5.532,0,0,1,.921,3.387Zm-2.4-.183a3.554,3.554,0,0,0-.444-1.94,1.445,1.445,0,0,0-1.291-.683,1.57,1.57,0,0,0-1.552.866v3.689a1.6,1.6,0,0,0,1.569.891Q29.924-1.768,29.924-4.591Zm8.932-2.141a6.517,6.517,0,0,0-.863-.066,1.757,1.757,0,0,0-1.785.921V0h-2.4V-8.981h2.266l.066,1.071a2.223,2.223,0,0,1,2-1.237,2.514,2.514,0,0,1,.747.108ZM45.389-.913A3.008,3.008,0,0,1,42.932.166a2.837,2.837,0,0,1-2.2-.83A3.543,3.543,0,0,1,39.952-3.1V-8.981h2.4v5.809q0,1.4,1.278,1.4a1.732,1.732,0,0,0,1.677-.848V-8.981h2.407V0H45.455ZM53.656.166A4.409,4.409,0,0,1,50.44-1.046,4.308,4.308,0,0,1,49.2-4.275v-.232a5.426,5.426,0,0,1,.523-2.42A3.838,3.838,0,0,1,51.2-8.571a4.159,4.159,0,0,1,2.187-.577,3.727,3.727,0,0,1,2.9,1.162,4.722,4.722,0,0,1,1.058,3.3v.979H51.631a2.229,2.229,0,0,0,.7,1.411,2.12,2.12,0,0,0,1.482.531,2.589,2.589,0,0,0,2.167-1l1.179,1.32A3.6,3.6,0,0,1,55.7-.261,4.793,4.793,0,0,1,53.656.166Zm-.274-7.379a1.5,1.5,0,0,0-1.158.484,2.5,2.5,0,0,0-.569,1.384h3.337v-.192a1.786,1.786,0,0,0-.432-1.238A1.547,1.547,0,0,0,53.382-7.213ZM66.8-4.408a5.439,5.439,0,0,1-.921,3.366A3.052,3.052,0,0,1,63.31.166,2.8,2.8,0,0,1,60.978-.955L60.87,0H58.711V-12.75h2.4v4.574a2.732,2.732,0,0,1,2.183-.971A3.077,3.077,0,0,1,65.871-7.94a5.446,5.446,0,0,1,.934,3.4Zm-2.4-.183a3.593,3.593,0,0,0-.432-1.994,1.458,1.458,0,0,0-1.287-.629,1.582,1.582,0,0,0-1.577.941v3.555a1.6,1.6,0,0,0,1.594.949,1.482,1.482,0,0,0,1.527-1.149A5.944,5.944,0,0,0,64.406-4.591ZM73.487,0a2.664,2.664,0,0,1-.241-.805A2.9,2.9,0,0,1,70.98.166,3.189,3.189,0,0,1,68.793-.6a2.456,2.456,0,0,1-.867-1.926,2.538,2.538,0,0,1,1.058-2.191,5.222,5.222,0,0,1,3.059-.772h1.1V-6a1.48,1.48,0,0,0-.32-1,1.257,1.257,0,0,0-1.009-.374,1.429,1.429,0,0,0-.95.291.987.987,0,0,0-.344.8h-2.4a2.41,2.41,0,0,1,.481-1.444A3.182,3.182,0,0,1,69.967-8.77a4.961,4.961,0,0,1,1.976-.378,3.92,3.92,0,0,1,2.635.834,2.918,2.918,0,0,1,.975,2.345v3.893a4.294,4.294,0,0,0,.357,1.934V0ZM71.5-1.668a2.066,2.066,0,0,0,.979-.237,1.554,1.554,0,0,0,.664-.635V-4.084h-.9q-1.8,0-1.917,1.245l-.008.141a.96.96,0,0,0,.315.739A1.225,1.225,0,0,0,71.5-1.668Zm10.758-.813a.773.773,0,0,0-.436-.693,4.95,4.95,0,0,0-1.4-.452q-3.2-.672-3.2-2.723a2.468,2.468,0,0,1,.992-2,4,4,0,0,1,2.594-.8,4.307,4.307,0,0,1,2.735.805A2.538,2.538,0,0,1,84.568-6.25h-2.4a1.161,1.161,0,0,0-.332-.851A1.405,1.405,0,0,0,80.8-7.437a1.436,1.436,0,0,0-.938.274.865.865,0,0,0-.332.7.739.739,0,0,0,.378.643,3.885,3.885,0,0,0,1.274.423,10.407,10.407,0,0,1,1.511.4,2.482,2.482,0,0,1,1.9,2.416A2.343,2.343,0,0,1,83.539-.594a4.548,4.548,0,0,1-2.723.76,4.75,4.75,0,0,1-2-.4,3.363,3.363,0,0,1-1.374-1.1,2.565,2.565,0,0,1-.5-1.515h2.274a1.252,1.252,0,0,0,.473.979,1.877,1.877,0,0,0,1.179.34A1.737,1.737,0,0,0,81.908-1.8.814.814,0,0,0,82.261-2.482Z" transform="translate(715.258 127.678)" fill="#fff"/>
      <path id="Trazado_135708" data-name="Trazado 135708" d="M10.916,0H8.425V-5.18H3.569V0H1.079V-12.086h2.49v4.9H8.425v-4.9h2.49Zm6.151.166A4.409,4.409,0,0,1,13.85-1.046a4.308,4.308,0,0,1-1.241-3.229v-.232a5.426,5.426,0,0,1,.523-2.42,3.838,3.838,0,0,1,1.482-1.644A4.159,4.159,0,0,1,16.8-9.147a3.727,3.727,0,0,1,2.9,1.162,4.722,4.722,0,0,1,1.058,3.3v.979H15.041a2.229,2.229,0,0,0,.7,1.411,2.12,2.12,0,0,0,1.482.531,2.589,2.589,0,0,0,2.167-1l1.179,1.32A3.6,3.6,0,0,1,19.108-.261,4.793,4.793,0,0,1,17.066.166Zm-.274-7.379a1.5,1.5,0,0,0-1.158.484,2.5,2.5,0,0,0-.569,1.384H18.4v-.192a1.786,1.786,0,0,0-.432-1.238A1.547,1.547,0,0,0,16.792-7.213Zm9.064,5.445a1.573,1.573,0,0,0,1.079-.365,1.28,1.28,0,0,0,.432-.971h2.25a3.077,3.077,0,0,1-.5,1.673A3.286,3.286,0,0,1,27.779-.253,4.2,4.2,0,0,1,25.9.166,3.9,3.9,0,0,1,22.86-1.058a4.845,4.845,0,0,1-1.112-3.383V-4.6a4.79,4.79,0,0,1,1.1-3.312,3.854,3.854,0,0,1,3.03-1.237,3.778,3.778,0,0,1,2.7.959,3.4,3.4,0,0,1,1.033,2.552h-2.25a1.648,1.648,0,0,0-.432-1.139,1.439,1.439,0,0,0-1.1-.438,1.445,1.445,0,0,0-1.266.611,3.541,3.541,0,0,0-.427,1.983v.249a3.586,3.586,0,0,0,.423,2A1.463,1.463,0,0,0,25.857-1.768ZM33.328-8a2.994,2.994,0,0,1,2.4-1.146q2.922,0,2.963,3.4V0h-2.4V-5.7a1.675,1.675,0,0,0-.332-1.144,1.422,1.422,0,0,0-1.1-.37,1.632,1.632,0,0,0-1.527.815V0h-2.4V-12.75h2.4Zm6.8,3.428a5.327,5.327,0,0,1,.515-2.382,3.767,3.767,0,0,1,1.482-1.619,4.323,4.323,0,0,1,2.245-.573,4.09,4.09,0,0,1,2.968,1.112,4.464,4.464,0,0,1,1.282,3.021l.017.614A4.694,4.694,0,0,1,47.48-1.083a4.011,4.011,0,0,1-3.1,1.249,4.031,4.031,0,0,1-3.1-1.245,4.777,4.777,0,0,1-1.158-3.387Zm2.4.17a3.357,3.357,0,0,0,.481,1.958,1.588,1.588,0,0,0,1.378.678,1.592,1.592,0,0,0,1.361-.669,3.674,3.674,0,0,0,.49-2.141,3.324,3.324,0,0,0-.49-1.945,1.592,1.592,0,0,0-1.378-.69,1.566,1.566,0,0,0-1.361.686A3.735,3.735,0,0,0,42.525-4.4Z" transform="translate(855.081 127.678)" fill="#fff"/>
      <path id="Trazado_135709" data-name="Trazado 135709" d="M1.079,0V-12.086H5.313a5.559,5.559,0,0,1,3.337.843A2.881,2.881,0,0,1,9.787-8.774,2.731,2.731,0,0,1,9.33-7.209a2.637,2.637,0,0,1-1.27.992,2.551,2.551,0,0,1,1.465.938,2.773,2.773,0,0,1,.535,1.727A3.19,3.19,0,0,1,8.948-.913,5.007,5.007,0,0,1,5.777,0Zm2.49-5.263V-2H5.7A2.059,2.059,0,0,0,7.076-2.42,1.437,1.437,0,0,0,7.57-3.578,1.518,1.518,0,0,0,5.852-5.263Zm0-1.76H5.412Q7.3-7.056,7.3-8.525a1.388,1.388,0,0,0-.477-1.183,2.51,2.51,0,0,0-1.507-.361H3.569ZM14.3,0H11.9V-12.75H14.3Zm1.6-4.574a5.327,5.327,0,0,1,.515-2.382A3.768,3.768,0,0,1,17.9-8.575a4.323,4.323,0,0,1,2.245-.573,4.09,4.09,0,0,1,2.968,1.112A4.464,4.464,0,0,1,24.4-5.014l.017.614a4.694,4.694,0,0,1-1.154,3.316,4.011,4.011,0,0,1-3.1,1.249,4.031,4.031,0,0,1-3.1-1.245A4.777,4.777,0,0,1,15.9-4.466Zm2.4.17a3.357,3.357,0,0,0,.481,1.958,1.588,1.588,0,0,0,1.378.678,1.592,1.592,0,0,0,1.361-.669,3.674,3.674,0,0,0,.49-2.141,3.324,3.324,0,0,0-.49-1.945,1.592,1.592,0,0,0-1.378-.69,1.566,1.566,0,0,0-1.361.686A3.735,3.735,0,0,0,18.3-4.4Zm7.213-.17a5.369,5.369,0,0,1,.942-3.345,3.08,3.08,0,0,1,2.586-1.229,2.758,2.758,0,0,1,2.3,1.1l.158-.938H33.61V3.453H31.2V-.772a2.765,2.765,0,0,1-2.175.938,3.057,3.057,0,0,1-2.557-1.245A5.632,5.632,0,0,1,25.517-4.574Zm2.4.17a3.522,3.522,0,0,0,.452,1.962,1.448,1.448,0,0,0,1.274.673A1.613,1.613,0,0,0,31.2-2.649V-6.365a1.6,1.6,0,0,0-1.544-.848,1.466,1.466,0,0,0-1.287.673A3.889,3.889,0,0,0,27.916-4.4ZM40.873-.913A3.008,3.008,0,0,1,38.416.166a2.837,2.837,0,0,1-2.2-.83A3.543,3.543,0,0,1,35.436-3.1V-8.981h2.4v5.809q0,1.4,1.278,1.4a1.732,1.732,0,0,0,1.677-.848V-8.981H43.2V0H40.939ZM49.141.166a4.409,4.409,0,0,1-3.217-1.212,4.308,4.308,0,0,1-1.241-3.229v-.232a5.426,5.426,0,0,1,.523-2.42,3.838,3.838,0,0,1,1.482-1.644,4.159,4.159,0,0,1,2.187-.577,3.727,3.727,0,0,1,2.9,1.162,4.722,4.722,0,0,1,1.058,3.3v.979H47.115a2.229,2.229,0,0,0,.7,1.411,2.12,2.12,0,0,0,1.482.531,2.589,2.589,0,0,0,2.167-1l1.179,1.32A3.6,3.6,0,0,1,51.183-.261,4.793,4.793,0,0,1,49.141.166Zm-.274-7.379a1.5,1.5,0,0,0-1.158.484,2.5,2.5,0,0,0-.569,1.384h3.337v-.192a1.786,1.786,0,0,0-.432-1.238A1.547,1.547,0,0,0,48.867-7.213ZM59.4,0a2.664,2.664,0,0,1-.241-.805,2.9,2.9,0,0,1-2.266.971A3.189,3.189,0,0,1,54.706-.6a2.456,2.456,0,0,1-.867-1.926A2.538,2.538,0,0,1,54.9-4.715a5.222,5.222,0,0,1,3.059-.772h1.1V-6a1.48,1.48,0,0,0-.32-1,1.257,1.257,0,0,0-1.009-.374,1.429,1.429,0,0,0-.95.291.987.987,0,0,0-.344.8h-2.4a2.41,2.41,0,0,1,.481-1.444A3.182,3.182,0,0,1,55.881-8.77a4.961,4.961,0,0,1,1.976-.378,3.92,3.92,0,0,1,2.635.834,2.918,2.918,0,0,1,.975,2.345v3.893a4.294,4.294,0,0,0,.357,1.934V0ZM57.417-1.668a2.066,2.066,0,0,0,.979-.237,1.554,1.554,0,0,0,.664-.635V-4.084h-.9q-1.8,0-1.917,1.245l-.008.141a.96.96,0,0,0,.315.739A1.225,1.225,0,0,0,57.417-1.668Zm5.52-2.889A5.413,5.413,0,0,1,63.879-7.9a3.057,3.057,0,0,1,2.577-1.245,2.751,2.751,0,0,1,2.167.979V-12.75H71.03V0H68.863l-.116-.955A2.823,2.823,0,0,1,66.439.166,3.049,3.049,0,0,1,63.9-1.083,5.587,5.587,0,0,1,62.937-4.557Zm2.4.171a3.565,3.565,0,0,0,.44,1.943,1.432,1.432,0,0,0,1.278.675,1.6,1.6,0,0,0,1.569-.942V-6.271a1.582,1.582,0,0,0-1.552-.942Q65.335-7.213,65.335-4.386Zm7.18-.187a5.326,5.326,0,0,1,.515-2.382,3.768,3.768,0,0,1,1.482-1.619,4.323,4.323,0,0,1,2.245-.573,4.09,4.09,0,0,1,2.968,1.112,4.464,4.464,0,0,1,1.282,3.021l.017.614A4.694,4.694,0,0,1,79.87-1.083a4.011,4.011,0,0,1-3.1,1.249,4.031,4.031,0,0,1-3.1-1.245,4.777,4.777,0,0,1-1.158-3.387Zm2.4.17A3.357,3.357,0,0,0,75.4-2.446a1.588,1.588,0,0,0,1.378.678,1.592,1.592,0,0,0,1.361-.669,3.674,3.674,0,0,0,.49-2.141,3.324,3.324,0,0,0-.49-1.945,1.592,1.592,0,0,0-1.378-.69,1.566,1.566,0,0,0-1.361.686A3.736,3.736,0,0,0,74.915-4.4ZM87.366-2.482a.773.773,0,0,0-.436-.693,4.95,4.95,0,0,0-1.4-.452q-3.2-.672-3.2-2.723a2.468,2.468,0,0,1,.992-2,4,4,0,0,1,2.594-.8,4.307,4.307,0,0,1,2.735.805A2.538,2.538,0,0,1,89.673-6.25h-2.4a1.161,1.161,0,0,0-.332-.851A1.405,1.405,0,0,0,85.9-7.437a1.436,1.436,0,0,0-.938.274.865.865,0,0,0-.332.7.739.739,0,0,0,.378.643,3.885,3.885,0,0,0,1.274.423A10.407,10.407,0,0,1,87.8-5a2.482,2.482,0,0,1,1.9,2.416A2.343,2.343,0,0,1,88.644-.594a4.548,4.548,0,0,1-2.723.76,4.75,4.75,0,0,1-2-.4,3.363,3.363,0,0,1-1.374-1.1,2.565,2.565,0,0,1-.5-1.515h2.274a1.252,1.252,0,0,0,.473.979,1.877,1.877,0,0,0,1.179.34A1.737,1.737,0,0,0,87.013-1.8.814.814,0,0,0,87.366-2.482Z" transform="translate(976.209 127.678)" fill="#fff"/>
      <line id="Línea_321" data-name="Línea 321" x2="1029.99" transform="translate(78.07 89.577)" fill="none" stroke="#3a8f9c" stroke-miterlimit="10" stroke-width="1"/>
      <line id="Línea_322" data-name="Línea 322" x2="1029.99" transform="translate(78.07 176.973)" fill="none" stroke="#3a8f9c" stroke-miterlimit="10" stroke-width="1"/>
      <line id="Línea_323" data-name="Línea 323" x2="840.987" transform="translate(267.074 264.379)" fill="none" stroke="#3a8f9c" stroke-miterlimit="10" stroke-width="1"/>
      <line id="Línea_324" data-name="Línea 324" x2="840.987" transform="translate(267.074 351.774)" fill="none" stroke="#3a8f9c" stroke-miterlimit="10" stroke-width="1"/>
      <line id="Línea_325" data-name="Línea 325" x2="840.987" transform="translate(267.074 439.17)" fill="none" stroke="#3a8f9c" stroke-miterlimit="10" stroke-width="1"/>
      <line id="Línea_326" data-name="Línea 326" x2="840.987" transform="translate(267.074 526.565)" fill="none" stroke="#3a8f9c" stroke-miterlimit="10" stroke-width="1"/>
      <line id="Línea_327" data-name="Línea 327" y2="524.393" transform="translate(267.074 89.577)" fill="none" stroke="#3a8f9c" stroke-miterlimit="10" stroke-width="1"/>
      <line id="Línea_328" data-name="Línea 328" y2="524.393" transform="translate(427.76 89.577)" fill="none" stroke="#3a8f9c" stroke-miterlimit="10" stroke-width="1"/>
      <line id="Línea_329" data-name="Línea 329" y2="524.393" transform="translate(577.352 89.577)" fill="none" stroke="#3a8f9c" stroke-miterlimit="10" stroke-width="1"/>
      <line id="Línea_330" data-name="Línea 330" y2="524.393" transform="translate(697.806 89.577)" fill="none" stroke="#3a8f9c" stroke-miterlimit="10" stroke-width="1"/>
      <line id="Línea_331" data-name="Línea 331" y2="524.393" transform="translate(818.269 89.577)" fill="none" stroke="#3a8f9c" stroke-miterlimit="10" stroke-width="1"/>
      <line id="Línea_332" data-name="Línea 332" y2="524.393" transform="translate(946.406 89.577)" fill="none" stroke="#3a8f9c" stroke-miterlimit="10" stroke-width="1"/>
      <path id="Trazado_133029" data-name="Trazado 133029" d="M100.627,206.19l50.7,2.747s-1.955,46.7-2.287,52.588c0,0-17.116-.225-23.772-.528S97.45,256.97,97.45,256.97Z" transform="translate(-0.437 -3.685)" fill="url(#linear-gradient)"/>
      <path id="Trazado_133030" data-name="Trazado 133030" d="M148.827,388.3l50.711,2.776s-1.955,46.694-2.3,52.588c0,0-17.106-.225-23.762-.528s-27.829-4.027-27.829-4.027Z" transform="translate(-1.523 -7.788)" fill="url(#linear-gradient-2)"/>
      <path id="Trazado_133031" data-name="Trazado 133031" d="M195.657,481l50.7,2.766s-1.955,46.7-2.287,52.588c0,0-17.115-.225-23.772-.528s-27.819-4-27.819-4Z" transform="translate(-2.578 -9.877)" fill="url(#linear-gradient-3)"/>
      <path id="Trazado_133032" data-name="Trazado 133032" d="M140.927,546.24l50.711,2.766s-1.955,46.7-2.3,52.588c0,0-17.106-.215-23.762-.518s-27.829-4.037-27.829-4.037Z" transform="translate(-1.345 -11.346)" fill="url(#linear-gradient-4)"/>
      <path id="Trazado_133033" data-name="Trazado 133033" d="M303.35,198.449l50.828-1.329s1.828,46.762,1.955,52.656c0,0-17.1,1.163-23.762,1.4s-28.092-1.779-28.092-1.779Z" transform="translate(-5.075 -3.481)" fill="url(#linear-gradient-5)"/>
      <path id="Trazado_133034" data-name="Trazado 133034" d="M106.45,390.289l50.828-1.329s1.828,46.762,1.955,52.656c0,0-17.1,1.163-23.762,1.4s-28.093-1.779-28.093-1.779Z" transform="translate(-0.639 -7.803)" fill="url(#linear-gradient-6)"/>
      <path id="Trazado_133035" data-name="Trazado 133035" d="M349.83,379.978l48.561-14.848s14.242,44.524,15.933,50.174c0,0-16.138,5.679-22.482,7.683s-27.516,5.787-27.516,5.787Z" transform="translate(-6.123 -7.266)" fill="url(#linear-gradient-7)"/>
      <path id="Trazado_133036" data-name="Trazado 133036" d="M303.35,372.17l50.828-1.32s1.828,46.752,1.955,52.656c0,0-17.1,1.163-23.762,1.4s-28.092-1.779-28.092-1.779Z" transform="translate(-5.075 -7.395)" fill="url(#linear-gradient-8)"/>
      <path id="Trazado_133037" data-name="Trazado 133037" d="M495.157,464.7l50.711,2.766s-1.955,46.7-2.3,52.588c0,0-17.106-.215-23.762-.518S492,515.5,492,515.5Z" transform="translate(-9.326 -9.509)" fill="url(#linear-gradient-9)"/>
      <path id="Trazado_133038" data-name="Trazado 133038" d="M761.427,196.46l50.7,2.776s-1.955,46.694-2.287,52.588c0,0-17.116-.225-23.772-.528s-27.819-4.027-27.819-4.027Z" transform="translate(-15.324 -3.466)" fill="url(#linear-gradient-10)"/>
      <path id="Trazado_133039" data-name="Trazado 133039" d="M744.717,385l50.7,2.766s-1.955,46.7-2.287,52.588c0,0-17.116-.215-23.762-.518s-27.829-4.008-27.829-4.008Z" transform="translate(-14.947 -7.714)" fill="url(#linear-gradient-11)"/>
      <path id="Trazado_133040" data-name="Trazado 133040" d="M452.78,466.68l50.828-1.32s1.838,46.752,1.955,52.656c0,0-17.086,1.163-23.753,1.4s-28.092-1.779-28.092-1.779Z" transform="translate(-8.442 -9.524)" fill="url(#linear-gradient-12)"/>
      <path id="Trazado_133041" data-name="Trazado 133041" d="M186.35,208.169l50.828-1.329s1.828,46.762,1.955,52.666c0,0-17.1,1.153-23.762,1.388s-28.093-1.779-28.093-1.779Z" transform="translate(-2.439 -3.7)" fill="url(#linear-gradient-13)"/>
      <path id="Trazado_133042" data-name="Trazado 133042" d="M133.989,214.85l50.731.088s.528,46.694.479,52.588c0,0-17.076.674-23.733.733S133.49,265.7,133.49,265.7Z" transform="translate(-1.249 -3.88)" fill="url(#linear-gradient-14)"/>
      <path id="Trazado_133043" data-name="Trazado 133043" d="M99.059,300l50.731.088s.518,46.694.479,52.588c0,0-17.086.684-23.733.733s-27.975-2.581-27.975-2.581Z" transform="translate(-0.462 -5.799)" fill="url(#linear-gradient-15)"/>
      <path id="Trazado_133044" data-name="Trazado 133044" d="M97,477.98l50.613-3.45s3.793,46.537,4.164,52.422c0,0-17,1.867-23.625,2.385s-28.083-.6-28.083-.6Z" transform="translate(-0.426 -9.731)" fill="url(#linear-gradient-16)"/>
      <path id="Trazado_133045" data-name="Trazado 133045" d="M871.418,283.32l50.74,2.307s-1.505,46.723-1.808,52.617c0,0-17.116-.059-23.772-.3s-27.868-3.773-27.868-3.773Z" transform="translate(-17.813 -5.423)" fill="url(#linear-gradient-17)"/>
      <path id="Trazado_133046" data-name="Trazado 133046" d="M622.678,380.16l50.74,2.3s-1.505,46.733-1.808,52.627c0,0-17.116-.059-23.772-.3S620,431.008,620,431.008Z" transform="translate(-12.209 -7.605)" fill="url(#linear-gradient-18)"/>
      <path id="Trazado_133047" data-name="Trazado 133047" d="M337.468,554.77l50.75,2.3S386.7,603.8,386.41,609.733c0,0-17.116-.059-23.782-.293s-27.868-3.783-27.868-3.783Z" transform="translate(-5.783 -11.539)" fill="url(#linear-gradient-19)"/>
      <path id="Trazado_133048" data-name="Trazado 133048" d="M168.066,474.54l50.7,2.3s-1.505,46.733-1.808,52.627c0,0-17.116-.068-23.772-.3s-27.877-3.783-27.877-3.783Z" transform="translate(-1.965 -9.731)" fill="url(#linear-gradient-20)"/>
      <path id="Trazado_133049" data-name="Trazado 133049" d="M148.855,297.18l50.741,2.864s-2.023,46.733-2.395,52.617c0,0-17.116-.254-23.782-.567s-27.838-4.086-27.838-4.086Z" transform="translate(-1.521 -5.735)" fill="url(#linear-gradient-21)"/>
      <path id="Trazado_133050" data-name="Trazado 133050" d="M337.745,203.38l50.741,2.864s-2.023,46.723-2.395,52.617c0,0-17.116-.254-23.772-.567s-27.838-4.086-27.838-4.086Z" transform="translate(-5.777 -3.622)" fill="url(#linear-gradient-22)"/>
      <path id="Trazado_133051" data-name="Trazado 133051" d="M876.515,460.27l50.74,2.864s-2.023,46.723-2.395,52.588c0,0-17.115-.254-23.772-.567s-27.838-4.086-27.838-4.086Z" transform="translate(-17.915 -9.41)" fill="url(#linear-gradient-23)"/>
      <path id="Trazado_133052" data-name="Trazado 133052" d="M109.085,546.18l50.741,2.864s-2.023,46.723-2.395,52.617c0,0-17.116-.254-23.772-.567s-27.838-4.086-27.838-4.086Z" transform="translate(-0.625 -11.345)" fill="url(#linear-gradient-24)"/>
      <path id="Trazado_133053" data-name="Trazado 133053" d="M487.927,196.46l50.7,2.776s-1.955,46.694-2.287,52.588c0,0-17.116-.225-23.772-.528s-27.819-4.027-27.819-4.027Z" transform="translate(-9.162 -3.466)" fill="url(#linear-gradient-25)"/>
      <path id="Trazado_133054" data-name="Trazado 133054" d="M456.055,196.4l50.731,2.864s-2.023,46.723-2.385,52.617c0,0-17.125-.254-23.782-.567s-27.838-4.086-27.838-4.086Z" transform="translate(-8.442 -3.465)" fill="url(#linear-gradient-26)"/>
      <path id="Trazado_133055" data-name="Trazado 133055" d="M204.044,298.92l50.711,2.864s-2.023,46.723-2.395,52.617c0,0-17.115-.254-23.782-.567s-27.829-4.086-27.829-4.086Z" transform="translate(-2.764 -5.774)" fill="url(#linear-gradient-27)"/>
    </g>
  </g>
</svg>
