<svg xmlns="http://www.w3.org/2000/svg" width="60" height="60" viewBox="0 0 60 60">
  <g id="Grupo_83009" data-name="Grupo 83009" transform="translate(-810 -6444)">
    <circle id="Elipse_4809" data-name="Elipse 4809" cx="30" cy="30" r="30" transform="translate(810 6444)" fill="#ffca28"/>
    <path id="Trazado_135681" data-name="Trazado 135681" d="M16.187,29H1.3V25.777L8.159,18.57q2.534-2.886,2.534-4.585a3.189,3.189,0,0,0-.6-2.095,2.144,2.144,0,0,0-1.743-.718,2.171,2.171,0,0,0-1.831.959,3.943,3.943,0,0,0-.7,2.4H.864A7,7,0,0,1,1.846,10.9,6.882,6.882,0,0,1,4.57,8.3a8.094,8.094,0,0,1,3.9-.937,7.962,7.962,0,0,1,5.325,1.6,5.7,5.7,0,0,1,1.868,4.585A6.658,6.658,0,0,1,15.19,16a10.76,10.76,0,0,1-1.458,2.5,36.715,36.715,0,0,1-3.186,3.508L7.793,25.191h8.394Z" transform="translate(832 6456)" fill="#fff"/>
  </g>
</svg>
