<svg xmlns="http://www.w3.org/2000/svg" xmlns:xlink="http://www.w3.org/1999/xlink" width="100" height="100.004" viewBox="0 0 100 100.004">
  <defs>
    <linearGradient id="linear-gradient" x1="32.861" y1="-126.53" x2="33.388" y2="-127.814" gradientUnits="objectBoundingBox">
      <stop offset="0" stop-color="#5c3333"/>
      <stop offset="1"/>
    </linearGradient>
    <linearGradient id="linear-gradient-2" x1="32.568" y1="-103.715" x2="33.086" y2="-104.904" xlink:href="#linear-gradient"/>
  </defs>
  <g id="Capa_1" data-name="Capa 1" transform="translate(-10 -10)">
    <g id="Grupo_80384" data-name="Grupo 80384">
      <circle id="Elipse_5117" data-name="Elipse 5117" cx="50" cy="50" r="50" transform="translate(10 10)" fill="#1565c0"/>
      <g id="Grupo_80383" data-name="Grupo 80383">
        <path id="Trazado_119057" data-name="Trazado 119057" d="M23.36,94a50.27,50.27,0,0,0,15.4,11.26c4.07-5.79,7.18-10.82,7.34-11.08L40,80.73C33.05,82.76,27.51,88.44,23.36,94Z" fill="#6d7db3"/>
        <path id="Trazado_119058" data-name="Trazado 119058" d="M39.67,48.45c-2,.65-2.89,3.57-2,6.51s3.23,4.79,5.23,4.13,2.89-3.57,2-6.51S41.67,47.79,39.67,48.45Z" fill="#d78c74"/>
        <path id="Trazado_119059" data-name="Trazado 119059" d="M59.61,61.22h0c-4.32-.07-7.72,1.39-7.77,4.48l-1.3,14.75c0,3.09,4.32,3.57,8.65,3.64s7.86-.44,7.91-3.53l-.22-13.87C66.93,63.6,63.94,61.29,59.61,61.22Z" fill="#d78c74"/>
        <path id="Trazado_119060" data-name="Trazado 119060" d="M52.51,22a.45.45,0,0,0,0-.08.45.45,0,0,1,0,.08Z" fill="#381911"/>
        <path id="Trazado_119061" data-name="Trazado 119061" d="M74.52,31c-1.12-6.93-20.66-10.2-26.42-.69a84.62,84.62,0,0,0-5.81,20.82V51S37,72.73,56.32,74.08,77.83,65.23,77,52.52h0A92.751,92.751,0,0,0,74.52,31Z" fill="#e5a185"/>
        <g id="Grupo_80381" data-name="Grupo 80381" opacity="0.38">
          <path id="Trazado_119062" data-name="Trazado 119062" d="M49.16,47.64c-3.84-.06-7,3.29-7.06,7.48s3,7.62,6.85,7.67,7-3.3,7.06-7.48S53,47.69,49.16,47.64Z" fill="#e5a185"/>
          <path id="Trazado_119063" data-name="Trazado 119063" d="M49.16,47.68a7.228,7.228,0,0,0-7,7.44c0,4.16,3,7.57,6.81,7.62a7.193,7.193,0,0,0,7-7.43C55.97,51.15,53,47.74,49.16,47.68Z" fill="#e5a084"/>
          <path id="Trazado_119064" data-name="Trazado 119064" d="M49.16,47.73a7.267,7.267,0,0,0-7,7.39c-.08,4.13,3,7.52,6.76,7.57s6.92-3.25,7-7.38S53,47.78,49.16,47.73Z" fill="#e59f83"/>
          <path id="Trazado_119065" data-name="Trazado 119065" d="M49.16,47.78c-3.77-.05-6.87,3.23-6.93,7.34s3,7.47,6.72,7.53,6.87-3.24,6.93-7.34S52.93,47.83,49.16,47.78Z" fill="#e49e83"/>
          <path id="Trazado_119066" data-name="Trazado 119066" d="M49.16,47.83c-3.75-.06-6.83,3.21-6.89,7.29A7.11,7.11,0,0,0,49,62.6c3.79.05,6.83-3.21,6.89-7.29A7.143,7.143,0,0,0,49.16,47.83Z" fill="#e49d82"/>
          <path id="Trazado_119067" data-name="Trazado 119067" d="M49.16,47.87A7.365,7.365,0,0,0,49,62.55c3.77.05,6.79-3.19,6.84-7.24S52.88,47.92,49.16,47.87Z" fill="#e49c81"/>
          <path id="Trazado_119068" data-name="Trazado 119068" d="M49.16,47.92c-3.7-.05-6.74,3.17-6.8,7.2s2.9,7.33,6.59,7.38,6.74-3.17,6.8-7.2A7.024,7.024,0,0,0,49.16,47.92Z" fill="#e49b80"/>
          <path id="Trazado_119069" data-name="Trazado 119069" d="M49.15,48a7,7,0,0,0-6.75,7.15c-.06,4,2.88,7.29,6.56,7.34s6.69-3.15,6.75-7.16S52.83,48,49.15,48Z" fill="#e49a80"/>
          <path id="Trazado_119070" data-name="Trazado 119070" d="M49.15,48c-3.65-.06-6.65,3.13-6.7,7.1s2.86,7.24,6.51,7.29,6.65-3.13,6.7-7.11A6.91,6.91,0,0,0,49.15,48Z" fill="#e3997f"/>
          <path id="Trazado_119071" data-name="Trazado 119071" d="M49.15,48.06c-3.62-.05-6.6,3.11-6.66,7.06a6.872,6.872,0,0,0,6.47,7.24c3.63.05,6.61-3.11,6.66-7.06S52.78,48.11,49.15,48.06Z" fill="#e3987e"/>
          <path id="Trazado_119072" data-name="Trazado 119072" d="M49.15,48.11a6.866,6.866,0,0,0-6.62,7c-.06,3.91,2.83,7.15,6.43,7.2a6.84,6.84,0,0,0,6.62-7C55.63,51.38,52.75,48.16,49.15,48.11Z" fill="#e3977d"/>
          <path id="Trazado_119073" data-name="Trazado 119073" d="M49.15,48.16a6.78,6.78,0,0,0-6.57,7A6.78,6.78,0,0,0,49,62.27a7.08,7.08,0,0,0,.15-14.11Z" fill="#e3967c"/>
          <path id="Trazado_119074" data-name="Trazado 119074" d="M49.15,48.2a6.75,6.75,0,0,0-6.53,6.92c0,3.87,2.79,7.05,6.34,7.1a6.74,6.74,0,0,0,6.53-6.92C55.54,51.43,52.7,48.25,49.15,48.2Z" fill="#e2957c"/>
          <path id="Trazado_119075" data-name="Trazado 119075" d="M49.15,48.25A6.972,6.972,0,0,0,49,62.17a6.984,6.984,0,0,0,.15-13.92Z" fill="#e2947b"/>
          <path id="Trazado_119076" data-name="Trazado 119076" d="M49.15,48.3A6.94,6.94,0,0,0,49,62.13a6.94,6.94,0,0,0,.19-13.83Z" fill="#e2937a"/>
          <path id="Trazado_119077" data-name="Trazado 119077" d="M49.15,48.35A6.89,6.89,0,0,0,49,62.08a6.61,6.61,0,0,0,6.4-6.78C55.41,51.51,52.63,48.39,49.15,48.35Z" fill="#e29279"/>
          <path id="Trazado_119078" data-name="Trazado 119078" d="M49.15,48.39A6.85,6.85,0,0,0,49,62a6.85,6.85,0,0,0,.19-13.64Z" fill="#e29179"/>
          <path id="Trazado_119079" data-name="Trazado 119079" d="M49.15,48.44A6.8,6.8,0,0,0,49,62a6.8,6.8,0,0,0,.19-13.54Z" fill="#e19078"/>
          <path id="Trazado_119080" data-name="Trazado 119080" d="M49.15,48.49A6.75,6.75,0,0,0,49,61.94a6.75,6.75,0,0,0,.19-13.45Z" fill="#e18f77"/>
          <path id="Trazado_119081" data-name="Trazado 119081" d="M49.15,48.54A6.7,6.7,0,0,0,49,61.89a6.7,6.7,0,0,0,.19-13.35Z" fill="#e18e76"/>
          <ellipse id="Elipse_5118" data-name="Elipse 5118" cx="6.63" cy="6.09" rx="6.63" ry="6.09" transform="translate(42.87 61.762) rotate(-89.21)" fill="#e18d75"/>
          <ellipse id="Elipse_5119" data-name="Elipse 5119" cx="6.58" cy="6.04" rx="6.58" ry="6.04" transform="translate(42.921 61.712) rotate(-89.21)" fill="#e18c75"/>
          <ellipse id="Elipse_5120" data-name="Elipse 5120" cx="6.54" cy="6" rx="6.54" ry="6" transform="translate(42.961 61.673) rotate(-89.21)" fill="#e08b74"/>
          <ellipse id="Elipse_5121" data-name="Elipse 5121" cx="6.49" cy="5.96" rx="6.49" ry="5.96" transform="translate(43.002 61.623) rotate(-89.21)" fill="#e08a73"/>
          <ellipse id="Elipse_5122" data-name="Elipse 5122" cx="6.44" cy="5.91" rx="6.44" ry="5.91" transform="translate(43.053 61.574) rotate(-89.21)" fill="#e08972"/>
          <ellipse id="Elipse_5123" data-name="Elipse 5123" cx="6.39" cy="5.87" rx="6.39" ry="5.87" transform="translate(43.093 61.525) rotate(-89.21)" fill="#e08872"/>
          <ellipse id="Elipse_5124" data-name="Elipse 5124" cx="6.35" cy="5.83" rx="6.35" ry="5.83" transform="translate(43.134 61.485) rotate(-89.21)" fill="#df8771"/>
          <ellipse id="Elipse_5125" data-name="Elipse 5125" cx="6.3" cy="5.78" rx="6.3" ry="5.78" transform="translate(43.185 61.436) rotate(-89.21)" fill="#df8670"/>
          <ellipse id="Elipse_5126" data-name="Elipse 5126" cx="6.25" cy="5.74" rx="6.25" ry="5.74" transform="translate(43.225 61.386) rotate(-89.21)" fill="#df856f"/>
          <ellipse id="Elipse_5127" data-name="Elipse 5127" cx="6.2" cy="5.7" rx="6.2" ry="5.7" transform="translate(43.266 61.337) rotate(-89.21)" fill="#df846f"/>
          <ellipse id="Elipse_5128" data-name="Elipse 5128" cx="6.16" cy="5.65" rx="6.16" ry="5.65" transform="translate(43.317 61.298) rotate(-89.21)" fill="#df836e"/>
          <ellipse id="Elipse_5129" data-name="Elipse 5129" cx="6.11" cy="5.61" rx="6.11" ry="5.61" transform="translate(43.357 61.248) rotate(-89.21)" fill="#de826d"/>
          <ellipse id="Elipse_5130" data-name="Elipse 5130" cx="6.06" cy="5.56" rx="6.06" ry="5.56" transform="translate(43.408 61.199) rotate(-89.21)" fill="#de816c"/>
          <ellipse id="Elipse_5131" data-name="Elipse 5131" cx="6.01" cy="5.52" rx="6.01" ry="5.52" transform="translate(43.449 61.15) rotate(-89.21)" fill="#de806b"/>
          <ellipse id="Elipse_5132" data-name="Elipse 5132" cx="5.97" cy="5.48" rx="5.97" ry="5.48" transform="translate(43.489 61.1) rotate(-89.21)" fill="#de7f6b"/>
          <ellipse id="Elipse_5133" data-name="Elipse 5133" cx="5.92" cy="5.43" rx="5.92" ry="5.43" transform="translate(43.381 60.858) rotate(-89.427)" fill="#de7e6a"/>
          <ellipse id="Elipse_5134" data-name="Elipse 5134" cx="5.87" cy="5.39" rx="5.87" ry="5.39" transform="translate(43.581 61.001) rotate(-89.21)" fill="#dd7d69"/>
          <ellipse id="Elipse_5135" data-name="Elipse 5135" cx="5.82" cy="5.35" rx="5.82" ry="5.35" transform="translate(43.621 60.952) rotate(-89.21)" fill="#dd7c68"/>
          <ellipse id="Elipse_5136" data-name="Elipse 5136" cx="5.78" cy="5.3" rx="5.78" ry="5.3" transform="translate(43.672 60.913) rotate(-89.21)" fill="#dd7b68"/>
          <ellipse id="Elipse_5137" data-name="Elipse 5137" cx="5.73" cy="5.26" rx="5.73" ry="5.26" transform="translate(43.713 60.863) rotate(-89.21)" fill="#dd7a67"/>
          <ellipse id="Elipse_5138" data-name="Elipse 5138" cx="5.68" cy="5.22" rx="5.68" ry="5.22" transform="translate(43.753 60.814) rotate(-89.21)" fill="#dd7a66"/>
          <ellipse id="Elipse_5139" data-name="Elipse 5139" cx="5.64" cy="5.17" rx="5.64" ry="5.17" transform="translate(43.804 60.774) rotate(-89.21)" fill="#dc7965"/>
          <ellipse id="Elipse_5140" data-name="Elipse 5140" cx="5.59" cy="5.13" rx="5.59" ry="5.13" transform="translate(43.844 60.725) rotate(-89.21)" fill="#dc7864"/>
          <ellipse id="Elipse_5141" data-name="Elipse 5141" cx="5.54" cy="5.09" rx="5.54" ry="5.09" transform="translate(43.885 60.676) rotate(-89.21)" fill="#dc7764"/>
          <ellipse id="Elipse_5142" data-name="Elipse 5142" cx="5.49" cy="5.04" rx="5.49" ry="5.04" transform="translate(43.936 60.626) rotate(-89.21)" fill="#dc7663"/>
          <ellipse id="Elipse_5143" data-name="Elipse 5143" cx="5.45" cy="5" rx="5.45" ry="5" transform="translate(43.976 60.587) rotate(-89.21)" fill="#db7562"/>
          <ellipse id="Elipse_5144" data-name="Elipse 5144" cx="5.4" cy="4.96" rx="5.4" ry="4.96" transform="translate(44.017 60.537) rotate(-89.21)" fill="#db7461"/>
          <ellipse id="Elipse_5145" data-name="Elipse 5145" cx="5.35" cy="4.91" rx="5.35" ry="4.91" transform="translate(44.068 60.488) rotate(-89.21)" fill="#db7361"/>
          <ellipse id="Elipse_5146" data-name="Elipse 5146" cx="5.3" cy="4.87" rx="5.3" ry="4.87" transform="translate(44.108 60.439) rotate(-89.21)" fill="#db7260"/>
          <ellipse id="Elipse_5147" data-name="Elipse 5147" cx="5.26" cy="4.83" rx="5.26" ry="4.83" transform="translate(44.149 60.399) rotate(-89.21)" fill="#db715f"/>
          <ellipse id="Elipse_5148" data-name="Elipse 5148" cx="5.21" cy="4.78" rx="5.21" ry="4.78" transform="translate(44.2 60.35) rotate(-89.21)" fill="#da705e"/>
          <ellipse id="Elipse_5149" data-name="Elipse 5149" cx="5.16" cy="4.74" rx="5.16" ry="4.74" transform="translate(44.24 60.3) rotate(-89.21)" fill="#da6f5d"/>
          <ellipse id="Elipse_5150" data-name="Elipse 5150" cx="5.11" cy="4.7" rx="5.11" ry="4.7" transform="translate(44.281 60.251) rotate(-89.21)" fill="#da6e5d"/>
          <ellipse id="Elipse_5151" data-name="Elipse 5151" cx="5.07" cy="4.65" rx="5.07" ry="4.65" transform="translate(44.332 60.212) rotate(-89.21)" fill="#da6d5c"/>
          <ellipse id="Elipse_5152" data-name="Elipse 5152" cx="5.02" cy="4.61" rx="5.02" ry="4.61" transform="translate(44.372 60.162) rotate(-89.21)" fill="#da6c5b"/>
          <ellipse id="Elipse_5153" data-name="Elipse 5153" cx="4.97" cy="4.56" rx="4.97" ry="4.56" transform="translate(44.423 60.113) rotate(-89.21)" fill="#d96b5a"/>
          <path id="Trazado_119082" data-name="Trazado 119082" d="M49.12,50.29a4.94,4.94,0,1,0,4.46,5,4.74,4.74,0,0,0-4.46-5Z" fill="#d96a5a"/>
          <path id="Trazado_119083" data-name="Trazado 119083" d="M49.12,50.34a4.89,4.89,0,1,0,4.41,4.93A4.68,4.68,0,0,0,49.12,50.34Z" fill="#d96959"/>
          <path id="Trazado_119084" data-name="Trazado 119084" d="M49.12,50.38a4.85,4.85,0,1,0,4.37,4.89A4.65,4.65,0,0,0,49.12,50.38Z" fill="#d96858"/>
          <path id="Trazado_119085" data-name="Trazado 119085" d="M49.12,50.43a4.8,4.8,0,1,0,4.33,4.84A4.61,4.61,0,0,0,49.12,50.43Z" fill="#d86757"/>
          <path id="Trazado_119086" data-name="Trazado 119086" d="M49.12,50.48a4.75,4.75,0,1,0,4.28,4.79A4.54,4.54,0,0,0,49.12,50.48Z" fill="#d86657"/>
          <path id="Trazado_119087" data-name="Trazado 119087" d="M49.12,50.52a4.71,4.71,0,1,0,4.24,4.75A4.51,4.51,0,0,0,49.12,50.52Z" fill="#d86556"/>
          <path id="Trazado_119088" data-name="Trazado 119088" d="M49.12,50.57a4.66,4.66,0,1,0,4.2,4.7,4.47,4.47,0,0,0-4.2-4.7Z" fill="#d86455"/>
          <path id="Trazado_119089" data-name="Trazado 119089" d="M49.12,50.62a4.61,4.61,0,1,0,4.15,4.65,4.41,4.41,0,0,0-4.15-4.65Z" fill="#d86354"/>
          <path id="Trazado_119090" data-name="Trazado 119090" d="M49.12,50.67a4.56,4.56,0,1,0,4.11,4.6A4.37,4.37,0,0,0,49.12,50.67Z" fill="#d76253"/>
          <path id="Trazado_119091" data-name="Trazado 119091" d="M49.12,50.71a4.52,4.52,0,1,0,4.06,4.56,4.33,4.33,0,0,0-4.06-4.56Z" fill="#d76153"/>
          <path id="Trazado_119092" data-name="Trazado 119092" d="M49.12,50.76a4.47,4.47,0,1,0,4,4.51A4.28,4.28,0,0,0,49.12,50.76Z" fill="#d76052"/>
          <path id="Trazado_119093" data-name="Trazado 119093" d="M49.12,50.81a4.42,4.42,0,1,0,4,4.46,4.24,4.24,0,0,0-4-4.46Z" fill="#d75f51"/>
          <path id="Trazado_119094" data-name="Trazado 119094" d="M49.12,50.86a4.37,4.37,0,1,0,3.93,4.41,4.18,4.18,0,0,0-3.93-4.41Z" fill="#d75e50"/>
          <path id="Trazado_119095" data-name="Trazado 119095" d="M49.11,50.9A4.33,4.33,0,1,0,53,55.27a4.15,4.15,0,0,0-3.89-4.37Z" fill="#d65d50"/>
          <path id="Trazado_119096" data-name="Trazado 119096" d="M49.11,51A4.28,4.28,0,1,0,53,55.27,4.11,4.11,0,0,0,49.11,51Z" fill="#d65c4f"/>
          <path id="Trazado_119097" data-name="Trazado 119097" d="M49.11,51a4.23,4.23,0,1,0,3.81,4.27A4,4,0,0,0,49.11,51Z" fill="#d65b4e"/>
          <path id="Trazado_119098" data-name="Trazado 119098" d="M49.11,51.05a4.18,4.18,0,1,0,3.77,4.22A4,4,0,0,0,49.11,51.05Z" fill="#d65a4d"/>
          <path id="Trazado_119099" data-name="Trazado 119099" d="M49.11,51.09a4.14,4.14,0,1,0,3.73,4.17A4,4,0,0,0,49.11,51.09Z" fill="#d5594c"/>
          <path id="Trazado_119100" data-name="Trazado 119100" d="M49.11,51.14a4.09,4.09,0,1,0,3.68,4.12A3.91,3.91,0,0,0,49.11,51.14Z" fill="#d5584c"/>
          <path id="Trazado_119101" data-name="Trazado 119101" d="M49.11,51.19a4,4,0,1,0,3.64,4.07A3.87,3.87,0,0,0,49.11,51.19Z" fill="#d5574b"/>
          <path id="Trazado_119102" data-name="Trazado 119102" d="M49.11,51.24a4,4,0,1,0,3.6,4A3.82,3.82,0,0,0,49.11,51.24Z" fill="#d5564a"/>
          <path id="Trazado_119103" data-name="Trazado 119103" d="M49.11,51.28a3.95,3.95,0,1,0,3.55,4A3.78,3.78,0,0,0,49.11,51.28Z" fill="#d55549"/>
          <path id="Trazado_119104" data-name="Trazado 119104" d="M49.11,51.33a3.9,3.9,0,1,0,3.51,3.93,3.73,3.73,0,0,0-3.51-3.93Z" fill="#d45449"/>
          <path id="Trazado_119105" data-name="Trazado 119105" d="M49.11,51.38a3.85,3.85,0,1,0,3.47,3.88,3.69,3.69,0,0,0-3.47-3.88Z" fill="#d45348"/>
          <path id="Trazado_119106" data-name="Trazado 119106" d="M49.11,51.42a3.8,3.8,0,1,0,3.42,3.84A3.65,3.65,0,0,0,49.11,51.42Z" fill="#d45247"/>
        </g>
        <g id="Grupo_80382" data-name="Grupo 80382" opacity="0.38">
          <path id="Trazado_119107" data-name="Trazado 119107" d="M68,47.9a7.57,7.57,0,1,0,5.327,2.291A7.58,7.58,0,0,0,68,47.9Z" fill="#e5a185"/>
          <path id="Trazado_119108" data-name="Trazado 119108" d="M68,47.94a7.53,7.53,0,1,0,7.42,7.64A7.53,7.53,0,0,0,68,47.94Z" fill="#e5a084"/>
          <path id="Trazado_119109" data-name="Trazado 119109" d="M68,48a7.48,7.48,0,1,0,7.38,7.58A7.48,7.48,0,0,0,68,48Z" fill="#e59f83"/>
          <path id="Trazado_119110" data-name="Trazado 119110" d="M68,48a7.44,7.44,0,1,0,7.33,7.53A7.44,7.44,0,0,0,68,48Z" fill="#e49e83"/>
          <path id="Trazado_119111" data-name="Trazado 119111" d="M68,48.08a7.39,7.39,0,1,0,7.28,7.49A7.39,7.39,0,0,0,68,48.08Z" fill="#e49d82"/>
          <path id="Trazado_119112" data-name="Trazado 119112" d="M68,48.13a7.34,7.34,0,1,0,7.24,7.44A7.34,7.34,0,0,0,68,48.13Z" fill="#e49c81"/>
          <path id="Trazado_119113" data-name="Trazado 119113" d="M68,48.18a7.29,7.29,0,1,0,7.19,7.39A7.29,7.29,0,0,0,68,48.18Z" fill="#e49b80"/>
          <path id="Trazado_119114" data-name="Trazado 119114" d="M68,48.23a7.25,7.25,0,1,0,7.14,7.34A7.25,7.25,0,0,0,68,48.23Z" fill="#e49a80"/>
          <path id="Trazado_119115" data-name="Trazado 119115" d="M68,48.27a7.2,7.2,0,1,0,7.1,7.3A7.2,7.2,0,0,0,68,48.27Z" fill="#e3997f"/>
          <path id="Trazado_119116" data-name="Trazado 119116" d="M68,48.32a7.15,7.15,0,1,0,7,7.25,7.15,7.15,0,0,0-7-7.25Z" fill="#e3987e"/>
          <path id="Trazado_119117" data-name="Trazado 119117" d="M68,48.37a7.1,7.1,0,1,0,7,7.2,7.1,7.1,0,0,0-7-7.2Z" fill="#e3977d"/>
          <path id="Trazado_119118" data-name="Trazado 119118" d="M68,48.42a7,7,0,1,0,5,2.1A7.06,7.06,0,0,0,68,48.42Z" fill="#e3967c"/>
          <path id="Trazado_119119" data-name="Trazado 119119" d="M68,48.46a7,7,0,1,0,4.931,2.121A7,7,0,0,0,68,48.46Z" fill="#e2957c"/>
          <path id="Trazado_119120" data-name="Trazado 119120" d="M68,48.51a7,7,0,1,0,6.87,7.06A7,7,0,0,0,68,48.51Z" fill="#e2947b"/>
          <path id="Trazado_119121" data-name="Trazado 119121" d="M68,48.56a6.91,6.91,0,1,0,6.82,7,6.91,6.91,0,0,0-6.82-7Z" fill="#e2937a"/>
          <path id="Trazado_119122" data-name="Trazado 119122" d="M68,48.61a6.86,6.86,0,1,0,4.843,2.09A6.87,6.87,0,0,0,68,48.61Z" fill="#e29279"/>
          <path id="Trazado_119123" data-name="Trazado 119123" d="M68,48.65a6.82,6.82,0,1,0,6.72,6.92A6.82,6.82,0,0,0,68,48.65Z" fill="#e29179"/>
          <path id="Trazado_119124" data-name="Trazado 119124" d="M68,48.7a6.77,6.77,0,1,0,6.68,6.86A6.77,6.77,0,0,0,68,48.7Z" fill="#e19078"/>
          <path id="Trazado_119125" data-name="Trazado 119125" d="M68,48.75a6.73,6.73,0,1,0,6.63,6.81A6.73,6.73,0,0,0,68,48.75Z" fill="#e18f77"/>
          <path id="Trazado_119126" data-name="Trazado 119126" d="M68,48.8a6.66,6.66,0,1,0,4.693,2.014A6.68,6.68,0,0,0,68,48.8Z" fill="#e18e76"/>
          <path id="Trazado_119127" data-name="Trazado 119127" d="M68,48.84a6.63,6.63,0,1,0,6.53,6.72A6.63,6.63,0,0,0,68,48.84Z" fill="#e18d75"/>
          <path id="Trazado_119128" data-name="Trazado 119128" d="M68,48.89a6.58,6.58,0,1,0,6.49,6.67A6.58,6.58,0,0,0,68,48.89Z" fill="#e18c75"/>
          <path id="Trazado_119129" data-name="Trazado 119129" d="M68,48.94a6.54,6.54,0,1,0,6.44,6.62A6.54,6.54,0,0,0,68,48.94Z" fill="#e08b74"/>
          <path id="Trazado_119130" data-name="Trazado 119130" d="M68,49a6.49,6.49,0,1,0,6.39,6.58A6.49,6.49,0,0,0,68,49Z" fill="#e08a73"/>
          <path id="Trazado_119131" data-name="Trazado 119131" d="M68,49a6.43,6.43,0,1,0,4.537,1.943A6.44,6.44,0,0,0,68,49Z" fill="#e08972"/>
          <path id="Trazado_119132" data-name="Trazado 119132" d="M68,49.08a6.39,6.39,0,1,0,4.5,1.932A6.39,6.39,0,0,0,68,49.08Z" fill="#e08872"/>
          <path id="Trazado_119133" data-name="Trazado 119133" d="M68,49.13a6.34,6.34,0,1,0,4.463,1.917A6.35,6.35,0,0,0,68,49.13Z" fill="#df8771"/>
          <path id="Trazado_119134" data-name="Trazado 119134" d="M68,49.17a6.3,6.3,0,1,0,6.21,6.39A6.3,6.3,0,0,0,68,49.17Z" fill="#df8670"/>
          <path id="Trazado_119135" data-name="Trazado 119135" d="M68,49.22a6.24,6.24,0,1,0,4.4,1.888A6.25,6.25,0,0,0,68,49.22Z" fill="#df856f"/>
          <path id="Trazado_119136" data-name="Trazado 119136" d="M68,49.27a6.2,6.2,0,1,0,6.12,6.29A6.2,6.2,0,0,0,68,49.27Z" fill="#df846f"/>
          <path id="Trazado_119137" data-name="Trazado 119137" d="M68,49.32a6.16,6.16,0,1,0,6,6.24A6.16,6.16,0,0,0,68,49.32Z" fill="#df836e"/>
          <path id="Trazado_119138" data-name="Trazado 119138" d="M68,49.36a6.11,6.11,0,1,0,6,6.2A6.11,6.11,0,0,0,68,49.36Z" fill="#de826d"/>
          <path id="Trazado_119139" data-name="Trazado 119139" d="M68,49.41a6.07,6.07,0,1,0,4.275,1.831A6.06,6.06,0,0,0,68,49.41Z" fill="#de816c"/>
          <path id="Trazado_119140" data-name="Trazado 119140" d="M68,49.46a6,6,0,1,0,4.229,1.814A6,6,0,0,0,68,49.46Z" fill="#de806b"/>
          <path id="Trazado_119141" data-name="Trazado 119141" d="M68,49.51a6,6,0,1,0,5.88,6,6,6,0,0,0-5.88-6Z" fill="#de7f6b"/>
          <path id="Trazado_119142" data-name="Trazado 119142" d="M68,49.55a5.92,5.92,0,1,0,5.83,6,5.92,5.92,0,0,0-5.83-6Z" fill="#de7e6a"/>
          <path id="Trazado_119143" data-name="Trazado 119143" d="M68,49.6a5.87,5.87,0,1,0,5.79,5.95A5.87,5.87,0,0,0,68,49.6Z" fill="#dd7d69"/>
          <path id="Trazado_119144" data-name="Trazado 119144" d="M68,49.65a5.83,5.83,0,1,0,5.74,5.9A5.83,5.83,0,0,0,68,49.65Z" fill="#dd7c68"/>
          <path id="Trazado_119145" data-name="Trazado 119145" d="M68,49.69a5.78,5.78,0,1,0,5.69,5.86A5.78,5.78,0,0,0,68,49.69Z" fill="#dd7b68"/>
          <path id="Trazado_119146" data-name="Trazado 119146" d="M68,49.74a5.73,5.73,0,1,0,4.035,1.731A5.73,5.73,0,0,0,68,49.74Z" fill="#dd7a67"/>
          <path id="Trazado_119147" data-name="Trazado 119147" d="M68,49.79a5.68,5.68,0,1,0,5.61,5.76A5.68,5.68,0,0,0,68,49.79Z" fill="#dd7a66"/>
          <path id="Trazado_119148" data-name="Trazado 119148" d="M68,49.84a5.62,5.62,0,1,0,3.967,1.7A5.64,5.64,0,0,0,68,49.84Z" fill="#dc7965"/>
          <path id="Trazado_119149" data-name="Trazado 119149" d="M68,49.88a5.59,5.59,0,1,0,5.51,5.67A5.59,5.59,0,0,0,68,49.88Z" fill="#dc7864"/>
          <path id="Trazado_119150" data-name="Trazado 119150" d="M68,49.93a5.54,5.54,0,1,0,3.9,1.676A5.54,5.54,0,0,0,68,49.93Z" fill="#dc7764"/>
          <path id="Trazado_119151" data-name="Trazado 119151" d="M68,50a5.49,5.49,0,1,0,5.42,5.57A5.49,5.49,0,0,0,68,50Z" fill="#dc7663"/>
          <path id="Trazado_119152" data-name="Trazado 119152" d="M68,50a5.44,5.44,0,1,0,3.83,1.646A5.45,5.45,0,0,0,68,50Z" fill="#db7562"/>
          <path id="Trazado_119153" data-name="Trazado 119153" d="M68,50.07a5.4,5.4,0,1,0,5.32,5.48A5.4,5.4,0,0,0,68,50.07Z" fill="#db7461"/>
          <path id="Trazado_119154" data-name="Trazado 119154" d="M68,50.12a5.34,5.34,0,1,0,3.769,1.617A5.35,5.35,0,0,0,68,50.12Z" fill="#db7361"/>
          <path id="Trazado_119155" data-name="Trazado 119155" d="M68,50.17a5.3,5.3,0,1,0,5.23,5.37A5.3,5.3,0,0,0,68,50.17Z" fill="#db7260"/>
          <path id="Trazado_119156" data-name="Trazado 119156" d="M68,50.22a5.26,5.26,0,1,0,5.18,5.32A5.26,5.26,0,0,0,68,50.22Z" fill="#db715f"/>
          <path id="Trazado_119157" data-name="Trazado 119157" d="M68,50.26a5.21,5.21,0,1,0,5.13,5.28A5.21,5.21,0,0,0,68,50.26Z" fill="#da705e"/>
          <path id="Trazado_119158" data-name="Trazado 119158" d="M68,50.31a5.16,5.16,0,1,0,5,5.23A5.16,5.16,0,0,0,68,50.31Z" fill="#da6f5d"/>
          <path id="Trazado_119159" data-name="Trazado 119159" d="M68,50.36a5.12,5.12,0,1,0,5,5.18A5.12,5.12,0,0,0,68,50.36Z" fill="#da6e5d"/>
          <path id="Trazado_119160" data-name="Trazado 119160" d="M68,50.41a5.06,5.06,0,1,0,3.564,1.528A5.07,5.07,0,0,0,68,50.41Z" fill="#da6d5c"/>
          <path id="Trazado_119161" data-name="Trazado 119161" d="M67.94,50.45a5,5,0,1,0,3.568,1.5A5,5,0,0,0,67.94,50.45Z" fill="#da6c5b"/>
          <path id="Trazado_119162" data-name="Trazado 119162" d="M67.94,50.5a5,5,0,1,0,4.91,5,5,5,0,0,0-4.91-5Z" fill="#d96b5a"/>
          <path id="Trazado_119163" data-name="Trazado 119163" d="M67.94,50.55a4.92,4.92,0,1,0,3.469,1.49,4.93,4.93,0,0,0-3.469-1.49Z" fill="#d96a5a"/>
          <path id="Trazado_119164" data-name="Trazado 119164" d="M67.94,50.59a4.88,4.88,0,1,0,4.81,4.95,4.88,4.88,0,0,0-4.81-4.95Z" fill="#d96959"/>
          <path id="Trazado_119165" data-name="Trazado 119165" d="M67.94,50.64a4.83,4.83,0,1,0,3.4,1.461A4.83,4.83,0,0,0,67.94,50.64Z" fill="#d96858"/>
          <path id="Trazado_119166" data-name="Trazado 119166" d="M67.94,50.69a4.78,4.78,0,1,0,3.366,1.446A4.78,4.78,0,0,0,67.94,50.69Z" fill="#d86757"/>
          <path id="Trazado_119167" data-name="Trazado 119167" d="M67.94,50.74a4.74,4.74,0,1,0,4.67,4.8,4.74,4.74,0,0,0-4.67-4.8Z" fill="#d86657"/>
          <path id="Trazado_119168" data-name="Trazado 119168" d="M67.94,50.78a4.69,4.69,0,1,0,4.62,4.76A4.69,4.69,0,0,0,67.94,50.78Z" fill="#d86556"/>
          <path id="Trazado_119169" data-name="Trazado 119169" d="M67.94,50.83a4.64,4.64,0,1,0,3.267,1.4,4.64,4.64,0,0,0-3.267-1.4Z" fill="#d86455"/>
          <path id="Trazado_119170" data-name="Trazado 119170" d="M67.94,50.88a4.59,4.59,0,1,0,4.53,4.65,4.59,4.59,0,0,0-4.53-4.65Z" fill="#d86354"/>
          <path id="Trazado_119171" data-name="Trazado 119171" d="M67.94,50.93a4.55,4.55,0,1,0,4.48,4.6,4.55,4.55,0,0,0-4.48-4.6Z" fill="#d76253"/>
          <path id="Trazado_119172" data-name="Trazado 119172" d="M67.94,51a4.5,4.5,0,1,0,4.43,4.56A4.5,4.5,0,0,0,67.94,51Z" fill="#d76153"/>
          <path id="Trazado_119173" data-name="Trazado 119173" d="M67.94,51a4.45,4.45,0,1,0,4.39,4.51A4.45,4.45,0,0,0,67.94,51Z" fill="#d76052"/>
          <path id="Trazado_119174" data-name="Trazado 119174" d="M67.94,51.07a4.41,4.41,0,1,0,4.34,4.46,4.41,4.41,0,0,0-4.34-4.46Z" fill="#d75f51"/>
          <path id="Trazado_119175" data-name="Trazado 119175" d="M67.94,51.12a4.36,4.36,0,1,0,4.29,4.41,4.36,4.36,0,0,0-4.29-4.41Z" fill="#d75e50"/>
          <path id="Trazado_119176" data-name="Trazado 119176" d="M67.94,51.16a4.31,4.31,0,1,0,4.24,4.37A4.31,4.31,0,0,0,67.94,51.16Z" fill="#d65d50"/>
          <path id="Trazado_119177" data-name="Trazado 119177" d="M67.93,51.21a4.26,4.26,0,1,0,4.21,4.32A4.26,4.26,0,0,0,67.93,51.21Z" fill="#d65c4f"/>
          <path id="Trazado_119178" data-name="Trazado 119178" d="M67.93,51.26a4.22,4.22,0,1,0,4.16,4.27A4.22,4.22,0,0,0,67.93,51.26Z" fill="#d65b4e"/>
          <path id="Trazado_119179" data-name="Trazado 119179" d="M67.93,51.3A4.17,4.17,0,1,0,72,55.53a4.17,4.17,0,0,0-4.07-4.23Z" fill="#d65a4d"/>
          <path id="Trazado_119180" data-name="Trazado 119180" d="M67.93,51.35a4.12,4.12,0,1,0,2.9,1.246A4.12,4.12,0,0,0,67.93,51.35Z" fill="#d5594c"/>
          <path id="Trazado_119181" data-name="Trazado 119181" d="M67.93,51.4a4.07,4.07,0,1,0,4,4.13,4.07,4.07,0,0,0-4-4.13Z" fill="#d5584c"/>
          <path id="Trazado_119182" data-name="Trazado 119182" d="M67.93,51.45a4,4,0,1,0,2.857,1.2,4,4,0,0,0-2.857-1.2Z" fill="#d5574b"/>
          <path id="Trazado_119183" data-name="Trazado 119183" d="M67.93,51.49a4,4,0,1,0,3.92,4,4,4,0,0,0-3.92-4Z" fill="#d5564a"/>
          <path id="Trazado_119184" data-name="Trazado 119184" d="M67.93,51.54A3.93,3.93,0,1,0,70.7,52.733,3.93,3.93,0,0,0,67.93,51.54Z" fill="#d55549"/>
          <path id="Trazado_119185" data-name="Trazado 119185" d="M67.93,51.59a3.88,3.88,0,1,0,2.733,1.175A3.88,3.88,0,0,0,67.93,51.59Z" fill="#d45449"/>
          <path id="Trazado_119186" data-name="Trazado 119186" d="M67.93,51.64a3.84,3.84,0,1,0,3.78,3.88,3.84,3.84,0,0,0-3.78-3.88Z" fill="#d45348"/>
          <path id="Trazado_119187" data-name="Trazado 119187" d="M67.93,51.68a3.79,3.79,0,1,0,3.73,3.84,3.79,3.79,0,0,0-3.73-3.84Z" fill="#d45247"/>
        </g>
        <path id="Trazado_119188" data-name="Trazado 119188" d="M81.16,49c-2-.71-4.36,1.07-5.33,4s-.16,5.85,1.82,6.56S82,58.5,83,55.58,83.14,49.73,81.16,49Z" fill="#e5a185"/>
        <path id="Trazado_119189" data-name="Trazado 119189" d="M81.37,55.9a4.51,4.51,0,0,1-5.44-.38,19.46,19.46,0,0,1-4,11.84c-2.83,3.81-8.94,5.06-13.47,4.89-10.82-.42-13.66-3.73-15.88-8.2,1.52,4.9,5.26,9.44,13.76,10,15.77,1.11,20.12-5.46,20.75-14.81a2.45,2.45,0,0,0,.58.3c2,.71,4.37-1.07,5.34-4a7.71,7.71,0,0,0,.4-2.22,4.91,4.91,0,0,1-2.04,2.58Z" fill="#d78c74"/>
        <path id="Trazado_119190" data-name="Trazado 119190" d="M46.39,44.1a30.841,30.841,0,0,0-.94,5.36l8.32,1.46A19.6,19.6,0,0,0,56,38.56Z" fill="#d78c74" opacity="0.52"/>
        <path id="Trazado_119191" data-name="Trazado 119191" d="M77.89,54.3l1.81.27a4,4,0,0,1,2.1-3.81C78.36,49.52,77.89,54.3,77.89,54.3Z" fill="#d78c74"/>
        <path id="Trazado_119192" data-name="Trazado 119192" d="M64.32,38.56s-3.92,6.68-1.11,12L73,51a16.83,16.83,0,0,0,.45-6.51C72.92,41.66,64.32,38.56,64.32,38.56Z" fill="#d78c74" opacity="0.52"/>
        <path id="Trazado_119193" data-name="Trazado 119193" d="M68.7,47.08a5.59,5.59,0,0,0-5.49,3.49s.66,2.52,4.89,2.58c4.9.07,4.9-2.28,4.9-2.28A4.39,4.39,0,0,0,68.7,47.08Z" fill="#fff"/>
        <path id="Trazado_119194" data-name="Trazado 119194" d="M45.45,49.46S44.81,51.82,49.1,52s4.67-1.12,4.67-1.12S49.69,43.08,45.45,49.46Z" fill="#fff"/>
        <path id="Trazado_119195" data-name="Trazado 119195" d="M51.15,48.13c-.89-.3-2,.61-2.47,2A3.81,3.81,0,0,0,48.53,52h.57a12.54,12.54,0,0,0,2.48,0,4.18,4.18,0,0,0,.34-.74C52.39,49.81,52,48.42,51.15,48.13Z" fill="url(#linear-gradient)"/>
        <path id="Trazado_119196" data-name="Trazado 119196" d="M48.14,50.54l.13.61s2.55-.2,2.31-1.36S48.14,50.54,48.14,50.54Z" fill="#fff" opacity="0.6"/>
        <path id="Trazado_119197" data-name="Trazado 119197" d="M68.43,48.36c-.9-.29-2,.62-2.47,2A3.25,3.25,0,0,0,66,52.88a8,8,0,0,0,2.06.27,3.65,3.65,0,0,0,1.11-1.68C69.66,50.05,69.32,48.66,68.43,48.36Z" fill="url(#linear-gradient-2)"/>
        <path id="Trazado_119198" data-name="Trazado 119198" d="M65.39,51.17l-.06.64s2.67-.1,2.42-1.25S65.39,51.17,65.39,51.17Z" fill="#fff" opacity="0.6"/>
        <path id="Trazado_119199" data-name="Trazado 119199" d="M49.44,46.32a4,4,0,0,0-4,3.14s.67-1.34,3.61-1.41,4.71,2.87,4.71,2.87S53.88,46.41,49.44,46.32Z" fill="#381911"/>
        <path id="Trazado_119200" data-name="Trazado 119200" d="M46.39,44.1c3-1.76,7.7-.59,9.38-2.32.64-.66.24-3.22.24-3.22C47,39.8,46.39,44.1,46.39,44.1Z" fill="#422e26"/>
        <path id="Trazado_119201" data-name="Trazado 119201" d="M64.32,38.56s-1.22,2-.77,2.7c1.4,2.22,7.53,1.53,9.93,3.38C73.48,44.64,74.11,40.38,64.32,38.56Z" fill="#422e26"/>
        <path id="Trazado_119202" data-name="Trazado 119202" d="M68.54,46.87a5,5,0,0,0-5.33,3.7s1.37-2,5.35-1.72S73,51,73,51a4.21,4.21,0,0,0-4.46-4.13Z" fill="#381911"/>
        <path id="Trazado_119203" data-name="Trazado 119203" d="M59,61.09c-7.59.12-8.48-1.54-8.48-1.54S49,65.7,58.21,65.77c8.81.06,7.89-5.78,7.84-6.11C66.06,59.81,66,61,59,61.09Z" fill="#6c332e"/>
        <path id="Trazado_119204" data-name="Trazado 119204" d="M66,59.65Z" fill="#6c332e"/>
        <path id="Trazado_119205" data-name="Trazado 119205" d="M64.33,60.63a27.661,27.661,0,0,1-5.31.46,23,23,0,0,1-6.84-.65,26.261,26.261,0,0,1-.6,3.16c1,1.17,3,2.14,6.63,2.17,3.82,0,5.81-1.06,6.84-2.33-.13-.35-.26-.7-.37-1.06A9,9,0,0,1,64.33,60.63Z" fill="#fff"/>
        <path id="Trazado_119206" data-name="Trazado 119206" d="M64.33,60.63a27.661,27.661,0,0,1-5.31.46,23,23,0,0,1-6.84-.65,6.327,6.327,0,0,1-.17,1.06c4-1.07,8.77.23,12.84,2.17a2.2,2.2,0,0,0,.2-.23c-.13-.35-.26-.7-.37-1.06a9,9,0,0,1-.35-1.75Z" fill="#c3bba5" opacity="0.35"/>
        <path id="Trazado_119207" data-name="Trazado 119207" d="M56.24,53s-2.84-2.08-3.86,1.55,6.21,5.8,8.2,2-3.16-10.88-3.16-10.88S58.43,50,56.24,53Z" fill="#e5a185"/>
        <path id="Trazado_119208" data-name="Trazado 119208" d="M56.24,53s-2.76-2-3.79,1.3A25.6,25.6,0,0,0,57,55a19.85,19.85,0,0,0,1.29-7.08l-.62-.18A8.2,8.2,0,0,1,56.24,53Z" fill="#fff" opacity="0.2"/>
        <path id="Trazado_119209" data-name="Trazado 119209" d="M60.9,21.27c-20,1.32-17.13,23.54-17.13,23.54,1.19-6.6,5.32-14.8,8.48-15a12,12,0,0,0,6.84,2.32c3.67.08,8.76-2.59,8.76-2.59,3.67-.09,7.86,11.25,8.35,20.39.11,2.09,1.92-.32,1.92-.32S80.54,20,60.9,21.27Z" fill="#4f372d"/>
        <path id="Trazado_119210" data-name="Trazado 119210" d="M71.38,23c-5.93-9-25.25-6.42-25.25-6.42-1.87,10.26,5.31,12.57,5.31,12.57s16.72-3,19.25-1.19S78.16,44.1,78.16,44.1s4.28-15,1.12-20.49C77,19.56,71.38,23,71.38,23Z" fill="#4f372d"/>
        <path id="Trazado_119211" data-name="Trazado 119211" d="M53.61,14.49a5.57,5.57,0,0,0,1.24,2.74S75.1,31,71.38,23,53.61,14.49,53.61,14.49Z" fill="#4f372d"/>
        <path id="Trazado_119212" data-name="Trazado 119212" d="M74.66,20.24c-1.14.18-1.41.72-1.41.72a5.46,5.46,0,0,0,.26-3.54c-2.23,1.27-2,3-2,3-1.09-2.28-4.45-3-4.45-3,.11,1.89,2.12,3.81,2.23,3.87L71,24l3.61-.57-.36-1.61A2,2,0,0,0,74.66,20.24Z" fill="#4f372d"/>
        <path id="Trazado_119213" data-name="Trazado 119213" d="M46.68,24.39c-5.89,1.79-4.19,25.25-4.19,25.25,1.2-6.6,6.6-19.63,9.76-19.79a20.63,20.63,0,0,1-5.57-5.46Z" fill="#422e26"/>
        <path id="Trazado_119214" data-name="Trazado 119214" d="M69.6,22.82Z" fill="#fff" opacity="0.12"/>
        <path id="Trazado_119215" data-name="Trazado 119215" d="M77,21.79c-.72.11-1.48.29-2.27.47a16.45,16.45,0,0,1-5.76.46,19.64,19.64,0,0,1-6.18-2.3c-1-.51-2-1-3-1.46a17.78,17.78,0,0,0-7.24-1.8A10.34,10.34,0,0,0,49,18a7.49,7.49,0,0,0-2.49,1.67,6,6,0,0,0-.68.79,12.08,12.08,0,0,0,.29,2.21,2.509,2.509,0,0,1,.24-.19,7.4,7.4,0,0,1,1.49-.85,6.68,6.68,0,0,1,2-.51c2.9-.22,5.59.94,8.21,2,1.07.45,2.16,1,3.31,1.44A37.25,37.25,0,0,0,65,25.94a12.78,12.78,0,0,0,6.83.24c.29-.08.58-.15.86-.24a18.59,18.59,0,0,0,2.91-1.23c.84-.43,1.56-.82,2.19-1.12A7.39,7.39,0,0,1,79,23.12,3.49,3.49,0,0,0,77,21.79Z" fill="#e5912f" opacity="0.11"/>
        <path id="Trazado_119216" data-name="Trazado 119216" d="M69.55,22.83Z" fill="#fff" opacity="0.12"/>
        <path id="Trazado_119217" data-name="Trazado 119217" d="M42.49,49.64s-.16,9.3,6,10c0,0-1.53,8,9.83,8.06,11,.1,9.27-8,9.27-8s7.64,0,8.6-10.09h1.94s-1.83,5.9-.84,9.39c0,0,2.81,15.56-17.9,15.9S40.07,59.49,42.49,49.64Z" fill="#4f372d"/>
        <path id="Trazado_119218" data-name="Trazado 119218" d="M56.93,56.52a17,17,0,0,0-6.66.83c-3.81,1.15-5.31.46-5.31.46s1,3,12.77,3.28c10,.23,13.31-1.83,13.31-1.83S66.35,56.34,56.93,56.52Z" fill="#4f372d"/>
        <path id="Trazado_119219" data-name="Trazado 119219" d="M52.31,55.51c.41,3,6.47,4.42,8.27,1a3.809,3.809,0,0,0,.27-.66,18,18,0,0,1-8.54-.34Z" fill="#d78c74"/>
        <path id="Trazado_119220" data-name="Trazado 119220" d="M56.17,68.91a10.75,10.75,0,0,0,4,.13.92.92,0,0,1,1,.86c0,.85-.42,1.95-3.18,1.91s-3.13-1.24-3-2.15a.93.93,0,0,1,1.18-.75Z" opacity="0.16"/>
        <path id="Trazado_119221" data-name="Trazado 119221" d="M73.85,79,76.1,99c.89,1.68,2.06,4.18,3.32,7.14A50,50,0,0,0,94.87,95.82C86,79.16,74.24,79.74,73.85,79Z" fill="#6d7db3"/>
        <path id="Trazado_119222" data-name="Trazado 119222" d="M74.58,90.77l-.21-11.6c-9.46-2.79-22.31-2.76-31.35,1l.19,10.55Z" fill="#d78c74"/>
        <path id="Trazado_119223" data-name="Trazado 119223" d="M78.46,106.47,78,80.06a16.12,16.12,0,0,0-2.67-.79c-.82-.24-1.67-.46-2.54-.69-.81,5.41-7.6,6.63-15,6.75-6.72.11-9.8-1.34-11.08-6.5a38,38,0,0,0-11,4.21L36,103.88a50,50,0,0,0,42.44,2.59Z" fill="#dfe5ea"/>
        <path id="Trazado_119224" data-name="Trazado 119224" d="M34.29,84.09C31.37,87,30.15,92.32,29.61,99.7a49.65,49.65,0,0,0,23.26,9.78c.69-11.57,1.34-20.12,1.47-21.69-.31-1.41-4.63-5.48-5.6-9.39C44.7,78.4,36.71,81.69,34.29,84.09Z" fill="#6d7db3"/>
        <path id="Trazado_119225" data-name="Trazado 119225" d="M69.85,77.82c-.7,4.65-2.6,3.71-8,9.86C61.64,89.82,61,98.1,60.36,110a49.69,49.69,0,0,0,26.84-8c0-2.26,0-4.36-.08-6.24s.07-14-11.81-16.43C74.49,79,70.72,78.05,69.85,77.82Z" fill="#6d7db3"/>
        <path id="Trazado_119226" data-name="Trazado 119226" d="M46.59,78.63h0s-1.88,9.2.23,13.21c0,0,.42-5.76,3-4.76,1.7.67,3.39,3.06,4.35,4.56.09-2,.16-3.35.2-3.85-.31-1.36-4.36-5.23-5.49-9a11.691,11.691,0,0,0-2.29-.16Z" fill="#002a3d" opacity="0.08"/>
        <path id="Trazado_119227" data-name="Trazado 119227" d="M49.09,82.34c0,.18-1.33,11.28-2.56,25.81.65.18,1.31.35,2,.51,1.1-13,2.27-23.36,2.53-25.6l-.34-.5Z" fill="#7588bc"/>
        <path id="Trazado_119228" data-name="Trazado 119228" d="M65.69,83.82c-.25,2.87-1.1,13.05-1.7,26,.67-.06,1.34-.12,2-.2.71-15,1.74-26.22,1.76-26.4l-1.21-.13Z" fill="#7588bc"/>
        <path id="Trazado_119229" data-name="Trazado 119229" d="M68.38,87.08c2.51-1,3.14,4.76,3.14,4.76,2-4-.24-13.21-.24-13.21h0a11.22,11.22,0,0,0-1.59.05c-.81,3.69-2.81,3.27-7.88,9-.05.62-.29,2.59-.38,4.95C63.1,90.85,67,87.64,68.38,87.08Z" fill="#002a3d" opacity="0.08"/>
        <path id="Trazado_119230" data-name="Trazado 119230" d="M31.51,99l.98-2.11,16.07-2.8.36,1.98Z" fill="#7588bc"/>
        <path id="Trazado_119231" data-name="Trazado 119231" d="M54.34,87.79s-5.52-6.72-6.8-2.2c-.86,3.08-1.25,4.91-1.25,4.91s-2.64-7.77.05-11.53,4.75-4.53,4.75-4.53a20.72,20.72,0,0,0,1.57,8.23,25.83,25.83,0,0,1,1.68,5.12Z" fill="#7588bc"/>
        <path id="Trazado_119232" data-name="Trazado 119232" d="M53.22,93.49a1.25,1.25,0,0,1-1.32,1.19,1.31,1.31,0,0,1-1.37-1.19,1.25,1.25,0,0,1,1.32-1.19,1.31,1.31,0,0,1,1.37,1.19Z" fill="#b0b5c1"/>
        <path id="Trazado_119233" data-name="Trazado 119233" d="M52.11,106.93a1.25,1.25,0,0,1-1.32,1.19,1.3,1.3,0,0,1-1.36-1.19,1.25,1.25,0,0,1,1.32-1.19,1.3,1.3,0,0,1,1.36,1.19Z" fill="#b0b5c1"/>
        <path id="Trazado_119234" data-name="Trazado 119234" d="M81.98,99,65.72,95.66l.37-1.96,16.26,3.34Z" fill="#7588bc"/>
        <path id="Trazado_119235" data-name="Trazado 119235" d="M61.8,87.87s7.34-6.8,8.77-2.28c1,3.08,1.43,4.91,1.43,4.91s2.36-7.77-.46-11.53S67,75.08,67,75.08s.17,1.61-1.43,5.37C64.5,82.93,62.13,84.71,61.8,87.87Z" fill="#7588bc"/>
        <path id="Trazado_119236" data-name="Trazado 119236" d="M52.66,82.67a20.72,20.72,0,0,1-1.57-8.23,6,6,0,0,0-1.37.87c-2,1.9-1.58,5.74-.63,8.74,2.09-.09,5.25,3.74,5.25,3.74a25.829,25.829,0,0,0-1.68-5.12Z" fill="#fff" opacity="0.12"/>
        <path id="Trazado_119237" data-name="Trazado 119237" d="M68.71,84.05c.44-3.14.41-6.31-1.68-9h0s.17,1.61-1.43,5.37c-1.06,2.48-3.43,4.26-3.76,7.42C61.8,87.87,66.05,83.94,68.71,84.05Z" fill="#fff" opacity="0.12"/>
        <path id="Trazado_119238" data-name="Trazado 119238" d="M29.81,99.85c.62.47,1.25.93,1.89,1.37,2.53-13.36,5.87-18.49,7.22-20.1A9,9,0,0,0,35,83a69.23,69.23,0,0,0-5.19,16.85Z" fill="#7588bc"/>
        <path id="Trazado_119239" data-name="Trazado 119239" d="M78.2,80.14a15.32,15.32,0,0,0-2.89-.87l-.3-.09c1.33,1.15,4.65,5.93,7.58,25.42.64-.32,1.27-.66,1.89-1C82.42,90.24,80.12,83.5,78.2,80.14Z" fill="#7588bc"/>
      </g>
    </g>
  </g>
</svg>
