<svg xmlns="http://www.w3.org/2000/svg" width="100" height="100" viewBox="0 0 100 100">
  <g id="Capa_1" data-name="Capa 1" transform="translate(-10 -10)">
    <g id="Grupo_80387" data-name="Grupo 80387">
      <circle id="Elipse_5154" data-name="Elipse 5154" cx="50" cy="50" r="50" transform="translate(10 10)" fill="#1565c0"/>
      <path id="Trazado_119240" data-name="Trazado 119240" d="M76,79.3a2.7,2.7,0,0,0-2.6-.09l7.08,14.66s.39,5.64.93,11.34a49.47,49.47,0,0,0,7.2-4.18C83.71,92.34,77.69,80.2,76,79.3Z" fill="#443b39"/>
      <path id="Trazado_119241" data-name="Trazado 119241" d="M59.77,26.55S53.54,15.33,41.14,23.1c-14.73,9.24-4.14,66.41.23,73.64l27.62-1S69.16,32.37,59.77,26.55Z" fill="#351a11"/>
      <path id="Trazado_119242" data-name="Trazado 119242" d="M59.77,26.55s-.88-7.47-13.86,2.05C31.62,39.08,39.76,86.24,61.25,96L69,95.72S69.16,32.37,59.77,26.55Z" opacity="0.24"/>
      <path id="Trazado_119243" data-name="Trazado 119243" d="M62.49,66.92a4.19,4.19,0,0,0-3.71,4.58l.32,9.19H67l-.34-9.58a4.19,4.19,0,0,0-4.17-4.19Z" fill="#d58a73"/>
      <path id="Trazado_119244" data-name="Trazado 119244" d="M43.42,81.13c-.27.82-.9,11.71-2.28,25.18a50.15,50.15,0,0,0,9.13,2.74C52,100.86,53.53,93.8,53.53,93.8L46.61,80.62S44.24,78.69,43.42,81.13Z" fill="#544947"/>
      <path id="Trazado_119245" data-name="Trazado 119245" d="M46.6,108.17c1.21.33,2.43.63,3.67.88C52,100.86,53.53,93.8,53.53,93.8l-3.86-7.34C49.49,87.53,47.94,98.61,46.6,108.17Z" opacity="0.1"/>
      <path id="Trazado_119246" data-name="Trazado 119246" d="M81.81,50.09c-2-.54-4.14,1.25-4.9,4s.19,5.42,2.14,6,4.14-1.26,4.9-4S83.76,50.63,81.81,50.09Z" fill="#d58a73"/>
      <path id="Trazado_119247" data-name="Trazado 119247" d="M58,23.13c-7.75.38-21,4.52-18.24,26.81S58.49,73.18,58.49,73.18s22.82,3.51,22.95-22.77C81.55,25.46,64.83,22.79,58,23.13Z" fill="#472319"/>
      <path id="Trazado_119248" data-name="Trazado 119248" d="M78.61,39.4a22.5,22.5,0,0,0-2.1-3.33,20.93,20.93,0,0,0-10.89-7.75,19,19,0,0,0-6.19-.67C47,28.31,40.84,41.91,42,53c1.11,10.7,10.62,21,21.26,20.86a16.84,16.84,0,0,0,7.73-2c11.07-5.8,13-22,7.73-32.26Z" fill="#e39f83"/>
      <g id="Grupo_80385" data-name="Grupo 80385" opacity="0.58">
        <path id="Trazado_119249" data-name="Trazado 119249" d="M71.3,49a7,7,0,1,0,5.062,1.807A7,7,0,0,0,71.3,49Z" fill="#e39f83"/>
        <path id="Trazado_119250" data-name="Trazado 119250" d="M71.3,49.06a7,7,0,1,0,7.31,6.62,7,7,0,0,0-7.31-6.62Z" fill="#e39e82"/>
        <path id="Trazado_119251" data-name="Trazado 119251" d="M71.3,49.1a6.93,6.93,0,1,0,7.26,6.58A6.93,6.93,0,0,0,71.3,49.1Z" fill="#e39d81"/>
        <path id="Trazado_119252" data-name="Trazado 119252" d="M71.3,49.15a6.88,6.88,0,1,0,4.967,1.772A6.88,6.88,0,0,0,71.3,49.15Z" fill="#e29c81"/>
        <path id="Trazado_119253" data-name="Trazado 119253" d="M71.3,49.19a6.83,6.83,0,1,0,4.935,1.761A6.84,6.84,0,0,0,71.3,49.19Z" fill="#e29b80"/>
        <path id="Trazado_119254" data-name="Trazado 119254" d="M71.31,49.24a6.79,6.79,0,1,0,7.12,6.45,6.79,6.79,0,0,0-7.12-6.45Z" fill="#e29a7f"/>
        <path id="Trazado_119255" data-name="Trazado 119255" d="M71.31,49.28a6.75,6.75,0,1,0,7.07,6.41A6.75,6.75,0,0,0,71.31,49.28Z" fill="#e2997e"/>
        <path id="Trazado_119256" data-name="Trazado 119256" d="M71.31,49.33a6.7,6.7,0,1,0,7,6.36,6.7,6.7,0,0,0-7-6.36Z" fill="#e1987e"/>
        <path id="Trazado_119257" data-name="Trazado 119257" d="M71.31,49.37a6.66,6.66,0,1,0,4.815,1.711A6.66,6.66,0,0,0,71.31,49.37Z" fill="#e1977d"/>
        <path id="Trazado_119258" data-name="Trazado 119258" d="M71.32,49.42a6.61,6.61,0,1,0,6.93,6.28,6.61,6.61,0,0,0-6.93-6.28Z" fill="#e1967c"/>
        <path id="Trazado_119259" data-name="Trazado 119259" d="M71.32,49.46a6.56,6.56,0,1,0,4.735,1.693A6.57,6.57,0,0,0,71.32,49.46Z" fill="#e1957b"/>
        <path id="Trazado_119260" data-name="Trazado 119260" d="M71.32,49.51a6.52,6.52,0,1,0,6.84,6.19,6.52,6.52,0,0,0-6.84-6.19Z" fill="#e1947b"/>
        <path id="Trazado_119261" data-name="Trazado 119261" d="M71.32,49.55a6.48,6.48,0,1,0,6.79,6.16,6.48,6.48,0,0,0-6.79-6.16Z" fill="#e0937a"/>
        <path id="Trazado_119262" data-name="Trazado 119262" d="M71.32,49.6a6.43,6.43,0,1,0,6.75,6.11,6.43,6.43,0,0,0-6.75-6.11Z" fill="#e09279"/>
        <path id="Trazado_119263" data-name="Trazado 119263" d="M71.33,49.64A6.39,6.39,0,1,0,78,55.71,6.39,6.39,0,0,0,71.33,49.64Z" fill="#e09178"/>
        <path id="Trazado_119264" data-name="Trazado 119264" d="M71.33,49.69a6.34,6.34,0,1,0,6.65,6A6.34,6.34,0,0,0,71.33,49.69Z" fill="#e09077"/>
        <path id="Trazado_119265" data-name="Trazado 119265" d="M71.33,49.73a6.3,6.3,0,1,0,4.545,1.631A6.3,6.3,0,0,0,71.33,49.73Z" fill="#e08f77"/>
        <path id="Trazado_119266" data-name="Trazado 119266" d="M71.33,49.78a6.25,6.25,0,1,0,4.512,1.609A6.25,6.25,0,0,0,71.33,49.78Z" fill="#df8e76"/>
        <path id="Trazado_119267" data-name="Trazado 119267" d="M71.34,49.82a6.21,6.21,0,1,0,6.5,5.9,6.21,6.21,0,0,0-6.5-5.9Z" fill="#df8d75"/>
        <path id="Trazado_119268" data-name="Trazado 119268" d="M71.34,49.87a6.16,6.16,0,1,0,6.46,5.85,6.16,6.16,0,0,0-6.46-5.85Z" fill="#df8c74"/>
        <path id="Trazado_119269" data-name="Trazado 119269" d="M71.34,49.91a6.12,6.12,0,1,0,6.41,5.81,6.12,6.12,0,0,0-6.41-5.81Z" fill="#df8b74"/>
        <path id="Trazado_119270" data-name="Trazado 119270" d="M71.34,50a6.07,6.07,0,1,0,4.382,1.563A6.07,6.07,0,0,0,71.34,50Z" fill="#de8a73"/>
        <path id="Trazado_119271" data-name="Trazado 119271" d="M71.34,50A6,6,0,1,0,75.7,51.546,6,6,0,0,0,71.34,50Z" fill="#de8972"/>
        <path id="Trazado_119272" data-name="Trazado 119272" d="M71.35,50a6,6,0,1,0,6.27,5.69A6,6,0,0,0,71.35,50Z" fill="#de8871"/>
        <path id="Trazado_119273" data-name="Trazado 119273" d="M71.35,50.09a5.94,5.94,0,1,0,6.22,5.64,5.94,5.94,0,0,0-6.22-5.64Z" fill="#de8771"/>
        <path id="Trazado_119274" data-name="Trazado 119274" d="M71.35,50.13a5.9,5.9,0,1,0,6.18,5.6A5.9,5.9,0,0,0,71.35,50.13Z" fill="#de8670"/>
        <path id="Trazado_119275" data-name="Trazado 119275" d="M71.35,50.18a5.85,5.85,0,1,0,6.13,5.56A5.85,5.85,0,0,0,71.35,50.18Z" fill="#dd856f"/>
        <path id="Trazado_119276" data-name="Trazado 119276" d="M71.36,50.22a5.81,5.81,0,1,0,6.08,5.52,5.81,5.81,0,0,0-6.08-5.52Z" fill="#dd846e"/>
        <path id="Trazado_119277" data-name="Trazado 119277" d="M71.36,50.27a5.76,5.76,0,1,0,6,5.47,5.76,5.76,0,0,0-6-5.47Z" fill="#dd836d"/>
        <path id="Trazado_119278" data-name="Trazado 119278" d="M71.36,50.31a5.72,5.72,0,1,0,6,5.43,5.72,5.72,0,0,0-6-5.43Z" fill="#dd826d"/>
        <path id="Trazado_119279" data-name="Trazado 119279" d="M71.36,50.36a5.66,5.66,0,1,0,4.09,1.461,5.67,5.67,0,0,0-4.09-1.461Z" fill="#dc816c"/>
        <path id="Trazado_119280" data-name="Trazado 119280" d="M71.36,50.4a5.63,5.63,0,1,0,5.9,5.35,5.63,5.63,0,0,0-5.9-5.35Z" fill="#dc806b"/>
        <path id="Trazado_119281" data-name="Trazado 119281" d="M71.37,50.45a5.58,5.58,0,1,0,5.84,5.3,5.58,5.58,0,0,0-5.84-5.3Z" fill="#dc7f6a"/>
        <path id="Trazado_119282" data-name="Trazado 119282" d="M71.37,50.49a5.54,5.54,0,1,0,5.8,5.26A5.54,5.54,0,0,0,71.37,50.49Z" fill="#dc7e6a"/>
        <path id="Trazado_119283" data-name="Trazado 119283" d="M71.37,50.54a5.48,5.48,0,1,0,3.956,1.412A5.49,5.49,0,0,0,71.37,50.54Z" fill="#dc7d69"/>
        <path id="Trazado_119284" data-name="Trazado 119284" d="M71.37,50.58a5.45,5.45,0,1,0,5.71,5.18A5.45,5.45,0,0,0,71.37,50.58Z" fill="#db7c68"/>
        <path id="Trazado_119285" data-name="Trazado 119285" d="M71.38,50.63A5.4,5.4,0,1,0,77,55.76,5.4,5.4,0,0,0,71.38,50.63Z" fill="#db7b67"/>
        <path id="Trazado_119286" data-name="Trazado 119286" d="M71.38,50.67A5.36,5.36,0,1,0,77,55.76,5.36,5.36,0,0,0,71.38,50.67Z" fill="#db7a67"/>
        <path id="Trazado_119287" data-name="Trazado 119287" d="M71.38,50.72a5.31,5.31,0,1,0,5.56,5,5.31,5.31,0,0,0-5.56-5Z" fill="#db7966"/>
        <path id="Trazado_119288" data-name="Trazado 119288" d="M71.38,50.76a5.27,5.27,0,1,0,5.52,5,5.27,5.27,0,0,0-5.52-5Z" fill="#db7865"/>
        <path id="Trazado_119289" data-name="Trazado 119289" d="M71.38,50.81a5.21,5.21,0,1,0,3.779,1.358A5.22,5.22,0,0,0,71.38,50.81Z" fill="#da7864"/>
        <path id="Trazado_119290" data-name="Trazado 119290" d="M71.39,50.85a5.18,5.18,0,1,0,5.42,4.92,5.18,5.18,0,0,0-5.42-4.92Z" fill="#da7763"/>
        <path id="Trazado_119291" data-name="Trazado 119291" d="M71.39,50.9a5.12,5.12,0,1,0,3.7,1.321,5.13,5.13,0,0,0-3.7-1.321Z" fill="#da7663"/>
        <path id="Trazado_119292" data-name="Trazado 119292" d="M71.39,50.94a5.09,5.09,0,1,0,5.33,4.83A5.09,5.09,0,0,0,71.39,50.94Z" fill="#da7562"/>
        <path id="Trazado_119293" data-name="Trazado 119293" d="M71.39,51a5,5,0,1,0,3.644,1.289A5,5,0,0,0,71.39,51Z" fill="#d97461"/>
        <path id="Trazado_119294" data-name="Trazado 119294" d="M71.4,51a5,5,0,1,0,5.23,4.75A5,5,0,0,0,71.4,51Z" fill="#d97360"/>
        <path id="Trazado_119295" data-name="Trazado 119295" d="M71.4,51.08a5,5,0,1,0,5.18,4.7,4.94,4.94,0,0,0-5.18-4.7Z" fill="#d97260"/>
        <path id="Trazado_119296" data-name="Trazado 119296" d="M71.4,51.12a4.91,4.91,0,1,0,5.14,4.66,4.91,4.91,0,0,0-5.14-4.66Z" fill="#d9715f"/>
        <path id="Trazado_119297" data-name="Trazado 119297" d="M71.4,51.17a4.85,4.85,0,1,0,3.5,1.249,4.86,4.86,0,0,0-3.5-1.249Z" fill="#d9705e"/>
        <path id="Trazado_119298" data-name="Trazado 119298" d="M71.4,51.21a4.82,4.82,0,1,0,5,4.58,4.82,4.82,0,0,0-5-4.58Z" fill="#d86f5d"/>
        <path id="Trazado_119299" data-name="Trazado 119299" d="M71.41,51.26a4.77,4.77,0,1,0,5,4.53,4.77,4.77,0,0,0-5-4.53Z" fill="#d86e5d"/>
        <path id="Trazado_119300" data-name="Trazado 119300" d="M71.41,51.3a4.73,4.73,0,1,0,3.436,1.2,4.73,4.73,0,0,0-3.436-1.2Z" fill="#d86d5c"/>
        <path id="Trazado_119301" data-name="Trazado 119301" d="M71.41,51.35a4.67,4.67,0,1,0,3.371,1.2,4.68,4.68,0,0,0-3.371-1.2Z" fill="#d86c5b"/>
        <path id="Trazado_119302" data-name="Trazado 119302" d="M71.41,51.39a4.64,4.64,0,1,0,4.86,4.41,4.64,4.64,0,0,0-4.86-4.41Z" fill="#d76b5a"/>
        <path id="Trazado_119303" data-name="Trazado 119303" d="M71.41,51.44a4.58,4.58,0,1,0,3.311,1.181A4.59,4.59,0,0,0,71.41,51.44Z" fill="#d76a59"/>
        <path id="Trazado_119304" data-name="Trazado 119304" d="M71.42,51.48a4.55,4.55,0,1,0,4.76,4.32A4.55,4.55,0,0,0,71.42,51.48Z" fill="#d76959"/>
        <path id="Trazado_119305" data-name="Trazado 119305" d="M71.42,51.53a4.49,4.49,0,1,0,3.241,1.158A4.5,4.5,0,0,0,71.42,51.53Z" fill="#d76858"/>
        <path id="Trazado_119306" data-name="Trazado 119306" d="M71.42,51.57a4.45,4.45,0,1,0,3.213,1.146A4.46,4.46,0,0,0,71.42,51.57Z" fill="#d76757"/>
        <path id="Trazado_119307" data-name="Trazado 119307" d="M71.42,51.62A4.41,4.41,0,1,0,76,55.81a4.41,4.41,0,0,0-4.58-4.19Z" fill="#d66656"/>
        <path id="Trazado_119308" data-name="Trazado 119308" d="M71.43,51.66A4.37,4.37,0,1,0,76,55.81a4.37,4.37,0,0,0-4.57-4.15Z" fill="#d66556"/>
        <path id="Trazado_119309" data-name="Trazado 119309" d="M71.43,51.71A4.31,4.31,0,1,0,74.573,52.8,4.32,4.32,0,0,0,71.43,51.71Z" fill="#d66455"/>
        <path id="Trazado_119310" data-name="Trazado 119310" d="M71.43,51.75a4.27,4.27,0,1,0,3.082,1.1,4.28,4.28,0,0,0-3.082-1.1Z" fill="#d66354"/>
        <path id="Trazado_119311" data-name="Trazado 119311" d="M71.43,51.8a4.23,4.23,0,1,0,4.43,4,4.23,4.23,0,0,0-4.43-4Z" fill="#d56253"/>
        <path id="Trazado_119312" data-name="Trazado 119312" d="M71.43,51.84a4.19,4.19,0,1,0,4.39,4,4.19,4.19,0,0,0-4.39-4Z" fill="#d56153"/>
        <path id="Trazado_119313" data-name="Trazado 119313" d="M71.44,51.89a4.14,4.14,0,1,0,4.33,3.93A4.14,4.14,0,0,0,71.44,51.89Z" fill="#d56052"/>
        <path id="Trazado_119314" data-name="Trazado 119314" d="M71.44,51.93a4.09,4.09,0,1,0,2.952,1.055A4.09,4.09,0,0,0,71.44,51.93Z" fill="#d55f51"/>
        <path id="Trazado_119315" data-name="Trazado 119315" d="M71.44,52a4,4,0,1,0,4.24,3.84A4.06,4.06,0,0,0,71.44,52Z" fill="#d55e50"/>
        <path id="Trazado_119316" data-name="Trazado 119316" d="M71.44,52a4,4,0,1,0,2.892,1.032A4,4,0,0,0,71.44,52Z" fill="#d45d4f"/>
        <path id="Trazado_119317" data-name="Trazado 119317" d="M71.45,52.07a4,4,0,1,0,4.14,3.76A4,4,0,0,0,71.45,52.07Z" fill="#d45c4f"/>
        <path id="Trazado_119318" data-name="Trazado 119318" d="M71.45,52.11a3.91,3.91,0,1,0,2.822,1.009A3.91,3.91,0,0,0,71.45,52.11Z" fill="#d45b4e"/>
        <path id="Trazado_119319" data-name="Trazado 119319" d="M71.45,52.16a3.87,3.87,0,1,0,4.06,3.67A3.87,3.87,0,0,0,71.45,52.16Z" fill="#d45a4d"/>
        <path id="Trazado_119320" data-name="Trazado 119320" d="M71.45,52.2a3.82,3.82,0,1,0,4,3.64,3.82,3.82,0,0,0-4-3.64Z" fill="#d4594c"/>
        <path id="Trazado_119321" data-name="Trazado 119321" d="M71.45,52.25a3.78,3.78,0,1,0,2.749.96A3.78,3.78,0,0,0,71.45,52.25Z" fill="#d3584c"/>
        <path id="Trazado_119322" data-name="Trazado 119322" d="M71.46,52.29a3.73,3.73,0,1,0,3.91,3.55,3.73,3.73,0,0,0-3.91-3.55Z" fill="#d3574b"/>
        <path id="Trazado_119323" data-name="Trazado 119323" d="M71.46,52.34a3.69,3.69,0,1,0,3.87,3.5,3.69,3.69,0,0,0-3.87-3.5Z" fill="#d3564a"/>
        <path id="Trazado_119324" data-name="Trazado 119324" d="M71.46,52.38a3.64,3.64,0,1,0,2.628.937,3.64,3.64,0,0,0-2.628-.937Z" fill="#d35549"/>
        <path id="Trazado_119325" data-name="Trazado 119325" d="M71.46,52.43a3.6,3.6,0,1,0,2.6.926A3.6,3.6,0,0,0,71.46,52.43Z" fill="#d25449"/>
        <path id="Trazado_119326" data-name="Trazado 119326" d="M71.47,52.47a3.55,3.55,0,1,0,3.72,3.38,3.55,3.55,0,0,0-3.72-3.38Z" fill="#d25348"/>
        <path id="Trazado_119327" data-name="Trazado 119327" d="M71.47,52.52a3.51,3.51,0,1,0,3.68,3.33A3.51,3.51,0,0,0,71.47,52.52Z" fill="#d25247"/>
      </g>
      <g id="Grupo_80386" data-name="Grupo 80386" opacity="0.65">
        <path id="Trazado_119328" data-name="Trazado 119328" d="M53.3,49.89a7,7,0,1,0,5.068,1.8A7,7,0,0,0,53.3,49.89Z" fill="#e39f83"/>
        <path id="Trazado_119329" data-name="Trazado 119329" d="M53.31,49.94a7,7,0,1,0,7.3,6.62,7,7,0,0,0-7.3-6.62Z" fill="#e39e82"/>
        <path id="Trazado_119330" data-name="Trazado 119330" d="M53.31,50a6.93,6.93,0,1,0,7.26,6.59A6.93,6.93,0,0,0,53.31,50Z" fill="#e39d81"/>
        <path id="Trazado_119331" data-name="Trazado 119331" d="M53.31,50a6.87,6.87,0,1,0,4.963,1.773A6.88,6.88,0,0,0,53.31,50Z" fill="#e29c81"/>
        <path id="Trazado_119332" data-name="Trazado 119332" d="M53.31,50.07a6.84,6.84,0,1,0,7.17,6.5,6.84,6.84,0,0,0-7.17-6.5Z" fill="#e29b80"/>
        <path id="Trazado_119333" data-name="Trazado 119333" d="M53.31,50.12a6.79,6.79,0,1,0,7.12,6.45,6.79,6.79,0,0,0-7.12-6.45Z" fill="#e29a7f"/>
        <path id="Trazado_119334" data-name="Trazado 119334" d="M53.32,50.16a6.75,6.75,0,1,0,7.07,6.41,6.75,6.75,0,0,0-7.07-6.41Z" fill="#e2997e"/>
        <path id="Trazado_119335" data-name="Trazado 119335" d="M53.32,50.21a6.7,6.7,0,1,0,7,6.37,6.7,6.7,0,0,0-7-6.37Z" fill="#e1987e"/>
        <path id="Trazado_119336" data-name="Trazado 119336" d="M53.32,50.25a6.66,6.66,0,1,0,4.815,1.711A6.66,6.66,0,0,0,53.32,50.25Z" fill="#e1977d"/>
        <path id="Trazado_119337" data-name="Trazado 119337" d="M53.32,50.3a6.61,6.61,0,1,0,6.93,6.28A6.61,6.61,0,0,0,53.32,50.3Z" fill="#e1967c"/>
        <path id="Trazado_119338" data-name="Trazado 119338" d="M53.33,50.34a6.57,6.57,0,1,0,6.88,6.24,6.57,6.57,0,0,0-6.88-6.24Z" fill="#e1957b"/>
        <path id="Trazado_119339" data-name="Trazado 119339" d="M53.33,50.39a6.52,6.52,0,1,0,6.83,6.2,6.52,6.52,0,0,0-6.83-6.2Z" fill="#e1947b"/>
        <path id="Trazado_119340" data-name="Trazado 119340" d="M53.33,50.43a6.48,6.48,0,1,0,6.79,6.16A6.48,6.48,0,0,0,53.33,50.43Z" fill="#e0937a"/>
        <path id="Trazado_119341" data-name="Trazado 119341" d="M53.33,50.48a6.43,6.43,0,1,0,6.74,6.11,6.43,6.43,0,0,0-6.74-6.11Z" fill="#e09279"/>
        <path id="Trazado_119342" data-name="Trazado 119342" d="M53.33,50.52A6.39,6.39,0,1,0,60,56.59a6.39,6.39,0,0,0-6.67-6.07Z" fill="#e09178"/>
        <path id="Trazado_119343" data-name="Trazado 119343" d="M53.34,50.57a6.34,6.34,0,1,0,6.64,6,6.34,6.34,0,0,0-6.64-6Z" fill="#e09077"/>
        <path id="Trazado_119344" data-name="Trazado 119344" d="M53.34,50.61a6.29,6.29,0,1,0,4.547,1.628A6.3,6.3,0,0,0,53.34,50.61Z" fill="#e08f77"/>
        <path id="Trazado_119345" data-name="Trazado 119345" d="M53.34,50.66a6.25,6.25,0,1,0,4.512,1.609A6.25,6.25,0,0,0,53.34,50.66Z" fill="#df8e76"/>
        <path id="Trazado_119346" data-name="Trazado 119346" d="M53.34,50.7a6.21,6.21,0,1,0,6.51,5.9,6.21,6.21,0,0,0-6.51-5.9Z" fill="#df8d75"/>
        <path id="Trazado_119347" data-name="Trazado 119347" d="M53.35,50.75a6.16,6.16,0,1,0,6.46,5.85A6.16,6.16,0,0,0,53.35,50.75Z" fill="#df8c74"/>
        <path id="Trazado_119348" data-name="Trazado 119348" d="M53.35,50.79a6.12,6.12,0,1,0,6.41,5.82,6.12,6.12,0,0,0-6.41-5.82Z" fill="#df8b74"/>
        <path id="Trazado_119349" data-name="Trazado 119349" d="M53.35,50.84A6.07,6.07,0,1,0,57.732,52.4,6.07,6.07,0,0,0,53.35,50.84Z" fill="#de8a73"/>
        <path id="Trazado_119350" data-name="Trazado 119350" d="M53.35,50.88a6,6,0,1,0,4.356,1.546A6,6,0,0,0,53.35,50.88Z" fill="#de8972"/>
        <path id="Trazado_119351" data-name="Trazado 119351" d="M53.35,50.93a6,6,0,1,0,6.28,5.68,6,6,0,0,0-6.28-5.68Z" fill="#de8871"/>
        <path id="Trazado_119352" data-name="Trazado 119352" d="M53.36,51a5.94,5.94,0,1,0,6.22,5.64A5.94,5.94,0,0,0,53.36,51Z" fill="#de8771"/>
        <path id="Trazado_119353" data-name="Trazado 119353" d="M53.36,51a5.89,5.89,0,1,0,4.252,1.518A5.89,5.89,0,0,0,53.36,51Z" fill="#de8670"/>
        <path id="Trazado_119354" data-name="Trazado 119354" d="M53.36,51.06a5.85,5.85,0,1,0,6.13,5.56A5.85,5.85,0,0,0,53.36,51.06Z" fill="#dd856f"/>
        <path id="Trazado_119355" data-name="Trazado 119355" d="M53.36,51.11A5.8,5.8,0,1,0,57.548,52.6,5.8,5.8,0,0,0,53.36,51.11Z" fill="#dd846e"/>
        <path id="Trazado_119356" data-name="Trazado 119356" d="M53.37,51.15a5.76,5.76,0,1,0,6,5.47,5.76,5.76,0,0,0-6-5.47Z" fill="#dd836d"/>
        <path id="Trazado_119357" data-name="Trazado 119357" d="M53.37,51.2A5.71,5.71,0,1,0,57.5,52.669,5.71,5.71,0,0,0,53.37,51.2Z" fill="#dd826d"/>
        <path id="Trazado_119358" data-name="Trazado 119358" d="M53.37,51.24a5.67,5.67,0,1,0,5.94,5.39,5.67,5.67,0,0,0-5.94-5.39Z" fill="#dc816c"/>
        <path id="Trazado_119359" data-name="Trazado 119359" d="M53.37,51.29a5.62,5.62,0,1,0,4.058,1.446A5.62,5.62,0,0,0,53.37,51.29Z" fill="#dc806b"/>
        <path id="Trazado_119360" data-name="Trazado 119360" d="M53.37,51.33a5.58,5.58,0,1,0,5.85,5.3,5.58,5.58,0,0,0-5.85-5.3Z" fill="#dc7f6a"/>
        <path id="Trazado_119361" data-name="Trazado 119361" d="M53.38,51.38a5.53,5.53,0,1,0,5.8,5.25,5.53,5.53,0,0,0-5.8-5.25Z" fill="#dc7e6a"/>
        <path id="Trazado_119362" data-name="Trazado 119362" d="M53.38,51.42a5.49,5.49,0,1,0,5.75,5.22,5.49,5.49,0,0,0-5.75-5.22Z" fill="#dc7d69"/>
        <path id="Trazado_119363" data-name="Trazado 119363" d="M53.38,51.47a5.44,5.44,0,1,0,3.928,1.4A5.44,5.44,0,0,0,53.38,51.47Z" fill="#db7c68"/>
        <path id="Trazado_119364" data-name="Trazado 119364" d="M53.38,51.51A5.4,5.4,0,1,0,59,56.64a5.4,5.4,0,0,0-5.62-5.13Z" fill="#db7b67"/>
        <path id="Trazado_119365" data-name="Trazado 119365" d="M53.39,51.56a5.34,5.34,0,1,0,3.86,1.375,5.35,5.35,0,0,0-3.86-1.375Z" fill="#db7a67"/>
        <path id="Trazado_119366" data-name="Trazado 119366" d="M53.39,51.6a5.31,5.31,0,1,0,5.56,5,5.31,5.31,0,0,0-5.56-5Z" fill="#db7966"/>
        <path id="Trazado_119367" data-name="Trazado 119367" d="M53.39,51.65A5.26,5.26,0,1,0,57.187,53,5.26,5.26,0,0,0,53.39,51.65Z" fill="#db7865"/>
        <path id="Trazado_119368" data-name="Trazado 119368" d="M53.39,51.69a5.22,5.22,0,1,0,3.776,1.361A5.22,5.22,0,0,0,53.39,51.69Z" fill="#da7864"/>
        <circle id="Elipse_5155" data-name="Elipse 5155" cx="5.17" cy="5.17" r="5.17" transform="translate(46.376 56.162) rotate(-39.17)" fill="#da7763"/>
        <circle id="Elipse_5156" data-name="Elipse 5156" cx="5.13" cy="5.13" r="5.13" transform="translate(46.457 55.971) rotate(-37.51)" fill="#da7663"/>
        <circle id="Elipse_5157" data-name="Elipse 5157" cx="5.08" cy="5.08" r="5.08" transform="matrix(0.818, -0.575, 0.575, 0.818, 46.58, 55.666)" fill="#da7562"/>
        <circle id="Elipse_5158" data-name="Elipse 5158" cx="5.04" cy="5.04" r="5.04" transform="matrix(0.855, -0.519, 0.519, 0.855, 46.729, 55.219)" fill="#d97461"/>
        <circle id="Elipse_5159" data-name="Elipse 5159" cx="4.99" cy="4.99" r="4.99" transform="translate(48.66 51.92)" fill="#d97360"/>
        <circle id="Elipse_5160" data-name="Elipse 5160" cx="4.95" cy="4.95" r="4.95" transform="translate(48.7 51.96)" fill="#d97260"/>
        <circle id="Elipse_5161" data-name="Elipse 5161" cx="4.9" cy="4.9" r="4.9" transform="translate(48.75 52.01)" fill="#d9715f"/>
        <circle id="Elipse_5162" data-name="Elipse 5162" cx="4.86" cy="4.86" r="4.86" transform="translate(48.79 52.05)" fill="#d9705e"/>
        <circle id="Elipse_5163" data-name="Elipse 5163" cx="4.81" cy="4.81" r="4.81" transform="translate(48.84 52.1)" fill="#d86f5d"/>
        <circle id="Elipse_5164" data-name="Elipse 5164" cx="4.77" cy="4.77" r="4.77" transform="translate(47.174 58.772) rotate(-61.02)" fill="#d86e5d"/>
        <circle id="Elipse_5165" data-name="Elipse 5165" cx="4.72" cy="4.72" r="4.72" transform="translate(47.157 58.435) rotate(-58.21)" fill="#d86d5c"/>
        <path id="Trazado_119369" data-name="Trazado 119369" d="M53.42,52.23a4.68,4.68,0,1,0,4.9,4.45A4.68,4.68,0,0,0,53.42,52.23Z" fill="#d86c5b"/>
        <path id="Trazado_119370" data-name="Trazado 119370" d="M53.42,52.28a4.62,4.62,0,1,0,3.346,1.189A4.63,4.63,0,0,0,53.42,52.28Z" fill="#d76b5a"/>
        <path id="Trazado_119371" data-name="Trazado 119371" d="M53.42,52.32a4.59,4.59,0,1,0,4.81,4.36A4.59,4.59,0,0,0,53.42,52.32Z" fill="#d76a59"/>
        <path id="Trazado_119372" data-name="Trazado 119372" d="M53.43,52.37a4.54,4.54,0,1,0,4.76,4.31,4.54,4.54,0,0,0-4.76-4.31Z" fill="#d76959"/>
        <path id="Trazado_119373" data-name="Trazado 119373" d="M53.43,52.41a4.5,4.5,0,1,0,4.71,4.27,4.5,4.5,0,0,0-4.71-4.27Z" fill="#d76858"/>
        <path id="Trazado_119374" data-name="Trazado 119374" d="M53.43,52.46a4.45,4.45,0,1,0,3.213,1.146A4.45,4.45,0,0,0,53.43,52.46Z" fill="#d76757"/>
        <path id="Trazado_119375" data-name="Trazado 119375" d="M53.43,52.5a4.41,4.41,0,1,0,4.62,4.19A4.41,4.41,0,0,0,53.43,52.5Z" fill="#d66656"/>
        <path id="Trazado_119376" data-name="Trazado 119376" d="M53.43,52.55a4.35,4.35,0,1,0,3.145,1.12,4.36,4.36,0,0,0-3.145-1.12Z" fill="#d66556"/>
        <path id="Trazado_119377" data-name="Trazado 119377" d="M53.44,52.59a4.33,4.33,0,1,0,3.131,1.1,4.32,4.32,0,0,0-3.131-1.1Z" fill="#d66455"/>
        <path id="Trazado_119378" data-name="Trazado 119378" d="M53.44,52.64a4.26,4.26,0,1,0,3.085,1.1,4.27,4.27,0,0,0-3.085-1.1Z" fill="#d66354"/>
        <path id="Trazado_119379" data-name="Trazado 119379" d="M53.44,52.68a4.23,4.23,0,1,0,4.43,4A4.23,4.23,0,0,0,53.44,52.68Z" fill="#d56253"/>
        <path id="Trazado_119380" data-name="Trazado 119380" d="M53.44,52.73a4.17,4.17,0,1,0,3.032,1.082A4.18,4.18,0,0,0,53.44,52.73Z" fill="#d56153"/>
        <path id="Trazado_119381" data-name="Trazado 119381" d="M53.44,52.77a4.14,4.14,0,1,0,4.34,3.93A4.14,4.14,0,0,0,53.44,52.77Z" fill="#d56052"/>
        <path id="Trazado_119382" data-name="Trazado 119382" d="M53.45,52.81a4.1,4.1,0,1,0,4.29,3.89,4.1,4.1,0,0,0-4.29-3.89Z" fill="#d55f51"/>
        <path id="Trazado_119383" data-name="Trazado 119383" d="M53.45,52.86a4,4,0,1,0,4.24,3.85A4.05,4.05,0,0,0,53.45,52.86Z" fill="#d55e50"/>
        <path id="Trazado_119384" data-name="Trazado 119384" d="M53.45,52.9a4,4,0,1,0,2.892,1.032A4,4,0,0,0,53.45,52.9Z" fill="#d45d4f"/>
        <path id="Trazado_119385" data-name="Trazado 119385" d="M53.45,53a4,4,0,1,0,4.15,3.76A4,4,0,0,0,53.45,53Z" fill="#d45c4f"/>
        <path id="Trazado_119386" data-name="Trazado 119386" d="M53.46,53a3.92,3.92,0,1,0,4.1,3.72A3.92,3.92,0,0,0,53.46,53Z" fill="#d45b4e"/>
        <path id="Trazado_119387" data-name="Trazado 119387" d="M53.46,53a3.87,3.87,0,1,0,4,3.68,3.87,3.87,0,0,0-4-3.68Z" fill="#d45a4d"/>
        <path id="Trazado_119388" data-name="Trazado 119388" d="M53.46,53.08a3.82,3.82,0,1,0,2.755.99A3.83,3.83,0,0,0,53.46,53.08Z" fill="#d4594c"/>
        <path id="Trazado_119389" data-name="Trazado 119389" d="M53.46,53.13a3.79,3.79,0,1,0,2.746.963,3.78,3.78,0,0,0-2.746-.963Z" fill="#d3584c"/>
        <path id="Trazado_119390" data-name="Trazado 119390" d="M53.46,53.17a3.74,3.74,0,1,0,3.92,3.55,3.74,3.74,0,0,0-3.92-3.55Z" fill="#d3574b"/>
        <path id="Trazado_119391" data-name="Trazado 119391" d="M53.47,53.22a3.69,3.69,0,1,0,3.86,3.5,3.69,3.69,0,0,0-3.86-3.5Z" fill="#d3564a"/>
        <path id="Trazado_119392" data-name="Trazado 119392" d="M53.47,53.26A3.64,3.64,0,1,0,56.1,54.2a3.65,3.65,0,0,0-2.631-.941Z" fill="#d35549"/>
        <path id="Trazado_119393" data-name="Trazado 119393" d="M53.47,53.31a3.6,3.6,0,1,0,3.77,3.42,3.6,3.6,0,0,0-3.77-3.42Z" fill="#d25449"/>
        <path id="Trazado_119394" data-name="Trazado 119394" d="M53.47,53.35a3.56,3.56,0,1,0,3.73,3.38,3.56,3.56,0,0,0-3.73-3.38Z" fill="#d25348"/>
        <path id="Trazado_119395" data-name="Trazado 119395" d="M53.48,53.4a3.51,3.51,0,1,0,3.67,3.33,3.51,3.51,0,0,0-3.67-3.33Z" fill="#d25247"/>
      </g>
      <path id="Trazado_119396" data-name="Trazado 119396" d="M41.16,52.08c-1.88.73-2.58,3.48-1.55,6.15s3.39,4.23,5.28,3.5,2.57-3.47,1.55-6.14S43.05,51.36,41.16,52.08Z" fill="#e39f83"/>
      <path id="Trazado_119397" data-name="Trazado 119397" d="M45.18,58.28C41.87,62,39.74,58,39.41,57.6c.06.21.12.42.2.63,1,2.62,3.32,4.18,5.19,3.53,3.79,6.9,10.82,12.13,18.43,12.05a16.84,16.84,0,0,0,7.73-2,16.5,16.5,0,0,0,2.43-1.56C56.16,77.08,48.68,65.42,45.18,58.28Z" fill="#d58a73"/>
      <path id="Trazado_119398" data-name="Trazado 119398" d="M40.6,53.72a3.74,3.74,0,0,1,2.15,3.45l2-.35S43.88,52.45,40.6,53.72Z" fill="#d58a73"/>
      <path id="Trazado_119399" data-name="Trazado 119399" d="M56.37,60.87s1.24,7.44,8.16,7.25c7.12-.19,7-7.8,7-7.8S65.59,67.7,56.37,60.87Z" fill="#6c332e"/>
      <path id="Trazado_119400" data-name="Trazado 119400" d="M57.42,61.59a8,8,0,0,0,6.92,4.29c4.92.07,6.27-4.18,6.1-4.5C68.43,63.05,63.77,65.68,57.42,61.59Z" fill="#fff"/>
      <path id="Trazado_119401" data-name="Trazado 119401" d="M59.83,64.38a26.909,26.909,0,0,1,3.46-.65,12.66,12.66,0,0,1-5.87-2.14,8.27,8.27,0,0,0,2.41,2.79Z" fill="#c1b9a3" opacity="0.35"/>
      <path id="Trazado_119402" data-name="Trazado 119402" d="M65.81,63.6a12.3,12.3,0,0,1,3.24.44,4.38,4.38,0,0,0,1.39-2.66,10.3,10.3,0,0,1-4.63,2.22Z" fill="#c1b9a3" opacity="0.35"/>
      <path id="Trazado_119403" data-name="Trazado 119403" d="M68.07,54s3.56,2.18,5.52.89c2.62-1.73,1.14-4.64,1.14-4.64C69.59,44.52,68.07,54,68.07,54Z" fill="#fff"/>
      <path id="Trazado_119404" data-name="Trazado 119404" d="M70.16,49.22c-.81.3-1.09,1.6-.61,2.9s1.54,2.11,2.36,1.81,1.09-1.61.6-2.91S71,48.91,70.16,49.22Z" fill="#381911"/>
      <path id="Trazado_119405" data-name="Trazado 119405" d="M70.16,49.22c-.81.3-1.09,1.6-.61,2.9a3.93,3.93,0,0,0,.32.65,2.09,2.09,0,0,1,.23-2,2,2,0,0,1,1.77-.61,1.521,1.521,0,0,1,.2.06C71.54,49.4,70.78,49,70.16,49.22Z" opacity="0.36"/>
      <path id="Trazado_119406" data-name="Trazado 119406" d="M71.93,51.37c.61.91-2,2.21-2,2.21l-.29-.85S71.32,50.45,71.93,51.37Z" fill="#fff" opacity="0.71"/>
      <path id="Trazado_119407" data-name="Trazado 119407" d="M74.19,49.29s-1.7-2.68-3.7-1.26S68.07,54,68.07,54s1.49-4.67,3.36-5S75,50.78,75,50.78l.41-1.39-.88-.92Z" fill="#381911"/>
      <path id="Trazado_119408" data-name="Trazado 119408" d="M49.83,53.49c.69,2.29,4.35,3.34,6.79,2,2.74-1.54,1.1-3.6,1.1-3.6C53,46.7,49.26,51.58,49.83,53.49Z" fill="#fff"/>
      <path id="Trazado_119409" data-name="Trazado 119409" d="M52.89,50.06c-.82.31-1.09,1.61-.61,2.91s1.54,2.11,2.35,1.8,1.09-1.6.61-2.9S53.71,49.76,52.89,50.06Z" fill="#381911"/>
      <path id="Trazado_119410" data-name="Trazado 119410" d="M52.89,50.06c-.82.31-1.09,1.61-.61,2.91a4.361,4.361,0,0,0,.32.65,2.11,2.11,0,0,1,.23-2,2,2,0,0,1,1.76-.6l.21.05C54.26,50.25,53.51,49.84,52.89,50.06Z" opacity="0.36"/>
      <path id="Trazado_119411" data-name="Trazado 119411" d="M54.15,52.32c.55,1-2,2.09-2,2.09l-.25-.86S53.6,51.37,54.15,52.32Z" fill="#fff" opacity="0.71"/>
      <path id="Trazado_119412" data-name="Trazado 119412" d="M53.14,48.82a3.13,3.13,0,0,0-3.25,2.67L48.83,51l-.53,1.36,1.48.54s1.62-2.72,3.88-2.56a8.69,8.69,0,0,1,4.41,2.15,5.46,5.46,0,0,0-4.93-3.67Z" fill="#381911"/>
      <path id="Trazado_119413" data-name="Trazado 119413" d="M67.61,43.42,68,44.79a6.1,6.1,0,0,1,5.26.34l-.11-.88C70.91,42.31,67.61,43.42,67.61,43.42Z" fill="#381911"/>
      <path id="Trazado_119414" data-name="Trazado 119414" d="M52.39,46.21l.5.8a5.53,5.53,0,0,1,5-1.52l.23-1.19S54.21,43.89,52.39,46.21Z" fill="#381911"/>
      <path id="Trazado_119415" data-name="Trazado 119415" d="M58,23.13c-7.75.38-18.84,6.48-16.06,28.78,0,0,2.61,3.19,3.1.29.56-3.3,1.13-14.78,3.91-16.85,4.51-3.34,5.94.93,13,1,3.65.06,5.76-5.81,10.65-2.45,7.59,5.22,8.85,16.46,8.85,16.46C81.55,25.46,64.83,22.79,58,23.13Z" fill="#472319"/>
      <path id="Trazado_119416" data-name="Trazado 119416" d="M68.83,25.22a20.15,20.15,0,0,1,3.49,8.56l.27.17A16.18,16.18,0,0,1,75.8,36.9,28.83,28.83,0,0,0,74.3,29a19.67,19.67,0,0,0-5.47-3.78Z" fill="#fff" opacity="0.08"/>
      <path id="Trazado_119417" data-name="Trazado 119417" d="M64.76,49l.76,3A26.24,26.24,0,0,1,73,50.39c5.16-.54,7,0,7,0l-.18-3.6C73,46.08,64.76,49,64.76,49Z" fill="#fff" opacity="0.41"/>
      <path id="Trazado_119418" data-name="Trazado 119418" d="M46.42,48.46l.17,3.6s1.77-.75,7-.72a25.91,25.91,0,0,1,7.61.88l.48-3.06S52.51,47.08,46.42,48.46Z" fill="#fff" opacity="0.41"/>
      <path id="Trazado_119419" data-name="Trazado 119419" d="M81.24,45.2l-.88-.05a30.81,30.81,0,0,0-15.24,2.72A14.6,14.6,0,0,0,61,48a30.27,30.27,0,0,0-15.11-1.15L45,47l-1.4.45-3.13,3.76v1.32l1.46-.6,2-1.7H45.1a20.31,20.31,0,0,0,2.46,8.52c.9,1.47,3,2.22,5.73,2.09h.33c2.65-.19,5.87-1.23,6.66-3.05a39.829,39.829,0,0,0,1.91-7.87,12.42,12.42,0,0,1,2.06-.1A39.691,39.691,0,0,0,67,57.47c1,1.74,4.31,2.45,7,2.38h.33c2.78-.14,4.79-1.09,5.56-2.64a20.32,20.32,0,0,0,1.63-8.85l1,.21V45.3l-1.29-.09ZM58.39,56.9c-.26.61-2.31,1.6-4.93,1.79-2,.15-3.67-.27-4.16-1.07-1.77-2.87-2.14-7-2.21-8.76a28.48,28.48,0,0,1,13,1.1,36.38,36.38,0,0,1-1.7,6.94ZM78,56.21c-.41.85-2,1.43-4.08,1.48-2.65.07-4.81-.72-5.13-1.29a36.2,36.2,0,0,1-2.38-6.74,29.29,29.29,0,0,1,13-2.39C79.44,49.08,79.47,53.18,78,56.21Z" fill="#282828"/>
      <path id="Trazado_119420" data-name="Trazado 119420" d="M62.5,23.36a24.17,24.17,0,0,0-4.5-.23,14.44,14.44,0,0,0-1.69.17c.39.25.77.51,1.14.79,3.25,2.43,6.66,6.79,7.5,11.19a13.68,13.68,0,0,1,3.74-2.23,20.9,20.9,0,0,0-5.5-9.11C62.94,23.73,62.72,23.55,62.5,23.36Z" fill="#fff" opacity="0.08"/>
      <path id="Trazado_119421" data-name="Trazado 119421" d="M81.24,45.2l-.88-.05a30.81,30.81,0,0,0-15.24,2.72A14.6,14.6,0,0,0,61,48a30.27,30.27,0,0,0-15.11-1.15L45,47l-1.4.45-1.54,1.86c8.69-3.54,16.44,0,21.12-.21,4.23-.2,8.25-3.69,19.33-3.24v-.55l-1.29-.09Z" fill="#fff" opacity="0.16"/>
      <path id="Trazado_119422" data-name="Trazado 119422" d="M40.48,51.19l-.05,1.32,1.46-.6,2.04-1.7-.31-2.78Z" opacity="0.45"/>
      <path id="Trazado_119423" data-name="Trazado 119423" d="M67.65,56.81c-2.41-1.62-3.48-5.74-3.48-5.74-2.37.1-5,9.56,0,9.54C68.52,60.59,69.72,58.21,67.65,56.81Z" fill="#e39f83"/>
      <path id="Trazado_119424" data-name="Trazado 119424" d="M64.56,52.25c-.59.06-1.19.16-1.78.27a12.21,12.21,0,0,0,2.46,4.58,15.861,15.861,0,0,0,2.29-.38,10.15,10.15,0,0,1-2.97-4.47Z" fill="#fff" opacity="0.21"/>
      <path id="Trazado_119425" data-name="Trazado 119425" d="M61.4,58a2.69,2.69,0,0,0,2.77,2.65c3.35,0,4.83-1.44,4.38-2.72A10.13,10.13,0,0,1,61.4,58Z" fill="#d58a73"/>
      <path id="Trazado_119426" data-name="Trazado 119426" d="M53.25,104.49H78.44a13,13,0,0,1,.81-4.61c2.09-5.66.18-8.6-3.06-13.07-.38-.52-.75-1-1.11-1.55-2.4-1.57-4.51-3.68-5-6.29-3.28,0-8.23-.44-13.74-.23H55.06a22.32,22.32,0,0,1-5.9,8.71c1,4.33,2.07,8.66,2.93,12.85C52.4,101.71,52.82,103.1,53.25,104.49Z" fill="#d58a73"/>
      <path id="Trazado_119427" data-name="Trazado 119427" d="M75.08,85.26c-2.4-1.57-4.5-3.68-5-6.29-.87,0-1.86,0-3-.08a4.4,4.4,0,0,1-1.73,1.72,5.34,5.34,0,0,1-3.27.49,5.14,5.14,0,0,1-3.66-2.41H55.01a22.32,22.32,0,0,1-5.9,8.71c1,4.33,2.07,8.66,2.93,12.85.63,3.06,1.93,6.21,2.68,9.38a50,50,0,0,0,23.78-3.31,13.2,13.2,0,0,1,.67-6.54c2.09-5.66.18-8.6-3.06-13.07C75.81,86.29,75.44,85.78,75.08,85.26Z" fill="#f2f2f2"/>
      <path id="Trazado_119428" data-name="Trazado 119428" d="M81.51,92.48a102.932,102.932,0,0,0-7-12.67,1.23,1.23,0,0,0-1-.56l-4.4-.3c1,16.23-7.19,13.09-12.72-.42-3.06.15-9.66,1.17-10.18,2.35,0,0,5.22,18.27,5.91,28.5A51.061,51.061,0,0,0,60,110a49.83,49.83,0,0,0,21.39-4.8l-.75-2.27S84.4,98.86,81.51,92.48Z" fill="#544947"/>
      <path id="Trazado_119429" data-name="Trazado 119429" d="M81.51,92.48c-.28-.62-.57-1.23-.86-1.83.82,4,1.95,7.3-3.39,9.24-4.12,1.5-9.46,1.77-13.81,1.44s-8.93-1.57-11.89-4.92a15.09,15.09,0,0,1-2.28-3.58,116.923,116.923,0,0,1,2.85,16.55A51.062,51.062,0,0,0,60,110a49.83,49.83,0,0,0,21.39-4.8l-.75-2.27S84.4,98.86,81.51,92.48Z" opacity="0.1"/>
      <path id="Trazado_119430" data-name="Trazado 119430" d="M66.83,76.64s-.2,2.51-3.54,2.39a4.77,4.77,0,0,1-4.35-2.86,6.84,6.84,0,0,0-3.3,7.51c1.06,5.1,8.09-2.48,8.09-2.48s7.08,6.15,7.81,2.17S66.83,76.64,66.83,76.64Z" fill="#f9f9f9"/>
      <path id="Trazado_119431" data-name="Trazado 119431" d="M56.37,60.87a19.4,19.4,0,0,0,8.35,1.71,16,16,0,0,0,6.82-2.26s-1.61,3.2-6.52,3.61a10.87,10.87,0,0,1-8.65-3.06Z" fill="#e8716b"/>
      <path id="Trazado_119432" data-name="Trazado 119432" d="M56.37,60.87s1.91,6.63,8.07,6.51,7.1-7.06,7.1-7.06.1,7.88-6.92,8.36S56.37,60.87,56.37,60.87Z" fill="#f48176"/>
    </g>
  </g>
</svg>
